<?xml version="1.0" encoding="UTF-8" standalone="no"?>
<!DOCTYPE svg PUBLIC "-//W3C//DTD SVG 1.1//EN"
 "http://www.w3.org/Graphics/SVG/1.1/DTD/svg11.dtd">
<!-- Generated by graphviz version 2.40.1 (20161225.0304)
 -->
<!-- Title: %3 Pages: 1 -->
<svg width="331pt" height="307pt"
 viewBox="0.00 0.00 330.51 306.89" xmlns="http://www.w3.org/2000/svg" xmlns:xlink="http://www.w3.org/1999/xlink">
<g id="graph0" class="graph" transform="scale(1 1) rotate(0) translate(4 302.8917)">
<title>%3</title>
<polygon fill="#ffffff" stroke="transparent" points="-4,4 -4,-302.8917 326.51,-302.8917 326.51,4 -4,4"/>
<!-- President Clinton -->
<g id="node1" class="node">
<title>President Clinton</title>
<ellipse fill="none" stroke="#000000" cx="154.2002" cy="-146.6227" rx="71.5307" ry="18"/>
<text text-anchor="middle" x="154.2002" y="-142.4227" font-family="Times,serif" font-size="14.00" fill="#000000">President Clinton</text>
</g>
<!-- head g1 nominal subject -->
<g id="node2" class="node">
<title>head g1 nominal subject</title>
<ellipse fill="none" stroke="#000000" cx="99.6705" cy="-87.9183" rx="96.1184" ry="18"/>
<text text-anchor="middle" x="99.6705" y="-83.7183" font-family="Times,serif" font-size="14.00" fill="#000000">head g1 nominal subject</text>
</g>
<!-- President Clinton&#45;&gt;head g1 nominal subject -->
<g id="edge1" class="edge">
<title>President Clinton&#45;&gt;head g1 nominal subject</title>
<path fill="none" stroke="#000000" d="M137.8395,-129.0094C133.2867,-124.1081 128.2483,-118.684 123.3654,-113.4272"/>
<polygon fill="#000000" stroke="#000000" points="125.7673,-110.8703 116.3972,-105.9255 120.6386,-115.6344 125.7673,-110.8703"/>
<text text-anchor="middle" x="140.4912" y="-106.4387" font-family="Times,serif" font-size="14.00" fill="#000000">head</text>
</g>
<!-- child g1 nsubj -->
<g id="node4" class="node">
<title>child g1 nsubj</title>
<ellipse fill="none" stroke="#000000" cx="206.2445" cy="-198.5326" rx="60.4375" ry="18"/>
<text text-anchor="middle" x="206.2445" y="-194.3326" font-family="Times,serif" font-size="14.00" fill="#000000">child g1 nsubj</text>
</g>
<!-- President Clinton&#45;&gt;child g1 nsubj -->
<g id="edge2" class="edge">
<title>President Clinton&#45;&gt;child g1 nsubj</title>
<path fill="none" stroke="#000000" d="M171.82,-164.197C174.8721,-167.2413 178.097,-170.4578 181.3001,-173.6526"/>
<polygon fill="#000000" stroke="#000000" points="179.0909,-176.3925 188.6428,-180.9764 184.0342,-171.4363 179.0909,-176.3925"/>
<text text-anchor="middle" x="166.4022" y="-175.5537" font-family="Times,serif" font-size="14.00" fill="#000000">child</text>
</g>
<!-- is -->
<g id="node3" class="node">
<title>is</title>
<ellipse fill="none" stroke="#000000" cx="142.8091" cy="-18" rx="27" ry="18"/>
<text text-anchor="middle" x="142.8091" y="-13.8" font-family="Times,serif" font-size="14.00" fill="#000000">is</text>
</g>
<!-- head g1 nominal subject&#45;&gt;is -->
<g id="edge3" class="edge">
<title>head g1 nominal subject&#45;&gt;is</title>
<path fill="none" stroke="#000000" d="M110.7798,-69.9126C115.7453,-61.8646 121.6867,-52.2348 127.0964,-43.467"/>
<polygon fill="#000000" stroke="#000000" points="130.2059,-45.0927 132.4781,-34.7444 124.2485,-41.4171 130.2059,-45.0927"/>
</g>
<!-- go -->
<g id="node6" class="node">
<title>go</title>
<ellipse fill="none" stroke="#000000" cx="27" cy="-126.2104" rx="27" ry="18"/>
<text text-anchor="middle" x="27" y="-122.0104" font-family="Times,serif" font-size="14.00" fill="#000000">go</text>
</g>
<!-- head g1 nominal subject&#45;&gt;go -->
<g id="edge4" class="edge">
<title>head g1 nominal subject&#45;&gt;go</title>
<path fill="none" stroke="#000000" d="M67.1612,-105.0484C63.8876,-106.7733 60.572,-108.5204 57.3225,-110.2326"/>
<polygon fill="#000000" stroke="#000000" points="55.6442,-107.1607 48.4289,-114.9189 58.9075,-113.3536 55.6442,-107.1607"/>
</g>
<!-- be -->
<g id="node7" class="node">
<title>be</title>
<ellipse fill="none" stroke="#000000" cx="46.2285" cy="-30.0851" rx="27" ry="18"/>
<text text-anchor="middle" x="46.2285" y="-25.8851" font-family="Times,serif" font-size="14.00" fill="#000000">be</text>
</g>
<!-- head g1 nominal subject&#45;&gt;be -->
<g id="edge5" class="edge">
<title>head g1 nominal subject&#45;&gt;be</title>
<path fill="none" stroke="#000000" d="M83.0541,-69.9366C78.0826,-64.5566 72.5639,-58.5845 67.344,-52.9357"/>
<polygon fill="#000000" stroke="#000000" points="69.848,-50.4883 60.4907,-45.5192 64.7069,-55.239 69.848,-50.4883"/>
</g>
<!-- President -->
<g id="node5" class="node">
<title>President</title>
<ellipse fill="none" stroke="#000000" cx="200.8038" cy="-280.8917" rx="43.0387" ry="18"/>
<text text-anchor="middle" x="200.8038" y="-276.6917" font-family="Times,serif" font-size="14.00" fill="#000000">President</text>
</g>
<!-- child g1 nsubj&#45;&gt;President -->
<g id="edge6" class="edge">
<title>child g1 nsubj&#45;&gt;President</title>
<path fill="none" stroke="#000000" d="M205.037,-216.8108C204.3467,-227.2602 203.4658,-240.5945 202.6866,-252.3907"/>
<polygon fill="#000000" stroke="#000000" points="199.1748,-252.4556 202.0079,-262.6646 206.1595,-252.9171 199.1748,-252.4556"/>
</g>
<!-- Mr. -->
<g id="node8" class="node">
<title>Mr.</title>
<ellipse fill="none" stroke="#000000" cx="295.51" cy="-163.1968" rx="27" ry="18"/>
<text text-anchor="middle" x="295.51" y="-158.9968" font-family="Times,serif" font-size="14.00" fill="#000000">Mr.</text>
</g>
<!-- child g1 nsubj&#45;&gt;Mr. -->
<g id="edge7" class="edge">
<title>child g1 nsubj&#45;&gt;Mr.</title>
<path fill="none" stroke="#000000" d="M242.5522,-184.1602C249.2977,-181.49 256.3063,-178.7156 262.9318,-176.0929"/>
<polygon fill="#000000" stroke="#000000" points="264.2798,-179.3236 272.2896,-172.3886 261.7033,-172.815 264.2798,-179.3236"/>
</g>
</g>
</svg>
