<?xml version="1.0" encoding="UTF-8" standalone="no"?>
<!DOCTYPE svg PUBLIC "-//W3C//DTD SVG 1.1//EN"
 "http://www.w3.org/Graphics/SVG/1.1/DTD/svg11.dtd">
<!-- Generated by graphviz version 2.40.1 (20161225.0304)
 -->
<!-- Title: %3 Pages: 1 -->
<svg width="236pt" height="373pt"
 viewBox="0.00 0.00 235.69 373.12" xmlns="http://www.w3.org/2000/svg" xmlns:xlink="http://www.w3.org/1999/xlink">
<g id="graph0" class="graph" transform="scale(1 1) rotate(0) translate(4 369.1232)">
<title>%3</title>
<polygon fill="#ffffff" stroke="transparent" points="-4,4 -4,-369.1232 231.6911,-369.1232 231.6911,4 -4,4"/>
<!-- President Clinton -->
<g id="node1" class="node">
<title>President Clinton</title>
<ellipse fill="none" stroke="#000000" cx="115.2352" cy="-210.9886" rx="71.5307" ry="18"/>
<text text-anchor="middle" x="115.2352" y="-206.7886" font-family="Times,serif" font-size="14.00" fill="#000000">President Clinton</text>
</g>
<!-- head nominal subject -->
<g id="node2" class="node">
<title>head nominal subject</title>
<ellipse fill="none" stroke="#000000" cx="100.0017" cy="-135.7851" rx="85.0101" ry="18"/>
<text text-anchor="middle" x="100.0017" y="-131.5851" font-family="Times,serif" font-size="14.00" fill="#000000">head nominal subject</text>
</g>
<!-- President Clinton&#45;&gt;head nominal subject -->
<g id="edge1" class="edge">
<title>President Clinton&#45;&gt;head nominal subject</title>
<path fill="none" stroke="#000000" d="M111.5476,-192.784C109.7887,-184.1008 107.6449,-173.5173 105.6842,-163.8378"/>
<polygon fill="#000000" stroke="#000000" points="109.0711,-162.9282 103.6553,-153.8222 102.2104,-164.318 109.0711,-162.9282"/>
<text text-anchor="middle" x="94.4394" y="-176.359" font-family="Times,serif" font-size="14.00" fill="#000000">head</text>
</g>
<!-- child nsubj -->
<g id="node4" class="node">
<title>child nsubj</title>
<ellipse fill="none" stroke="#000000" cx="130.3331" cy="-287.12" rx="49.3286" ry="18"/>
<text text-anchor="middle" x="130.3331" y="-282.92" font-family="Times,serif" font-size="14.00" fill="#000000">child nsubj</text>
</g>
<!-- President Clinton&#45;&gt;child nsubj -->
<g id="edge2" class="edge">
<title>President Clinton&#45;&gt;child nsubj</title>
<path fill="none" stroke="#000000" d="M118.8132,-229.0307C120.5865,-237.9726 122.7685,-248.9753 124.7548,-258.9911"/>
<polygon fill="#000000" stroke="#000000" points="121.35,-259.8155 126.7285,-268.9436 128.2163,-258.4537 121.35,-259.8155"/>
<text text-anchor="middle" x="108.7611" y="-251.7207" font-family="Times,serif" font-size="14.00" fill="#000000">child</text>
</g>
<!-- is -->
<g id="node3" class="node">
<title>is</title>
<ellipse fill="none" stroke="#000000" cx="96.6139" cy="-72.1054" rx="27" ry="18"/>
<text text-anchor="middle" x="96.6139" y="-67.9054" font-family="Times,serif" font-size="14.00" fill="#000000">is</text>
</g>
<!-- head nominal subject&#45;&gt;is -->
<g id="edge3" class="edge">
<title>head nominal subject&#45;&gt;is</title>
<path fill="none" stroke="#000000" d="M99.0399,-117.7074C98.7563,-112.3757 98.4387,-106.4064 98.1292,-100.5883"/>
<polygon fill="#000000" stroke="#000000" points="101.6162,-100.2493 97.5898,-90.4494 94.6261,-100.6213 101.6162,-100.2493"/>
</g>
<!-- go -->
<g id="node7" class="node">
<title>go</title>
<ellipse fill="none" stroke="#000000" cx="27" cy="-91.0245" rx="27" ry="18"/>
<text text-anchor="middle" x="27" y="-86.8245" font-family="Times,serif" font-size="14.00" fill="#000000">go</text>
</g>
<!-- head nominal subject&#45;&gt;go -->
<g id="edge4" class="edge">
<title>head nominal subject&#45;&gt;go</title>
<path fill="none" stroke="#000000" d="M71.9861,-118.6075C66.6283,-115.3224 61.0123,-111.8789 55.6353,-108.5821"/>
<polygon fill="#000000" stroke="#000000" points="57.2544,-105.4693 46.8998,-103.2259 53.5954,-111.4369 57.2544,-105.4693"/>
</g>
<!-- be -->
<g id="node8" class="node">
<title>be</title>
<ellipse fill="none" stroke="#000000" cx="189.528" cy="-62.867" rx="27" ry="18"/>
<text text-anchor="middle" x="189.528" y="-58.667" font-family="Times,serif" font-size="14.00" fill="#000000">be</text>
</g>
<!-- head nominal subject&#45;&gt;be -->
<g id="edge5" class="edge">
<title>head nominal subject&#45;&gt;be</title>
<path fill="none" stroke="#000000" d="M121.6735,-118.1337C134.5299,-107.6623 150.8859,-94.3405 164.3182,-83.4001"/>
<polygon fill="#000000" stroke="#000000" points="166.7032,-85.9716 172.2465,-76.9426 162.2826,-80.5441 166.7032,-85.9716"/>
</g>
<!-- head ROOT -->
<g id="node6" class="node">
<title>head ROOT</title>
<ellipse fill="none" stroke="#000000" cx="74.3588" cy="-18" rx="53.1698" ry="18"/>
<text text-anchor="middle" x="74.3588" y="-13.8" font-family="Times,serif" font-size="14.00" fill="#000000">head ROOT</text>
</g>
<!-- is&#45;&gt;head ROOT -->
<g id="edge6" class="edge">
<title>is&#45;&gt;head ROOT</title>
<path fill="none" stroke="#000000" d="M89.4497,-54.6883C88.2299,-51.7226 86.9369,-48.5793 85.6412,-45.4291"/>
<polygon fill="#000000" stroke="#000000" points="88.8568,-44.0459 81.8158,-36.1292 82.3831,-46.7088 88.8568,-44.0459"/>
<text text-anchor="middle" x="72.5488" y="-48.5244" font-family="Times,serif" font-size="14.00" fill="#000000">head</text>
</g>
<!-- President -->
<g id="node5" class="node">
<title>President</title>
<ellipse fill="none" stroke="#000000" cx="78.6152" cy="-347.1232" rx="43.0387" ry="18"/>
<text text-anchor="middle" x="78.6152" y="-342.9232" font-family="Times,serif" font-size="14.00" fill="#000000">President</text>
</g>
<!-- child nsubj&#45;&gt;President -->
<g id="edge7" class="edge">
<title>child nsubj&#45;&gt;President</title>
<path fill="none" stroke="#000000" d="M115.3741,-304.4754C110.6159,-309.996 105.2549,-316.2158 100.1285,-322.1635"/>
<polygon fill="#000000" stroke="#000000" points="97.2396,-320.1542 93.3619,-330.014 102.5419,-324.7244 97.2396,-320.1542"/>
</g>
<!-- Mr. -->
<g id="node9" class="node">
<title>Mr.</title>
<ellipse fill="none" stroke="#000000" cx="200.6911" cy="-323.5316" rx="27" ry="18"/>
<text text-anchor="middle" x="200.6911" y="-319.3316" font-family="Times,serif" font-size="14.00" fill="#000000">Mr.</text>
</g>
<!-- child nsubj&#45;&gt;Mr. -->
<g id="edge8" class="edge">
<title>child nsubj&#45;&gt;Mr.</title>
<path fill="none" stroke="#000000" d="M158.9504,-301.93C162.6122,-303.8251 166.3724,-305.771 170.0645,-307.6818"/>
<polygon fill="#000000" stroke="#000000" points="168.5174,-310.822 179.0073,-312.3098 171.7348,-304.6052 168.5174,-310.822"/>
</g>
<!-- head ROOT&#45;&gt;is -->
<g id="edge9" class="edge">
<title>head ROOT&#45;&gt;is</title>
<path fill="none" stroke="#000000" d="M81.7694,-36.0163C83.0086,-39.0289 84.3172,-42.2104 85.6234,-45.3858"/>
<polygon fill="#000000" stroke="#000000" points="82.4212,-46.8018 89.4622,-54.7186 88.895,-44.1389 82.4212,-46.8018"/>
</g>
<!-- head ROOT&#45;&gt;go -->
<g id="edge10" class="edge">
<title>head ROOT&#45;&gt;go</title>
<path fill="none" stroke="#000000" d="M62.8946,-35.6772C57.1099,-44.5968 49.9859,-55.5815 43.6135,-65.4074"/>
<polygon fill="#000000" stroke="#000000" points="40.5373,-63.7184 38.0326,-74.0129 46.4104,-67.5273 40.5373,-63.7184"/>
</g>
<!-- head ROOT&#45;&gt;be -->
<g id="edge11" class="edge">
<title>head ROOT&#45;&gt;be</title>
<path fill="none" stroke="#000000" d="M109.2259,-31.5833C124.1801,-37.4091 141.5685,-44.1832 156.333,-49.9351"/>
<polygon fill="#000000" stroke="#000000" points="155.4848,-53.3608 166.0732,-53.7296 158.0258,-46.8383 155.4848,-53.3608"/>
</g>
<!-- go&#45;&gt;head ROOT -->
<g id="edge12" class="edge">
<title>go&#45;&gt;head ROOT</title>
<path fill="none" stroke="#000000" d="M37.7464,-74.4541C43.5299,-65.5363 50.7982,-54.329 57.3313,-44.2554"/>
<polygon fill="#000000" stroke="#000000" points="60.3227,-46.0751 62.8275,-35.7806 54.4497,-42.2662 60.3227,-46.0751"/>
<text text-anchor="middle" x="36.8921" y="-58.1964" font-family="Times,serif" font-size="14.00" fill="#000000">head</text>
</g>
<!-- be&#45;&gt;head ROOT -->
<g id="edge13" class="edge">
<title>be&#45;&gt;head ROOT</title>
<path fill="none" stroke="#000000" d="M165.9439,-53.6793C152.4283,-48.4139 135.0196,-41.6319 119.0155,-35.3972"/>
<polygon fill="#000000" stroke="#000000" points="119.8681,-31.9731 109.2797,-31.6043 117.327,-38.4956 119.8681,-31.9731"/>
<text text-anchor="middle" x="150.9294" y="-31.4822" font-family="Times,serif" font-size="14.00" fill="#000000">head</text>
</g>
</g>
</svg>
