<?xml version="1.0" encoding="UTF-8" standalone="no"?>
<!DOCTYPE svg PUBLIC "-//W3C//DTD SVG 1.1//EN"
 "http://www.w3.org/Graphics/SVG/1.1/DTD/svg11.dtd">
<!-- Generated by graphviz version 2.40.1 (20161225.0304)
 -->
<!-- Title: %3 Pages: 1 -->
<svg width="829pt" height="370pt"
 viewBox="0.00 0.00 829.13 369.64" xmlns="http://www.w3.org/2000/svg" xmlns:xlink="http://www.w3.org/1999/xlink">
<g id="graph0" class="graph" transform="scale(1 1) rotate(0) translate(4 365.637)">
<title>%3</title>
<polygon fill="#ffffff" stroke="transparent" points="-4,4 -4,-365.637 825.1291,-365.637 825.1291,4 -4,4"/>
<!-- Brunei -->
<g id="node1" class="node">
<title>Brunei</title>
<ellipse fill="none" stroke="#000000" cx="273.3961" cy="-313.3839" rx="34.3527" ry="18"/>
<text text-anchor="middle" x="273.3961" y="-309.1839" font-family="Times,serif" font-size="14.00" fill="#000000">Brunei</text>
</g>
<!-- head g1 head of prep phrase -->
<g id="node2" class="node">
<title>head g1 head of prep phrase</title>
<ellipse fill="none" stroke="#000000" cx="302.4799" cy="-57.1413" rx="109.6053" ry="18"/>
<text text-anchor="middle" x="302.4799" y="-52.9413" font-family="Times,serif" font-size="14.00" fill="#000000">head g1 head of prep phrase</text>
</g>
<!-- Brunei&#45;&gt;head g1 head of prep phrase -->
<g id="edge1" class="edge">
<title>Brunei&#45;&gt;head g1 head of prep phrase</title>
<path fill="none" stroke="#000000" d="M275.4412,-295.3654C280.437,-251.3495 293.2911,-138.0989 299.2978,-85.1765"/>
<polygon fill="#000000" stroke="#000000" points="302.7868,-85.4708 300.437,-75.1398 295.8315,-84.6813 302.7868,-85.4708"/>
<text text-anchor="middle" x="274.7457" y="-187.8718" font-family="Times,serif" font-size="14.00" fill="#000000">head</text>
</g>
<!-- head g1 direct object -->
<g id="node4" class="node">
<title>head g1 direct object</title>
<ellipse fill="none" stroke="#000000" cx="454.0405" cy="-303.9708" rx="84.0308" ry="18"/>
<text text-anchor="middle" x="454.0405" y="-299.7708" font-family="Times,serif" font-size="14.00" fill="#000000">head g1 direct object</text>
</g>
<!-- Brunei&#45;&gt;head g1 direct object -->
<g id="edge2" class="edge">
<title>Brunei&#45;&gt;head g1 direct object</title>
<path fill="none" stroke="#000000" d="M307.7991,-311.5912C323.403,-310.7781 342.6778,-309.7737 362.0548,-308.764"/>
<polygon fill="#000000" stroke="#000000" points="362.3738,-312.2523 372.1781,-308.2365 362.0094,-305.2617 362.3738,-312.2523"/>
<text text-anchor="middle" x="326.8328" y="-312.7109" font-family="Times,serif" font-size="14.00" fill="#000000">head</text>
</g>
<!-- child g1 determiner -->
<g id="node6" class="node">
<title>child g1 determiner</title>
<ellipse fill="none" stroke="#000000" cx="79.3562" cy="-179.5794" rx="79.2126" ry="18"/>
<text text-anchor="middle" x="79.3562" y="-175.3794" font-family="Times,serif" font-size="14.00" fill="#000000">child g1 determiner</text>
</g>
<!-- Brunei&#45;&gt;child g1 determiner -->
<g id="edge3" class="edge">
<title>Brunei&#45;&gt;child g1 determiner</title>
<path fill="none" stroke="#000000" d="M252.6304,-299.0645C219.1114,-275.9507 152.7883,-230.2162 112.623,-202.5193"/>
<polygon fill="#000000" stroke="#000000" points="114.4467,-199.5254 104.2273,-196.7299 110.4729,-205.2881 114.4467,-199.5254"/>
<text text-anchor="middle" x="164.4594" y="-250.7159" font-family="Times,serif" font-size="14.00" fill="#000000">child</text>
</g>
<!-- go -->
<g id="node3" class="node">
<title>go</title>
<ellipse fill="none" stroke="#000000" cx="67.4801" cy="-18" rx="27" ry="18"/>
<text text-anchor="middle" x="67.4801" y="-13.8" font-family="Times,serif" font-size="14.00" fill="#000000">go</text>
</g>
<!-- head g1 head of prep phrase&#45;&gt;go -->
<g id="edge4" class="edge">
<title>head g1 head of prep phrase&#45;&gt;go</title>
<path fill="none" stroke="#000000" d="M225.5322,-44.3249C184.5854,-37.5049 136.1498,-29.4375 103.7895,-24.0477"/>
<polygon fill="#000000" stroke="#000000" points="104.3169,-20.5873 93.8777,-22.3967 103.1668,-27.4922 104.3169,-20.5873"/>
</g>
<!-- visit -->
<g id="node5" class="node">
<title>visit</title>
<ellipse fill="none" stroke="#000000" cx="495.7678" cy="-53.8108" rx="27" ry="18"/>
<text text-anchor="middle" x="495.7678" y="-49.6108" font-family="Times,serif" font-size="14.00" fill="#000000">visit</text>
</g>
<!-- head g1 direct object&#45;&gt;visit -->
<g id="edge5" class="edge">
<title>head g1 direct object&#45;&gt;visit</title>
<path fill="none" stroke="#000000" d="M457.0414,-285.9799C464.2117,-242.9932 482.3851,-134.0414 491.0424,-82.1398"/>
<polygon fill="#000000" stroke="#000000" points="494.5449,-82.4144 492.738,-71.9748 487.6403,-81.2627 494.5449,-82.4144"/>
</g>
<!-- head g2 open clausal complement -->
<g id="node8" class="node">
<title>head g2 open clausal complement</title>
<ellipse fill="none" stroke="#000000" cx="691.1864" cy="-316.1458" rx="129.8854" ry="18"/>
<text text-anchor="middle" x="691.1864" y="-311.9458" font-family="Times,serif" font-size="14.00" fill="#000000">head g2 open clausal complement</text>
</g>
<!-- visit&#45;&gt;head g2 open clausal complement -->
<g id="edge6" class="edge">
<title>visit&#45;&gt;head g2 open clausal complement</title>
<path fill="none" stroke="#000000" d="M507.9921,-70.221C540.9079,-114.4081 631.6166,-236.1778 671.7034,-289.9913"/>
<polygon fill="#000000" stroke="#000000" points="668.9051,-292.0936 677.6859,-298.0223 674.5188,-287.9119 668.9051,-292.0936"/>
<text text-anchor="middle" x="579.5416" y="-186.8095" font-family="Times,serif" font-size="14.00" fill="#000000">head</text>
</g>
<!-- the -->
<g id="node7" class="node">
<title>the</title>
<ellipse fill="none" stroke="#000000" cx="54.3505" cy="-343.637" rx="27" ry="18"/>
<text text-anchor="middle" x="54.3505" y="-339.437" font-family="Times,serif" font-size="14.00" fill="#000000">the</text>
</g>
<!-- child g1 determiner&#45;&gt;the -->
<g id="edge7" class="edge">
<title>child g1 determiner&#45;&gt;the</title>
<path fill="none" stroke="#000000" d="M76.5846,-197.7633C72.2474,-226.2189 63.8214,-281.5 58.6793,-315.2366"/>
<polygon fill="#000000" stroke="#000000" points="55.1814,-314.9585 57.1345,-325.3717 62.1014,-316.0133 55.1814,-314.9585"/>
</g>
<!-- t*&#45;1 -->
<g id="node9" class="node">
<title>t*&#45;1</title>
<ellipse fill="none" stroke="#000000" cx="716.5365" cy="-65.3668" rx="27" ry="18"/>
<text text-anchor="middle" x="716.5365" y="-61.1668" font-family="Times,serif" font-size="14.00" fill="#000000">t*&#45;1</text>
</g>
<!-- head g2 open clausal complement&#45;&gt;t*&#45;1 -->
<g id="edge8" class="edge">
<title>head g2 open clausal complement&#45;&gt;t*&#45;1</title>
<path fill="none" stroke="#000000" d="M693.0096,-298.1104C697.3656,-255.0173 708.4063,-145.7959 713.6657,-93.7659"/>
<polygon fill="#000000" stroke="#000000" points="717.1723,-93.877 714.6958,-83.5757 710.2078,-93.173 717.1723,-93.877"/>
</g>
</g>
</svg>
