<?xml version="1.0" encoding="UTF-8" standalone="no"?>
<!DOCTYPE svg PUBLIC "-//W3C//DTD SVG 1.1//EN"
 "http://www.w3.org/Graphics/SVG/1.1/DTD/svg11.dtd">
<!-- Generated by graphviz version 2.40.1 (20161225.0304)
 -->
<!-- Title: %3 Pages: 1 -->
<svg width="485pt" height="317pt"
 viewBox="0.00 0.00 485.48 316.66" xmlns="http://www.w3.org/2000/svg" xmlns:xlink="http://www.w3.org/1999/xlink">
<g id="graph0" class="graph" transform="scale(1 1) rotate(0) translate(4 312.6575)">
<title>%3</title>
<polygon fill="#ffffff" stroke="transparent" points="-4,4 -4,-312.6575 481.4825,-312.6575 481.4825,4 -4,4"/>
<!-- Brunei -->
<g id="node1" class="node">
<title>Brunei</title>
<ellipse fill="none" stroke="#000000" cx="188.0455" cy="-134.279" rx="34.3527" ry="18"/>
<text text-anchor="middle" x="188.0455" y="-130.079" font-family="Times,serif" font-size="14.00" fill="#000000">Brunei</text>
</g>
<!-- head head of prep phrase -->
<g id="node2" class="node">
<title>head head of prep phrase</title>
<ellipse fill="none" stroke="#000000" cx="236.1701" cy="-40.7125" rx="98.4966" ry="18"/>
<text text-anchor="middle" x="236.1701" y="-36.5125" font-family="Times,serif" font-size="14.00" fill="#000000">head head of prep phrase</text>
</g>
<!-- Brunei&#45;&gt;head head of prep phrase -->
<g id="edge1" class="edge">
<title>Brunei&#45;&gt;head head of prep phrase</title>
<path fill="none" stroke="#000000" d="M197.0974,-116.6798C204.1323,-103.0021 214.0173,-83.7832 222.0844,-68.0988"/>
<polygon fill="#000000" stroke="#000000" points="225.3691,-69.3645 226.8306,-58.8709 219.1442,-66.1628 225.3691,-69.3645"/>
<text text-anchor="middle" x="198.863" y="-90.356" font-family="Times,serif" font-size="14.00" fill="#000000">head</text>
</g>
<!-- head direct object -->
<g id="node5" class="node">
<title>head direct object</title>
<ellipse fill="none" stroke="#000000" cx="86.6534" cy="-203.8262" rx="72.9222" ry="18"/>
<text text-anchor="middle" x="86.6534" y="-199.6262" font-family="Times,serif" font-size="14.00" fill="#000000">head direct object</text>
</g>
<!-- Brunei&#45;&gt;head direct object -->
<g id="edge2" class="edge">
<title>Brunei&#45;&gt;head direct object</title>
<path fill="none" stroke="#000000" d="M167.037,-148.6892C153.4313,-158.0217 135.4208,-170.3755 119.8971,-181.0236"/>
<polygon fill="#000000" stroke="#000000" points="117.8391,-178.1909 111.5724,-186.7337 121.7987,-183.9635 117.8391,-178.1909"/>
<text text-anchor="middle" x="125.9873" y="-170.5824" font-family="Times,serif" font-size="14.00" fill="#000000">head</text>
</g>
<!-- child determiner -->
<g id="node7" class="node">
<title>child determiner</title>
<ellipse fill="none" stroke="#000000" cx="68.3018" cy="-101.9235" rx="68.1042" ry="18"/>
<text text-anchor="middle" x="68.3018" y="-97.7235" font-family="Times,serif" font-size="14.00" fill="#000000">child determiner</text>
</g>
<!-- Brunei&#45;&gt;child determiner -->
<g id="edge3" class="edge">
<title>Brunei&#45;&gt;child determiner</title>
<path fill="none" stroke="#000000" d="M157.5193,-126.0306C147.864,-123.4217 136.856,-120.4472 125.9467,-117.4995"/>
<polygon fill="#000000" stroke="#000000" points="126.5641,-114.0408 115.9973,-114.8111 124.7381,-120.7985 126.5641,-114.0408"/>
<text text-anchor="middle" x="122.6696" y="-123.1959" font-family="Times,serif" font-size="14.00" fill="#000000">child</text>
</g>
<!-- go -->
<g id="node3" class="node">
<title>go</title>
<ellipse fill="none" stroke="#000000" cx="386.9277" cy="-37.7632" rx="27" ry="18"/>
<text text-anchor="middle" x="386.9277" y="-33.5632" font-family="Times,serif" font-size="14.00" fill="#000000">go</text>
</g>
<!-- head head of prep phrase&#45;&gt;go -->
<g id="edge4" class="edge">
<title>head head of prep phrase&#45;&gt;go</title>
<path fill="none" stroke="#000000" d="M334.2,-38.7947C339.5322,-38.6904 344.6977,-38.5894 349.5753,-38.4939"/>
<polygon fill="#000000" stroke="#000000" points="349.817,-41.99 359.7466,-38.295 349.68,-34.9913 349.817,-41.99"/>
</g>
<!-- head ROOT -->
<g id="node4" class="node">
<title>head ROOT</title>
<ellipse fill="none" stroke="#000000" cx="331.9529" cy="-173.4272" rx="53.1698" ry="18"/>
<text text-anchor="middle" x="331.9529" y="-169.2272" font-family="Times,serif" font-size="14.00" fill="#000000">head ROOT</text>
</g>
<!-- go&#45;&gt;head ROOT -->
<g id="edge5" class="edge">
<title>go&#45;&gt;head ROOT</title>
<path fill="none" stroke="#000000" d="M379.8532,-55.2212C370.5552,-78.1663 354.1182,-118.7288 343.1296,-145.8459"/>
<polygon fill="#000000" stroke="#000000" points="339.8629,-144.5881 339.351,-155.1706 346.3505,-147.2171 339.8629,-144.5881"/>
<text text-anchor="middle" x="346.2564" y="-108.3213" font-family="Times,serif" font-size="14.00" fill="#000000">head</text>
</g>
<!-- head ROOT&#45;&gt;go -->
<g id="edge6" class="edge">
<title>head ROOT&#45;&gt;go</title>
<path fill="none" stroke="#000000" d="M339.2531,-155.4121C348.6285,-132.276 364.9868,-91.9077 375.8874,-65.0079"/>
<polygon fill="#000000" stroke="#000000" points="379.2601,-66.0042 379.772,-55.4217 372.7725,-63.3752 379.2601,-66.0042"/>
</g>
<!-- t*&#45;1 -->
<g id="node10" class="node">
<title>t*&#45;1</title>
<ellipse fill="none" stroke="#000000" cx="410.6744" cy="-280.1833" rx="27" ry="18"/>
<text text-anchor="middle" x="410.6744" y="-275.9833" font-family="Times,serif" font-size="14.00" fill="#000000">t*&#45;1</text>
</g>
<!-- head ROOT&#45;&gt;t*&#45;1 -->
<g id="edge7" class="edge">
<title>head ROOT&#45;&gt;t*&#45;1</title>
<path fill="none" stroke="#000000" d="M344.9522,-191.0558C357.9621,-208.6989 378.0833,-235.9857 392.6354,-255.7203"/>
<polygon fill="#000000" stroke="#000000" points="389.937,-257.9582 398.6888,-263.9295 395.5709,-253.8038 389.937,-257.9582"/>
</g>
<!-- visit -->
<g id="node6" class="node">
<title>visit</title>
<ellipse fill="none" stroke="#000000" cx="90.0611" cy="-290.6575" rx="27" ry="18"/>
<text text-anchor="middle" x="90.0611" y="-286.4575" font-family="Times,serif" font-size="14.00" fill="#000000">visit</text>
</g>
<!-- head direct object&#45;&gt;visit -->
<g id="edge8" class="edge">
<title>head direct object&#45;&gt;visit</title>
<path fill="none" stroke="#000000" d="M87.3761,-222.2409C87.8355,-233.9467 88.4393,-249.3309 88.9579,-262.5458"/>
<polygon fill="#000000" stroke="#000000" points="85.4616,-262.7121 89.3512,-272.5671 92.4562,-262.4375 85.4616,-262.7121"/>
</g>
<!-- head open clausal complement -->
<g id="node9" class="node">
<title>head open clausal complement</title>
<ellipse fill="none" stroke="#000000" cx="250.7581" cy="-267.9657" rx="118.7768" ry="18"/>
<text text-anchor="middle" x="250.7581" y="-263.7657" font-family="Times,serif" font-size="14.00" fill="#000000">head open clausal complement</text>
</g>
<!-- visit&#45;&gt;head open clausal complement -->
<g id="edge9" class="edge">
<title>visit&#45;&gt;head open clausal complement</title>
<path fill="none" stroke="#000000" d="M116.597,-286.9104C127.2136,-285.4113 140.1501,-283.5845 153.7528,-281.6637"/>
<polygon fill="#000000" stroke="#000000" points="154.3394,-285.1157 163.7518,-280.2517 153.3606,-278.1844 154.3394,-285.1157"/>
<text text-anchor="middle" x="153.2422" y="-286.4017" font-family="Times,serif" font-size="14.00" fill="#000000">head</text>
</g>
<!-- the -->
<g id="node8" class="node">
<title>the</title>
<ellipse fill="none" stroke="#000000" cx="63.6398" cy="-18" rx="27" ry="18"/>
<text text-anchor="middle" x="63.6398" y="-13.8" font-family="Times,serif" font-size="14.00" fill="#000000">the</text>
</g>
<!-- child determiner&#45;&gt;the -->
<g id="edge10" class="edge">
<title>child determiner&#45;&gt;the</title>
<path fill="none" stroke="#000000" d="M67.2903,-83.7133C66.6854,-72.8258 65.9039,-58.7574 65.2193,-46.4327"/>
<polygon fill="#000000" stroke="#000000" points="68.6988,-45.965 64.6495,-36.1746 61.7096,-46.3534 68.6988,-45.965"/>
</g>
<!-- head open clausal complement&#45;&gt;t*&#45;1 -->
<g id="edge11" class="edge">
<title>head open clausal complement&#45;&gt;t*&#45;1</title>
<path fill="none" stroke="#000000" d="M356.9797,-276.081C362.7342,-276.5207 368.2845,-276.9447 373.4918,-277.3426"/>
<polygon fill="#000000" stroke="#000000" points="373.4166,-280.8469 383.6542,-278.119 373.9499,-273.8673 373.4166,-280.8469"/>
</g>
<!-- T*&#45;1 -->
<g id="node11" class="node">
<title>T*&#45;1</title>
<ellipse fill="none" stroke="#000000" cx="450.1853" cy="-142.1674" rx="27.0958" ry="18"/>
<text text-anchor="middle" x="450.1853" y="-137.9674" font-family="Times,serif" font-size="14.00" fill="#000000">T*&#45;1</text>
</g>
<!-- T*&#45;1&#45;&gt;head ROOT -->
<g id="edge12" class="edge">
<title>T*&#45;1&#45;&gt;head ROOT</title>
<path fill="none" stroke="#000000" d="M424.8215,-148.8734C412.8031,-152.051 397.9857,-155.9686 383.7443,-159.7339"/>
<polygon fill="#000000" stroke="#000000" points="382.7915,-156.3655 374.0183,-162.3054 384.5808,-163.133 382.7915,-156.3655"/>
<text text-anchor="middle" x="385.951" y="-144.4569" font-family="Times,serif" font-size="14.00" fill="#000000">head</text>
</g>
</g>
</svg>
