<?xml version="1.0" encoding="UTF-8" standalone="no"?>
<!DOCTYPE svg PUBLIC "-//W3C//DTD SVG 1.1//EN"
 "http://www.w3.org/Graphics/SVG/1.1/DTD/svg11.dtd">
<!-- Generated by graphviz version 2.40.1 (20161225.0304)
 -->
<!-- Title: %3 Pages: 1 -->
<svg width="199pt" height="304pt"
 viewBox="0.00 0.00 198.50 304.07" xmlns="http://www.w3.org/2000/svg" xmlns:xlink="http://www.w3.org/1999/xlink">
<g id="graph0" class="graph" transform="scale(1 1) rotate(0) translate(4 300.0744)">
<title>%3</title>
<polygon fill="#ffffff" stroke="transparent" points="-4,4 -4,-300.0744 194.5023,-300.0744 194.5023,4 -4,4"/>
<!-- U.S. -->
<g id="node1" class="node">
<title>U.S.</title>
<ellipse fill="none" stroke="#000000" cx="40.7024" cy="-18" rx="27" ry="18"/>
<text text-anchor="middle" x="40.7024" y="-13.8" font-family="Times,serif" font-size="14.00" fill="#000000">U.S.</text>
</g>
<!-- head g1 compound -->
<g id="node2" class="node">
<title>head g1 compound</title>
<ellipse fill="none" stroke="#000000" cx="77.4001" cy="-80.2576" rx="77.3003" ry="18"/>
<text text-anchor="middle" x="77.4001" y="-76.0576" font-family="Times,serif" font-size="14.00" fill="#000000">head g1 compound</text>
</g>
<!-- U.S.&#45;&gt;head g1 compound -->
<g id="edge1" class="edge">
<title>U.S.&#45;&gt;head g1 compound</title>
<path fill="none" stroke="#000000" d="M50.7302,-35.0122C54.0952,-40.7208 57.9338,-47.2331 61.63,-53.5037"/>
<polygon fill="#000000" stroke="#000000" points="58.7785,-55.5587 66.8717,-62.3962 64.8089,-52.0041 58.7785,-55.5587"/>
<text text-anchor="middle" x="45.4521" y="-51.2752" font-family="Times,serif" font-size="14.00" fill="#000000">head</text>
</g>
<!-- President -->
<g id="node3" class="node">
<title>President</title>
<ellipse fill="none" stroke="#000000" cx="96.4828" cy="-150.008" rx="43.0387" ry="18"/>
<text text-anchor="middle" x="96.4828" y="-145.808" font-family="Times,serif" font-size="14.00" fill="#000000">President</text>
</g>
<!-- head g1 compound&#45;&gt;President -->
<g id="edge2" class="edge">
<title>head g1 compound&#45;&gt;President</title>
<path fill="none" stroke="#000000" d="M82.4138,-98.5837C84.4015,-105.849 86.7305,-114.3618 88.9151,-122.3469"/>
<polygon fill="#000000" stroke="#000000" points="85.5536,-123.3236 91.5685,-132.0455 92.3055,-121.4764 85.5536,-123.3236"/>
</g>
<!-- head g2 attribute -->
<g id="node4" class="node">
<title>head g2 attribute</title>
<ellipse fill="none" stroke="#000000" cx="120.9698" cy="-217.9986" rx="69.565" ry="18"/>
<text text-anchor="middle" x="120.9698" y="-213.7986" font-family="Times,serif" font-size="14.00" fill="#000000">head g2 attribute</text>
</g>
<!-- President&#45;&gt;head g2 attribute -->
<g id="edge3" class="edge">
<title>President&#45;&gt;head g2 attribute</title>
<path fill="none" stroke="#000000" d="M102.9165,-167.8717C105.3994,-174.7657 108.2972,-182.8118 111.0352,-190.4141"/>
<polygon fill="#000000" stroke="#000000" points="107.8126,-191.7957 114.4941,-200.0181 114.3985,-189.4237 107.8126,-191.7957"/>
<text text-anchor="middle" x="95.486" y="-186.7298" font-family="Times,serif" font-size="14.00" fill="#000000">head</text>
</g>
<!-- be -->
<g id="node5" class="node">
<title>be</title>
<ellipse fill="none" stroke="#000000" cx="161.1816" cy="-278.0744" rx="27" ry="18"/>
<text text-anchor="middle" x="161.1816" y="-273.8744" font-family="Times,serif" font-size="14.00" fill="#000000">be</text>
</g>
<!-- head g2 attribute&#45;&gt;be -->
<g id="edge4" class="edge">
<title>head g2 attribute&#45;&gt;be</title>
<path fill="none" stroke="#000000" d="M133.0347,-236.0233C136.5569,-241.2854 140.4732,-247.1363 144.2378,-252.7606"/>
<polygon fill="#000000" stroke="#000000" points="141.4793,-254.9317 149.9503,-261.295 147.2964,-251.0379 141.4793,-254.9317"/>
</g>
</g>
</svg>
