<?xml version="1.0" encoding="UTF-8" standalone="no"?>
<!DOCTYPE svg PUBLIC "-//W3C//DTD SVG 1.1//EN"
 "http://www.w3.org/Graphics/SVG/1.1/DTD/svg11.dtd">
<!-- Generated by graphviz version 2.40.1 (20161225.0304)
 -->
<!-- Title: %3 Pages: 1 -->
<svg width="143pt" height="400pt"
 viewBox="0.00 0.00 142.62 399.55" xmlns="http://www.w3.org/2000/svg" xmlns:xlink="http://www.w3.org/1999/xlink">
<g id="graph0" class="graph" transform="scale(1 1) rotate(0) translate(4 395.5539)">
<title>%3</title>
<polygon fill="#ffffff" stroke="transparent" points="-4,4 -4,-395.5539 138.624,-395.5539 138.624,4 -4,4"/>
<!-- U.S. -->
<g id="node1" class="node">
<title>U.S.</title>
<ellipse fill="none" stroke="#000000" cx="47.1497" cy="-18" rx="27" ry="18"/>
<text text-anchor="middle" x="47.1497" y="-13.8" font-family="Times,serif" font-size="14.00" fill="#000000">U.S.</text>
</g>
<!-- head compound -->
<g id="node2" class="node">
<title>head compound</title>
<ellipse fill="none" stroke="#000000" cx="68.2783" cy="-87.1892" rx="66.1918" ry="18"/>
<text text-anchor="middle" x="68.2783" y="-82.9892" font-family="Times,serif" font-size="14.00" fill="#000000">head compound</text>
</g>
<!-- U.S.&#45;&gt;head compound -->
<g id="edge1" class="edge">
<title>U.S.&#45;&gt;head compound</title>
<path fill="none" stroke="#000000" d="M52.5908,-35.8179C54.7917,-43.0251 57.384,-51.514 59.8205,-59.4926"/>
<polygon fill="#000000" stroke="#000000" points="56.5141,-60.6494 62.7821,-69.1912 63.2089,-58.6049 56.5141,-60.6494"/>
<text text-anchor="middle" x="44.526" y="-55.4794" font-family="Times,serif" font-size="14.00" fill="#000000">head</text>
</g>
<!-- President -->
<g id="node3" class="node">
<title>President</title>
<ellipse fill="none" stroke="#000000" cx="74.2696" cy="-159.2228" rx="43.0387" ry="18"/>
<text text-anchor="middle" x="74.2696" y="-155.0228" font-family="Times,serif" font-size="14.00" fill="#000000">President</text>
</g>
<!-- head compound&#45;&gt;President -->
<g id="edge2" class="edge">
<title>head compound&#45;&gt;President</title>
<path fill="none" stroke="#000000" d="M69.7901,-105.3663C70.4358,-113.1296 71.2046,-122.3722 71.9214,-130.9904"/>
<polygon fill="#000000" stroke="#000000" points="68.4413,-131.3761 72.7582,-141.0515 75.4172,-130.7958 68.4413,-131.3761"/>
</g>
<!-- head attribute -->
<g id="node4" class="node">
<title>head attribute</title>
<ellipse fill="none" stroke="#000000" cx="74.4481" cy="-231.424" rx="58.4563" ry="18"/>
<text text-anchor="middle" x="74.4481" y="-227.224" font-family="Times,serif" font-size="14.00" fill="#000000">head attribute</text>
</g>
<!-- President&#45;&gt;head attribute -->
<g id="edge3" class="edge">
<title>President&#45;&gt;head attribute</title>
<path fill="none" stroke="#000000" d="M74.3146,-177.4423C74.3339,-185.2236 74.3568,-194.4877 74.3781,-203.1259"/>
<polygon fill="#000000" stroke="#000000" points="70.8782,-203.2192 74.403,-213.2104 77.8782,-203.2018 70.8782,-203.2192"/>
<text text-anchor="middle" x="61.1449" y="-198.1222" font-family="Times,serif" font-size="14.00" fill="#000000">head</text>
</g>
<!-- be -->
<g id="node5" class="node">
<title>be</title>
<ellipse fill="none" stroke="#000000" cx="71.6345" cy="-303.6324" rx="27" ry="18"/>
<text text-anchor="middle" x="71.6345" y="-299.4324" font-family="Times,serif" font-size="14.00" fill="#000000">be</text>
</g>
<!-- head attribute&#45;&gt;be -->
<g id="edge4" class="edge">
<title>head attribute&#45;&gt;be</title>
<path fill="none" stroke="#000000" d="M73.7381,-249.6452C73.4348,-257.4273 73.0738,-266.6924 72.7372,-275.3315"/>
<polygon fill="#000000" stroke="#000000" points="69.2363,-275.2883 72.3442,-285.417 76.231,-275.5609 69.2363,-275.2883"/>
</g>
<!-- head ROOT -->
<g id="node6" class="node">
<title>head ROOT</title>
<ellipse fill="none" stroke="#000000" cx="53.0849" cy="-373.5539" rx="53.1698" ry="18"/>
<text text-anchor="middle" x="53.0849" y="-369.3539" font-family="Times,serif" font-size="14.00" fill="#000000">head ROOT</text>
</g>
<!-- be&#45;&gt;head ROOT -->
<g id="edge5" class="edge">
<title>be&#45;&gt;head ROOT</title>
<path fill="none" stroke="#000000" d="M66.8575,-321.6389C64.9253,-328.9223 62.6494,-337.501 60.5103,-345.5642"/>
<polygon fill="#000000" stroke="#000000" points="57.0914,-344.8022 57.9101,-355.3653 63.8574,-346.5972 57.0914,-344.8022"/>
<text text-anchor="middle" x="49.1231" y="-341.4788" font-family="Times,serif" font-size="14.00" fill="#000000">head</text>
</g>
<!-- head ROOT&#45;&gt;be -->
<g id="edge6" class="edge">
<title>head ROOT&#45;&gt;be</title>
<path fill="none" stroke="#000000" d="M57.8618,-355.5473C59.7941,-348.2639 62.07,-339.6852 64.209,-331.6221"/>
<polygon fill="#000000" stroke="#000000" points="67.6279,-332.384 66.8092,-321.8209 60.8619,-330.589 67.6279,-332.384"/>
</g>
</g>
</svg>
