<?xml version="1.0" encoding="UTF-8" standalone="no"?>
<!DOCTYPE svg PUBLIC "-//W3C//DTD SVG 1.1//EN"
 "http://www.w3.org/Graphics/SVG/1.1/DTD/svg11.dtd">
<!-- Generated by graphviz version 2.40.1 (20161225.0304)
 -->
<!-- Title: %3 Pages: 1 -->
<svg width="172pt" height="169pt"
 viewBox="0.00 0.00 171.63 169.48" xmlns="http://www.w3.org/2000/svg" xmlns:xlink="http://www.w3.org/1999/xlink">
<g id="graph0" class="graph" transform="scale(1 1) rotate(0) translate(4 165.4775)">
<title>%3</title>
<polygon fill="#ffffff" stroke="transparent" points="-4,4 -4,-165.4775 167.635,-165.4775 167.635,4 -4,4"/>
<!-- 0 -->
<g id="node1" class="node">
<title>0</title>
<ellipse fill="none" stroke="#000000" cx="37.7969" cy="-143.4775" rx="27" ry="18"/>
<text text-anchor="middle" x="37.7969" y="-139.2775" font-family="Times,serif" font-size="14.00" fill="#000000">0</text>
</g>
<!-- head g1 punctuation -->
<g id="node2" class="node">
<title>head g1 punctuation</title>
<ellipse fill="none" stroke="#000000" cx="81.8175" cy="-86.1545" rx="81.6354" ry="18"/>
<text text-anchor="middle" x="81.8175" y="-81.9545" font-family="Times,serif" font-size="14.00" fill="#000000">head g1 punctuation</text>
</g>
<!-- 0&#45;&gt;head g1 punctuation -->
<g id="edge1" class="edge">
<title>0&#45;&gt;head g1 punctuation</title>
<path fill="none" stroke="#000000" d="M50.2937,-127.2044C53.811,-122.6242 57.7297,-117.5213 61.5759,-112.5129"/>
<polygon fill="#000000" stroke="#000000" points="64.5819,-114.345 67.8967,-104.282 59.03,-110.0815 64.5819,-114.345"/>
<text text-anchor="middle" x="72.2603" y="-118.6067" font-family="Times,serif" font-size="14.00" fill="#000000">head</text>
</g>
<!-- be -->
<g id="node3" class="node">
<title>be</title>
<ellipse fill="none" stroke="#000000" cx="105.922" cy="-18" rx="27" ry="18"/>
<text text-anchor="middle" x="105.922" y="-13.8" font-family="Times,serif" font-size="14.00" fill="#000000">be</text>
</g>
<!-- head g1 punctuation&#45;&gt;be -->
<g id="edge2" class="edge">
<title>head g1 punctuation&#45;&gt;be</title>
<path fill="none" stroke="#000000" d="M88.277,-67.8903C90.7205,-60.9815 93.5581,-52.9583 96.2339,-45.3927"/>
<polygon fill="#000000" stroke="#000000" points="99.5767,-46.4376 99.6114,-35.8428 92.9773,-44.1035 99.5767,-46.4376"/>
</g>
</g>
</svg>
