<?xml version="1.0" encoding="UTF-8" standalone="no"?>
<!DOCTYPE svg PUBLIC "-//W3C//DTD SVG 1.1//EN"
 "http://www.w3.org/Graphics/SVG/1.1/DTD/svg11.dtd">
<!-- Generated by graphviz version 2.40.1 (20161225.0304)
 -->
<!-- Title: %3 Pages: 1 -->
<svg width="150pt" height="258pt"
 viewBox="0.00 0.00 149.53 258.30" xmlns="http://www.w3.org/2000/svg" xmlns:xlink="http://www.w3.org/1999/xlink">
<g id="graph0" class="graph" transform="scale(1 1) rotate(0) translate(4 254.2975)">
<title>%3</title>
<polygon fill="#ffffff" stroke="transparent" points="-4,4 -4,-254.2975 145.5263,-254.2975 145.5263,4 -4,4"/>
<!-- 0 -->
<g id="node1" class="node">
<title>0</title>
<ellipse fill="none" stroke="#000000" cx="54.692" cy="-18" rx="27" ry="18"/>
<text text-anchor="middle" x="54.692" y="-13.8" font-family="Times,serif" font-size="14.00" fill="#000000">0</text>
</g>
<!-- head punctuation -->
<g id="node2" class="node">
<title>head punctuation</title>
<ellipse fill="none" stroke="#000000" cx="70.7632" cy="-88.469" rx="70.5271" ry="18"/>
<text text-anchor="middle" x="70.7632" y="-84.269" font-family="Times,serif" font-size="14.00" fill="#000000">head punctuation</text>
</g>
<!-- 0&#45;&gt;head punctuation -->
<g id="edge1" class="edge">
<title>0&#45;&gt;head punctuation</title>
<path fill="none" stroke="#000000" d="M58.8307,-36.1475C60.5048,-43.4879 62.4766,-52.1339 64.3298,-60.2601"/>
<polygon fill="#000000" stroke="#000000" points="60.9466,-61.1666 66.5826,-70.138 67.7714,-59.6101 60.9466,-61.1666"/>
<text text-anchor="middle" x="49.5334" y="-56.1209" font-family="Times,serif" font-size="14.00" fill="#000000">head</text>
</g>
<!-- be -->
<g id="node3" class="node">
<title>be</title>
<ellipse fill="none" stroke="#000000" cx="69.1594" cy="-160.6892" rx="27" ry="18"/>
<text text-anchor="middle" x="69.1594" y="-156.4892" font-family="Times,serif" font-size="14.00" fill="#000000">be</text>
</g>
<!-- head punctuation&#45;&gt;be -->
<g id="edge2" class="edge">
<title>head punctuation&#45;&gt;be</title>
<path fill="none" stroke="#000000" d="M70.3584,-106.6932C70.1856,-114.4766 69.9798,-123.7432 69.7879,-132.3836"/>
<polygon fill="#000000" stroke="#000000" points="66.2869,-132.3956 69.5639,-142.4708 73.2852,-132.551 66.2869,-132.3956"/>
</g>
<!-- head ROOT -->
<g id="node4" class="node">
<title>head ROOT</title>
<ellipse fill="none" stroke="#000000" cx="60.6575" cy="-232.2975" rx="53.1698" ry="18"/>
<text text-anchor="middle" x="60.6575" y="-228.0975" font-family="Times,serif" font-size="14.00" fill="#000000">head ROOT</text>
</g>
<!-- be&#45;&gt;head ROOT -->
<g id="edge3" class="edge">
<title>be&#45;&gt;head ROOT</title>
<path fill="none" stroke="#000000" d="M67.014,-178.759C66.1047,-186.4175 65.0235,-195.5243 64.013,-204.0354"/>
<polygon fill="#000000" stroke="#000000" points="60.5353,-203.6414 62.8318,-213.9844 67.4864,-204.4668 60.5353,-203.6414"/>
<text text-anchor="middle" x="51.7115" y="-199.1512" font-family="Times,serif" font-size="14.00" fill="#000000">head</text>
</g>
<!-- head ROOT&#45;&gt;be -->
<g id="edge4" class="edge">
<title>head ROOT&#45;&gt;be</title>
<path fill="none" stroke="#000000" d="M62.8029,-214.2277C63.7122,-206.5692 64.7934,-197.4624 65.8039,-188.9512"/>
<polygon fill="#000000" stroke="#000000" points="69.2816,-189.3452 66.9851,-179.0023 62.3304,-188.5199 69.2816,-189.3452"/>
</g>
</g>
</svg>
