<?xml version="1.0" encoding="UTF-8" standalone="no"?>
<!DOCTYPE svg PUBLIC "-//W3C//DTD SVG 1.1//EN"
 "http://www.w3.org/Graphics/SVG/1.1/DTD/svg11.dtd">
<!-- Generated by graphviz version 2.40.1 (20161225.0304)
 -->
<!-- Title: %3 Pages: 1 -->
<svg width="565pt" height="560pt"
 viewBox="0.00 0.00 564.82 560.07" xmlns="http://www.w3.org/2000/svg" xmlns:xlink="http://www.w3.org/1999/xlink">
<g id="graph0" class="graph" transform="scale(1 1) rotate(0) translate(4 556.0653)">
<title>%3</title>
<polygon fill="#ffffff" stroke="transparent" points="-4,4 -4,-556.0653 560.824,-556.0653 560.824,4 -4,4"/>
<!-- the Vietnam War -->
<g id="node1" class="node">
<title>the Vietnam War</title>
<ellipse fill="none" stroke="#000000" cx="216.9815" cy="-384.3235" rx="69.4182" ry="18"/>
<text text-anchor="middle" x="216.9815" y="-380.1235" font-family="Times,serif" font-size="14.00" fill="#000000">the Vietnam War</text>
</g>
<!-- head nominal subject -->
<g id="node2" class="node">
<title>head nominal subject</title>
<ellipse fill="none" stroke="#000000" cx="264.5977" cy="-322.754" rx="85.0101" ry="18"/>
<text text-anchor="middle" x="264.5977" y="-318.554" font-family="Times,serif" font-size="14.00" fill="#000000">head nominal subject</text>
</g>
<!-- the Vietnam War&#45;&gt;head nominal subject -->
<g id="edge1" class="edge">
<title>the Vietnam War&#45;&gt;head nominal subject</title>
<path fill="none" stroke="#000000" d="M230.7541,-366.5151C235.0595,-360.948 239.9008,-354.688 244.5463,-348.6812"/>
<polygon fill="#000000" stroke="#000000" points="247.3421,-350.7873 250.6911,-340.7357 241.8048,-346.5049 247.3421,-350.7873"/>
<text text-anchor="middle" x="227.3826" y="-356.5885" font-family="Times,serif" font-size="14.00" fill="#000000">head</text>
</g>
<!-- child determiner -->
<g id="node4" class="node">
<title>child determiner</title>
<ellipse fill="none" stroke="#000000" cx="243.6109" cy="-461.3539" rx="68.1042" ry="18"/>
<text text-anchor="middle" x="243.6109" y="-457.1539" font-family="Times,serif" font-size="14.00" fill="#000000">child determiner</text>
</g>
<!-- the Vietnam War&#45;&gt;child determiner -->
<g id="edge2" class="edge">
<title>the Vietnam War&#45;&gt;child determiner</title>
<path fill="none" stroke="#000000" d="M223.2923,-402.5786C226.5092,-411.884 230.4886,-423.3951 234.0707,-433.7569"/>
<polygon fill="#000000" stroke="#000000" points="230.7702,-434.9222 237.3454,-443.2298 237.386,-432.635 230.7702,-434.9222"/>
<text text-anchor="middle" x="216.2863" y="-425.6002" font-family="Times,serif" font-size="14.00" fill="#000000">child</text>
</g>
<!-- child nsubj -->
<g id="node6" class="node">
<title>child nsubj</title>
<ellipse fill="none" stroke="#000000" cx="131.1328" cy="-344.5568" rx="49.3286" ry="18"/>
<text text-anchor="middle" x="131.1328" y="-340.3568" font-family="Times,serif" font-size="14.00" fill="#000000">child nsubj</text>
</g>
<!-- the Vietnam War&#45;&gt;child nsubj -->
<g id="edge3" class="edge">
<title>the Vietnam War&#45;&gt;child nsubj</title>
<path fill="none" stroke="#000000" d="M183.0518,-368.6066C179.0974,-366.7749 175.0363,-364.8937 171.0111,-363.0292"/>
<polygon fill="#000000" stroke="#000000" points="172.2961,-359.7672 161.7512,-358.7398 169.3539,-366.1188 172.2961,-359.7672"/>
<text text-anchor="middle" x="186.5185" y="-352.529" font-family="Times,serif" font-size="14.00" fill="#000000">child</text>
</g>
<!-- ended -->
<g id="node3" class="node">
<title>ended</title>
<ellipse fill="none" stroke="#000000" cx="310.36" cy="-263.6161" rx="31.4462" ry="18"/>
<text text-anchor="middle" x="310.36" y="-259.4161" font-family="Times,serif" font-size="14.00" fill="#000000">ended</text>
</g>
<!-- head nominal subject&#45;&gt;ended -->
<g id="edge4" class="edge">
<title>head nominal subject&#45;&gt;ended</title>
<path fill="none" stroke="#000000" d="M278.5766,-304.6894C282.5094,-299.607 286.858,-293.9874 291.0435,-288.5786"/>
<polygon fill="#000000" stroke="#000000" points="294.0513,-290.4107 297.4032,-280.3601 288.5152,-286.1268 294.0513,-290.4107"/>
</g>
<!-- head adverbial clause modifier -->
<g id="node8" class="node">
<title>head adverbial clause modifier</title>
<ellipse fill="none" stroke="#000000" cx="357.5997" cy="-207.3567" rx="118.2923" ry="18"/>
<text text-anchor="middle" x="357.5997" y="-203.1567" font-family="Times,serif" font-size="14.00" fill="#000000">head adverbial clause modifier</text>
</g>
<!-- ended&#45;&gt;head adverbial clause modifier -->
<g id="edge5" class="edge">
<title>ended&#45;&gt;head adverbial clause modifier</title>
<path fill="none" stroke="#000000" d="M324.0237,-247.3436C327.7245,-242.9362 331.8244,-238.0534 335.8514,-233.2576"/>
<polygon fill="#000000" stroke="#000000" points="338.726,-235.2769 342.4761,-225.3679 333.3652,-230.7755 338.726,-235.2769"/>
<text text-anchor="middle" x="346.417" y="-239.2114" font-family="Times,serif" font-size="14.00" fill="#000000">head</text>
</g>
<!-- the -->
<g id="node5" class="node">
<title>the</title>
<ellipse fill="none" stroke="#000000" cx="263.1938" cy="-534.0653" rx="27" ry="18"/>
<text text-anchor="middle" x="263.1938" y="-529.8653" font-family="Times,serif" font-size="14.00" fill="#000000">the</text>
</g>
<!-- child determiner&#45;&gt;the -->
<g id="edge6" class="edge">
<title>child determiner&#45;&gt;the</title>
<path fill="none" stroke="#000000" d="M248.4516,-479.3275C250.6571,-487.5163 253.3172,-497.3936 255.7673,-506.4906"/>
<polygon fill="#000000" stroke="#000000" points="252.4285,-507.5527 258.4088,-516.2984 259.1877,-505.7323 252.4285,-507.5527"/>
</g>
<!-- Vietnam -->
<g id="node7" class="node">
<title>Vietnam</title>
<ellipse fill="none" stroke="#000000" cx="40.0312" cy="-297.6333" rx="40.0625" ry="18"/>
<text text-anchor="middle" x="40.0312" y="-293.4333" font-family="Times,serif" font-size="14.00" fill="#000000">Vietnam</text>
</g>
<!-- child nsubj&#45;&gt;Vietnam -->
<g id="edge7" class="edge">
<title>child nsubj&#45;&gt;Vietnam</title>
<path fill="none" stroke="#000000" d="M102.3077,-329.7099C93.796,-325.3258 84.3796,-320.4757 75.5011,-315.9027"/>
<polygon fill="#000000" stroke="#000000" points="76.9967,-312.7361 66.504,-311.2685 73.7914,-318.9591 76.9967,-312.7361"/>
</g>
<!-- visit -->
<g id="node9" class="node">
<title>visit</title>
<ellipse fill="none" stroke="#000000" cx="398.444" cy="-147.0358" rx="27" ry="18"/>
<text text-anchor="middle" x="398.444" y="-142.8358" font-family="Times,serif" font-size="14.00" fill="#000000">visit</text>
</g>
<!-- head adverbial clause modifier&#45;&gt;visit -->
<g id="edge8" class="edge">
<title>head adverbial clause modifier&#45;&gt;visit</title>
<path fill="none" stroke="#000000" d="M369.8543,-189.2585C373.4936,-183.8838 377.5471,-177.8974 381.4313,-172.161"/>
<polygon fill="#000000" stroke="#000000" points="384.6031,-173.7191 387.3118,-163.4764 378.8069,-169.7944 384.6031,-173.7191"/>
</g>
<!-- head open clausal complement -->
<g id="node10" class="node">
<title>head open clausal complement</title>
<ellipse fill="none" stroke="#000000" cx="437.9356" cy="-86.0294" rx="118.7768" ry="18"/>
<text text-anchor="middle" x="437.9356" y="-81.8294" font-family="Times,serif" font-size="14.00" fill="#000000">head open clausal complement</text>
</g>
<!-- visit&#45;&gt;head open clausal complement -->
<g id="edge9" class="edge">
<title>visit&#45;&gt;head open clausal complement</title>
<path fill="none" stroke="#000000" d="M409.2353,-130.3655C412.7951,-124.8664 416.8475,-118.6063 420.7626,-112.5582"/>
<polygon fill="#000000" stroke="#000000" points="423.831,-114.2588 426.3271,-103.9622 417.9548,-110.4549 423.831,-114.2588"/>
<text text-anchor="middle" x="430.8393" y="-120.2044" font-family="Times,serif" font-size="14.00" fill="#000000">head</text>
</g>
<!-- t*&#45;1 -->
<g id="node11" class="node">
<title>t*&#45;1</title>
<ellipse fill="none" stroke="#000000" cx="463.3602" cy="-18" rx="27" ry="18"/>
<text text-anchor="middle" x="463.3602" y="-13.8" font-family="Times,serif" font-size="14.00" fill="#000000">t*&#45;1</text>
</g>
<!-- head open clausal complement&#45;&gt;t*&#45;1 -->
<g id="edge10" class="edge">
<title>head open clausal complement&#45;&gt;t*&#45;1</title>
<path fill="none" stroke="#000000" d="M444.749,-67.7987C447.3263,-60.9025 450.3193,-52.8941 453.1416,-45.3424"/>
<polygon fill="#000000" stroke="#000000" points="456.4818,-46.4025 456.7041,-35.81 449.9247,-43.9519 456.4818,-46.4025"/>
</g>
</g>
</svg>
