<?xml version="1.0" encoding="UTF-8" standalone="no"?>
<!DOCTYPE svg PUBLIC "-//W3C//DTD SVG 1.1//EN"
 "http://www.w3.org/Graphics/SVG/1.1/DTD/svg11.dtd">
<!-- Generated by graphviz version 2.40.1 (20161225.0304)
 -->
<!-- Title: %3 Pages: 1 -->
<svg width="582pt" height="411pt"
 viewBox="0.00 0.00 581.80 411.37" xmlns="http://www.w3.org/2000/svg" xmlns:xlink="http://www.w3.org/1999/xlink">
<g id="graph0" class="graph" transform="scale(1 1) rotate(0) translate(4 407.3698)">
<title>%3</title>
<polygon fill="#ffffff" stroke="transparent" points="-4,4 -4,-407.3698 577.7963,-407.3698 577.7963,4 -4,4"/>
<!-- the Vietnam War -->
<g id="node1" class="node">
<title>the Vietnam War</title>
<ellipse fill="none" stroke="#000000" cx="195.314" cy="-258.0386" rx="69.4182" ry="18"/>
<text text-anchor="middle" x="195.314" y="-253.8386" font-family="Times,serif" font-size="14.00" fill="#000000">the Vietnam War</text>
</g>
<!-- head g1 nominal subject -->
<g id="node2" class="node">
<title>head g1 nominal subject</title>
<ellipse fill="none" stroke="#000000" cx="276.5995" cy="-207.1438" rx="96.1184" ry="18"/>
<text text-anchor="middle" x="276.5995" y="-202.9438" font-family="Times,serif" font-size="14.00" fill="#000000">head g1 nominal subject</text>
</g>
<!-- the Vietnam War&#45;&gt;head g1 nominal subject -->
<g id="edge1" class="edge">
<title>the Vietnam War&#45;&gt;head g1 nominal subject</title>
<path fill="none" stroke="#000000" d="M221.9299,-241.3737C227.7161,-237.7508 233.9347,-233.8572 240.0298,-230.0409"/>
<polygon fill="#000000" stroke="#000000" points="242.1885,-232.8188 248.8068,-224.5454 238.4737,-226.8858 242.1885,-232.8188"/>
<text text-anchor="middle" x="248.3709" y="-221.8919" font-family="Times,serif" font-size="14.00" fill="#000000">head</text>
</g>
<!-- child g1 determiner -->
<g id="node4" class="node">
<title>child g1 determiner</title>
<ellipse fill="none" stroke="#000000" cx="187.8877" cy="-385.3698" rx="79.2126" ry="18"/>
<text text-anchor="middle" x="187.8877" y="-381.1698" font-family="Times,serif" font-size="14.00" fill="#000000">child g1 determiner</text>
</g>
<!-- the Vietnam War&#45;&gt;child g1 determiner -->
<g id="edge2" class="edge">
<title>the Vietnam War&#45;&gt;child g1 determiner</title>
<path fill="none" stroke="#000000" d="M194.25,-276.2821C193.0202,-297.3675 190.9815,-332.3224 189.5439,-356.9723"/>
<polygon fill="#000000" stroke="#000000" points="186.038,-356.9733 188.9497,-367.1602 193.0261,-357.381 186.038,-356.9733"/>
<text text-anchor="middle" x="177.6216" y="-324.207" font-family="Times,serif" font-size="14.00" fill="#000000">child</text>
</g>
<!-- child g1 nsubj -->
<g id="node6" class="node">
<title>child g1 nsubj</title>
<ellipse fill="none" stroke="#000000" cx="60.2184" cy="-309.6124" rx="60.4375" ry="18"/>
<text text-anchor="middle" x="60.2184" y="-305.4124" font-family="Times,serif" font-size="14.00" fill="#000000">child g1 nsubj</text>
</g>
<!-- the Vietnam War&#45;&gt;child g1 nsubj -->
<g id="edge3" class="edge">
<title>the Vietnam War&#45;&gt;child g1 nsubj</title>
<path fill="none" stroke="#000000" d="M156.2388,-272.9559C140.8797,-278.8193 123.1167,-285.6005 107.0766,-291.7239"/>
<polygon fill="#000000" stroke="#000000" points="105.4429,-288.6011 97.3489,-295.4375 107.9395,-295.1408 105.4429,-288.6011"/>
<text text-anchor="middle" x="140.8057" y="-286.9909" font-family="Times,serif" font-size="14.00" fill="#000000">child</text>
</g>
<!-- ended -->
<g id="node3" class="node">
<title>ended</title>
<ellipse fill="none" stroke="#000000" cx="267.0356" cy="-82.8027" rx="31.4462" ry="18"/>
<text text-anchor="middle" x="267.0356" y="-78.6027" font-family="Times,serif" font-size="14.00" fill="#000000">ended</text>
</g>
<!-- head g1 nominal subject&#45;&gt;ended -->
<g id="edge4" class="edge">
<title>head g1 nominal subject&#45;&gt;ended</title>
<path fill="none" stroke="#000000" d="M275.2088,-189.0635C273.6364,-168.6202 271.056,-135.0729 269.2154,-111.1418"/>
<polygon fill="#000000" stroke="#000000" points="272.6846,-110.6069 268.428,-100.9048 265.7053,-111.1438 272.6846,-110.6069"/>
</g>
<!-- head g2 adverbial clause modifier -->
<g id="node8" class="node">
<title>head g2 adverbial clause modifier</title>
<ellipse fill="none" stroke="#000000" cx="444.3458" cy="-167.6184" rx="129.4009" ry="18"/>
<text text-anchor="middle" x="444.3458" y="-163.4184" font-family="Times,serif" font-size="14.00" fill="#000000">head g2 adverbial clause modifier</text>
</g>
<!-- ended&#45;&gt;head g2 adverbial clause modifier -->
<g id="edge5" class="edge">
<title>ended&#45;&gt;head g2 adverbial clause modifier</title>
<path fill="none" stroke="#000000" d="M291.3181,-94.4181C318.8869,-107.6056 364.4746,-129.4122 398.7363,-145.8012"/>
<polygon fill="#000000" stroke="#000000" points="397.5437,-149.1105 408.0751,-150.2684 400.5644,-142.7958 397.5437,-149.1105"/>
<text text-anchor="middle" x="336.056" y="-124.9391" font-family="Times,serif" font-size="14.00" fill="#000000">head</text>
</g>
<!-- the -->
<g id="node5" class="node">
<title>the</title>
<ellipse fill="none" stroke="#000000" cx="411.0743" cy="-379.4202" rx="27" ry="18"/>
<text text-anchor="middle" x="411.0743" y="-375.2202" font-family="Times,serif" font-size="14.00" fill="#000000">the</text>
</g>
<!-- child g1 determiner&#45;&gt;the -->
<g id="edge6" class="edge">
<title>child g1 determiner&#45;&gt;the</title>
<path fill="none" stroke="#000000" d="M266.889,-383.2638C303.2976,-382.2933 344.7798,-381.1875 373.8733,-380.4119"/>
<polygon fill="#000000" stroke="#000000" points="374.0959,-383.9073 383.999,-380.142 373.9093,-376.9098 374.0959,-383.9073"/>
</g>
<!-- Vietnam -->
<g id="node7" class="node">
<title>Vietnam</title>
<ellipse fill="none" stroke="#000000" cx="49.6528" cy="-88.0277" rx="40.0625" ry="18"/>
<text text-anchor="middle" x="49.6528" y="-83.8277" font-family="Times,serif" font-size="14.00" fill="#000000">Vietnam</text>
</g>
<!-- child g1 nsubj&#45;&gt;Vietnam -->
<g id="edge7" class="edge">
<title>child g1 nsubj&#45;&gt;Vietnam</title>
<path fill="none" stroke="#000000" d="M59.3537,-291.4792C57.515,-252.9162 53.2049,-162.5234 51.0015,-116.3132"/>
<polygon fill="#000000" stroke="#000000" points="54.487,-115.9226 50.5146,-106.1007 47.4949,-116.2561 54.487,-115.9226"/>
</g>
<!-- visit -->
<g id="node9" class="node">
<title>visit</title>
<ellipse fill="none" stroke="#000000" cx="429.1683" cy="-18" rx="27" ry="18"/>
<text text-anchor="middle" x="429.1683" y="-13.8" font-family="Times,serif" font-size="14.00" fill="#000000">visit</text>
</g>
<!-- head g2 adverbial clause modifier&#45;&gt;visit -->
<g id="edge8" class="edge">
<title>head g2 adverbial clause modifier&#45;&gt;visit</title>
<path fill="none" stroke="#000000" d="M442.5151,-149.5709C439.9056,-123.8466 435.0924,-76.3994 432.0152,-46.0641"/>
<polygon fill="#000000" stroke="#000000" points="435.497,-45.7072 431.0056,-36.1115 428.5328,-46.4137 435.497,-45.7072"/>
</g>
</g>
</svg>
