<?xml version="1.0" encoding="UTF-8" standalone="no"?>
<!DOCTYPE svg PUBLIC "-//W3C//DTD SVG 1.1//EN"
 "http://www.w3.org/Graphics/SVG/1.1/DTD/svg11.dtd">
<!-- Generated by graphviz version 2.40.1 (20161225.0304)
 -->
<!-- Title: %3 Pages: 1 -->
<svg width="291pt" height="304pt"
 viewBox="0.00 0.00 290.57 304.07" xmlns="http://www.w3.org/2000/svg" xmlns:xlink="http://www.w3.org/1999/xlink">
<g id="graph0" class="graph" transform="scale(1 1) rotate(0) translate(4 300.0744)">
<title>%3</title>
<polygon fill="#ffffff" stroke="transparent" points="-4,4 -4,-300.0744 286.5728,-300.0744 286.5728,4 -4,4"/>
<!-- 1975 -->
<g id="node1" class="node">
<title>1975</title>
<ellipse fill="none" stroke="#000000" cx="72.855" cy="-18" rx="27.589" ry="18"/>
<text text-anchor="middle" x="72.855" y="-13.8" font-family="Times,serif" font-size="14.00" fill="#000000">1975</text>
</g>
<!-- head g1 head of prep phrase -->
<g id="node2" class="node">
<title>head g1 head of prep phrase</title>
<ellipse fill="none" stroke="#000000" cx="109.5526" cy="-80.2576" rx="109.6053" ry="18"/>
<text text-anchor="middle" x="109.5526" y="-76.0576" font-family="Times,serif" font-size="14.00" fill="#000000">head g1 head of prep phrase</text>
</g>
<!-- 1975&#45;&gt;head g1 head of prep phrase -->
<g id="edge1" class="edge">
<title>1975&#45;&gt;head g1 head of prep phrase</title>
<path fill="none" stroke="#000000" d="M82.8828,-35.0122C86.1907,-40.6241 89.9564,-47.0126 93.5945,-53.1846"/>
<polygon fill="#000000" stroke="#000000" points="90.6722,-55.1195 98.7654,-61.957 96.7025,-51.5649 90.6722,-55.1195"/>
<text text-anchor="middle" x="77.4655" y="-51.0391" font-family="Times,serif" font-size="14.00" fill="#000000">head</text>
</g>
<!-- ended -->
<g id="node3" class="node">
<title>ended</title>
<ellipse fill="none" stroke="#000000" cx="128.6354" cy="-150.008" rx="31.4462" ry="18"/>
<text text-anchor="middle" x="128.6354" y="-145.808" font-family="Times,serif" font-size="14.00" fill="#000000">ended</text>
</g>
<!-- head g1 head of prep phrase&#45;&gt;ended -->
<g id="edge2" class="edge">
<title>head g1 head of prep phrase&#45;&gt;ended</title>
<path fill="none" stroke="#000000" d="M114.5664,-98.5837C116.5541,-105.849 118.8831,-114.3618 121.0677,-122.3469"/>
<polygon fill="#000000" stroke="#000000" points="117.7062,-123.3236 123.7211,-132.0455 124.4581,-121.4764 117.7062,-123.3236"/>
</g>
<!-- head g2 adverbial clause modifier -->
<g id="node4" class="node">
<title>head g2 adverbial clause modifier</title>
<ellipse fill="none" stroke="#000000" cx="153.1224" cy="-217.9986" rx="129.4009" ry="18"/>
<text text-anchor="middle" x="153.1224" y="-213.7986" font-family="Times,serif" font-size="14.00" fill="#000000">head g2 adverbial clause modifier</text>
</g>
<!-- ended&#45;&gt;head g2 adverbial clause modifier -->
<g id="edge3" class="edge">
<title>ended&#45;&gt;head g2 adverbial clause modifier</title>
<path fill="none" stroke="#000000" d="M135.0691,-167.8717C137.5519,-174.7657 140.4498,-182.8118 143.1877,-190.4141"/>
<polygon fill="#000000" stroke="#000000" points="139.9652,-191.7957 146.6467,-200.0181 146.5511,-189.4237 139.9652,-191.7957"/>
<text text-anchor="middle" x="127.6386" y="-186.7298" font-family="Times,serif" font-size="14.00" fill="#000000">head</text>
</g>
<!-- visit -->
<g id="node5" class="node">
<title>visit</title>
<ellipse fill="none" stroke="#000000" cx="193.3342" cy="-278.0744" rx="27" ry="18"/>
<text text-anchor="middle" x="193.3342" y="-273.8744" font-family="Times,serif" font-size="14.00" fill="#000000">visit</text>
</g>
<!-- head g2 adverbial clause modifier&#45;&gt;visit -->
<g id="edge4" class="edge">
<title>head g2 adverbial clause modifier&#45;&gt;visit</title>
<path fill="none" stroke="#000000" d="M165.1873,-236.0233C168.7094,-241.2854 172.6257,-247.1363 176.3904,-252.7606"/>
<polygon fill="#000000" stroke="#000000" points="173.6318,-254.9317 182.1029,-261.295 179.449,-251.0379 173.6318,-254.9317"/>
</g>
</g>
</svg>
