<?xml version="1.0" encoding="UTF-8" standalone="no"?>
<!DOCTYPE svg PUBLIC "-//W3C//DTD SVG 1.1//EN"
 "http://www.w3.org/Graphics/SVG/1.1/DTD/svg11.dtd">
<!-- Generated by graphviz version 2.40.1 (20161225.0304)
 -->
<!-- Title: %3 Pages: 1 -->
<svg width="639pt" height="215pt"
 viewBox="0.00 0.00 639.36 214.90" xmlns="http://www.w3.org/2000/svg" xmlns:xlink="http://www.w3.org/1999/xlink">
<g id="graph0" class="graph" transform="scale(1 1) rotate(0) translate(4 210.9036)">
<title>%3</title>
<polygon fill="#ffffff" stroke="transparent" points="-4,4 -4,-210.9036 635.3636,-210.9036 635.3636,4 -4,4"/>
<!-- 1975 -->
<g id="node1" class="node">
<title>1975</title>
<ellipse fill="none" stroke="#000000" cx="542.1786" cy="-18" rx="27.589" ry="18"/>
<text text-anchor="middle" x="542.1786" y="-13.8" font-family="Times,serif" font-size="14.00" fill="#000000">1975</text>
</g>
<!-- head head of prep phrase -->
<g id="node2" class="node">
<title>head head of prep phrase</title>
<ellipse fill="none" stroke="#000000" cx="532.8653" cy="-152.5941" rx="98.4966" ry="18"/>
<text text-anchor="middle" x="532.8653" y="-148.3941" font-family="Times,serif" font-size="14.00" fill="#000000">head head of prep phrase</text>
</g>
<!-- 1975&#45;&gt;head head of prep phrase -->
<g id="edge1" class="edge">
<title>1975&#45;&gt;head head of prep phrase</title>
<path fill="none" stroke="#000000" d="M540.9226,-36.152C539.3603,-58.7295 536.6753,-97.5337 534.8374,-124.0936"/>
<polygon fill="#000000" stroke="#000000" points="531.33,-124.0821 534.1312,-134.2999 538.3133,-124.5654 531.33,-124.0821"/>
<text text-anchor="middle" x="524.3056" y="-88.1329" font-family="Times,serif" font-size="14.00" fill="#000000">head</text>
</g>
<!-- ended -->
<g id="node3" class="node">
<title>ended</title>
<ellipse fill="none" stroke="#000000" cx="379.4753" cy="-188.9036" rx="31.4462" ry="18"/>
<text text-anchor="middle" x="379.4753" y="-184.7036" font-family="Times,serif" font-size="14.00" fill="#000000">ended</text>
</g>
<!-- head head of prep phrase&#45;&gt;ended -->
<g id="edge2" class="edge">
<title>head head of prep phrase&#45;&gt;ended</title>
<path fill="none" stroke="#000000" d="M472.2415,-166.9446C454.0725,-171.2455 434.6435,-175.8446 418.2852,-179.7168"/>
<polygon fill="#000000" stroke="#000000" points="417.4602,-176.3153 408.5354,-182.0247 419.0727,-183.1271 417.4602,-176.3153"/>
</g>
<!-- head adverbial clause modifier -->
<g id="node4" class="node">
<title>head adverbial clause modifier</title>
<ellipse fill="none" stroke="#000000" cx="352.6041" cy="-34.0554" rx="118.2923" ry="18"/>
<text text-anchor="middle" x="352.6041" y="-29.8554" font-family="Times,serif" font-size="14.00" fill="#000000">head adverbial clause modifier</text>
</g>
<!-- ended&#45;&gt;head adverbial clause modifier -->
<g id="edge3" class="edge">
<title>ended&#45;&gt;head adverbial clause modifier</title>
<path fill="none" stroke="#000000" d="M376.3403,-170.8375C371.7132,-144.1736 363.0127,-94.0363 357.5285,-62.4329"/>
<polygon fill="#000000" stroke="#000000" points="360.9608,-61.7407 355.8025,-52.4864 354.0639,-62.9376 360.9608,-61.7407"/>
<text text-anchor="middle" x="352.83" y="-114.3034" font-family="Times,serif" font-size="14.00" fill="#000000">head</text>
</g>
<!-- visit -->
<g id="node5" class="node">
<title>visit</title>
<ellipse fill="none" stroke="#000000" cx="224.0606" cy="-64.9185" rx="27" ry="18"/>
<text text-anchor="middle" x="224.0606" y="-60.7185" font-family="Times,serif" font-size="14.00" fill="#000000">visit</text>
</g>
<!-- head adverbial clause modifier&#45;&gt;visit -->
<g id="edge4" class="edge">
<title>head adverbial clause modifier&#45;&gt;visit</title>
<path fill="none" stroke="#000000" d="M289.0855,-49.3061C278.8832,-51.7557 268.6555,-54.2113 259.4311,-56.4261"/>
<polygon fill="#000000" stroke="#000000" points="258.404,-53.0732 249.4975,-58.8111 260.0383,-59.8797 258.404,-53.0732"/>
</g>
<!-- head open clausal complement -->
<g id="node6" class="node">
<title>head open clausal complement</title>
<ellipse fill="none" stroke="#000000" cx="142.7212" cy="-151.7955" rx="118.7768" ry="18"/>
<text text-anchor="middle" x="142.7212" y="-147.5955" font-family="Times,serif" font-size="14.00" fill="#000000">head open clausal complement</text>
</g>
<!-- visit&#45;&gt;head open clausal complement -->
<g id="edge5" class="edge">
<title>visit&#45;&gt;head open clausal complement</title>
<path fill="none" stroke="#000000" d="M209.5187,-80.4504C197.6115,-93.1683 180.5224,-111.4208 166.6102,-126.2801"/>
<polygon fill="#000000" stroke="#000000" points="163.9486,-124.0019 159.6689,-133.694 169.0585,-128.7862 163.9486,-124.0019"/>
<text text-anchor="middle" x="171.3643" y="-109.8888" font-family="Times,serif" font-size="14.00" fill="#000000">head</text>
</g>
<!-- t*&#45;1 -->
<g id="node7" class="node">
<title>t*&#45;1</title>
<ellipse fill="none" stroke="#000000" cx="27" cy="-82.6448" rx="27" ry="18"/>
<text text-anchor="middle" x="27" y="-78.4448" font-family="Times,serif" font-size="14.00" fill="#000000">t*&#45;1</text>
</g>
<!-- head open clausal complement&#45;&gt;t*&#45;1 -->
<g id="edge6" class="edge">
<title>head open clausal complement&#45;&gt;t*&#45;1</title>
<path fill="none" stroke="#000000" d="M113.5198,-134.3459C95.9585,-123.8519 73.685,-110.5421 56.1355,-100.0551"/>
<polygon fill="#000000" stroke="#000000" points="57.8184,-96.9835 47.4389,-94.8583 54.2276,-102.9924 57.8184,-96.9835"/>
</g>
</g>
</svg>
