<?xml version="1.0" encoding="UTF-8" standalone="no"?>
<!DOCTYPE svg PUBLIC "-//W3C//DTD SVG 1.1//EN"
 "http://www.w3.org/Graphics/SVG/1.1/DTD/svg11.dtd">
<!-- Generated by graphviz version 2.40.1 (20161225.0304)
 -->
<!-- Title: %3 Pages: 1 -->
<svg width="240pt" height="375pt"
 viewBox="0.00 0.00 240.48 374.99" xmlns="http://www.w3.org/2000/svg" xmlns:xlink="http://www.w3.org/1999/xlink">
<g id="graph0" class="graph" transform="scale(1 1) rotate(0) translate(4 370.9921)">
<title>%3</title>
<polygon fill="#ffffff" stroke="transparent" points="-4,4 -4,-370.9921 236.477,-370.9921 236.477,4 -4,4"/>
<!-- Clinton -->
<g id="node1" class="node">
<title>Clinton</title>
<ellipse fill="none" stroke="#000000" cx="132.3484" cy="-217.0948" rx="36.7836" ry="18"/>
<text text-anchor="middle" x="132.3484" y="-212.8948" font-family="Times,serif" font-size="14.00" fill="#000000">Clinton</text>
</g>
<!-- head nominal subject -->
<g id="node2" class="node">
<title>head nominal subject</title>
<ellipse fill="none" stroke="#000000" cx="119.0127" cy="-145.9713" rx="85.0101" ry="18"/>
<text text-anchor="middle" x="119.0127" y="-141.7713" font-family="Times,serif" font-size="14.00" fill="#000000">head nominal subject</text>
</g>
<!-- Clinton&#45;&gt;head nominal subject -->
<g id="edge1" class="edge">
<title>Clinton&#45;&gt;head nominal subject</title>
<path fill="none" stroke="#000000" d="M128.9833,-199.1474C127.557,-191.5407 125.861,-182.4956 124.276,-174.042"/>
<polygon fill="#000000" stroke="#000000" points="127.7062,-173.3441 122.4232,-164.1604 120.8261,-174.6342 127.7062,-173.3441"/>
<text text-anchor="middle" x="112.4932" y="-184.4743" font-family="Times,serif" font-size="14.00" fill="#000000">head</text>
</g>
<!-- child nsubj -->
<g id="node4" class="node">
<title>child nsubj</title>
<ellipse fill="none" stroke="#000000" cx="153.8247" cy="-286.0897" rx="49.3286" ry="18"/>
<text text-anchor="middle" x="153.8247" y="-281.8897" font-family="Times,serif" font-size="14.00" fill="#000000">child nsubj</text>
</g>
<!-- Clinton&#45;&gt;child nsubj -->
<g id="edge2" class="edge">
<title>Clinton&#45;&gt;child nsubj</title>
<path fill="none" stroke="#000000" d="M137.991,-235.2224C140.1686,-242.2181 142.7102,-250.3831 145.1115,-258.0977"/>
<polygon fill="#000000" stroke="#000000" points="141.8312,-259.3357 148.1451,-267.8436 148.5149,-257.2552 141.8312,-259.3357"/>
<text text-anchor="middle" x="129.0667" y="-254.3177" font-family="Times,serif" font-size="14.00" fill="#000000">child</text>
</g>
<!-- is -->
<g id="node3" class="node">
<title>is</title>
<ellipse fill="none" stroke="#000000" cx="92.5133" cy="-78.6552" rx="27" ry="18"/>
<text text-anchor="middle" x="92.5133" y="-74.4552" font-family="Times,serif" font-size="14.00" fill="#000000">is</text>
</g>
<!-- head nominal subject&#45;&gt;is -->
<g id="edge3" class="edge">
<title>head nominal subject&#45;&gt;is</title>
<path fill="none" stroke="#000000" d="M111.9114,-127.9319C109.2251,-121.108 106.1056,-113.1835 103.164,-105.711"/>
<polygon fill="#000000" stroke="#000000" points="106.3706,-104.3015 99.4508,-96.2785 99.8571,-106.8656 106.3706,-104.3015"/>
</g>
<!-- head ROOT -->
<g id="node6" class="node">
<title>head ROOT</title>
<ellipse fill="none" stroke="#000000" cx="53.0849" cy="-18" rx="53.1698" ry="18"/>
<text text-anchor="middle" x="53.0849" y="-13.8" font-family="Times,serif" font-size="14.00" fill="#000000">head ROOT</text>
</g>
<!-- is&#45;&gt;head ROOT -->
<g id="edge4" class="edge">
<title>is&#45;&gt;head ROOT</title>
<path fill="none" stroke="#000000" d="M81.7393,-62.0809C78.1852,-56.6135 74.1393,-50.3894 70.2305,-44.3762"/>
<polygon fill="#000000" stroke="#000000" points="73.0595,-42.3063 64.6748,-35.8296 67.1905,-46.1215 73.0595,-42.3063"/>
<text text-anchor="middle" x="60.1487" y="-51.9944" font-family="Times,serif" font-size="14.00" fill="#000000">head</text>
</g>
<!-- President -->
<g id="node5" class="node">
<title>President</title>
<ellipse fill="none" stroke="#000000" cx="189.4576" cy="-348.9921" rx="43.0387" ry="18"/>
<text text-anchor="middle" x="189.4576" y="-344.7921" font-family="Times,serif" font-size="14.00" fill="#000000">President</text>
</g>
<!-- child nsubj&#45;&gt;President -->
<g id="edge5" class="edge">
<title>child nsubj&#45;&gt;President</title>
<path fill="none" stroke="#000000" d="M163.9403,-303.9468C167.2028,-309.706 170.8919,-316.2184 174.4305,-322.465"/>
<polygon fill="#000000" stroke="#000000" points="171.4657,-324.3323 179.44,-331.3081 177.5564,-320.8821 171.4657,-324.3323"/>
</g>
<!-- head ROOT&#45;&gt;is -->
<g id="edge6" class="edge">
<title>head ROOT&#45;&gt;is</title>
<path fill="none" stroke="#000000" d="M64.7014,-35.8705C68.3033,-41.4115 72.3416,-47.6239 76.2006,-53.5605"/>
<polygon fill="#000000" stroke="#000000" points="73.2698,-55.4738 81.6545,-61.9505 79.1388,-51.6587 73.2698,-55.4738"/>
</g>
</g>
</svg>
