<?xml version="1.0" encoding="UTF-8" standalone="no"?>
<!DOCTYPE svg PUBLIC "-//W3C//DTD SVG 1.1//EN"
 "http://www.w3.org/Graphics/SVG/1.1/DTD/svg11.dtd">
<!-- Generated by graphviz version 2.40.1 (20161225.0304)
 -->
<!-- Title: %3 Pages: 1 -->
<svg width="280pt" height="304pt"
 viewBox="0.00 0.00 279.54 304.07" xmlns="http://www.w3.org/2000/svg" xmlns:xlink="http://www.w3.org/1999/xlink">
<g id="graph0" class="graph" transform="scale(1 1) rotate(0) translate(4 300.0744)">
<title>%3</title>
<polygon fill="#ffffff" stroke="transparent" points="-4,4 -4,-300.0744 275.5401,-300.0744 275.5401,4 -4,4"/>
<!-- Asia -->
<g id="node1" class="node">
<title>Asia</title>
<ellipse fill="none" stroke="#000000" cx="72.855" cy="-18" rx="27" ry="18"/>
<text text-anchor="middle" x="72.855" y="-13.8" font-family="Times,serif" font-size="14.00" fill="#000000">Asia</text>
</g>
<!-- head g1 head of prep phrase -->
<g id="node2" class="node">
<title>head g1 head of prep phrase</title>
<ellipse fill="none" stroke="#000000" cx="109.5526" cy="-80.2576" rx="109.6053" ry="18"/>
<text text-anchor="middle" x="109.5526" y="-76.0576" font-family="Times,serif" font-size="14.00" fill="#000000">head g1 head of prep phrase</text>
</g>
<!-- Asia&#45;&gt;head g1 head of prep phrase -->
<g id="edge1" class="edge">
<title>Asia&#45;&gt;head g1 head of prep phrase</title>
<path fill="none" stroke="#000000" d="M82.8828,-35.0122C86.1907,-40.6241 89.9564,-47.0126 93.5945,-53.1846"/>
<polygon fill="#000000" stroke="#000000" points="90.6722,-55.1195 98.7654,-61.957 96.7025,-51.5649 90.6722,-55.1195"/>
<text text-anchor="middle" x="77.4655" y="-51.0391" font-family="Times,serif" font-size="14.00" fill="#000000">head</text>
</g>
<!-- off -->
<g id="node3" class="node">
<title>off</title>
<ellipse fill="none" stroke="#000000" cx="128.6354" cy="-150.008" rx="27" ry="18"/>
<text text-anchor="middle" x="128.6354" y="-145.808" font-family="Times,serif" font-size="14.00" fill="#000000">off</text>
</g>
<!-- head g1 head of prep phrase&#45;&gt;off -->
<g id="edge2" class="edge">
<title>head g1 head of prep phrase&#45;&gt;off</title>
<path fill="none" stroke="#000000" d="M114.5664,-98.5837C116.5541,-105.849 118.8831,-114.3618 121.0677,-122.3469"/>
<polygon fill="#000000" stroke="#000000" points="117.7062,-123.3236 123.7211,-132.0455 124.4581,-121.4764 117.7062,-123.3236"/>
</g>
<!-- head g2 prepositional modifier -->
<g id="node4" class="node">
<title>head g2 prepositional modifier</title>
<ellipse fill="none" stroke="#000000" cx="153.1224" cy="-217.9986" rx="118.3354" ry="18"/>
<text text-anchor="middle" x="153.1224" y="-213.7986" font-family="Times,serif" font-size="14.00" fill="#000000">head g2 prepositional modifier</text>
</g>
<!-- off&#45;&gt;head g2 prepositional modifier -->
<g id="edge3" class="edge">
<title>off&#45;&gt;head g2 prepositional modifier</title>
<path fill="none" stroke="#000000" d="M134.9414,-167.5173C137.4522,-174.4889 140.4027,-182.681 143.1877,-190.414"/>
<polygon fill="#000000" stroke="#000000" points="139.9,-191.6146 146.5814,-199.837 146.4859,-189.2426 139.9,-191.6146"/>
<text text-anchor="middle" x="127.5982" y="-186.6177" font-family="Times,serif" font-size="14.00" fill="#000000">head</text>
</g>
<!-- is -->
<g id="node5" class="node">
<title>is</title>
<ellipse fill="none" stroke="#000000" cx="193.3342" cy="-278.0744" rx="27" ry="18"/>
<text text-anchor="middle" x="193.3342" y="-273.8744" font-family="Times,serif" font-size="14.00" fill="#000000">is</text>
</g>
<!-- head g2 prepositional modifier&#45;&gt;is -->
<g id="edge4" class="edge">
<title>head g2 prepositional modifier&#45;&gt;is</title>
<path fill="none" stroke="#000000" d="M165.1873,-236.0233C168.7094,-241.2854 172.6257,-247.1363 176.3904,-252.7606"/>
<polygon fill="#000000" stroke="#000000" points="173.6318,-254.9317 182.1029,-261.295 179.449,-251.0379 173.6318,-254.9317"/>
</g>
</g>
</svg>
