<?xml version="1.0" encoding="UTF-8" standalone="no"?>
<!DOCTYPE svg PUBLIC "-//W3C//DTD SVG 1.1//EN"
 "http://www.w3.org/Graphics/SVG/1.1/DTD/svg11.dtd">
<!-- Generated by graphviz version 2.40.1 (20161225.0304)
 -->
<!-- Title: %3 Pages: 1 -->
<svg width="223pt" height="400pt"
 viewBox="0.00 0.00 222.73 399.55" xmlns="http://www.w3.org/2000/svg" xmlns:xlink="http://www.w3.org/1999/xlink">
<g id="graph0" class="graph" transform="scale(1 1) rotate(0) translate(4 395.5539)">
<title>%3</title>
<polygon fill="#ffffff" stroke="transparent" points="-4,4 -4,-395.5539 218.7267,-395.5539 218.7267,4 -4,4"/>
<!-- Asia -->
<g id="node1" class="node">
<title>Asia</title>
<ellipse fill="none" stroke="#000000" cx="80.065" cy="-18" rx="27" ry="18"/>
<text text-anchor="middle" x="80.065" y="-13.8" font-family="Times,serif" font-size="14.00" fill="#000000">Asia</text>
</g>
<!-- head head of prep phrase -->
<g id="node2" class="node">
<title>head head of prep phrase</title>
<ellipse fill="none" stroke="#000000" cx="101.1936" cy="-87.1892" rx="98.4966" ry="18"/>
<text text-anchor="middle" x="101.1936" y="-82.9892" font-family="Times,serif" font-size="14.00" fill="#000000">head head of prep phrase</text>
</g>
<!-- Asia&#45;&gt;head head of prep phrase -->
<g id="edge1" class="edge">
<title>Asia&#45;&gt;head head of prep phrase</title>
<path fill="none" stroke="#000000" d="M85.5061,-35.8179C87.707,-43.0251 90.2993,-51.514 92.7358,-59.4926"/>
<polygon fill="#000000" stroke="#000000" points="89.4294,-60.6494 95.6974,-69.1912 96.1242,-58.6049 89.4294,-60.6494"/>
<text text-anchor="middle" x="77.4413" y="-55.4794" font-family="Times,serif" font-size="14.00" fill="#000000">head</text>
</g>
<!-- off -->
<g id="node3" class="node">
<title>off</title>
<ellipse fill="none" stroke="#000000" cx="107.1849" cy="-159.2228" rx="27" ry="18"/>
<text text-anchor="middle" x="107.1849" y="-155.0228" font-family="Times,serif" font-size="14.00" fill="#000000">off</text>
</g>
<!-- head head of prep phrase&#45;&gt;off -->
<g id="edge2" class="edge">
<title>head head of prep phrase&#45;&gt;off</title>
<path fill="none" stroke="#000000" d="M102.7054,-105.3663C103.3511,-113.1296 104.1199,-122.3722 104.8367,-130.9904"/>
<polygon fill="#000000" stroke="#000000" points="101.3566,-131.3761 105.6735,-141.0515 108.3325,-130.7958 101.3566,-131.3761"/>
</g>
<!-- head prepositional modifier -->
<g id="node4" class="node">
<title>head prepositional modifier</title>
<ellipse fill="none" stroke="#000000" cx="107.3634" cy="-231.424" rx="107.2269" ry="18"/>
<text text-anchor="middle" x="107.3634" y="-227.224" font-family="Times,serif" font-size="14.00" fill="#000000">head prepositional modifier</text>
</g>
<!-- off&#45;&gt;head prepositional modifier -->
<g id="edge3" class="edge">
<title>off&#45;&gt;head prepositional modifier</title>
<path fill="none" stroke="#000000" d="M107.2299,-177.4423C107.2492,-185.2236 107.2721,-194.4877 107.2934,-203.1259"/>
<polygon fill="#000000" stroke="#000000" points="103.7935,-203.2192 107.3183,-213.2104 110.7935,-203.2018 103.7935,-203.2192"/>
<text text-anchor="middle" x="94.0602" y="-198.1222" font-family="Times,serif" font-size="14.00" fill="#000000">head</text>
</g>
<!-- is -->
<g id="node5" class="node">
<title>is</title>
<ellipse fill="none" stroke="#000000" cx="104.5498" cy="-303.6324" rx="27" ry="18"/>
<text text-anchor="middle" x="104.5498" y="-299.4324" font-family="Times,serif" font-size="14.00" fill="#000000">is</text>
</g>
<!-- head prepositional modifier&#45;&gt;is -->
<g id="edge4" class="edge">
<title>head prepositional modifier&#45;&gt;is</title>
<path fill="none" stroke="#000000" d="M106.6534,-249.6452C106.3502,-257.4273 105.9891,-266.6924 105.6525,-275.3315"/>
<polygon fill="#000000" stroke="#000000" points="102.1516,-275.2883 105.2595,-285.417 109.1463,-275.5609 102.1516,-275.2883"/>
</g>
<!-- head ROOT -->
<g id="node6" class="node">
<title>head ROOT</title>
<ellipse fill="none" stroke="#000000" cx="86.0002" cy="-373.5539" rx="53.1698" ry="18"/>
<text text-anchor="middle" x="86.0002" y="-369.3539" font-family="Times,serif" font-size="14.00" fill="#000000">head ROOT</text>
</g>
<!-- is&#45;&gt;head ROOT -->
<g id="edge5" class="edge">
<title>is&#45;&gt;head ROOT</title>
<path fill="none" stroke="#000000" d="M99.7728,-321.6389C97.8406,-328.9223 95.5647,-337.501 93.4256,-345.5642"/>
<polygon fill="#000000" stroke="#000000" points="90.0068,-344.8022 90.8254,-355.3653 96.7727,-346.5972 90.0068,-344.8022"/>
<text text-anchor="middle" x="82.0384" y="-341.4788" font-family="Times,serif" font-size="14.00" fill="#000000">head</text>
</g>
<!-- head ROOT&#45;&gt;is -->
<g id="edge6" class="edge">
<title>head ROOT&#45;&gt;is</title>
<path fill="none" stroke="#000000" d="M90.7771,-355.5473C92.7094,-348.2639 94.9853,-339.6852 97.1243,-331.6221"/>
<polygon fill="#000000" stroke="#000000" points="100.5432,-332.384 99.7245,-321.8209 93.7772,-330.589 100.5432,-332.384"/>
</g>
</g>
</svg>
