<?xml version="1.0" encoding="UTF-8" standalone="no"?>
<!DOCTYPE svg PUBLIC "-//W3C//DTD SVG 1.1//EN"
 "http://www.w3.org/Graphics/SVG/1.1/DTD/svg11.dtd">
<!-- Generated by graphviz version 2.40.1 (20161225.0304)
 -->
<!-- Title: %3 Pages: 1 -->
<svg width="218pt" height="169pt"
 viewBox="0.00 0.00 218.29 169.48" xmlns="http://www.w3.org/2000/svg" xmlns:xlink="http://www.w3.org/1999/xlink">
<g id="graph0" class="graph" transform="scale(1 1) rotate(0) translate(4 165.4775)">
<title>%3</title>
<polygon fill="#ffffff" stroke="transparent" points="-4,4 -4,-165.4775 214.2877,-165.4775 214.2877,4 -4,4"/>
<!-- first -->
<g id="node1" class="node">
<title>first</title>
<ellipse fill="none" stroke="#000000" cx="61.1233" cy="-143.4775" rx="27" ry="18"/>
<text text-anchor="middle" x="61.1233" y="-139.2775" font-family="Times,serif" font-size="14.00" fill="#000000">first</text>
</g>
<!-- head g1 adverbial modifier -->
<g id="node2" class="node">
<title>head g1 adverbial modifier</title>
<ellipse fill="none" stroke="#000000" cx="105.1439" cy="-86.1545" rx="105.2879" ry="18"/>
<text text-anchor="middle" x="105.1439" y="-81.9545" font-family="Times,serif" font-size="14.00" fill="#000000">head g1 adverbial modifier</text>
</g>
<!-- first&#45;&gt;head g1 adverbial modifier -->
<g id="edge1" class="edge">
<title>first&#45;&gt;head g1 adverbial modifier</title>
<path fill="none" stroke="#000000" d="M73.6201,-127.2044C77.1374,-122.6242 81.0561,-117.5213 84.9023,-112.5129"/>
<polygon fill="#000000" stroke="#000000" points="87.9083,-114.345 91.223,-104.282 82.3564,-110.0815 87.9083,-114.345"/>
<text text-anchor="middle" x="95.5866" y="-118.6067" font-family="Times,serif" font-size="14.00" fill="#000000">head</text>
</g>
<!-- go -->
<g id="node3" class="node">
<title>go</title>
<ellipse fill="none" stroke="#000000" cx="129.2484" cy="-18" rx="27" ry="18"/>
<text text-anchor="middle" x="129.2484" y="-13.8" font-family="Times,serif" font-size="14.00" fill="#000000">go</text>
</g>
<!-- head g1 adverbial modifier&#45;&gt;go -->
<g id="edge2" class="edge">
<title>head g1 adverbial modifier&#45;&gt;go</title>
<path fill="none" stroke="#000000" d="M111.6034,-67.8903C114.0469,-60.9815 116.8845,-52.9583 119.5602,-45.3927"/>
<polygon fill="#000000" stroke="#000000" points="122.9031,-46.4376 122.9378,-35.8428 116.3037,-44.1035 122.9031,-46.4376"/>
</g>
</g>
</svg>
