<?xml version="1.0" encoding="UTF-8" standalone="no"?>
<!DOCTYPE svg PUBLIC "-//W3C//DTD SVG 1.1//EN"
 "http://www.w3.org/Graphics/SVG/1.1/DTD/svg11.dtd">
<!-- Generated by graphviz version 2.40.1 (20161225.0304)
 -->
<!-- Title: %3 Pages: 1 -->
<svg width="196pt" height="258pt"
 viewBox="0.00 0.00 196.18 258.30" xmlns="http://www.w3.org/2000/svg" xmlns:xlink="http://www.w3.org/1999/xlink">
<g id="graph0" class="graph" transform="scale(1 1) rotate(0) translate(4 254.2975)">
<title>%3</title>
<polygon fill="#ffffff" stroke="transparent" points="-4,4 -4,-254.2975 192.179,-254.2975 192.179,4 -4,4"/>
<!-- first -->
<g id="node1" class="node">
<title>first</title>
<ellipse fill="none" stroke="#000000" cx="78.0184" cy="-18" rx="27" ry="18"/>
<text text-anchor="middle" x="78.0184" y="-13.8" font-family="Times,serif" font-size="14.00" fill="#000000">first</text>
</g>
<!-- head adverbial modifier -->
<g id="node2" class="node">
<title>head adverbial modifier</title>
<ellipse fill="none" stroke="#000000" cx="94.0895" cy="-88.469" rx="94.1791" ry="18"/>
<text text-anchor="middle" x="94.0895" y="-84.269" font-family="Times,serif" font-size="14.00" fill="#000000">head adverbial modifier</text>
</g>
<!-- first&#45;&gt;head adverbial modifier -->
<g id="edge1" class="edge">
<title>first&#45;&gt;head adverbial modifier</title>
<path fill="none" stroke="#000000" d="M82.1571,-36.1475C83.8312,-43.4879 85.8029,-52.1339 87.6562,-60.2601"/>
<polygon fill="#000000" stroke="#000000" points="84.273,-61.1666 89.909,-70.138 91.0978,-59.6101 84.273,-61.1666"/>
<text text-anchor="middle" x="72.8598" y="-56.1209" font-family="Times,serif" font-size="14.00" fill="#000000">head</text>
</g>
<!-- go -->
<g id="node3" class="node">
<title>go</title>
<ellipse fill="none" stroke="#000000" cx="92.4857" cy="-160.6892" rx="27" ry="18"/>
<text text-anchor="middle" x="92.4857" y="-156.4892" font-family="Times,serif" font-size="14.00" fill="#000000">go</text>
</g>
<!-- head adverbial modifier&#45;&gt;go -->
<g id="edge2" class="edge">
<title>head adverbial modifier&#45;&gt;go</title>
<path fill="none" stroke="#000000" d="M93.6848,-106.6932C93.512,-114.4766 93.3062,-123.7432 93.1143,-132.3836"/>
<polygon fill="#000000" stroke="#000000" points="89.6133,-132.3956 92.8903,-142.4708 96.6116,-132.551 89.6133,-132.3956"/>
</g>
<!-- head ROOT -->
<g id="node4" class="node">
<title>head ROOT</title>
<ellipse fill="none" stroke="#000000" cx="83.9839" cy="-232.2975" rx="53.1698" ry="18"/>
<text text-anchor="middle" x="83.9839" y="-228.0975" font-family="Times,serif" font-size="14.00" fill="#000000">head ROOT</text>
</g>
<!-- go&#45;&gt;head ROOT -->
<g id="edge3" class="edge">
<title>go&#45;&gt;head ROOT</title>
<path fill="none" stroke="#000000" d="M90.3404,-178.759C89.4311,-186.4175 88.3499,-195.5243 87.3394,-204.0354"/>
<polygon fill="#000000" stroke="#000000" points="83.8616,-203.6414 86.1582,-213.9844 90.8128,-204.4668 83.8616,-203.6414"/>
<text text-anchor="middle" x="75.0378" y="-199.1512" font-family="Times,serif" font-size="14.00" fill="#000000">head</text>
</g>
<!-- head ROOT&#45;&gt;go -->
<g id="edge4" class="edge">
<title>head ROOT&#45;&gt;go</title>
<path fill="none" stroke="#000000" d="M86.1293,-214.2277C87.0385,-206.5692 88.1198,-197.4624 89.1303,-188.9512"/>
<polygon fill="#000000" stroke="#000000" points="92.608,-189.3452 90.3115,-179.0023 85.6568,-188.5199 92.608,-189.3452"/>
</g>
</g>
</svg>
