<?xml version="1.0" encoding="UTF-8" standalone="no"?>
<!DOCTYPE svg PUBLIC "-//W3C//DTD SVG 1.1//EN"
 "http://www.w3.org/Graphics/SVG/1.1/DTD/svg11.dtd">
<!-- Generated by graphviz version 2.40.1 (20161225.0304)
 -->
<!-- Title: %3 Pages: 1 -->
<svg width="321pt" height="417pt"
 viewBox="0.00 0.00 321.17 416.93" xmlns="http://www.w3.org/2000/svg" xmlns:xlink="http://www.w3.org/1999/xlink">
<g id="graph0" class="graph" transform="scale(1 1) rotate(0) translate(4 412.9297)">
<title>%3</title>
<polygon fill="#ffffff" stroke="transparent" points="-4,4 -4,-412.9297 317.1684,-412.9297 317.1684,4 -4,4"/>
<!-- Asia &#45; Pacific -->
<g id="node1" class="node">
<title>Asia &#45; Pacific</title>
<ellipse fill="none" stroke="#000000" cx="206.7566" cy="-264.9099" rx="57.5065" ry="18"/>
<text text-anchor="middle" x="206.7566" y="-260.7099" font-family="Times,serif" font-size="14.00" fill="#000000">Asia &#45; Pacific</text>
</g>
<!-- head g1 compound -->
<g id="node2" class="node">
<title>head g1 compound</title>
<ellipse fill="none" stroke="#000000" cx="185.1772" cy="-195.8316" rx="77.3003" ry="18"/>
<text text-anchor="middle" x="185.1772" y="-191.6316" font-family="Times,serif" font-size="14.00" fill="#000000">head g1 compound</text>
</g>
<!-- Asia &#45; Pacific&#45;&gt;head g1 compound -->
<g id="edge1" class="edge">
<title>Asia &#45; Pacific&#45;&gt;head g1 compound</title>
<path fill="none" stroke="#000000" d="M201.0868,-246.7604C198.8988,-239.7562 196.345,-231.5814 193.9322,-223.8575"/>
<polygon fill="#000000" stroke="#000000" points="197.2066,-222.6012 190.884,-214.0997 190.525,-224.6885 197.2066,-222.6012"/>
<text text-anchor="middle" x="182.7763" y="-233.2454" font-family="Times,serif" font-size="14.00" fill="#000000">head</text>
</g>
<!-- child g1 compound -->
<g id="node4" class="node">
<title>child g1 compound</title>
<ellipse fill="none" stroke="#000000" cx="234.7795" cy="-331.5101" rx="78.278" ry="18"/>
<text text-anchor="middle" x="234.7795" y="-327.3101" font-family="Times,serif" font-size="14.00" fill="#000000">child g1 compound</text>
</g>
<!-- Asia &#45; Pacific&#45;&gt;child g1 compound -->
<g id="edge2" class="edge">
<title>Asia &#45; Pacific&#45;&gt;child g1 compound</title>
<path fill="none" stroke="#000000" d="M214.2662,-282.7575C216.9858,-289.2211 220.1254,-296.6826 223.1177,-303.7944"/>
<polygon fill="#000000" stroke="#000000" points="219.9493,-305.2889 227.0537,-313.1488 226.4014,-302.5741 219.9493,-305.2889"/>
<text text-anchor="middle" x="206.574" y="-300.5408" font-family="Times,serif" font-size="14.00" fill="#000000">child</text>
</g>
<!-- nations -->
<g id="node3" class="node">
<title>nations</title>
<ellipse fill="none" stroke="#000000" cx="152.7488" cy="-131.1337" rx="35.806" ry="18"/>
<text text-anchor="middle" x="152.7488" y="-126.9337" font-family="Times,serif" font-size="14.00" fill="#000000">nations</text>
</g>
<!-- head g1 compound&#45;&gt;nations -->
<g id="edge3" class="edge">
<title>head g1 compound&#45;&gt;nations</title>
<path fill="none" stroke="#000000" d="M176.144,-177.8096C173.0003,-171.5375 169.4052,-164.3648 165.9919,-157.5551"/>
<polygon fill="#000000" stroke="#000000" points="169.1196,-155.9841 161.5097,-148.6125 162.8617,-159.1208 169.1196,-155.9841"/>
</g>
<!-- head g2 head of prep phrase -->
<g id="node6" class="node">
<title>head g2 head of prep phrase</title>
<ellipse fill="none" stroke="#000000" cx="109.5526" cy="-73.1104" rx="109.6053" ry="18"/>
<text text-anchor="middle" x="109.5526" y="-68.9104" font-family="Times,serif" font-size="14.00" fill="#000000">head g2 head of prep phrase</text>
</g>
<!-- nations&#45;&gt;head g2 head of prep phrase -->
<g id="edge4" class="edge">
<title>nations&#45;&gt;head g2 head of prep phrase</title>
<path fill="none" stroke="#000000" d="M140.0221,-114.0386C136.5785,-109.4129 132.7707,-104.2981 129.047,-99.2963"/>
<polygon fill="#000000" stroke="#000000" points="131.7181,-97.023 122.9391,-91.0918 126.1032,-101.2031 131.7181,-97.023"/>
<text text-anchor="middle" x="118.2842" y="-105.3886" font-family="Times,serif" font-size="14.00" fill="#000000">head</text>
</g>
<!-- Asia -->
<g id="node5" class="node">
<title>Asia</title>
<ellipse fill="none" stroke="#000000" cx="275.9244" cy="-390.9297" rx="27" ry="18"/>
<text text-anchor="middle" x="275.9244" y="-386.7297" font-family="Times,serif" font-size="14.00" fill="#000000">Asia</text>
</g>
<!-- child g1 compound&#45;&gt;Asia -->
<g id="edge5" class="edge">
<title>child g1 compound&#45;&gt;Asia</title>
<path fill="none" stroke="#000000" d="M247.1243,-349.3379C250.7282,-354.5425 254.7354,-360.3295 258.5874,-365.8924"/>
<polygon fill="#000000" stroke="#000000" points="255.8621,-368.1047 264.4325,-374.3336 261.6171,-364.1197 255.8621,-368.1047"/>
</g>
<!-- meeting -->
<g id="node7" class="node">
<title>meeting</title>
<ellipse fill="none" stroke="#000000" cx="62.9294" cy="-18" rx="38.6869" ry="18"/>
<text text-anchor="middle" x="62.9294" y="-13.8" font-family="Times,serif" font-size="14.00" fill="#000000">meeting</text>
</g>
<!-- head g2 head of prep phrase&#45;&gt;meeting -->
<g id="edge6" class="edge">
<title>head g2 head of prep phrase&#45;&gt;meeting</title>
<path fill="none" stroke="#000000" d="M94.2865,-55.0652C90.9203,-51.0863 87.2991,-46.8059 83.7554,-42.6171"/>
<polygon fill="#000000" stroke="#000000" points="86.2545,-40.1521 77.1237,-34.7781 80.9104,-44.6732 86.2545,-40.1521"/>
</g>
</g>
</svg>
