<?xml version="1.0" encoding="UTF-8" standalone="no"?>
<!DOCTYPE svg PUBLIC "-//W3C//DTD SVG 1.1//EN"
 "http://www.w3.org/Graphics/SVG/1.1/DTD/svg11.dtd">
<!-- Generated by graphviz version 2.40.1 (20161225.0304)
 -->
<!-- Title: %3 Pages: 1 -->
<svg width="456pt" height="453pt"
 viewBox="0.00 0.00 456.43 452.94" xmlns="http://www.w3.org/2000/svg" xmlns:xlink="http://www.w3.org/1999/xlink">
<g id="graph0" class="graph" transform="scale(1 1) rotate(0) translate(4 448.9396)">
<title>%3</title>
<polygon fill="#ffffff" stroke="transparent" points="-4,4 -4,-448.9396 452.425,-448.9396 452.425,4 -4,4"/>
<!-- Asia &#45; Pacific -->
<g id="node1" class="node">
<title>Asia &#45; Pacific</title>
<ellipse fill="none" stroke="#000000" cx="185.0756" cy="-287.518" rx="57.5065" ry="18"/>
<text text-anchor="middle" x="185.0756" y="-283.318" font-family="Times,serif" font-size="14.00" fill="#000000">Asia &#45; Pacific</text>
</g>
<!-- head compound -->
<g id="node2" class="node">
<title>head compound</title>
<ellipse fill="none" stroke="#000000" cx="258.9853" cy="-228.8886" rx="66.1918" ry="18"/>
<text text-anchor="middle" x="258.9853" y="-224.6886" font-family="Times,serif" font-size="14.00" fill="#000000">head compound</text>
</g>
<!-- Asia &#45; Pacific&#45;&gt;head compound -->
<g id="edge1" class="edge">
<title>Asia &#45; Pacific&#45;&gt;head compound</title>
<path fill="none" stroke="#000000" d="M206.4533,-270.56C213.5918,-264.8973 221.6794,-258.4818 229.332,-252.4113"/>
<polygon fill="#000000" stroke="#000000" points="231.7403,-254.9684 237.3995,-246.0117 227.39,-249.4844 231.7403,-254.9684"/>
<text text-anchor="middle" x="208.4935" y="-247.2596" font-family="Times,serif" font-size="14.00" fill="#000000">head</text>
</g>
<!-- child compound -->
<g id="node4" class="node">
<title>child compound</title>
<ellipse fill="none" stroke="#000000" cx="221.8411" cy="-361.7651" rx="67.1696" ry="18"/>
<text text-anchor="middle" x="221.8411" y="-357.5651" font-family="Times,serif" font-size="14.00" fill="#000000">child compound</text>
</g>
<!-- Asia &#45; Pacific&#45;&gt;child compound -->
<g id="edge2" class="edge">
<title>Asia &#45; Pacific&#45;&gt;child compound</title>
<path fill="none" stroke="#000000" d="M193.9755,-305.4912C198.2789,-314.1819 203.5372,-324.8008 208.3218,-334.4633"/>
<polygon fill="#000000" stroke="#000000" points="205.3216,-336.2917 212.8957,-343.7001 211.5946,-333.1854 205.3216,-336.2917"/>
<text text-anchor="middle" x="189.5129" y="-327.5448" font-family="Times,serif" font-size="14.00" fill="#000000">child</text>
</g>
<!-- child punctuation -->
<g id="node6" class="node">
<title>child punctuation</title>
<ellipse fill="none" stroke="#000000" cx="105.2255" cy="-226.8426" rx="71.5048" ry="18"/>
<text text-anchor="middle" x="105.2255" y="-222.6426" font-family="Times,serif" font-size="14.00" fill="#000000">child punctuation</text>
</g>
<!-- Asia &#45; Pacific&#45;&gt;child punctuation -->
<g id="edge3" class="edge">
<title>Asia &#45; Pacific&#45;&gt;child punctuation</title>
<path fill="none" stroke="#000000" d="M162.8329,-270.6165C154.4948,-264.2807 144.8673,-256.965 135.8989,-250.1502"/>
<polygon fill="#000000" stroke="#000000" points="137.9835,-247.3385 127.9038,-244.075 133.7483,-252.912 137.9835,-247.3385"/>
<text text-anchor="middle" x="131.3055" y="-246.0954" font-family="Times,serif" font-size="14.00" fill="#000000">child</text>
</g>
<!-- nations -->
<g id="node3" class="node">
<title>nations</title>
<ellipse fill="none" stroke="#000000" cx="269.0427" cy="-153.3512" rx="35.806" ry="18"/>
<text text-anchor="middle" x="269.0427" y="-149.1512" font-family="Times,serif" font-size="14.00" fill="#000000">nations</text>
</g>
<!-- head compound&#45;&gt;nations -->
<g id="edge4" class="edge">
<title>head compound&#45;&gt;nations</title>
<path fill="none" stroke="#000000" d="M261.4199,-210.6031C262.5812,-201.8814 263.9965,-191.2509 265.291,-181.5285"/>
<polygon fill="#000000" stroke="#000000" points="268.78,-181.8428 266.6305,-171.4683 261.8412,-180.9189 268.78,-181.8428"/>
</g>
<!-- head head of prep phrase -->
<g id="node8" class="node">
<title>head head of prep phrase</title>
<ellipse fill="none" stroke="#000000" cx="329.9048" cy="-96.1919" rx="98.4966" ry="18"/>
<text text-anchor="middle" x="329.9048" y="-91.9919" font-family="Times,serif" font-size="14.00" fill="#000000">head head of prep phrase</text>
</g>
<!-- nations&#45;&gt;head head of prep phrase -->
<g id="edge5" class="edge">
<title>nations&#45;&gt;head head of prep phrase</title>
<path fill="none" stroke="#000000" d="M285.9962,-137.4291C291.437,-132.3193 297.5982,-126.533 303.5477,-120.9454"/>
<polygon fill="#000000" stroke="#000000" points="306.0073,-123.437 310.9006,-114.0399 301.2152,-118.3345 306.0073,-123.437"/>
<text text-anchor="middle" x="311.7122" y="-128.4876" font-family="Times,serif" font-size="14.00" fill="#000000">head</text>
</g>
<!-- Asia -->
<g id="node5" class="node">
<title>Asia</title>
<ellipse fill="none" stroke="#000000" cx="289.2225" cy="-426.9396" rx="27" ry="18"/>
<text text-anchor="middle" x="289.2225" y="-422.7396" font-family="Times,serif" font-size="14.00" fill="#000000">Asia</text>
</g>
<!-- child compound&#45;&gt;Asia -->
<g id="edge6" class="edge">
<title>child compound&#45;&gt;Asia</title>
<path fill="none" stroke="#000000" d="M239.8981,-379.2306C248.0991,-387.163 257.8881,-396.6315 266.5756,-405.0344"/>
<polygon fill="#000000" stroke="#000000" points="264.2377,-407.6425 273.8589,-412.0791 269.1044,-402.611 264.2377,-407.6425"/>
</g>
<!-- &#45; -->
<g id="node7" class="node">
<title>&#45;</title>
<ellipse fill="none" stroke="#000000" cx="27" cy="-188.8863" rx="27" ry="18"/>
<text text-anchor="middle" x="27" y="-184.6863" font-family="Times,serif" font-size="14.00" fill="#000000">&#45;</text>
</g>
<!-- child punctuation&#45;&gt;&#45; -->
<g id="edge7" class="edge">
<title>child punctuation&#45;&gt;&#45;</title>
<path fill="none" stroke="#000000" d="M72.0509,-210.7457C67.4026,-208.4903 62.6399,-206.1793 58.0334,-203.9442"/>
<polygon fill="#000000" stroke="#000000" points="59.4092,-200.7216 48.8844,-199.505 56.3534,-207.0194 59.4092,-200.7216"/>
</g>
<!-- meeting -->
<g id="node9" class="node">
<title>meeting</title>
<ellipse fill="none" stroke="#000000" cx="250.3384" cy="-18" rx="38.6869" ry="18"/>
<text text-anchor="middle" x="250.3384" y="-13.8" font-family="Times,serif" font-size="14.00" fill="#000000">meeting</text>
</g>
<!-- head head of prep phrase&#45;&gt;meeting -->
<g id="edge8" class="edge">
<title>head head of prep phrase&#45;&gt;meeting</title>
<path fill="none" stroke="#000000" d="M311.85,-78.4489C300.6868,-67.4786 286.2311,-53.2727 274.1385,-41.389"/>
<polygon fill="#000000" stroke="#000000" points="276.5508,-38.8524 266.9651,-34.3395 271.6443,-43.8451 276.5508,-38.8524"/>
</g>
<!-- go -->
<g id="node10" class="node">
<title>go</title>
<ellipse fill="none" stroke="#000000" cx="421.425" cy="-172.8265" rx="27" ry="18"/>
<text text-anchor="middle" x="421.425" y="-168.6265" font-family="Times,serif" font-size="14.00" fill="#000000">go</text>
</g>
<!-- head head of prep phrase&#45;&gt;go -->
<g id="edge9" class="edge">
<title>head head of prep phrase&#45;&gt;go</title>
<path fill="none" stroke="#000000" d="M351.1314,-113.966C364.727,-125.3503 382.4246,-140.1694 396.6607,-152.09"/>
<polygon fill="#000000" stroke="#000000" points="394.6714,-154.9893 404.5855,-158.7259 399.1655,-149.6224 394.6714,-154.9893"/>
</g>
<!-- meeting&#45;&gt;head head of prep phrase -->
<g id="edge10" class="edge">
<title>meeting&#45;&gt;head head of prep phrase</title>
<path fill="none" stroke="#000000" d="M267.2124,-34.5825C278.0165,-45.2 292.2403,-59.178 304.4079,-71.1354"/>
<polygon fill="#000000" stroke="#000000" points="302.0837,-73.7586 311.6694,-78.2715 306.9902,-68.7659 302.0837,-73.7586"/>
<text text-anchor="middle" x="276.3203" y="-59.3186" font-family="Times,serif" font-size="14.00" fill="#000000">head</text>
</g>
</g>
</svg>
