<?xml version="1.0" encoding="UTF-8" standalone="no"?>
<!DOCTYPE svg PUBLIC "-//W3C//DTD SVG 1.1//EN"
 "http://www.w3.org/Graphics/SVG/1.1/DTD/svg11.dtd">
<!-- Generated by graphviz version 2.40.1 (20161225.0304)
 -->
<!-- Title: %3 Pages: 1 -->
<svg width="205pt" height="258pt"
 viewBox="0.00 0.00 205.00 258.30" xmlns="http://www.w3.org/2000/svg" xmlns:xlink="http://www.w3.org/1999/xlink">
<g id="graph0" class="graph" transform="scale(1 1) rotate(0) translate(4 254.2975)">
<title>%3</title>
<polygon fill="#ffffff" stroke="transparent" points="-4,4 -4,-254.2975 200.9966,-254.2975 200.9966,4 -4,4"/>
<!-- Vietnam -->
<g id="node1" class="node">
<title>Vietnam</title>
<ellipse fill="none" stroke="#000000" cx="82.4272" cy="-18" rx="40.0625" ry="18"/>
<text text-anchor="middle" x="82.4272" y="-13.8" font-family="Times,serif" font-size="14.00" fill="#000000">Vietnam</text>
</g>
<!-- head head of prep phrase -->
<g id="node2" class="node">
<title>head head of prep phrase</title>
<ellipse fill="none" stroke="#000000" cx="98.4983" cy="-88.469" rx="98.4966" ry="18"/>
<text text-anchor="middle" x="98.4983" y="-84.269" font-family="Times,serif" font-size="14.00" fill="#000000">head head of prep phrase</text>
</g>
<!-- Vietnam&#45;&gt;head head of prep phrase -->
<g id="edge1" class="edge">
<title>Vietnam&#45;&gt;head head of prep phrase</title>
<path fill="none" stroke="#000000" d="M86.5659,-36.1475C88.2399,-43.4879 90.2117,-52.1339 92.065,-60.2601"/>
<polygon fill="#000000" stroke="#000000" points="88.6818,-61.1666 94.3178,-70.138 95.5066,-59.6101 88.6818,-61.1666"/>
<text text-anchor="middle" x="77.2686" y="-56.1209" font-family="Times,serif" font-size="14.00" fill="#000000">head</text>
</g>
<!-- go -->
<g id="node3" class="node">
<title>go</title>
<ellipse fill="none" stroke="#000000" cx="96.8945" cy="-160.6892" rx="27" ry="18"/>
<text text-anchor="middle" x="96.8945" y="-156.4892" font-family="Times,serif" font-size="14.00" fill="#000000">go</text>
</g>
<!-- head head of prep phrase&#45;&gt;go -->
<g id="edge2" class="edge">
<title>head head of prep phrase&#45;&gt;go</title>
<path fill="none" stroke="#000000" d="M98.0936,-106.6932C97.9208,-114.4766 97.715,-123.7432 97.5231,-132.3836"/>
<polygon fill="#000000" stroke="#000000" points="94.0221,-132.3956 97.2991,-142.4708 101.0203,-132.551 94.0221,-132.3956"/>
</g>
<!-- head ROOT -->
<g id="node4" class="node">
<title>head ROOT</title>
<ellipse fill="none" stroke="#000000" cx="88.3927" cy="-232.2975" rx="53.1698" ry="18"/>
<text text-anchor="middle" x="88.3927" y="-228.0975" font-family="Times,serif" font-size="14.00" fill="#000000">head ROOT</text>
</g>
<!-- go&#45;&gt;head ROOT -->
<g id="edge3" class="edge">
<title>go&#45;&gt;head ROOT</title>
<path fill="none" stroke="#000000" d="M94.7491,-178.759C93.8399,-186.4175 92.7586,-195.5243 91.7481,-204.0354"/>
<polygon fill="#000000" stroke="#000000" points="88.2704,-203.6414 90.5669,-213.9844 95.2216,-204.4668 88.2704,-203.6414"/>
<text text-anchor="middle" x="79.4466" y="-199.1512" font-family="Times,serif" font-size="14.00" fill="#000000">head</text>
</g>
<!-- head ROOT&#45;&gt;go -->
<g id="edge4" class="edge">
<title>head ROOT&#45;&gt;go</title>
<path fill="none" stroke="#000000" d="M90.538,-214.2277C91.4473,-206.5692 92.5285,-197.4624 93.539,-188.9512"/>
<polygon fill="#000000" stroke="#000000" points="97.0168,-189.3452 94.7203,-179.0023 90.0656,-188.5199 97.0168,-189.3452"/>
</g>
</g>
</svg>
