<?xml version="1.0" encoding="UTF-8" standalone="no"?>
<!DOCTYPE svg PUBLIC "-//W3C//DTD SVG 1.1//EN"
 "http://www.w3.org/Graphics/SVG/1.1/DTD/svg11.dtd">
<!-- Generated by graphviz version 2.40.1 (20161225.0304)
 -->
<!-- Title: %3 Pages: 1 -->
<svg width="227pt" height="169pt"
 viewBox="0.00 0.00 227.11 169.48" xmlns="http://www.w3.org/2000/svg" xmlns:xlink="http://www.w3.org/1999/xlink">
<g id="graph0" class="graph" transform="scale(1 1) rotate(0) translate(4 165.4775)">
<title>%3</title>
<polygon fill="#ffffff" stroke="transparent" points="-4,4 -4,-165.4775 223.1053,-165.4775 223.1053,4 -4,4"/>
<!-- Vietnam -->
<g id="node1" class="node">
<title>Vietnam</title>
<ellipse fill="none" stroke="#000000" cx="65.5321" cy="-143.4775" rx="40.0625" ry="18"/>
<text text-anchor="middle" x="65.5321" y="-139.2775" font-family="Times,serif" font-size="14.00" fill="#000000">Vietnam</text>
</g>
<!-- head g1 head of prep phrase -->
<g id="node2" class="node">
<title>head g1 head of prep phrase</title>
<ellipse fill="none" stroke="#000000" cx="109.5526" cy="-86.1545" rx="109.6053" ry="18"/>
<text text-anchor="middle" x="109.5526" y="-81.9545" font-family="Times,serif" font-size="14.00" fill="#000000">head g1 head of prep phrase</text>
</g>
<!-- Vietnam&#45;&gt;head g1 head of prep phrase -->
<g id="edge1" class="edge">
<title>Vietnam&#45;&gt;head g1 head of prep phrase</title>
<path fill="none" stroke="#000000" d="M78.7397,-126.2787C82.0953,-121.9091 85.7777,-117.1139 89.393,-112.4061"/>
<polygon fill="#000000" stroke="#000000" points="92.4284,-114.2 95.7432,-104.1371 86.8765,-109.9365 92.4284,-114.2"/>
<text text-anchor="middle" x="100.5688" y="-117.8601" font-family="Times,serif" font-size="14.00" fill="#000000">head</text>
</g>
<!-- go -->
<g id="node3" class="node">
<title>go</title>
<ellipse fill="none" stroke="#000000" cx="133.6571" cy="-18" rx="27" ry="18"/>
<text text-anchor="middle" x="133.6571" y="-13.8" font-family="Times,serif" font-size="14.00" fill="#000000">go</text>
</g>
<!-- head g1 head of prep phrase&#45;&gt;go -->
<g id="edge2" class="edge">
<title>head g1 head of prep phrase&#45;&gt;go</title>
<path fill="none" stroke="#000000" d="M116.0122,-67.8903C118.4557,-60.9815 121.2933,-52.9583 123.969,-45.3927"/>
<polygon fill="#000000" stroke="#000000" points="127.3119,-46.4376 127.3466,-35.8428 120.7125,-44.1035 127.3119,-46.4376"/>
</g>
</g>
</svg>
