<?xml version="1.0" encoding="UTF-8" standalone="no"?>
<!DOCTYPE svg PUBLIC "-//W3C//DTD SVG 1.1//EN"
 "http://www.w3.org/Graphics/SVG/1.1/DTD/svg11.dtd">
<!-- Generated by graphviz version 2.40.1 (20161225.0304)
 -->
<!-- Title: %3 Pages: 1 -->
<svg width="306pt" height="258pt"
 viewBox="0.00 0.00 305.71 258.30" xmlns="http://www.w3.org/2000/svg" xmlns:xlink="http://www.w3.org/1999/xlink">
<g id="graph0" class="graph" transform="scale(1 1) rotate(0) translate(4 254.2975)">
<title>%3</title>
<polygon fill="#ffffff" stroke="transparent" points="-4,4 -4,-254.2975 301.7119,-254.2975 301.7119,4 -4,4"/>
<!-- Thursday -->
<g id="node1" class="node">
<title>Thursday</title>
<ellipse fill="none" stroke="#000000" cx="132.7848" cy="-18" rx="43.5146" ry="18"/>
<text text-anchor="middle" x="132.7848" y="-13.8" font-family="Times,serif" font-size="14.00" fill="#000000">Thursday</text>
</g>
<!-- head noun phrase as adverbial modifier -->
<g id="node2" class="node">
<title>head noun phrase as adverbial modifier</title>
<ellipse fill="none" stroke="#000000" cx="148.856" cy="-88.469" rx="148.7121" ry="18"/>
<text text-anchor="middle" x="148.856" y="-84.269" font-family="Times,serif" font-size="14.00" fill="#000000">head noun phrase as adverbial modifier</text>
</g>
<!-- Thursday&#45;&gt;head noun phrase as adverbial modifier -->
<g id="edge1" class="edge">
<title>Thursday&#45;&gt;head noun phrase as adverbial modifier</title>
<path fill="none" stroke="#000000" d="M136.9235,-36.1475C138.5976,-43.4879 140.5694,-52.1339 142.4227,-60.2601"/>
<polygon fill="#000000" stroke="#000000" points="139.0395,-61.1666 144.6754,-70.138 145.8642,-59.6101 139.0395,-61.1666"/>
<text text-anchor="middle" x="127.6262" y="-56.1209" font-family="Times,serif" font-size="14.00" fill="#000000">head</text>
</g>
<!-- go -->
<g id="node3" class="node">
<title>go</title>
<ellipse fill="none" stroke="#000000" cx="147.2522" cy="-160.6892" rx="27" ry="18"/>
<text text-anchor="middle" x="147.2522" y="-156.4892" font-family="Times,serif" font-size="14.00" fill="#000000">go</text>
</g>
<!-- head noun phrase as adverbial modifier&#45;&gt;go -->
<g id="edge2" class="edge">
<title>head noun phrase as adverbial modifier&#45;&gt;go</title>
<path fill="none" stroke="#000000" d="M148.4513,-106.6932C148.2784,-114.4766 148.0726,-123.7432 147.8808,-132.3836"/>
<polygon fill="#000000" stroke="#000000" points="144.3797,-132.3956 147.6568,-142.4708 151.378,-132.551 144.3797,-132.3956"/>
</g>
<!-- head ROOT -->
<g id="node4" class="node">
<title>head ROOT</title>
<ellipse fill="none" stroke="#000000" cx="138.7503" cy="-232.2975" rx="53.1698" ry="18"/>
<text text-anchor="middle" x="138.7503" y="-228.0975" font-family="Times,serif" font-size="14.00" fill="#000000">head ROOT</text>
</g>
<!-- go&#45;&gt;head ROOT -->
<g id="edge3" class="edge">
<title>go&#45;&gt;head ROOT</title>
<path fill="none" stroke="#000000" d="M145.1068,-178.759C144.1975,-186.4175 143.1163,-195.5243 142.1058,-204.0354"/>
<polygon fill="#000000" stroke="#000000" points="138.6281,-203.6414 140.9246,-213.9844 145.5793,-204.4668 138.6281,-203.6414"/>
<text text-anchor="middle" x="129.8043" y="-199.1512" font-family="Times,serif" font-size="14.00" fill="#000000">head</text>
</g>
<!-- head ROOT&#45;&gt;go -->
<g id="edge4" class="edge">
<title>head ROOT&#45;&gt;go</title>
<path fill="none" stroke="#000000" d="M140.8957,-214.2277C141.805,-206.5692 142.8862,-197.4624 143.8967,-188.9512"/>
<polygon fill="#000000" stroke="#000000" points="147.3744,-189.3452 145.0779,-179.0023 140.4233,-188.5199 147.3744,-189.3452"/>
</g>
</g>
</svg>
