<?xml version="1.0" encoding="UTF-8" standalone="no"?>
<!DOCTYPE svg PUBLIC "-//W3C//DTD SVG 1.1//EN"
 "http://www.w3.org/Graphics/SVG/1.1/DTD/svg11.dtd">
<!-- Generated by graphviz version 2.40.1 (20161225.0304)
 -->
<!-- Title: %3 Pages: 1 -->
<svg width="328pt" height="169pt"
 viewBox="0.00 0.00 327.82 169.48" xmlns="http://www.w3.org/2000/svg" xmlns:xlink="http://www.w3.org/1999/xlink">
<g id="graph0" class="graph" transform="scale(1 1) rotate(0) translate(4 165.4775)">
<title>%3</title>
<polygon fill="#ffffff" stroke="transparent" points="-4,4 -4,-165.4775 323.8206,-165.4775 323.8206,4 -4,4"/>
<!-- Thursday -->
<g id="node1" class="node">
<title>Thursday</title>
<ellipse fill="none" stroke="#000000" cx="115.8898" cy="-143.4775" rx="43.5146" ry="18"/>
<text text-anchor="middle" x="115.8898" y="-139.2775" font-family="Times,serif" font-size="14.00" fill="#000000">Thursday</text>
</g>
<!-- head g1 noun phrase as adverbial modifier -->
<g id="node2" class="node">
<title>head g1 noun phrase as adverbial modifier</title>
<ellipse fill="none" stroke="#000000" cx="159.9103" cy="-86.1545" rx="159.8207" ry="18"/>
<text text-anchor="middle" x="159.9103" y="-81.9545" font-family="Times,serif" font-size="14.00" fill="#000000">head g1 noun phrase as adverbial modifier</text>
</g>
<!-- Thursday&#45;&gt;head g1 noun phrase as adverbial modifier -->
<g id="edge1" class="edge">
<title>Thursday&#45;&gt;head g1 noun phrase as adverbial modifier</title>
<path fill="none" stroke="#000000" d="M129.0974,-126.2787C132.453,-121.9091 136.1354,-117.1139 139.7507,-112.4061"/>
<polygon fill="#000000" stroke="#000000" points="142.786,-114.2 146.1008,-104.1371 137.2342,-109.9365 142.786,-114.2"/>
<text text-anchor="middle" x="124.4987" y="-103.8601" font-family="Times,serif" font-size="14.00" fill="#000000">head</text>
</g>
<!-- go -->
<g id="node3" class="node">
<title>go</title>
<ellipse fill="none" stroke="#000000" cx="184.0148" cy="-18" rx="27" ry="18"/>
<text text-anchor="middle" x="184.0148" y="-13.8" font-family="Times,serif" font-size="14.00" fill="#000000">go</text>
</g>
<!-- head g1 noun phrase as adverbial modifier&#45;&gt;go -->
<g id="edge2" class="edge">
<title>head g1 noun phrase as adverbial modifier&#45;&gt;go</title>
<path fill="none" stroke="#000000" d="M166.3699,-67.8903C168.8134,-60.9815 171.6509,-52.9583 174.3267,-45.3927"/>
<polygon fill="#000000" stroke="#000000" points="177.6696,-46.4376 177.7043,-35.8428 171.0701,-44.1035 177.6696,-46.4376"/>
</g>
</g>
</svg>
