<?xml version="1.0" encoding="UTF-8" standalone="no"?>
<!DOCTYPE svg PUBLIC "-//W3C//DTD SVG 1.1//EN"
 "http://www.w3.org/Graphics/SVG/1.1/DTD/svg11.dtd">
<!-- Generated by graphviz version 2.40.1 (20161225.0304)
 -->
<!-- Title: %3 Pages: 1 -->
<svg width="201pt" height="328pt"
 viewBox="0.00 0.00 200.62 327.52" xmlns="http://www.w3.org/2000/svg" xmlns:xlink="http://www.w3.org/1999/xlink">
<g id="graph0" class="graph" transform="scale(1 1) rotate(0) translate(4 323.5178)">
<title>%3</title>
<polygon fill="#ffffff" stroke="transparent" points="-4,4 -4,-323.5178 196.618,-323.5178 196.618,4 -4,4"/>
<!-- Clinton -->
<g id="node1" class="node">
<title>Clinton</title>
<ellipse fill="none" stroke="#000000" cx="93.5263" cy="-162.2971" rx="36.7836" ry="18"/>
<text text-anchor="middle" x="93.5263" y="-158.0971" font-family="Times,serif" font-size="14.00" fill="#000000">Clinton</text>
</g>
<!-- head g1 nominal subject -->
<g id="node2" class="node">
<title>head g1 nominal subject</title>
<ellipse fill="none" stroke="#000000" cx="96.309" cy="-90.0688" rx="96.1184" ry="18"/>
<text text-anchor="middle" x="96.309" y="-85.8688" font-family="Times,serif" font-size="14.00" fill="#000000">head g1 nominal subject</text>
</g>
<!-- Clinton&#45;&gt;head g1 nominal subject -->
<g id="edge1" class="edge">
<title>Clinton&#45;&gt;head g1 nominal subject</title>
<path fill="none" stroke="#000000" d="M94.2285,-144.0709C94.5284,-136.2866 94.8855,-127.019 95.2184,-118.3775"/>
<polygon fill="#000000" stroke="#000000" points="98.7194,-118.4166 95.6071,-108.2892 91.7246,-118.147 98.7194,-118.4166"/>
<text text-anchor="middle" x="81.7037" y="-128.9842" font-family="Times,serif" font-size="14.00" fill="#000000">head</text>
</g>
<!-- child g1 nsubj -->
<g id="node4" class="node">
<title>child g1 nsubj</title>
<ellipse fill="none" stroke="#000000" cx="105.2804" cy="-233.6887" rx="60.4375" ry="18"/>
<text text-anchor="middle" x="105.2804" y="-229.4887" font-family="Times,serif" font-size="14.00" fill="#000000">child g1 nsubj</text>
</g>
<!-- Clinton&#45;&gt;child g1 nsubj -->
<g id="edge2" class="edge">
<title>Clinton&#45;&gt;child g1 nsubj</title>
<path fill="none" stroke="#000000" d="M96.4924,-180.3122C97.7495,-187.9476 99.2443,-197.0268 100.6413,-205.5122"/>
<polygon fill="#000000" stroke="#000000" points="97.1963,-206.1325 102.2744,-215.431 104.1033,-204.9952 97.1963,-206.1325"/>
<text text-anchor="middle" x="85.3834" y="-200.6512" font-family="Times,serif" font-size="14.00" fill="#000000">child</text>
</g>
<!-- be -->
<g id="node3" class="node">
<title>be</title>
<ellipse fill="none" stroke="#000000" cx="97.0573" cy="-18" rx="27" ry="18"/>
<text text-anchor="middle" x="97.0573" y="-13.8" font-family="Times,serif" font-size="14.00" fill="#000000">be</text>
</g>
<!-- head g1 nominal subject&#45;&gt;be -->
<g id="edge3" class="edge">
<title>head g1 nominal subject&#45;&gt;be</title>
<path fill="none" stroke="#000000" d="M96.4978,-71.8828C96.5785,-64.1157 96.6745,-54.8686 96.764,-46.2462"/>
<polygon fill="#000000" stroke="#000000" points="100.2644,-46.216 96.8685,-36.1802 93.2648,-46.1433 100.2644,-46.216"/>
</g>
<!-- Mr. -->
<g id="node5" class="node">
<title>Mr.</title>
<ellipse fill="none" stroke="#000000" cx="130.3672" cy="-301.5178" rx="27" ry="18"/>
<text text-anchor="middle" x="130.3672" y="-297.3178" font-family="Times,serif" font-size="14.00" fill="#000000">Mr.</text>
</g>
<!-- child g1 nsubj&#45;&gt;Mr. -->
<g id="edge4" class="edge">
<title>child g1 nsubj&#45;&gt;Mr.</title>
<path fill="none" stroke="#000000" d="M112.0032,-251.8656C114.5463,-258.7415 117.4995,-266.7264 120.2843,-274.2559"/>
<polygon fill="#000000" stroke="#000000" points="117.0479,-275.5953 123.7995,-283.7602 123.6132,-273.167 117.0479,-275.5953"/>
</g>
</g>
</svg>
