<?xml version="1.0" encoding="UTF-8" standalone="no"?>
<!DOCTYPE svg PUBLIC "-//W3C//DTD SVG 1.1//EN"
 "http://www.w3.org/Graphics/SVG/1.1/DTD/svg11.dtd">
<!-- Generated by graphviz version 2.40.1 (20161225.0304)
 -->
<!-- Title: %3 Pages: 1 -->
<svg width="228pt" height="304pt"
 viewBox="0.00 0.00 227.72 304.07" xmlns="http://www.w3.org/2000/svg" xmlns:xlink="http://www.w3.org/1999/xlink">
<g id="graph0" class="graph" transform="scale(1 1) rotate(0) translate(4 300.0744)">
<title>%3</title>
<polygon fill="#ffffff" stroke="transparent" points="-4,4 -4,-300.0744 223.7186,-300.0744 223.7186,4 -4,4"/>
<!-- first -->
<g id="node1" class="node">
<title>first</title>
<ellipse fill="none" stroke="#000000" cx="69.9187" cy="-18" rx="27" ry="18"/>
<text text-anchor="middle" x="69.9187" y="-13.8" font-family="Times,serif" font-size="14.00" fill="#000000">first</text>
</g>
<!-- head g1 adjectival modifier -->
<g id="node2" class="node">
<title>head g1 adjectival modifier</title>
<ellipse fill="none" stroke="#000000" cx="106.6163" cy="-80.2576" rx="106.7328" ry="18"/>
<text text-anchor="middle" x="106.6163" y="-76.0576" font-family="Times,serif" font-size="14.00" fill="#000000">head g1 adjectival modifier</text>
</g>
<!-- first&#45;&gt;head g1 adjectival modifier -->
<g id="edge1" class="edge">
<title>first&#45;&gt;head g1 adjectival modifier</title>
<path fill="none" stroke="#000000" d="M79.9465,-35.0122C83.2544,-40.6241 87.0201,-47.0126 90.6582,-53.1846"/>
<polygon fill="#000000" stroke="#000000" points="87.7359,-55.1195 95.829,-61.957 93.7662,-51.5649 87.7359,-55.1195"/>
<text text-anchor="middle" x="74.5292" y="-51.0391" font-family="Times,serif" font-size="14.00" fill="#000000">head</text>
</g>
<!-- President -->
<g id="node3" class="node">
<title>President</title>
<ellipse fill="none" stroke="#000000" cx="125.6991" cy="-150.008" rx="43.0387" ry="18"/>
<text text-anchor="middle" x="125.6991" y="-145.808" font-family="Times,serif" font-size="14.00" fill="#000000">President</text>
</g>
<!-- head g1 adjectival modifier&#45;&gt;President -->
<g id="edge2" class="edge">
<title>head g1 adjectival modifier&#45;&gt;President</title>
<path fill="none" stroke="#000000" d="M111.6301,-98.5837C113.6178,-105.849 115.9468,-114.3618 118.1314,-122.3469"/>
<polygon fill="#000000" stroke="#000000" points="114.7699,-123.3236 120.7848,-132.0455 121.5218,-121.4764 114.7699,-123.3236"/>
</g>
<!-- head g2 attribute -->
<g id="node4" class="node">
<title>head g2 attribute</title>
<ellipse fill="none" stroke="#000000" cx="150.1861" cy="-217.9986" rx="69.565" ry="18"/>
<text text-anchor="middle" x="150.1861" y="-213.7986" font-family="Times,serif" font-size="14.00" fill="#000000">head g2 attribute</text>
</g>
<!-- President&#45;&gt;head g2 attribute -->
<g id="edge3" class="edge">
<title>President&#45;&gt;head g2 attribute</title>
<path fill="none" stroke="#000000" d="M132.1327,-167.8717C134.6156,-174.7657 137.5134,-182.8118 140.2514,-190.4141"/>
<polygon fill="#000000" stroke="#000000" points="137.0289,-191.7957 143.7104,-200.0181 143.6148,-189.4237 137.0289,-191.7957"/>
<text text-anchor="middle" x="124.7022" y="-186.7298" font-family="Times,serif" font-size="14.00" fill="#000000">head</text>
</g>
<!-- be -->
<g id="node5" class="node">
<title>be</title>
<ellipse fill="none" stroke="#000000" cx="190.3979" cy="-278.0744" rx="27" ry="18"/>
<text text-anchor="middle" x="190.3979" y="-273.8744" font-family="Times,serif" font-size="14.00" fill="#000000">be</text>
</g>
<!-- head g2 attribute&#45;&gt;be -->
<g id="edge4" class="edge">
<title>head g2 attribute&#45;&gt;be</title>
<path fill="none" stroke="#000000" d="M162.251,-236.0233C165.7731,-241.2854 169.6894,-247.1363 173.4541,-252.7606"/>
<polygon fill="#000000" stroke="#000000" points="170.6955,-254.9317 179.1666,-261.295 176.5127,-251.0379 170.6955,-254.9317"/>
</g>
</g>
</svg>
