<?xml version="1.0" encoding="UTF-8" standalone="no"?>
<!DOCTYPE svg PUBLIC "-//W3C//DTD SVG 1.1//EN"
 "http://www.w3.org/Graphics/SVG/1.1/DTD/svg11.dtd">
<!-- Generated by graphviz version 2.40.1 (20161225.0304)
 -->
<!-- Title: %3 Pages: 1 -->
<svg width="199pt" height="400pt"
 viewBox="0.00 0.00 199.12 399.55" xmlns="http://www.w3.org/2000/svg" xmlns:xlink="http://www.w3.org/1999/xlink">
<g id="graph0" class="graph" transform="scale(1 1) rotate(0) translate(4 395.5539)">
<title>%3</title>
<polygon fill="#ffffff" stroke="transparent" points="-4,4 -4,-395.5539 195.124,-395.5539 195.124,4 -4,4"/>
<!-- first -->
<g id="node1" class="node">
<title>first</title>
<ellipse fill="none" stroke="#000000" cx="74.4335" cy="-18" rx="27" ry="18"/>
<text text-anchor="middle" x="74.4335" y="-13.8" font-family="Times,serif" font-size="14.00" fill="#000000">first</text>
</g>
<!-- head adjectival modifier -->
<g id="node2" class="node">
<title>head adjectival modifier</title>
<ellipse fill="none" stroke="#000000" cx="95.562" cy="-87.1892" rx="95.624" ry="18"/>
<text text-anchor="middle" x="95.562" y="-82.9892" font-family="Times,serif" font-size="14.00" fill="#000000">head adjectival modifier</text>
</g>
<!-- first&#45;&gt;head adjectival modifier -->
<g id="edge1" class="edge">
<title>first&#45;&gt;head adjectival modifier</title>
<path fill="none" stroke="#000000" d="M79.8746,-35.8179C82.0754,-43.0251 84.6677,-51.514 87.1042,-59.4926"/>
<polygon fill="#000000" stroke="#000000" points="83.7978,-60.6494 90.0659,-69.1912 90.4926,-58.6049 83.7978,-60.6494"/>
<text text-anchor="middle" x="71.8098" y="-55.4794" font-family="Times,serif" font-size="14.00" fill="#000000">head</text>
</g>
<!-- President -->
<g id="node3" class="node">
<title>President</title>
<ellipse fill="none" stroke="#000000" cx="101.5533" cy="-159.2228" rx="43.0387" ry="18"/>
<text text-anchor="middle" x="101.5533" y="-155.0228" font-family="Times,serif" font-size="14.00" fill="#000000">President</text>
</g>
<!-- head adjectival modifier&#45;&gt;President -->
<g id="edge2" class="edge">
<title>head adjectival modifier&#45;&gt;President</title>
<path fill="none" stroke="#000000" d="M97.0739,-105.3663C97.7196,-113.1296 98.4883,-122.3722 99.2051,-130.9904"/>
<polygon fill="#000000" stroke="#000000" points="95.725,-131.3761 100.0419,-141.0515 102.7009,-130.7958 95.725,-131.3761"/>
</g>
<!-- head attribute -->
<g id="node4" class="node">
<title>head attribute</title>
<ellipse fill="none" stroke="#000000" cx="101.7318" cy="-231.424" rx="58.4563" ry="18"/>
<text text-anchor="middle" x="101.7318" y="-227.224" font-family="Times,serif" font-size="14.00" fill="#000000">head attribute</text>
</g>
<!-- President&#45;&gt;head attribute -->
<g id="edge3" class="edge">
<title>President&#45;&gt;head attribute</title>
<path fill="none" stroke="#000000" d="M101.5983,-177.4423C101.6176,-185.2236 101.6405,-194.4877 101.6618,-203.1259"/>
<polygon fill="#000000" stroke="#000000" points="98.162,-203.2192 101.6868,-213.2104 105.1619,-203.2018 98.162,-203.2192"/>
<text text-anchor="middle" x="88.4287" y="-198.1222" font-family="Times,serif" font-size="14.00" fill="#000000">head</text>
</g>
<!-- be -->
<g id="node5" class="node">
<title>be</title>
<ellipse fill="none" stroke="#000000" cx="98.9182" cy="-303.6324" rx="27" ry="18"/>
<text text-anchor="middle" x="98.9182" y="-299.4324" font-family="Times,serif" font-size="14.00" fill="#000000">be</text>
</g>
<!-- head attribute&#45;&gt;be -->
<g id="edge4" class="edge">
<title>head attribute&#45;&gt;be</title>
<path fill="none" stroke="#000000" d="M101.0218,-249.6452C100.7186,-257.4273 100.3576,-266.6924 100.021,-275.3315"/>
<polygon fill="#000000" stroke="#000000" points="96.5201,-275.2883 99.628,-285.417 103.5148,-275.5609 96.5201,-275.2883"/>
</g>
<!-- head ROOT -->
<g id="node6" class="node">
<title>head ROOT</title>
<ellipse fill="none" stroke="#000000" cx="80.3686" cy="-373.5539" rx="53.1698" ry="18"/>
<text text-anchor="middle" x="80.3686" y="-369.3539" font-family="Times,serif" font-size="14.00" fill="#000000">head ROOT</text>
</g>
<!-- be&#45;&gt;head ROOT -->
<g id="edge5" class="edge">
<title>be&#45;&gt;head ROOT</title>
<path fill="none" stroke="#000000" d="M94.1412,-321.6389C92.209,-328.9223 89.9331,-337.501 87.794,-345.5642"/>
<polygon fill="#000000" stroke="#000000" points="84.3752,-344.8022 85.1939,-355.3653 91.1411,-346.5972 84.3752,-344.8022"/>
<text text-anchor="middle" x="76.4068" y="-341.4788" font-family="Times,serif" font-size="14.00" fill="#000000">head</text>
</g>
<!-- head ROOT&#45;&gt;be -->
<g id="edge6" class="edge">
<title>head ROOT&#45;&gt;be</title>
<path fill="none" stroke="#000000" d="M85.1456,-355.5473C87.0778,-348.2639 89.3537,-339.6852 91.4928,-331.6221"/>
<polygon fill="#000000" stroke="#000000" points="94.9116,-332.384 94.093,-321.8209 88.1457,-330.589 94.9116,-332.384"/>
</g>
</g>
</svg>
