<?xml version="1.0" encoding="UTF-8" standalone="no"?>
<!DOCTYPE svg PUBLIC "-//W3C//DTD SVG 1.1//EN"
 "http://www.w3.org/Graphics/SVG/1.1/DTD/svg11.dtd">
<!-- Generated by graphviz version 2.40.1 (20161225.0304)
 -->
<!-- Title: %3 Pages: 1 -->
<svg width="4718pt" height="188pt"
 viewBox="0.00 0.00 4718.15 188.00" xmlns="http://www.w3.org/2000/svg" xmlns:xlink="http://www.w3.org/1999/xlink">
<g id="graph0" class="graph" transform="scale(1 1) rotate(0) translate(4 184)">
<title>%3</title>
<polygon fill="#ffffff" stroke="transparent" points="-4,4 -4,-184 4714.147,-184 4714.147,4 -4,4"/>
<!-- CARDINAL -->
<g id="node1" class="node">
<title>CARDINAL</title>
<ellipse fill="none" stroke="#000000" cx="4134.1957" cy="-162" rx="55.594" ry="18"/>
<text text-anchor="middle" x="4134.1957" y="-157.8" font-family="Times,serif" font-size="14.00" fill="#000000">CARDINAL</text>
</g>
<!-- nummod -->
<g id="node2" class="node">
<title>nummod</title>
<ellipse fill="none" stroke="#000000" cx="1764.1957" cy="-90" rx="41.6025" ry="18"/>
<text text-anchor="middle" x="1764.1957" y="-85.8" font-family="Times,serif" font-size="14.00" fill="#000000">nummod</text>
</g>
<!-- CARDINAL&#45;&#45;nummod -->
<g id="edge1" class="edge">
<title>CARDINAL&#45;&#45;nummod</title>
<path fill="none" stroke="#000000" d="M4078.5262,-160.3088C3752.0386,-150.3902 2090.5107,-99.9134 1805.7517,-91.2625"/>
</g>
<!-- attribute -->
<g id="node8" class="node">
<title>attribute</title>
<ellipse fill="none" stroke="#000000" cx="3569.1957" cy="-90" rx="39.6472" ry="18"/>
<text text-anchor="middle" x="3569.1957" y="-85.8" font-family="Times,serif" font-size="14.00" fill="#000000">attribute</text>
</g>
<!-- CARDINAL&#45;&#45;attribute -->
<g id="edge2" class="edge">
<title>CARDINAL&#45;&#45;attribute</title>
<path fill="none" stroke="#000000" d="M4080.9812,-156.41C3996.087,-147.3258 3824.8255,-128.3188 3680.1957,-108 3655.5465,-104.5371 3627.9166,-100.0586 3606.3893,-96.4352"/>
</g>
<!-- nominal subject -->
<g id="node15" class="node">
<title>nominal subject</title>
<ellipse fill="none" stroke="#000000" cx="3755.1957" cy="-90" rx="66.2004" ry="18"/>
<text text-anchor="middle" x="3755.1957" y="-85.8" font-family="Times,serif" font-size="14.00" fill="#000000">nominal subject</text>
</g>
<!-- CARDINAL&#45;&#45;nominal subject -->
<g id="edge3" class="edge">
<title>CARDINAL&#45;&#45;nominal subject</title>
<path fill="none" stroke="#000000" d="M4085.8101,-152.808C4015.0668,-139.3687 3883.7918,-114.4299 3809.7213,-100.3584"/>
</g>
<!-- head of prep phrase -->
<g id="node19" class="node">
<title>head of prep phrase</title>
<ellipse fill="none" stroke="#000000" cx="4058.1957" cy="-90" rx="79.6874" ry="18"/>
<text text-anchor="middle" x="4058.1957" y="-85.8" font-family="Times,serif" font-size="14.00" fill="#000000">head of prep phrase</text>
</g>
<!-- CARDINAL&#45;&#45;head of prep phrase -->
<g id="edge4" class="edge">
<title>CARDINAL&#45;&#45;head of prep phrase</title>
<path fill="none" stroke="#000000" d="M4116.1848,-144.937C4104.3331,-133.7091 4088.855,-119.0456 4076.871,-107.6924"/>
</g>
<!-- direct object -->
<g id="node22" class="node">
<title>direct object</title>
<ellipse fill="none" stroke="#000000" cx="4210.1957" cy="-90" rx="54.1129" ry="18"/>
<text text-anchor="middle" x="4210.1957" y="-85.8" font-family="Times,serif" font-size="14.00" fill="#000000">direct object</text>
</g>
<!-- CARDINAL&#45;&#45;direct object -->
<g id="edge5" class="edge">
<title>CARDINAL&#45;&#45;direct object</title>
<path fill="none" stroke="#000000" d="M4152.2066,-144.937C4164.2339,-133.5428 4179.9958,-118.6104 4192.0507,-107.19"/>
</g>
<!-- predet -->
<g id="node33" class="node">
<title>predet</title>
<ellipse fill="none" stroke="#000000" cx="4314.1957" cy="-90" rx="32.4063" ry="18"/>
<text text-anchor="middle" x="4314.1957" y="-85.8" font-family="Times,serif" font-size="14.00" fill="#000000">predet</text>
</g>
<!-- CARDINAL&#45;&#45;predet -->
<g id="edge6" class="edge">
<title>CARDINAL&#45;&#45;predet</title>
<path fill="none" stroke="#000000" d="M4170.6576,-148.3276C4198.7953,-137.6579 4238.6254,-122.2959 4273.1957,-108 4278.2244,-105.9205 4283.5685,-103.6324 4288.6795,-101.4052"/>
</g>
<!-- ROOT -->
<g id="node55" class="node">
<title>ROOT</title>
<ellipse fill="none" stroke="#000000" cx="4398.1957" cy="-90" rx="34.3614" ry="18"/>
<text text-anchor="middle" x="4398.1957" y="-85.8" font-family="Times,serif" font-size="14.00" fill="#000000">ROOT</text>
</g>
<!-- CARDINAL&#45;&#45;ROOT -->
<g id="edge7" class="edge">
<title>CARDINAL&#45;&#45;ROOT</title>
<path fill="none" stroke="#000000" d="M4182.2256,-152.5381C4227.4074,-143.1051 4296.6707,-127.2676 4355.1957,-108 4360.7304,-106.1779 4366.5532,-103.9568 4372.0642,-101.7055"/>
</g>
<!-- noun phrase as adverbial modifier -->
<g id="node58" class="node">
<title>noun phrase as adverbial modifier</title>
<ellipse fill="none" stroke="#000000" cx="4580.1957" cy="-90" rx="129.9027" ry="18"/>
<text text-anchor="middle" x="4580.1957" y="-85.8" font-family="Times,serif" font-size="14.00" fill="#000000">noun phrase as adverbial modifier</text>
</g>
<!-- CARDINAL&#45;&#45;noun phrase as adverbial modifier -->
<g id="edge8" class="edge">
<title>CARDINAL&#45;&#45;noun phrase as adverbial modifier</title>
<path fill="none" stroke="#000000" d="M4184.4906,-153.8806C4260.0107,-141.6891 4403.62,-118.5055 4495.4898,-103.6745"/>
</g>
<!-- sailors -->
<g id="node3" class="node">
<title>sailors</title>
<ellipse fill="none" stroke="#000000" cx="33.1957" cy="-18" rx="33.3925" ry="18"/>
<text text-anchor="middle" x="33.1957" y="-13.8" font-family="Times,serif" font-size="14.00" fill="#000000">sailors</text>
</g>
<!-- nummod&#45;&#45;sailors -->
<g id="edge9" class="edge">
<title>nummod&#45;&#45;sailors</title>
<path fill="none" stroke="#000000" d="M1722.5694,-89.5939C1478.6952,-87.0918 240.3279,-72.654 75.1957,-36 69.3098,-34.6935 63.217,-32.5763 57.5589,-30.245"/>
</g>
<!-- leaders -->
<g id="node4" class="node">
<title>leaders</title>
<ellipse fill="none" stroke="#000000" cx="119.1957" cy="-18" rx="35.2956" ry="18"/>
<text text-anchor="middle" x="119.1957" y="-13.8" font-family="Times,serif" font-size="14.00" fill="#000000">leaders</text>
</g>
<!-- nummod&#45;&#45;leaders -->
<g id="edge10" class="edge">
<title>nummod&#45;&#45;leaders</title>
<path fill="none" stroke="#000000" d="M1722.4613,-89.4736C1485.9996,-86.3735 319.4765,-69.4763 163.1957,-36 157.2237,-34.7208 151.0277,-32.677 145.2363,-30.4177"/>
</g>
<!-- people -->
<g id="node5" class="node">
<title>people</title>
<ellipse fill="none" stroke="#000000" cx="206.1957" cy="-18" rx="33.8596" ry="18"/>
<text text-anchor="middle" x="206.1957" y="-13.8" font-family="Times,serif" font-size="14.00" fill="#000000">people</text>
</g>
<!-- nummod&#45;&#45;people -->
<g id="edge11" class="edge">
<title>nummod&#45;&#45;people</title>
<path fill="none" stroke="#000000" d="M1722.4799,-89.408C1493.7189,-86.0424 396.4486,-68.3161 249.1957,-36 243.188,-34.6816 236.9576,-32.5595 231.1662,-30.2272"/>
</g>
<!-- shows -->
<g id="node6" class="node">
<title>shows</title>
<ellipse fill="none" stroke="#000000" cx="290.1957" cy="-18" rx="32.4411" ry="18"/>
<text text-anchor="middle" x="290.1957" y="-13.8" font-family="Times,serif" font-size="14.00" fill="#000000">shows</text>
</g>
<!-- nummod&#45;&#45;shows -->
<g id="edge12" class="edge">
<title>nummod&#45;&#45;shows</title>
<path fill="none" stroke="#000000" d="M1722.5765,-89.3604C1501.511,-85.839 469.7327,-67.8065 331.1957,-36 325.4374,-34.678 319.4846,-32.5545 313.9602,-30.2219"/>
</g>
<!-- plants -->
<g id="node7" class="node">
<title>plants</title>
<ellipse fill="none" stroke="#000000" cx="371.1957" cy="-18" rx="31.4636" ry="18"/>
<text text-anchor="middle" x="371.1957" y="-13.8" font-family="Times,serif" font-size="14.00" fill="#000000">plants</text>
</g>
<!-- nummod&#45;&#45;plants -->
<g id="edge13" class="edge">
<title>nummod&#45;&#45;plants</title>
<path fill="none" stroke="#000000" d="M1722.4972,-89.2583C1508.9071,-85.3351 542.3788,-66.043 412.1957,-36 406.2874,-34.6365 400.1733,-32.4329 394.5272,-30.0276"/>
</g>
<!-- nationalities -->
<g id="node10" class="node">
<title>nationalities</title>
<ellipse fill="none" stroke="#000000" cx="474.1957" cy="-18" rx="53.1625" ry="18"/>
<text text-anchor="middle" x="474.1957" y="-13.8" font-family="Times,serif" font-size="14.00" fill="#000000">nationalities</text>
</g>
<!-- nummod&#45;&#45;nationalities -->
<g id="edge14" class="edge">
<title>nummod&#45;&#45;nationalities</title>
<path fill="none" stroke="#000000" d="M1722.5224,-89.4758C1535.5477,-86.9228 772.9161,-74.3163 537.1957,-36 529.224,-34.7042 520.8281,-32.7426 512.8566,-30.5842"/>
</g>
<!-- Palestinians -->
<g id="node11" class="node">
<title>Palestinians</title>
<ellipse fill="none" stroke="#000000" cx="598.1957" cy="-18" rx="52.2106" ry="18"/>
<text text-anchor="middle" x="598.1957" y="-13.8" font-family="Times,serif" font-size="14.00" fill="#000000">Palestinians</text>
</g>
<!-- nummod&#45;&#45;Palestinians -->
<g id="edge15" class="edge">
<title>nummod&#45;&#45;Palestinians</title>
<path fill="none" stroke="#000000" d="M1722.6569,-89.266C1547.7465,-85.9752 870.5186,-71.1761 660.1957,-36 652.3468,-34.6873 644.0826,-32.7182 636.2371,-30.5577"/>
</g>
<!-- settlers -->
<g id="node12" class="node">
<title>settlers</title>
<ellipse fill="none" stroke="#000000" cx="704.1957" cy="-18" rx="35.3129" ry="18"/>
<text text-anchor="middle" x="704.1957" y="-13.8" font-family="Times,serif" font-size="14.00" fill="#000000">settlers</text>
</g>
<!-- nummod&#45;&#45;settlers -->
<g id="edge16" class="edge">
<title>nummod&#45;&#45;settlers</title>
<path fill="none" stroke="#000000" d="M1722.5311,-89.6382C1556.051,-87.9069 938.4304,-78.6818 748.1957,-36 742.2363,-34.6629 736.0457,-32.5948 730.2555,-30.33"/>
</g>
<!-- men -->
<g id="node13" class="node">
<title>men</title>
<ellipse fill="none" stroke="#000000" cx="784.1957" cy="-18" rx="27" ry="18"/>
<text text-anchor="middle" x="784.1957" y="-13.8" font-family="Times,serif" font-size="14.00" fill="#000000">men</text>
</g>
<!-- nummod&#45;&#45;men -->
<g id="edge17" class="edge">
<title>nummod&#45;&#45;men</title>
<path fill="none" stroke="#000000" d="M1722.7476,-88.6171C1552.029,-82.7868 908.1322,-59.4302 820.1957,-36 814.929,-34.5967 809.5297,-32.3776 804.5675,-29.9699"/>
</g>
<!-- elections -->
<g id="node14" class="node">
<title>elections</title>
<ellipse fill="none" stroke="#000000" cx="871.1957" cy="-18" rx="41.5766" ry="18"/>
<text text-anchor="middle" x="871.1957" y="-13.8" font-family="Times,serif" font-size="14.00" fill="#000000">elections</text>
</g>
<!-- nummod&#45;&#45;elections -->
<g id="edge18" class="edge">
<title>nummod&#45;&#45;elections</title>
<path fill="none" stroke="#000000" d="M1722.565,-88.882C1574.9511,-84.6769 1077.081,-68.3732 921.1957,-36 914.6918,-34.6493 907.8913,-32.6346 901.4754,-30.4361"/>
</g>
<!-- factor -->
<g id="node17" class="node">
<title>factor</title>
<ellipse fill="none" stroke="#000000" cx="961.1957" cy="-18" rx="30.9532" ry="18"/>
<text text-anchor="middle" x="961.1957" y="-13.8" font-family="Times,serif" font-size="14.00" fill="#000000">factor</text>
</g>
<!-- nummod&#45;&#45;factor -->
<g id="edge19" class="edge">
<title>nummod&#45;&#45;factor</title>
<path fill="none" stroke="#000000" d="M1722.404,-88.9716C1583.7098,-85.2573 1139.628,-70.8694 1001.1957,-36 995.5835,-34.5863 989.7781,-32.4256 984.3889,-30.086"/>
</g>
<!-- bodies -->
<g id="node18" class="node">
<title>bodies</title>
<ellipse fill="none" stroke="#000000" cx="1043.1957" cy="-18" rx="33.3925" ry="18"/>
<text text-anchor="middle" x="1043.1957" y="-13.8" font-family="Times,serif" font-size="14.00" fill="#000000">bodies</text>
</g>
<!-- nummod&#45;&#45;bodies -->
<g id="edge20" class="edge">
<title>nummod&#45;&#45;bodies</title>
<path fill="none" stroke="#000000" d="M1722.6091,-88.4619C1594.501,-83.4456 1207.1757,-66.1256 1085.1957,-36 1079.4964,-34.5924 1073.5827,-32.4946 1068.0546,-30.2232"/>
</g>
<!-- condition -->
<g id="node21" class="node">
<title>condition</title>
<ellipse fill="none" stroke="#000000" cx="1138.1957" cy="-18" rx="43.5233" ry="18"/>
<text text-anchor="middle" x="1138.1957" y="-13.8" font-family="Times,serif" font-size="14.00" fill="#000000">condition</text>
</g>
<!-- nummod&#45;&#45;condition -->
<g id="edge21" class="edge">
<title>nummod&#45;&#45;condition</title>
<path fill="none" stroke="#000000" d="M1722.346,-89.3859C1627.0235,-87.2665 1386.8611,-77.8441 1191.1957,-36 1184.3537,-34.5368 1177.168,-32.4728 1170.3731,-30.2618"/>
</g>
<!-- houses -->
<g id="node24" class="node">
<title>houses</title>
<ellipse fill="none" stroke="#000000" cx="1234.1957" cy="-18" rx="34.3614" ry="18"/>
<text text-anchor="middle" x="1234.1957" y="-13.8" font-family="Times,serif" font-size="14.00" fill="#000000">houses</text>
</g>
<!-- nummod&#45;&#45;houses -->
<g id="edge22" class="edge">
<title>nummod&#45;&#45;houses</title>
<path fill="none" stroke="#000000" d="M1723.2217,-86.9709C1621.8415,-79.2335 1361.398,-57.8089 1277.1957,-36 1271.3982,-34.4984 1265.3594,-32.3609 1259.7033,-30.0806"/>
</g>
<!-- companies -->
<g id="node25" class="node">
<title>companies</title>
<ellipse fill="none" stroke="#000000" cx="1334.1957" cy="-18" rx="47.8496" ry="18"/>
<text text-anchor="middle" x="1334.1957" y="-13.8" font-family="Times,serif" font-size="14.00" fill="#000000">companies</text>
</g>
<!-- nummod&#45;&#45;companies -->
<g id="edge23" class="edge">
<title>nummod&#45;&#45;companies</title>
<path fill="none" stroke="#000000" d="M1723.5065,-86.2909C1654.5213,-79.5182 1510.4742,-63.2781 1391.1957,-36 1384.2154,-34.4037 1376.857,-32.3602 1369.8315,-30.2266"/>
</g>
<!-- troops -->
<g id="node26" class="node">
<title>troops</title>
<ellipse fill="none" stroke="#000000" cx="1432.1957" cy="-18" rx="32.4324" ry="18"/>
<text text-anchor="middle" x="1432.1957" y="-13.8" font-family="Times,serif" font-size="14.00" fill="#000000">troops</text>
</g>
<!-- nummod&#45;&#45;troops -->
<g id="edge24" class="edge">
<title>nummod&#45;&#45;troops</title>
<path fill="none" stroke="#000000" d="M1723.479,-85.4496C1666.5528,-78.4145 1560.3656,-62.8297 1473.1957,-36 1467.6976,-34.3078 1461.9522,-32.0898 1456.562,-29.7915"/>
</g>
<!-- hostages -->
<g id="node27" class="node">
<title>hostages</title>
<ellipse fill="none" stroke="#000000" cx="1523.1957" cy="-18" rx="40.6248" ry="18"/>
<text text-anchor="middle" x="1523.1957" y="-13.8" font-family="Times,serif" font-size="14.00" fill="#000000">hostages</text>
</g>
<!-- nummod&#45;&#45;hostages -->
<g id="edge25" class="edge">
<title>nummod&#45;&#45;hostages</title>
<path fill="none" stroke="#000000" d="M1728.4184,-80.6877C1689.8728,-70.4684 1626.8421,-53.2166 1573.1957,-36 1567.0465,-34.0265 1560.5217,-31.7865 1554.2865,-29.5732"/>
</g>
<!-- way -->
<g id="node28" class="node">
<title>way</title>
<ellipse fill="none" stroke="#000000" cx="1609.1957" cy="-18" rx="27" ry="18"/>
<text text-anchor="middle" x="1609.1957" y="-13.8" font-family="Times,serif" font-size="14.00" fill="#000000">way</text>
</g>
<!-- nummod&#45;&#45;way -->
<g id="edge26" class="edge">
<title>nummod&#45;&#45;way</title>
<path fill="none" stroke="#000000" d="M1734.711,-76.991C1710.5428,-66.239 1675.5055,-50.4482 1645.1957,-36 1640.528,-33.775 1635.5507,-31.3323 1630.8329,-28.9836"/>
</g>
<!-- investigators -->
<g id="node32" class="node">
<title>investigators</title>
<ellipse fill="none" stroke="#000000" cx="1709.1957" cy="-18" rx="55.1008" ry="18"/>
<text text-anchor="middle" x="1709.1957" y="-13.8" font-family="Times,serif" font-size="14.00" fill="#000000">investigators</text>
</g>
<!-- nummod&#45;&#45;investigators -->
<g id="edge27" class="edge">
<title>nummod&#45;&#45;investigators</title>
<path fill="none" stroke="#000000" d="M1750.8817,-72.5708C1742.2979,-61.3339 1731.1748,-46.7727 1722.5777,-35.5182"/>
</g>
<!-- nations -->
<g id="node35" class="node">
<title>nations</title>
<ellipse fill="none" stroke="#000000" cx="1818.1957" cy="-18" rx="35.806" ry="18"/>
<text text-anchor="middle" x="1818.1957" y="-13.8" font-family="Times,serif" font-size="14.00" fill="#000000">nations</text>
</g>
<!-- nummod&#45;&#45;nations -->
<g id="edge28" class="edge">
<title>nummod&#45;&#45;nations</title>
<path fill="none" stroke="#000000" d="M1777.2676,-72.5708C1785.7577,-61.2506 1796.7781,-46.5568 1805.2442,-35.2687"/>
</g>
<!-- chemicals -->
<g id="node36" class="node">
<title>chemicals</title>
<ellipse fill="none" stroke="#000000" cx="1917.1957" cy="-18" rx="45.4269" ry="18"/>
<text text-anchor="middle" x="1917.1957" y="-13.8" font-family="Times,serif" font-size="14.00" fill="#000000">chemicals</text>
</g>
<!-- nummod&#45;&#45;chemicals -->
<g id="edge29" class="edge">
<title>nummod&#45;&#45;chemicals</title>
<path fill="none" stroke="#000000" d="M1792.6153,-76.6261C1819.7508,-63.8564 1860.4593,-44.6995 1887.8867,-31.7925"/>
</g>
<!-- bombers -->
<g id="node38" class="node">
<title>bombers</title>
<ellipse fill="none" stroke="#000000" cx="2021.1957" cy="-18" rx="40.6248" ry="18"/>
<text text-anchor="middle" x="2021.1957" y="-13.8" font-family="Times,serif" font-size="14.00" fill="#000000">bombers</text>
</g>
<!-- nummod&#45;&#45;bombers -->
<g id="edge30" class="edge">
<title>nummod&#45;&#45;bombers</title>
<path fill="none" stroke="#000000" d="M1801.1233,-81.4339C1842.7495,-71.5314 1912.3033,-54.2414 1971.1957,-36 1977.3647,-34.0892 1983.8984,-31.8776 1990.1362,-29.6724"/>
</g>
<!-- candidates -->
<g id="node39" class="node">
<title>candidates</title>
<ellipse fill="none" stroke="#000000" cx="2127.1957" cy="-18" rx="47.3564" ry="18"/>
<text text-anchor="middle" x="2127.1957" y="-13.8" font-family="Times,serif" font-size="14.00" fill="#000000">candidates</text>
</g>
<!-- nummod&#45;&#45;candidates -->
<g id="edge31" class="edge">
<title>nummod&#45;&#45;candidates</title>
<path fill="none" stroke="#000000" d="M1804.3007,-84.7341C1863.2753,-76.5885 1976.6369,-59.3965 2071.1957,-36 2077.9367,-34.3321 2085.0476,-32.2802 2091.8565,-30.1661"/>
</g>
<!-- steps -->
<g id="node40" class="node">
<title>steps</title>
<ellipse fill="none" stroke="#000000" cx="2220.1957" cy="-18" rx="27.589" ry="18"/>
<text text-anchor="middle" x="2220.1957" y="-13.8" font-family="Times,serif" font-size="14.00" fill="#000000">steps</text>
</g>
<!-- nummod&#45;&#45;steps -->
<g id="edge32" class="edge">
<title>nummod&#45;&#45;steps</title>
<path fill="none" stroke="#000000" d="M1805.8563,-89.0734C1882.236,-86.407 2049.1516,-76.0698 2183.1957,-36 2188.3973,-34.4451 2193.7714,-32.227 2198.7572,-29.8765"/>
</g>
<!-- question -->
<g id="node41" class="node">
<title>question</title>
<ellipse fill="none" stroke="#000000" cx="2306.1957" cy="-18" rx="40.149" ry="18"/>
<text text-anchor="middle" x="2306.1957" y="-13.8" font-family="Times,serif" font-size="14.00" fill="#000000">question</text>
</g>
<!-- nummod&#45;&#45;question -->
<g id="edge33" class="edge">
<title>nummod&#45;&#45;question</title>
<path fill="none" stroke="#000000" d="M1805.6704,-88.8472C1891.1952,-85.7323 2092.9015,-74.5674 2257.1957,-36 2263.5482,-34.5088 2270.2034,-32.4325 2276.4885,-30.2183"/>
</g>
<!-- message -->
<g id="node42" class="node">
<title>message</title>
<ellipse fill="none" stroke="#000000" cx="2404.1957" cy="-18" rx="40.1317" ry="18"/>
<text text-anchor="middle" x="2404.1957" y="-13.8" font-family="Times,serif" font-size="14.00" fill="#000000">message</text>
</g>
<!-- nummod&#45;&#45;message -->
<g id="edge34" class="edge">
<title>nummod&#45;&#45;message</title>
<path fill="none" stroke="#000000" d="M1805.6039,-87.6254C1921.9314,-80.7309 2250.0344,-59.6907 2355.1957,-36 2361.5614,-34.5659 2368.2223,-32.5147 2374.5089,-30.3069"/>
</g>
<!-- agents -->
<g id="node44" class="node">
<title>agents</title>
<ellipse fill="none" stroke="#000000" cx="2495.1957" cy="-18" rx="32.8994" ry="18"/>
<text text-anchor="middle" x="2495.1957" y="-13.8" font-family="Times,serif" font-size="14.00" fill="#000000">agents</text>
</g>
<!-- nummod&#45;&#45;agents -->
<g id="edge35" class="edge">
<title>nummod&#45;&#45;agents</title>
<path fill="none" stroke="#000000" d="M1805.9365,-88.5112C1935.4623,-83.6115 2329.2673,-66.5314 2453.1957,-36 2459.0498,-34.5578 2465.1297,-32.3854 2470.7854,-30.0436"/>
</g>
<!-- sets -->
<g id="node45" class="node">
<title>sets</title>
<ellipse fill="none" stroke="#000000" cx="2573.1957" cy="-18" rx="27" ry="18"/>
<text text-anchor="middle" x="2573.1957" y="-13.8" font-family="Times,serif" font-size="14.00" fill="#000000">sets</text>
</g>
<!-- nummod&#45;&#45;sets -->
<g id="edge36" class="edge">
<title>nummod&#45;&#45;sets</title>
<path fill="none" stroke="#000000" d="M1806.1026,-89.2314C1946.2366,-86.3247 2397.5281,-74.1578 2537.1957,-36 2542.4534,-34.5636 2547.8493,-32.3314 2552.811,-29.9218"/>
</g>
<!-- stores -->
<g id="node46" class="node">
<title>stores</title>
<ellipse fill="none" stroke="#000000" cx="2649.1957" cy="-18" rx="30.9793" ry="18"/>
<text text-anchor="middle" x="2649.1957" y="-13.8" font-family="Times,serif" font-size="14.00" fill="#000000">stores</text>
</g>
<!-- nummod&#45;&#45;stores -->
<g id="edge37" class="edge">
<title>nummod&#45;&#45;stores</title>
<path fill="none" stroke="#000000" d="M1805.7642,-89.3073C1953.7293,-86.5368 2454.2205,-74.4735 2609.1957,-36 2614.8127,-34.6055 2620.62,-32.4526 2626.0096,-30.1145"/>
</g>
<!-- PlayStations -->
<g id="node47" class="node">
<title>PlayStations</title>
<ellipse fill="none" stroke="#000000" cx="2752.1957" cy="-18" rx="54.1575" ry="18"/>
<text text-anchor="middle" x="2752.1957" y="-13.8" font-family="Times,serif" font-size="14.00" fill="#000000">PlayStations</text>
</g>
<!-- nummod&#45;&#45;PlayStations -->
<g id="edge38" class="edge">
<title>nummod&#45;&#45;PlayStations</title>
<path fill="none" stroke="#000000" d="M1805.6953,-88.7911C1962.0583,-84.0479 2515.5389,-65.5066 2689.1957,-36 2697.0458,-34.6662 2705.3133,-32.7159 2713.1829,-30.5862"/>
</g>
<!-- Americans -->
<g id="node48" class="node">
<title>Americans</title>
<ellipse fill="none" stroke="#000000" cx="2873.1957" cy="-18" rx="48.3255" ry="18"/>
<text text-anchor="middle" x="2873.1957" y="-13.8" font-family="Times,serif" font-size="14.00" fill="#000000">Americans</text>
</g>
<!-- nummod&#45;&#45;Americans -->
<g id="edge39" class="edge">
<title>nummod&#45;&#45;Americans</title>
<path fill="none" stroke="#000000" d="M1805.7475,-89.2484C1975.4136,-85.9658 2616.0916,-71.4348 2815.1957,-36 2822.6694,-34.6699 2830.527,-32.6642 2837.9614,-30.468"/>
</g>
<!-- part -->
<g id="node49" class="node">
<title>part</title>
<ellipse fill="none" stroke="#000000" cx="2966.1957" cy="-18" rx="27" ry="18"/>
<text text-anchor="middle" x="2966.1957" y="-13.8" font-family="Times,serif" font-size="14.00" fill="#000000">part</text>
</g>
<!-- nummod&#45;&#45;part -->
<g id="edge40" class="edge">
<title>nummod&#45;&#45;part</title>
<path fill="none" stroke="#000000" d="M1805.844,-89.0956C2000.9574,-84.7207 2819.7689,-64.7812 2930.1957,-36 2935.4699,-34.6254 2940.8722,-32.4174 2945.8349,-30.0115"/>
</g>
<!-- churches -->
<g id="node50" class="node">
<title>churches</title>
<ellipse fill="none" stroke="#000000" cx="3053.1957" cy="-18" rx="41.5679" ry="18"/>
<text text-anchor="middle" x="3053.1957" y="-13.8" font-family="Times,serif" font-size="14.00" fill="#000000">churches</text>
</g>
<!-- nummod&#45;&#45;churches -->
<g id="edge41" class="edge">
<title>nummod&#45;&#45;churches</title>
<path fill="none" stroke="#000000" d="M1805.987,-89.8305C1994.3546,-88.8132 2765.5145,-81.8725 3002.1957,-36 3009.017,-34.6779 3016.1561,-32.6162 3022.8594,-30.3528"/>
</g>
<!-- times -->
<g id="node51" class="node">
<title>times</title>
<ellipse fill="none" stroke="#000000" cx="3142.1957" cy="-18" rx="29.0343" ry="18"/>
<text text-anchor="middle" x="3142.1957" y="-13.8" font-family="Times,serif" font-size="14.00" fill="#000000">times</text>
</g>
<!-- nummod&#45;&#45;times -->
<g id="edge42" class="edge">
<title>nummod&#45;&#45;times</title>
<path fill="none" stroke="#000000" d="M1805.8903,-89.3119C2018.3701,-85.6725 2975.6829,-67.6298 3104.1957,-36 3109.5829,-34.6741 3115.1205,-32.549 3120.2445,-30.2161"/>
</g>
<!-- children -->
<g id="node52" class="node">
<title>children</title>
<ellipse fill="none" stroke="#000000" cx="3228.1957" cy="-18" rx="39.1627" ry="18"/>
<text text-anchor="middle" x="3228.1957" y="-13.8" font-family="Times,serif" font-size="14.00" fill="#000000">children</text>
</g>
<!-- nummod&#45;&#45;children -->
<g id="edge43" class="edge">
<title>nummod&#45;&#45;children</title>
<path fill="none" stroke="#000000" d="M1806.0127,-89.2025C2025.8196,-84.9041 3042.6455,-63.66 3180.1957,-36 3186.6524,-34.7016 3193.3871,-32.6498 3199.6996,-30.3887"/>
</g>
<!-- missiles -->
<g id="node54" class="node">
<title>missiles</title>
<ellipse fill="none" stroke="#000000" cx="3324.1957" cy="-18" rx="38.7128" ry="18"/>
<text text-anchor="middle" x="3324.1957" y="-13.8" font-family="Times,serif" font-size="14.00" fill="#000000">missiles</text>
</g>
<!-- nummod&#45;&#45;missiles -->
<g id="edge44" class="edge">
<title>nummod&#45;&#45;missiles</title>
<path fill="none" stroke="#000000" d="M1805.8096,-89.3144C2034.015,-85.4477 3128.6536,-65.4838 3276.1957,-36 3282.7413,-34.692 3289.5714,-32.6054 3295.9576,-30.3088"/>
</g>
<!-- parents -->
<g id="node57" class="node">
<title>parents</title>
<ellipse fill="none" stroke="#000000" cx="3416.1957" cy="-18" rx="35.7887" ry="18"/>
<text text-anchor="middle" x="3416.1957" y="-13.8" font-family="Times,serif" font-size="14.00" fill="#000000">parents</text>
</g>
<!-- nummod&#45;&#45;parents -->
<g id="edge45" class="edge">
<title>nummod&#45;&#45;parents</title>
<path fill="none" stroke="#000000" d="M1806.1125,-89.4778C2043.6077,-86.401 3215.2299,-69.611 3372.1957,-36 3378.1678,-34.7212 3384.3638,-32.6777 3390.1553,-30.4184"/>
</g>
<!-- are -->
<g id="node9" class="node">
<title>are</title>
<ellipse fill="none" stroke="#000000" cx="3497.1957" cy="-18" rx="27" ry="18"/>
<text text-anchor="middle" x="3497.1957" y="-13.8" font-family="Times,serif" font-size="14.00" fill="#000000">are</text>
</g>
<!-- attribute&#45;&#45;are -->
<g id="edge46" class="edge">
<title>attribute&#45;&#45;are</title>
<path fill="none" stroke="#000000" d="M3552.4965,-73.3008C3540.3662,-61.1705 3524.0851,-44.8894 3512.3331,-33.1374"/>
</g>
<!-- is -->
<g id="node30" class="node">
<title>is</title>
<ellipse fill="none" stroke="#000000" cx="3569.1957" cy="-18" rx="27" ry="18"/>
<text text-anchor="middle" x="3569.1957" y="-13.8" font-family="Times,serif" font-size="14.00" fill="#000000">is</text>
</g>
<!-- attribute&#45;&#45;is -->
<g id="edge47" class="edge">
<title>attribute&#45;&#45;is</title>
<path fill="none" stroke="#000000" d="M3569.1957,-71.8314C3569.1957,-61 3569.1957,-47.2876 3569.1957,-36.4133"/>
</g>
<!-- presumed -->
<g id="node16" class="node">
<title>presumed</title>
<ellipse fill="none" stroke="#000000" cx="3658.1957" cy="-18" rx="44.475" ry="18"/>
<text text-anchor="middle" x="3658.1957" y="-13.8" font-family="Times,serif" font-size="14.00" fill="#000000">presumed</text>
</g>
<!-- nominal subject&#45;&#45;presumed -->
<g id="edge48" class="edge">
<title>nominal subject&#45;&#45;presumed</title>
<path fill="none" stroke="#000000" d="M3732.208,-72.937C3716.2973,-61.1269 3695.2655,-45.5158 3679.6893,-33.954"/>
</g>
<!-- calling -->
<g id="node29" class="node">
<title>calling</title>
<ellipse fill="none" stroke="#000000" cx="3755.1957" cy="-18" rx="34.344" ry="18"/>
<text text-anchor="middle" x="3755.1957" y="-13.8" font-family="Times,serif" font-size="14.00" fill="#000000">calling</text>
</g>
<!-- nominal subject&#45;&#45;calling -->
<g id="edge49" class="edge">
<title>nominal subject&#45;&#45;calling</title>
<path fill="none" stroke="#000000" d="M3755.1957,-71.8314C3755.1957,-61 3755.1957,-47.2876 3755.1957,-36.4133"/>
</g>
<!-- nominal subject&#45;&#45;is -->
<g id="edge50" class="edge">
<title>nominal subject&#45;&#45;is</title>
<path fill="none" stroke="#000000" d="M3712.6526,-76.1815C3682.3374,-65.9735 3640.816,-51.2536 3605.1957,-36 3600.4423,-33.9645 3595.4289,-31.6017 3590.703,-29.2709"/>
</g>
<!-- rushed -->
<g id="node43" class="node">
<title>rushed</title>
<ellipse fill="none" stroke="#000000" cx="3841.1957" cy="-18" rx="33.8683" ry="18"/>
<text text-anchor="middle" x="3841.1957" y="-13.8" font-family="Times,serif" font-size="14.00" fill="#000000">rushed</text>
</g>
<!-- nominal subject&#45;&#45;rushed -->
<g id="edge51" class="edge">
<title>nominal subject&#45;&#45;rushed</title>
<path fill="none" stroke="#000000" d="M3776.0139,-72.5708C3790.3306,-60.5847 3809.1649,-44.8164 3822.9047,-33.3134"/>
</g>
<!-- relived -->
<g id="node20" class="node">
<title>relived</title>
<ellipse fill="none" stroke="#000000" cx="3927.1957" cy="-18" rx="34.8198" ry="18"/>
<text text-anchor="middle" x="3927.1957" y="-13.8" font-family="Times,serif" font-size="14.00" fill="#000000">relived</text>
</g>
<!-- head of prep phrase&#45;&#45;relived -->
<g id="edge52" class="edge">
<title>head of prep phrase&#45;&#45;relived</title>
<path fill="none" stroke="#000000" d="M4027.8124,-73.3008C4004.5327,-60.5058 3972.8505,-43.0927 3951.2994,-31.2478"/>
</g>
<!-- voices -->
<g id="node31" class="node">
<title>voices</title>
<ellipse fill="none" stroke="#000000" cx="4012.1957" cy="-18" rx="32.8994" ry="18"/>
<text text-anchor="middle" x="4012.1957" y="-13.8" font-family="Times,serif" font-size="14.00" fill="#000000">voices</text>
</g>
<!-- head of prep phrase&#45;&#45;voices -->
<g id="edge53" class="edge">
<title>head of prep phrase&#45;&#45;voices</title>
<path fill="none" stroke="#000000" d="M4046.588,-71.8314C4039.455,-60.6667 4030.3663,-46.441 4023.3237,-35.4177"/>
</g>
<!-- known -->
<g id="node37" class="node">
<title>known</title>
<ellipse fill="none" stroke="#000000" cx="4097.1957" cy="-18" rx="34.3614" ry="18"/>
<text text-anchor="middle" x="4097.1957" y="-13.8" font-family="Times,serif" font-size="14.00" fill="#000000">known</text>
</g>
<!-- head of prep phrase&#45;&#45;known -->
<g id="edge54" class="edge">
<title>head of prep phrase&#45;&#45;known</title>
<path fill="none" stroke="#000000" d="M4068.037,-71.8314C4074.0845,-60.6667 4081.7901,-46.441 4087.7611,-35.4177"/>
</g>
<!-- ended -->
<g id="node53" class="node">
<title>ended</title>
<ellipse fill="none" stroke="#000000" cx="4180.1957" cy="-18" rx="31.4462" ry="18"/>
<text text-anchor="middle" x="4180.1957" y="-13.8" font-family="Times,serif" font-size="14.00" fill="#000000">ended</text>
</g>
<!-- head of prep phrase&#45;&#45;ended -->
<g id="edge55" class="edge">
<title>head of prep phrase&#45;&#45;ended</title>
<path fill="none" stroke="#000000" d="M4086.7993,-73.1192C4108.6322,-60.2342 4138.2652,-42.7458 4158.2491,-30.9521"/>
</g>
<!-- bilking -->
<g id="node23" class="node">
<title>bilking</title>
<ellipse fill="none" stroke="#000000" cx="4264.1957" cy="-18" rx="35.3303" ry="18"/>
<text text-anchor="middle" x="4264.1957" y="-13.8" font-family="Times,serif" font-size="14.00" fill="#000000">bilking</text>
</g>
<!-- direct object&#45;&#45;bilking -->
<g id="edge56" class="edge">
<title>direct object&#45;&#45;bilking</title>
<path fill="none" stroke="#000000" d="M4223.544,-72.2022C4232.0392,-60.8753 4242.9812,-46.2859 4251.3728,-35.0972"/>
</g>
<!-- population -->
<g id="node34" class="node">
<title>population</title>
<ellipse fill="none" stroke="#000000" cx="4365.1957" cy="-18" rx="47.8668" ry="18"/>
<text text-anchor="middle" x="4365.1957" y="-13.8" font-family="Times,serif" font-size="14.00" fill="#000000">population</text>
</g>
<!-- predet&#45;&#45;population -->
<g id="edge57" class="edge">
<title>predet&#45;&#45;population</title>
<path fill="none" stroke="#000000" d="M4326.282,-72.937C4334.294,-61.626 4344.7757,-46.8282 4352.8419,-35.4407"/>
</g>
<!-- One -->
<g id="node56" class="node">
<title>One</title>
<ellipse fill="none" stroke="#000000" cx="4458.1957" cy="-18" rx="27" ry="18"/>
<text text-anchor="middle" x="4458.1957" y="-13.8" font-family="Times,serif" font-size="14.00" fill="#000000">One</text>
</g>
<!-- ROOT&#45;&#45;One -->
<g id="edge58" class="edge">
<title>ROOT&#45;&#45;One</title>
<path fill="none" stroke="#000000" d="M4412.1117,-73.3008C4421.9433,-61.5028 4435.047,-45.7784 4444.7679,-34.1134"/>
</g>
<!-- targeted -->
<g id="node59" class="node">
<title>targeted</title>
<ellipse fill="none" stroke="#000000" cx="4580.1957" cy="-18" rx="38.3586" ry="18"/>
<text text-anchor="middle" x="4580.1957" y="-13.8" font-family="Times,serif" font-size="14.00" fill="#000000">targeted</text>
</g>
<!-- noun phrase as adverbial modifier&#45;&#45;targeted -->
<g id="edge59" class="edge">
<title>noun phrase as adverbial modifier&#45;&#45;targeted</title>
<path fill="none" stroke="#000000" d="M4580.1957,-71.8314C4580.1957,-61 4580.1957,-47.2876 4580.1957,-36.4133"/>
</g>
</g>
</svg>
