<?xml version="1.0" encoding="UTF-8" standalone="no"?>
<!DOCTYPE svg PUBLIC "-//W3C//DTD SVG 1.1//EN"
 "http://www.w3.org/Graphics/SVG/1.1/DTD/svg11.dtd">
<!-- Generated by graphviz version 2.40.1 (20161225.0304)
 -->
<!-- Title: %3 Pages: 1 -->
<svg width="821pt" height="861pt"
 viewBox="0.00 0.00 821.16 860.90" xmlns="http://www.w3.org/2000/svg" xmlns:xlink="http://www.w3.org/1999/xlink">
<g id="graph0" class="graph" transform="scale(1 1) rotate(0) translate(4 856.9002)">
<title>%3</title>
<polygon fill="#ffffff" stroke="transparent" points="-4,4 -4,-856.9002 817.1594,-856.9002 817.1594,4 -4,4"/>
<!-- EVENT -->
<g id="node1" class="node">
<title>EVENT</title>
<ellipse fill="none" stroke="#000000" cx="419.6702" cy="-411.8921" rx="39.1713" ry="18"/>
<text text-anchor="middle" x="419.6702" y="-407.6921" font-family="Times,serif" font-size="14.00" fill="#000000">EVENT</text>
<text text-anchor="middle" x="377.0846" y="-432.6921" font-family="Times,serif" font-size="14.00" fill="#000000">4</text>
</g>
<!-- head g1 nominal subject -->
<g id="node2" class="node">
<title>head g1 nominal subject</title>
<ellipse fill="none" stroke="#000000" cx="455.2758" cy="-271.6666" rx="96.1184" ry="18"/>
<text text-anchor="middle" x="455.2758" y="-267.4666" font-family="Times,serif" font-size="14.00" fill="#000000">head g1 nominal subject</text>
</g>
<!-- EVENT&#45;&gt;head g1 nominal subject -->
<g id="edge1" class="edge">
<title>EVENT&#45;&gt;head g1 nominal subject</title>
<path fill="none" stroke="#000000" d="M424.2521,-393.8471C430.281,-370.1033 440.9443,-328.1081 448.0614,-300.079"/>
<polygon fill="#000000" stroke="#000000" points="451.5296,-300.6414 450.5984,-290.0875 444.7449,-298.9186 451.5296,-300.6414"/>
<text text-anchor="middle" x="424.2565" y="-344.5895" font-family="Times,serif" font-size="14.00" fill="#000000">head</text>
</g>
<!-- child g1 determiner -->
<g id="node4" class="node">
<title>child g1 determiner</title>
<ellipse fill="none" stroke="#000000" cx="537.231" cy="-596.9699" rx="79.2126" ry="18"/>
<text text-anchor="middle" x="537.231" y="-592.7699" font-family="Times,serif" font-size="14.00" fill="#000000">child g1 determiner</text>
</g>
<!-- EVENT&#45;&gt;child g1 determiner -->
<g id="edge2" class="edge">
<title>EVENT&#45;&gt;child g1 determiner</title>
<path fill="none" stroke="#000000" d="M431.7297,-429.1598C449.0468,-454.1512 481.7066,-502.0197 507.458,-544.0727 512.4961,-552.3001 517.7383,-561.4078 522.3944,-569.714"/>
<polygon fill="#000000" stroke="#000000" points="519.4472,-571.6164 527.3601,-578.6618 525.5679,-568.2196 519.4472,-571.6164"/>
<text text-anchor="middle" x="467.3208" y="-505.6153" font-family="Times,serif" font-size="14.00" fill="#000000">child</text>
</g>
<!-- child g1 compound -->
<g id="node6" class="node">
<title>child g1 compound</title>
<ellipse fill="none" stroke="#000000" cx="260.8202" cy="-307.5053" rx="78.278" ry="18"/>
<text text-anchor="middle" x="260.8202" y="-303.3053" font-family="Times,serif" font-size="14.00" fill="#000000">child g1 compound</text>
</g>
<!-- EVENT&#45;&gt;child g1 compound -->
<g id="edge3" class="edge">
<title>EVENT&#45;&gt;child g1 compound</title>
<path fill="none" stroke="#000000" d="M396.9108,-396.936C370.3635,-379.4907 326.1927,-350.4642 295.3995,-330.2287"/>
<polygon fill="#000000" stroke="#000000" points="296.9805,-327.0797 286.7013,-324.5128 293.1362,-332.9296 296.9805,-327.0797"/>
<text text-anchor="middle" x="327.7616" y="-363.4929" font-family="Times,serif" font-size="14.00" fill="#000000">child</text>
</g>
<!-- head g1 head of prep phrase -->
<g id="node13" class="node">
<title>head g1 head of prep phrase</title>
<ellipse fill="none" stroke="#000000" cx="389.1425" cy="-543.9803" rx="109.6053" ry="18"/>
<text text-anchor="middle" x="389.1425" y="-539.7803" font-family="Times,serif" font-size="14.00" fill="#000000">head g1 head of prep phrase</text>
</g>
<!-- EVENT&#45;&gt;head g1 head of prep phrase -->
<g id="edge4" class="edge">
<title>EVENT&#45;&gt;head g1 head of prep phrase</title>
<path fill="none" stroke="#000000" d="M415.4894,-429.9814C410.38,-452.0889 401.6759,-489.7501 395.6788,-515.6986"/>
<polygon fill="#000000" stroke="#000000" points="392.2124,-515.1542 393.3707,-525.6856 399.0327,-516.7306 392.2124,-515.1542"/>
<text text-anchor="middle" x="391.195" y="-480.7249" font-family="Times,serif" font-size="14.00" fill="#000000">head</text>
</g>
<!-- child g1 adjectival modifier -->
<g id="node15" class="node">
<title>child g1 adjectival modifier</title>
<ellipse fill="none" stroke="#000000" cx="586.3823" cy="-415.8757" rx="107.7104" ry="18"/>
<text text-anchor="middle" x="586.3823" y="-411.6757" font-family="Times,serif" font-size="14.00" fill="#000000">child g1 adjectival modifier</text>
</g>
<!-- EVENT&#45;&gt;child g1 adjectival modifier -->
<g id="edge5" class="edge">
<title>EVENT&#45;&gt;child g1 adjectival modifier</title>
<path fill="none" stroke="#000000" d="M458.7568,-412.8261C462.2334,-412.9091 465.8549,-412.9957 469.5833,-413.0848"/>
<polygon fill="#000000" stroke="#000000" points="469.5959,-416.586 479.6767,-413.3259 469.7632,-409.588 469.5959,-416.586"/>
<text text-anchor="middle" x="468.8855" y="-401.8681" font-family="Times,serif" font-size="14.00" fill="#000000">child</text>
</g>
<!-- head g1 object predicate -->
<g id="node20" class="node">
<title>head g1 object predicate</title>
<ellipse fill="none" stroke="#000000" cx="239.4199" cy="-458.4208" rx="96.0753" ry="18"/>
<text text-anchor="middle" x="239.4199" y="-454.2208" font-family="Times,serif" font-size="14.00" fill="#000000">head g1 object predicate</text>
</g>
<!-- EVENT&#45;&gt;head g1 object predicate -->
<g id="edge6" class="edge">
<title>EVENT&#45;&gt;head g1 object predicate</title>
<path fill="none" stroke="#000000" d="M385.3422,-420.7533C362.872,-426.5536 332.7728,-434.3233 305.7484,-441.2992"/>
<polygon fill="#000000" stroke="#000000" points="304.7587,-437.9399 295.9509,-443.8283 306.5084,-444.7177 304.7587,-437.9399"/>
<text text-anchor="middle" x="327.5753" y="-421.054" font-family="Times,serif" font-size="14.00" fill="#000000">head</text>
</g>
<!-- headleaf ended -->
<g id="node3" class="node">
<title>headleaf ended</title>
<ellipse fill="none" stroke="#000000" cx="317.3543" cy="-177.7612" rx="63.2586" ry="18"/>
<text text-anchor="middle" x="317.3543" y="-173.5612" font-family="Times,serif" font-size="14.00" fill="#000000">headleaf ended</text>
</g>
<!-- head g1 nominal subject&#45;&gt;headleaf ended -->
<g id="edge7" class="edge">
<title>head g1 nominal subject&#45;&gt;headleaf ended</title>
<path fill="none" stroke="#000000" d="M429.6571,-254.2238C407.3162,-239.0127 374.7693,-216.8528 350.4586,-200.3006"/>
<polygon fill="#000000" stroke="#000000" points="352.1446,-197.2143 341.9088,-194.4794 348.205,-203.0005 352.1446,-197.2143"/>
</g>
<!-- headleaf beginning -->
<g id="node10" class="node">
<title>headleaf beginning</title>
<ellipse fill="none" stroke="#000000" cx="600.6654" cy="-220.5128" rx="77.7667" ry="18"/>
<text text-anchor="middle" x="600.6654" y="-216.3128" font-family="Times,serif" font-size="14.00" fill="#000000">headleaf beginning</text>
</g>
<!-- head g1 nominal subject&#45;&gt;headleaf beginning -->
<g id="edge8" class="edge">
<title>head g1 nominal subject&#45;&gt;headleaf beginning</title>
<path fill="none" stroke="#000000" d="M500.481,-255.7616C515.5298,-250.4668 532.4218,-244.5236 547.9861,-239.0474"/>
<polygon fill="#000000" stroke="#000000" points="549.2058,-242.3287 557.4773,-235.708 546.8824,-235.7255 549.2058,-242.3287"/>
</g>
<!-- head g2 adverbial clause modifier -->
<g id="node8" class="node">
<title>head g2 adverbial clause modifier</title>
<ellipse fill="none" stroke="#000000" cx="507.0504" cy="-45.8671" rx="129.4009" ry="18"/>
<text text-anchor="middle" x="507.0504" y="-41.6671" font-family="Times,serif" font-size="14.00" fill="#000000">head g2 adverbial clause modifier</text>
</g>
<!-- headleaf ended&#45;&gt;head g2 adverbial clause modifier -->
<g id="edge9" class="edge">
<title>headleaf ended&#45;&gt;head g2 adverbial clause modifier</title>
<path fill="none" stroke="#000000" d="M341.3795,-161.0567C374.6064,-137.9543 434.7744,-96.12 472.7305,-69.7295"/>
<polygon fill="#000000" stroke="#000000" points="475.1931,-72.2801 481.4055,-63.6978 471.197,-66.5328 475.1931,-72.2801"/>
<text text-anchor="middle" x="398.2489" y="-115.1284" font-family="Times,serif" font-size="14.00" fill="#000000">head</text>
</g>
<!-- childleaf the -->
<g id="node5" class="node">
<title>childleaf the</title>
<ellipse fill="none" stroke="#000000" cx="698.043" cy="-801.0164" rx="54.1129" ry="18"/>
<text text-anchor="middle" x="698.043" y="-796.8164" font-family="Times,serif" font-size="14.00" fill="#000000">childleaf the</text>
</g>
<!-- child g1 determiner&#45;&gt;childleaf the -->
<g id="edge10" class="edge">
<title>child g1 determiner&#45;&gt;childleaf the</title>
<path fill="none" stroke="#000000" d="M551.2207,-614.7208C579.7452,-650.9141 644.7192,-733.3564 677.8323,-775.3721"/>
<polygon fill="#000000" stroke="#000000" points="675.2614,-777.7643 684.2002,-783.4519 680.7592,-773.4314 675.2614,-777.7643"/>
</g>
<!-- childleaf Vietnam -->
<g id="node7" class="node">
<title>childleaf Vietnam</title>
<ellipse fill="none" stroke="#000000" cx="79.3818" cy="-291.9944" rx="73.043" ry="18"/>
<text text-anchor="middle" x="79.3818" y="-287.7944" font-family="Times,serif" font-size="14.00" fill="#000000">childleaf Vietnam</text>
</g>
<!-- child g1 compound&#45;&gt;childleaf Vietnam -->
<g id="edge11" class="edge">
<title>child g1 compound&#45;&gt;childleaf Vietnam</title>
<path fill="none" stroke="#000000" d="M187.2838,-301.2188C177.9058,-300.4171 168.2736,-299.5936 158.8079,-298.7844"/>
<polygon fill="#000000" stroke="#000000" points="158.8838,-295.2782 148.6219,-297.9136 158.2874,-302.2528 158.8838,-295.2782"/>
</g>
<!-- childleaf Fleet -->
<g id="node11" class="node">
<title>childleaf Fleet</title>
<ellipse fill="none" stroke="#000000" cx="99.7411" cy="-58.6603" rx="60.8704" ry="18"/>
<text text-anchor="middle" x="99.7411" y="-54.4603" font-family="Times,serif" font-size="14.00" fill="#000000">childleaf Fleet</text>
</g>
<!-- child g1 compound&#45;&gt;childleaf Fleet -->
<g id="edge12" class="edge">
<title>child g1 compound&#45;&gt;childleaf Fleet</title>
<path fill="none" stroke="#000000" d="M249.2358,-289.609C221.1989,-246.2958 149.5822,-135.6579 116.7056,-84.8681"/>
<polygon fill="#000000" stroke="#000000" points="119.5927,-82.8873 111.2205,-76.3944 113.7164,-86.6911 119.5927,-82.8873"/>
</g>
<!-- headleaf be -->
<g id="node9" class="node">
<title>headleaf be</title>
<ellipse fill="none" stroke="#000000" cx="709.9099" cy="-53.5277" rx="50.7214" ry="18"/>
<text text-anchor="middle" x="709.9099" y="-49.3277" font-family="Times,serif" font-size="14.00" fill="#000000">headleaf be</text>
</g>
<!-- head g2 adverbial clause modifier&#45;&gt;headleaf be -->
<g id="edge13" class="edge">
<title>head g2 adverbial clause modifier&#45;&gt;headleaf be</title>
<path fill="none" stroke="#000000" d="M632.0593,-50.5878C637.8228,-50.8055 643.4788,-51.0191 648.9471,-51.2256"/>
<polygon fill="#000000" stroke="#000000" points="649.0855,-54.7332 659.2105,-51.6131 649.3497,-47.7382 649.0855,-54.7332"/>
</g>
<!-- headleaf go -->
<g id="node12" class="node">
<title>headleaf go</title>
<ellipse fill="none" stroke="#000000" cx="313.9047" cy="-18" rx="51.2146" ry="18"/>
<text text-anchor="middle" x="313.9047" y="-13.8" font-family="Times,serif" font-size="14.00" fill="#000000">headleaf go</text>
</g>
<!-- head g2 adverbial clause modifier&#45;&gt;headleaf go -->
<g id="edge14" class="edge">
<title>head g2 adverbial clause modifier&#45;&gt;headleaf go</title>
<path fill="none" stroke="#000000" d="M416.9805,-32.8718C401.4693,-30.6338 385.7334,-28.3635 371.3831,-26.293"/>
<polygon fill="#000000" stroke="#000000" points="371.5991,-22.788 361.2017,-24.824 370.5994,-29.7163 371.5991,-22.788"/>
</g>
<!-- headleaf beginning&#45;&gt;head g2 adverbial clause modifier -->
<g id="edge15" class="edge">
<title>headleaf beginning&#45;&gt;head g2 adverbial clause modifier</title>
<path fill="none" stroke="#000000" d="M590.9995,-202.4804C574.5322,-171.7594 540.9478,-109.1051 521.6212,-73.0499"/>
<polygon fill="#000000" stroke="#000000" points="524.6131,-71.2231 516.8039,-64.063 518.4436,-74.5302 524.6131,-71.2231"/>
<text text-anchor="middle" x="540.8451" y="-136.3651" font-family="Times,serif" font-size="14.00" fill="#000000">head</text>
</g>
<!-- headleaf images -->
<g id="node14" class="node">
<title>headleaf images</title>
<ellipse fill="none" stroke="#000000" cx="285.0902" cy="-651.0191" rx="67.1265" ry="18"/>
<text text-anchor="middle" x="285.0902" y="-646.8191" font-family="Times,serif" font-size="14.00" fill="#000000">headleaf images</text>
</g>
<!-- head g1 head of prep phrase&#45;&gt;headleaf images -->
<g id="edge16" class="edge">
<title>head g1 head of prep phrase&#45;&gt;headleaf images</title>
<path fill="none" stroke="#000000" d="M371.4914,-562.138C354.395,-579.7251 328.3345,-606.5336 309.3049,-626.1094"/>
<polygon fill="#000000" stroke="#000000" points="306.5965,-623.8742 302.1358,-633.4843 311.6158,-628.7535 306.5965,-623.8742"/>
</g>
<!-- head g2 head of prep phrase -->
<g id="node18" class="node">
<title>head g2 head of prep phrase</title>
<ellipse fill="none" stroke="#000000" cx="495.5698" cy="-795.8061" rx="109.6053" ry="18"/>
<text text-anchor="middle" x="495.5698" y="-791.6061" font-family="Times,serif" font-size="14.00" fill="#000000">head g2 head of prep phrase</text>
</g>
<!-- headleaf images&#45;&gt;head g2 head of prep phrase -->
<g id="edge17" class="edge">
<title>headleaf images&#45;&gt;head g2 head of prep phrase</title>
<path fill="none" stroke="#000000" d="M309.6468,-667.9114C347.1842,-693.733 418.9473,-743.0982 461.4998,-772.3697"/>
<polygon fill="#000000" stroke="#000000" points="459.6354,-775.3353 469.858,-778.1191 463.6027,-769.568 459.6354,-775.3353"/>
<text text-anchor="middle" x="376.3814" y="-725.7072" font-family="Times,serif" font-size="14.00" fill="#000000">head</text>
</g>
<!-- childleaf Lebanese -->
<g id="node16" class="node">
<title>childleaf Lebanese</title>
<ellipse fill="none" stroke="#000000" cx="736.5194" cy="-319.427" rx="76.7804" ry="18"/>
<text text-anchor="middle" x="736.5194" y="-315.227" font-family="Times,serif" font-size="14.00" fill="#000000">childleaf Lebanese</text>
</g>
<!-- child g1 adjectival modifier&#45;&gt;childleaf Lebanese -->
<g id="edge18" class="edge">
<title>child g1 adjectival modifier&#45;&gt;childleaf Lebanese</title>
<path fill="none" stroke="#000000" d="M613.571,-398.4095C638.1692,-382.6075 674.5391,-359.2434 701.3441,-342.0237"/>
<polygon fill="#000000" stroke="#000000" points="703.5151,-344.7891 710.0369,-336.4394 699.7317,-338.8996 703.5151,-344.7891"/>
</g>
<!-- childleaf civil -->
<g id="node17" class="node">
<title>childleaf civil</title>
<ellipse fill="none" stroke="#000000" cx="719.9411" cy="-563.2273" rx="58.9409" ry="18"/>
<text text-anchor="middle" x="719.9411" y="-559.0273" font-family="Times,serif" font-size="14.00" fill="#000000">childleaf civil</text>
</g>
<!-- child g1 adjectival modifier&#45;&gt;childleaf civil -->
<g id="edge19" class="edge">
<title>child g1 adjectival modifier&#45;&gt;childleaf civil</title>
<path fill="none" stroke="#000000" d="M602.7593,-433.9439C626.4179,-460.0458 670.2553,-508.4104 697.0879,-538.014"/>
<polygon fill="#000000" stroke="#000000" points="694.5383,-540.4127 703.8474,-545.4715 699.7248,-535.7116 694.5383,-540.4127"/>
</g>
<!-- headleaf one -->
<g id="node19" class="node">
<title>headleaf one</title>
<ellipse fill="none" stroke="#000000" cx="303.9329" cy="-834.9002" rx="55.0647" ry="18"/>
<text text-anchor="middle" x="303.9329" y="-830.7002" font-family="Times,serif" font-size="14.00" fill="#000000">headleaf one</text>
</g>
<!-- head g2 head of prep phrase&#45;&gt;headleaf one -->
<g id="edge20" class="edge">
<title>head g2 head of prep phrase&#45;&gt;headleaf one</title>
<path fill="none" stroke="#000000" d="M426.6552,-809.8647C404.9845,-814.2856 381.3159,-819.114 360.5971,-823.3406"/>
<polygon fill="#000000" stroke="#000000" points="359.7833,-819.9345 350.6847,-825.3628 361.1825,-826.7932 359.7833,-819.9345"/>
</g>
<!-- headleaf designated -->
<g id="node21" class="node">
<title>headleaf designated</title>
<ellipse fill="none" stroke="#000000" cx="80.0816" cy="-536.3139" rx="80.1633" ry="18"/>
<text text-anchor="middle" x="80.0816" y="-532.1139" font-family="Times,serif" font-size="14.00" fill="#000000">headleaf designated</text>
</g>
<!-- head g1 object predicate&#45;&gt;headleaf designated -->
<g id="edge21" class="edge">
<title>head g1 object predicate&#45;&gt;headleaf designated</title>
<path fill="none" stroke="#000000" d="M204.8459,-475.3225C180.7982,-487.0783 148.5771,-502.8297 122.9034,-515.3803"/>
<polygon fill="#000000" stroke="#000000" points="121.215,-512.3098 113.7682,-519.8461 124.2893,-518.5986 121.215,-512.3098"/>
</g>
<!-- head g2 ROOT -->
<g id="node22" class="node">
<title>head g2 ROOT</title>
<ellipse fill="none" stroke="#000000" cx="91.478" cy="-786.7076" rx="64.2787" ry="18"/>
<text text-anchor="middle" x="91.478" y="-782.5076" font-family="Times,serif" font-size="14.00" fill="#000000">head g2 ROOT</text>
</g>
<!-- headleaf designated&#45;&gt;head g2 ROOT -->
<g id="edge22" class="edge">
<title>headleaf designated&#45;&gt;head g2 ROOT</title>
<path fill="none" stroke="#000000" d="M80.9012,-554.3216C82.8595,-597.3485 87.823,-706.402 90.1875,-758.3521"/>
<polygon fill="#000000" stroke="#000000" points="86.6994,-758.6961 90.6506,-768.5266 93.6922,-758.3778 86.6994,-758.6961"/>
<text text-anchor="middle" x="72.5544" y="-664.057" font-family="Times,serif" font-size="14.00" fill="#000000">head</text>
</g>
<!-- head g2 ROOT&#45;&gt;headleaf designated -->
<g id="edge23" class="edge">
<title>head g2 ROOT&#45;&gt;headleaf designated</title>
<path fill="none" stroke="#000000" d="M90.6584,-768.6999C88.7001,-725.673 83.7366,-616.6195 81.3722,-564.6694"/>
<polygon fill="#000000" stroke="#000000" points="84.8602,-564.3254 80.9091,-554.4949 77.8675,-564.6437 84.8602,-564.3254"/>
</g>
</g>
</svg>
