<?xml version="1.0" encoding="UTF-8" standalone="no"?>
<!DOCTYPE svg PUBLIC "-//W3C//DTD SVG 1.1//EN"
 "http://www.w3.org/Graphics/SVG/1.1/DTD/svg11.dtd">
<!-- Generated by graphviz version 2.40.1 (20161225.0304)
 -->
<!-- Title: %3 Pages: 1 -->
<svg width="496pt" height="188pt"
 viewBox="0.00 0.00 495.55 188.00" xmlns="http://www.w3.org/2000/svg" xmlns:xlink="http://www.w3.org/1999/xlink">
<g id="graph0" class="graph" transform="scale(1 1) rotate(0) translate(4 184)">
<title>%3</title>
<polygon fill="#ffffff" stroke="transparent" points="-4,4 -4,-184 491.5508,-184 491.5508,4 -4,4"/>
<!-- EVENT -->
<g id="node1" class="node">
<title>EVENT</title>
<ellipse fill="none" stroke="#000000" cx="257.2223" cy="-162" rx="39.1713" ry="18"/>
<text text-anchor="middle" x="257.2223" y="-157.8" font-family="Times,serif" font-size="14.00" fill="#000000">EVENT</text>
</g>
<!-- nominal subject -->
<g id="node2" class="node">
<title>nominal subject</title>
<ellipse fill="none" stroke="#000000" cx="93.2223" cy="-90" rx="66.2004" ry="18"/>
<text text-anchor="middle" x="93.2223" y="-85.8" font-family="Times,serif" font-size="14.00" fill="#000000">nominal subject</text>
</g>
<!-- EVENT&#45;&#45;nominal subject -->
<g id="edge1" class="edge">
<title>EVENT&#45;&#45;nominal subject</title>
<path fill="none" stroke="#000000" d="M228.6557,-149.4586C200.7571,-137.2104 158.2425,-118.5455 128.3038,-105.4016"/>
</g>
<!-- head of prep phrase -->
<g id="node5" class="node">
<title>head of prep phrase</title>
<ellipse fill="none" stroke="#000000" cx="257.2223" cy="-90" rx="79.6874" ry="18"/>
<text text-anchor="middle" x="257.2223" y="-85.8" font-family="Times,serif" font-size="14.00" fill="#000000">head of prep phrase</text>
</g>
<!-- EVENT&#45;&#45;head of prep phrase -->
<g id="edge2" class="edge">
<title>EVENT&#45;&#45;head of prep phrase</title>
<path fill="none" stroke="#000000" d="M257.2223,-143.8314C257.2223,-133 257.2223,-119.2876 257.2223,-108.4133"/>
</g>
<!-- object predicate -->
<g id="node7" class="node">
<title>object predicate</title>
<ellipse fill="none" stroke="#000000" cx="421.2223" cy="-90" rx="66.1574" ry="18"/>
<text text-anchor="middle" x="421.2223" y="-85.8" font-family="Times,serif" font-size="14.00" fill="#000000">object predicate</text>
</g>
<!-- EVENT&#45;&#45;object predicate -->
<g id="edge3" class="edge">
<title>EVENT&#45;&#45;object predicate</title>
<path fill="none" stroke="#000000" d="M285.7889,-149.4586C313.6875,-137.2104 356.2021,-118.5455 386.1408,-105.4016"/>
</g>
<!-- ended -->
<g id="node3" class="node">
<title>ended</title>
<ellipse fill="none" stroke="#000000" cx="31.2223" cy="-18" rx="31.4462" ry="18"/>
<text text-anchor="middle" x="31.2223" y="-13.8" font-family="Times,serif" font-size="14.00" fill="#000000">ended</text>
</g>
<!-- nominal subject&#45;&#45;ended -->
<g id="edge4" class="edge">
<title>nominal subject&#45;&#45;ended</title>
<path fill="none" stroke="#000000" d="M77.8965,-72.2022C67.9993,-60.7088 55.2096,-45.8561 45.5218,-34.6058"/>
</g>
<!-- beginning -->
<g id="node4" class="node">
<title>beginning</title>
<ellipse fill="none" stroke="#000000" cx="126.2223" cy="-18" rx="45.4527" ry="18"/>
<text text-anchor="middle" x="126.2223" y="-13.8" font-family="Times,serif" font-size="14.00" fill="#000000">beginning</text>
</g>
<!-- nominal subject&#45;&#45;beginning -->
<g id="edge5" class="edge">
<title>nominal subject&#45;&#45;beginning</title>
<path fill="none" stroke="#000000" d="M101.5496,-71.8314C106.5904,-60.8334 112.9925,-46.865 118.012,-35.9134"/>
</g>
<!-- images -->
<g id="node6" class="node">
<title>images</title>
<ellipse fill="none" stroke="#000000" cx="257.2223" cy="-18" rx="35.3129" ry="18"/>
<text text-anchor="middle" x="257.2223" y="-13.8" font-family="Times,serif" font-size="14.00" fill="#000000">images</text>
</g>
<!-- head of prep phrase&#45;&#45;images -->
<g id="edge6" class="edge">
<title>head of prep phrase&#45;&#45;images</title>
<path fill="none" stroke="#000000" d="M257.2223,-71.8314C257.2223,-61 257.2223,-47.2876 257.2223,-36.4133"/>
</g>
<!-- designated -->
<g id="node8" class="node">
<title>designated</title>
<ellipse fill="none" stroke="#000000" cx="421.2223" cy="-18" rx="47.8496" ry="18"/>
<text text-anchor="middle" x="421.2223" y="-13.8" font-family="Times,serif" font-size="14.00" fill="#000000">designated</text>
</g>
<!-- object predicate&#45;&#45;designated -->
<g id="edge7" class="edge">
<title>object predicate&#45;&#45;designated</title>
<path fill="none" stroke="#000000" d="M421.2223,-71.8314C421.2223,-61 421.2223,-47.2876 421.2223,-36.4133"/>
</g>
</g>
</svg>
