<?xml version="1.0" encoding="UTF-8" standalone="no"?>
<!DOCTYPE svg PUBLIC "-//W3C//DTD SVG 1.1//EN"
 "http://www.w3.org/Graphics/SVG/1.1/DTD/svg11.dtd">
<!-- Generated by graphviz version 2.40.1 (20161225.0304)
 -->
<!-- Title: %3 Pages: 1 -->
<svg width="958pt" height="1430pt"
 viewBox="0.00 0.00 958.20 1429.66" xmlns="http://www.w3.org/2000/svg" xmlns:xlink="http://www.w3.org/1999/xlink">
<g id="graph0" class="graph" transform="scale(1 1) rotate(0) translate(4 1425.6609)">
<title>%3</title>
<polygon fill="#ffffff" stroke="transparent" points="-4,4 -4,-1425.6609 954.1977,-1425.6609 954.1977,4 -4,4"/>
<!-- EVENT -->
<g id="node1" class="node">
<title>EVENT</title>
<ellipse fill="none" stroke="#000000" cx="479.0992" cy="-668.798" rx="39.1713" ry="18"/>
<text text-anchor="middle" x="479.0992" y="-664.598" font-family="Times,serif" font-size="14.00" fill="#000000">EVENT</text>
<text text-anchor="middle" x="436.5136" y="-689.598" font-family="Times,serif" font-size="14.00" fill="#000000">4</text>
</g>
<!-- head g1 nominal subject -->
<g id="node2" class="node">
<title>head g1 nominal subject</title>
<ellipse fill="none" stroke="#000000" cx="571.3116" cy="-450.8225" rx="96.1184" ry="18"/>
<text text-anchor="middle" x="571.3116" y="-446.6225" font-family="Times,serif" font-size="14.00" fill="#000000">head g1 nominal subject</text>
</g>
<!-- EVENT&#45;&gt;head g1 nominal subject -->
<g id="edge1" class="edge">
<title>EVENT&#45;&gt;head g1 nominal subject</title>
<path fill="none" stroke="#000000" d="M486.6453,-650.9602C502.7548,-612.8799 540.5988,-523.4226 559.7609,-478.1266"/>
<polygon fill="#000000" stroke="#000000" points="562.9885,-479.4803 563.6612,-468.9069 556.5416,-476.753 562.9885,-479.4803"/>
<text text-anchor="middle" x="511.937" y="-562.7392" font-family="Times,serif" font-size="14.00" fill="#000000">head</text>
</g>
<!-- child g1 determiner -->
<g id="node4" class="node">
<title>child g1 determiner</title>
<ellipse fill="none" stroke="#000000" cx="658.7993" cy="-1044.9441" rx="79.2126" ry="18"/>
<text text-anchor="middle" x="658.7993" y="-1040.7441" font-family="Times,serif" font-size="14.00" fill="#000000">child g1 determiner</text>
</g>
<!-- EVENT&#45;&gt;child g1 determiner -->
<g id="edge2" class="edge">
<title>EVENT&#45;&gt;child g1 determiner</title>
<path fill="none" stroke="#000000" d="M497.5343,-684.893C531.5327,-715.7874 603.6048,-787.193 636.2079,-864.1274 657.6304,-914.6786 660.3899,-979.789 659.9452,-1016.4869"/>
<polygon fill="#000000" stroke="#000000" points="656.4368,-1016.8433 659.7214,-1026.9161 663.4352,-1016.9935 656.4368,-1016.8433"/>
<text text-anchor="middle" x="650.2065" y="-866.932" font-family="Times,serif" font-size="14.00" fill="#000000">child</text>
</g>
<!-- child g1 compound -->
<g id="node6" class="node">
<title>child g1 compound</title>
<ellipse fill="none" stroke="#000000" cx="305.2577" cy="-611.5993" rx="78.278" ry="18"/>
<text text-anchor="middle" x="305.2577" y="-607.3993" font-family="Times,serif" font-size="14.00" fill="#000000">child g1 compound</text>
</g>
<!-- EVENT&#45;&gt;child g1 compound -->
<g id="edge3" class="edge">
<title>EVENT&#45;&gt;child g1 compound</title>
<path fill="none" stroke="#000000" d="M447.2139,-658.3069C422.8198,-650.2805 388.6012,-639.0216 359.8722,-629.569"/>
<polygon fill="#000000" stroke="#000000" points="360.9548,-626.2407 350.3619,-626.4398 358.767,-632.89 360.9548,-626.2407"/>
<text text-anchor="middle" x="384.7348" y="-645.1548" font-family="Times,serif" font-size="14.00" fill="#000000">child</text>
</g>
<!-- head g1 head of prep phrase -->
<g id="node13" class="node">
<title>head g1 head of prep phrase</title>
<ellipse fill="none" stroke="#000000" cx="517.8924" cy="-864.035" rx="109.6053" ry="18"/>
<text text-anchor="middle" x="517.8924" y="-859.835" font-family="Times,serif" font-size="14.00" fill="#000000">head g1 head of prep phrase</text>
</g>
<!-- EVENT&#45;&gt;head g1 head of prep phrase -->
<g id="edge4" class="edge">
<title>EVENT&#45;&gt;head g1 head of prep phrase</title>
<path fill="none" stroke="#000000" d="M482.6792,-686.8155C489.4604,-720.9437 504.2221,-795.2359 512.313,-835.9554"/>
<polygon fill="#000000" stroke="#000000" points="508.8828,-836.6512 514.2646,-845.7773 515.7486,-835.2869 508.8828,-836.6512"/>
<text text-anchor="middle" x="485.2243" y="-768.9266" font-family="Times,serif" font-size="14.00" fill="#000000">head</text>
</g>
<!-- child g1 adjectival modifier -->
<g id="node15" class="node">
<title>child g1 adjectival modifier</title>
<ellipse fill="none" stroke="#000000" cx="682.1228" cy="-709.3282" rx="107.7104" ry="18"/>
<text text-anchor="middle" x="682.1228" y="-705.1282" font-family="Times,serif" font-size="14.00" fill="#000000">child g1 adjectival modifier</text>
</g>
<!-- EVENT&#45;&gt;child g1 adjectival modifier -->
<g id="edge5" class="edge">
<title>EVENT&#45;&gt;child g1 adjectival modifier</title>
<path fill="none" stroke="#000000" d="M515.3957,-676.044C539.6817,-680.8923 572.6039,-687.4646 602.7787,-693.4885"/>
<polygon fill="#000000" stroke="#000000" points="602.3984,-696.9816 612.8901,-695.5071 603.7688,-690.117 602.3984,-696.9816"/>
<text text-anchor="middle" x="549.9799" y="-688.5423" font-family="Times,serif" font-size="14.00" fill="#000000">child</text>
</g>
<!-- head g1 object predicate -->
<g id="node20" class="node">
<title>head g1 object predicate</title>
<ellipse fill="none" stroke="#000000" cx="299.8162" cy="-854.1212" rx="96.0753" ry="18"/>
<text text-anchor="middle" x="299.8162" y="-849.9212" font-family="Times,serif" font-size="14.00" fill="#000000">head g1 object predicate</text>
</g>
<!-- EVENT&#45;&gt;head g1 object predicate -->
<g id="edge6" class="edge">
<title>EVENT&#45;&gt;head g1 object predicate</title>
<path fill="none" stroke="#000000" d="M463.189,-685.2442C431.6951,-717.7992 361.2427,-790.6252 323.9842,-829.139"/>
<polygon fill="#000000" stroke="#000000" points="321.4339,-826.7414 316.9964,-836.3622 326.465,-831.6085 321.4339,-826.7414"/>
<text text-anchor="middle" x="376.9988" y="-763.4792" font-family="Times,serif" font-size="14.00" fill="#000000">head</text>
</g>
<!-- ended -->
<g id="node3" class="node">
<title>ended</title>
<ellipse fill="none" stroke="#000000" cx="351.1246" cy="-357.6398" rx="31.4462" ry="18"/>
<text text-anchor="middle" x="351.1246" y="-353.4398" font-family="Times,serif" font-size="14.00" fill="#000000">ended</text>
</g>
<!-- head g1 nominal subject&#45;&gt;ended -->
<g id="edge7" class="edge">
<title>head g1 nominal subject&#45;&gt;ended</title>
<path fill="none" stroke="#000000" d="M532.2003,-434.2707C490.6436,-416.684 425.5647,-389.1427 385.7877,-372.3092"/>
<polygon fill="#000000" stroke="#000000" points="387.0654,-369.0494 376.492,-368.3752 384.3372,-375.4959 387.0654,-369.0494"/>
</g>
<!-- beginning -->
<g id="node10" class="node">
<title>beginning</title>
<ellipse fill="none" stroke="#000000" cx="837.0365" cy="-369.876" rx="45.4527" ry="18"/>
<text text-anchor="middle" x="837.0365" y="-365.676" font-family="Times,serif" font-size="14.00" fill="#000000">beginning</text>
</g>
<!-- head g1 nominal subject&#45;&gt;beginning -->
<g id="edge8" class="edge">
<title>head g1 nominal subject&#45;&gt;beginning</title>
<path fill="none" stroke="#000000" d="M621.9179,-435.4066C670.6998,-420.5464 743.872,-398.2562 791.0401,-383.8876"/>
<polygon fill="#000000" stroke="#000000" points="792.1464,-387.2095 800.6924,-380.9473 790.1065,-380.5133 792.1464,-387.2095"/>
</g>
<!-- head g2 adverbial clause modifier -->
<g id="node8" class="node">
<title>head g2 adverbial clause modifier</title>
<ellipse fill="none" stroke="#000000" cx="510.2982" cy="-59.5561" rx="129.4009" ry="18"/>
<text text-anchor="middle" x="510.2982" y="-55.3561" font-family="Times,serif" font-size="14.00" fill="#000000">head g2 adverbial clause modifier</text>
</g>
<!-- ended&#45;&gt;head g2 adverbial clause modifier -->
<g id="edge9" class="edge">
<title>ended&#45;&gt;head g2 adverbial clause modifier</title>
<path fill="none" stroke="#000000" d="M360.3705,-340.3251C386.9486,-290.5524 463.7089,-146.8037 495.8617,-86.5913"/>
<polygon fill="#000000" stroke="#000000" points="499.0014,-88.1418 500.6245,-77.672 492.8266,-84.8445 499.0014,-88.1418"/>
<text text-anchor="middle" x="417.3245" y="-211.7219" font-family="Times,serif" font-size="14.00" fill="#000000">head</text>
</g>
<!-- the -->
<g id="node5" class="node">
<title>the</title>
<ellipse fill="none" stroke="#000000" cx="863.6362" cy="-1354.7471" rx="27" ry="18"/>
<text text-anchor="middle" x="863.6362" y="-1350.5471" font-family="Times,serif" font-size="14.00" fill="#000000">the</text>
</g>
<!-- child g1 determiner&#45;&gt;the -->
<g id="edge10" class="edge">
<title>child g1 determiner&#45;&gt;the</title>
<path fill="none" stroke="#000000" d="M670.6976,-1062.9395C705.458,-1115.5125 806.9199,-1268.9672 847.0358,-1329.64"/>
<polygon fill="#000000" stroke="#000000" points="844.2766,-1331.813 852.7115,-1338.2241 850.1157,-1327.9522 844.2766,-1331.813"/>
</g>
<!-- Vietnam -->
<g id="node7" class="node">
<title>Vietnam</title>
<ellipse fill="none" stroke="#000000" cx="64.5264" cy="-566.2657" rx="40.0625" ry="18"/>
<text text-anchor="middle" x="64.5264" y="-562.0657" font-family="Times,serif" font-size="14.00" fill="#000000">Vietnam</text>
</g>
<!-- child g1 compound&#45;&gt;Vietnam -->
<g id="edge11" class="edge">
<title>child g1 compound&#45;&gt;Vietnam</title>
<path fill="none" stroke="#000000" d="M244.511,-600.1597C203.3878,-592.4155 149.8432,-582.3322 111.8769,-575.1826"/>
<polygon fill="#000000" stroke="#000000" points="112.0799,-571.6594 101.6049,-573.2482 110.7844,-578.5385 112.0799,-571.6594"/>
</g>
<!-- Fleet -->
<g id="node11" class="node">
<title>Fleet</title>
<ellipse fill="none" stroke="#000000" cx="61.4355" cy="-321.8613" rx="27.5804" ry="18"/>
<text text-anchor="middle" x="61.4355" y="-317.6613" font-family="Times,serif" font-size="14.00" fill="#000000">Fleet</text>
</g>
<!-- child g1 compound&#45;&gt;Fleet -->
<g id="edge12" class="edge">
<title>child g1 compound&#45;&gt;Fleet</title>
<path fill="none" stroke="#000000" d="M290.3725,-593.911C248.3916,-544.0244 129.0173,-402.1699 81.4018,-345.5876"/>
<polygon fill="#000000" stroke="#000000" points="84.0317,-343.2769 74.915,-337.8792 78.6758,-347.7841 84.0317,-343.2769"/>
</g>
<!-- Determined -->
<g id="node22" class="node">
<title>Determined</title>
<ellipse fill="none" stroke="#000000" cx="51.8499" cy="-797.3425" rx="51.7002" ry="18"/>
<text text-anchor="middle" x="51.8499" y="-793.1425" font-family="Times,serif" font-size="14.00" fill="#000000">Determined</text>
</g>
<!-- child g1 compound&#45;&gt;Determined -->
<g id="edge13" class="edge">
<title>child g1 compound&#45;&gt;Determined</title>
<path fill="none" stroke="#000000" d="M281.4177,-629.0736C235.2956,-662.8802 133.8978,-737.2029 82.7082,-774.724"/>
<polygon fill="#000000" stroke="#000000" points="80.3448,-772.1167 74.3486,-780.8514 84.4831,-777.7625 80.3448,-772.1167"/>
</g>
<!-- be -->
<g id="node9" class="node">
<title>be</title>
<ellipse fill="none" stroke="#000000" cx="851.3676" cy="-43.8742" rx="27" ry="18"/>
<text text-anchor="middle" x="851.3676" y="-39.6742" font-family="Times,serif" font-size="14.00" fill="#000000">be</text>
</g>
<!-- head g2 adverbial clause modifier&#45;&gt;be -->
<g id="edge14" class="edge">
<title>head g2 adverbial clause modifier&#45;&gt;be</title>
<path fill="none" stroke="#000000" d="M633.4321,-53.8946C697.4205,-50.9525 771.0807,-47.5657 814.2921,-45.5789"/>
<polygon fill="#000000" stroke="#000000" points="814.5086,-49.0727 824.3372,-45.117 814.187,-42.0801 814.5086,-49.0727"/>
</g>
<!-- go -->
<g id="node12" class="node">
<title>go</title>
<ellipse fill="none" stroke="#000000" cx="138.0699" cy="-18" rx="27" ry="18"/>
<text text-anchor="middle" x="138.0699" y="-13.8" font-family="Times,serif" font-size="14.00" fill="#000000">go</text>
</g>
<!-- head g2 adverbial clause modifier&#45;&gt;go -->
<g id="edge15" class="edge">
<title>head g2 adverbial clause modifier&#45;&gt;go</title>
<path fill="none" stroke="#000000" d="M409.0768,-48.2556C331.5755,-39.6033 229.0787,-28.1604 175.0518,-22.1287"/>
<polygon fill="#000000" stroke="#000000" points="175.2411,-18.6282 164.9144,-20.997 174.4643,-25.585 175.2411,-18.6282"/>
</g>
<!-- beginning&#45;&gt;head g2 adverbial clause modifier -->
<g id="edge16" class="edge">
<title>beginning&#45;&gt;head g2 adverbial clause modifier</title>
<path fill="none" stroke="#000000" d="M819.4697,-353.1918C765.3354,-301.7778 600.8513,-145.559 536.5022,-84.4434"/>
<polygon fill="#000000" stroke="#000000" points="538.8265,-81.8239 529.1652,-77.4751 534.0059,-86.8995 538.8265,-81.8239"/>
<text text-anchor="middle" x="661.0596" y="-218.0918" font-family="Times,serif" font-size="14.00" fill="#000000">head</text>
</g>
<!-- images -->
<g id="node14" class="node">
<title>images</title>
<ellipse fill="none" stroke="#000000" cx="387.873" cy="-1096.5297" rx="35.3129" ry="18"/>
<text text-anchor="middle" x="387.873" y="-1092.3297" font-family="Times,serif" font-size="14.00" fill="#000000">images</text>
</g>
<!-- head g1 head of prep phrase&#45;&gt;images -->
<g id="edge17" class="edge">
<title>head g1 head of prep phrase&#45;&gt;images</title>
<path fill="none" stroke="#000000" d="M507.69,-882.2785C484.7917,-923.2243 429.2351,-1022.5679 402.5962,-1070.2024"/>
<polygon fill="#000000" stroke="#000000" points="399.4985,-1068.5709 397.6723,-1079.0072 405.608,-1071.9876 399.4985,-1068.5709"/>
</g>
<!-- head g2 head of prep phrase -->
<g id="node18" class="node">
<title>head g2 head of prep phrase</title>
<ellipse fill="none" stroke="#000000" cx="513.8483" cy="-1403.6609" rx="109.6053" ry="18"/>
<text text-anchor="middle" x="513.8483" y="-1399.4609" font-family="Times,serif" font-size="14.00" fill="#000000">head g2 head of prep phrase</text>
</g>
<!-- images&#45;&gt;head g2 head of prep phrase -->
<g id="edge18" class="edge">
<title>images&#45;&gt;head g2 head of prep phrase</title>
<path fill="none" stroke="#000000" d="M395.1905,-1114.3699C416.2318,-1165.6691 477.0133,-1313.8562 502.4462,-1375.8623"/>
<polygon fill="#000000" stroke="#000000" points="499.319,-1377.4613 506.3521,-1385.3851 505.7954,-1374.8049 499.319,-1377.4613"/>
<text text-anchor="middle" x="437.6536" y="-1252.9119" font-family="Times,serif" font-size="14.00" fill="#000000">head</text>
</g>
<!-- Lebanese -->
<g id="node16" class="node">
<title>Lebanese</title>
<ellipse fill="none" stroke="#000000" cx="906.7033" cy="-622.1166" rx="43.4887" ry="18"/>
<text text-anchor="middle" x="906.7033" y="-617.9166" font-family="Times,serif" font-size="14.00" fill="#000000">Lebanese</text>
</g>
<!-- child g1 adjectival modifier&#45;&gt;Lebanese -->
<g id="edge19" class="edge">
<title>child g1 adjectival modifier&#45;&gt;Lebanese</title>
<path fill="none" stroke="#000000" d="M724.8933,-692.719C765.3379,-677.0131 825.6198,-653.6038 865.5312,-638.105"/>
<polygon fill="#000000" stroke="#000000" points="866.9108,-641.3239 874.9656,-634.4413 864.3768,-634.7987 866.9108,-641.3239"/>
</g>
<!-- civil -->
<g id="node17" class="node">
<title>civil</title>
<ellipse fill="none" stroke="#000000" cx="899.7342" cy="-935.3747" rx="27" ry="18"/>
<text text-anchor="middle" x="899.7342" y="-931.1747" font-family="Times,serif" font-size="14.00" fill="#000000">civil</text>
</g>
<!-- child g1 adjectival modifier&#45;&gt;civil -->
<g id="edge20" class="edge">
<title>child g1 adjectival modifier&#45;&gt;civil</title>
<path fill="none" stroke="#000000" d="M699.563,-727.4444C738.9524,-768.3607 834.7205,-867.8409 877.9376,-912.7332"/>
<polygon fill="#000000" stroke="#000000" points="875.6733,-915.4277 885.1302,-920.2046 880.7162,-910.5729 875.6733,-915.4277"/>
</g>
<!-- one -->
<g id="node19" class="node">
<title>one</title>
<ellipse fill="none" stroke="#000000" cx="123.8797" cy="-1395.936" rx="27" ry="18"/>
<text text-anchor="middle" x="123.8797" y="-1391.736" font-family="Times,serif" font-size="14.00" fill="#000000">one</text>
</g>
<!-- head g2 head of prep phrase&#45;&gt;one -->
<g id="edge21" class="edge">
<title>head g2 head of prep phrase&#45;&gt;one</title>
<path fill="none" stroke="#000000" d="M404.9611,-1401.5039C323.4555,-1399.8894 216.8353,-1397.7773 161.2579,-1396.6764"/>
<polygon fill="#000000" stroke="#000000" points="161.236,-1393.1754 151.1686,-1396.4765 161.0973,-1400.174 161.236,-1393.1754"/>
</g>
<!-- designated -->
<g id="node21" class="node">
<title>designated</title>
<ellipse fill="none" stroke="#000000" cx="73.6822" cy="-1060.8088" rx="47.8496" ry="18"/>
<text text-anchor="middle" x="73.6822" y="-1056.6088" font-family="Times,serif" font-size="14.00" fill="#000000">designated</text>
</g>
<!-- head g1 object predicate&#45;&gt;designated -->
<g id="edge22" class="edge">
<title>head g1 object predicate&#45;&gt;designated</title>
<path fill="none" stroke="#000000" d="M280.1439,-872.1018C239.3093,-909.4249 145.3538,-995.3006 99.6273,-1037.0948"/>
<polygon fill="#000000" stroke="#000000" points="97.2152,-1034.5578 92.1952,-1043.8879 101.9378,-1039.7247 97.2152,-1034.5578"/>
</g>
</g>
</svg>
