<?xml version="1.0" encoding="UTF-8" standalone="no"?>
<!DOCTYPE svg PUBLIC "-//W3C//DTD SVG 1.1//EN"
 "http://www.w3.org/Graphics/SVG/1.1/DTD/svg11.dtd">
<!-- Generated by graphviz version 2.40.1 (20161225.0304)
 -->
<!-- Title: %3 Pages: 1 -->
<svg width="742pt" height="530pt"
 viewBox="0.00 0.00 741.82 530.06" xmlns="http://www.w3.org/2000/svg" xmlns:xlink="http://www.w3.org/1999/xlink">
<g id="graph0" class="graph" transform="scale(1 1) rotate(0) translate(4 526.0579)">
<title>%3</title>
<polygon fill="#ffffff" stroke="transparent" points="-4,4 -4,-526.0579 737.8211,-526.0579 737.8211,4 -4,4"/>
<!-- FAC -->
<g id="node1" class="node">
<title>FAC</title>
<ellipse fill="none" stroke="#000000" cx="390.8249" cy="-272.048" rx="27" ry="18"/>
<text text-anchor="middle" x="390.8249" y="-267.848" font-family="Times,serif" font-size="14.00" fill="#000000">FAC</text>
<text text-anchor="middle" x="360.3249" y="-292.848" font-family="Times,serif" font-size="14.00" fill="#000000">5</text>
</g>
<!-- head g1 head of prep phrase -->
<g id="node2" class="node">
<title>head g1 head of prep phrase</title>
<ellipse fill="none" stroke="#000000" cx="333.9184" cy="-158.0826" rx="109.6053" ry="18"/>
<text text-anchor="middle" x="333.9184" y="-153.8826" font-family="Times,serif" font-size="14.00" fill="#000000">head g1 head of prep phrase</text>
</g>
<!-- FAC&#45;&gt;head g1 head of prep phrase -->
<g id="edge1" class="edge">
<title>FAC&#45;&gt;head g1 head of prep phrase</title>
<path fill="none" stroke="#000000" d="M382.1821,-254.7391C372.9733,-236.2969 358.2685,-206.848 347.5076,-185.2974"/>
<polygon fill="#000000" stroke="#000000" points="350.6188,-183.6933 343.02,-176.3102 344.3561,-186.8205 350.6188,-183.6933"/>
<text text-anchor="middle" x="349.31" y="-218.1701" font-family="Times,serif" font-size="14.00" fill="#000000">head</text>
</g>
<!-- child g1 prepositional modifier -->
<g id="node4" class="node">
<title>child g1 prepositional modifier</title>
<ellipse fill="none" stroke="#000000" cx="333.3345" cy="-380.2711" rx="119.3131" ry="18"/>
<text text-anchor="middle" x="333.3345" y="-376.0711" font-family="Times,serif" font-size="14.00" fill="#000000">child g1 prepositional modifier</text>
</g>
<!-- FAC&#45;&gt;child g1 prepositional modifier -->
<g id="edge2" class="edge">
<title>FAC&#45;&gt;child g1 prepositional modifier</title>
<path fill="none" stroke="#000000" d="M381.5881,-289.4359C372.4361,-306.6641 358.2887,-333.2958 347.6748,-353.276"/>
<polygon fill="#000000" stroke="#000000" points="344.5323,-351.7313 342.9318,-362.2046 350.7141,-355.0153 344.5323,-351.7313"/>
<text text-anchor="middle" x="348.3577" y="-328.4426" font-family="Times,serif" font-size="14.00" fill="#000000">child</text>
</g>
<!-- head g1 noun phrase as adverbial modifier -->
<g id="node9" class="node">
<title>head g1 noun phrase as adverbial modifier</title>
<ellipse fill="none" stroke="#000000" cx="573.9108" cy="-222.1767" rx="159.8207" ry="18"/>
<text text-anchor="middle" x="573.9108" y="-217.9767" font-family="Times,serif" font-size="14.00" fill="#000000">head g1 noun phrase as adverbial modifier</text>
</g>
<!-- FAC&#45;&gt;head g1 noun phrase as adverbial modifier -->
<g id="edge3" class="edge">
<title>FAC&#45;&gt;head g1 noun phrase as adverbial modifier</title>
<path fill="none" stroke="#000000" d="M415.8983,-265.2182C438.2562,-259.128 472.0909,-249.9117 502.7228,-241.5678"/>
<polygon fill="#000000" stroke="#000000" points="503.8085,-244.8996 512.5371,-238.8944 501.9687,-238.1457 503.8085,-244.8996"/>
<text text-anchor="middle" x="450.8531" y="-254.8973" font-family="Times,serif" font-size="14.00" fill="#000000">head</text>
</g>
<!-- child g1 determiner -->
<g id="node11" class="node">
<title>child g1 determiner</title>
<ellipse fill="none" stroke="#000000" cx="209.643" cy="-337.8198" rx="79.2126" ry="18"/>
<text text-anchor="middle" x="209.643" y="-333.6198" font-family="Times,serif" font-size="14.00" fill="#000000">child g1 determiner</text>
</g>
<!-- FAC&#45;&gt;child g1 determiner -->
<g id="edge4" class="edge">
<title>FAC&#45;&gt;child g1 determiner</title>
<path fill="none" stroke="#000000" d="M366.7654,-280.782C340.0172,-290.492 296.0224,-306.4627 261.38,-319.0384"/>
<polygon fill="#000000" stroke="#000000" points="260.0847,-315.7851 251.8792,-322.4874 262.4733,-322.365 260.0847,-315.7851"/>
<text text-anchor="middle" x="295.1097" y="-304.5131" font-family="Times,serif" font-size="14.00" fill="#000000">child</text>
</g>
<!-- child g1 compound -->
<g id="node13" class="node">
<title>child g1 compound</title>
<ellipse fill="none" stroke="#000000" cx="488.7061" cy="-433.9988" rx="78.278" ry="18"/>
<text text-anchor="middle" x="488.7061" y="-429.7988" font-family="Times,serif" font-size="14.00" fill="#000000">child g1 compound</text>
</g>
<!-- FAC&#45;&gt;child g1 compound -->
<g id="edge5" class="edge">
<title>FAC&#45;&gt;child g1 compound</title>
<path fill="none" stroke="#000000" d="M402.6385,-288.512C417.392,-309.3843 443.0333,-346.7041 462.2932,-380.3155 467.0959,-388.697 471.8949,-398.0735 476.0591,-406.6161"/>
<polygon fill="#000000" stroke="#000000" points="472.9842,-408.2987 480.4573,-415.809 479.2987,-405.2777 472.9842,-408.2987"/>
<text text-anchor="middle" x="430.16" y="-339.1262" font-family="Times,serif" font-size="14.00" fill="#000000">child</text>
</g>
<!-- base -->
<g id="node3" class="node">
<title>base</title>
<ellipse fill="none" stroke="#000000" cx="128.3745" cy="-217.5433" rx="27" ry="18"/>
<text text-anchor="middle" x="128.3745" y="-213.3433" font-family="Times,serif" font-size="14.00" fill="#000000">base</text>
</g>
<!-- head g1 head of prep phrase&#45;&gt;base -->
<g id="edge6" class="edge">
<title>head g1 head of prep phrase&#45;&gt;base</title>
<path fill="none" stroke="#000000" d="M279.6453,-173.783C242.726,-184.4632 194.9721,-198.2776 163.0906,-207.5005"/>
<polygon fill="#000000" stroke="#000000" points="161.9646,-204.1826 153.3311,-210.3237 163.9099,-210.9069 161.9646,-204.1826"/>
</g>
<!-- go -->
<g id="node8" class="node">
<title>go</title>
<ellipse fill="none" stroke="#000000" cx="423.0081" cy="-18" rx="27" ry="18"/>
<text text-anchor="middle" x="423.0081" y="-13.8" font-family="Times,serif" font-size="14.00" fill="#000000">go</text>
</g>
<!-- head g1 head of prep phrase&#45;&gt;go -->
<g id="edge7" class="edge">
<title>head g1 head of prep phrase&#45;&gt;go</title>
<path fill="none" stroke="#000000" d="M345.383,-140.0561C361.0053,-115.4918 389.0638,-71.3733 406.8244,-43.4469"/>
<polygon fill="#000000" stroke="#000000" points="410.0067,-44.965 412.4199,-34.6486 404.1001,-41.2085 410.0067,-44.965"/>
</g>
<!-- head g2 head of prep phrase -->
<g id="node6" class="node">
<title>head g2 head of prep phrase</title>
<ellipse fill="none" stroke="#000000" cx="213.9927" cy="-19.1849" rx="109.6053" ry="18"/>
<text text-anchor="middle" x="213.9927" y="-14.9849" font-family="Times,serif" font-size="14.00" fill="#000000">head g2 head of prep phrase</text>
</g>
<!-- base&#45;&gt;head g2 head of prep phrase -->
<g id="edge8" class="edge">
<title>base&#45;&gt;head g2 head of prep phrase</title>
<path fill="none" stroke="#000000" d="M135.9726,-199.9403C150.9384,-165.2677 184.3258,-87.9165 202.1861,-46.5382"/>
<polygon fill="#000000" stroke="#000000" points="205.4152,-47.8889 206.1647,-37.3206 198.9883,-45.1148 205.4152,-47.8889"/>
<text text-anchor="middle" x="157.8489" y="-121.444" font-family="Times,serif" font-size="14.00" fill="#000000">head</text>
</g>
<!-- in -->
<g id="node5" class="node">
<title>in</title>
<ellipse fill="none" stroke="#000000" cx="308.3628" cy="-504.0579" rx="27" ry="18"/>
<text text-anchor="middle" x="308.3628" y="-499.8579" font-family="Times,serif" font-size="14.00" fill="#000000">in</text>
</g>
<!-- child g1 prepositional modifier&#45;&gt;in -->
<g id="edge9" class="edge">
<title>child g1 prepositional modifier&#45;&gt;in</title>
<path fill="none" stroke="#000000" d="M329.7034,-398.2708C325.5792,-418.7146 318.7996,-452.3218 313.9893,-476.1664"/>
<polygon fill="#000000" stroke="#000000" points="310.5449,-475.5418 311.9982,-486.0365 317.4067,-476.9261 310.5449,-475.5418"/>
</g>
<!-- Arrived -->
<g id="node7" class="node">
<title>Arrived</title>
<ellipse fill="none" stroke="#000000" cx="37.6088" cy="-70.2693" rx="37.7179" ry="18"/>
<text text-anchor="middle" x="37.6088" y="-66.0693" font-family="Times,serif" font-size="14.00" fill="#000000">Arrived</text>
</g>
<!-- head g2 head of prep phrase&#45;&gt;Arrived -->
<g id="edge10" class="edge">
<title>head g2 head of prep phrase&#45;&gt;Arrived</title>
<path fill="none" stroke="#000000" d="M159.6325,-34.9287C133.9474,-42.3677 103.7496,-51.1136 79.821,-58.0438"/>
<polygon fill="#000000" stroke="#000000" points="78.6128,-54.7498 69.9812,-60.8936 80.5601,-61.4735 78.6128,-54.7498"/>
</g>
<!-- News -->
<g id="node10" class="node">
<title>News</title>
<ellipse fill="none" stroke="#000000" cx="637.877" cy="-51.2594" rx="30.4949" ry="18"/>
<text text-anchor="middle" x="637.877" y="-47.0594" font-family="Times,serif" font-size="14.00" fill="#000000">News</text>
</g>
<!-- head g1 noun phrase as adverbial modifier&#45;&gt;News -->
<g id="edge11" class="edge">
<title>head g1 noun phrase as adverbial modifier&#45;&gt;News</title>
<path fill="none" stroke="#000000" d="M580.7563,-203.8855C592.0205,-173.7876 614.5228,-113.6618 627.6717,-78.5278"/>
<polygon fill="#000000" stroke="#000000" points="631.0452,-79.4992 631.2724,-68.9068 624.4893,-77.0456 631.0452,-79.4992"/>
</g>
<!-- the -->
<g id="node12" class="node">
<title>the</title>
<ellipse fill="none" stroke="#000000" cx="62.2623" cy="-435.8139" rx="27" ry="18"/>
<text text-anchor="middle" x="62.2623" y="-431.6139" font-family="Times,serif" font-size="14.00" fill="#000000">the</text>
</g>
<!-- child g1 determiner&#45;&gt;the -->
<g id="edge12" class="edge">
<title>child g1 determiner&#45;&gt;the</title>
<path fill="none" stroke="#000000" d="M183.9713,-354.889C157.7414,-372.3294 117.1347,-399.329 90.134,-417.2819"/>
<polygon fill="#000000" stroke="#000000" points="87.9286,-414.5452 81.5392,-422.9966 91.8044,-420.3743 87.9286,-414.5452"/>
</g>
<!-- State -->
<g id="node14" class="node">
<title>State</title>
<ellipse fill="none" stroke="#000000" cx="651.6548" cy="-428.4913" rx="27.5804" ry="18"/>
<text text-anchor="middle" x="651.6548" y="-424.2913" font-family="Times,serif" font-size="14.00" fill="#000000">State</text>
</g>
<!-- child g1 compound&#45;&gt;State -->
<g id="edge13" class="edge">
<title>child g1 compound&#45;&gt;State</title>
<path fill="none" stroke="#000000" d="M566.3626,-431.3741C582.6928,-430.8222 599.2279,-430.2633 613.3362,-429.7865"/>
<polygon fill="#000000" stroke="#000000" points="613.7321,-433.2752 623.6082,-429.4393 613.4956,-426.2792 613.7321,-433.2752"/>
</g>
</g>
</svg>
