<?xml version="1.0" encoding="UTF-8" standalone="no"?>
<!DOCTYPE svg PUBLIC "-//W3C//DTD SVG 1.1//EN"
 "http://www.w3.org/Graphics/SVG/1.1/DTD/svg11.dtd">
<!-- Generated by graphviz version 2.40.1 (20161225.0304)
 -->
<!-- Title: %3 Pages: 1 -->
<svg width="548pt" height="188pt"
 viewBox="0.00 0.00 547.95 188.00" xmlns="http://www.w3.org/2000/svg" xmlns:xlink="http://www.w3.org/1999/xlink">
<g id="graph0" class="graph" transform="scale(1 1) rotate(0) translate(4 184)">
<title>%3</title>
<polygon fill="#ffffff" stroke="transparent" points="-4,4 -4,-184 543.9513,-184 543.9513,4 -4,4"/>
<!-- FAC -->
<g id="node1" class="node">
<title>FAC</title>
<ellipse fill="none" stroke="#000000" cx="292" cy="-162" rx="27" ry="18"/>
<text text-anchor="middle" x="292" y="-157.8" font-family="Times,serif" font-size="14.00" fill="#000000">FAC</text>
</g>
<!-- head of prep phrase -->
<g id="node2" class="node">
<title>head of prep phrase</title>
<ellipse fill="none" stroke="#000000" cx="178" cy="-90" rx="79.6874" ry="18"/>
<text text-anchor="middle" x="178" y="-85.8" font-family="Times,serif" font-size="14.00" fill="#000000">head of prep phrase</text>
</g>
<!-- FAC&#45;&#45;head of prep phrase -->
<g id="edge1" class="edge">
<title>FAC&#45;&#45;head of prep phrase</title>
<path fill="none" stroke="#000000" d="M272.1427,-149.4586C253.5153,-137.6939 225.5143,-120.009 204.8901,-106.9832"/>
</g>
<!-- noun phrase as adverbial modifier -->
<g id="node5" class="node">
<title>noun phrase as adverbial modifier</title>
<ellipse fill="none" stroke="#000000" cx="410" cy="-90" rx="129.9027" ry="18"/>
<text text-anchor="middle" x="410" y="-85.8" font-family="Times,serif" font-size="14.00" fill="#000000">noun phrase as adverbial modifier</text>
</g>
<!-- FAC&#45;&#45;noun phrase as adverbial modifier -->
<g id="edge2" class="edge">
<title>FAC&#45;&#45;noun phrase as adverbial modifier</title>
<path fill="none" stroke="#000000" d="M312.0171,-149.7862C330.9542,-138.2314 359.5894,-120.759 381.0206,-107.6823"/>
</g>
<!-- base -->
<g id="node3" class="node">
<title>base</title>
<ellipse fill="none" stroke="#000000" cx="27" cy="-18" rx="27" ry="18"/>
<text text-anchor="middle" x="27" y="-13.8" font-family="Times,serif" font-size="14.00" fill="#000000">base</text>
</g>
<!-- head of prep phrase&#45;&#45;base -->
<g id="edge3" class="edge">
<title>head of prep phrase&#45;&#45;base</title>
<path fill="none" stroke="#000000" d="M142.9162,-73.7987C120.0843,-63.1881 89.6959,-48.9393 63,-36 58.3469,-33.7447 53.3758,-31.2892 48.6593,-28.9377"/>
</g>
<!-- go -->
<g id="node4" class="node">
<title>go</title>
<ellipse fill="none" stroke="#000000" cx="99" cy="-18" rx="27" ry="18"/>
<text text-anchor="middle" x="99" y="-13.8" font-family="Times,serif" font-size="14.00" fill="#000000">go</text>
</g>
<!-- head of prep phrase&#45;&#45;go -->
<g id="edge4" class="edge">
<title>head of prep phrase&#45;&#45;go</title>
<path fill="none" stroke="#000000" d="M158.4719,-72.2022C145.1299,-60.0425 127.6625,-44.1228 115.1148,-32.6869"/>
</g>
<!-- rally -->
<g id="node7" class="node">
<title>rally</title>
<ellipse fill="none" stroke="#000000" cx="171" cy="-18" rx="27" ry="18"/>
<text text-anchor="middle" x="171" y="-13.8" font-family="Times,serif" font-size="14.00" fill="#000000">rally</text>
</g>
<!-- head of prep phrase&#45;&#45;rally -->
<g id="edge5" class="edge">
<title>head of prep phrase&#45;&#45;rally</title>
<path fill="none" stroke="#000000" d="M176.2336,-71.8314C175.1806,-61 173.8474,-47.2876 172.7902,-36.4133"/>
</g>
<!-- first -->
<g id="node8" class="node">
<title>first</title>
<ellipse fill="none" stroke="#000000" cx="243" cy="-18" rx="27" ry="18"/>
<text text-anchor="middle" x="243" y="-13.8" font-family="Times,serif" font-size="14.00" fill="#000000">first</text>
</g>
<!-- head of prep phrase&#45;&#45;first -->
<g id="edge6" class="edge">
<title>head of prep phrase&#45;&#45;first</title>
<path fill="none" stroke="#000000" d="M194.0674,-72.2022C204.7442,-60.3756 218.632,-44.9923 228.8835,-33.6368"/>
</g>
<!-- honored -->
<g id="node9" class="node">
<title>honored</title>
<ellipse fill="none" stroke="#000000" cx="327" cy="-18" rx="39.1713" ry="18"/>
<text text-anchor="middle" x="327" y="-13.8" font-family="Times,serif" font-size="14.00" fill="#000000">honored</text>
</g>
<!-- head of prep phrase&#45;&#45;honored -->
<g id="edge7" class="edge">
<title>head of prep phrase&#45;&#45;honored</title>
<path fill="none" stroke="#000000" d="M211.8104,-73.6621C238.4276,-60.8001 275.0406,-43.1079 299.7876,-31.1496"/>
</g>
<!-- News -->
<g id="node6" class="node">
<title>News</title>
<ellipse fill="none" stroke="#000000" cx="414" cy="-18" rx="30.4949" ry="18"/>
<text text-anchor="middle" x="414" y="-13.8" font-family="Times,serif" font-size="14.00" fill="#000000">News</text>
</g>
<!-- noun phrase as adverbial modifier&#45;&#45;News -->
<g id="edge8" class="edge">
<title>noun phrase as adverbial modifier&#45;&#45;News</title>
<path fill="none" stroke="#000000" d="M411.0094,-71.8314C411.6111,-61 412.3729,-47.2876 412.977,-36.4133"/>
</g>
</g>
</svg>
