<?xml version="1.0" encoding="UTF-8" standalone="no"?>
<!DOCTYPE svg PUBLIC "-//W3C//DTD SVG 1.1//EN"
 "http://www.w3.org/Graphics/SVG/1.1/DTD/svg11.dtd">
<!-- Generated by graphviz version 2.40.1 (20161225.0304)
 -->
<!-- Title: %3 Pages: 1 -->
<svg width="1716pt" height="1045pt"
 viewBox="0.00 0.00 1715.91 1045.41" xmlns="http://www.w3.org/2000/svg" xmlns:xlink="http://www.w3.org/1999/xlink">
<g id="graph0" class="graph" transform="scale(1 1) rotate(0) translate(4 1041.4083)">
<title>%3</title>
<polygon fill="#ffffff" stroke="transparent" points="-4,4 -4,-1041.4083 1711.9086,-1041.4083 1711.9086,4 -4,4"/>
<!-- FAC -->
<g id="node1" class="node">
<title>FAC</title>
<ellipse fill="none" stroke="#000000" cx="964.657" cy="-680.5767" rx="27" ry="18"/>
<text text-anchor="middle" x="964.657" y="-676.3767" font-family="Times,serif" font-size="14.00" fill="#000000">FAC</text>
<text text-anchor="middle" x="934.157" y="-701.3767" font-family="Times,serif" font-size="14.00" fill="#000000">5</text>
</g>
<!-- head g1 head of prep phrase -->
<g id="node2" class="node">
<title>head g1 head of prep phrase</title>
<ellipse fill="none" stroke="#000000" cx="851.8911" cy="-368.8429" rx="109.6053" ry="18"/>
<text text-anchor="middle" x="851.8911" y="-364.6429" font-family="Times,serif" font-size="14.00" fill="#000000">head g1 head of prep phrase</text>
</g>
<!-- FAC&#45;&gt;head g1 head of prep phrase -->
<g id="edge1" class="edge">
<title>FAC&#45;&gt;head g1 head of prep phrase</title>
<path fill="none" stroke="#000000" d="M958.2712,-662.9234C939.5581,-611.1923 884.7412,-459.6547 861.9795,-396.7316"/>
<polygon fill="#000000" stroke="#000000" points="865.1809,-395.2922 858.4879,-387.0791 858.5983,-397.6734 865.1809,-395.2922"/>
<text text-anchor="middle" x="895.1059" y="-527.6362" font-family="Times,serif" font-size="14.00" fill="#000000">head</text>
</g>
<!-- child g1 prepositional modifier -->
<g id="node4" class="node">
<title>child g1 prepositional modifier</title>
<ellipse fill="none" stroke="#000000" cx="585.9066" cy="-682.3949" rx="119.3131" ry="18"/>
<text text-anchor="middle" x="585.9066" y="-678.1949" font-family="Times,serif" font-size="14.00" fill="#000000">child g1 prepositional modifier</text>
</g>
<!-- FAC&#45;&gt;child g1 prepositional modifier -->
<g id="edge2" class="edge">
<title>FAC&#45;&gt;child g1 prepositional modifier</title>
<path fill="none" stroke="#000000" d="M937.4182,-680.7075C891.4667,-680.9281 795.7289,-681.3877 715.7567,-681.7716"/>
<polygon fill="#000000" stroke="#000000" points="715.5702,-678.2723 705.5872,-681.8204 715.6039,-685.2723 715.5702,-678.2723"/>
<text text-anchor="middle" x="807.4266" y="-684.0643" font-family="Times,serif" font-size="14.00" fill="#000000">child</text>
</g>
<!-- head g1 noun phrase as adverbial modifier -->
<g id="node10" class="node">
<title>head g1 noun phrase as adverbial modifier</title>
<ellipse fill="none" stroke="#000000" cx="1154.1581" cy="-358.0668" rx="159.8207" ry="18"/>
<text text-anchor="middle" x="1154.1581" y="-353.8668" font-family="Times,serif" font-size="14.00" fill="#000000">head g1 noun phrase as adverbial modifier</text>
</g>
<!-- FAC&#45;&gt;head g1 noun phrase as adverbial modifier -->
<g id="edge3" class="edge">
<title>FAC&#45;&gt;head g1 noun phrase as adverbial modifier</title>
<path fill="none" stroke="#000000" d="M974.5786,-663.6913C1005.4999,-611.0667 1100.3151,-449.7018 1138.2383,-385.1605"/>
<polygon fill="#000000" stroke="#000000" points="1141.358,-386.76 1143.4064,-376.3651 1135.3227,-383.2138 1141.358,-386.76"/>
<text text-anchor="middle" x="1045.6854" y="-522.9869" font-family="Times,serif" font-size="14.00" fill="#000000">head</text>
</g>
<!-- child g1 determiner -->
<g id="node12" class="node">
<title>child g1 determiner</title>
<ellipse fill="none" stroke="#000000" cx="1360.0492" cy="-578.1328" rx="79.2126" ry="18"/>
<text text-anchor="middle" x="1360.0492" y="-573.9328" font-family="Times,serif" font-size="14.00" fill="#000000">child g1 determiner</text>
</g>
<!-- FAC&#45;&gt;child g1 determiner -->
<g id="edge4" class="edge">
<title>FAC&#45;&gt;child g1 determiner</title>
<path fill="none" stroke="#000000" d="M989.9921,-674.0126C1051.2904,-658.1305 1209.0588,-617.2536 1297.5276,-594.3318"/>
<polygon fill="#000000" stroke="#000000" points="1298.6355,-597.6604 1307.438,-591.764 1296.8798,-590.8841 1298.6355,-597.6604"/>
<text text-anchor="middle" x="1134.6316" y="-635.7108" font-family="Times,serif" font-size="14.00" fill="#000000">child</text>
</g>
<!-- child g1 compound -->
<g id="node14" class="node">
<title>child g1 compound</title>
<ellipse fill="none" stroke="#000000" cx="726.5311" cy="-1019.4083" rx="78.278" ry="18"/>
<text text-anchor="middle" x="726.5311" y="-1015.2083" font-family="Times,serif" font-size="14.00" fill="#000000">child g1 compound</text>
</g>
<!-- FAC&#45;&gt;child g1 compound -->
<g id="edge5" class="edge">
<title>FAC&#45;&gt;child g1 compound</title>
<path fill="none" stroke="#000000" d="M953.1717,-696.9193C914.9398,-751.3198 791.7507,-926.6067 744.873,-993.3094"/>
<polygon fill="#000000" stroke="#000000" points="741.9213,-991.4223 739.035,-1001.6164 747.6485,-995.4472 741.9213,-991.4223"/>
<text text-anchor="middle" x="831.9497" y="-852.2913" font-family="Times,serif" font-size="14.00" fill="#000000">child</text>
</g>
<!-- headleaf base -->
<g id="node3" class="node">
<title>headleaf base</title>
<ellipse fill="none" stroke="#000000" cx="522.6157" cy="-355.2525" rx="57.9545" ry="18"/>
<text text-anchor="middle" x="522.6157" y="-351.0525" font-family="Times,serif" font-size="14.00" fill="#000000">headleaf base</text>
</g>
<!-- head g1 head of prep phrase&#45;&gt;headleaf base -->
<g id="edge6" class="edge">
<title>head g1 head of prep phrase&#45;&gt;headleaf base</title>
<path fill="none" stroke="#000000" d="M745.4396,-364.4493C694.5389,-362.3484 635.1227,-359.8961 590.4515,-358.0523"/>
<polygon fill="#000000" stroke="#000000" points="590.4278,-354.5485 580.2919,-357.633 590.139,-361.5425 590.4278,-354.5485"/>
</g>
<!-- headleaf go -->
<g id="node8" class="node">
<title>headleaf go</title>
<ellipse fill="none" stroke="#000000" cx="693.1337" cy="-18.3454" rx="51.2146" ry="18"/>
<text text-anchor="middle" x="693.1337" y="-14.1454" font-family="Times,serif" font-size="14.00" fill="#000000">headleaf go</text>
</g>
<!-- head g1 head of prep phrase&#45;&gt;headleaf go -->
<g id="edge7" class="edge">
<title>head g1 head of prep phrase&#45;&gt;headleaf go</title>
<path fill="none" stroke="#000000" d="M843.5792,-350.4922C817.4312,-292.7638 736.7452,-114.6288 705.5885,-45.8425"/>
<polygon fill="#000000" stroke="#000000" points="708.6777,-44.1796 701.3634,-36.5145 702.3013,-47.0678 708.6777,-44.1796"/>
</g>
<!-- head g2 head of prep phrase -->
<g id="node6" class="node">
<title>head g2 head of prep phrase</title>
<ellipse fill="none" stroke="#000000" cx="109.5526" cy="-544.4317" rx="109.6053" ry="18"/>
<text text-anchor="middle" x="109.5526" y="-540.2317" font-family="Times,serif" font-size="14.00" fill="#000000">head g2 head of prep phrase</text>
</g>
<!-- headleaf base&#45;&gt;head g2 head of prep phrase -->
<g id="edge8" class="edge">
<title>headleaf base&#45;&gt;head g2 head of prep phrase</title>
<path fill="none" stroke="#000000" d="M489.858,-370.2552C416.8231,-403.7046 240.4534,-484.4803 156.0611,-523.1312"/>
<polygon fill="#000000" stroke="#000000" points="154.3592,-520.061 146.7248,-527.4072 157.274,-526.4253 154.3592,-520.061"/>
<text text-anchor="middle" x="305.0301" y="-451.6529" font-family="Times,serif" font-size="14.00" fill="#000000">head</text>
</g>
<!-- childleaf in -->
<g id="node5" class="node">
<title>childleaf in</title>
<ellipse fill="none" stroke="#000000" cx="180.1213" cy="-984.3134" rx="50.2629" ry="18"/>
<text text-anchor="middle" x="180.1213" y="-980.1134" font-family="Times,serif" font-size="14.00" fill="#000000">childleaf in</text>
</g>
<!-- child g1 prepositional modifier&#45;&gt;childleaf in -->
<g id="edge9" class="edge">
<title>child g1 prepositional modifier&#45;&gt;childleaf in</title>
<path fill="none" stroke="#000000" d="M562.0378,-700.1541C492.1878,-752.125 288.2368,-903.8717 210.6045,-961.6329"/>
<polygon fill="#000000" stroke="#000000" points="208.1402,-959.1039 202.2065,-967.8813 212.3187,-964.7199 208.1402,-959.1039"/>
</g>
<!-- headleaf Arrived -->
<g id="node7" class="node">
<title>headleaf Arrived</title>
<ellipse fill="none" stroke="#000000" cx="154.9317" cy="-72.4627" rx="69.0648" ry="18"/>
<text text-anchor="middle" x="154.9317" y="-68.2627" font-family="Times,serif" font-size="14.00" fill="#000000">headleaf Arrived</text>
</g>
<!-- head g2 head of prep phrase&#45;&gt;headleaf Arrived -->
<g id="edge10" class="edge">
<title>head g2 head of prep phrase&#45;&gt;headleaf Arrived</title>
<path fill="none" stroke="#000000" d="M111.3037,-526.2192C118.2384,-454.0948 143.8065,-188.172 152.2246,-100.6184"/>
<polygon fill="#000000" stroke="#000000" points="155.7126,-100.91 153.1858,-90.6209 148.7447,-100.24 155.7126,-100.91"/>
</g>
<!-- head g2 ROOT -->
<g id="node9" class="node">
<title>head g2 ROOT</title>
<ellipse fill="none" stroke="#000000" cx="1154.1506" cy="-18" rx="64.2787" ry="18"/>
<text text-anchor="middle" x="1154.1506" y="-13.8" font-family="Times,serif" font-size="14.00" fill="#000000">head g2 ROOT</text>
</g>
<!-- headleaf go&#45;&gt;head g2 ROOT -->
<g id="edge11" class="edge">
<title>headleaf go&#45;&gt;head g2 ROOT</title>
<path fill="none" stroke="#000000" d="M744.6763,-18.3068C826.289,-18.2456 985.6228,-18.1263 1079.6639,-18.0558"/>
<polygon fill="#000000" stroke="#000000" points="1079.6793,-21.5559 1089.6767,-18.0483 1079.674,-14.5559 1079.6793,-21.5559"/>
<text text-anchor="middle" x="903.7186" y="-20.9777" font-family="Times,serif" font-size="14.00" fill="#000000">head</text>
</g>
<!-- head g2 ROOT&#45;&gt;headleaf go -->
<g id="edge12" class="edge">
<title>head g2 ROOT&#45;&gt;headleaf go</title>
<path fill="none" stroke="#000000" d="M1089.5628,-18.0484C1000.6503,-18.115 841.6746,-18.2341 754.495,-18.2994"/>
<polygon fill="#000000" stroke="#000000" points="754.4834,-14.7993 744.4861,-18.3069 754.4888,-21.7993 754.4834,-14.7993"/>
</g>
<!-- headleaf News -->
<g id="node11" class="node">
<title>headleaf News</title>
<ellipse fill="none" stroke="#000000" cx="1637.9972" cy="-163.0197" rx="62.3068" ry="18"/>
<text text-anchor="middle" x="1637.9972" y="-158.8197" font-family="Times,serif" font-size="14.00" fill="#000000">headleaf News</text>
</g>
<!-- head g2 ROOT&#45;&gt;headleaf News -->
<g id="edge13" class="edge">
<title>head g2 ROOT&#45;&gt;headleaf News</title>
<path fill="none" stroke="#000000" d="M1198.3714,-31.254C1287.483,-57.9627 1488.3268,-118.1602 1584.5855,-147.0111"/>
<polygon fill="#000000" stroke="#000000" points="1583.8187,-150.435 1594.4026,-149.9534 1585.8284,-143.7297 1583.8187,-150.435"/>
</g>
<!-- head g1 noun phrase as adverbial modifier&#45;&gt;headleaf News -->
<g id="edge14" class="edge">
<title>head g1 noun phrase as adverbial modifier&#45;&gt;headleaf News</title>
<path fill="none" stroke="#000000" d="M1197.5214,-340.586C1288.5867,-303.8754 1498.9904,-219.0567 1592.1671,-181.4949"/>
<polygon fill="#000000" stroke="#000000" points="1593.6425,-184.674 1601.6086,-177.6889 1591.0252,-178.1816 1593.6425,-184.674"/>
</g>
<!-- headleaf News&#45;&gt;head g2 ROOT -->
<g id="edge15" class="edge">
<title>headleaf News&#45;&gt;head g2 ROOT</title>
<path fill="none" stroke="#000000" d="M1594.6332,-150.0226C1506.0534,-123.4732 1304.5621,-63.0817 1207.8723,-34.1016"/>
<polygon fill="#000000" stroke="#000000" points="1208.8739,-30.748 1198.29,-31.2296 1206.8641,-37.4533 1208.8739,-30.748"/>
<text text-anchor="middle" x="1383.3223" y="-93.4484" font-family="Times,serif" font-size="14.00" fill="#000000">head</text>
</g>
<!-- childleaf the -->
<g id="node13" class="node">
<title>childleaf the</title>
<ellipse fill="none" stroke="#000000" cx="1653.8522" cy="-882.9165" rx="54.1129" ry="18"/>
<text text-anchor="middle" x="1653.8522" y="-878.7165" font-family="Times,serif" font-size="14.00" fill="#000000">childleaf the</text>
</g>
<!-- child g1 determiner&#45;&gt;childleaf the -->
<g id="edge16" class="edge">
<title>child g1 determiner&#45;&gt;childleaf the</title>
<path fill="none" stroke="#000000" d="M1377.1152,-595.8366C1426.9285,-647.5117 1572.2429,-798.2571 1629.8875,-858.0562"/>
<polygon fill="#000000" stroke="#000000" points="1627.6451,-860.7731 1637.1052,-865.5436 1632.6848,-855.9149 1627.6451,-860.7731"/>
</g>
<!-- childleaf State -->
<g id="node15" class="node">
<title>childleaf State</title>
<ellipse fill="none" stroke="#000000" cx="1182.0983" cy="-1006.15" rx="60.8704" ry="18"/>
<text text-anchor="middle" x="1182.0983" y="-1001.95" font-family="Times,serif" font-size="14.00" fill="#000000">childleaf State</text>
</g>
<!-- child g1 compound&#45;&gt;childleaf State -->
<g id="edge17" class="edge">
<title>child g1 compound&#45;&gt;childleaf State</title>
<path fill="none" stroke="#000000" d="M804.3282,-1017.1442C890.4449,-1014.6379 1028.0487,-1010.6333 1111.2636,-1008.2115"/>
<polygon fill="#000000" stroke="#000000" points="1111.4906,-1011.7065 1121.3845,-1007.917 1111.2869,-1004.7095 1111.4906,-1011.7065"/>
</g>
</g>
</svg>
