<?xml version="1.0" encoding="UTF-8" standalone="no"?>
<!DOCTYPE svg PUBLIC "-//W3C//DTD SVG 1.1//EN"
 "http://www.w3.org/Graphics/SVG/1.1/DTD/svg11.dtd">
<!-- Generated by graphviz version 2.40.1 (20161225.0304)
 -->
<!-- Title: %3 Pages: 1 -->
<svg width="579pt" height="327pt"
 viewBox="0.00 0.00 579.00 327.00" xmlns="http://www.w3.org/2000/svg" xmlns:xlink="http://www.w3.org/1999/xlink">
<g id="graph0" class="graph" transform="scale(1 1) rotate(0) translate(4 323.0042)">
<title>%3</title>
<polygon fill="#ffffff" stroke="transparent" points="-4,4 -4,-323.0042 575.0028,-323.0042 575.0028,4 -4,4"/>
<!-- LAW -->
<g id="node1" class="node">
<title>LAW</title>
<ellipse fill="none" stroke="#000000" cx="258.8454" cy="-119.7257" rx="29.5766" ry="18"/>
<text text-anchor="middle" x="258.8454" y="-115.5257" font-family="Times,serif" font-size="14.00" fill="#000000">LAW</text>
<text text-anchor="middle" x="225.8071" y="-140.5257" font-family="Times,serif" font-size="14.00" fill="#000000">1</text>
</g>
<!-- head g1 head of prep phrase -->
<g id="node2" class="node">
<title>head g1 head of prep phrase</title>
<ellipse fill="none" stroke="#000000" cx="440.8862" cy="-194.7936" rx="109.6053" ry="18"/>
<text text-anchor="middle" x="440.8862" y="-190.5936" font-family="Times,serif" font-size="14.00" fill="#000000">head g1 head of prep phrase</text>
</g>
<!-- LAW&#45;&gt;head g1 head of prep phrase -->
<g id="edge1" class="edge">
<title>LAW&#45;&gt;head g1 head of prep phrase</title>
<path fill="none" stroke="#000000" d="M283.3962,-129.8497C310.7187,-141.1166 355.6112,-159.6289 390.4905,-174.012"/>
<polygon fill="#000000" stroke="#000000" points="389.4606,-177.3732 400.0398,-177.9498 392.1293,-170.9018 389.4606,-177.3732"/>
<text text-anchor="middle" x="328.5073" y="-156.7011" font-family="Times,serif" font-size="14.00" fill="#000000">head</text>
</g>
<!-- child g1 determiner -->
<g id="node4" class="node">
<title>child g1 determiner</title>
<ellipse fill="none" stroke="#000000" cx="209.3512" cy="-247.5659" rx="79.2126" ry="18"/>
<text text-anchor="middle" x="209.3512" y="-243.3659" font-family="Times,serif" font-size="14.00" fill="#000000">child g1 determiner</text>
</g>
<!-- LAW&#45;&gt;child g1 determiner -->
<g id="edge2" class="edge">
<title>LAW&#45;&gt;child g1 determiner</title>
<path fill="none" stroke="#000000" d="M251.9634,-137.5014C243.6992,-158.8474 229.7433,-194.8945 220.065,-219.893"/>
<polygon fill="#000000" stroke="#000000" points="216.6808,-218.94 216.3343,-229.5291 223.2087,-221.4673 216.6808,-218.94"/>
<text text-anchor="middle" x="220.1228" y="-186.3914" font-family="Times,serif" font-size="14.00" fill="#000000">child</text>
</g>
<!-- child g1 compound -->
<g id="node6" class="node">
<title>child g1 compound</title>
<ellipse fill="none" stroke="#000000" cx="175.5909" cy="-27.6421" rx="78.278" ry="18"/>
<text text-anchor="middle" x="175.5909" y="-23.4421" font-family="Times,serif" font-size="14.00" fill="#000000">child g1 compound</text>
</g>
<!-- LAW&#45;&gt;child g1 compound -->
<g id="edge3" class="edge">
<title>LAW&#45;&gt;child g1 compound</title>
<path fill="none" stroke="#000000" d="M244.3435,-103.686C231.692,-89.6928 213.1197,-69.1508 198.4664,-52.9435"/>
<polygon fill="#000000" stroke="#000000" points="200.9336,-50.4536 191.6308,-45.3831 195.7412,-55.1481 200.9336,-50.4536"/>
<text text-anchor="middle" x="203.9891" y="-77.3329" font-family="Times,serif" font-size="14.00" fill="#000000">child</text>
</g>
<!-- headleaf stepped -->
<g id="node3" class="node">
<title>headleaf stepped</title>
<ellipse fill="none" stroke="#000000" cx="362.897" cy="-18" rx="69.0562" ry="18"/>
<text text-anchor="middle" x="362.897" y="-13.8" font-family="Times,serif" font-size="14.00" fill="#000000">headleaf stepped</text>
</g>
<!-- head g1 head of prep phrase&#45;&gt;headleaf stepped -->
<g id="edge4" class="edge">
<title>head g1 head of prep phrase&#45;&gt;headleaf stepped</title>
<path fill="none" stroke="#000000" d="M432.8337,-176.5395C419.1023,-145.4117 391.0842,-81.8976 374.9907,-45.4152"/>
<polygon fill="#000000" stroke="#000000" points="378.0279,-43.6282 370.7895,-35.8915 371.6233,-46.4535 378.0279,-43.6282"/>
</g>
<!-- head g2 ROOT -->
<g id="node8" class="node">
<title>head g2 ROOT</title>
<ellipse fill="none" stroke="#000000" cx="506.8636" cy="-59.273" rx="64.2787" ry="18"/>
<text text-anchor="middle" x="506.8636" y="-55.073" font-family="Times,serif" font-size="14.00" fill="#000000">head g2 ROOT</text>
</g>
<!-- headleaf stepped&#45;&gt;head g2 ROOT -->
<g id="edge5" class="edge">
<title>headleaf stepped&#45;&gt;head g2 ROOT</title>
<path fill="none" stroke="#000000" d="M409.6388,-31.4002C423.1167,-35.2641 437.9464,-39.5155 451.8756,-43.5088"/>
<polygon fill="#000000" stroke="#000000" points="451.2495,-46.9702 461.8269,-46.3617 453.1787,-40.2413 451.2495,-46.9702"/>
<text text-anchor="middle" x="422.3954" y="-41.6455" font-family="Times,serif" font-size="14.00" fill="#000000">head</text>
</g>
<!-- childleaf the -->
<g id="node5" class="node">
<title>childleaf the</title>
<ellipse fill="none" stroke="#000000" cx="367.3755" cy="-301.0042" rx="54.1129" ry="18"/>
<text text-anchor="middle" x="367.3755" y="-296.8042" font-family="Times,serif" font-size="14.00" fill="#000000">childleaf the</text>
</g>
<!-- child g1 determiner&#45;&gt;childleaf the -->
<g id="edge6" class="edge">
<title>child g1 determiner&#45;&gt;childleaf the</title>
<path fill="none" stroke="#000000" d="M253.7903,-262.5937C274.3591,-269.5493 298.8216,-277.8217 319.7675,-284.9048"/>
<polygon fill="#000000" stroke="#000000" points="318.8308,-288.2828 329.4251,-288.1707 321.0733,-281.6516 318.8308,-288.2828"/>
</g>
<!-- childleaf Oslo -->
<g id="node7" class="node">
<title>childleaf Oslo</title>
<ellipse fill="none" stroke="#000000" cx="59.9593" cy="-155.9239" rx="59.9186" ry="18"/>
<text text-anchor="middle" x="59.9593" y="-151.7239" font-family="Times,serif" font-size="14.00" fill="#000000">childleaf Oslo</text>
</g>
<!-- child g1 compound&#45;&gt;childleaf Oslo -->
<g id="edge7" class="edge">
<title>child g1 compound&#45;&gt;childleaf Oslo</title>
<path fill="none" stroke="#000000" d="M159.5128,-45.4791C139.5784,-67.5943 105.4695,-105.4348 82.8195,-130.5627"/>
<polygon fill="#000000" stroke="#000000" points="79.9964,-128.4671 75.9008,-138.2384 85.1959,-133.1539 79.9964,-128.4671"/>
</g>
<!-- head g2 ROOT&#45;&gt;headleaf stepped -->
<g id="edge8" class="edge">
<title>head g2 ROOT&#45;&gt;headleaf stepped</title>
<path fill="none" stroke="#000000" d="M461.7067,-46.3272C448.4354,-42.5225 433.7445,-38.3109 419.8376,-34.324"/>
<polygon fill="#000000" stroke="#000000" points="420.4587,-30.8611 409.8814,-31.4697 418.5296,-37.5901 420.4587,-30.8611"/>
</g>
</g>
</svg>
