<?xml version="1.0" encoding="UTF-8" standalone="no"?>
<!DOCTYPE svg PUBLIC "-//W3C//DTD SVG 1.1//EN"
 "http://www.w3.org/Graphics/SVG/1.1/DTD/svg11.dtd">
<!-- Generated by graphviz version 2.40.1 (20161225.0304)
 -->
<!-- Title: %3 Pages: 1 -->
<svg width="454pt" height="302pt"
 viewBox="0.00 0.00 453.76 301.89" xmlns="http://www.w3.org/2000/svg" xmlns:xlink="http://www.w3.org/1999/xlink">
<g id="graph0" class="graph" transform="scale(1 1) rotate(0) translate(4 297.8874)">
<title>%3</title>
<polygon fill="#ffffff" stroke="transparent" points="-4,4 -4,-297.8874 449.7606,-297.8874 449.7606,4 -4,4"/>
<!-- LAW -->
<g id="node1" class="node">
<title>LAW</title>
<ellipse fill="none" stroke="#000000" cx="184.1768" cy="-51.3432" rx="29.5766" ry="18"/>
<text text-anchor="middle" x="184.1768" y="-47.1432" font-family="Times,serif" font-size="14.00" fill="#000000">LAW</text>
<text text-anchor="middle" x="151.1385" y="-72.1432" font-family="Times,serif" font-size="14.00" fill="#000000">1</text>
</g>
<!-- head g1 head of prep phrase -->
<g id="node2" class="node">
<title>head g1 head of prep phrase</title>
<ellipse fill="none" stroke="#000000" cx="336.208" cy="-145.0963" rx="109.6053" ry="18"/>
<text text-anchor="middle" x="336.208" y="-140.8963" font-family="Times,serif" font-size="14.00" fill="#000000">head g1 head of prep phrase</text>
</g>
<!-- LAW&#45;&gt;head g1 head of prep phrase -->
<g id="edge1" class="edge">
<title>LAW&#45;&gt;head g1 head of prep phrase</title>
<path fill="none" stroke="#000000" d="M204.9973,-64.1826C229.1706,-79.0896 269.501,-103.9601 299.0802,-122.2007"/>
<polygon fill="#000000" stroke="#000000" points="297.5361,-125.3605 307.885,-127.6304 301.2104,-119.4023 297.5361,-125.3605"/>
<text text-anchor="middle" x="243.52" y="-98.887" font-family="Times,serif" font-size="14.00" fill="#000000">head</text>
</g>
<!-- child g1 determiner -->
<g id="node4" class="node">
<title>child g1 determiner</title>
<ellipse fill="none" stroke="#000000" cx="171.0813" cy="-218.1715" rx="79.2126" ry="18"/>
<text text-anchor="middle" x="171.0813" y="-213.9715" font-family="Times,serif" font-size="14.00" fill="#000000">child g1 determiner</text>
</g>
<!-- LAW&#45;&gt;child g1 determiner -->
<g id="edge2" class="edge">
<title>LAW&#45;&gt;child g1 determiner</title>
<path fill="none" stroke="#000000" d="M182.7504,-69.5143C180.4773,-98.4713 176.0151,-155.3169 173.3155,-189.7092"/>
<polygon fill="#000000" stroke="#000000" points="169.7993,-189.7795 172.5059,-200.0228 176.7778,-190.3274 169.7993,-189.7795"/>
<text text-anchor="middle" x="163.6251" y="-137.6511" font-family="Times,serif" font-size="14.00" fill="#000000">child</text>
</g>
<!-- child g1 compound -->
<g id="node6" class="node">
<title>child g1 compound</title>
<ellipse fill="none" stroke="#000000" cx="81.3215" cy="-175.2689" rx="78.278" ry="18"/>
<text text-anchor="middle" x="81.3215" y="-171.0689" font-family="Times,serif" font-size="14.00" fill="#000000">child g1 compound</text>
</g>
<!-- LAW&#45;&gt;child g1 compound -->
<g id="edge3" class="edge">
<title>LAW&#45;&gt;child g1 compound</title>
<path fill="none" stroke="#000000" d="M170.7302,-67.5443C153.4115,-88.4109 123.1088,-124.9213 102.6358,-149.5883"/>
<polygon fill="#000000" stroke="#000000" points="99.796,-147.5296 96.1026,-157.4598 105.1824,-152.0002 99.796,-147.5296"/>
<text text-anchor="middle" x="119.5335" y="-115.1651" font-family="Times,serif" font-size="14.00" fill="#000000">child</text>
</g>
<!-- stepped -->
<g id="node3" class="node">
<title>stepped</title>
<ellipse fill="none" stroke="#000000" cx="330.081" cy="-18" rx="37.2421" ry="18"/>
<text text-anchor="middle" x="330.081" y="-13.8" font-family="Times,serif" font-size="14.00" fill="#000000">stepped</text>
</g>
<!-- head g1 head of prep phrase&#45;&gt;stepped -->
<g id="edge4" class="edge">
<title>head g1 head of prep phrase&#45;&gt;stepped</title>
<path fill="none" stroke="#000000" d="M335.3301,-126.8865C334.3155,-105.84 332.6336,-70.9495 331.4475,-46.3451"/>
<polygon fill="#000000" stroke="#000000" points="334.9348,-45.9959 330.9572,-36.176 327.9429,-46.333 334.9348,-45.9959"/>
</g>
<!-- the -->
<g id="node5" class="node">
<title>the</title>
<ellipse fill="none" stroke="#000000" cx="272.9011" cy="-275.8874" rx="27" ry="18"/>
<text text-anchor="middle" x="272.9011" y="-271.6874" font-family="Times,serif" font-size="14.00" fill="#000000">the</text>
</g>
<!-- child g1 determiner&#45;&gt;the -->
<g id="edge5" class="edge">
<title>child g1 determiner&#45;&gt;the</title>
<path fill="none" stroke="#000000" d="M200.8055,-235.0205C214.1594,-242.59 229.8802,-251.5013 243.228,-259.0674"/>
<polygon fill="#000000" stroke="#000000" points="241.6059,-262.1711 252.0314,-264.0575 245.0578,-256.0813 241.6059,-262.1711"/>
</g>
<!-- Oslo -->
<g id="node7" class="node">
<title>Oslo</title>
<ellipse fill="none" stroke="#000000" cx="27" cy="-91.4619" rx="27" ry="18"/>
<text text-anchor="middle" x="27" y="-87.2619" font-family="Times,serif" font-size="14.00" fill="#000000">Oslo</text>
</g>
<!-- child g1 compound&#45;&gt;Oslo -->
<g id="edge6" class="edge">
<title>child g1 compound&#45;&gt;Oslo</title>
<path fill="none" stroke="#000000" d="M69.5345,-157.0841C61.8779,-145.2714 51.7908,-129.7091 43.3615,-116.7043"/>
<polygon fill="#000000" stroke="#000000" points="46.217,-114.6749 37.8408,-108.1871 40.343,-118.4823 46.217,-114.6749"/>
</g>
</g>
</svg>
