<?xml version="1.0" encoding="UTF-8" standalone="no"?>
<!DOCTYPE svg PUBLIC "-//W3C//DTD SVG 1.1//EN"
 "http://www.w3.org/Graphics/SVG/1.1/DTD/svg11.dtd">
<!-- Generated by graphviz version 2.40.1 (20161225.0304)
 -->
<!-- Title: %3 Pages: 1 -->
<svg width="2533pt" height="1932pt"
 viewBox="0.00 0.00 2532.79 1931.57" xmlns="http://www.w3.org/2000/svg" xmlns:xlink="http://www.w3.org/1999/xlink">
<g id="graph0" class="graph" transform="scale(1 1) rotate(0) translate(4 1927.5666)">
<title>%3</title>
<polygon fill="#ffffff" stroke="transparent" points="-4,4 -4,-1927.5666 2528.7881,-1927.5666 2528.7881,4 -4,4"/>
<!-- LOC -->
<g id="node1" class="node">
<title>LOC</title>
<ellipse fill="none" stroke="#000000" cx="1211.7307" cy="-1167.1891" rx="27.589" ry="18"/>
<text text-anchor="middle" x="1211.7307" y="-1162.9891" font-family="Times,serif" font-size="14.00" fill="#000000">LOC</text>
<text text-anchor="middle" x="1176.9369" y="-1187.9891" font-family="Times,serif" font-size="14.00" fill="#000000">13</text>
</g>
<!-- head g1 head of prep phrase -->
<g id="node2" class="node">
<title>head g1 head of prep phrase</title>
<ellipse fill="none" stroke="#000000" cx="1286.4049" cy="-937.2704" rx="109.6053" ry="18"/>
<text text-anchor="middle" x="1286.4049" y="-933.0704" font-family="Times,serif" font-size="14.00" fill="#000000">head g1 head of prep phrase</text>
</g>
<!-- LOC&#45;&gt;head g1 head of prep phrase -->
<g id="edge1" class="edge">
<title>LOC&#45;&gt;head g1 head of prep phrase</title>
<path fill="none" stroke="#000000" d="M1217.4663,-1149.5295C1230.3842,-1109.7558 1261.8401,-1012.9043 1277.3936,-965.016"/>
<polygon fill="#000000" stroke="#000000" points="1280.7866,-965.8994 1280.5468,-955.3073 1274.1289,-963.737 1280.7866,-965.8994"/>
<text text-anchor="middle" x="1235.7748" y="-1055.2734" font-family="Times,serif" font-size="14.00" fill="#000000">head</text>
</g>
<!-- child g1 determiner -->
<g id="node4" class="node">
<title>child g1 determiner</title>
<ellipse fill="none" stroke="#000000" cx="1273.2765" cy="-1432.261" rx="79.2126" ry="18"/>
<text text-anchor="middle" x="1273.2765" y="-1428.061" font-family="Times,serif" font-size="14.00" fill="#000000">child g1 determiner</text>
</g>
<!-- LOC&#45;&gt;child g1 determiner -->
<g id="edge2" class="edge">
<title>LOC&#45;&gt;child g1 determiner</title>
<path fill="none" stroke="#000000" d="M1215.8644,-1184.9928C1226.3504,-1230.1548 1254.0514,-1349.4606 1266.7496,-1404.1504"/>
<polygon fill="#000000" stroke="#000000" points="1263.4086,-1405.2364 1269.0797,-1414.1857 1270.2272,-1403.6532 1263.4086,-1405.2364"/>
<text text-anchor="middle" x="1228.4403" y="-1302.2379" font-family="Times,serif" font-size="14.00" fill="#000000">child</text>
</g>
<!-- child g1 compound -->
<g id="node6" class="node">
<title>child g1 compound</title>
<ellipse fill="none" stroke="#000000" cx="997.756" cy="-1413.3869" rx="78.278" ry="18"/>
<text text-anchor="middle" x="997.756" y="-1409.1869" font-family="Times,serif" font-size="14.00" fill="#000000">child g1 compound</text>
</g>
<!-- LOC&#45;&gt;child g1 compound -->
<g id="edge3" class="edge">
<title>LOC&#45;&gt;child g1 compound</title>
<path fill="none" stroke="#000000" d="M1198.0201,-1182.9644C1161.9474,-1224.4694 1064.1415,-1337.0042 1019.9549,-1387.8451"/>
<polygon fill="#000000" stroke="#000000" points="1017.2594,-1385.6109 1013.3412,-1395.4547 1022.5428,-1390.2029 1017.2594,-1385.6109"/>
<text text-anchor="middle" x="1091.762" y="-1291.9199" font-family="Times,serif" font-size="14.00" fill="#000000">child</text>
</g>
<!-- head g1 compound -->
<g id="node16" class="node">
<title>head g1 compound</title>
<ellipse fill="none" stroke="#000000" cx="945.346" cy="-1153.495" rx="77.3003" ry="18"/>
<text text-anchor="middle" x="945.346" y="-1149.295" font-family="Times,serif" font-size="14.00" fill="#000000">head g1 compound</text>
</g>
<!-- LOC&#45;&gt;head g1 compound -->
<g id="edge4" class="edge">
<title>LOC&#45;&gt;head g1 compound</title>
<path fill="none" stroke="#000000" d="M1183.7263,-1165.7495C1147.7727,-1163.9012 1083.7436,-1160.6097 1031.0928,-1157.903"/>
<polygon fill="#000000" stroke="#000000" points="1031.2318,-1154.4056 1021.0652,-1157.3875 1030.8723,-1161.3964 1031.2318,-1154.4056"/>
<text text-anchor="middle" x="1089.5674" y="-1164.3883" font-family="Times,serif" font-size="14.00" fill="#000000">head</text>
</g>
<!-- head g1 attribute -->
<g id="node20" class="node">
<title>head g1 attribute</title>
<ellipse fill="none" stroke="#000000" cx="1634.7467" cy="-1090.2088" rx="69.565" ry="18"/>
<text text-anchor="middle" x="1634.7467" y="-1086.0088" font-family="Times,serif" font-size="14.00" fill="#000000">head g1 attribute</text>
</g>
<!-- LOC&#45;&gt;head g1 attribute -->
<g id="edge5" class="edge">
<title>LOC&#45;&gt;head g1 attribute</title>
<path fill="none" stroke="#000000" d="M1238.5131,-1162.3152C1303.7868,-1150.4368 1472.6654,-1119.7043 1567.5319,-1102.4405"/>
<polygon fill="#000000" stroke="#000000" points="1568.3868,-1105.8425 1577.5986,-1100.6086 1567.1335,-1098.9556 1568.3868,-1105.8425"/>
<text text-anchor="middle" x="1394.8247" y="-1134.265" font-family="Times,serif" font-size="14.00" fill="#000000">head</text>
</g>
<!-- child g1 adjectival modifier -->
<g id="node23" class="node">
<title>child g1 adjectival modifier</title>
<ellipse fill="none" stroke="#000000" cx="1536.9082" cy="-1361.3231" rx="107.7104" ry="18"/>
<text text-anchor="middle" x="1536.9082" y="-1357.1231" font-family="Times,serif" font-size="14.00" fill="#000000">child g1 adjectival modifier</text>
</g>
<!-- LOC&#45;&gt;child g1 adjectival modifier -->
<g id="edge6" class="edge">
<title>LOC&#45;&gt;child g1 adjectival modifier</title>
<path fill="none" stroke="#000000" d="M1232.5667,-1179.6284C1286.2278,-1211.6646 1429.7811,-1297.3672 1498.8073,-1338.5765"/>
<polygon fill="#000000" stroke="#000000" points="1497.2587,-1341.7282 1507.6391,-1343.8492 1500.847,-1335.7179 1497.2587,-1341.7282"/>
<text text-anchor="middle" x="1356.1527" y="-1264.5665" font-family="Times,serif" font-size="14.00" fill="#000000">child</text>
</g>
<!-- headleaf situation -->
<g id="node3" class="node">
<title>headleaf situation</title>
<ellipse fill="none" stroke="#000000" cx="1321.1857" cy="-472.1747" rx="72.9478" ry="18"/>
<text text-anchor="middle" x="1321.1857" y="-467.9747" font-family="Times,serif" font-size="14.00" fill="#000000">headleaf situation</text>
</g>
<!-- head g1 head of prep phrase&#45;&gt;headleaf situation -->
<g id="edge7" class="edge">
<title>head g1 head of prep phrase&#45;&gt;headleaf situation</title>
<path fill="none" stroke="#000000" d="M1287.7684,-919.0381C1293.104,-847.6887 1312.5923,-587.0871 1319.0736,-500.4185"/>
<polygon fill="#000000" stroke="#000000" points="1322.5761,-500.5142 1319.8317,-490.281 1315.5956,-499.9921 1322.5761,-500.5142"/>
</g>
<!-- headleaf signed -->
<g id="node10" class="node">
<title>headleaf signed</title>
<ellipse fill="none" stroke="#000000" cx="1064.0586" cy="-464.9411" rx="65.2055" ry="18"/>
<text text-anchor="middle" x="1064.0586" y="-460.7411" font-family="Times,serif" font-size="14.00" fill="#000000">headleaf signed</text>
</g>
<!-- head g1 head of prep phrase&#45;&gt;headleaf signed -->
<g id="edge8" class="edge">
<title>head g1 head of prep phrase&#45;&gt;headleaf signed</title>
<path fill="none" stroke="#000000" d="M1268.6607,-919.4335C1236.4928,-886.0813 1168.4897,-810.7347 1131.807,-734.5776 1092.0963,-652.1342 1074.0463,-543.9178 1067.3537,-493.3194"/>
<polygon fill="#000000" stroke="#000000" points="1070.7935,-492.6236 1066.0599,-483.145 1063.8494,-493.5067 1070.7935,-492.6236"/>
</g>
<!-- headleaf Tensions -->
<g id="node12" class="node">
<title>headleaf Tensions</title>
<ellipse fill="none" stroke="#000000" cx="1619.2332" cy="-822.3657" rx="73.3463" ry="18"/>
<text text-anchor="middle" x="1619.2332" y="-818.1657" font-family="Times,serif" font-size="14.00" fill="#000000">headleaf Tensions</text>
</g>
<!-- head g1 head of prep phrase&#45;&gt;headleaf Tensions -->
<g id="edge9" class="edge">
<title>head g1 head of prep phrase&#45;&gt;headleaf Tensions</title>
<path fill="none" stroke="#000000" d="M1333.7376,-920.9294C1395.4477,-899.6248 1503.0352,-862.4816 1567.0471,-840.3823"/>
<polygon fill="#000000" stroke="#000000" points="1568.2383,-843.6739 1576.5486,-837.102 1565.9539,-837.0571 1568.2383,-843.6739"/>
</g>
<!-- headleaf torn -->
<g id="node15" class="node">
<title>headleaf torn</title>
<ellipse fill="none" stroke="#000000" cx="1192.8367" cy="-734.6157" rx="56.5182" ry="18"/>
<text text-anchor="middle" x="1192.8367" y="-730.4157" font-family="Times,serif" font-size="14.00" fill="#000000">headleaf torn</text>
</g>
<!-- head g1 head of prep phrase&#45;&gt;headleaf torn -->
<g id="edge10" class="edge">
<title>head g1 head of prep phrase&#45;&gt;headleaf torn</title>
<path fill="none" stroke="#000000" d="M1278.1014,-919.2862C1261.6283,-883.6081 1224.733,-803.6984 1205.3216,-761.6562"/>
<polygon fill="#000000" stroke="#000000" points="1208.4912,-760.1715 1201.1216,-752.5597 1202.1359,-763.1059 1208.4912,-760.1715"/>
</g>
<!-- headleaf off -->
<g id="node28" class="node">
<title>headleaf off</title>
<ellipse fill="none" stroke="#000000" cx="1404.0852" cy="-764.4684" rx="52.3399" ry="18"/>
<text text-anchor="middle" x="1404.0852" y="-760.2684" font-family="Times,serif" font-size="14.00" fill="#000000">headleaf off</text>
</g>
<!-- head g1 head of prep phrase&#45;&gt;headleaf off -->
<g id="edge11" class="edge">
<title>head g1 head of prep phrase&#45;&gt;headleaf off</title>
<path fill="none" stroke="#000000" d="M1298.7763,-919.1042C1319.7209,-888.3492 1362.2323,-825.9254 1386.3453,-790.5176"/>
<polygon fill="#000000" stroke="#000000" points="1389.3191,-792.369 1392.0551,-782.1335 1383.5333,-788.4288 1389.3191,-792.369"/>
</g>
<!-- headleaf one -->
<g id="node34" class="node">
<title>headleaf one</title>
<ellipse fill="none" stroke="#000000" cx="1416.3358" cy="-1074.2998" rx="55.0647" ry="18"/>
<text text-anchor="middle" x="1416.3358" y="-1070.0998" font-family="Times,serif" font-size="14.00" fill="#000000">headleaf one</text>
</g>
<!-- head g1 head of prep phrase&#45;&gt;headleaf one -->
<g id="edge12" class="edge">
<title>head g1 head of prep phrase&#45;&gt;headleaf one</title>
<path fill="none" stroke="#000000" d="M1303.3911,-955.1846C1326.1803,-979.2188 1366.7664,-1022.0223 1392.5763,-1049.2422"/>
<polygon fill="#000000" stroke="#000000" points="1390.3358,-1051.9661 1399.7563,-1056.8145 1395.4154,-1047.1497 1390.3358,-1051.9661"/>
</g>
<!-- headleaf better -->
<g id="node35" class="node">
<title>headleaf better</title>
<ellipse fill="none" stroke="#000000" cx="962.3211" cy="-730.2749" rx="62.2895" ry="18"/>
<text text-anchor="middle" x="962.3211" y="-726.0749" font-family="Times,serif" font-size="14.00" fill="#000000">headleaf better</text>
</g>
<!-- head g1 head of prep phrase&#45;&gt;headleaf better -->
<g id="edge13" class="edge">
<title>head g1 head of prep phrase&#45;&gt;headleaf better</title>
<path fill="none" stroke="#000000" d="M1259.053,-919.8005C1200.1712,-882.1921 1061.5128,-793.6296 996.7609,-752.2719"/>
<polygon fill="#000000" stroke="#000000" points="998.4422,-749.1928 988.1306,-746.7597 994.6742,-755.0922 998.4422,-749.1928"/>
</g>
<!-- headleaf troops -->
<g id="node37" class="node">
<title>headleaf troops</title>
<ellipse fill="none" stroke="#000000" cx="1580.9787" cy="-501.7312" rx="64.245" ry="18"/>
<text text-anchor="middle" x="1580.9787" y="-497.5312" font-family="Times,serif" font-size="14.00" fill="#000000">headleaf troops</text>
</g>
<!-- head g1 head of prep phrase&#45;&gt;headleaf troops -->
<g id="edge14" class="edge">
<title>head g1 head of prep phrase&#45;&gt;headleaf troops</title>
<path fill="none" stroke="#000000" d="M1309.0672,-919.4515C1345.0306,-890.2454 1415.697,-828.96 1460.6985,-764.509 1515.2692,-686.3531 1555.0882,-579.4732 1571.9955,-529.5489"/>
<polygon fill="#000000" stroke="#000000" points="1575.4063,-530.3846 1575.2526,-519.7909 1568.7664,-528.1682 1575.4063,-530.3846"/>
</g>
<!-- headleaf heading -->
<g id="node39" class="node">
<title>headleaf heading</title>
<ellipse fill="none" stroke="#000000" cx="1102.1283" cy="-957.048" rx="70.0167" ry="18"/>
<text text-anchor="middle" x="1102.1283" y="-952.848" font-family="Times,serif" font-size="14.00" fill="#000000">headleaf heading</text>
</g>
<!-- head g1 head of prep phrase&#45;&gt;headleaf heading -->
<g id="edge15" class="edge">
<title>head g1 head of prep phrase&#45;&gt;headleaf heading</title>
<path fill="none" stroke="#000000" d="M1194.5365,-947.1303C1188.7328,-947.7531 1182.9277,-948.3762 1177.2133,-948.9895"/>
<polygon fill="#000000" stroke="#000000" points="1176.6145,-945.5336 1167.0452,-950.0808 1177.3616,-952.4936 1176.6145,-945.5336"/>
</g>
<!-- headleaf future -->
<g id="node42" class="node">
<title>headleaf future</title>
<ellipse fill="none" stroke="#000000" cx="727.2806" cy="-485.5017" rx="63.2586" ry="18"/>
<text text-anchor="middle" x="727.2806" y="-481.3017" font-family="Times,serif" font-size="14.00" fill="#000000">headleaf future</text>
</g>
<!-- head g1 head of prep phrase&#45;&gt;headleaf future -->
<g id="edge16" class="edge">
<title>head g1 head of prep phrase&#45;&gt;headleaf future</title>
<path fill="none" stroke="#000000" d="M1264.4866,-919.5606C1177.2931,-849.1088 854.9952,-588.6942 756.2362,-508.8977"/>
<polygon fill="#000000" stroke="#000000" points="758.4253,-506.1667 748.4473,-502.6043 754.0259,-511.6115 758.4253,-506.1667"/>
</g>
<!-- head g2 direct object -->
<g id="node8" class="node">
<title>head g2 direct object</title>
<ellipse fill="none" stroke="#000000" cx="1518.6718" cy="-56.119" rx="84.0308" ry="18"/>
<text text-anchor="middle" x="1518.6718" y="-51.919" font-family="Times,serif" font-size="14.00" fill="#000000">head g2 direct object</text>
</g>
<!-- headleaf situation&#45;&gt;head g2 direct object -->
<g id="edge17" class="edge">
<title>headleaf situation&#45;&gt;head g2 direct object</title>
<path fill="none" stroke="#000000" d="M1329.6715,-454.2973C1360.6819,-388.9657 1468.0136,-162.8437 1505.5707,-83.7199"/>
<polygon fill="#000000" stroke="#000000" points="1508.8691,-84.9332 1509.9953,-74.3983 1502.5453,-81.9315 1508.8691,-84.9332"/>
<text text-anchor="middle" x="1406.5191" y="-267.3594" font-family="Times,serif" font-size="14.00" fill="#000000">head</text>
</g>
<!-- childleaf the -->
<g id="node5" class="node">
<title>childleaf the</title>
<ellipse fill="none" stroke="#000000" cx="1531.0922" cy="-1741.4519" rx="54.1129" ry="18"/>
<text text-anchor="middle" x="1531.0922" y="-1737.2519" font-family="Times,serif" font-size="14.00" fill="#000000">childleaf the</text>
</g>
<!-- child g1 determiner&#45;&gt;childleaf the -->
<g id="edge18" class="edge">
<title>child g1 determiner&#45;&gt;childleaf the</title>
<path fill="none" stroke="#000000" d="M1288.2521,-1450.2208C1331.8747,-1502.5361 1458.9589,-1654.9445 1509.7522,-1715.8595"/>
<polygon fill="#000000" stroke="#000000" points="1507.3042,-1718.3889 1516.3965,-1723.8277 1512.6804,-1713.9059 1507.3042,-1718.3889"/>
</g>
<!-- childleaf gonna -->
<g id="node22" class="node">
<title>childleaf gonna</title>
<ellipse fill="none" stroke="#000000" cx="1296.4353" cy="-1905.5666" rx="64.7295" ry="18"/>
<text text-anchor="middle" x="1296.4353" y="-1901.3666" font-family="Times,serif" font-size="14.00" fill="#000000">childleaf gonna</text>
</g>
<!-- child g1 determiner&#45;&gt;childleaf gonna -->
<g id="edge19" class="edge">
<title>child g1 determiner&#45;&gt;childleaf gonna</title>
<path fill="none" stroke="#000000" d="M1274.1701,-1450.5251C1277.7092,-1522.8537 1290.7576,-1789.5295 1295.0538,-1877.3311"/>
<polygon fill="#000000" stroke="#000000" points="1291.5597,-1877.5399 1295.5443,-1887.3569 1298.5513,-1877.1977 1291.5597,-1877.5399"/>
</g>
<!-- childleaf Middle -->
<g id="node7" class="node">
<title>childleaf Middle</title>
<ellipse fill="none" stroke="#000000" cx="120.7887" cy="-1808.942" rx="68.5974" ry="18"/>
<text text-anchor="middle" x="120.7887" y="-1804.742" font-family="Times,serif" font-size="14.00" fill="#000000">childleaf Middle</text>
</g>
<!-- child g1 compound&#45;&gt;childleaf Middle -->
<g id="edge20" class="edge">
<title>child g1 compound&#45;&gt;childleaf Middle</title>
<path fill="none" stroke="#000000" d="M962.0178,-1429.5066C822.8821,-1492.2636 317.5668,-1720.1854 164.8203,-1789.0816"/>
<polygon fill="#000000" stroke="#000000" points="163.3729,-1785.8948 155.6964,-1793.1969 166.2511,-1792.2758 163.3729,-1785.8948"/>
</g>
<!-- childleaf Ellis -->
<g id="node25" class="node">
<title>childleaf Ellis</title>
<ellipse fill="none" stroke="#000000" cx="671.6799" cy="-1841.4707" rx="59.434" ry="18"/>
<text text-anchor="middle" x="671.6799" y="-1837.2707" font-family="Times,serif" font-size="14.00" fill="#000000">childleaf Ellis</text>
</g>
<!-- child g1 compound&#45;&gt;childleaf Ellis -->
<g id="edge21" class="edge">
<title>child g1 compound&#45;&gt;childleaf Ellis</title>
<path fill="none" stroke="#000000" d="M984.1601,-1431.2361C932.9905,-1498.4133 751.8433,-1736.2295 691.4432,-1815.5247"/>
<polygon fill="#000000" stroke="#000000" points="688.6091,-1813.4694 685.3338,-1823.5453 694.1776,-1817.7111 688.6091,-1813.4694"/>
</g>
<!-- childleaf Asia -->
<g id="node32" class="node">
<title>childleaf Asia</title>
<ellipse fill="none" stroke="#000000" cx="1011.1992" cy="-1819.0801" rx="58.9581" ry="18"/>
<text text-anchor="middle" x="1011.1992" y="-1814.8801" font-family="Times,serif" font-size="14.00" fill="#000000">childleaf Asia</text>
</g>
<!-- child g1 compound&#45;&gt;childleaf Asia -->
<g id="edge22" class="edge">
<title>child g1 compound&#45;&gt;childleaf Asia</title>
<path fill="none" stroke="#000000" d="M998.3598,-1431.6068C1000.4921,-1495.9574 1007.6799,-1712.8735 1010.2641,-1790.8587"/>
<polygon fill="#000000" stroke="#000000" points="1006.7678,-1791.0318 1010.5971,-1800.9104 1013.7639,-1790.7999 1006.7678,-1791.0318"/>
</g>
<!-- headleaf help -->
<g id="node9" class="node">
<title>headleaf help</title>
<ellipse fill="none" stroke="#000000" cx="1254.8306" cy="-18" rx="57.4786" ry="18"/>
<text text-anchor="middle" x="1254.8306" y="-13.8" font-family="Times,serif" font-size="14.00" fill="#000000">headleaf help</text>
</g>
<!-- head g2 direct object&#45;&gt;headleaf help -->
<g id="edge23" class="edge">
<title>head g2 direct object&#45;&gt;headleaf help</title>
<path fill="none" stroke="#000000" d="M1449.0055,-46.0538C1408.1355,-40.149 1356.9217,-32.7498 1317.3531,-27.0331"/>
<polygon fill="#000000" stroke="#000000" points="1317.6969,-23.5465 1307.2991,-25.5805 1316.6959,-30.4745 1317.6969,-23.5465"/>
</g>
<!-- headleaf has -->
<g id="node38" class="node">
<title>headleaf has</title>
<ellipse fill="none" stroke="#000000" cx="1859.7602" cy="-47.6526" rx="54.1043" ry="18"/>
<text text-anchor="middle" x="1859.7602" y="-43.4526" font-family="Times,serif" font-size="14.00" fill="#000000">headleaf has</text>
</g>
<!-- head g2 direct object&#45;&gt;headleaf has -->
<g id="edge24" class="edge">
<title>head g2 direct object&#45;&gt;headleaf has</title>
<path fill="none" stroke="#000000" d="M1602.5483,-54.037C1662.1251,-52.5582 1740.9203,-50.6024 1795.5271,-49.247"/>
<polygon fill="#000000" stroke="#000000" points="1795.8622,-52.7398 1805.7722,-48.9927 1795.6884,-45.742 1795.8622,-52.7398"/>
</g>
<!-- head g2 ROOT -->
<g id="node11" class="node">
<title>head g2 ROOT</title>
<ellipse fill="none" stroke="#000000" cx="984.0679" cy="-41.9628" rx="64.2787" ry="18"/>
<text text-anchor="middle" x="984.0679" y="-37.7628" font-family="Times,serif" font-size="14.00" fill="#000000">head g2 ROOT</text>
</g>
<!-- headleaf signed&#45;&gt;head g2 ROOT -->
<g id="edge25" class="edge">
<title>headleaf signed&#45;&gt;head g2 ROOT</title>
<path fill="none" stroke="#000000" d="M1060.6215,-446.7662C1048.0578,-380.3316 1004.5657,-150.352 989.3634,-69.9646"/>
<polygon fill="#000000" stroke="#000000" points="992.7895,-69.2454 987.4922,-60.0699 985.9114,-70.5461 992.7895,-69.2454"/>
<text text-anchor="middle" x="1010.8337" y="-256.169" font-family="Times,serif" font-size="14.00" fill="#000000">head</text>
</g>
<!-- head g2 ROOT&#45;&gt;headleaf signed -->
<g id="edge26" class="edge">
<title>head g2 ROOT&#45;&gt;headleaf signed</title>
<path fill="none" stroke="#000000" d="M987.505,-60.1376C1000.0687,-126.5723 1043.5608,-356.5518 1058.7631,-436.9393"/>
<polygon fill="#000000" stroke="#000000" points="1055.337,-437.6585 1060.6343,-446.834 1062.2151,-436.3577 1055.337,-437.6585"/>
</g>
<!-- head g2 ROOT&#45;&gt;headleaf torn -->
<g id="edge27" class="edge">
<title>head g2 ROOT&#45;&gt;headleaf torn</title>
<path fill="none" stroke="#000000" d="M991.5381,-60.2417C1015.1329,-118.4902 1089.1861,-305.2941 1134.639,-465.002 1159.3679,-551.892 1179.2555,-657.139 1188.0074,-706.4984"/>
<polygon fill="#000000" stroke="#000000" points="1184.5748,-707.1877 1189.7516,-716.4317 1191.4693,-705.977 1184.5748,-707.1877"/>
</g>
<!-- head g2 nominal subject -->
<g id="node13" class="node">
<title>head g2 nominal subject</title>
<ellipse fill="none" stroke="#000000" cx="1931.1589" cy="-947.3124" rx="96.1184" ry="18"/>
<text text-anchor="middle" x="1931.1589" y="-943.1124" font-family="Times,serif" font-size="14.00" fill="#000000">head g2 nominal subject</text>
</g>
<!-- headleaf Tensions&#45;&gt;head g2 nominal subject -->
<g id="edge28" class="edge">
<title>headleaf Tensions&#45;&gt;head g2 nominal subject</title>
<path fill="none" stroke="#000000" d="M1657.7943,-837.812C1713.9586,-860.3095 1818.3357,-902.1193 1880.5959,-927.0587"/>
<polygon fill="#000000" stroke="#000000" points="1879.6285,-930.4414 1890.2129,-930.9109 1882.2314,-923.9433 1879.6285,-930.4414"/>
<text text-anchor="middle" x="1760.8898" y="-887.2015" font-family="Times,serif" font-size="14.00" fill="#000000">head</text>
</g>
<!-- headleaf remain -->
<g id="node14" class="node">
<title>headleaf remain</title>
<ellipse fill="none" stroke="#000000" cx="2419.5494" cy="-696.5578" rx="66.6333" ry="18"/>
<text text-anchor="middle" x="2419.5494" y="-692.3578" font-family="Times,serif" font-size="14.00" fill="#000000">headleaf remain</text>
</g>
<!-- head g2 nominal subject&#45;&gt;headleaf remain -->
<g id="edge29" class="edge">
<title>head g2 nominal subject&#45;&gt;headleaf remain</title>
<path fill="none" stroke="#000000" d="M1964.344,-930.2742C2051.1943,-885.6826 2284.9673,-765.6564 2379.2804,-717.2332"/>
<polygon fill="#000000" stroke="#000000" points="2380.9303,-720.3205 2388.2277,-712.6393 2377.7331,-714.0933 2380.9303,-720.3205"/>
</g>
<!-- headleaf is -->
<g id="node30" class="node">
<title>headleaf is</title>
<ellipse fill="none" stroke="#000000" cx="2398.372" cy="-105.724" rx="48.325" ry="18"/>
<text text-anchor="middle" x="2398.372" y="-101.524" font-family="Times,serif" font-size="14.00" fill="#000000">headleaf is</text>
</g>
<!-- head g2 nominal subject&#45;&gt;headleaf is -->
<g id="edge30" class="edge">
<title>head g2 nominal subject&#45;&gt;headleaf is</title>
<path fill="none" stroke="#000000" d="M1941.1334,-929.3453C2000.9338,-821.6273 2311.7489,-261.7577 2383.5565,-132.411"/>
<polygon fill="#000000" stroke="#000000" points="2386.697,-133.9649 2388.4908,-123.523 2380.5769,-130.5672 2386.697,-133.9649"/>
</g>
<!-- headleaf torn&#45;&gt;head g2 ROOT -->
<g id="edge31" class="edge">
<title>headleaf torn&#45;&gt;head g2 ROOT</title>
<path fill="none" stroke="#000000" d="M1189.7516,-716.4317C1182.1479,-672.6829 1161.1824,-558.2676 1134.639,-465.002 1091.4055,-313.0923 1022.2965,-136.6682 995.346,-69.6756"/>
<polygon fill="#000000" stroke="#000000" points="998.5268,-68.2047 991.5381,-60.2417 992.0356,-70.8249 998.5268,-68.2047"/>
<text text-anchor="middle" x="1096.3027" y="-385.2321" font-family="Times,serif" font-size="14.00" fill="#000000">head</text>
</g>
<!-- headleaf states -->
<g id="node17" class="node">
<title>headleaf states</title>
<ellipse fill="none" stroke="#000000" cx="880.1187" cy="-938.3181" rx="61.8222" ry="18"/>
<text text-anchor="middle" x="880.1187" y="-934.1181" font-family="Times,serif" font-size="14.00" fill="#000000">headleaf states</text>
</g>
<!-- head g1 compound&#45;&gt;headleaf states -->
<g id="edge32" class="edge">
<title>head g1 compound&#45;&gt;headleaf states</title>
<path fill="none" stroke="#000000" d="M939.8969,-1135.5193C928.5062,-1097.9425 902.1084,-1010.8595 888.5258,-966.052"/>
<polygon fill="#000000" stroke="#000000" points="891.8487,-964.9487 885.5982,-956.3941 885.1497,-966.9794 891.8487,-964.9487"/>
</g>
<!-- headleaf nations -->
<g id="node31" class="node">
<title>headleaf nations</title>
<ellipse fill="none" stroke="#000000" cx="590.9167" cy="-1065.0968" rx="67.6197" ry="18"/>
<text text-anchor="middle" x="590.9167" y="-1060.8968" font-family="Times,serif" font-size="14.00" fill="#000000">headleaf nations</text>
</g>
<!-- head g1 compound&#45;&gt;headleaf nations -->
<g id="edge33" class="edge">
<title>head g1 compound&#45;&gt;headleaf nations</title>
<path fill="none" stroke="#000000" d="M892.2843,-1140.2609C827.5358,-1124.112 718.3509,-1096.8802 650.6956,-1080.0063"/>
<polygon fill="#000000" stroke="#000000" points="651.1661,-1076.5165 640.6163,-1077.4924 649.4721,-1083.3084 651.1661,-1076.5165"/>
</g>
<!-- head g2 head of prep phrase -->
<g id="node18" class="node">
<title>head g2 head of prep phrase</title>
<ellipse fill="none" stroke="#000000" cx="611.1271" cy="-773.1438" rx="109.6053" ry="18"/>
<text text-anchor="middle" x="611.1271" y="-768.9438" font-family="Times,serif" font-size="14.00" fill="#000000">head g2 head of prep phrase</text>
</g>
<!-- headleaf states&#45;&gt;head g2 head of prep phrase -->
<g id="edge34" class="edge">
<title>headleaf states&#45;&gt;head g2 head of prep phrase</title>
<path fill="none" stroke="#000000" d="M853.3434,-921.8767C805.1315,-892.2722 703.6255,-829.9425 648.5615,-796.1304"/>
<polygon fill="#000000" stroke="#000000" points="650.1674,-793.0094 639.8143,-790.7592 646.5045,-798.9745 650.1674,-793.0094"/>
<text text-anchor="middle" x="733.5719" y="-859.245" font-family="Times,serif" font-size="14.00" fill="#000000">head</text>
</g>
<!-- headleaf have -->
<g id="node19" class="node">
<title>headleaf have</title>
<ellipse fill="none" stroke="#000000" cx="58.9575" cy="-905.5716" rx="58.915" ry="18"/>
<text text-anchor="middle" x="58.9575" y="-901.3716" font-family="Times,serif" font-size="14.00" fill="#000000">headleaf have</text>
</g>
<!-- head g2 head of prep phrase&#45;&gt;headleaf have -->
<g id="edge35" class="edge">
<title>head g2 head of prep phrase&#45;&gt;headleaf have</title>
<path fill="none" stroke="#000000" d="M549.1267,-788.0134C441.0198,-813.9409 219.6346,-867.0361 115.4877,-892.0139"/>
<polygon fill="#000000" stroke="#000000" points="114.39,-888.6778 105.4821,-894.4135 116.0226,-895.4848 114.39,-888.6778"/>
</g>
<!-- headleaf meeting -->
<g id="node33" class="node">
<title>headleaf meeting</title>
<ellipse fill="none" stroke="#000000" cx="102.685" cy="-73.8012" rx="70.5013" ry="18"/>
<text text-anchor="middle" x="102.685" y="-69.6012" font-family="Times,serif" font-size="14.00" fill="#000000">headleaf meeting</text>
</g>
<!-- head g2 head of prep phrase&#45;&gt;headleaf meeting -->
<g id="edge36" class="edge">
<title>head g2 head of prep phrase&#45;&gt;headleaf meeting</title>
<path fill="none" stroke="#000000" d="M598.0478,-755.1538C528.666,-659.7217 203.7517,-212.8145 121.5957,-99.8121"/>
<polygon fill="#000000" stroke="#000000" points="124.3892,-97.7024 115.6778,-91.6722 118.7273,-101.8187 124.3892,-97.7024"/>
</g>
<!-- headleaf change -->
<g id="node36" class="node">
<title>headleaf change</title>
<ellipse fill="none" stroke="#000000" cx="642.3019" cy="-48.3317" rx="67.1093" ry="18"/>
<text text-anchor="middle" x="642.3019" y="-44.1317" font-family="Times,serif" font-size="14.00" fill="#000000">headleaf change</text>
</g>
<!-- head g2 head of prep phrase&#45;&gt;headleaf change -->
<g id="edge37" class="edge">
<title>head g2 head of prep phrase&#45;&gt;headleaf change</title>
<path fill="none" stroke="#000000" d="M611.9133,-754.8645C616.1165,-657.1395 635.9361,-196.3361 641.0799,-76.7431"/>
<polygon fill="#000000" stroke="#000000" points="644.5848,-76.7028 641.5179,-66.5616 637.5913,-76.4019 644.5848,-76.7028"/>
</g>
<!-- headleaf optimistic -->
<g id="node43" class="node">
<title>headleaf optimistic</title>
<ellipse fill="none" stroke="#000000" cx="176.6632" cy="-549.26" rx="77.7754" ry="18"/>
<text text-anchor="middle" x="176.6632" y="-545.06" font-family="Times,serif" font-size="14.00" fill="#000000">headleaf optimistic</text>
</g>
<!-- head g2 head of prep phrase&#45;&gt;headleaf optimistic -->
<g id="edge38" class="edge">
<title>head g2 head of prep phrase&#45;&gt;headleaf optimistic</title>
<path fill="none" stroke="#000000" d="M577.7568,-755.9477C499.2492,-715.4919 303.0568,-614.3919 217.5625,-570.3358"/>
<polygon fill="#000000" stroke="#000000" points="219.1613,-567.2224 208.6689,-565.7528 215.9548,-573.4448 219.1613,-567.2224"/>
</g>
<!-- headleaf become -->
<g id="node21" class="node">
<title>headleaf become</title>
<ellipse fill="none" stroke="#000000" cx="1893.7247" cy="-1342.157" rx="69.5235" ry="18"/>
<text text-anchor="middle" x="1893.7247" y="-1337.957" font-family="Times,serif" font-size="14.00" fill="#000000">headleaf become</text>
</g>
<!-- head g1 attribute&#45;&gt;headleaf become -->
<g id="edge39" class="edge">
<title>head g1 attribute&#45;&gt;headleaf become</title>
<path fill="none" stroke="#000000" d="M1652.9576,-1107.9253C1698.2792,-1152.0167 1816.2287,-1266.7646 1868.3397,-1317.461"/>
<polygon fill="#000000" stroke="#000000" points="1865.9257,-1319.9956 1875.534,-1324.46 1870.8069,-1314.9782 1865.9257,-1319.9956"/>
</g>
<!-- head g2 clausal complement -->
<g id="node26" class="node">
<title>head g2 clausal complement</title>
<ellipse fill="none" stroke="#000000" cx="2414.2466" cy="-1191.3872" rx="110.583" ry="18"/>
<text text-anchor="middle" x="2414.2466" y="-1187.1872" font-family="Times,serif" font-size="14.00" fill="#000000">head g2 clausal complement</text>
</g>
<!-- headleaf become&#45;&gt;head g2 clausal complement -->
<g id="edge40" class="edge">
<title>headleaf become&#45;&gt;head g2 clausal complement</title>
<path fill="none" stroke="#000000" d="M1940.3757,-1328.6445C2033.7807,-1301.5896 2243.8877,-1240.7318 2350.1357,-1209.957"/>
<polygon fill="#000000" stroke="#000000" points="2351.1446,-1213.3087 2359.7761,-1207.1646 2349.1971,-1206.585 2351.1446,-1213.3087"/>
<text text-anchor="middle" x="2136.766" y="-1270.7323" font-family="Times,serif" font-size="14.00" fill="#000000">head</text>
</g>
<!-- childleaf miniature -->
<g id="node24" class="node">
<title>childleaf miniature</title>
<ellipse fill="none" stroke="#000000" cx="1852.544" cy="-1847.0319" rx="77.2822" ry="18"/>
<text text-anchor="middle" x="1852.544" y="-1842.8319" font-family="Times,serif" font-size="14.00" fill="#000000">childleaf miniature</text>
</g>
<!-- child g1 adjectival modifier&#45;&gt;childleaf miniature -->
<g id="edge41" class="edge">
<title>child g1 adjectival modifier&#45;&gt;childleaf miniature</title>
<path fill="none" stroke="#000000" d="M1548.7054,-1379.477C1596.8056,-1453.4948 1778.2515,-1732.7086 1835.2795,-1820.465"/>
<polygon fill="#000000" stroke="#000000" points="1832.4714,-1822.5671 1840.8552,-1829.045 1838.341,-1818.7528 1832.4714,-1822.5671"/>
</g>
<!-- headleaf shows -->
<g id="node27" class="node">
<title>headleaf shows</title>
<ellipse fill="none" stroke="#000000" cx="2398.4475" cy="-1773.7765" rx="64.2536" ry="18"/>
<text text-anchor="middle" x="2398.4475" y="-1769.5765" font-family="Times,serif" font-size="14.00" fill="#000000">headleaf shows</text>
</g>
<!-- head g2 clausal complement&#45;&gt;headleaf shows -->
<g id="edge42" class="edge">
<title>head g2 clausal complement&#45;&gt;headleaf shows</title>
<path fill="none" stroke="#000000" d="M2413.7565,-1209.4555C2411.4875,-1293.0934 2401.9971,-1642.9297 2399.2163,-1745.4362"/>
<polygon fill="#000000" stroke="#000000" points="2395.7123,-1745.5401 2398.9397,-1755.6314 2402.7097,-1745.73 2395.7123,-1745.5401"/>
</g>
<!-- head g2 prepositional modifier -->
<g id="node29" class="node">
<title>head g2 prepositional modifier</title>
<ellipse fill="none" stroke="#000000" cx="1910.1689" cy="-557.7161" rx="118.3354" ry="18"/>
<text text-anchor="middle" x="1910.1689" y="-553.5161" font-family="Times,serif" font-size="14.00" fill="#000000">head g2 prepositional modifier</text>
</g>
<!-- headleaf off&#45;&gt;head g2 prepositional modifier -->
<g id="edge43" class="edge">
<title>headleaf off&#45;&gt;head g2 prepositional modifier</title>
<path fill="none" stroke="#000000" d="M1438.0766,-750.5818C1525.1161,-715.0232 1756.4016,-620.5352 1859.4263,-578.4462"/>
<polygon fill="#000000" stroke="#000000" points="1860.7582,-581.6829 1868.6918,-574.6609 1858.1109,-575.2028 1860.7582,-581.6829"/>
<text text-anchor="middle" x="1640.0676" y="-665.4633" font-family="Times,serif" font-size="14.00" fill="#000000">head</text>
</g>
<!-- head g2 prepositional modifier&#45;&gt;headleaf is -->
<g id="edge44" class="edge">
<title>head g2 prepositional modifier&#45;&gt;headleaf is</title>
<path fill="none" stroke="#000000" d="M1929.6083,-539.7185C2006.0511,-468.9457 2286.0255,-209.7375 2372.6525,-129.5359"/>
<polygon fill="#000000" stroke="#000000" points="2375.228,-131.9211 2380.1882,-122.5591 2370.4724,-126.7845 2375.228,-131.9211"/>
</g>
<!-- headleaf nations&#45;&gt;head g2 head of prep phrase -->
<g id="edge45" class="edge">
<title>headleaf nations&#45;&gt;head g2 head of prep phrase</title>
<path fill="none" stroke="#000000" d="M592.181,-1046.8338C595.5978,-997.4752 605.0362,-861.1313 609.1581,-801.5862"/>
<polygon fill="#000000" stroke="#000000" points="612.6642,-801.6177 609.8633,-791.3998 605.681,-801.1342 612.6642,-801.6177"/>
<text text-anchor="middle" x="587.7917" y="-922.1564" font-family="Times,serif" font-size="14.00" fill="#000000">head</text>
</g>
<!-- headleaf one&#45;&gt;head g2 nominal subject -->
<g id="edge46" class="edge">
<title>headleaf one&#45;&gt;head g2 nominal subject</title>
<path fill="none" stroke="#000000" d="M1460.6749,-1063.363C1550.788,-1041.1355 1755.8404,-990.5568 1863.0246,-964.1186"/>
<polygon fill="#000000" stroke="#000000" points="1863.8996,-967.5077 1872.7704,-961.7147 1862.2231,-960.7114 1863.8996,-967.5077"/>
<text text-anchor="middle" x="1653.3683" y="-1015.3735" font-family="Times,serif" font-size="14.00" fill="#000000">head</text>
</g>
<!-- headleaf better&#45;&gt;head g2 head of prep phrase -->
<g id="edge47" class="edge">
<title>headleaf better&#45;&gt;head g2 head of prep phrase</title>
<path fill="none" stroke="#000000" d="M904.7218,-737.3058C851.8014,-743.7656 772.2683,-753.4739 709.3237,-761.1573"/>
<polygon fill="#000000" stroke="#000000" points="708.8727,-757.6863 699.3705,-762.3722 709.7209,-764.6347 708.8727,-757.6863"/>
<text text-anchor="middle" x="788.6835" y="-752.6572" font-family="Times,serif" font-size="14.00" fill="#000000">head</text>
</g>
<!-- headleaf troops&#45;&gt;head g2 direct object -->
<g id="edge48" class="edge">
<title>headleaf troops&#45;&gt;head g2 direct object</title>
<path fill="none" stroke="#000000" d="M1578.459,-483.7108C1568.8404,-414.9198 1534.3872,-168.5139 1522.6336,-84.4531"/>
<polygon fill="#000000" stroke="#000000" points="1526.074,-83.7826 1521.2229,-74.3637 1519.1414,-84.752 1526.074,-83.7826"/>
<text text-anchor="middle" x="1536.6112" y="-281.7238" font-family="Times,serif" font-size="14.00" fill="#000000">head</text>
</g>
<!-- head g2 complement of preposition -->
<g id="node40" class="node">
<title>head g2 complement of preposition</title>
<ellipse fill="none" stroke="#000000" cx="650.0937" cy="-1383.5586" rx="135.2153" ry="18"/>
<text text-anchor="middle" x="650.0937" y="-1379.3586" font-family="Times,serif" font-size="14.00" fill="#000000">head g2 complement of preposition</text>
</g>
<!-- headleaf heading&#45;&gt;head g2 complement of preposition -->
<g id="edge49" class="edge">
<title>headleaf heading&#45;&gt;head g2 complement of preposition</title>
<path fill="none" stroke="#000000" d="M1079.0259,-974.1604C1035.107,-1007.0672 937.2184,-1082.2249 861.7551,-1153.3892 787.9178,-1223.0201 709.0438,-1313.7019 671.8673,-1357.554"/>
<polygon fill="#000000" stroke="#000000" points="668.9922,-1355.5336 665.2114,-1365.4309 674.339,-1360.0516 668.9922,-1355.5336"/>
<text text-anchor="middle" x="845.9434" y="-1158.6457" font-family="Times,serif" font-size="14.00" fill="#000000">head</text>
</g>
<!-- headleaf before -->
<g id="node41" class="node">
<title>headleaf before</title>
<ellipse fill="none" stroke="#000000" cx="114.8718" cy="-1304.5721" rx="64.6951" ry="18"/>
<text text-anchor="middle" x="114.8718" y="-1300.3721" font-family="Times,serif" font-size="14.00" fill="#000000">headleaf before</text>
</g>
<!-- head g2 complement of preposition&#45;&gt;headleaf before -->
<g id="edge50" class="edge">
<title>head g2 complement of preposition&#45;&gt;headleaf before</title>
<path fill="none" stroke="#000000" d="M559.3006,-1370.1596C452.5419,-1354.4044 277.8285,-1328.6207 182.362,-1314.5321"/>
<polygon fill="#000000" stroke="#000000" points="182.653,-1311.0372 172.2491,-1313.0396 181.631,-1317.9622 182.653,-1311.0372"/>
</g>
<!-- headleaf future&#45;&gt;head g2 head of prep phrase -->
<g id="edge51" class="edge">
<title>headleaf future&#45;&gt;head g2 head of prep phrase</title>
<path fill="none" stroke="#000000" d="M720.0146,-503.495C700.2958,-552.3266 645.6821,-687.5717 622.1496,-745.8477"/>
<polygon fill="#000000" stroke="#000000" points="618.8893,-744.5742 618.3902,-755.1573 625.38,-747.1953 618.8893,-744.5742"/>
<text text-anchor="middle" x="655.9448" y="-632.2346" font-family="Times,serif" font-size="14.00" fill="#000000">head</text>
</g>
</g>
</svg>
