<?xml version="1.0" encoding="UTF-8" standalone="no"?>
<!DOCTYPE svg PUBLIC "-//W3C//DTD SVG 1.1//EN"
 "http://www.w3.org/Graphics/SVG/1.1/DTD/svg11.dtd">
<!-- Generated by graphviz version 2.40.1 (20161225.0304)
 -->
<!-- Title: %3 Pages: 1 -->
<svg width="2347pt" height="1741pt"
 viewBox="0.00 0.00 2346.94 1740.73" xmlns="http://www.w3.org/2000/svg" xmlns:xlink="http://www.w3.org/1999/xlink">
<g id="graph0" class="graph" transform="scale(1 1) rotate(0) translate(4 1736.7336)">
<title>%3</title>
<polygon fill="#ffffff" stroke="transparent" points="-4,4 -4,-1736.7336 2342.9391,-1736.7336 2342.9391,4 -4,4"/>
<!-- LOC -->
<g id="node1" class="node">
<title>LOC</title>
<ellipse fill="none" stroke="#000000" cx="1129.3719" cy="-990.8432" rx="27.589" ry="18"/>
<text text-anchor="middle" x="1129.3719" y="-986.6432" font-family="Times,serif" font-size="14.00" fill="#000000">LOC</text>
<text text-anchor="middle" x="1094.5782" y="-1011.6432" font-family="Times,serif" font-size="14.00" fill="#000000">13</text>
</g>
<!-- head g1 head of prep phrase -->
<g id="node2" class="node">
<title>head g1 head of prep phrase</title>
<ellipse fill="none" stroke="#000000" cx="1224.4588" cy="-808.3701" rx="109.6053" ry="18"/>
<text text-anchor="middle" x="1224.4588" y="-804.1701" font-family="Times,serif" font-size="14.00" fill="#000000">head g1 head of prep phrase</text>
</g>
<!-- LOC&#45;&gt;head g1 head of prep phrase -->
<g id="edge1" class="edge">
<title>LOC&#45;&gt;head g1 head of prep phrase</title>
<path fill="none" stroke="#000000" d="M1138.3175,-973.6766C1154.8966,-941.8611 1190.5099,-873.5185 1210.3608,-835.4244"/>
<polygon fill="#000000" stroke="#000000" points="1213.5294,-836.9174 1215.0468,-826.4318 1207.3217,-833.6825 1213.5294,-836.9174"/>
<text text-anchor="middle" x="1163.3741" y="-903.035" font-family="Times,serif" font-size="14.00" fill="#000000">head</text>
</g>
<!-- child g1 determiner -->
<g id="node4" class="node">
<title>child g1 determiner</title>
<ellipse fill="none" stroke="#000000" cx="1345.806" cy="-1279.2417" rx="79.2126" ry="18"/>
<text text-anchor="middle" x="1345.806" y="-1275.0417" font-family="Times,serif" font-size="14.00" fill="#000000">child g1 determiner</text>
</g>
<!-- LOC&#45;&gt;child g1 determiner -->
<g id="edge2" class="edge">
<title>LOC&#45;&gt;child g1 determiner</title>
<path fill="none" stroke="#000000" d="M1141.6285,-1007.1751C1177.4379,-1054.8911 1282.1296,-1194.3928 1326.0508,-1252.918"/>
<polygon fill="#000000" stroke="#000000" points="1323.5151,-1255.3702 1332.3169,-1261.2675 1329.1139,-1251.1685 1323.5151,-1255.3702"/>
<text text-anchor="middle" x="1223.1609" y="-1137.2675" font-family="Times,serif" font-size="14.00" fill="#000000">child</text>
</g>
<!-- child g1 compound -->
<g id="node6" class="node">
<title>child g1 compound</title>
<ellipse fill="none" stroke="#000000" cx="882.134" cy="-1072.4794" rx="78.278" ry="18"/>
<text text-anchor="middle" x="882.134" y="-1068.2794" font-family="Times,serif" font-size="14.00" fill="#000000">child g1 compound</text>
</g>
<!-- LOC&#45;&gt;child g1 compound -->
<g id="edge3" class="edge">
<title>LOC&#45;&gt;child g1 compound</title>
<path fill="none" stroke="#000000" d="M1104.3049,-999.1202C1065.323,-1011.9917 989.2395,-1037.114 937.0678,-1054.3407"/>
<polygon fill="#000000" stroke="#000000" points="935.6931,-1051.1087 927.2948,-1057.5677 937.888,-1057.7557 935.6931,-1051.1087"/>
<text text-anchor="middle" x="1001.9664" y="-1031.0901" font-family="Times,serif" font-size="14.00" fill="#000000">child</text>
</g>
<!-- head g1 compound -->
<g id="node15" class="node">
<title>head g1 compound</title>
<ellipse fill="none" stroke="#000000" cx="1334.4261" cy="-1060.5772" rx="77.3003" ry="18"/>
<text text-anchor="middle" x="1334.4261" y="-1056.3772" font-family="Times,serif" font-size="14.00" fill="#000000">head g1 compound</text>
</g>
<!-- LOC&#45;&gt;head g1 compound -->
<g id="edge4" class="edge">
<title>LOC&#45;&gt;head g1 compound</title>
<path fill="none" stroke="#000000" d="M1154.1063,-999.2547C1185.3669,-1009.8857 1240.0343,-1028.4768 1281.0049,-1042.4099"/>
<polygon fill="#000000" stroke="#000000" points="1279.981,-1045.7585 1290.5754,-1045.6646 1282.2348,-1039.1312 1279.981,-1045.7585"/>
<text text-anchor="middle" x="1208.722" y="-1025.122" font-family="Times,serif" font-size="14.00" fill="#000000">head</text>
</g>
<!-- head g1 attribute -->
<g id="node19" class="node">
<title>head g1 attribute</title>
<ellipse fill="none" stroke="#000000" cx="882.0805" cy="-885.4668" rx="69.565" ry="18"/>
<text text-anchor="middle" x="882.0805" y="-881.2668" font-family="Times,serif" font-size="14.00" fill="#000000">head g1 attribute</text>
</g>
<!-- LOC&#45;&gt;head g1 attribute -->
<g id="edge5" class="edge">
<title>LOC&#45;&gt;head g1 attribute</title>
<path fill="none" stroke="#000000" d="M1106.1074,-980.9296C1065.4725,-963.6142 980.8708,-927.5635 928.0514,-905.056"/>
<polygon fill="#000000" stroke="#000000" points="929.1481,-901.7189 918.5764,-901.0185 926.404,-908.1586 929.1481,-901.7189"/>
<text text-anchor="middle" x="999.1683" y="-943.7912" font-family="Times,serif" font-size="14.00" fill="#000000">head</text>
</g>
<!-- child g1 adjectival modifier -->
<g id="node22" class="node">
<title>child g1 adjectival modifier</title>
<ellipse fill="none" stroke="#000000" cx="1101.63" cy="-1195.5739" rx="107.7104" ry="18"/>
<text text-anchor="middle" x="1101.63" y="-1191.3739" font-family="Times,serif" font-size="14.00" fill="#000000">child g1 adjectival modifier</text>
</g>
<!-- LOC&#45;&gt;child g1 adjectival modifier -->
<g id="edge6" class="edge">
<title>LOC&#45;&gt;child g1 adjectival modifier</title>
<path fill="none" stroke="#000000" d="M1126.91,-1009.0117C1122.0568,-1044.8276 1111.2249,-1124.7656 1105.4413,-1167.4472"/>
<polygon fill="#000000" stroke="#000000" points="1101.961,-1167.0667 1104.0864,-1177.4462 1108.8976,-1168.0067 1101.961,-1167.0667"/>
<text text-anchor="middle" x="1101.4853" y="-1096.1493" font-family="Times,serif" font-size="14.00" fill="#000000">child</text>
</g>
<!-- situation -->
<g id="node3" class="node">
<title>situation</title>
<ellipse fill="none" stroke="#000000" cx="1510.9815" cy="-427.4359" rx="40.6335" ry="18"/>
<text text-anchor="middle" x="1510.9815" y="-423.2359" font-family="Times,serif" font-size="14.00" fill="#000000">situation</text>
</g>
<!-- head g1 head of prep phrase&#45;&gt;situation -->
<g id="edge7" class="edge">
<title>head g1 head of prep phrase&#45;&gt;situation</title>
<path fill="none" stroke="#000000" d="M1238.0856,-790.2531C1284.6805,-728.3049 1437.7528,-524.7941 1491.8414,-452.8828"/>
<polygon fill="#000000" stroke="#000000" points="1494.7191,-454.8795 1497.9331,-444.7839 1489.1249,-450.6717 1494.7191,-454.8795"/>
</g>
<!-- signed -->
<g id="node10" class="node">
<title>signed</title>
<ellipse fill="none" stroke="#000000" cx="1374.5918" cy="-671.1482" rx="33.3925" ry="18"/>
<text text-anchor="middle" x="1374.5918" y="-666.9482" font-family="Times,serif" font-size="14.00" fill="#000000">signed</text>
</g>
<!-- head g1 head of prep phrase&#45;&gt;signed -->
<g id="edge8" class="edge">
<title>head g1 head of prep phrase&#45;&gt;signed</title>
<path fill="none" stroke="#000000" d="M1244.0861,-790.4307C1271.2283,-765.6227 1320.2187,-720.8453 1349.8397,-693.7717"/>
<polygon fill="#000000" stroke="#000000" points="1352.2671,-696.2947 1357.2872,-686.9647 1347.5445,-691.1278 1352.2671,-696.2947"/>
</g>
<!-- Tensions -->
<g id="node11" class="node">
<title>Tensions</title>
<ellipse fill="none" stroke="#000000" cx="1158.7073" cy="-612.7914" rx="41.3435" ry="18"/>
<text text-anchor="middle" x="1158.7073" y="-608.5914" font-family="Times,serif" font-size="14.00" fill="#000000">Tensions</text>
</g>
<!-- head g1 head of prep phrase&#45;&gt;Tensions -->
<g id="edge9" class="edge">
<title>head g1 head of prep phrase&#45;&gt;Tensions</title>
<path fill="none" stroke="#000000" d="M1218.3909,-790.3211C1206.8435,-755.9734 1181.6432,-681.0146 1167.9724,-640.3506"/>
<polygon fill="#000000" stroke="#000000" points="1171.2647,-639.1602 1164.7605,-630.7968 1164.6296,-641.3909 1171.2647,-639.1602"/>
</g>
<!-- torn -->
<g id="node14" class="node">
<title>torn</title>
<ellipse fill="none" stroke="#000000" cx="1366.6344" cy="-881.5754" rx="27" ry="18"/>
<text text-anchor="middle" x="1366.6344" y="-877.3754" font-family="Times,serif" font-size="14.00" fill="#000000">torn</text>
</g>
<!-- head g1 head of prep phrase&#45;&gt;torn -->
<g id="edge10" class="edge">
<title>head g1 head of prep phrase&#45;&gt;torn</title>
<path fill="none" stroke="#000000" d="M1257.7926,-825.5335C1281.4536,-837.7164 1312.9755,-853.9468 1336.005,-865.8045"/>
<polygon fill="#000000" stroke="#000000" points="1334.5046,-868.9687 1344.9975,-870.4347 1337.709,-862.7452 1334.5046,-868.9687"/>
</g>
<!-- off -->
<g id="node27" class="node">
<title>off</title>
<ellipse fill="none" stroke="#000000" cx="1249.8345" cy="-392.8155" rx="27" ry="18"/>
<text text-anchor="middle" x="1249.8345" y="-388.6155" font-family="Times,serif" font-size="14.00" fill="#000000">off</text>
</g>
<!-- head g1 head of prep phrase&#45;&gt;off -->
<g id="edge11" class="edge">
<title>head g1 head of prep phrase&#45;&gt;off</title>
<path fill="none" stroke="#000000" d="M1225.5655,-790.247C1229.556,-724.8983 1243.2266,-501.0278 1248.0953,-421.2963"/>
<polygon fill="#000000" stroke="#000000" points="1251.6059,-421.2288 1248.722,-411.034 1244.6189,-420.8021 1251.6059,-421.2288"/>
</g>
<!-- one -->
<g id="node33" class="node">
<title>one</title>
<ellipse fill="none" stroke="#000000" cx="896.4097" cy="-644.8828" rx="27" ry="18"/>
<text text-anchor="middle" x="896.4097" y="-640.6828" font-family="Times,serif" font-size="14.00" fill="#000000">one</text>
</g>
<!-- head g1 head of prep phrase&#45;&gt;one -->
<g id="edge12" class="edge">
<title>head g1 head of prep phrase&#45;&gt;one</title>
<path fill="none" stroke="#000000" d="M1189.9718,-791.1831C1125.7946,-759.1996 988.9778,-691.0152 927.481,-660.3676"/>
<polygon fill="#000000" stroke="#000000" points="928.7919,-657.1103 918.2806,-655.7824 925.6695,-663.3754 928.7919,-657.1103"/>
</g>
<!-- better -->
<g id="node34" class="node">
<title>better</title>
<ellipse fill="none" stroke="#000000" cx="1569.9284" cy="-956.9335" rx="30.4775" ry="18"/>
<text text-anchor="middle" x="1569.9284" y="-952.7335" font-family="Times,serif" font-size="14.00" fill="#000000">better</text>
</g>
<!-- head g1 head of prep phrase&#45;&gt;better -->
<g id="edge13" class="edge">
<title>head g1 head of prep phrase&#45;&gt;better</title>
<path fill="none" stroke="#000000" d="M1272.7288,-824.5408C1305.4207,-835.8502 1349.4094,-851.7672 1387.3756,-867.9111 1441.2905,-890.8366 1502.1195,-921.5034 1538.1763,-940.2056"/>
<polygon fill="#000000" stroke="#000000" points="1536.7405,-943.404 1547.2265,-944.9187 1539.9738,-937.1955 1536.7405,-943.404"/>
</g>
<!-- troops -->
<g id="node36" class="node">
<title>troops</title>
<ellipse fill="none" stroke="#000000" cx="1589.0399" cy="-706.7335" rx="32.4324" ry="18"/>
<text text-anchor="middle" x="1589.0399" y="-702.5335" font-family="Times,serif" font-size="14.00" fill="#000000">troops</text>
</g>
<!-- head g1 head of prep phrase&#45;&gt;troops -->
<g id="edge14" class="edge">
<title>head g1 head of prep phrase&#45;&gt;troops</title>
<path fill="none" stroke="#000000" d="M1280.2277,-792.8231C1354.8289,-772.026 1485.2152,-735.6774 1550.0854,-717.5931"/>
<polygon fill="#000000" stroke="#000000" points="1551.2228,-720.9096 1559.9155,-714.8527 1549.3429,-714.1667 1551.2228,-720.9096"/>
</g>
<!-- heading -->
<g id="node38" class="node">
<title>heading</title>
<ellipse fill="none" stroke="#000000" cx="1062.1396" cy="-800.5846" rx="38.2024" ry="18"/>
<text text-anchor="middle" x="1062.1396" y="-796.3846" font-family="Times,serif" font-size="14.00" fill="#000000">heading</text>
</g>
<!-- head g1 head of prep phrase&#45;&gt;heading -->
<g id="edge15" class="edge">
<title>head g1 head of prep phrase&#45;&gt;heading</title>
<path fill="none" stroke="#000000" d="M1118.911,-803.3076C1115.9477,-803.1654 1113.0323,-803.0256 1110.1825,-802.8889"/>
<polygon fill="#000000" stroke="#000000" points="1110.3397,-799.3925 1100.1834,-802.4093 1110.0043,-806.3845 1110.3397,-799.3925"/>
</g>
<!-- future -->
<g id="node41" class="node">
<title>future</title>
<ellipse fill="none" stroke="#000000" cx="1856.6726" cy="-829.879" rx="31.4462" ry="18"/>
<text text-anchor="middle" x="1856.6726" y="-825.679" font-family="Times,serif" font-size="14.00" fill="#000000">future</text>
</g>
<!-- head g1 head of prep phrase&#45;&gt;future -->
<g id="edge16" class="edge">
<title>head g1 head of prep phrase&#45;&gt;future</title>
<path fill="none" stroke="#000000" d="M1332.0633,-812.031C1474.2471,-816.8683 1718.0201,-825.1619 1815.0542,-828.4631"/>
<polygon fill="#000000" stroke="#000000" points="1815.2219,-831.9708 1825.3352,-828.8129 1815.46,-824.9748 1815.2219,-831.9708"/>
</g>
<!-- head g2 direct object -->
<g id="node8" class="node">
<title>head g2 direct object</title>
<ellipse fill="none" stroke="#000000" cx="1830.1895" cy="-472.9961" rx="84.0308" ry="18"/>
<text text-anchor="middle" x="1830.1895" y="-468.7961" font-family="Times,serif" font-size="14.00" fill="#000000">head g2 direct object</text>
</g>
<!-- situation&#45;&gt;head g2 direct object -->
<g id="edge17" class="edge">
<title>situation&#45;&gt;head g2 direct object</title>
<path fill="none" stroke="#000000" d="M1549.8035,-432.9769C1599.3257,-440.0451 1686.2089,-452.4459 1750.1723,-461.5753"/>
<polygon fill="#000000" stroke="#000000" points="1749.8378,-465.063 1760.232,-463.0111 1750.8269,-458.1332 1749.8378,-465.063"/>
<text text-anchor="middle" x="1641.9227" y="-450.811" font-family="Times,serif" font-size="14.00" fill="#000000">head</text>
</g>
<!-- the -->
<g id="node5" class="node">
<title>the</title>
<ellipse fill="none" stroke="#000000" cx="1326.0006" cy="-1714.7336" rx="27" ry="18"/>
<text text-anchor="middle" x="1326.0006" y="-1710.5336" font-family="Times,serif" font-size="14.00" fill="#000000">the</text>
</g>
<!-- child g1 determiner&#45;&gt;the -->
<g id="edge18" class="edge">
<title>child g1 determiner&#45;&gt;the</title>
<path fill="none" stroke="#000000" d="M1344.9802,-1297.3998C1341.8974,-1365.1862 1331.0473,-1603.7647 1327.2916,-1686.3476"/>
<polygon fill="#000000" stroke="#000000" points="1323.788,-1686.3493 1326.83,-1696.498 1330.7808,-1686.6674 1323.788,-1686.3493"/>
</g>
<!-- gonna -->
<g id="node21" class="node">
<title>gonna</title>
<ellipse fill="none" stroke="#000000" cx="954.7974" cy="-1683.236" rx="31.9393" ry="18"/>
<text text-anchor="middle" x="954.7974" y="-1679.036" font-family="Times,serif" font-size="14.00" fill="#000000">gonna</text>
</g>
<!-- child g1 determiner&#45;&gt;gonna -->
<g id="edge19" class="edge">
<title>child g1 determiner&#45;&gt;gonna</title>
<path fill="none" stroke="#000000" d="M1328.7534,-1296.8606C1266.0687,-1361.6271 1048.3668,-1586.559 977.3742,-1659.9093"/>
<polygon fill="#000000" stroke="#000000" points="974.6525,-1657.6888 970.2128,-1667.3085 979.6825,-1662.557 974.6525,-1657.6888"/>
</g>
<!-- Middle -->
<g id="node7" class="node">
<title>Middle</title>
<ellipse fill="none" stroke="#000000" cx="510.8501" cy="-1121.1663" rx="35.806" ry="18"/>
<text text-anchor="middle" x="510.8501" y="-1116.9663" font-family="Times,serif" font-size="14.00" fill="#000000">Middle</text>
</g>
<!-- child g1 compound&#45;&gt;Middle -->
<g id="edge20" class="edge">
<title>child g1 compound&#45;&gt;Middle</title>
<path fill="none" stroke="#000000" d="M814.0348,-1081.4094C738.8758,-1091.265 620.0499,-1106.8468 555.7496,-1115.2786"/>
<polygon fill="#000000" stroke="#000000" points="554.9947,-1111.8475 545.5347,-1116.6181 555.9049,-1118.7881 554.9947,-1111.8475"/>
</g>
<!-- Ellis -->
<g id="node24" class="node">
<title>Ellis</title>
<ellipse fill="none" stroke="#000000" cx="826.0237" cy="-1315.2185" rx="27" ry="18"/>
<text text-anchor="middle" x="826.0237" y="-1311.0185" font-family="Times,serif" font-size="14.00" fill="#000000">Ellis</text>
</g>
<!-- child g1 compound&#45;&gt;Ellis -->
<g id="edge21" class="edge">
<title>child g1 compound&#45;&gt;Ellis</title>
<path fill="none" stroke="#000000" d="M877.9166,-1090.7243C868.1611,-1132.9279 843.9885,-1237.5009 832.4079,-1287.5999"/>
<polygon fill="#000000" stroke="#000000" points="828.9797,-1286.8902 830.1375,-1297.4216 835.7999,-1288.4668 828.9797,-1286.8902"/>
</g>
<!-- Asia -->
<g id="node31" class="node">
<title>Asia</title>
<ellipse fill="none" stroke="#000000" cx="556.0576" cy="-1644.3594" rx="27" ry="18"/>
<text text-anchor="middle" x="556.0576" y="-1640.1594" font-family="Times,serif" font-size="14.00" fill="#000000">Asia</text>
</g>
<!-- child g1 compound&#45;&gt;Asia -->
<g id="edge22" class="edge">
<title>child g1 compound&#45;&gt;Asia</title>
<path fill="none" stroke="#000000" d="M871.8367,-1090.5392C824.3775,-1173.7741 626.6731,-1520.5124 570.8148,-1618.4779"/>
<polygon fill="#000000" stroke="#000000" points="567.63,-1616.9973 565.7173,-1627.4181 573.711,-1620.4646 567.63,-1616.9973"/>
</g>
<!-- help -->
<g id="node9" class="node">
<title>help</title>
<ellipse fill="none" stroke="#000000" cx="1754.9539" cy="-38.9952" rx="27" ry="18"/>
<text text-anchor="middle" x="1754.9539" y="-34.7952" font-family="Times,serif" font-size="14.00" fill="#000000">help</text>
</g>
<!-- head g2 direct object&#45;&gt;help -->
<g id="edge23" class="edge">
<title>head g2 direct object&#45;&gt;help</title>
<path fill="none" stroke="#000000" d="M1827.0525,-454.9001C1815.3298,-387.277 1774.0407,-149.0989 1759.8143,-67.0327"/>
<polygon fill="#000000" stroke="#000000" points="1763.261,-66.4236 1758.1043,-57.1684 1756.3638,-67.6193 1763.261,-66.4236"/>
</g>
<!-- has -->
<g id="node37" class="node">
<title>has</title>
<ellipse fill="none" stroke="#000000" cx="2263.4263" cy="-88.7026" rx="27" ry="18"/>
<text text-anchor="middle" x="2263.4263" y="-84.5026" font-family="Times,serif" font-size="14.00" fill="#000000">has</text>
</g>
<!-- head g2 direct object&#45;&gt;has -->
<g id="edge24" class="edge">
<title>head g2 direct object&#45;&gt;has</title>
<path fill="none" stroke="#000000" d="M1849.9306,-455.4852C1920.6844,-392.7245 2161.4779,-179.1338 2239.0978,-110.2827"/>
<polygon fill="#000000" stroke="#000000" points="2241.758,-112.6015 2246.9165,-103.3473 2237.1129,-107.3648 2241.758,-112.6015"/>
</g>
<!-- head g2 nominal subject -->
<g id="node12" class="node">
<title>head g2 nominal subject</title>
<ellipse fill="none" stroke="#000000" cx="953.4325" cy="-389.6789" rx="96.1184" ry="18"/>
<text text-anchor="middle" x="953.4325" y="-385.4789" font-family="Times,serif" font-size="14.00" fill="#000000">head g2 nominal subject</text>
</g>
<!-- Tensions&#45;&gt;head g2 nominal subject -->
<g id="edge25" class="edge">
<title>Tensions&#45;&gt;head g2 nominal subject</title>
<path fill="none" stroke="#000000" d="M1143.2783,-596.0217C1107.5811,-557.2226 1019.1191,-461.0735 976.7625,-415.0362"/>
<polygon fill="#000000" stroke="#000000" points="979.24,-412.5596 969.8935,-407.5702 974.0886,-417.2992 979.24,-412.5596"/>
<text text-anchor="middle" x="1043.5081" y="-504.7439" font-family="Times,serif" font-size="14.00" fill="#000000">head</text>
</g>
<!-- remain -->
<g id="node13" class="node">
<title>remain</title>
<ellipse fill="none" stroke="#000000" cx="1076.4201" cy="-18" rx="34.8198" ry="18"/>
<text text-anchor="middle" x="1076.4201" y="-13.8" font-family="Times,serif" font-size="14.00" fill="#000000">remain</text>
</g>
<!-- head g2 nominal subject&#45;&gt;remain -->
<g id="edge26" class="edge">
<title>head g2 nominal subject&#45;&gt;remain</title>
<path fill="none" stroke="#000000" d="M959.4477,-371.5004C979.3511,-311.3507 1043.1687,-118.4884 1067.1736,-45.9437"/>
<polygon fill="#000000" stroke="#000000" points="1070.5977,-46.7368 1070.4164,-36.1435 1063.9521,-44.5377 1070.5977,-46.7368"/>
</g>
<!-- is -->
<g id="node29" class="node">
<title>is</title>
<ellipse fill="none" stroke="#000000" cx="677.8097" cy="-34.4284" rx="27" ry="18"/>
<text text-anchor="middle" x="677.8097" y="-30.2284" font-family="Times,serif" font-size="14.00" fill="#000000">is</text>
</g>
<!-- head g2 nominal subject&#45;&gt;is -->
<g id="edge27" class="edge">
<title>head g2 nominal subject&#45;&gt;is</title>
<path fill="none" stroke="#000000" d="M939.3854,-371.5736C893.6112,-312.5752 748.7132,-125.816 696.6599,-58.7245"/>
<polygon fill="#000000" stroke="#000000" points="699.1228,-56.1892 690.2275,-50.4338 693.5922,-60.4802 699.1228,-56.1892"/>
</g>
<!-- states -->
<g id="node16" class="node">
<title>states</title>
<ellipse fill="none" stroke="#000000" cx="1555.3933" cy="-1559.3195" rx="29.5104" ry="18"/>
<text text-anchor="middle" x="1555.3933" y="-1555.1195" font-family="Times,serif" font-size="14.00" fill="#000000">states</text>
</g>
<!-- head g1 compound&#45;&gt;states -->
<g id="edge28" class="edge">
<title>head g1 compound&#45;&gt;states</title>
<path fill="none" stroke="#000000" d="M1342.4872,-1078.7273C1359.1332,-1116.2104 1398.5113,-1204.9009 1431.5089,-1279.3669 1472.6035,-1372.1055 1521.2787,-1482.1634 1543.3917,-1532.1738"/>
<polygon fill="#000000" stroke="#000000" points="1540.3276,-1533.8991 1547.5726,-1541.6296 1546.7297,-1531.0684 1540.3276,-1533.8991"/>
</g>
<!-- nations -->
<g id="node30" class="node">
<title>nations</title>
<ellipse fill="none" stroke="#000000" cx="1562.2585" cy="-1220.3063" rx="35.806" ry="18"/>
<text text-anchor="middle" x="1562.2585" y="-1216.1063" font-family="Times,serif" font-size="14.00" fill="#000000">nations</text>
</g>
<!-- head g1 compound&#45;&gt;nations -->
<g id="edge29" class="edge">
<title>head g1 compound&#45;&gt;nations</title>
<path fill="none" stroke="#000000" d="M1358.8082,-1077.671C1401.0829,-1107.309 1487.7983,-1168.1036 1533.1542,-1199.9018"/>
<polygon fill="#000000" stroke="#000000" points="1531.1878,-1202.7977 1541.3852,-1205.6724 1535.2063,-1197.066 1531.1878,-1202.7977"/>
</g>
<!-- head g2 head of prep phrase -->
<g id="node17" class="node">
<title>head g2 head of prep phrase</title>
<ellipse fill="none" stroke="#000000" cx="1848.7756" cy="-1178.849" rx="109.6053" ry="18"/>
<text text-anchor="middle" x="1848.7756" y="-1174.649" font-family="Times,serif" font-size="14.00" fill="#000000">head g2 head of prep phrase</text>
</g>
<!-- states&#45;&gt;head g2 head of prep phrase -->
<g id="edge30" class="edge">
<title>states&#45;&gt;head g2 head of prep phrase</title>
<path fill="none" stroke="#000000" d="M1567.9996,-1542.9712C1613.8459,-1483.5157 1771.982,-1278.4382 1828.4977,-1205.1463"/>
<polygon fill="#000000" stroke="#000000" points="1831.5369,-1206.9366 1834.8717,-1196.8802 1825.9936,-1202.662 1831.5369,-1206.9366"/>
<text text-anchor="middle" x="1688.0916" y="-1372.8945" font-family="Times,serif" font-size="14.00" fill="#000000">head</text>
</g>
<!-- have -->
<g id="node18" class="node">
<title>have</title>
<ellipse fill="none" stroke="#000000" cx="1838.4049" cy="-1644.7878" rx="27" ry="18"/>
<text text-anchor="middle" x="1838.4049" y="-1640.5878" font-family="Times,serif" font-size="14.00" fill="#000000">have</text>
</g>
<!-- head g2 head of prep phrase&#45;&gt;have -->
<g id="edge31" class="edge">
<title>head g2 head of prep phrase&#45;&gt;have</title>
<path fill="none" stroke="#000000" d="M1848.3691,-1197.1144C1846.7781,-1268.5932 1840.9672,-1529.6672 1839.0347,-1616.4929"/>
<polygon fill="#000000" stroke="#000000" points="1835.5321,-1616.5733 1838.8086,-1626.6488 1842.5304,-1616.7292 1835.5321,-1616.5733"/>
</g>
<!-- meeting -->
<g id="node32" class="node">
<title>meeting</title>
<ellipse fill="none" stroke="#000000" cx="2293.0465" cy="-1044.006" rx="38.6869" ry="18"/>
<text text-anchor="middle" x="2293.0465" y="-1039.806" font-family="Times,serif" font-size="14.00" fill="#000000">meeting</text>
</g>
<!-- head g2 head of prep phrase&#45;&gt;meeting -->
<g id="edge32" class="edge">
<title>head g2 head of prep phrase&#45;&gt;meeting</title>
<path fill="none" stroke="#000000" d="M1901.0456,-1162.9843C1990.0023,-1135.9846 2169.1094,-1081.6229 2250.7548,-1056.8422"/>
<polygon fill="#000000" stroke="#000000" points="2251.8962,-1060.1535 2260.4486,-1053.9 2249.8631,-1053.4553 2251.8962,-1060.1535"/>
</g>
<!-- change -->
<g id="node35" class="node">
<title>change</title>
<ellipse fill="none" stroke="#000000" cx="2291.0217" cy="-603.7991" rx="35.2956" ry="18"/>
<text text-anchor="middle" x="2291.0217" y="-599.5991" font-family="Times,serif" font-size="14.00" fill="#000000">change</text>
</g>
<!-- head g2 head of prep phrase&#45;&gt;change -->
<g id="edge33" class="edge">
<title>head g2 head of prep phrase&#45;&gt;change</title>
<path fill="none" stroke="#000000" d="M1862.7416,-1160.6892C1927.3749,-1076.6468 2197.469,-725.4451 2271.9367,-628.6151"/>
<polygon fill="#000000" stroke="#000000" points="2274.8118,-630.6179 2278.1337,-620.5573 2269.263,-626.3505 2274.8118,-630.6179"/>
</g>
<!-- optimistic -->
<g id="node42" class="node">
<title>optimistic</title>
<ellipse fill="none" stroke="#000000" cx="2293.4584" cy="-1571.6735" rx="45.4614" ry="18"/>
<text text-anchor="middle" x="2293.4584" y="-1567.4735" font-family="Times,serif" font-size="14.00" fill="#000000">optimistic</text>
</g>
<!-- head g2 head of prep phrase&#45;&gt;optimistic -->
<g id="edge34" class="edge">
<title>head g2 head of prep phrase&#45;&gt;optimistic</title>
<path fill="none" stroke="#000000" d="M1869.0382,-1196.7487C1941.1513,-1260.452 2185.3534,-1476.1756 2266.7838,-1548.1097"/>
<polygon fill="#000000" stroke="#000000" points="2264.7723,-1551.0028 2274.5841,-1555.0003 2269.4067,-1545.7566 2264.7723,-1551.0028"/>
</g>
<!-- become -->
<g id="node20" class="node">
<title>become</title>
<ellipse fill="none" stroke="#000000" cx="620.2364" cy="-802.2453" rx="37.7092" ry="18"/>
<text text-anchor="middle" x="620.2364" y="-798.0453" font-family="Times,serif" font-size="14.00" fill="#000000">become</text>
</g>
<!-- head g1 attribute&#45;&gt;become -->
<g id="edge35" class="edge">
<title>head g1 attribute&#45;&gt;become</title>
<path fill="none" stroke="#000000" d="M837.9583,-871.4435C788.7008,-855.788 709.6084,-830.6503 661.5298,-815.3695"/>
<polygon fill="#000000" stroke="#000000" points="662.3533,-811.9588 651.7629,-812.2653 660.233,-818.6299 662.3533,-811.9588"/>
</g>
<!-- head g2 clausal complement -->
<g id="node25" class="node">
<title>head g2 clausal complement</title>
<ellipse fill="none" stroke="#000000" cx="110.5415" cy="-794.6207" rx="110.583" ry="18"/>
<text text-anchor="middle" x="110.5415" y="-790.4207" font-family="Times,serif" font-size="14.00" fill="#000000">head g2 clausal complement</text>
</g>
<!-- become&#45;&gt;head g2 clausal complement -->
<g id="edge36" class="edge">
<title>become&#45;&gt;head g2 clausal complement</title>
<path fill="none" stroke="#000000" d="M582.3429,-801.6784C508.9992,-800.5813 344.8425,-798.1256 230.922,-796.4215"/>
<polygon fill="#000000" stroke="#000000" points="230.7997,-792.9194 220.7484,-796.2693 230.6949,-799.9186 230.7997,-792.9194"/>
<text text-anchor="middle" x="388.0948" y="-801.7703" font-family="Times,serif" font-size="14.00" fill="#000000">head</text>
</g>
<!-- miniature -->
<g id="node23" class="node">
<title>miniature</title>
<ellipse fill="none" stroke="#000000" cx="1160.6769" cy="-1416.7232" rx="43.9905" ry="18"/>
<text text-anchor="middle" x="1160.6769" y="-1412.5232" font-family="Times,serif" font-size="14.00" fill="#000000">miniature</text>
</g>
<!-- child g1 adjectival modifier&#45;&gt;miniature -->
<g id="edge37" class="edge">
<title>child g1 adjectival modifier&#45;&gt;miniature</title>
<path fill="none" stroke="#000000" d="M1106.4621,-1213.6715C1116.7599,-1252.2399 1140.9274,-1342.7548 1153.2173,-1388.7846"/>
<polygon fill="#000000" stroke="#000000" points="1149.8997,-1389.9271 1155.8609,-1398.6857 1156.6628,-1388.1213 1149.8997,-1389.9271"/>
</g>
<!-- shows -->
<g id="node26" class="node">
<title>shows</title>
<ellipse fill="none" stroke="#000000" cx="97.289" cy="-1491.0488" rx="32.4411" ry="18"/>
<text text-anchor="middle" x="97.289" y="-1486.8488" font-family="Times,serif" font-size="14.00" fill="#000000">shows</text>
</g>
<!-- head g2 clausal complement&#45;&gt;shows -->
<g id="edge38" class="edge">
<title>head g2 clausal complement&#45;&gt;shows</title>
<path fill="none" stroke="#000000" d="M110.1938,-812.8905C108.3838,-908.0074 100.0376,-1346.6077 97.8274,-1462.7588"/>
<polygon fill="#000000" stroke="#000000" points="94.3241,-1462.9055 97.6331,-1472.9703 101.3228,-1463.0388 94.3241,-1462.9055"/>
</g>
<!-- head g2 prepositional modifier -->
<g id="node28" class="node">
<title>head g2 prepositional modifier</title>
<ellipse fill="none" stroke="#000000" cx="1402.3186" cy="-33.4204" rx="118.3354" ry="18"/>
<text text-anchor="middle" x="1402.3186" y="-29.2204" font-family="Times,serif" font-size="14.00" fill="#000000">head g2 prepositional modifier</text>
</g>
<!-- off&#45;&gt;head g2 prepositional modifier -->
<g id="edge39" class="edge">
<title>off&#45;&gt;head g2 prepositional modifier</title>
<path fill="none" stroke="#000000" d="M1257.1891,-375.4812C1281.6845,-317.7473 1360.6421,-131.6493 1390.6229,-60.9865"/>
<polygon fill="#000000" stroke="#000000" points="1393.9947,-62.0002 1394.6786,-51.4274 1387.5507,-59.2661 1393.9947,-62.0002"/>
<text text-anchor="middle" x="1312.6832" y="-216.3409" font-family="Times,serif" font-size="14.00" fill="#000000">head</text>
</g>
<!-- head g2 prepositional modifier&#45;&gt;is -->
<g id="edge40" class="edge">
<title>head g2 prepositional modifier&#45;&gt;is</title>
<path fill="none" stroke="#000000" d="M1284.5358,-35.4358C1222.5108,-36.3543 1145.1767,-37.2747 1076.0704,-37.4392 943.2189,-37.7552 785.4457,-35.9009 714.9955,-34.956"/>
<polygon fill="#000000" stroke="#000000" points="714.898,-31.4545 704.8514,-34.8181 714.8028,-38.4538 714.898,-31.4545"/>
</g>
<!-- nations&#45;&gt;head g2 head of prep phrase -->
<g id="edge41" class="edge">
<title>nations&#45;&gt;head g2 head of prep phrase</title>
<path fill="none" stroke="#000000" d="M1596.5345,-1215.3468C1635.7578,-1209.6714 1701.6181,-1200.1418 1756.2059,-1192.2433"/>
<polygon fill="#000000" stroke="#000000" points="1756.8628,-1195.6848 1766.2585,-1190.7888 1755.8603,-1188.7569 1756.8628,-1195.6848"/>
<text text-anchor="middle" x="1668.3824" y="-1205.8389" font-family="Times,serif" font-size="14.00" fill="#000000">head</text>
</g>
<!-- one&#45;&gt;head g2 nominal subject -->
<g id="edge42" class="edge">
<title>one&#45;&gt;head g2 nominal subject</title>
<path fill="none" stroke="#000000" d="M900.4194,-626.9373C910.1908,-583.206 935.2947,-470.8542 947.1079,-417.9844"/>
<polygon fill="#000000" stroke="#000000" points="950.586,-418.4687 949.3509,-407.9461 943.7544,-416.9422 950.586,-418.4687"/>
<text text-anchor="middle" x="911.6796" y="-520.2045" font-family="Times,serif" font-size="14.00" fill="#000000">head</text>
</g>
<!-- better&#45;&gt;head g2 head of prep phrase -->
<g id="edge43" class="edge">
<title>better&#45;&gt;head g2 head of prep phrase</title>
<path fill="none" stroke="#000000" d="M1588.2243,-971.494C1635.2265,-1008.8999 1760.5745,-1108.6557 1818.5677,-1154.8086"/>
<polygon fill="#000000" stroke="#000000" points="1816.614,-1157.7269 1826.6181,-1161.2153 1820.9729,-1152.2497 1816.614,-1157.7269"/>
<text text-anchor="middle" x="1694.1476" y="-1069.1071" font-family="Times,serif" font-size="14.00" fill="#000000">head</text>
</g>
<!-- troops&#45;&gt;head g2 direct object -->
<g id="edge44" class="edge">
<title>troops&#45;&gt;head g2 direct object</title>
<path fill="none" stroke="#000000" d="M1605.2368,-691.0344C1646.3195,-651.2145 1754.8432,-546.0265 1804.6031,-497.796"/>
<polygon fill="#000000" stroke="#000000" points="1807.0401,-500.3083 1811.7847,-490.8352 1802.1682,-495.2818 1807.0401,-500.3083"/>
<text text-anchor="middle" x="1695.2253" y="-593.8042" font-family="Times,serif" font-size="14.00" fill="#000000">head</text>
</g>
<!-- head g2 complement of preposition -->
<g id="node39" class="node">
<title>head g2 complement of preposition</title>
<ellipse fill="none" stroke="#000000" cx="572.6919" cy="-483.2022" rx="135.2153" ry="18"/>
<text text-anchor="middle" x="572.6919" y="-479.0022" font-family="Times,serif" font-size="14.00" fill="#000000">head g2 complement of preposition</text>
</g>
<!-- heading&#45;&gt;head g2 complement of preposition -->
<g id="edge45" class="edge">
<title>heading&#45;&gt;head g2 complement of preposition</title>
<path fill="none" stroke="#000000" d="M1039.5142,-785.9131C961.5744,-735.3731 703.8047,-568.2224 608.5122,-506.43"/>
<polygon fill="#000000" stroke="#000000" points="610.3677,-503.4617 600.073,-500.9575 606.5591,-509.335 610.3677,-503.4617"/>
<text text-anchor="middle" x="806.7047" y="-646.3164" font-family="Times,serif" font-size="14.00" fill="#000000">head</text>
</g>
<!-- before -->
<g id="node40" class="node">
<title>before</title>
<ellipse fill="none" stroke="#000000" cx="140.3534" cy="-138.7937" rx="32.8821" ry="18"/>
<text text-anchor="middle" x="140.3534" y="-134.5937" font-family="Times,serif" font-size="14.00" fill="#000000">before</text>
</g>
<!-- head g2 complement of preposition&#45;&gt;before -->
<g id="edge46" class="edge">
<title>head g2 complement of preposition&#45;&gt;before</title>
<path fill="none" stroke="#000000" d="M550.3579,-465.4106C477.4519,-407.3324 246.5718,-223.4091 167.3463,-160.2967"/>
<polygon fill="#000000" stroke="#000000" points="169.3074,-157.3842 159.305,-153.8909 164.9458,-162.8593 169.3074,-157.3842"/>
</g>
<!-- future&#45;&gt;head g2 head of prep phrase -->
<g id="edge47" class="edge">
<title>future&#45;&gt;head g2 head of prep phrase</title>
<path fill="none" stroke="#000000" d="M1856.2591,-848.1498C1854.9638,-905.391 1850.9778,-1081.5335 1849.4143,-1150.6242"/>
<polygon fill="#000000" stroke="#000000" points="1845.9122,-1150.6824 1849.185,-1160.7591 1852.9104,-1150.8409 1845.9122,-1150.6824"/>
<text text-anchor="middle" x="1839.5091" y="-1007.2165" font-family="Times,serif" font-size="14.00" fill="#000000">head</text>
</g>
</g>
</svg>
