<?xml version="1.0" encoding="UTF-8" standalone="no"?>
<!DOCTYPE svg PUBLIC "-//W3C//DTD SVG 1.1//EN"
 "http://www.w3.org/Graphics/SVG/1.1/DTD/svg11.dtd">
<!-- Generated by graphviz version 2.40.1 (20161225.0304)
 -->
<!-- Title: %3 Pages: 1 -->
<svg width="1650pt" height="188pt"
 viewBox="0.00 0.00 1650.17 188.00" xmlns="http://www.w3.org/2000/svg" xmlns:xlink="http://www.w3.org/1999/xlink">
<g id="graph0" class="graph" transform="scale(1 1) rotate(0) translate(4 184)">
<title>%3</title>
<polygon fill="#ffffff" stroke="transparent" points="-4,4 -4,-184 1646.1712,-184 1646.1712,4 -4,4"/>
<!-- LOC -->
<g id="node1" class="node">
<title>LOC</title>
<ellipse fill="none" stroke="#000000" cx="1382.5667" cy="-162" rx="27.589" ry="18"/>
<text text-anchor="middle" x="1382.5667" y="-157.8" font-family="Times,serif" font-size="14.00" fill="#000000">LOC</text>
</g>
<!-- head of prep phrase -->
<g id="node2" class="node">
<title>head of prep phrase</title>
<ellipse fill="none" stroke="#000000" cx="654.5667" cy="-90" rx="79.6874" ry="18"/>
<text text-anchor="middle" x="654.5667" y="-85.8" font-family="Times,serif" font-size="14.00" fill="#000000">head of prep phrase</text>
</g>
<!-- LOC&#45;&#45;head of prep phrase -->
<g id="edge1" class="edge">
<title>LOC&#45;&#45;head of prep phrase</title>
<path fill="none" stroke="#000000" d="M1354.9172,-159.2654C1251.4827,-149.0356 885.2296,-112.8128 727.5956,-97.2226"/>
</g>
<!-- compound -->
<g id="node7" class="node">
<title>compound</title>
<ellipse fill="none" stroke="#000000" cx="1382.5667" cy="-90" rx="47.3823" ry="18"/>
<text text-anchor="middle" x="1382.5667" y="-85.8" font-family="Times,serif" font-size="14.00" fill="#000000">compound</text>
</g>
<!-- LOC&#45;&#45;compound -->
<g id="edge2" class="edge">
<title>LOC&#45;&#45;compound</title>
<path fill="none" stroke="#000000" d="M1382.5667,-143.8314C1382.5667,-133 1382.5667,-119.2876 1382.5667,-108.4133"/>
</g>
<!-- attribute -->
<g id="node9" class="node">
<title>attribute</title>
<ellipse fill="none" stroke="#000000" cx="1565.5667" cy="-90" rx="39.6472" ry="18"/>
<text text-anchor="middle" x="1565.5667" y="-85.8" font-family="Times,serif" font-size="14.00" fill="#000000">attribute</text>
</g>
<!-- LOC&#45;&#45;attribute -->
<g id="edge3" class="edge">
<title>LOC&#45;&#45;attribute</title>
<path fill="none" stroke="#000000" d="M1406.4907,-152.5873C1439.6249,-139.5509 1499.4707,-116.005 1535.5593,-101.8062"/>
</g>
<!-- situation -->
<g id="node3" class="node">
<title>situation</title>
<ellipse fill="none" stroke="#000000" cx="40.5667" cy="-18" rx="40.6335" ry="18"/>
<text text-anchor="middle" x="40.5667" y="-13.8" font-family="Times,serif" font-size="14.00" fill="#000000">situation</text>
</g>
<!-- head of prep phrase&#45;&#45;situation -->
<g id="edge4" class="edge">
<title>head of prep phrase&#45;&#45;situation</title>
<path fill="none" stroke="#000000" d="M577.7924,-85.0352C445.8073,-76.1014 181.3304,-56.3446 90.5667,-36 83.9948,-34.5269 77.1053,-32.4303 70.6136,-30.1855"/>
</g>
<!-- signed -->
<g id="node4" class="node">
<title>signed</title>
<ellipse fill="none" stroke="#000000" cx="132.5667" cy="-18" rx="33.3925" ry="18"/>
<text text-anchor="middle" x="132.5667" y="-13.8" font-family="Times,serif" font-size="14.00" fill="#000000">signed</text>
</g>
<!-- head of prep phrase&#45;&#45;signed -->
<g id="edge5" class="edge">
<title>head of prep phrase&#45;&#45;signed</title>
<path fill="none" stroke="#000000" d="M575.3316,-87.9316C479.306,-83.8639 313.2565,-71.7969 175.5667,-36 169.6139,-34.4524 163.4058,-32.2372 157.6186,-29.8873"/>
</g>
<!-- Tensions -->
<g id="node5" class="node">
<title>Tensions</title>
<ellipse fill="none" stroke="#000000" cx="225.5667" cy="-18" rx="41.3435" ry="18"/>
<text text-anchor="middle" x="225.5667" y="-13.8" font-family="Times,serif" font-size="14.00" fill="#000000">Tensions</text>
</g>
<!-- head of prep phrase&#45;&#45;Tensions -->
<g id="edge6" class="edge">
<title>head of prep phrase&#45;&#45;Tensions</title>
<path fill="none" stroke="#000000" d="M579.6291,-83.8703C502.5446,-76.5093 379.4146,-61.8035 275.5667,-36 269.2096,-34.4204 262.5327,-32.3325 256.2024,-30.1396"/>
</g>
<!-- torn -->
<g id="node6" class="node">
<title>torn</title>
<ellipse fill="none" stroke="#000000" cx="311.5667" cy="-18" rx="27" ry="18"/>
<text text-anchor="middle" x="311.5667" y="-13.8" font-family="Times,serif" font-size="14.00" fill="#000000">torn</text>
</g>
<!-- head of prep phrase&#45;&#45;torn -->
<g id="edge7" class="edge">
<title>head of prep phrase&#45;&#45;torn</title>
<path fill="none" stroke="#000000" d="M580.8426,-83.0918C517.723,-75.7556 425.0351,-61.576 347.5667,-36 342.5238,-34.3351 337.3022,-32.0723 332.4526,-29.7133"/>
</g>
<!-- off -->
<g id="node11" class="node">
<title>off</title>
<ellipse fill="none" stroke="#000000" cx="383.5667" cy="-18" rx="27" ry="18"/>
<text text-anchor="middle" x="383.5667" y="-13.8" font-family="Times,serif" font-size="14.00" fill="#000000">off</text>
</g>
<!-- head of prep phrase&#45;&#45;off -->
<g id="edge8" class="edge">
<title>head of prep phrase&#45;&#45;off</title>
<path fill="none" stroke="#000000" d="M589.8026,-79.4106C541.9311,-70.5581 475.6112,-56.1255 419.5667,-36 414.5685,-34.2052 409.3652,-31.8896 404.519,-29.5206"/>
</g>
<!-- one -->
<g id="node13" class="node">
<title>one</title>
<ellipse fill="none" stroke="#000000" cx="455.5667" cy="-18" rx="27" ry="18"/>
<text text-anchor="middle" x="455.5667" y="-13.8" font-family="Times,serif" font-size="14.00" fill="#000000">one</text>
</g>
<!-- head of prep phrase&#45;&#45;one -->
<g id="edge9" class="edge">
<title>head of prep phrase&#45;&#45;one</title>
<path fill="none" stroke="#000000" d="M605.3976,-75.7325C572.6989,-65.7534 529.0379,-51.4807 491.5667,-36 486.7876,-34.0256 481.7633,-31.6886 477.035,-29.3636"/>
</g>
<!-- better -->
<g id="node14" class="node">
<title>better</title>
<ellipse fill="none" stroke="#000000" cx="530.5667" cy="-18" rx="30.4775" ry="18"/>
<text text-anchor="middle" x="530.5667" y="-13.8" font-family="Times,serif" font-size="14.00" fill="#000000">better</text>
</g>
<!-- head of prep phrase&#45;&#45;better -->
<g id="edge10" class="edge">
<title>head of prep phrase&#45;&#45;better</title>
<path fill="none" stroke="#000000" d="M625.4942,-73.1192C603.1602,-60.1511 572.7956,-42.52 552.4811,-30.7245"/>
</g>
<!-- troops -->
<g id="node15" class="node">
<title>troops</title>
<ellipse fill="none" stroke="#000000" cx="610.5667" cy="-18" rx="32.4324" ry="18"/>
<text text-anchor="middle" x="610.5667" y="-13.8" font-family="Times,serif" font-size="14.00" fill="#000000">troops</text>
</g>
<!-- head of prep phrase&#45;&#45;troops -->
<g id="edge11" class="edge">
<title>head of prep phrase&#45;&#45;troops</title>
<path fill="none" stroke="#000000" d="M643.4636,-71.8314C636.6408,-60.6667 627.9473,-46.441 621.2108,-35.4177"/>
</g>
<!-- heading -->
<g id="node16" class="node">
<title>heading</title>
<ellipse fill="none" stroke="#000000" cx="698.5667" cy="-18" rx="38.2024" ry="18"/>
<text text-anchor="middle" x="698.5667" y="-13.8" font-family="Times,serif" font-size="14.00" fill="#000000">heading</text>
</g>
<!-- head of prep phrase&#45;&#45;heading -->
<g id="edge12" class="edge">
<title>head of prep phrase&#45;&#45;heading</title>
<path fill="none" stroke="#000000" d="M665.6697,-71.8314C672.4926,-60.6667 681.1861,-46.441 687.9225,-35.4177"/>
</g>
<!-- future -->
<g id="node17" class="node">
<title>future</title>
<ellipse fill="none" stroke="#000000" cx="785.5667" cy="-18" rx="31.4462" ry="18"/>
<text text-anchor="middle" x="785.5667" y="-13.8" font-family="Times,serif" font-size="14.00" fill="#000000">future</text>
</g>
<!-- head of prep phrase&#45;&#45;future -->
<g id="edge13" class="edge">
<title>head of prep phrase&#45;&#45;future</title>
<path fill="none" stroke="#000000" d="M684.95,-73.3008C708.6832,-60.2566 741.1495,-42.4125 762.7108,-30.562"/>
</g>
<!-- asking -->
<g id="node19" class="node">
<title>asking</title>
<ellipse fill="none" stroke="#000000" cx="867.5667" cy="-18" rx="33.3925" ry="18"/>
<text text-anchor="middle" x="867.5667" y="-13.8" font-family="Times,serif" font-size="14.00" fill="#000000">asking</text>
</g>
<!-- head of prep phrase&#45;&#45;asking -->
<g id="edge14" class="edge">
<title>head of prep phrase&#45;&#45;asking</title>
<path fill="none" stroke="#000000" d="M704.0216,-75.7968C738.4071,-65.5782 785.1424,-51.0032 825.5667,-36 830.7729,-34.0678 836.2722,-31.8464 841.515,-29.6385"/>
</g>
<!-- ports -->
<g id="node20" class="node">
<title>ports</title>
<ellipse fill="none" stroke="#000000" cx="946.5667" cy="-18" rx="27.589" ry="18"/>
<text text-anchor="middle" x="946.5667" y="-13.8" font-family="Times,serif" font-size="14.00" fill="#000000">ports</text>
</g>
<!-- head of prep phrase&#45;&#45;ports -->
<g id="edge15" class="edge">
<title>head of prep phrase&#45;&#45;ports</title>
<path fill="none" stroke="#000000" d="M721.813,-80.3651C773.9407,-71.8019 847.5065,-57.3078 909.5667,-36 914.7015,-34.237 920.0485,-31.9344 925.0291,-29.5679"/>
</g>
<!-- from -->
<g id="node21" class="node">
<title>from</title>
<ellipse fill="none" stroke="#000000" cx="1019.5667" cy="-18" rx="27.0958" ry="18"/>
<text text-anchor="middle" x="1019.5667" y="-13.8" font-family="Times,serif" font-size="14.00" fill="#000000">from</text>
</g>
<!-- head of prep phrase&#45;&#45;from -->
<g id="edge16" class="edge">
<title>head of prep phrase&#45;&#45;from</title>
<path fill="none" stroke="#000000" d="M729.9071,-84.1258C797.5924,-77.3337 899.0387,-63.372 983.5667,-36 988.6191,-34.3639 993.8444,-32.1129 998.6948,-29.7561"/>
</g>
<!-- Back -->
<g id="node22" class="node">
<title>Back</title>
<ellipse fill="none" stroke="#000000" cx="1093.5667" cy="-18" rx="28.0565" ry="18"/>
<text text-anchor="middle" x="1093.5667" y="-13.8" font-family="Times,serif" font-size="14.00" fill="#000000">Back</text>
</g>
<!-- head of prep phrase&#45;&#45;Back -->
<g id="edge17" class="edge">
<title>head of prep phrase&#45;&#45;Back</title>
<path fill="none" stroke="#000000" d="M732.9266,-86.5839C814.859,-81.3709 946.4581,-68.3357 1055.5667,-36 1061.0259,-34.3821 1066.6862,-32.0791 1071.9181,-29.6586"/>
</g>
<!-- setback -->
<g id="node24" class="node">
<title>setback</title>
<ellipse fill="none" stroke="#000000" cx="1176.5667" cy="-18" rx="36.7489" ry="18"/>
<text text-anchor="middle" x="1176.5667" y="-13.8" font-family="Times,serif" font-size="14.00" fill="#000000">setback</text>
</g>
<!-- head of prep phrase&#45;&#45;setback -->
<g id="edge18" class="edge">
<title>head of prep phrase&#45;&#45;setback</title>
<path fill="none" stroke="#000000" d="M733.5886,-87.3082C828.9413,-82.6305 993.5343,-69.9665 1130.5667,-36 1136.7263,-34.4732 1143.1686,-32.325 1149.2153,-30.0423"/>
</g>
<!-- states -->
<g id="node8" class="node">
<title>states</title>
<ellipse fill="none" stroke="#000000" cx="1260.5667" cy="-18" rx="29.5104" ry="18"/>
<text text-anchor="middle" x="1260.5667" y="-13.8" font-family="Times,serif" font-size="14.00" fill="#000000">states</text>
</g>
<!-- compound&#45;&#45;states -->
<g id="edge19" class="edge">
<title>compound&#45;&#45;states</title>
<path fill="none" stroke="#000000" d="M1356.6936,-74.7307C1334.451,-61.6039 1302.7562,-42.8987 1281.9309,-30.6084"/>
</g>
<!-- nations -->
<g id="node12" class="node">
<title>nations</title>
<ellipse fill="none" stroke="#000000" cx="1343.5667" cy="-18" rx="35.806" ry="18"/>
<text text-anchor="middle" x="1343.5667" y="-13.8" font-family="Times,serif" font-size="14.00" fill="#000000">nations</text>
</g>
<!-- compound&#45;&#45;nations -->
<g id="edge20" class="edge">
<title>compound&#45;&#45;nations</title>
<path fill="none" stroke="#000000" d="M1372.9262,-72.2022C1366.881,-61.0419 1359.1203,-46.7143 1353.0962,-35.593"/>
</g>
<!-- envoy -->
<g id="node18" class="node">
<title>envoy</title>
<ellipse fill="none" stroke="#000000" cx="1428.5667" cy="-18" rx="31.9393" ry="18"/>
<text text-anchor="middle" x="1428.5667" y="-13.8" font-family="Times,serif" font-size="14.00" fill="#000000">envoy</text>
</g>
<!-- compound&#45;&#45;envoy -->
<g id="edge21" class="edge">
<title>compound&#45;&#45;envoy</title>
<path fill="none" stroke="#000000" d="M1393.9375,-72.2022C1401.1741,-60.8753 1410.4951,-46.2859 1417.6435,-35.0972"/>
</g>
<!-- salmon -->
<g id="node23" class="node">
<title>salmon</title>
<ellipse fill="none" stroke="#000000" cx="1513.5667" cy="-18" rx="35.806" ry="18"/>
<text text-anchor="middle" x="1513.5667" y="-13.8" font-family="Times,serif" font-size="14.00" fill="#000000">salmon</text>
</g>
<!-- compound&#45;&#45;salmon -->
<g id="edge22" class="edge">
<title>compound&#45;&#45;salmon</title>
<path fill="none" stroke="#000000" d="M1409.71,-75.0816C1433.0921,-62.2303 1466.5432,-43.845 1489.109,-31.4424"/>
</g>
<!-- become -->
<g id="node10" class="node">
<title>become</title>
<ellipse fill="none" stroke="#000000" cx="1604.5667" cy="-18" rx="37.7092" ry="18"/>
<text text-anchor="middle" x="1604.5667" y="-13.8" font-family="Times,serif" font-size="14.00" fill="#000000">become</text>
</g>
<!-- attribute&#45;&#45;become -->
<g id="edge23" class="edge">
<title>attribute&#45;&#45;become</title>
<path fill="none" stroke="#000000" d="M1575.2071,-72.2022C1581.2523,-61.0419 1589.0131,-46.7143 1595.0371,-35.593"/>
</g>
</g>
</svg>
