<?xml version="1.0" encoding="UTF-8" standalone="no"?>
<!DOCTYPE svg PUBLIC "-//W3C//DTD SVG 1.1//EN"
 "http://www.w3.org/Graphics/SVG/1.1/DTD/svg11.dtd">
<!-- Generated by graphviz version 2.40.1 (20161225.0304)
 -->
<!-- Title: %3 Pages: 1 -->
<svg width="2636pt" height="2087pt"
 viewBox="0.00 0.00 2636.33 2087.49" xmlns="http://www.w3.org/2000/svg" xmlns:xlink="http://www.w3.org/1999/xlink">
<g id="graph0" class="graph" transform="scale(1 1) rotate(0) translate(4 2083.4853)">
<title>%3</title>
<polygon fill="#ffffff" stroke="transparent" points="-4,4 -4,-2083.4853 2632.3321,-2083.4853 2632.3321,4 -4,4"/>
<!-- MONEY -->
<g id="node1" class="node">
<title>MONEY</title>
<ellipse fill="none" stroke="#000000" cx="1250.6313" cy="-1102.0546" rx="42.5629" ry="18"/>
<text text-anchor="middle" x="1250.6313" y="-1097.8546" font-family="Times,serif" font-size="14.00" fill="#000000">MONEY</text>
<text text-anchor="middle" x="1201.3562" y="-1122.8546" font-family="Times,serif" font-size="14.00" fill="#000000">11</text>
</g>
<!-- head g1 direct object -->
<g id="node2" class="node">
<title>head g1 direct object</title>
<ellipse fill="none" stroke="#000000" cx="1584.3198" cy="-1079.3769" rx="84.0308" ry="18"/>
<text text-anchor="middle" x="1584.3198" y="-1075.1769" font-family="Times,serif" font-size="14.00" fill="#000000">head g1 direct object</text>
</g>
<!-- MONEY&#45;&gt;head g1 direct object -->
<g id="edge1" class="edge">
<title>MONEY&#45;&gt;head g1 direct object</title>
<path fill="none" stroke="#000000" d="M1292.8932,-1099.1825C1343.1663,-1095.7659 1428.5002,-1089.9665 1493.875,-1085.5236"/>
<polygon fill="#000000" stroke="#000000" points="1494.4479,-1088.9928 1504.1875,-1084.8227 1493.9732,-1082.0089 1494.4479,-1088.9928"/>
<text text-anchor="middle" x="1385.4629" y="-1094.7933" font-family="Times,serif" font-size="14.00" fill="#000000">head</text>
</g>
<!-- child g1 modifier of quantifier -->
<g id="node4" class="node">
<title>child g1 modifier of quantifier</title>
<ellipse fill="none" stroke="#000000" cx="927.3794" cy="-806.7757" rx="116.9072" ry="18"/>
<text text-anchor="middle" x="927.3794" y="-802.5757" font-family="Times,serif" font-size="14.00" fill="#000000">child g1 modifier of quantifier</text>
</g>
<!-- MONEY&#45;&gt;child g1 modifier of quantifier -->
<g id="edge2" class="edge">
<title>MONEY&#45;&gt;child g1 modifier of quantifier</title>
<path fill="none" stroke="#000000" d="M1232.3257,-1085.3331C1178.2758,-1035.9604 1019.1534,-890.6079 954.8276,-831.8487"/>
<polygon fill="#000000" stroke="#000000" points="956.8538,-828.959 947.1099,-824.7988 952.1327,-834.1274 956.8538,-828.959"/>
<text text-anchor="middle" x="1075.7526" y="-957.8947" font-family="Times,serif" font-size="14.00" fill="#000000">child</text>
</g>
<!-- child g1 compound -->
<g id="node6" class="node">
<title>child g1 compound</title>
<ellipse fill="none" stroke="#000000" cx="640.4584" cy="-936.0458" rx="78.278" ry="18"/>
<text text-anchor="middle" x="640.4584" y="-931.8458" font-family="Times,serif" font-size="14.00" fill="#000000">child g1 compound</text>
</g>
<!-- MONEY&#45;&gt;child g1 compound -->
<g id="edge3" class="edge">
<title>MONEY&#45;&gt;child g1 compound</title>
<path fill="none" stroke="#000000" d="M1216.0181,-1091.4532C1179.3223,-1080.2975 1119.6246,-1062.3871 1067.8126,-1047.9398 938.7876,-1011.9624 786.9059,-972.9952 703.4072,-951.8627"/>
<polygon fill="#000000" stroke="#000000" points="704.1225,-948.4335 693.5696,-949.3754 702.4066,-955.22 704.1225,-948.4335"/>
<text text-anchor="middle" x="941.9515" y="-1020.2432" font-family="Times,serif" font-size="14.00" fill="#000000">child</text>
</g>
<!-- child g1 prepositional modifier -->
<g id="node8" class="node">
<title>child g1 prepositional modifier</title>
<ellipse fill="none" stroke="#000000" cx="1422.6553" cy="-725.364" rx="119.3131" ry="18"/>
<text text-anchor="middle" x="1422.6553" y="-721.164" font-family="Times,serif" font-size="14.00" fill="#000000">child g1 prepositional modifier</text>
</g>
<!-- MONEY&#45;&gt;child g1 prepositional modifier -->
<g id="edge4" class="edge">
<title>MONEY&#45;&gt;child g1 prepositional modifier</title>
<path fill="none" stroke="#000000" d="M1258.9284,-1083.886C1286.7474,-1022.969 1376.8324,-825.7049 1410.132,-752.7869"/>
<polygon fill="#000000" stroke="#000000" points="1413.4711,-753.9006 1414.4415,-743.3503 1407.1036,-750.9927 1413.4711,-753.9006"/>
<text text-anchor="middle" x="1322.5459" y="-916.7301" font-family="Times,serif" font-size="14.00" fill="#000000">child</text>
</g>
<!-- head g1 head of prep phrase -->
<g id="node12" class="node">
<title>head g1 head of prep phrase</title>
<ellipse fill="none" stroke="#000000" cx="1302.6978" cy="-1332.4983" rx="109.6053" ry="18"/>
<text text-anchor="middle" x="1302.6978" y="-1328.2983" font-family="Times,serif" font-size="14.00" fill="#000000">head g1 head of prep phrase</text>
</g>
<!-- MONEY&#45;&gt;head g1 head of prep phrase -->
<g id="edge5" class="edge">
<title>MONEY&#45;&gt;head g1 head of prep phrase</title>
<path fill="none" stroke="#000000" d="M1254.7169,-1120.1371C1263.7656,-1160.1862 1285.5495,-1256.6006 1296.3736,-1304.5078"/>
<polygon fill="#000000" stroke="#000000" points="1293.0134,-1305.517 1298.6312,-1314.4998 1299.8413,-1303.9743 1293.0134,-1305.517"/>
<text text-anchor="middle" x="1263.4337" y="-1220.0014" font-family="Times,serif" font-size="14.00" fill="#000000">head</text>
</g>
<!-- child g1 modifier of nominal -->
<g id="node14" class="node">
<title>child g1 modifier of nominal</title>
<ellipse fill="none" stroke="#000000" cx="1177.7841" cy="-814.9131" rx="111.5878" ry="18"/>
<text text-anchor="middle" x="1177.7841" y="-810.7131" font-family="Times,serif" font-size="14.00" fill="#000000">child g1 modifier of nominal</text>
</g>
<!-- MONEY&#45;&gt;child g1 modifier of nominal -->
<g id="edge6" class="edge">
<title>MONEY&#45;&gt;child g1 modifier of nominal</title>
<path fill="none" stroke="#000000" d="M1246.0744,-1084.0926C1233.7624,-1035.5625 1199.7596,-901.5339 1184.8948,-842.9414"/>
<polygon fill="#000000" stroke="#000000" points="1188.2848,-842.0704 1182.4331,-833.2382 1181.4997,-843.7918 1188.2848,-842.0704"/>
<text text-anchor="middle" x="1200.3516" y="-961.8378" font-family="Times,serif" font-size="14.00" fill="#000000">child</text>
</g>
<!-- child g1 adjectival modifier -->
<g id="node20" class="node">
<title>child g1 adjectival modifier</title>
<ellipse fill="none" stroke="#000000" cx="985.3183" cy="-1061.6324" rx="107.7104" ry="18"/>
<text text-anchor="middle" x="985.3183" y="-1057.4324" font-family="Times,serif" font-size="14.00" fill="#000000">child g1 adjectival modifier</text>
</g>
<!-- MONEY&#45;&gt;child g1 adjectival modifier -->
<g id="edge7" class="edge">
<title>MONEY&#45;&gt;child g1 adjectival modifier</title>
<path fill="none" stroke="#000000" d="M1210.336,-1095.9153C1174.5471,-1090.4627 1120.9531,-1082.2973 1075.0465,-1075.3031"/>
<polygon fill="#000000" stroke="#000000" points="1075.4886,-1071.8302 1065.0755,-1073.784 1074.4342,-1078.7503 1075.4886,-1071.8302"/>
<text text-anchor="middle" x="1124.1412" y="-1087.7155" font-family="Times,serif" font-size="14.00" fill="#000000">child</text>
</g>
<!-- head g1 ROOT -->
<g id="node26" class="node">
<title>head g1 ROOT</title>
<ellipse fill="none" stroke="#000000" cx="1399.5568" cy="-945.783" rx="64.2787" ry="18"/>
<text text-anchor="middle" x="1399.5568" y="-941.583" font-family="Times,serif" font-size="14.00" fill="#000000">head g1 ROOT</text>
</g>
<!-- MONEY&#45;&gt;head g1 ROOT -->
<g id="edge8" class="edge">
<title>MONEY&#45;&gt;head g1 ROOT</title>
<path fill="none" stroke="#000000" d="M1266.5689,-1085.3308C1292.8276,-1057.7768 1345.3172,-1002.698 1375.9139,-970.5921"/>
<polygon fill="#000000" stroke="#000000" points="1378.4605,-972.9932 1382.8257,-963.3394 1373.3931,-968.1639 1378.4605,-972.9932"/>
<text text-anchor="middle" x="1311.6244" y="-1026.9872" font-family="Times,serif" font-size="14.00" fill="#000000">head</text>
</g>
<!-- child g1 noun phrase as adverbial modifier -->
<g id="node32" class="node">
<title>child g1 noun phrase as adverbial modifier</title>
<ellipse fill="none" stroke="#000000" cx="1287.1532" cy="-471.0621" rx="160.7984" ry="18"/>
<text text-anchor="middle" x="1287.1532" y="-466.8621" font-family="Times,serif" font-size="14.00" fill="#000000">child g1 noun phrase as adverbial modifier</text>
</g>
<!-- MONEY&#45;&gt;child g1 noun phrase as adverbial modifier -->
<g id="edge9" class="edge">
<title>MONEY&#45;&gt;child g1 noun phrase as adverbial modifier</title>
<path fill="none" stroke="#000000" d="M1255.0446,-1084.0714C1265.7747,-1039.0845 1292.7711,-917.8948 1298.5206,-814.9771 1300.7485,-775.0981 1295.2847,-765.1486 1293.6989,-725.2389 1290.4389,-643.1937 1288.4605,-546.1836 1287.6225,-499.2719"/>
<polygon fill="#000000" stroke="#000000" points="1291.1217,-499.1893 1287.4473,-489.252 1284.1227,-499.3117 1291.1217,-499.1893"/>
<text text-anchor="middle" x="1284.7456" y="-773.9666" font-family="Times,serif" font-size="14.00" fill="#000000">child</text>
</g>
<!-- headleaf does -->
<g id="node3" class="node">
<title>headleaf does</title>
<ellipse fill="none" stroke="#000000" cx="1694.0813" cy="-838.3998" rx="58.4477" ry="18"/>
<text text-anchor="middle" x="1694.0813" y="-834.1998" font-family="Times,serif" font-size="14.00" fill="#000000">headleaf does</text>
</g>
<!-- head g1 direct object&#45;&gt;headleaf does -->
<g id="edge10" class="edge">
<title>head g1 direct object&#45;&gt;headleaf does</title>
<path fill="none" stroke="#000000" d="M1592.5698,-1061.2644C1611.6864,-1019.2945 1659.1032,-915.1929 1681.7104,-865.5596"/>
<polygon fill="#000000" stroke="#000000" points="1684.9253,-866.945 1685.8853,-856.3937 1678.555,-864.0433 1684.9253,-866.945"/>
</g>
<!-- headleaf pay -->
<g id="node19" class="node">
<title>headleaf pay</title>
<ellipse fill="none" stroke="#000000" cx="1977.7281" cy="-1072.9311" rx="55.0647" ry="18"/>
<text text-anchor="middle" x="1977.7281" y="-1068.7311" font-family="Times,serif" font-size="14.00" fill="#000000">headleaf pay</text>
</g>
<!-- head g1 direct object&#45;&gt;headleaf pay -->
<g id="edge11" class="edge">
<title>head g1 direct object&#45;&gt;headleaf pay</title>
<path fill="none" stroke="#000000" d="M1668.2332,-1078.002C1741.1697,-1076.807 1845.3546,-1075.1 1912.2706,-1074.0036"/>
<polygon fill="#000000" stroke="#000000" points="1912.7384,-1077.4965 1922.6797,-1073.833 1912.6237,-1070.4974 1912.7384,-1077.4965"/>
</g>
<!-- headleaf receive -->
<g id="node35" class="node">
<title>headleaf receive</title>
<ellipse fill="none" stroke="#000000" cx="1936.1642" cy="-1504.3751" rx="67.5766" ry="18"/>
<text text-anchor="middle" x="1936.1642" y="-1500.1751" font-family="Times,serif" font-size="14.00" fill="#000000">headleaf receive</text>
</g>
<!-- head g1 direct object&#45;&gt;headleaf receive -->
<g id="edge12" class="edge">
<title>head g1 direct object&#45;&gt;headleaf receive</title>
<path fill="none" stroke="#000000" d="M1599.2134,-1097.3671C1654.741,-1164.4397 1849.8431,-1400.1065 1914.8839,-1478.6703"/>
<polygon fill="#000000" stroke="#000000" points="1912.3895,-1481.1458 1921.4626,-1486.6168 1917.7815,-1476.6819 1912.3895,-1481.1458"/>
</g>
<!-- headleaf get -->
<g id="node37" class="node">
<title>headleaf get</title>
<ellipse fill="none" stroke="#000000" cx="1609.1746" cy="-1298.8205" rx="53.1353" ry="18"/>
<text text-anchor="middle" x="1609.1746" y="-1294.6205" font-family="Times,serif" font-size="14.00" fill="#000000">headleaf get</text>
</g>
<!-- head g1 direct object&#45;&gt;headleaf get -->
<g id="edge13" class="edge">
<title>head g1 direct object&#45;&gt;headleaf get</title>
<path fill="none" stroke="#000000" d="M1586.3962,-1097.7091C1590.7383,-1136.0456 1600.8031,-1224.9088 1605.977,-1270.5893"/>
<polygon fill="#000000" stroke="#000000" points="1602.5183,-1271.1523 1607.1216,-1280.6949 1609.4739,-1270.3645 1602.5183,-1271.1523"/>
</g>
<!-- head g2 relcl -->
<g id="node10" class="node">
<title>head g2 relcl</title>
<ellipse fill="none" stroke="#000000" cx="2000.7149" cy="-611.1829" rx="55.551" ry="18"/>
<text text-anchor="middle" x="2000.7149" y="-606.9829" font-family="Times,serif" font-size="14.00" fill="#000000">head g2 relcl</text>
</g>
<!-- headleaf does&#45;&gt;head g2 relcl -->
<g id="edge14" class="edge">
<title>headleaf does&#45;&gt;head g2 relcl</title>
<path fill="none" stroke="#000000" d="M1716.6288,-821.692C1770.7874,-781.5602 1908.2752,-679.6811 1969.9513,-633.9788"/>
<polygon fill="#000000" stroke="#000000" points="1972.1835,-636.6809 1978.1343,-627.9151 1968.016,-631.0567 1972.1835,-636.6809"/>
<text text-anchor="middle" x="1834.131" y="-727.6308" font-family="Times,serif" font-size="14.00" fill="#000000">head</text>
</g>
<!-- childleaf $ -->
<g id="node5" class="node">
<title>childleaf $</title>
<ellipse fill="none" stroke="#000000" cx="987.382" cy="-497.6687" rx="47.8492" ry="18"/>
<text text-anchor="middle" x="987.382" y="-493.4687" font-family="Times,serif" font-size="14.00" fill="#000000">childleaf $</text>
</g>
<!-- child g1 modifier of quantifier&#45;&gt;childleaf $ -->
<g id="edge15" class="edge">
<title>child g1 modifier of quantifier&#45;&gt;childleaf $</title>
<path fill="none" stroke="#000000" d="M930.9532,-788.3654C941.0415,-736.3943 969.7906,-588.2917 981.8993,-525.9128"/>
<polygon fill="#000000" stroke="#000000" points="985.3571,-526.4663 983.8269,-515.9826 978.4854,-525.1324 985.3571,-526.4663"/>
</g>
<!-- childleaf than -->
<g id="node22" class="node">
<title>childleaf than</title>
<ellipse fill="none" stroke="#000000" cx="717.8799" cy="-51.0963" rx="58.4563" ry="18"/>
<text text-anchor="middle" x="717.8799" y="-46.8963" font-family="Times,serif" font-size="14.00" fill="#000000">childleaf than</text>
</g>
<!-- child g1 modifier of quantifier&#45;&gt;childleaf than -->
<g id="edge16" class="edge">
<title>child g1 modifier of quantifier&#45;&gt;childleaf than</title>
<path fill="none" stroke="#000000" d="M922.3045,-788.4703C894.374,-687.7229 759.4142,-200.9134 725.5832,-78.8826"/>
<polygon fill="#000000" stroke="#000000" points="728.9324,-77.8622 722.8879,-69.1607 722.1868,-79.7323 728.9324,-77.8622"/>
</g>
<!-- childleaf 4 -->
<g id="node7" class="node">
<title>childleaf 4</title>
<ellipse fill="none" stroke="#000000" cx="47.6743" cy="-557.0115" rx="47.8492" ry="18"/>
<text text-anchor="middle" x="47.6743" y="-552.8115" font-family="Times,serif" font-size="14.00" fill="#000000">childleaf 4</text>
</g>
<!-- child g1 compound&#45;&gt;childleaf 4 -->
<g id="edge17" class="edge">
<title>child g1 compound&#45;&gt;childleaf 4</title>
<path fill="none" stroke="#000000" d="M613.8361,-919.0231C517.5183,-857.4361 187.281,-646.2779 80.9484,-578.2874"/>
<polygon fill="#000000" stroke="#000000" points="82.5433,-575.1529 72.2329,-572.7146 78.7724,-581.0504 82.5433,-575.1529"/>
</g>
<!-- childleaf 500 -->
<g id="node23" class="node">
<title>childleaf 500</title>
<ellipse fill="none" stroke="#000000" cx="634.757" cy="-1240.3218" rx="56.5355" ry="18"/>
<text text-anchor="middle" x="634.757" y="-1236.1218" font-family="Times,serif" font-size="14.00" fill="#000000">childleaf 500</text>
</g>
<!-- child g1 compound&#45;&gt;childleaf 500 -->
<g id="edge18" class="edge">
<title>child g1 compound&#45;&gt;childleaf 500</title>
<path fill="none" stroke="#000000" d="M640.1189,-954.1684C639.1622,-1005.2215 636.4398,-1150.5131 635.2851,-1212.1375"/>
<polygon fill="#000000" stroke="#000000" points="631.7828,-1212.2303 635.0948,-1222.2942 638.7816,-1212.3615 631.7828,-1212.2303"/>
</g>
<!-- childleaf 1.3 -->
<g id="node28" class="node">
<title>childleaf 1.3</title>
<ellipse fill="none" stroke="#000000" cx="64.3867" cy="-1167.1359" rx="54.1144" ry="18"/>
<text text-anchor="middle" x="64.3867" y="-1162.9359" font-family="Times,serif" font-size="14.00" fill="#000000">childleaf 1.3</text>
</g>
<!-- child g1 compound&#45;&gt;childleaf 1.3 -->
<g id="edge19" class="edge">
<title>child g1 compound&#45;&gt;childleaf 1.3</title>
<path fill="none" stroke="#000000" d="M601.3156,-951.7478C497.8254,-993.2628 217.4728,-1105.7257 108.5244,-1149.4302"/>
<polygon fill="#000000" stroke="#000000" points="107.1158,-1146.224 99.1378,-1153.1956 109.722,-1152.7208 107.1158,-1146.224"/>
</g>
<!-- childleaf 5 -->
<g id="node29" class="node">
<title>childleaf 5</title>
<ellipse fill="none" stroke="#000000" cx="130.9655" cy="-40.4603" rx="47.8492" ry="18"/>
<text text-anchor="middle" x="130.9655" y="-36.2603" font-family="Times,serif" font-size="14.00" fill="#000000">childleaf 5</text>
</g>
<!-- child g1 compound&#45;&gt;childleaf 5 -->
<g id="edge20" class="edge">
<title>child g1 compound&#45;&gt;childleaf 5</title>
<path fill="none" stroke="#000000" d="M630.2811,-918.1561C566.5934,-806.206 223.1045,-202.4221 146.2335,-67.2984"/>
<polygon fill="#000000" stroke="#000000" points="149.154,-65.3538 141.167,-58.3926 143.0697,-68.8152 149.154,-65.3538"/>
</g>
<!-- childleaf 55 -->
<g id="node36" class="node">
<title>childleaf 55</title>
<ellipse fill="none" stroke="#000000" cx="617.9313" cy="-561.7004" rx="52.1922" ry="18"/>
<text text-anchor="middle" x="617.9313" y="-557.5004" font-family="Times,serif" font-size="14.00" fill="#000000">childleaf 55</text>
</g>
<!-- child g1 compound&#45;&gt;childleaf 55 -->
<g id="edge21" class="edge">
<title>child g1 compound&#45;&gt;childleaf 55</title>
<path fill="none" stroke="#000000" d="M639.3719,-917.9903C635.7522,-857.8391 624.0823,-663.9143 619.6557,-590.3556"/>
<polygon fill="#000000" stroke="#000000" points="623.1278,-589.7849 619.0333,-580.0132 616.1404,-590.2055 623.1278,-589.7849"/>
</g>
<!-- childleaf 41 -->
<g id="node38" class="node">
<title>childleaf 41</title>
<ellipse fill="none" stroke="#000000" cx="85.1711" cy="-1541.1218" rx="52.1922" ry="18"/>
<text text-anchor="middle" x="85.1711" y="-1536.9218" font-family="Times,serif" font-size="14.00" fill="#000000">childleaf 41</text>
</g>
<!-- child g1 compound&#45;&gt;childleaf 41 -->
<g id="edge22" class="edge">
<title>child g1 compound&#45;&gt;childleaf 41</title>
<path fill="none" stroke="#000000" d="M624.1405,-953.8268C544.8671,-1040.2081 200.0161,-1415.9795 107.8761,-1516.381"/>
<polygon fill="#000000" stroke="#000000" points="105.1394,-1514.1867 100.9566,-1523.9209 110.2968,-1518.9197 105.1394,-1514.1867"/>
</g>
<!-- childleaf 30 -->
<g id="node40" class="node">
<title>childleaf 30</title>
<ellipse fill="none" stroke="#000000" cx="176.1025" cy="-886.3591" rx="52.1922" ry="18"/>
<text text-anchor="middle" x="176.1025" y="-882.1591" font-family="Times,serif" font-size="14.00" fill="#000000">childleaf 30</text>
</g>
<!-- child g1 compound&#45;&gt;childleaf 30 -->
<g id="edge23" class="edge">
<title>child g1 compound&#45;&gt;childleaf 30</title>
<path fill="none" stroke="#000000" d="M569.1741,-928.4182C477.9267,-918.6547 321.4537,-901.9119 236.0395,-892.7725"/>
<polygon fill="#000000" stroke="#000000" points="236.3002,-889.2805 225.9846,-891.6966 235.5554,-896.2407 236.3002,-889.2805"/>
</g>
<!-- childleaf in -->
<g id="node9" class="node">
<title>childleaf in</title>
<ellipse fill="none" stroke="#000000" cx="1905.4528" cy="-42.6214" rx="50.2629" ry="18"/>
<text text-anchor="middle" x="1905.4528" y="-38.4214" font-family="Times,serif" font-size="14.00" fill="#000000">childleaf in</text>
</g>
<!-- child g1 prepositional modifier&#45;&gt;childleaf in -->
<g id="edge24" class="edge">
<title>child g1 prepositional modifier&#45;&gt;childleaf in</title>
<path fill="none" stroke="#000000" d="M1431.5881,-707.1653C1451.8003,-666.5237 1503.378,-565.7717 1555.8222,-487.1213 1667.8663,-319.0889 1825.5895,-134.1009 1883.2419,-67.896"/>
<polygon fill="#000000" stroke="#000000" points="1886.1393,-69.8991 1890.0786,-60.0638 1880.8658,-65.2958 1886.1393,-69.8991"/>
</g>
<!-- headleaf industry -->
<g id="node11" class="node">
<title>headleaf industry</title>
<ellipse fill="none" stroke="#000000" cx="2485.6374" cy="-123.5866" rx="71.0031" ry="18"/>
<text text-anchor="middle" x="2485.6374" y="-119.3866" font-family="Times,serif" font-size="14.00" fill="#000000">headleaf industry</text>
</g>
<!-- head g2 relcl&#45;&gt;headleaf industry -->
<g id="edge25" class="edge">
<title>head g2 relcl&#45;&gt;headleaf industry</title>
<path fill="none" stroke="#000000" d="M2017.9735,-593.829C2091.0174,-520.3825 2374.9104,-234.9241 2460.8497,-148.5109"/>
<polygon fill="#000000" stroke="#000000" points="2463.5088,-150.8006 2468.0788,-141.242 2458.5455,-145.8645 2463.5088,-150.8006"/>
</g>
<!-- headleaf Sold -->
<g id="node13" class="node">
<title>headleaf Sold</title>
<ellipse fill="none" stroke="#000000" cx="1508.1873" cy="-1608.1345" rx="58.465" ry="18"/>
<text text-anchor="middle" x="1508.1873" y="-1603.9345" font-family="Times,serif" font-size="14.00" fill="#000000">headleaf Sold</text>
</g>
<!-- head g1 head of prep phrase&#45;&gt;headleaf Sold -->
<g id="edge26" class="edge">
<title>head g1 head of prep phrase&#45;&gt;headleaf Sold</title>
<path fill="none" stroke="#000000" d="M1316.1806,-1350.5836C1351.608,-1398.1047 1447.4352,-1526.6439 1488.7731,-1582.0929"/>
<polygon fill="#000000" stroke="#000000" points="1486.1391,-1584.4157 1494.9221,-1590.341 1491.7511,-1580.2318 1486.1391,-1584.4157"/>
</g>
<!-- headleaf millions -->
<g id="node16" class="node">
<title>headleaf millions</title>
<ellipse fill="none" stroke="#000000" cx="995.3887" cy="-1320.3998" rx="71.0117" ry="18"/>
<text text-anchor="middle" x="995.3887" y="-1316.1998" font-family="Times,serif" font-size="14.00" fill="#000000">headleaf millions</text>
</g>
<!-- head g1 head of prep phrase&#45;&gt;headleaf millions -->
<g id="edge27" class="edge">
<title>head g1 head of prep phrase&#45;&gt;headleaf millions</title>
<path fill="none" stroke="#000000" d="M1196.0785,-1328.3008C1156.7809,-1326.7537 1112.9407,-1325.0277 1076.2837,-1323.5846"/>
<polygon fill="#000000" stroke="#000000" points="1076.2748,-1320.0816 1066.1448,-1323.1854 1075.9993,-1327.0762 1076.2748,-1320.0816"/>
</g>
<!-- headleaf cost -->
<g id="node31" class="node">
<title>headleaf cost</title>
<ellipse fill="none" stroke="#000000" cx="1119.8497" cy="-1620.5426" rx="56.5182" ry="18"/>
<text text-anchor="middle" x="1119.8497" y="-1616.3426" font-family="Times,serif" font-size="14.00" fill="#000000">headleaf cost</text>
</g>
<!-- head g1 head of prep phrase&#45;&gt;headleaf cost -->
<g id="edge28" class="edge">
<title>head g1 head of prep phrase&#45;&gt;headleaf cost</title>
<path fill="none" stroke="#000000" d="M1291.2599,-1350.5168C1260.0161,-1399.7357 1173.1221,-1536.6215 1136.4826,-1594.3405"/>
<polygon fill="#000000" stroke="#000000" points="1133.4543,-1592.5803 1131.0499,-1602.8987 1139.3641,-1596.3319 1133.4543,-1592.5803"/>
</g>
<!-- head g2 ROOT -->
<g id="node15" class="node">
<title>head g2 ROOT</title>
<ellipse fill="none" stroke="#000000" cx="1814.3714" cy="-2037.7633" rx="64.2787" ry="18"/>
<text text-anchor="middle" x="1814.3714" y="-2033.5633" font-family="Times,serif" font-size="14.00" fill="#000000">head g2 ROOT</text>
</g>
<!-- headleaf Sold&#45;&gt;head g2 ROOT -->
<g id="edge29" class="edge">
<title>headleaf Sold&#45;&gt;head g2 ROOT</title>
<path fill="none" stroke="#000000" d="M1520.7609,-1625.7775C1568.4371,-1692.6754 1738.2546,-1930.9584 1795.4281,-2011.1826"/>
<polygon fill="#000000" stroke="#000000" points="1792.8691,-2013.6226 1801.5231,-2019.7349 1798.5696,-2009.56 1792.8691,-2013.6226"/>
<text text-anchor="middle" x="1648.1597" y="-1825.8811" font-family="Times,serif" font-size="14.00" fill="#000000">head</text>
</g>
<!-- child g1 modifier of nominal&#45;&gt;childleaf $ -->
<g id="edge30" class="edge">
<title>child g1 modifier of nominal&#45;&gt;childleaf $</title>
<path fill="none" stroke="#000000" d="M1167.0017,-796.9477C1135.1252,-743.8357 1041.2034,-587.345 1003.4072,-524.3696"/>
<polygon fill="#000000" stroke="#000000" points="1006.1932,-522.2102 998.0461,-515.4371 1000.1912,-525.8125 1006.1932,-522.2102"/>
</g>
<!-- head g2 ROOT&#45;&gt;headleaf Sold -->
<g id="edge31" class="edge">
<title>head g2 ROOT&#45;&gt;headleaf Sold</title>
<path fill="none" stroke="#000000" d="M1801.6049,-2019.8496C1753.6541,-1952.5665 1584.1485,-1714.7211 1527.0908,-1634.6594"/>
<polygon fill="#000000" stroke="#000000" points="1529.6623,-1632.2369 1521.0084,-1626.1246 1523.9618,-1636.2995 1529.6623,-1632.2369"/>
</g>
<!-- head g2 ROOT&#45;&gt;headleaf receive -->
<g id="edge32" class="edge">
<title>head g2 ROOT&#45;&gt;headleaf receive</title>
<path fill="none" stroke="#000000" d="M1818.4935,-2019.7108C1836.4564,-1941.0428 1907.9719,-1627.8425 1929.8029,-1532.2342"/>
<polygon fill="#000000" stroke="#000000" points="1933.2292,-1532.9513 1932.0432,-1522.423 1926.4049,-1531.393 1933.2292,-1532.9513"/>
</g>
<!-- head g2 ROOT&#45;&gt;headleaf get -->
<g id="edge33" class="edge">
<title>head g2 ROOT&#45;&gt;headleaf get</title>
<path fill="none" stroke="#000000" d="M1809.2991,-2019.4971C1781.7714,-1920.366 1650.3249,-1447.0087 1616.9128,-1326.6871"/>
<polygon fill="#000000" stroke="#000000" points="1620.2091,-1325.4764 1614.161,-1316.7775 1613.4644,-1327.3494 1620.2091,-1325.4764"/>
</g>
<!-- head g2 head of prep phrase -->
<g id="node17" class="node">
<title>head g2 head of prep phrase</title>
<ellipse fill="none" stroke="#000000" cx="830.1098" cy="-2056.4286" rx="109.6053" ry="18"/>
<text text-anchor="middle" x="830.1098" y="-2052.2286" font-family="Times,serif" font-size="14.00" fill="#000000">head g2 head of prep phrase</text>
</g>
<!-- headleaf millions&#45;&gt;head g2 head of prep phrase -->
<g id="edge34" class="edge">
<title>headleaf millions&#45;&gt;head g2 head of prep phrase</title>
<path fill="none" stroke="#000000" d="M991.3032,-1338.5939C969.1547,-1437.2266 863.4853,-1907.7991 836.4309,-2028.2794"/>
<polygon fill="#000000" stroke="#000000" points="832.9767,-2027.6877 834.2005,-2038.2116 839.8066,-2029.2214 832.9767,-2027.6877"/>
<text text-anchor="middle" x="899.534" y="-1691.2207" font-family="Times,serif" font-size="14.00" fill="#000000">head</text>
</g>
<!-- headleaf out -->
<g id="node18" class="node">
<title>headleaf out</title>
<ellipse fill="none" stroke="#000000" cx="161.4688" cy="-2041.1746" rx="53.6284" ry="18"/>
<text text-anchor="middle" x="161.4688" y="-2036.9746" font-family="Times,serif" font-size="14.00" fill="#000000">headleaf out</text>
</g>
<!-- head g2 head of prep phrase&#45;&gt;headleaf out -->
<g id="edge35" class="edge">
<title>head g2 head of prep phrase&#45;&gt;headleaf out</title>
<path fill="none" stroke="#000000" d="M721.5657,-2053.9523C580.8011,-2050.741 339.7947,-2045.2428 225.3762,-2042.6325"/>
<polygon fill="#000000" stroke="#000000" points="225.1146,-2039.1257 215.0373,-2042.3967 224.9548,-2046.1239 225.1146,-2039.1257"/>
</g>
<!-- headleaf has -->
<g id="node34" class="node">
<title>headleaf has</title>
<ellipse fill="none" stroke="#000000" cx="1323.1161" cy="-2061.4853" rx="54.1043" ry="18"/>
<text text-anchor="middle" x="1323.1161" y="-2057.2853" font-family="Times,serif" font-size="14.00" fill="#000000">headleaf has</text>
</g>
<!-- head g2 head of prep phrase&#45;&gt;headleaf has -->
<g id="edge36" class="edge">
<title>head g2 head of prep phrase&#45;&gt;headleaf has</title>
<path fill="none" stroke="#000000" d="M939.5239,-2057.5508C1037.4596,-2058.5554 1177.7266,-2059.9941 1258.7105,-2060.8247"/>
<polygon fill="#000000" stroke="#000000" points="1258.7328,-2064.3251 1268.7682,-2060.9279 1258.8046,-2057.3254 1258.7328,-2064.3251"/>
</g>
<!-- head g2 open clausal complement -->
<g id="node24" class="node">
<title>head g2 open clausal complement</title>
<ellipse fill="none" stroke="#000000" cx="2498.3895" cy="-1340.5691" rx="129.8854" ry="18"/>
<text text-anchor="middle" x="2498.3895" y="-1336.3691" font-family="Times,serif" font-size="14.00" fill="#000000">head g2 open clausal complement</text>
</g>
<!-- headleaf pay&#45;&gt;head g2 open clausal complement -->
<g id="edge37" class="edge">
<title>headleaf pay&#45;&gt;head g2 open clausal complement</title>
<path fill="none" stroke="#000000" d="M2007.5911,-1088.2817C2095.2837,-1133.3587 2352.3155,-1265.482 2455.1422,-1318.3385"/>
<polygon fill="#000000" stroke="#000000" points="2453.8179,-1321.593 2464.3118,-1323.052 2457.0181,-1315.3674 2453.8179,-1321.593"/>
<text text-anchor="middle" x="2222.8048" y="-1208.5014" font-family="Times,serif" font-size="14.00" fill="#000000">head</text>
</g>
<!-- childleaf more -->
<g id="node21" class="node">
<title>childleaf more</title>
<ellipse fill="none" stroke="#000000" cx="684.3004" cy="-1589.4554" rx="61.3463" ry="18"/>
<text text-anchor="middle" x="684.3004" y="-1585.2554" font-family="Times,serif" font-size="14.00" fill="#000000">childleaf more</text>
</g>
<!-- child g1 adjectival modifier&#45;&gt;childleaf more -->
<g id="edge38" class="edge">
<title>child g1 adjectival modifier&#45;&gt;childleaf more</title>
<path fill="none" stroke="#000000" d="M974.9566,-1079.8013C930.1298,-1158.4033 752.764,-1469.4073 699.5023,-1562.7995"/>
<polygon fill="#000000" stroke="#000000" points="696.378,-1561.2129 694.4643,-1571.6334 702.4587,-1564.6807 696.378,-1561.2129"/>
</g>
<!-- headleaf agreed -->
<g id="node25" class="node">
<title>headleaf agreed</title>
<ellipse fill="none" stroke="#000000" cx="2453.1088" cy="-1975.2791" rx="65.6556" ry="18"/>
<text text-anchor="middle" x="2453.1088" y="-1971.0791" font-family="Times,serif" font-size="14.00" fill="#000000">headleaf agreed</text>
</g>
<!-- head g2 open clausal complement&#45;&gt;headleaf agreed -->
<g id="edge39" class="edge">
<title>head g2 open clausal complement&#45;&gt;headleaf agreed</title>
<path fill="none" stroke="#000000" d="M2497.0831,-1358.8802C2490.7115,-1448.193 2462.8874,-1838.2101 2455.1257,-1947.0072"/>
<polygon fill="#000000" stroke="#000000" points="2451.6193,-1946.9742 2454.3987,-1957.198 2458.6015,-1947.4724 2451.6193,-1946.9742"/>
</g>
<!-- headleaf offering -->
<g id="node30" class="node">
<title>headleaf offering</title>
<ellipse fill="none" stroke="#000000" cx="2511.2999" cy="-790.2527" rx="70.681" ry="18"/>
<text text-anchor="middle" x="2511.2999" y="-786.0527" font-family="Times,serif" font-size="14.00" fill="#000000">headleaf offering</text>
</g>
<!-- head g2 open clausal complement&#45;&gt;headleaf offering -->
<g id="edge40" class="edge">
<title>head g2 open clausal complement&#45;&gt;headleaf offering</title>
<path fill="none" stroke="#000000" d="M2498.819,-1322.2591C2500.7146,-1241.4561 2508.3392,-916.4529 2510.6396,-818.398"/>
<polygon fill="#000000" stroke="#000000" points="2514.1397,-818.4316 2510.8753,-808.3522 2507.1416,-818.2673 2514.1397,-818.4316"/>
</g>
<!-- headleaf million -->
<g id="node27" class="node">
<title>headleaf million</title>
<ellipse fill="none" stroke="#000000" cx="1629.0607" cy="-487.1896" rx="67.6283" ry="18"/>
<text text-anchor="middle" x="1629.0607" y="-482.9896" font-family="Times,serif" font-size="14.00" fill="#000000">headleaf million</text>
</g>
<!-- head g1 ROOT&#45;&gt;headleaf million -->
<g id="edge41" class="edge">
<title>head g1 ROOT&#45;&gt;headleaf million</title>
<path fill="none" stroke="#000000" d="M1414.5012,-928.0568C1444.2462,-892.0192 1511.4472,-806.7213 1551.6117,-725.4892 1587.3868,-653.1345 1611.9887,-560.4795 1622.8204,-514.9609"/>
<polygon fill="#000000" stroke="#000000" points="1626.2307,-515.7481 1625.0997,-505.2138 1619.4145,-514.1542 1626.2307,-515.7481"/>
</g>
<!-- headleaf cost&#45;&gt;head g2 head of prep phrase -->
<g id="edge42" class="edge">
<title>headleaf cost&#45;&gt;head g2 head of prep phrase</title>
<path fill="none" stroke="#000000" d="M1108.1327,-1638.1697C1063.2783,-1705.6488 902.2859,-1947.8465 848.0734,-2029.4041"/>
<polygon fill="#000000" stroke="#000000" points="844.9149,-2027.8332 842.294,-2038.0987 850.7445,-2031.7082 844.9149,-2027.8332"/>
<text text-anchor="middle" x="961.9184" y="-1841.0562" font-family="Times,serif" font-size="14.00" fill="#000000">head</text>
</g>
<!-- childleaf year -->
<g id="node33" class="node">
<title>childleaf year</title>
<ellipse fill="none" stroke="#000000" cx="1483.0999" cy="-24.5446" rx="58.4391" ry="18"/>
<text text-anchor="middle" x="1483.0999" y="-20.3446" font-family="Times,serif" font-size="14.00" fill="#000000">childleaf year</text>
</g>
<!-- child g1 noun phrase as adverbial modifier&#45;&gt;childleaf year -->
<g id="edge43" class="edge">
<title>child g1 noun phrase as adverbial modifier&#45;&gt;childleaf year</title>
<path fill="none" stroke="#000000" d="M1295.0772,-453.005C1325.4188,-383.8635 1434.3405,-135.6561 1470.9777,-52.1682"/>
<polygon fill="#000000" stroke="#000000" points="1474.2637,-53.3899 1475.0772,-42.8264 1467.8538,-50.577 1474.2637,-53.3899"/>
</g>
<!-- childleaf years -->
<g id="node39" class="node">
<title>childleaf years</title>
<ellipse fill="none" stroke="#000000" cx="1117.2367" cy="-18" rx="61.8222" ry="18"/>
<text text-anchor="middle" x="1117.2367" y="-13.8" font-family="Times,serif" font-size="14.00" fill="#000000">childleaf years</text>
</g>
<!-- child g1 noun phrase as adverbial modifier&#45;&gt;childleaf years -->
<g id="edge44" class="edge">
<title>child g1 noun phrase as adverbial modifier&#45;&gt;childleaf years</title>
<path fill="none" stroke="#000000" d="M1280.3874,-453.0219C1254.1714,-383.1198 1159.1757,-129.8251 1127.555,-45.5124"/>
<polygon fill="#000000" stroke="#000000" points="1130.8106,-44.2258 1124.0219,-36.0917 1124.2564,-46.6839 1130.8106,-44.2258"/>
</g>
<!-- headleaf receive&#45;&gt;head g2 ROOT -->
<g id="edge45" class="edge">
<title>headleaf receive&#45;&gt;head g2 ROOT</title>
<path fill="none" stroke="#000000" d="M1932.0422,-1522.4275C1914.0793,-1601.0956 1842.5637,-1914.2958 1820.7327,-2009.9042"/>
<polygon fill="#000000" stroke="#000000" points="1817.3064,-2009.1871 1818.4924,-2019.7153 1824.1308,-2010.7454 1817.3064,-2009.1871"/>
<text text-anchor="middle" x="1862.0786" y="-1773.7613" font-family="Times,serif" font-size="14.00" fill="#000000">head</text>
</g>
<!-- headleaf get&#45;&gt;head g2 ROOT -->
<g id="edge46" class="edge">
<title>headleaf get&#45;&gt;head g2 ROOT</title>
<path fill="none" stroke="#000000" d="M1614.2469,-1317.0866C1641.7746,-1416.2178 1773.2211,-1889.5751 1806.6332,-2009.8967"/>
<polygon fill="#000000" stroke="#000000" points="1803.3368,-2011.1074 1809.385,-2019.8063 1810.0816,-2009.2344 1803.3368,-2011.1074"/>
<text text-anchor="middle" x="1698.5785" y="-1671.1617" font-family="Times,serif" font-size="14.00" fill="#000000">head</text>
</g>
</g>
</svg>
