<?xml version="1.0" encoding="UTF-8" standalone="no"?>
<!DOCTYPE svg PUBLIC "-//W3C//DTD SVG 1.1//EN"
 "http://www.w3.org/Graphics/SVG/1.1/DTD/svg11.dtd">
<!-- Generated by graphviz version 2.40.1 (20161225.0304)
 -->
<!-- Title: %3 Pages: 1 -->
<svg width="1638pt" height="1650pt"
 viewBox="0.00 0.00 1637.66 1649.90" xmlns="http://www.w3.org/2000/svg" xmlns:xlink="http://www.w3.org/1999/xlink">
<g id="graph0" class="graph" transform="scale(1 1) rotate(0) translate(4 1645.9038)">
<title>%3</title>
<polygon fill="#ffffff" stroke="transparent" points="-4,4 -4,-1645.9038 1633.6551,-1645.9038 1633.6551,4 -4,4"/>
<!-- MONEY -->
<g id="node1" class="node">
<title>MONEY</title>
<ellipse fill="none" stroke="#000000" cx="658.3413" cy="-822.2564" rx="42.5629" ry="18"/>
<text text-anchor="middle" x="658.3413" y="-818.0564" font-family="Times,serif" font-size="14.00" fill="#000000">MONEY</text>
<text text-anchor="middle" x="609.0662" y="-843.0564" font-family="Times,serif" font-size="14.00" fill="#000000">11</text>
</g>
<!-- head g1 direct object -->
<g id="node2" class="node">
<title>head g1 direct object</title>
<ellipse fill="none" stroke="#000000" cx="910.0861" cy="-813.0095" rx="84.0308" ry="18"/>
<text text-anchor="middle" x="910.0861" y="-808.8095" font-family="Times,serif" font-size="14.00" fill="#000000">head g1 direct object</text>
</g>
<!-- MONEY&#45;&gt;head g1 direct object -->
<g id="edge1" class="edge">
<title>MONEY&#45;&gt;head g1 direct object</title>
<path fill="none" stroke="#000000" d="M700.7617,-820.6982C732.54,-819.531 777.2341,-817.8893 817.1679,-816.4225"/>
<polygon fill="#000000" stroke="#000000" points="817.3425,-819.9185 827.2072,-816.0537 817.0855,-812.9233 817.3425,-819.9185"/>
<text text-anchor="middle" x="750.7649" y="-821.1762" font-family="Times,serif" font-size="14.00" fill="#000000">head</text>
</g>
<!-- child g1 modifier of quantifier -->
<g id="node4" class="node">
<title>child g1 modifier of quantifier</title>
<ellipse fill="none" stroke="#000000" cx="649.8355" cy="-1054.0045" rx="116.9072" ry="18"/>
<text text-anchor="middle" x="649.8355" y="-1049.8045" font-family="Times,serif" font-size="14.00" fill="#000000">child g1 modifier of quantifier</text>
</g>
<!-- MONEY&#45;&gt;child g1 modifier of quantifier -->
<g id="edge2" class="edge">
<title>MONEY&#45;&gt;child g1 modifier of quantifier</title>
<path fill="none" stroke="#000000" d="M657.6738,-840.4413C656.1956,-880.717 652.6369,-977.6772 650.8687,-1025.8555"/>
<polygon fill="#000000" stroke="#000000" points="647.3691,-1025.7824 650.4999,-1035.904 654.3644,-1026.0392 647.3691,-1025.7824"/>
<text text-anchor="middle" x="640.0946" y="-940.8549" font-family="Times,serif" font-size="14.00" fill="#000000">child</text>
</g>
<!-- child g1 compound -->
<g id="node6" class="node">
<title>child g1 compound</title>
<ellipse fill="none" stroke="#000000" cx="387.4311" cy="-777.0614" rx="78.278" ry="18"/>
<text text-anchor="middle" x="387.4311" y="-772.8614" font-family="Times,serif" font-size="14.00" fill="#000000">child g1 compound</text>
</g>
<!-- MONEY&#45;&gt;child g1 compound -->
<g id="edge3" class="edge">
<title>MONEY&#45;&gt;child g1 compound</title>
<path fill="none" stroke="#000000" d="M618.6585,-815.6362C577.3236,-808.7405 511.628,-797.7807 460.808,-789.3026"/>
<polygon fill="#000000" stroke="#000000" points="461.2936,-785.8353 450.8539,-787.642 460.1417,-792.7399 461.2936,-785.8353"/>
<text text-anchor="middle" x="520.7481" y="-804.4372" font-family="Times,serif" font-size="14.00" fill="#000000">child</text>
</g>
<!-- child g1 prepositional modifier -->
<g id="node8" class="node">
<title>child g1 prepositional modifier</title>
<ellipse fill="none" stroke="#000000" cx="738.6201" cy="-615.0776" rx="119.3131" ry="18"/>
<text text-anchor="middle" x="738.6201" y="-610.8776" font-family="Times,serif" font-size="14.00" fill="#000000">child g1 prepositional modifier</text>
</g>
<!-- MONEY&#45;&gt;child g1 prepositional modifier -->
<g id="edge4" class="edge">
<title>MONEY&#45;&gt;child g1 prepositional modifier</title>
<path fill="none" stroke="#000000" d="M665.325,-804.2331C679.3808,-767.9589 711.1654,-685.9312 727.8822,-642.7893"/>
<polygon fill="#000000" stroke="#000000" points="731.2457,-643.7959 731.5953,-633.2068 724.7186,-641.2666 731.2457,-643.7959"/>
<text text-anchor="middle" x="684.5157" y="-721.3855" font-family="Times,serif" font-size="14.00" fill="#000000">child</text>
</g>
<!-- head g1 head of prep phrase -->
<g id="node12" class="node">
<title>head g1 head of prep phrase</title>
<ellipse fill="none" stroke="#000000" cx="994.5999" cy="-628.9365" rx="109.6053" ry="18"/>
<text text-anchor="middle" x="994.5999" y="-624.7365" font-family="Times,serif" font-size="14.00" fill="#000000">head g1 head of prep phrase</text>
</g>
<!-- MONEY&#45;&gt;head g1 head of prep phrase -->
<g id="edge5" class="edge">
<title>MONEY&#45;&gt;head g1 head of prep phrase</title>
<path fill="none" stroke="#000000" d="M683.6153,-807.726C741.7922,-774.2793 885.523,-691.6463 955.3154,-651.5217"/>
<polygon fill="#000000" stroke="#000000" points="957.3295,-654.401 964.2544,-646.3825 953.8406,-648.3324 957.3295,-654.401"/>
<text text-anchor="middle" x="810.7299" y="-729.8491" font-family="Times,serif" font-size="14.00" fill="#000000">head</text>
</g>
<!-- child g1 modifier of nominal -->
<g id="node14" class="node">
<title>child g1 modifier of nominal</title>
<ellipse fill="none" stroke="#000000" cx="854.8457" cy="-1002.8393" rx="111.5878" ry="18"/>
<text text-anchor="middle" x="854.8457" y="-998.6393" font-family="Times,serif" font-size="14.00" fill="#000000">child g1 modifier of nominal</text>
</g>
<!-- MONEY&#45;&gt;child g1 modifier of nominal -->
<g id="edge6" class="edge">
<title>MONEY&#45;&gt;child g1 modifier of nominal</title>
<path fill="none" stroke="#000000" d="M676.4757,-838.9215C711.1977,-870.8302 787.2254,-940.6978 827.9042,-978.0807"/>
<polygon fill="#000000" stroke="#000000" points="825.577,-980.6955 835.3083,-984.8849 830.3135,-975.5414 825.577,-980.6955"/>
<text text-anchor="middle" x="741.9647" y="-914.7668" font-family="Times,serif" font-size="14.00" fill="#000000">child</text>
</g>
<!-- child g1 adjectival modifier -->
<g id="node19" class="node">
<title>child g1 adjectival modifier</title>
<ellipse fill="none" stroke="#000000" cx="413.3204" cy="-1002.2849" rx="107.7104" ry="18"/>
<text text-anchor="middle" x="413.3204" y="-998.0849" font-family="Times,serif" font-size="14.00" fill="#000000">child g1 adjectival modifier</text>
</g>
<!-- MONEY&#45;&gt;child g1 adjectival modifier -->
<g id="edge7" class="edge">
<title>MONEY&#45;&gt;child g1 adjectival modifier</title>
<path fill="none" stroke="#000000" d="M637.0259,-837.9178C593.9914,-869.5373 496.5063,-941.1643 445.6148,-978.5567"/>
<polygon fill="#000000" stroke="#000000" points="443.256,-975.9466 437.2698,-984.6882 447.4008,-981.5876 443.256,-975.9466"/>
<text text-anchor="middle" x="523.0667" y="-914.1651" font-family="Times,serif" font-size="14.00" fill="#000000">child</text>
</g>
<!-- child g1 noun phrase as adverbial modifier -->
<g id="node28" class="node">
<title>child g1 noun phrase as adverbial modifier</title>
<ellipse fill="none" stroke="#000000" cx="467.3163" cy="-586.2661" rx="160.7984" ry="18"/>
<text text-anchor="middle" x="467.3163" y="-582.0661" font-family="Times,serif" font-size="14.00" fill="#000000">child g1 noun phrase as adverbial modifier</text>
</g>
<!-- MONEY&#45;&gt;child g1 noun phrase as adverbial modifier -->
<g id="edge8" class="edge">
<title>MONEY&#45;&gt;child g1 noun phrase as adverbial modifier</title>
<path fill="none" stroke="#000000" d="M644.2947,-804.9035C611.0632,-763.8495 527.4708,-660.5803 488.2482,-612.1251"/>
<polygon fill="#000000" stroke="#000000" points="490.917,-609.8591 481.9048,-604.2885 485.4761,-614.2633 490.917,-609.8591"/>
<text text-anchor="middle" x="549.2507" y="-707.5782" font-family="Times,serif" font-size="14.00" fill="#000000">child</text>
</g>
<!-- does -->
<g id="node3" class="node">
<title>does</title>
<ellipse fill="none" stroke="#000000" cx="1259.1569" cy="-752.9374" rx="27" ry="18"/>
<text text-anchor="middle" x="1259.1569" y="-748.7374" font-family="Times,serif" font-size="14.00" fill="#000000">does</text>
</g>
<!-- head g1 direct object&#45;&gt;does -->
<g id="edge9" class="edge">
<title>head g1 direct object&#45;&gt;does</title>
<path fill="none" stroke="#000000" d="M975.7436,-801.7104C1048.9629,-789.11 1164.746,-769.1847 1223.0613,-759.1491"/>
<polygon fill="#000000" stroke="#000000" points="1223.6606,-762.5975 1232.9221,-757.4522 1222.4733,-755.699 1223.6606,-762.5975"/>
</g>
<!-- pay -->
<g id="node18" class="node">
<title>pay</title>
<ellipse fill="none" stroke="#000000" cx="989.1016" cy="-1228.8831" rx="27" ry="18"/>
<text text-anchor="middle" x="989.1016" y="-1224.6831" font-family="Times,serif" font-size="14.00" fill="#000000">pay</text>
</g>
<!-- head g1 direct object&#45;&gt;pay -->
<g id="edge10" class="edge">
<title>head g1 direct object&#45;&gt;pay</title>
<path fill="none" stroke="#000000" d="M918.2136,-831.1567C932.6923,-864.4403 962.6414,-937.824 975.5775,-1003.0246 989.4961,-1073.1776 990.4574,-1157.7877 989.8518,-1200.8057"/>
<polygon fill="#000000" stroke="#000000" points="986.3523,-1200.7506 989.671,-1210.8122 993.3511,-1200.8771 986.3523,-1200.7506"/>
</g>
<!-- receive -->
<g id="node31" class="node">
<title>receive</title>
<ellipse fill="none" stroke="#000000" cx="1270.5867" cy="-1200.7726" rx="35.7627" ry="18"/>
<text text-anchor="middle" x="1270.5867" y="-1196.5726" font-family="Times,serif" font-size="14.00" fill="#000000">receive</text>
</g>
<!-- head g1 direct object&#45;&gt;receive -->
<g id="edge11" class="edge">
<title>head g1 direct object&#45;&gt;receive</title>
<path fill="none" stroke="#000000" d="M926.5128,-830.6785C984.738,-893.3069 1181.3494,-1104.7868 1248.1552,-1176.6447"/>
<polygon fill="#000000" stroke="#000000" points="1245.9131,-1179.3735 1255.2854,-1184.3142 1251.0398,-1174.6072 1245.9131,-1179.3735"/>
</g>
<!-- get -->
<g id="node33" class="node">
<title>get</title>
<ellipse fill="none" stroke="#000000" cx="1118.3167" cy="-955.1827" rx="27" ry="18"/>
<text text-anchor="middle" x="1118.3167" y="-950.9827" font-family="Times,serif" font-size="14.00" fill="#000000">get</text>
</g>
<!-- head g1 direct object&#45;&gt;get -->
<g id="edge12" class="edge">
<title>head g1 direct object&#45;&gt;get</title>
<path fill="none" stroke="#000000" d="M935.6192,-830.4427C975.0782,-857.3841 1050.5398,-908.9068 1091.034,-936.555"/>
<polygon fill="#000000" stroke="#000000" points="1089.1228,-939.488 1099.355,-942.2363 1093.0699,-933.707 1089.1228,-939.488"/>
</g>
<!-- head g2 relcl -->
<g id="node10" class="node">
<title>head g2 relcl</title>
<ellipse fill="none" stroke="#000000" cx="1573.8801" cy="-1013.3182" rx="55.551" ry="18"/>
<text text-anchor="middle" x="1573.8801" y="-1009.1182" font-family="Times,serif" font-size="14.00" fill="#000000">head g2 relcl</text>
</g>
<!-- does&#45;&gt;head g2 relcl -->
<g id="edge13" class="edge">
<title>does&#45;&gt;head g2 relcl</title>
<path fill="none" stroke="#000000" d="M1276.5261,-767.3075C1328.1999,-810.059 1481.3279,-936.7467 1545.2966,-989.6702"/>
<polygon fill="#000000" stroke="#000000" points="1543.4203,-992.6605 1553.3564,-996.3383 1547.8825,-987.267 1543.4203,-992.6605"/>
<text text-anchor="middle" x="1401.749" y="-884.6408" font-family="Times,serif" font-size="14.00" fill="#000000">head</text>
</g>
<!-- $ -->
<g id="node5" class="node">
<title>$</title>
<ellipse fill="none" stroke="#000000" cx="738.1001" cy="-1290.8525" rx="27" ry="18"/>
<text text-anchor="middle" x="738.1001" y="-1286.6525" font-family="Times,serif" font-size="14.00" fill="#000000">$</text>
</g>
<!-- child g1 modifier of quantifier&#45;&gt;$ -->
<g id="edge14" class="edge">
<title>child g1 modifier of quantifier&#45;&gt;$</title>
<path fill="none" stroke="#000000" d="M656.6149,-1072.1963C672.0289,-1113.5579 709.7732,-1214.8404 727.9676,-1263.6631"/>
<polygon fill="#000000" stroke="#000000" points="724.7666,-1265.0964 731.5383,-1273.2447 731.3259,-1262.652 724.7666,-1265.0964"/>
</g>
<!-- than -->
<g id="node21" class="node">
<title>than</title>
<ellipse fill="none" stroke="#000000" cx="520.4172" cy="-1623.9038" rx="27" ry="18"/>
<text text-anchor="middle" x="520.4172" y="-1619.7038" font-family="Times,serif" font-size="14.00" fill="#000000">than</text>
</g>
<!-- child g1 modifier of quantifier&#45;&gt;than -->
<g id="edge15" class="edge">
<title>child g1 modifier of quantifier&#45;&gt;than</title>
<path fill="none" stroke="#000000" d="M645.7485,-1072.0017C627.0521,-1154.3321 549.6067,-1495.3663 526.7776,-1595.8953"/>
<polygon fill="#000000" stroke="#000000" points="523.3066,-1595.3754 524.5051,-1605.9022 530.1328,-1596.9256 523.3066,-1595.3754"/>
</g>
<!-- 4 -->
<g id="node7" class="node">
<title>4</title>
<ellipse fill="none" stroke="#000000" cx="229.9698" cy="-388.277" rx="27" ry="18"/>
<text text-anchor="middle" x="229.9698" y="-384.077" font-family="Times,serif" font-size="14.00" fill="#000000">4</text>
</g>
<!-- child g1 compound&#45;&gt;4 -->
<g id="edge16" class="edge">
<title>child g1 compound&#45;&gt;4</title>
<path fill="none" stroke="#000000" d="M377.4569,-759.0446C359.2249,-725.6544 319.9676,-651.5994 293.5461,-586.2052 269.5706,-526.8649 248.3052,-454.764 237.4993,-416.0532"/>
<polygon fill="#000000" stroke="#000000" points="240.7741,-414.7638 234.7352,-406.0585 234.0274,-416.6297 240.7741,-414.7638"/>
</g>
<!-- 500 -->
<g id="node22" class="node">
<title>500</title>
<ellipse fill="none" stroke="#000000" cx="27" cy="-597.9535" rx="27" ry="18"/>
<text text-anchor="middle" x="27" y="-593.7535" font-family="Times,serif" font-size="14.00" fill="#000000">500</text>
</g>
<!-- child g1 compound&#45;&gt;500 -->
<g id="edge17" class="edge">
<title>child g1 compound&#45;&gt;500</title>
<path fill="none" stroke="#000000" d="M354.4897,-760.6919C285.2538,-726.2867 125.4737,-646.8878 57.9833,-613.3499"/>
<polygon fill="#000000" stroke="#000000" points="59.2299,-610.0611 48.7171,-608.7453 56.1148,-616.3298 59.2299,-610.0611"/>
</g>
<!-- 5 -->
<g id="node25" class="node">
<title>5</title>
<ellipse fill="none" stroke="#000000" cx="100.3492" cy="-1597.5435" rx="27" ry="18"/>
<text text-anchor="middle" x="100.3492" y="-1593.3435" font-family="Times,serif" font-size="14.00" fill="#000000">5</text>
</g>
<!-- child g1 compound&#45;&gt;5 -->
<g id="edge18" class="edge">
<title>child g1 compound&#45;&gt;5</title>
<path fill="none" stroke="#000000" d="M379.7869,-794.9989C363.7199,-832.933 325.5819,-924.2066 297.112,-1002.1012 217.822,-1219.0414 134.8189,-1485.3502 108.7109,-1570.2142"/>
<polygon fill="#000000" stroke="#000000" points="105.3358,-1569.2824 105.7454,-1579.8693 112.0273,-1571.3377 105.3358,-1569.2824"/>
</g>
<!-- 55 -->
<g id="node32" class="node">
<title>55</title>
<ellipse fill="none" stroke="#000000" cx="65.66" cy="-1200.0543" rx="27" ry="18"/>
<text text-anchor="middle" x="65.66" y="-1195.8543" font-family="Times,serif" font-size="14.00" fill="#000000">55</text>
</g>
<!-- child g1 compound&#45;&gt;55 -->
<g id="edge19" class="edge">
<title>child g1 compound&#45;&gt;55</title>
<path fill="none" stroke="#000000" d="M373.8105,-794.9667C322.7863,-862.042 142.8943,-1098.5239 84.2766,-1175.5814"/>
<polygon fill="#000000" stroke="#000000" points="81.3228,-1173.6835 78.054,-1183.7615 86.8941,-1177.9215 81.3228,-1173.6835"/>
</g>
<!-- 41 -->
<g id="node34" class="node">
<title>41</title>
<ellipse fill="none" stroke="#000000" cx="74.1226" cy="-903.6457" rx="27" ry="18"/>
<text text-anchor="middle" x="74.1226" y="-899.4457" font-family="Times,serif" font-size="14.00" fill="#000000">41</text>
</g>
<!-- child g1 compound&#45;&gt;41 -->
<g id="edge20" class="edge">
<title>child g1 compound&#45;&gt;41</title>
<path fill="none" stroke="#000000" d="M348.3838,-792.8374C286.0466,-818.0232 165.1579,-866.8652 106.9745,-890.3727"/>
<polygon fill="#000000" stroke="#000000" points="105.4903,-887.1974 97.5296,-894.1887 108.1126,-893.6877 105.4903,-887.1974"/>
</g>
<!-- in -->
<g id="node9" class="node">
<title>in</title>
<ellipse fill="none" stroke="#000000" cx="478.6662" cy="-22.6559" rx="27" ry="18"/>
<text text-anchor="middle" x="478.6662" y="-18.4559" font-family="Times,serif" font-size="14.00" fill="#000000">in</text>
</g>
<!-- child g1 prepositional modifier&#45;&gt;in -->
<g id="edge21" class="edge">
<title>child g1 prepositional modifier&#45;&gt;in</title>
<path fill="none" stroke="#000000" d="M730.6983,-597.0241C693.3535,-511.9173 534.8423,-150.6783 490.3323,-49.2424"/>
<polygon fill="#000000" stroke="#000000" points="493.497,-47.7439 486.2737,-39.9931 487.0869,-50.5567 493.497,-47.7439"/>
</g>
<!-- industry -->
<g id="node11" class="node">
<title>industry</title>
<ellipse fill="none" stroke="#000000" cx="1573.5163" cy="-572.3078" rx="39.1887" ry="18"/>
<text text-anchor="middle" x="1573.5163" y="-568.1078" font-family="Times,serif" font-size="14.00" fill="#000000">industry</text>
</g>
<!-- head g2 relcl&#45;&gt;industry -->
<g id="edge22" class="edge">
<title>head g2 relcl&#45;&gt;industry</title>
<path fill="none" stroke="#000000" d="M1573.8652,-995.2079C1573.8087,-926.8005 1573.6083,-683.8114 1573.5396,-600.545"/>
<polygon fill="#000000" stroke="#000000" points="1577.0395,-600.3228 1573.5311,-590.3257 1570.0395,-600.3286 1577.0395,-600.3228"/>
</g>
<!-- Sold -->
<g id="node13" class="node">
<title>Sold</title>
<ellipse fill="none" stroke="#000000" cx="597.1047" cy="-365.2579" rx="27" ry="18"/>
<text text-anchor="middle" x="597.1047" y="-361.0579" font-family="Times,serif" font-size="14.00" fill="#000000">Sold</text>
</g>
<!-- head g1 head of prep phrase&#45;&gt;Sold -->
<g id="edge23" class="edge">
<title>head g1 head of prep phrase&#45;&gt;Sold</title>
<path fill="none" stroke="#000000" d="M968.2112,-611.4316C896.5428,-563.8903 698.7414,-432.6786 625.159,-383.8677"/>
<polygon fill="#000000" stroke="#000000" points="626.6869,-380.6812 616.4189,-378.07 622.8174,-386.5145 626.6869,-380.6812"/>
</g>
<!-- millions -->
<g id="node15" class="node">
<title>millions</title>
<ellipse fill="none" stroke="#000000" cx="1214.7098" cy="-420.0029" rx="39.1973" ry="18"/>
<text text-anchor="middle" x="1214.7098" y="-415.8029" font-family="Times,serif" font-size="14.00" fill="#000000">millions</text>
</g>
<!-- head g1 head of prep phrase&#45;&gt;millions -->
<g id="edge24" class="edge">
<title>head g1 head of prep phrase&#45;&gt;millions</title>
<path fill="none" stroke="#000000" d="M1013.3663,-611.1229C1053.0862,-573.4198 1145.6417,-485.5639 1190.0624,-443.3987"/>
<polygon fill="#000000" stroke="#000000" points="1192.678,-445.7417 1197.5212,-436.3187 1187.8588,-440.6647 1192.678,-445.7417"/>
</g>
<!-- cost -->
<g id="node27" class="node">
<title>cost</title>
<ellipse fill="none" stroke="#000000" cx="899.0257" cy="-373.3187" rx="27" ry="18"/>
<text text-anchor="middle" x="899.0257" y="-369.1187" font-family="Times,serif" font-size="14.00" fill="#000000">cost</text>
</g>
<!-- head g1 head of prep phrase&#45;&gt;cost -->
<g id="edge25" class="edge">
<title>head g1 head of prep phrase&#45;&gt;cost</title>
<path fill="none" stroke="#000000" d="M987.8793,-610.9619C971.388,-566.8551 928.8396,-453.0576 909.2164,-400.5743"/>
<polygon fill="#000000" stroke="#000000" points="912.3925,-399.0749 905.6119,-390.934 905.8358,-401.5265 912.3925,-399.0749"/>
</g>
<!-- child g1 modifier of nominal&#45;&gt;$ -->
<g id="edge26" class="edge">
<title>child g1 modifier of nominal&#45;&gt;$</title>
<path fill="none" stroke="#000000" d="M847.5428,-1020.8559C827.6762,-1069.8669 772.5698,-1205.8154 749.0104,-1263.9367"/>
<polygon fill="#000000" stroke="#000000" points="745.7643,-1262.6281 745.2513,-1273.2106 752.2516,-1265.2578 745.7643,-1262.6281"/>
</g>
<!-- head g2 head of prep phrase -->
<g id="node16" class="node">
<title>head g2 head of prep phrase</title>
<ellipse fill="none" stroke="#000000" cx="1141.4125" cy="-23.471" rx="109.6053" ry="18"/>
<text text-anchor="middle" x="1141.4125" y="-19.271" font-family="Times,serif" font-size="14.00" fill="#000000">head g2 head of prep phrase</text>
</g>
<!-- millions&#45;&gt;head g2 head of prep phrase -->
<g id="edge27" class="edge">
<title>millions&#45;&gt;head g2 head of prep phrase</title>
<path fill="none" stroke="#000000" d="M1211.3699,-401.9343C1199.7078,-338.8433 1160.7407,-128.0347 1146.5975,-51.5214"/>
<polygon fill="#000000" stroke="#000000" points="1150.0315,-50.8429 1144.772,-41.6457 1143.1481,-52.1153 1150.0315,-50.8429"/>
<text text-anchor="middle" x="1164.7992" y="-224.277" font-family="Times,serif" font-size="14.00" fill="#000000">head</text>
</g>
<!-- out -->
<g id="node17" class="node">
<title>out</title>
<ellipse fill="none" stroke="#000000" cx="807.5473" cy="-18" rx="27" ry="18"/>
<text text-anchor="middle" x="807.5473" y="-13.8" font-family="Times,serif" font-size="14.00" fill="#000000">out</text>
</g>
<!-- head g2 head of prep phrase&#45;&gt;out -->
<g id="edge28" class="edge">
<title>head g2 head of prep phrase&#45;&gt;out</title>
<path fill="none" stroke="#000000" d="M1032.0926,-21.6796C967.4787,-20.6208 889.739,-19.3469 844.7474,-18.6096"/>
<polygon fill="#000000" stroke="#000000" points="844.6377,-15.1074 834.5817,-18.443 844.523,-22.1065 844.6377,-15.1074"/>
</g>
<!-- has -->
<g id="node30" class="node">
<title>has</title>
<ellipse fill="none" stroke="#000000" cx="1545.0194" cy="-79.226" rx="27" ry="18"/>
<text text-anchor="middle" x="1545.0194" y="-75.026" font-family="Times,serif" font-size="14.00" fill="#000000">has</text>
</g>
<!-- head g2 head of prep phrase&#45;&gt;has -->
<g id="edge29" class="edge">
<title>head g2 head of prep phrase&#45;&gt;has</title>
<path fill="none" stroke="#000000" d="M1225.5305,-35.0912C1312.6301,-47.1233 1444.6889,-65.3662 1508.2689,-74.1492"/>
<polygon fill="#000000" stroke="#000000" points="1507.8462,-77.624 1518.2311,-75.5254 1508.8042,-70.6898 1507.8462,-77.624"/>
</g>
<!-- head g2 open clausal complement -->
<g id="node23" class="node">
<title>head g2 open clausal complement</title>
<ellipse fill="none" stroke="#000000" cx="1178.2157" cy="-1605.5868" rx="129.8854" ry="18"/>
<text text-anchor="middle" x="1178.2157" y="-1601.3868" font-family="Times,serif" font-size="14.00" fill="#000000">head g2 open clausal complement</text>
</g>
<!-- pay&#45;&gt;head g2 open clausal complement -->
<g id="edge30" class="edge">
<title>pay&#45;&gt;head g2 open clausal complement</title>
<path fill="none" stroke="#000000" d="M997.7189,-1246.0481C1027.7315,-1305.8314 1127.8345,-1505.2306 1164.5573,-1578.3801"/>
<polygon fill="#000000" stroke="#000000" points="1161.4937,-1580.0786 1169.1083,-1587.4454 1167.7496,-1576.938 1161.4937,-1580.0786"/>
<text text-anchor="middle" x="1070.2998" y="-1419.7461" font-family="Times,serif" font-size="14.00" fill="#000000">head</text>
</g>
<!-- more -->
<g id="node20" class="node">
<title>more</title>
<ellipse fill="none" stroke="#000000" cx="435.0979" cy="-1270.3795" rx="28.0565" ry="18"/>
<text text-anchor="middle" x="435.0979" y="-1266.1795" font-family="Times,serif" font-size="14.00" fill="#000000">more</text>
</g>
<!-- child g1 adjectival modifier&#45;&gt;more -->
<g id="edge31" class="edge">
<title>child g1 adjectival modifier&#45;&gt;more</title>
<path fill="none" stroke="#000000" d="M414.7831,-1020.2916C418.4935,-1065.9686 428.2953,-1186.6349 432.7885,-1241.9484"/>
<polygon fill="#000000" stroke="#000000" points="429.3147,-1242.4144 433.6129,-1252.0982 436.2917,-1241.8476 429.3147,-1242.4144"/>
</g>
<!-- agreed -->
<g id="node24" class="node">
<title>agreed</title>
<ellipse fill="none" stroke="#000000" cx="857.3963" cy="-1619.3893" rx="33.8422" ry="18"/>
<text text-anchor="middle" x="857.3963" y="-1615.1893" font-family="Times,serif" font-size="14.00" fill="#000000">agreed</text>
</g>
<!-- head g2 open clausal complement&#45;&gt;agreed -->
<g id="edge32" class="edge">
<title>head g2 open clausal complement&#45;&gt;agreed</title>
<path fill="none" stroke="#000000" d="M1053.7194,-1610.9429C999.8784,-1613.2593 940.3474,-1615.8205 901.1126,-1617.5085"/>
<polygon fill="#000000" stroke="#000000" points="900.9393,-1614.0126 891.0991,-1617.9393 901.2403,-1621.0061 900.9393,-1614.0126"/>
</g>
<!-- offering -->
<g id="node26" class="node">
<title>offering</title>
<ellipse fill="none" stroke="#000000" cx="1561.7589" cy="-1540.3418" rx="38.3672" ry="18"/>
<text text-anchor="middle" x="1561.7589" y="-1536.1418" font-family="Times,serif" font-size="14.00" fill="#000000">offering</text>
</g>
<!-- head g2 open clausal complement&#45;&gt;offering -->
<g id="edge33" class="edge">
<title>head g2 open clausal complement&#45;&gt;offering</title>
<path fill="none" stroke="#000000" d="M1260.4953,-1591.5901C1338.2677,-1578.3601 1452.1713,-1558.9839 1515.3,-1548.245"/>
<polygon fill="#000000" stroke="#000000" points="1516.0846,-1551.6619 1525.356,-1546.5344 1514.9107,-1544.761 1516.0846,-1551.6619"/>
</g>
<!-- cost&#45;&gt;head g2 head of prep phrase -->
<g id="edge34" class="edge">
<title>cost&#45;&gt;head g2 head of prep phrase</title>
<path fill="none" stroke="#000000" d="M910.3914,-356.9141C948.9976,-301.192 1075.3399,-118.8366 1122.9966,-50.0515"/>
<polygon fill="#000000" stroke="#000000" points="1126.1066,-51.7083 1128.9247,-41.4952 1120.3527,-47.7218 1126.1066,-51.7083"/>
<text text-anchor="middle" x="1006.5468" y="-201.8566" font-family="Times,serif" font-size="14.00" fill="#000000">head</text>
</g>
<!-- year -->
<g id="node29" class="node">
<title>year</title>
<ellipse fill="none" stroke="#000000" cx="73.3734" cy="-50.2068" rx="27" ry="18"/>
<text text-anchor="middle" x="73.3734" y="-46.0068" font-family="Times,serif" font-size="14.00" fill="#000000">year</text>
</g>
<!-- child g1 noun phrase as adverbial modifier&#45;&gt;year -->
<g id="edge35" class="edge">
<title>child g1 noun phrase as adverbial modifier&#45;&gt;year</title>
<path fill="none" stroke="#000000" d="M453.9834,-568.1233C395.1317,-488.0406 158.5612,-166.1264 91.2955,-74.5945"/>
<polygon fill="#000000" stroke="#000000" points="94.0683,-72.457 85.3261,-66.4716 88.4276,-76.6023 94.0683,-72.457"/>
</g>
</g>
</svg>
