<?xml version="1.0" encoding="UTF-8" standalone="no"?>
<!DOCTYPE svg PUBLIC "-//W3C//DTD SVG 1.1//EN"
 "http://www.w3.org/Graphics/SVG/1.1/DTD/svg11.dtd">
<!-- Generated by graphviz version 2.40.1 (20161225.0304)
 -->
<!-- Title: %3 Pages: 1 -->
<svg width="1157pt" height="188pt"
 viewBox="0.00 0.00 1156.95 188.00" xmlns="http://www.w3.org/2000/svg" xmlns:xlink="http://www.w3.org/1999/xlink">
<g id="graph0" class="graph" transform="scale(1 1) rotate(0) translate(4 184)">
<title>%3</title>
<polygon fill="#ffffff" stroke="transparent" points="-4,4 -4,-184 1152.9513,-184 1152.9513,4 -4,4"/>
<!-- MONEY -->
<g id="node1" class="node">
<title>MONEY</title>
<ellipse fill="none" stroke="#000000" cx="735" cy="-162" rx="42.5629" ry="18"/>
<text text-anchor="middle" x="735" y="-157.8" font-family="Times,serif" font-size="14.00" fill="#000000">MONEY</text>
</g>
<!-- direct object -->
<g id="node2" class="node">
<title>direct object</title>
<ellipse fill="none" stroke="#000000" cx="221" cy="-90" rx="54.1129" ry="18"/>
<text text-anchor="middle" x="221" y="-85.8" font-family="Times,serif" font-size="14.00" fill="#000000">direct object</text>
</g>
<!-- MONEY&#45;&#45;direct object -->
<g id="edge1" class="edge">
<title>MONEY&#45;&#45;direct object</title>
<path fill="none" stroke="#000000" d="M694.2376,-156.2901C601.0404,-143.2352 372.6221,-111.2389 271.0741,-97.0143"/>
</g>
<!-- head of prep phrase -->
<g id="node4" class="node">
<title>head of prep phrase</title>
<ellipse fill="none" stroke="#000000" cx="599" cy="-90" rx="79.6874" ry="18"/>
<text text-anchor="middle" x="599" y="-85.8" font-family="Times,serif" font-size="14.00" fill="#000000">head of prep phrase</text>
</g>
<!-- MONEY&#45;&#45;head of prep phrase -->
<g id="edge2" class="edge">
<title>MONEY&#45;&#45;head of prep phrase</title>
<path fill="none" stroke="#000000" d="M708.1308,-147.7751C685.8363,-135.9722 654.0935,-119.1671 630.5858,-106.7219"/>
</g>
<!-- ROOT -->
<g id="node8" class="node">
<title>ROOT</title>
<ellipse fill="none" stroke="#000000" cx="735" cy="-90" rx="34.3614" ry="18"/>
<text text-anchor="middle" x="735" y="-85.8" font-family="Times,serif" font-size="14.00" fill="#000000">ROOT</text>
</g>
<!-- MONEY&#45;&#45;ROOT -->
<g id="edge3" class="edge">
<title>MONEY&#45;&#45;ROOT</title>
<path fill="none" stroke="#000000" d="M735,-143.8314C735,-133 735,-119.2876 735,-108.4133"/>
</g>
<!-- nummod -->
<g id="node13" class="node">
<title>nummod</title>
<ellipse fill="none" stroke="#000000" cx="829" cy="-90" rx="41.6025" ry="18"/>
<text text-anchor="middle" x="829" y="-85.8" font-family="Times,serif" font-size="14.00" fill="#000000">nummod</text>
</g>
<!-- MONEY&#45;&#45;nummod -->
<g id="edge4" class="edge">
<title>MONEY&#45;&#45;nummod</title>
<path fill="none" stroke="#000000" d="M755.8616,-146.0209C771.5472,-134.0064 792.9279,-117.6297 808.5201,-105.6867"/>
</g>
<!-- noun phrase as adverbial modifier -->
<g id="node17" class="node">
<title>noun phrase as adverbial modifier</title>
<ellipse fill="none" stroke="#000000" cx="1019" cy="-90" rx="129.9027" ry="18"/>
<text text-anchor="middle" x="1019" y="-85.8" font-family="Times,serif" font-size="14.00" fill="#000000">noun phrase as adverbial modifier</text>
</g>
<!-- MONEY&#45;&#45;noun phrase as adverbial modifier -->
<g id="edge5" class="edge">
<title>MONEY&#45;&#45;noun phrase as adverbial modifier</title>
<path fill="none" stroke="#000000" d="M771.5466,-152.7347C818.2881,-140.8847 899.9522,-120.1811 956.6201,-105.8146"/>
</g>
<!-- does -->
<g id="node3" class="node">
<title>does</title>
<ellipse fill="none" stroke="#000000" cx="27" cy="-18" rx="27" ry="18"/>
<text text-anchor="middle" x="27" y="-13.8" font-family="Times,serif" font-size="14.00" fill="#000000">does</text>
</g>
<!-- direct object&#45;&#45;does -->
<g id="edge6" class="edge">
<title>direct object&#45;&#45;does</title>
<path fill="none" stroke="#000000" d="M180.8386,-77.9176C148.5694,-67.8188 102.3071,-52.4563 63,-36 58.2302,-34.0031 53.2099,-31.6566 48.4825,-29.3295"/>
</g>
<!-- pay -->
<g id="node7" class="node">
<title>pay</title>
<ellipse fill="none" stroke="#000000" cx="99" cy="-18" rx="27" ry="18"/>
<text text-anchor="middle" x="99" y="-13.8" font-family="Times,serif" font-size="14.00" fill="#000000">pay</text>
</g>
<!-- direct object&#45;&#45;pay -->
<g id="edge7" class="edge">
<title>direct object&#45;&#45;pay</title>
<path fill="none" stroke="#000000" d="M194.2266,-74.1993C171.6409,-60.87 139.7994,-42.0784 119.2774,-29.967"/>
</g>
<!-- receive -->
<g id="node11" class="node">
<title>receive</title>
<ellipse fill="none" stroke="#000000" cx="180" cy="-18" rx="35.7627" ry="18"/>
<text text-anchor="middle" x="180" y="-13.8" font-family="Times,serif" font-size="14.00" fill="#000000">receive</text>
</g>
<!-- direct object&#45;&#45;receive -->
<g id="edge8" class="edge">
<title>direct object&#45;&#45;receive</title>
<path fill="none" stroke="#000000" d="M210.8652,-72.2022C204.4625,-60.9586 196.2293,-46.5003 189.8768,-35.3446"/>
</g>
<!-- get -->
<g id="node12" class="node">
<title>get</title>
<ellipse fill="none" stroke="#000000" cx="261" cy="-18" rx="27" ry="18"/>
<text text-anchor="middle" x="261" y="-13.8" font-family="Times,serif" font-size="14.00" fill="#000000">get</text>
</g>
<!-- direct object&#45;&#45;get -->
<g id="edge9" class="edge">
<title>direct object&#45;&#45;get</title>
<path fill="none" stroke="#000000" d="M230.8876,-72.2022C237.1804,-60.8753 245.2856,-46.2859 251.5015,-35.0972"/>
</g>
<!-- generate -->
<g id="node15" class="node">
<title>generate</title>
<ellipse fill="none" stroke="#000000" cx="346" cy="-18" rx="40.1057" ry="18"/>
<text text-anchor="middle" x="346" y="-13.8" font-family="Times,serif" font-size="14.00" fill="#000000">generate</text>
</g>
<!-- direct object&#45;&#45;generate -->
<g id="edge10" class="edge">
<title>direct object&#45;&#45;generate</title>
<path fill="none" stroke="#000000" d="M248.1231,-74.3771C269.8079,-61.8867 299.9643,-44.5166 321.054,-32.3689"/>
</g>
<!-- Sold -->
<g id="node5" class="node">
<title>Sold</title>
<ellipse fill="none" stroke="#000000" cx="431" cy="-18" rx="27" ry="18"/>
<text text-anchor="middle" x="431" y="-13.8" font-family="Times,serif" font-size="14.00" fill="#000000">Sold</text>
</g>
<!-- head of prep phrase&#45;&#45;Sold -->
<g id="edge11" class="edge">
<title>head of prep phrase&#45;&#45;Sold</title>
<path fill="none" stroke="#000000" d="M558.5164,-74.3541C532.2229,-63.9682 497.3262,-49.7611 467,-36 462.2912,-33.8633 457.2966,-31.4578 452.5749,-29.1176"/>
</g>
<!-- millions -->
<g id="node6" class="node">
<title>millions</title>
<ellipse fill="none" stroke="#000000" cx="515" cy="-18" rx="39.1973" ry="18"/>
<text text-anchor="middle" x="515" y="-13.8" font-family="Times,serif" font-size="14.00" fill="#000000">millions</text>
</g>
<!-- head of prep phrase&#45;&#45;millions -->
<g id="edge12" class="edge">
<title>head of prep phrase&#45;&#45;millions</title>
<path fill="none" stroke="#000000" d="M578.6659,-72.5708C564.9735,-60.8344 547.0504,-45.4718 533.7108,-34.0378"/>
</g>
<!-- cost -->
<g id="node10" class="node">
<title>cost</title>
<ellipse fill="none" stroke="#000000" cx="599" cy="-18" rx="27" ry="18"/>
<text text-anchor="middle" x="599" y="-13.8" font-family="Times,serif" font-size="14.00" fill="#000000">cost</text>
</g>
<!-- head of prep phrase&#45;&#45;cost -->
<g id="edge13" class="edge">
<title>head of prep phrase&#45;&#45;cost</title>
<path fill="none" stroke="#000000" d="M599,-71.8314C599,-61 599,-47.2876 599,-36.4133"/>
</g>
<!-- sold -->
<g id="node16" class="node">
<title>sold</title>
<ellipse fill="none" stroke="#000000" cx="671" cy="-18" rx="27" ry="18"/>
<text text-anchor="middle" x="671" y="-13.8" font-family="Times,serif" font-size="14.00" fill="#000000">sold</text>
</g>
<!-- head of prep phrase&#45;&#45;sold -->
<g id="edge14" class="edge">
<title>head of prep phrase&#45;&#45;sold</title>
<path fill="none" stroke="#000000" d="M616.7978,-72.2022C628.791,-60.209 644.4417,-44.5583 655.8406,-33.1594"/>
</g>
<!-- million -->
<g id="node9" class="node">
<title>million</title>
<ellipse fill="none" stroke="#000000" cx="752" cy="-18" rx="35.8147" ry="18"/>
<text text-anchor="middle" x="752" y="-13.8" font-family="Times,serif" font-size="14.00" fill="#000000">million</text>
</g>
<!-- ROOT&#45;&#45;million -->
<g id="edge15" class="edge">
<title>ROOT&#45;&#45;million</title>
<path fill="none" stroke="#000000" d="M739.2898,-71.8314C741.8866,-60.8334 745.1847,-46.865 747.7704,-35.9134"/>
</g>
<!-- plan -->
<g id="node14" class="node">
<title>plan</title>
<ellipse fill="none" stroke="#000000" cx="833" cy="-18" rx="27" ry="18"/>
<text text-anchor="middle" x="833" y="-13.8" font-family="Times,serif" font-size="14.00" fill="#000000">plan</text>
</g>
<!-- nummod&#45;&#45;plan -->
<g id="edge16" class="edge">
<title>nummod&#45;&#45;plan</title>
<path fill="none" stroke="#000000" d="M830.0094,-71.8314C830.6111,-61 831.3729,-47.2876 831.977,-36.4133"/>
</g>
<!-- more -->
<g id="node18" class="node">
<title>more</title>
<ellipse fill="none" stroke="#000000" cx="1019" cy="-18" rx="28.0565" ry="18"/>
<text text-anchor="middle" x="1019" y="-13.8" font-family="Times,serif" font-size="14.00" fill="#000000">more</text>
</g>
<!-- noun phrase as adverbial modifier&#45;&#45;more -->
<g id="edge17" class="edge">
<title>noun phrase as adverbial modifier&#45;&#45;more</title>
<path fill="none" stroke="#000000" d="M1019,-71.8314C1019,-61 1019,-47.2876 1019,-36.4133"/>
</g>
</g>
</svg>
