<?xml version="1.0" encoding="UTF-8" standalone="no"?>
<!DOCTYPE svg PUBLIC "-//W3C//DTD SVG 1.1//EN"
 "http://www.w3.org/Graphics/SVG/1.1/DTD/svg11.dtd">
<!-- Generated by graphviz version 2.40.1 (20161225.0304)
 -->
<!-- Title: %3 Pages: 1 -->
<svg width="5786pt" height="188pt"
 viewBox="0.00 0.00 5785.64 188.00" xmlns="http://www.w3.org/2000/svg" xmlns:xlink="http://www.w3.org/1999/xlink">
<g id="graph0" class="graph" transform="scale(1 1) rotate(0) translate(4 184)">
<title>%3</title>
<polygon fill="#ffffff" stroke="transparent" points="-4,4 -4,-184 5781.6361,-184 5781.6361,4 -4,4"/>
<!-- ORG -->
<g id="node1" class="node">
<title>ORG</title>
<ellipse fill="none" stroke="#000000" cx="4772.1514" cy="-162" rx="28.5583" ry="18"/>
<text text-anchor="middle" x="4772.1514" y="-157.8" font-family="Times,serif" font-size="14.00" fill="#000000">ORG</text>
</g>
<!-- possession modifier -->
<g id="node2" class="node">
<title>possession modifier</title>
<ellipse fill="none" stroke="#000000" cx="1663.1514" cy="-90" rx="80.2411" ry="18"/>
<text text-anchor="middle" x="1663.1514" y="-85.8" font-family="Times,serif" font-size="14.00" fill="#000000">possession modifier</text>
</g>
<!-- ORG&#45;&#45;possession modifier -->
<g id="edge1" class="edge">
<title>ORG&#45;&#45;possession modifier</title>
<path fill="none" stroke="#000000" d="M4743.3588,-161.3332C4461.6899,-154.8102 2198.6185,-102.4007 1742.9286,-91.8475"/>
</g>
<!-- ROOT -->
<g id="node4" class="node">
<title>ROOT</title>
<ellipse fill="none" stroke="#000000" cx="2726.1514" cy="-90" rx="34.3614" ry="18"/>
<text text-anchor="middle" x="2726.1514" y="-85.8" font-family="Times,serif" font-size="14.00" fill="#000000">ROOT</text>
</g>
<!-- ORG&#45;&#45;ROOT -->
<g id="edge2" class="edge">
<title>ORG&#45;&#45;ROOT</title>
<path fill="none" stroke="#000000" d="M4743.3778,-161.2261C4581.7085,-156.8443 3770.0114,-134.4057 3107.1514,-108 2979.118,-102.8997 2826.9609,-95.2258 2760.2968,-91.7828"/>
</g>
<!-- compound -->
<g id="node6" class="node">
<title>compound</title>
<ellipse fill="none" stroke="#000000" cx="543.1514" cy="-90" rx="47.3823" ry="18"/>
<text text-anchor="middle" x="543.1514" y="-85.8" font-family="Times,serif" font-size="14.00" fill="#000000">compound</text>
</g>
<!-- ORG&#45;&#45;compound -->
<g id="edge3" class="edge">
<title>ORG&#45;&#45;compound</title>
<path fill="none" stroke="#000000" d="M4743.2928,-161.519C4508.6746,-157.6074 2889.2947,-130.5839 1574.1514,-108 1194.908,-101.4876 737.1991,-93.4253 590.6817,-90.8395"/>
</g>
<!-- head of prep phrase -->
<g id="node9" class="node">
<title>head of prep phrase</title>
<ellipse fill="none" stroke="#000000" cx="3196.1514" cy="-90" rx="79.6874" ry="18"/>
<text text-anchor="middle" x="3196.1514" y="-85.8" font-family="Times,serif" font-size="14.00" fill="#000000">head of prep phrase</text>
</g>
<!-- ORG&#45;&#45;head of prep phrase -->
<g id="edge4" class="edge">
<title>ORG&#45;&#45;head of prep phrase</title>
<path fill="none" stroke="#000000" d="M4743.1106,-160.6733C4559.8823,-152.3024 3562.4878,-106.7362 3274.2141,-93.5663"/>
</g>
<!-- nominal subject -->
<g id="node12" class="node">
<title>nominal subject</title>
<ellipse fill="none" stroke="#000000" cx="4425.1514" cy="-90" rx="66.2004" ry="18"/>
<text text-anchor="middle" x="4425.1514" y="-85.8" font-family="Times,serif" font-size="14.00" fill="#000000">nominal subject</text>
</g>
<!-- ORG&#45;&#45;nominal subject -->
<g id="edge5" class="edge">
<title>ORG&#45;&#45;nominal subject</title>
<path fill="none" stroke="#000000" d="M4744.6329,-156.2901C4687.0055,-144.3328 4552.7958,-116.4853 4477.959,-100.9572"/>
</g>
<!-- case -->
<g id="node14" class="node">
<title>case</title>
<ellipse fill="none" stroke="#000000" cx="5076.1514" cy="-90" rx="27" ry="18"/>
<text text-anchor="middle" x="5076.1514" y="-85.8" font-family="Times,serif" font-size="14.00" fill="#000000">case</text>
</g>
<!-- ORG&#45;&#45;case -->
<g id="edge6" class="edge">
<title>ORG&#45;&#45;case</title>
<path fill="none" stroke="#000000" d="M4799.1294,-155.6105C4857.2546,-141.844 4993.64,-109.5422 5050.5272,-96.0689"/>
</g>
<!-- conjunct -->
<g id="node22" class="node">
<title>conjunct</title>
<ellipse fill="none" stroke="#000000" cx="5195.1514" cy="-90" rx="40.6162" ry="18"/>
<text text-anchor="middle" x="5195.1514" y="-85.8" font-family="Times,serif" font-size="14.00" fill="#000000">conjunct</text>
</g>
<!-- ORG&#45;&#45;conjunct -->
<g id="edge7" class="edge">
<title>ORG&#45;&#45;conjunct</title>
<path fill="none" stroke="#000000" d="M4800.4535,-158.0527C4858.8806,-149.7834 4997.0173,-129.6098 5112.1514,-108 5127.5126,-105.1168 5144.3829,-101.5352 5158.879,-98.3279"/>
</g>
<!-- direct object -->
<g id="node30" class="node">
<title>direct object</title>
<ellipse fill="none" stroke="#000000" cx="5325.1514" cy="-90" rx="54.1129" ry="18"/>
<text text-anchor="middle" x="5325.1514" y="-85.8" font-family="Times,serif" font-size="14.00" fill="#000000">direct object</text>
</g>
<!-- ORG&#45;&#45;direct object -->
<g id="edge8" class="edge">
<title>ORG&#45;&#45;direct object</title>
<path fill="none" stroke="#000000" d="M4800.827,-159.8092C4874.7805,-153.9251 5077.8833,-136.2813 5245.1514,-108 5256.9424,-106.0064 5269.6088,-103.3831 5281.3067,-100.758"/>
</g>
<!-- modifier of nominal -->
<g id="node32" class="node">
<title>modifier of nominal</title>
<ellipse fill="none" stroke="#000000" cx="5478.1514" cy="-90" rx="80.6921" ry="18"/>
<text text-anchor="middle" x="5478.1514" y="-85.8" font-family="Times,serif" font-size="14.00" fill="#000000">modifier of nominal</text>
</g>
<!-- ORG&#45;&#45;modifier of nominal -->
<g id="edge9" class="edge">
<title>ORG&#45;&#45;modifier of nominal</title>
<path fill="none" stroke="#000000" d="M4801.1462,-160.5936C4889.5566,-156.0623 5163.3952,-140.2273 5388.1514,-108 5398.5617,-106.5073 5409.5862,-104.5879 5420.2163,-102.5609"/>
</g>
<!-- nominal subject (passive) -->
<g id="node52" class="node">
<title>nominal subject (passive)</title>
<ellipse fill="none" stroke="#000000" cx="5677.1514" cy="-90" rx="100.4693" ry="18"/>
<text text-anchor="middle" x="5677.1514" y="-85.8" font-family="Times,serif" font-size="14.00" fill="#000000">nominal subject (passive)</text>
</g>
<!-- ORG&#45;&#45;nominal subject (passive) -->
<g id="edge10" class="edge">
<title>ORG&#45;&#45;nominal subject (passive)</title>
<path fill="none" stroke="#000000" d="M4801.1572,-161.0379C4905.2406,-157.3722 5269.5897,-142.698 5568.1514,-108 5580.4398,-106.5719 5593.4553,-104.7208 5606.0515,-102.7504"/>
</g>
<!-- Sciutto -->
<g id="node3" class="node">
<title>Sciutto</title>
<ellipse fill="none" stroke="#000000" cx="1037.1514" cy="-18" rx="35.3303" ry="18"/>
<text text-anchor="middle" x="1037.1514" y="-13.8" font-family="Times,serif" font-size="14.00" fill="#000000">Sciutto</text>
</g>
<!-- possession modifier&#45;&#45;Sciutto -->
<g id="edge11" class="edge">
<title>possession modifier&#45;&#45;Sciutto</title>
<path fill="none" stroke="#000000" d="M1585.1794,-85.6282C1449.2952,-77.5322 1174.6574,-58.924 1081.1514,-36 1075.2196,-34.5457 1069.0406,-32.4282 1063.2529,-30.1524"/>
</g>
<!-- Finley -->
<g id="node8" class="node">
<title>Finley</title>
<ellipse fill="none" stroke="#000000" cx="1123.1514" cy="-18" rx="32.9168" ry="18"/>
<text text-anchor="middle" x="1123.1514" y="-13.8" font-family="Times,serif" font-size="14.00" fill="#000000">Finley</text>
</g>
<!-- possession modifier&#45;&#45;Finley -->
<g id="edge12" class="edge">
<title>possession modifier&#45;&#45;Finley</title>
<path fill="none" stroke="#000000" d="M1586.2946,-84.5655C1466.7231,-75.6241 1241.8189,-56.723 1164.1514,-36 1158.5932,-34.517 1152.8225,-32.3873 1147.4266,-30.1087"/>
</g>
<!-- Dean -->
<g id="node11" class="node">
<title>Dean</title>
<ellipse fill="none" stroke="#000000" cx="1202.1514" cy="-18" rx="28.5325" ry="18"/>
<text text-anchor="middle" x="1202.1514" y="-13.8" font-family="Times,serif" font-size="14.00" fill="#000000">Dean</text>
</g>
<!-- possession modifier&#45;&#45;Dean -->
<g id="edge13" class="edge">
<title>possession modifier&#45;&#45;Dean</title>
<path fill="none" stroke="#000000" d="M1583.6744,-87.3019C1497.5056,-82.67 1356.6798,-70.0987 1240.1514,-36 1234.8268,-34.4419 1229.3145,-32.2225 1224.1953,-29.8717"/>
</g>
<!-- Brown -->
<g id="node17" class="node">
<title>Brown</title>
<ellipse fill="none" stroke="#000000" cx="1283.1514" cy="-18" rx="34.3614" ry="18"/>
<text text-anchor="middle" x="1283.1514" y="-13.8" font-family="Times,serif" font-size="14.00" fill="#000000">Brown</text>
</g>
<!-- possession modifier&#45;&#45;Brown -->
<g id="edge14" class="edge">
<title>possession modifier&#45;&#45;Brown</title>
<path fill="none" stroke="#000000" d="M1589.0218,-83.0175C1520.2314,-75.3839 1415.4585,-60.8047 1327.1514,-36 1321.2715,-34.3484 1315.1144,-32.1476 1309.3316,-29.8531"/>
</g>
<!-- campaign -->
<g id="node19" class="node">
<title>campaign</title>
<ellipse fill="none" stroke="#000000" cx="1380.1514" cy="-18" rx="44.4664" ry="18"/>
<text text-anchor="middle" x="1380.1514" y="-13.8" font-family="Times,serif" font-size="14.00" fill="#000000">campaign</text>
</g>
<!-- possession modifier&#45;&#45;campaign -->
<g id="edge15" class="edge">
<title>possession modifier&#45;&#45;campaign</title>
<path fill="none" stroke="#000000" d="M1604.421,-77.6806C1557.9368,-67.5629 1491.5207,-52.2898 1434.1514,-36 1427.5921,-34.1375 1420.6457,-31.9714 1413.9974,-29.8006"/>
</g>
<!-- Woodruff -->
<g id="node25" class="node">
<title>Woodruff</title>
<ellipse fill="none" stroke="#000000" cx="1487.1514" cy="-18" rx="44.2326" ry="18"/>
<text text-anchor="middle" x="1487.1514" y="-13.8" font-family="Times,serif" font-size="14.00" fill="#000000">Woodruff</text>
</g>
<!-- possession modifier&#45;&#45;Woodruff -->
<g id="edge16" class="edge">
<title>possession modifier&#45;&#45;Woodruff</title>
<path fill="none" stroke="#000000" d="M1624.5275,-74.1993C1592.6531,-61.1598 1548.0005,-42.8928 1518.3577,-30.7662"/>
</g>
<!-- decision -->
<g id="node27" class="node">
<title>decision</title>
<ellipse fill="none" stroke="#000000" cx="944.1514" cy="-18" rx="39.6558" ry="18"/>
<text text-anchor="middle" x="944.1514" y="-13.8" font-family="Times,serif" font-size="14.00" fill="#000000">decision</text>
</g>
<!-- possession modifier&#45;&#45;decision -->
<g id="edge17" class="edge">
<title>possession modifier&#45;&#45;decision</title>
<path fill="none" stroke="#000000" d="M1584.6262,-86.3492C1432.7392,-78.8463 1103.9248,-60.3334 993.1514,-36 986.6012,-34.5611 979.7435,-32.4501 973.3034,-30.1757"/>
</g>
<!-- wethy -->
<g id="node28" class="node">
<title>wethy</title>
<ellipse fill="none" stroke="#000000" cx="1581.1514" cy="-18" rx="31.9393" ry="18"/>
<text text-anchor="middle" x="1581.1514" y="-13.8" font-family="Times,serif" font-size="14.00" fill="#000000">wethy</text>
</g>
<!-- possession modifier&#45;&#45;wethy -->
<g id="edge18" class="edge">
<title>possession modifier&#45;&#45;wethy</title>
<path fill="none" stroke="#000000" d="M1642.8818,-72.2022C1629.2228,-60.209 1611.3983,-44.5583 1598.4163,-33.1594"/>
</g>
<!-- Miller -->
<g id="node34" class="node">
<title>Miller</title>
<ellipse fill="none" stroke="#000000" cx="1663.1514" cy="-18" rx="32.4237" ry="18"/>
<text text-anchor="middle" x="1663.1514" y="-13.8" font-family="Times,serif" font-size="14.00" fill="#000000">Miller</text>
</g>
<!-- possession modifier&#45;&#45;Miller -->
<g id="edge19" class="edge">
<title>possession modifier&#45;&#45;Miller</title>
<path fill="none" stroke="#000000" d="M1663.1514,-71.8314C1663.1514,-61 1663.1514,-47.2876 1663.1514,-36.4133"/>
</g>
<!-- Douglas -->
<g id="node38" class="node">
<title>Douglas</title>
<ellipse fill="none" stroke="#000000" cx="1753.1514" cy="-18" rx="39.6645" ry="18"/>
<text text-anchor="middle" x="1753.1514" y="-13.8" font-family="Times,serif" font-size="14.00" fill="#000000">Douglas</text>
</g>
<!-- possession modifier&#45;&#45;Douglas -->
<g id="edge20" class="edge">
<title>possession modifier&#45;&#45;Douglas</title>
<path fill="none" stroke="#000000" d="M1684.9379,-72.5708C1699.7124,-60.7512 1719.0843,-45.2537 1733.4075,-33.7951"/>
</g>
<!-- Serafin -->
<g id="node40" class="node">
<title>Serafin</title>
<ellipse fill="none" stroke="#000000" cx="1846.1514" cy="-18" rx="35.3216" ry="18"/>
<text text-anchor="middle" x="1846.1514" y="-13.8" font-family="Times,serif" font-size="14.00" fill="#000000">Serafin</text>
</g>
<!-- possession modifier&#45;&#45;Serafin -->
<g id="edge21" class="edge">
<title>possession modifier&#45;&#45;Serafin</title>
<path fill="none" stroke="#000000" d="M1703.977,-74.3589C1731.7141,-63.6785 1769.2061,-49.1371 1802.1514,-36 1807.5179,-33.8601 1813.2393,-31.5446 1818.7204,-29.3096"/>
</g>
<!-- Rooney -->
<g id="node56" class="node">
<title>Rooney</title>
<ellipse fill="none" stroke="#000000" cx="1937.1514" cy="-18" rx="37.7352" ry="18"/>
<text text-anchor="middle" x="1937.1514" y="-13.8" font-family="Times,serif" font-size="14.00" fill="#000000">Rooney</text>
</g>
<!-- possession modifier&#45;&#45;Rooney -->
<g id="edge22" class="edge">
<title>possession modifier&#45;&#45;Rooney</title>
<path fill="none" stroke="#000000" d="M1722.998,-78.0252C1769.1091,-68.2563 1834.2236,-53.2788 1890.1514,-36 1896.0787,-34.1688 1902.3335,-31.9687 1908.2781,-29.7454"/>
</g>
<!-- chain -->
<g id="node62" class="node">
<title>chain</title>
<ellipse fill="none" stroke="#000000" cx="2022.1514" cy="-18" rx="29.0172" ry="18"/>
<text text-anchor="middle" x="2022.1514" y="-13.8" font-family="Times,serif" font-size="14.00" fill="#000000">chain</text>
</g>
<!-- possession modifier&#45;&#45;chain -->
<g id="edge23" class="edge">
<title>possession modifier&#45;&#45;chain</title>
<path fill="none" stroke="#000000" d="M1737.817,-83.3284C1803.7613,-76.0567 1901.9354,-61.8401 1984.1514,-36 1989.3048,-34.3803 1994.6541,-32.193 1999.6554,-29.9015"/>
</g>
<!-- Sawchuk -->
<g id="node71" class="node">
<title>Sawchuk</title>
<ellipse fill="none" stroke="#000000" cx="2112.1514" cy="-18" rx="42.5542" ry="18"/>
<text text-anchor="middle" x="2112.1514" y="-13.8" font-family="Times,serif" font-size="14.00" fill="#000000">Sawchuk</text>
</g>
<!-- possession modifier&#45;&#45;Sawchuk -->
<g id="edge24" class="edge">
<title>possession modifier&#45;&#45;Sawchuk</title>
<path fill="none" stroke="#000000" d="M1739.3428,-84.1497C1819.8771,-76.9203 1950.2054,-62.2327 2060.1514,-36 2066.842,-34.4036 2073.8824,-32.2814 2080.5467,-30.0554"/>
</g>
<!-- Findlay -->
<g id="node72" class="node">
<title>Findlay</title>
<ellipse fill="none" stroke="#000000" cx="2210.1514" cy="-18" rx="37.2594" ry="18"/>
<text text-anchor="middle" x="2210.1514" y="-13.8" font-family="Times,serif" font-size="14.00" fill="#000000">Findlay</text>
</g>
<!-- possession modifier&#45;&#45;Findlay -->
<g id="edge25" class="edge">
<title>possession modifier&#45;&#45;Findlay</title>
<path fill="none" stroke="#000000" d="M1742.8035,-87.9169C1842.5914,-83.8307 2018.2124,-71.7414 2164.1514,-36 2170.1487,-34.5312 2176.4112,-32.4648 2182.3153,-30.2531"/>
</g>
<!-- Wooten -->
<g id="node74" class="node">
<title>Wooten</title>
<ellipse fill="none" stroke="#000000" cx="2303.1514" cy="-18" rx="37.2947" ry="18"/>
<text text-anchor="middle" x="2303.1514" y="-13.8" font-family="Times,serif" font-size="14.00" fill="#000000">Wooten</text>
</g>
<!-- possession modifier&#45;&#45;Wooten -->
<g id="edge26" class="edge">
<title>possession modifier&#45;&#45;Wooten</title>
<path fill="none" stroke="#000000" d="M1740.9105,-85.58C1878.7003,-77.305 2160.239,-58.2833 2256.1514,-36 2262.4496,-34.5368 2269.0338,-32.4154 2275.2124,-30.1387"/>
</g>
<!-- News -->
<g id="node5" class="node">
<title>News</title>
<ellipse fill="none" stroke="#000000" cx="2389.1514" cy="-18" rx="30.4949" ry="18"/>
<text text-anchor="middle" x="2389.1514" y="-13.8" font-family="Times,serif" font-size="14.00" fill="#000000">News</text>
</g>
<!-- ROOT&#45;&#45;News -->
<g id="edge27" class="edge">
<title>ROOT&#45;&#45;News</title>
<path fill="none" stroke="#000000" d="M2692.5566,-86.5853C2636.8419,-80.3289 2522.2372,-64.9329 2429.1514,-36 2423.6247,-34.2822 2417.8541,-31.9979 2412.4715,-29.6349"/>
</g>
<!-- organization -->
<g id="node7" class="node">
<title>organization</title>
<ellipse fill="none" stroke="#000000" cx="54.1514" cy="-18" rx="54.3033" ry="18"/>
<text text-anchor="middle" x="54.1514" y="-13.8" font-family="Times,serif" font-size="14.00" fill="#000000">organization</text>
</g>
<!-- compound&#45;&#45;organization -->
<g id="edge28" class="edge">
<title>compound&#45;&#45;organization</title>
<path fill="none" stroke="#000000" d="M496.4391,-86.4211C417.6382,-79.8626 253.5377,-63.9585 117.1514,-36 109.5739,-34.4466 101.5768,-32.4485 93.9178,-30.3514"/>
</g>
<!-- official -->
<g id="node24" class="node">
<title>official</title>
<ellipse fill="none" stroke="#000000" cx="161.1514" cy="-18" rx="35.3129" ry="18"/>
<text text-anchor="middle" x="161.1514" y="-13.8" font-family="Times,serif" font-size="14.00" fill="#000000">official</text>
</g>
<!-- compound&#45;&#45;official -->
<g id="edge29" class="edge">
<title>compound&#45;&#45;official</title>
<path fill="none" stroke="#000000" d="M496.7806,-85.9961C430.9717,-79.5509 307.1426,-64.5974 205.1514,-36 199.4297,-34.3957 193.4459,-32.2699 187.8002,-30.043"/>
</g>
<!-- compound&#45;&#45;decision -->
<g id="edge31" class="edge">
<title>compound&#45;&#45;decision</title>
<path fill="none" stroke="#000000" d="M589.4635,-85.999C657.521,-79.4288 788.1723,-64.1802 896.1514,-36 902.2656,-34.4043 908.6805,-32.3092 914.759,-30.1144"/>
</g>
<!-- company -->
<g id="node35" class="node">
<title>company</title>
<ellipse fill="none" stroke="#000000" cx="257.1514" cy="-18" rx="42.5456" ry="18"/>
<text text-anchor="middle" x="257.1514" y="-13.8" font-family="Times,serif" font-size="14.00" fill="#000000">company</text>
</g>
<!-- compound&#45;&#45;company -->
<g id="edge30" class="edge">
<title>compound&#45;&#45;company</title>
<path fill="none" stroke="#000000" d="M500.7547,-81.7685C453.4092,-72.2273 374.6851,-55.318 308.1514,-36 302.0198,-34.2197 295.5472,-32.1152 289.3475,-29.9842"/>
</g>
<!-- divers -->
<g id="node39" class="node">
<title>divers</title>
<ellipse fill="none" stroke="#000000" cx="349.1514" cy="-18" rx="31.9393" ry="18"/>
<text text-anchor="middle" x="349.1514" y="-13.8" font-family="Times,serif" font-size="14.00" fill="#000000">divers</text>
</g>
<!-- compound&#45;&#45;divers -->
<g id="edge32" class="edge">
<title>compound&#45;&#45;divers</title>
<path fill="none" stroke="#000000" d="M507.3208,-78.1952C476.1356,-67.7214 429.8376,-51.6899 390.1514,-36 384.9463,-33.9422 379.4259,-31.618 374.1793,-29.3402"/>
</g>
<!-- %5 -->
<g id="node44" class="node">
<title>%5</title>
<ellipse fill="none" stroke="#000000" cx="426.1514" cy="-18" rx="27" ry="18"/>
<text text-anchor="middle" x="426.1514" y="-13.8" font-family="Times,serif" font-size="14.00" fill="#000000">%5</text>
</g>
<!-- compound&#45;&#45;%5 -->
<g id="edge33" class="edge">
<title>compound&#45;&#45;%5</title>
<path fill="none" stroke="#000000" d="M518.052,-74.5542C496.5655,-61.3317 466.0384,-42.5459 446.1647,-30.3159"/>
</g>
<!-- agents -->
<g id="node49" class="node">
<title>agents</title>
<ellipse fill="none" stroke="#000000" cx="504.1514" cy="-18" rx="32.8994" ry="18"/>
<text text-anchor="middle" x="504.1514" y="-13.8" font-family="Times,serif" font-size="14.00" fill="#000000">agents</text>
</g>
<!-- compound&#45;&#45;agents -->
<g id="edge34" class="edge">
<title>compound&#45;&#45;agents</title>
<path fill="none" stroke="#000000" d="M533.511,-72.2022C527.4207,-60.9586 519.5891,-46.5003 513.5464,-35.3446"/>
</g>
<!-- ship -->
<g id="node50" class="node">
<title>ship</title>
<ellipse fill="none" stroke="#000000" cx="582.1514" cy="-18" rx="27" ry="18"/>
<text text-anchor="middle" x="582.1514" y="-13.8" font-family="Times,serif" font-size="14.00" fill="#000000">ship</text>
</g>
<!-- compound&#45;&#45;ship -->
<g id="edge35" class="edge">
<title>compound&#45;&#45;ship</title>
<path fill="none" stroke="#000000" d="M552.7919,-72.2022C558.9273,-60.8753 566.8299,-46.2859 572.8904,-35.0972"/>
</g>
<!-- chief -->
<g id="node54" class="node">
<title>chief</title>
<ellipse fill="none" stroke="#000000" cx="655.1514" cy="-18" rx="27.5633" ry="18"/>
<text text-anchor="middle" x="655.1514" y="-13.8" font-family="Times,serif" font-size="14.00" fill="#000000">chief</text>
</g>
<!-- compound&#45;&#45;chief -->
<g id="edge36" class="edge">
<title>compound&#45;&#45;chief</title>
<path fill="none" stroke="#000000" d="M567.4538,-74.3771C587.784,-61.3076 616.4249,-42.8956 635.3738,-30.7142"/>
</g>
<!-- PlayStation -->
<g id="node55" class="node">
<title>PlayStation</title>
<ellipse fill="none" stroke="#000000" cx="752.1514" cy="-18" rx="50.7741" ry="18"/>
<text text-anchor="middle" x="752.1514" y="-13.8" font-family="Times,serif" font-size="14.00" fill="#000000">PlayStation</text>
</g>
<!-- compound&#45;&#45;PlayStation -->
<g id="edge37" class="edge">
<title>compound&#45;&#45;PlayStation</title>
<path fill="none" stroke="#000000" d="M578.6054,-77.7862C616.6886,-64.6666 676.9162,-43.9184 715.468,-30.6374"/>
</g>
<!-- games -->
<g id="node61" class="node">
<title>games</title>
<ellipse fill="none" stroke="#000000" cx="854.1514" cy="-18" rx="32.8994" ry="18"/>
<text text-anchor="middle" x="854.1514" y="-13.8" font-family="Times,serif" font-size="14.00" fill="#000000">games</text>
</g>
<!-- compound&#45;&#45;games -->
<g id="edge38" class="edge">
<title>compound&#45;&#45;games</title>
<path fill="none" stroke="#000000" d="M588.126,-83.8826C642.1247,-75.8752 735.0553,-59.9755 812.1514,-36 817.7571,-34.2567 823.6314,-32.0173 829.1506,-29.7141"/>
</g>
<!-- anniversary -->
<g id="node10" class="node">
<title>anniversary</title>
<ellipse fill="none" stroke="#000000" cx="2489.1514" cy="-18" rx="51.2156" ry="18"/>
<text text-anchor="middle" x="2489.1514" y="-13.8" font-family="Times,serif" font-size="14.00" fill="#000000">anniversary</text>
</g>
<!-- head of prep phrase&#45;&#45;anniversary -->
<g id="edge39" class="edge">
<title>head of prep phrase&#45;&#45;anniversary</title>
<path fill="none" stroke="#000000" d="M3116.6488,-88.5466C2994.0493,-85.1422 2751.8947,-73.7893 2550.1514,-36 2542.4458,-34.5566 2534.3223,-32.5293 2526.6054,-30.353"/>
</g>
<!-- prosecutor -->
<g id="node18" class="node">
<title>prosecutor</title>
<ellipse fill="none" stroke="#000000" cx="2606.1514" cy="-18" rx="47.365" ry="18"/>
<text text-anchor="middle" x="2606.1514" y="-13.8" font-family="Times,serif" font-size="14.00" fill="#000000">prosecutor</text>
</g>
<!-- head of prep phrase&#45;&#45;prosecutor -->
<g id="edge40" class="edge">
<title>head of prep phrase&#45;&#45;prosecutor</title>
<path fill="none" stroke="#000000" d="M3117.092,-87.1942C3012.1558,-82.2932 2821.5463,-69.2895 2662.1514,-36 2655.1539,-34.5386 2647.7962,-32.5305 2640.7984,-30.3841"/>
</g>
<!-- charge -->
<g id="node20" class="node">
<title>charge</title>
<ellipse fill="none" stroke="#000000" cx="2705.1514" cy="-18" rx="33.5305" ry="18"/>
<text text-anchor="middle" x="2705.1514" y="-13.8" font-family="Times,serif" font-size="14.00" fill="#000000">charge</text>
</g>
<!-- head of prep phrase&#45;&#45;charge -->
<g id="edge41" class="edge">
<title>head of prep phrase&#45;&#45;charge</title>
<path fill="none" stroke="#000000" d="M3117.2239,-87.0708C3026.7505,-82.2073 2874.6437,-69.4059 2748.1514,-36 2742.3612,-34.4708 2736.3254,-32.3217 2730.67,-30.0387"/>
</g>
<!-- factions -->
<g id="node21" class="node">
<title>factions</title>
<ellipse fill="none" stroke="#000000" cx="2795.1514" cy="-18" rx="38.2024" ry="18"/>
<text text-anchor="middle" x="2795.1514" y="-13.8" font-family="Times,serif" font-size="14.00" fill="#000000">factions</text>
</g>
<!-- head of prep phrase&#45;&#45;factions -->
<g id="edge42" class="edge">
<title>head of prep phrase&#45;&#45;factions</title>
<path fill="none" stroke="#000000" d="M3122.2355,-83.1932C3050.1835,-75.5082 2937.9331,-60.736 2843.1514,-36 2836.865,-34.3594 2830.2607,-32.1908 2824.031,-29.9287"/>
</g>
<!-- Secretary -->
<g id="node26" class="node">
<title>Secretary</title>
<ellipse fill="none" stroke="#000000" cx="2895.1514" cy="-18" rx="43.4887" ry="18"/>
<text text-anchor="middle" x="2895.1514" y="-13.8" font-family="Times,serif" font-size="14.00" fill="#000000">Secretary</text>
</g>
<!-- head of prep phrase&#45;&#45;Secretary -->
<g id="edge43" class="edge">
<title>head of prep phrase&#45;&#45;Secretary</title>
<path fill="none" stroke="#000000" d="M3133.9931,-78.6653C3083.3121,-68.9113 3010.0798,-53.6467 2947.1514,-36 2940.8964,-34.2459 2934.2955,-32.1537 2927.9736,-30.0267"/>
</g>
<!-- contract -->
<g id="node36" class="node">
<title>contract</title>
<ellipse fill="none" stroke="#000000" cx="2995.1514" cy="-18" rx="38.6695" ry="18"/>
<text text-anchor="middle" x="2995.1514" y="-13.8" font-family="Times,serif" font-size="14.00" fill="#000000">contract</text>
</g>
<!-- head of prep phrase&#45;&#45;contract -->
<g id="edge44" class="edge">
<title>head of prep phrase&#45;&#45;contract</title>
<path fill="none" stroke="#000000" d="M3152.5443,-74.8626C3121.8894,-64.1595 3079.9446,-49.3902 3043.1514,-36 3037.3807,-33.8999 3031.2337,-31.6242 3025.3325,-29.4201"/>
</g>
<!-- released -->
<g id="node42" class="node">
<title>released</title>
<ellipse fill="none" stroke="#000000" cx="3091.1514" cy="-18" rx="39.1454" ry="18"/>
<text text-anchor="middle" x="3091.1514" y="-13.8" font-family="Times,serif" font-size="14.00" fill="#000000">released</text>
</g>
<!-- head of prep phrase&#45;&#45;released -->
<g id="edge45" class="edge">
<title>head of prep phrase&#45;&#45;released</title>
<path fill="none" stroke="#000000" d="M3171.0013,-72.7542C3153.4069,-60.6894 3130.1265,-44.7258 3113.2459,-33.1505"/>
</g>
<!-- According -->
<g id="node45" class="node">
<title>According</title>
<ellipse fill="none" stroke="#000000" cx="3196.1514" cy="-18" rx="47.365" ry="18"/>
<text text-anchor="middle" x="3196.1514" y="-13.8" font-family="Times,serif" font-size="14.00" fill="#000000">According</text>
</g>
<!-- head of prep phrase&#45;&#45;According -->
<g id="edge46" class="edge">
<title>head of prep phrase&#45;&#45;According</title>
<path fill="none" stroke="#000000" d="M3196.1514,-71.8314C3196.1514,-61 3196.1514,-47.2876 3196.1514,-36.4133"/>
</g>
<!-- up -->
<g id="node46" class="node">
<title>up</title>
<ellipse fill="none" stroke="#000000" cx="3288.1514" cy="-18" rx="27" ry="18"/>
<text text-anchor="middle" x="3288.1514" y="-13.8" font-family="Times,serif" font-size="14.00" fill="#000000">up</text>
</g>
<!-- head of prep phrase&#45;&#45;up -->
<g id="edge47" class="edge">
<title>head of prep phrase&#45;&#45;up</title>
<path fill="none" stroke="#000000" d="M3218.4221,-72.5708C3234.3758,-60.0853 3255.5734,-43.4958 3270.3925,-31.8983"/>
</g>
<!-- more -->
<g id="node47" class="node">
<title>more</title>
<ellipse fill="none" stroke="#000000" cx="3361.1514" cy="-18" rx="28.0565" ry="18"/>
<text text-anchor="middle" x="3361.1514" y="-13.8" font-family="Times,serif" font-size="14.00" fill="#000000">more</text>
</g>
<!-- head of prep phrase&#45;&#45;more -->
<g id="edge48" class="edge">
<title>head of prep phrase&#45;&#45;more</title>
<path fill="none" stroke="#000000" d="M3235.0346,-74.2303C3260.5269,-63.7361 3294.5011,-49.455 3324.1514,-36 3328.835,-33.8746 3333.8108,-31.521 3338.544,-29.2355"/>
</g>
<!-- goaltender -->
<g id="node67" class="node">
<title>goaltender</title>
<ellipse fill="none" stroke="#000000" cx="3455.1514" cy="-18" rx="47.3564" ry="18"/>
<text text-anchor="middle" x="3455.1514" y="-13.8" font-family="Times,serif" font-size="14.00" fill="#000000">goaltender</text>
</g>
<!-- head of prep phrase&#45;&#45;goaltender -->
<g id="edge49" class="edge">
<title>head of prep phrase&#45;&#45;goaltender</title>
<path fill="none" stroke="#000000" d="M3249.0701,-76.5434C3289.9243,-65.9881 3347.7912,-50.675 3398.1514,-36 3404.9264,-34.0258 3412.1238,-31.8303 3419.0414,-29.6705"/>
</g>
<!-- Sawchuck -->
<g id="node68" class="node">
<title>Sawchuck</title>
<ellipse fill="none" stroke="#000000" cx="3567.1514" cy="-18" rx="46.4046" ry="18"/>
<text text-anchor="middle" x="3567.1514" y="-13.8" font-family="Times,serif" font-size="14.00" fill="#000000">Sawchuck</text>
</g>
<!-- head of prep phrase&#45;&#45;Sawchuck -->
<g id="edge50" class="edge">
<title>head of prep phrase&#45;&#45;Sawchuck</title>
<path fill="none" stroke="#000000" d="M3265.2409,-81.0212C3329.4494,-72.0022 3427.4875,-56.5084 3511.1514,-36 3518.0944,-34.2981 3525.4274,-32.1811 3532.4181,-30.0032"/>
</g>
<!-- Roy -->
<g id="node69" class="node">
<title>Roy</title>
<ellipse fill="none" stroke="#000000" cx="3658.1514" cy="-18" rx="27" ry="18"/>
<text text-anchor="middle" x="3658.1514" y="-13.8" font-family="Times,serif" font-size="14.00" fill="#000000">Roy</text>
</g>
<!-- head of prep phrase&#45;&#45;Roy -->
<g id="edge51" class="edge">
<title>head of prep phrase&#45;&#45;Roy</title>
<path fill="none" stroke="#000000" d="M3270.8235,-83.5852C3374.9608,-74.1177 3558.2196,-55.4175 3622.1514,-36 3627.2329,-34.4567 3632.4701,-32.2432 3637.3227,-29.8936"/>
</g>
<!-- years -->
<g id="node70" class="node">
<title>years</title>
<ellipse fill="none" stroke="#000000" cx="3732.1514" cy="-18" rx="28.5325" ry="18"/>
<text text-anchor="middle" x="3732.1514" y="-13.8" font-family="Times,serif" font-size="14.00" fill="#000000">years</text>
</g>
<!-- head of prep phrase&#45;&#45;years -->
<g id="edge52" class="edge">
<title>head of prep phrase&#45;&#45;years</title>
<path fill="none" stroke="#000000" d="M3272.4408,-84.8524C3391.7477,-76.2755 3616.8401,-57.8294 3694.1514,-36 3699.4906,-34.4924 3705.0088,-32.2936 3710.1291,-29.9467"/>
</g>
<!-- said -->
<g id="node13" class="node">
<title>said</title>
<ellipse fill="none" stroke="#000000" cx="3806.1514" cy="-18" rx="27" ry="18"/>
<text text-anchor="middle" x="3806.1514" y="-13.8" font-family="Times,serif" font-size="14.00" fill="#000000">said</text>
</g>
<!-- nominal subject&#45;&#45;said -->
<g id="edge53" class="edge">
<title>nominal subject&#45;&#45;said</title>
<path fill="none" stroke="#000000" d="M4359.6226,-86.9842C4228.4264,-80.4467 3937.8812,-63.3208 3842.1514,-36 3836.9103,-34.5042 3831.5209,-32.2489 3826.5602,-29.8357"/>
</g>
<!-- learned -->
<g id="node29" class="node">
<title>learned</title>
<ellipse fill="none" stroke="#000000" cx="3887.1514" cy="-18" rx="36.2558" ry="18"/>
<text text-anchor="middle" x="3887.1514" y="-13.8" font-family="Times,serif" font-size="14.00" fill="#000000">learned</text>
</g>
<!-- nominal subject&#45;&#45;learned -->
<g id="edge54" class="edge">
<title>nominal subject&#45;&#45;learned</title>
<path fill="none" stroke="#000000" d="M4358.7608,-88.421C4263.1328,-84.8717 4081.6792,-73.354 3932.1514,-36 3926.2737,-34.5317 3920.1427,-32.4655 3914.3657,-30.2538"/>
</g>
<!-- believes -->
<g id="node37" class="node">
<title>believes</title>
<ellipse fill="none" stroke="#000000" cx="3980.1514" cy="-18" rx="39.1627" ry="18"/>
<text text-anchor="middle" x="3980.1514" y="-13.8" font-family="Times,serif" font-size="14.00" fill="#000000">believes</text>
</g>
<!-- nominal subject&#45;&#45;believes -->
<g id="edge55" class="edge">
<title>nominal subject&#45;&#45;believes</title>
<path fill="none" stroke="#000000" d="M4360.7117,-85.6835C4281.471,-79.3624 4143.3181,-65.0368 4028.1514,-36 4021.9379,-34.4334 4015.4226,-32.3242 4009.2668,-30.1015"/>
</g>
<!-- looking -->
<g id="node41" class="node">
<title>looking</title>
<ellipse fill="none" stroke="#000000" cx="4074.1514" cy="-18" rx="37.2594" ry="18"/>
<text text-anchor="middle" x="4074.1514" y="-13.8" font-family="Times,serif" font-size="14.00" fill="#000000">looking</text>
</g>
<!-- nominal subject&#45;&#45;looking -->
<g id="edge56" class="edge">
<title>nominal subject&#45;&#45;looking</title>
<path fill="none" stroke="#000000" d="M4364.1723,-82.8161C4302.0282,-74.6568 4203.2379,-59.363 4120.1514,-36 4114.2074,-34.3286 4107.9682,-32.1735 4102.0701,-29.9391"/>
</g>
<!-- says -->
<g id="node43" class="node">
<title>says</title>
<ellipse fill="none" stroke="#000000" cx="4156.1514" cy="-18" rx="27" ry="18"/>
<text text-anchor="middle" x="4156.1514" y="-13.8" font-family="Times,serif" font-size="14.00" fill="#000000">says</text>
</g>
<!-- nominal subject&#45;&#45;says -->
<g id="edge57" class="edge">
<title>nominal subject&#45;&#45;says</title>
<path fill="none" stroke="#000000" d="M4368.0523,-80.6603C4320.2082,-71.9178 4250.5567,-57.035 4192.1514,-36 4187.1549,-34.2005 4181.9523,-31.883 4177.1062,-29.5137"/>
</g>
<!-- keeps -->
<g id="node48" class="node">
<title>keeps</title>
<ellipse fill="none" stroke="#000000" cx="4231.1514" cy="-18" rx="30.4862" ry="18"/>
<text text-anchor="middle" x="4231.1514" y="-13.8" font-family="Times,serif" font-size="14.00" fill="#000000">keeps</text>
</g>
<!-- nominal subject&#45;&#45;keeps -->
<g id="edge58" class="edge">
<title>nominal subject&#45;&#45;keeps</title>
<path fill="none" stroke="#000000" d="M4381.9719,-76.2078C4350.6444,-65.8992 4307.4074,-51.0459 4270.1514,-36 4265.1729,-33.9894 4259.9098,-31.686 4254.9161,-29.4134"/>
</g>
<!-- do -->
<g id="node51" class="node">
<title>do</title>
<ellipse fill="none" stroke="#000000" cx="4306.1514" cy="-18" rx="27" ry="18"/>
<text text-anchor="middle" x="4306.1514" y="-13.8" font-family="Times,serif" font-size="14.00" fill="#000000">do</text>
</g>
<!-- nominal subject&#45;&#45;do -->
<g id="edge59" class="edge">
<title>nominal subject&#45;&#45;do</title>
<path fill="none" stroke="#000000" d="M4397.8504,-73.4817C4376.0296,-60.2792 4345.9408,-42.0742 4326.2719,-30.1737"/>
</g>
<!-- hopes -->
<g id="node57" class="node">
<title>hopes</title>
<ellipse fill="none" stroke="#000000" cx="4382.1514" cy="-18" rx="30.9793" ry="18"/>
<text text-anchor="middle" x="4382.1514" y="-13.8" font-family="Times,serif" font-size="14.00" fill="#000000">hopes</text>
</g>
<!-- nominal subject&#45;&#45;hopes -->
<g id="edge60" class="edge">
<title>nominal subject&#45;&#45;hopes</title>
<path fill="none" stroke="#000000" d="M4414.5222,-72.2022C4407.7575,-60.8753 4399.0444,-46.2859 4392.3623,-35.0972"/>
</g>
<!-- offering -->
<g id="node59" class="node">
<title>offering</title>
<ellipse fill="none" stroke="#000000" cx="4469.1514" cy="-18" rx="38.3672" ry="18"/>
<text text-anchor="middle" x="4469.1514" y="-13.8" font-family="Times,serif" font-size="14.00" fill="#000000">offering</text>
</g>
<!-- nominal subject&#45;&#45;offering -->
<g id="edge61" class="edge">
<title>nominal subject&#45;&#45;offering</title>
<path fill="none" stroke="#000000" d="M4436.0278,-72.2022C4442.8989,-60.9586 4451.7346,-46.5003 4458.552,-35.3446"/>
</g>
<!-- given -->
<g id="node60" class="node">
<title>given</title>
<ellipse fill="none" stroke="#000000" cx="4555.1514" cy="-18" rx="29.5104" ry="18"/>
<text text-anchor="middle" x="4555.1514" y="-13.8" font-family="Times,serif" font-size="14.00" fill="#000000">given</text>
</g>
<!-- nominal subject&#45;&#45;given -->
<g id="edge62" class="edge">
<title>nominal subject&#45;&#45;given</title>
<path fill="none" stroke="#000000" d="M4454.6504,-73.6621C4478.4728,-60.4682 4511.4723,-42.1915 4533.0596,-30.2355"/>
</g>
<!-- be -->
<g id="node63" class="node">
<title>be</title>
<ellipse fill="none" stroke="#000000" cx="4630.1514" cy="-18" rx="27" ry="18"/>
<text text-anchor="middle" x="4630.1514" y="-13.8" font-family="Times,serif" font-size="14.00" fill="#000000">be</text>
</g>
<!-- nominal subject&#45;&#45;be -->
<g id="edge63" class="edge">
<title>nominal subject&#45;&#45;be</title>
<path fill="none" stroke="#000000" d="M4472.1052,-77.1144C4506.4071,-67.1927 4553.7815,-52.4275 4594.1514,-36 4598.941,-34.051 4603.9696,-31.7248 4608.6989,-29.4022"/>
</g>
<!-- developing -->
<g id="node64" class="node">
<title>developing</title>
<ellipse fill="none" stroke="#000000" cx="4724.1514" cy="-18" rx="49.3032" ry="18"/>
<text text-anchor="middle" x="4724.1514" y="-13.8" font-family="Times,serif" font-size="14.00" fill="#000000">developing</text>
</g>
<!-- nominal subject&#45;&#45;developing -->
<g id="edge64" class="edge">
<title>nominal subject&#45;&#45;developing</title>
<path fill="none" stroke="#000000" d="M4478.579,-79.3169C4527.6153,-69.2074 4602.1433,-53.0737 4666.1514,-36 4672.9767,-34.1794 4680.2022,-32.0788 4687.1509,-29.9695"/>
</g>
<!-- plotting -->
<g id="node65" class="node">
<title>plotting</title>
<ellipse fill="none" stroke="#000000" cx="4829.1514" cy="-18" rx="37.7439" ry="18"/>
<text text-anchor="middle" x="4829.1514" y="-13.8" font-family="Times,serif" font-size="14.00" fill="#000000">plotting</text>
</g>
<!-- nominal subject&#45;&#45;plotting -->
<g id="edge65" class="edge">
<title>nominal subject&#45;&#45;plotting</title>
<path fill="none" stroke="#000000" d="M4488.5418,-84.5764C4560.5749,-77.4577 4681.2349,-62.6229 4782.1514,-36 4788.2344,-34.3952 4794.6135,-32.2693 4800.641,-30.0423"/>
</g>
<!-- trying -->
<g id="node66" class="node">
<title>trying</title>
<ellipse fill="none" stroke="#000000" cx="4916.1514" cy="-18" rx="31.4636" ry="18"/>
<text text-anchor="middle" x="4916.1514" y="-13.8" font-family="Times,serif" font-size="14.00" fill="#000000">trying</text>
</g>
<!-- nominal subject&#45;&#45;trying -->
<g id="edge66" class="edge">
<title>nominal subject&#45;&#45;trying</title>
<path fill="none" stroke="#000000" d="M4489.017,-84.7578C4595.5394,-75.612 4804.8256,-55.8176 4876.1514,-36 4881.581,-34.4914 4887.2139,-32.351 4892.4788,-30.07"/>
</g>
<!-- was -->
<g id="node73" class="node">
<title>was</title>
<ellipse fill="none" stroke="#000000" cx="4992.1514" cy="-18" rx="27" ry="18"/>
<text text-anchor="middle" x="4992.1514" y="-13.8" font-family="Times,serif" font-size="14.00" fill="#000000">was</text>
</g>
<!-- nominal subject&#45;&#45;was -->
<g id="edge67" class="edge">
<title>nominal subject&#45;&#45;was</title>
<path fill="none" stroke="#000000" d="M4490.1965,-86.3273C4612.0777,-78.9606 4870.276,-60.9262 4956.1514,-36 4961.3858,-34.4807 4966.7725,-32.2162 4971.7328,-29.8016"/>
</g>
<!-- Sotheby -->
<g id="node15" class="node">
<title>Sotheby</title>
<ellipse fill="none" stroke="#000000" cx="5076.1514" cy="-18" rx="39.1887" ry="18"/>
<text text-anchor="middle" x="5076.1514" y="-13.8" font-family="Times,serif" font-size="14.00" fill="#000000">Sotheby</text>
</g>
<!-- case&#45;&#45;Sotheby -->
<g id="edge68" class="edge">
<title>case&#45;&#45;Sotheby</title>
<path fill="none" stroke="#000000" d="M5076.1514,-71.8314C5076.1514,-61 5076.1514,-47.2876 5076.1514,-36.4133"/>
</g>
<!-- Christie -->
<g id="node16" class="node">
<title>Christie</title>
<ellipse fill="none" stroke="#000000" cx="5171.1514" cy="-18" rx="38.2197" ry="18"/>
<text text-anchor="middle" x="5171.1514" y="-13.8" font-family="Times,serif" font-size="14.00" fill="#000000">Christie</text>
</g>
<!-- case&#45;&#45;Christie -->
<g id="edge69" class="edge">
<title>case&#45;&#45;Christie</title>
<path fill="none" stroke="#000000" d="M5094.0202,-76.4574C5110.1447,-64.2367 5133.8542,-46.2674 5150.7241,-33.4817"/>
</g>
<!-- Hamas -->
<g id="node23" class="node">
<title>Hamas</title>
<ellipse fill="none" stroke="#000000" cx="5262.1514" cy="-18" rx="34.8285" ry="18"/>
<text text-anchor="middle" x="5262.1514" y="-13.8" font-family="Times,serif" font-size="14.00" fill="#000000">Hamas</text>
</g>
<!-- conjunct&#45;&#45;Hamas -->
<g id="edge70" class="edge">
<title>conjunct&#45;&#45;Hamas</title>
<path fill="none" stroke="#000000" d="M5210.691,-73.3008C5221.515,-61.669 5235.8906,-46.2206 5246.6961,-34.6087"/>
</g>
<!-- tell -->
<g id="node31" class="node">
<title>tell</title>
<ellipse fill="none" stroke="#000000" cx="5342.1514" cy="-18" rx="27" ry="18"/>
<text text-anchor="middle" x="5342.1514" y="-13.8" font-family="Times,serif" font-size="14.00" fill="#000000">tell</text>
</g>
<!-- direct object&#45;&#45;tell -->
<g id="edge71" class="edge">
<title>direct object&#45;&#45;tell</title>
<path fill="none" stroke="#000000" d="M5329.4412,-71.8314C5332.038,-60.8334 5335.3361,-46.865 5337.9219,-35.9134"/>
</g>
<!-- lead -->
<g id="node58" class="node">
<title>lead</title>
<ellipse fill="none" stroke="#000000" cx="5414.1514" cy="-18" rx="27" ry="18"/>
<text text-anchor="middle" x="5414.1514" y="-13.8" font-family="Times,serif" font-size="14.00" fill="#000000">lead</text>
</g>
<!-- direct object&#45;&#45;lead -->
<g id="edge72" class="edge">
<title>direct object&#45;&#45;lead</title>
<path fill="none" stroke="#000000" d="M5345.7935,-73.3008C5361.3014,-60.7551 5382.2976,-43.7694 5396.9122,-31.9463"/>
</g>
<!-- summit -->
<g id="node33" class="node">
<title>summit</title>
<ellipse fill="none" stroke="#000000" cx="5496.1514" cy="-18" rx="36.7836" ry="18"/>
<text text-anchor="middle" x="5496.1514" y="-13.8" font-family="Times,serif" font-size="14.00" fill="#000000">summit</text>
</g>
<!-- modifier of nominal&#45;&#45;summit -->
<g id="edge73" class="edge">
<title>modifier of nominal&#45;&#45;summit</title>
<path fill="none" stroke="#000000" d="M5482.6936,-71.8314C5485.4431,-60.8334 5488.9352,-46.865 5491.6731,-35.9134"/>
</g>
<!-- allowed -->
<g id="node53" class="node">
<title>allowed</title>
<ellipse fill="none" stroke="#000000" cx="5677.1514" cy="-18" rx="38.2024" ry="18"/>
<text text-anchor="middle" x="5677.1514" y="-13.8" font-family="Times,serif" font-size="14.00" fill="#000000">allowed</text>
</g>
<!-- nominal subject (passive)&#45;&#45;allowed -->
<g id="edge74" class="edge">
<title>nominal subject (passive)&#45;&#45;allowed</title>
<path fill="none" stroke="#000000" d="M5677.1514,-71.8314C5677.1514,-61 5677.1514,-47.2876 5677.1514,-36.4133"/>
</g>
</g>
</svg>
