<?xml version="1.0" encoding="UTF-8" standalone="no"?>
<!DOCTYPE svg PUBLIC "-//W3C//DTD SVG 1.1//EN"
 "http://www.w3.org/Graphics/SVG/1.1/DTD/svg11.dtd">
<!-- Generated by graphviz version 2.40.1 (20161225.0304)
 -->
<!-- Title: %3 Pages: 1 -->
<svg width="1157pt" height="881pt"
 viewBox="0.00 0.00 1157.31 880.91" xmlns="http://www.w3.org/2000/svg" xmlns:xlink="http://www.w3.org/1999/xlink">
<g id="graph0" class="graph" transform="scale(1 1) rotate(0) translate(4 876.9135)">
<title>%3</title>
<polygon fill="#ffffff" stroke="transparent" points="-4,4 -4,-876.9135 1153.3114,-876.9135 1153.3114,4 -4,4"/>
<!-- ORDINAL -->
<g id="node1" class="node">
<title>ORDINAL</title>
<ellipse fill="none" stroke="#000000" cx="565.4602" cy="-565.1619" rx="49.7964" ry="18"/>
<text text-anchor="middle" x="565.4602" y="-560.9619" font-family="Times,serif" font-size="14.00" fill="#000000">ORDINAL</text>
<text text-anchor="middle" x="512.0621" y="-549.9619" font-family="Times,serif" font-size="14.00" fill="#000000">8</text>
</g>
<!-- head g1 adverbial modifier -->
<g id="node2" class="node">
<title>head g1 adverbial modifier</title>
<ellipse fill="none" stroke="#000000" cx="742.1795" cy="-672.0416" rx="105.2879" ry="18"/>
<text text-anchor="middle" x="742.1795" y="-667.8416" font-family="Times,serif" font-size="14.00" fill="#000000">head g1 adverbial modifier</text>
</g>
<!-- ORDINAL&#45;&gt;head g1 adverbial modifier -->
<g id="edge1" class="edge">
<title>ORDINAL&#45;&gt;head g1 adverbial modifier</title>
<path fill="none" stroke="#000000" d="M591.1567,-580.7031C621.0343,-598.773 670.6056,-628.7537 704.758,-649.4091"/>
<polygon fill="#000000" stroke="#000000" points="703.1513,-652.5276 713.5194,-654.7079 706.7739,-646.5379 703.1513,-652.5276"/>
<text text-anchor="middle" x="639.367" y="-620.6524" font-family="Times,serif" font-size="14.00" fill="#000000">head</text>
</g>
<!-- head g1 adjectival modifier -->
<g id="node6" class="node">
<title>head g1 adjectival modifier</title>
<ellipse fill="none" stroke="#000000" cx="603.3985" cy="-394.1654" rx="106.7328" ry="18"/>
<text text-anchor="middle" x="603.3985" y="-389.9654" font-family="Times,serif" font-size="14.00" fill="#000000">head g1 adjectival modifier</text>
</g>
<!-- ORDINAL&#45;&gt;head g1 adjectival modifier -->
<g id="edge2" class="edge">
<title>ORDINAL&#45;&gt;head g1 adjectival modifier</title>
<path fill="none" stroke="#000000" d="M569.4486,-547.1855C576.0519,-517.4231 589.3046,-457.6898 597.1566,-422.2992"/>
<polygon fill="#000000" stroke="#000000" points="600.6575,-422.6783 599.4067,-412.1576 593.8237,-421.1621 600.6575,-422.6783"/>
<text text-anchor="middle" x="571.1837" y="-482.6069" font-family="Times,serif" font-size="14.00" fill="#000000">head</text>
</g>
<!-- head g1 complement of preposition -->
<g id="node20" class="node">
<title>head g1 complement of preposition</title>
<ellipse fill="none" stroke="#000000" cx="391.7387" cy="-598.2649" rx="135.2153" ry="18"/>
<text text-anchor="middle" x="391.7387" y="-594.0649" font-family="Times,serif" font-size="14.00" fill="#000000">head g1 complement of preposition</text>
</g>
<!-- ORDINAL&#45;&gt;head g1 complement of preposition -->
<g id="edge3" class="edge">
<title>ORDINAL&#45;&gt;head g1 complement of preposition</title>
<path fill="none" stroke="#000000" d="M521.1735,-573.6008C508.3501,-576.0444 493.882,-578.8013 479.3848,-581.5637"/>
<polygon fill="#000000" stroke="#000000" points="478.5315,-578.1633 469.3634,-583.4733 479.8419,-585.0396 478.5315,-578.1633"/>
<text text-anchor="middle" x="481.7145" y="-567.4019" font-family="Times,serif" font-size="14.00" fill="#000000">head</text>
</g>
<!-- headleaf brought -->
<g id="node3" class="node">
<title>headleaf brought</title>
<ellipse fill="none" stroke="#000000" cx="672.7165" cy="-854.9135" rx="69.5493" ry="18"/>
<text text-anchor="middle" x="672.7165" y="-850.7135" font-family="Times,serif" font-size="14.00" fill="#000000">headleaf brought</text>
</g>
<!-- head g1 adverbial modifier&#45;&gt;headleaf brought -->
<g id="edge4" class="edge">
<title>head g1 adverbial modifier&#45;&gt;headleaf brought</title>
<path fill="none" stroke="#000000" d="M735.2651,-690.2446C723.0427,-722.422 697.5563,-789.5187 683.1749,-827.3802"/>
<polygon fill="#000000" stroke="#000000" points="679.8819,-826.1929 679.6028,-836.7841 686.4257,-828.6786 679.8819,-826.1929"/>
</g>
<!-- headleaf go -->
<g id="node5" class="node">
<title>headleaf go</title>
<ellipse fill="none" stroke="#000000" cx="1023.3046" cy="-597.1878" rx="51.2146" ry="18"/>
<text text-anchor="middle" x="1023.3046" y="-592.9878" font-family="Times,serif" font-size="14.00" fill="#000000">headleaf go</text>
</g>
<!-- head g1 adverbial modifier&#45;&gt;headleaf go -->
<g id="edge5" class="edge">
<title>head g1 adverbial modifier&#45;&gt;headleaf go</title>
<path fill="none" stroke="#000000" d="M799.0693,-656.8938C849.9531,-643.3452 923.8374,-623.6724 972.7035,-610.6611"/>
<polygon fill="#000000" stroke="#000000" points="973.6685,-614.0262 982.4313,-608.071 971.8674,-607.2619 973.6685,-614.0262"/>
</g>
<!-- head g2 ROOT -->
<g id="node4" class="node">
<title>head g2 ROOT</title>
<ellipse fill="none" stroke="#000000" cx="1001.8008" cy="-834.6484" rx="64.2787" ry="18"/>
<text text-anchor="middle" x="1001.8008" y="-830.4484" font-family="Times,serif" font-size="14.00" fill="#000000">head g2 ROOT</text>
</g>
<!-- headleaf brought&#45;&gt;head g2 ROOT -->
<g id="edge6" class="edge">
<title>headleaf brought&#45;&gt;head g2 ROOT</title>
<path fill="none" stroke="#000000" d="M740.9029,-850.7146C795.7563,-847.3367 872.6687,-842.6004 928.7698,-839.1457"/>
<polygon fill="#000000" stroke="#000000" points="929.227,-842.6242 938.9929,-838.5161 928.7967,-835.6375 929.227,-842.6242"/>
<text text-anchor="middle" x="826.5852" y="-847.4245" font-family="Times,serif" font-size="14.00" fill="#000000">head</text>
</g>
<!-- head g2 ROOT&#45;&gt;headleaf brought -->
<g id="edge7" class="edge">
<title>head g2 ROOT&#45;&gt;headleaf brought</title>
<path fill="none" stroke="#000000" d="M939.1279,-838.5078C885.6473,-841.8012 808.4954,-846.5522 750.9684,-850.0947"/>
<polygon fill="#000000" stroke="#000000" points="750.594,-846.6111 740.8281,-850.7192 751.0243,-853.5978 750.594,-846.6111"/>
</g>
<!-- head g2 ROOT&#45;&gt;headleaf go -->
<g id="edge8" class="edge">
<title>head g2 ROOT&#45;&gt;headleaf go</title>
<path fill="none" stroke="#000000" d="M1003.4524,-816.4096C1007.1815,-775.23 1016.2753,-674.8095 1020.7426,-625.479"/>
<polygon fill="#000000" stroke="#000000" points="1024.231,-625.7637 1021.6473,-615.4888 1017.2596,-625.1324 1024.231,-625.7637"/>
</g>
<!-- headleaf go&#45;&gt;head g2 ROOT -->
<g id="edge9" class="edge">
<title>headleaf go&#45;&gt;head g2 ROOT</title>
<path fill="none" stroke="#000000" d="M1021.6529,-615.4267C1017.9238,-656.6062 1008.83,-757.0267 1004.3627,-806.3573"/>
<polygon fill="#000000" stroke="#000000" points="1000.8743,-806.0725 1003.4581,-816.3474 1007.8458,-806.7039 1000.8743,-806.0725"/>
<text text-anchor="middle" x="999.3354" y="-718.7554" font-family="Times,serif" font-size="14.00" fill="#000000">head</text>
</g>
<!-- headleaf President -->
<g id="node7" class="node">
<title>headleaf President</title>
<ellipse fill="none" stroke="#000000" cx="768.006" cy="-267.345" rx="75.3529" ry="18"/>
<text text-anchor="middle" x="768.006" y="-263.145" font-family="Times,serif" font-size="14.00" fill="#000000">headleaf President</text>
</g>
<!-- head g1 adjectival modifier&#45;&gt;headleaf President -->
<g id="edge10" class="edge">
<title>head g1 adjectival modifier&#45;&gt;headleaf President</title>
<path fill="none" stroke="#000000" d="M626.2865,-376.5316C655.2365,-354.2273 705.1873,-315.7432 737.3945,-290.9294"/>
<polygon fill="#000000" stroke="#000000" points="739.7905,-293.5017 745.576,-284.626 735.5183,-287.9566 739.7905,-293.5017"/>
</g>
<!-- headleaf time -->
<g id="node10" class="node">
<title>headleaf time</title>
<ellipse fill="none" stroke="#000000" cx="417.5853" cy="-376.8644" rx="57.9632" ry="18"/>
<text text-anchor="middle" x="417.5853" y="-372.6644" font-family="Times,serif" font-size="14.00" fill="#000000">headleaf time</text>
</g>
<!-- head g1 adjectival modifier&#45;&gt;headleaf time -->
<g id="edge11" class="edge">
<title>head g1 adjectival modifier&#45;&gt;headleaf time</title>
<path fill="none" stroke="#000000" d="M509.9475,-385.4642C500.9187,-384.6235 491.8967,-383.7835 483.2226,-382.9758"/>
<polygon fill="#000000" stroke="#000000" points="483.5018,-379.4868 473.2203,-382.0445 482.8528,-386.4566 483.5018,-379.4868"/>
</g>
<!-- headleaf bodies -->
<g id="node13" class="node">
<title>headleaf bodies</title>
<ellipse fill="none" stroke="#000000" cx="751.9036" cy="-498.0399" rx="65.2055" ry="18"/>
<text text-anchor="middle" x="751.9036" y="-493.8399" font-family="Times,serif" font-size="14.00" fill="#000000">headleaf bodies</text>
</g>
<!-- head g1 adjectival modifier&#45;&gt;headleaf bodies -->
<g id="edge12" class="edge">
<title>head g1 adjectival modifier&#45;&gt;headleaf bodies</title>
<path fill="none" stroke="#000000" d="M628.5904,-411.7863C653.5305,-429.2311 691.8366,-456.025 719.1317,-475.1169"/>
<polygon fill="#000000" stroke="#000000" points="717.3754,-478.1597 727.5759,-481.0234 721.3876,-472.4236 717.3754,-478.1597"/>
</g>
<!-- headleaf break -->
<g id="node16" class="node">
<title>headleaf break</title>
<ellipse fill="none" stroke="#000000" cx="570.6441" cy="-235.8907" rx="61.805" ry="18"/>
<text text-anchor="middle" x="570.6441" y="-231.6907" font-family="Times,serif" font-size="14.00" fill="#000000">headleaf break</text>
</g>
<!-- head g1 adjectival modifier&#45;&gt;headleaf break -->
<g id="edge13" class="edge">
<title>head g1 adjectival modifier&#45;&gt;headleaf break</title>
<path fill="none" stroke="#000000" d="M599.6412,-376.0093C593.9948,-348.7253 583.2705,-296.9036 576.5652,-264.5027"/>
<polygon fill="#000000" stroke="#000000" points="579.9125,-263.4058 574.4585,-254.3226 573.0577,-264.8244 579.9125,-263.4058"/>
</g>
<!-- head g2 attribute -->
<g id="node8" class="node">
<title>head g2 attribute</title>
<ellipse fill="none" stroke="#000000" cx="764.5288" cy="-61.4891" rx="69.565" ry="18"/>
<text text-anchor="middle" x="764.5288" y="-57.2891" font-family="Times,serif" font-size="14.00" fill="#000000">head g2 attribute</text>
</g>
<!-- headleaf President&#45;&gt;head g2 attribute -->
<g id="edge14" class="edge">
<title>headleaf President&#45;&gt;head g2 attribute</title>
<path fill="none" stroke="#000000" d="M767.6975,-249.0766C767.0892,-213.0639 765.7315,-132.6866 765.0065,-89.7704"/>
<polygon fill="#000000" stroke="#000000" points="768.5052,-89.6559 764.8367,-79.7165 761.5062,-89.7742 768.5052,-89.6559"/>
<text text-anchor="middle" x="753.0512" y="-167.0755" font-family="Times,serif" font-size="14.00" fill="#000000">head</text>
</g>
<!-- headleaf be -->
<g id="node9" class="node">
<title>headleaf be</title>
<ellipse fill="none" stroke="#000000" cx="528.9919" cy="-18" rx="50.7214" ry="18"/>
<text text-anchor="middle" x="528.9919" y="-13.8" font-family="Times,serif" font-size="14.00" fill="#000000">headleaf be</text>
</g>
<!-- head g2 attribute&#45;&gt;headleaf be -->
<g id="edge15" class="edge">
<title>head g2 attribute&#45;&gt;headleaf be</title>
<path fill="none" stroke="#000000" d="M707.8121,-51.017C670.3602,-44.102 621.5222,-35.0846 584.35,-28.2212"/>
<polygon fill="#000000" stroke="#000000" points="584.6633,-24.72 574.194,-26.346 583.3923,-31.6036 584.6633,-24.72"/>
</g>
<!-- headleaf been -->
<g id="node17" class="node">
<title>headleaf been</title>
<ellipse fill="none" stroke="#000000" cx="1023.26" cy="-70.3894" rx="58.915" ry="18"/>
<text text-anchor="middle" x="1023.26" y="-66.1894" font-family="Times,serif" font-size="14.00" fill="#000000">headleaf been</text>
</g>
<!-- head g2 attribute&#45;&gt;headleaf been -->
<g id="edge16" class="edge">
<title>head g2 attribute&#45;&gt;headleaf been</title>
<path fill="none" stroke="#000000" d="M833.5242,-63.8625C870.8796,-65.1476 916.8923,-66.7304 954.2501,-68.0155"/>
<polygon fill="#000000" stroke="#000000" points="954.4285,-71.5236 964.543,-68.3696 954.6692,-64.5277 954.4285,-71.5236"/>
</g>
<!-- head g2 head of prep phrase -->
<g id="node11" class="node">
<title>head g2 head of prep phrase</title>
<ellipse fill="none" stroke="#000000" cx="256.3247" cy="-434.587" rx="109.6053" ry="18"/>
<text text-anchor="middle" x="256.3247" y="-430.387" font-family="Times,serif" font-size="14.00" fill="#000000">head g2 head of prep phrase</text>
</g>
<!-- headleaf time&#45;&gt;head g2 head of prep phrase -->
<g id="edge17" class="edge">
<title>headleaf time&#45;&gt;head g2 head of prep phrase</title>
<path fill="none" stroke="#000000" d="M379.3688,-390.5438C359.248,-397.746 334.201,-406.7115 311.967,-414.67"/>
<polygon fill="#000000" stroke="#000000" points="310.5417,-411.4627 302.3062,-418.1281 312.9008,-418.0532 310.5417,-411.4627"/>
<text text-anchor="middle" x="327.8139" y="-393.0679" font-family="Times,serif" font-size="14.00" fill="#000000">head</text>
</g>
<!-- headleaf said -->
<g id="node12" class="node">
<title>headleaf said</title>
<ellipse fill="none" stroke="#000000" cx="111.8314" cy="-283.2464" rx="56.5182" ry="18"/>
<text text-anchor="middle" x="111.8314" y="-279.0464" font-family="Times,serif" font-size="14.00" fill="#000000">headleaf said</text>
</g>
<!-- head g2 head of prep phrase&#45;&gt;headleaf said -->
<g id="edge18" class="edge">
<title>head g2 head of prep phrase&#45;&gt;headleaf said</title>
<path fill="none" stroke="#000000" d="M239.182,-416.632C213.4078,-389.6363 164.5968,-338.5123 135.4628,-307.9977"/>
<polygon fill="#000000" stroke="#000000" points="137.9429,-305.5269 128.5058,-300.711 132.8799,-310.3608 137.9429,-305.5269"/>
</g>
<!-- head g2 nominal subject (passive) -->
<g id="node14" class="node">
<title>head g2 nominal subject (passive)</title>
<ellipse fill="none" stroke="#000000" cx="880.7696" cy="-385.8216" rx="130.3872" ry="18"/>
<text text-anchor="middle" x="880.7696" y="-381.6216" font-family="Times,serif" font-size="14.00" fill="#000000">head g2 nominal subject (passive)</text>
</g>
<!-- headleaf bodies&#45;&gt;head g2 nominal subject (passive) -->
<g id="edge19" class="edge">
<title>headleaf bodies&#45;&gt;head g2 nominal subject (passive)</title>
<path fill="none" stroke="#000000" d="M771.7565,-480.7517C793.4168,-461.8896 828.2606,-431.5471 852.7113,-410.2552"/>
<polygon fill="#000000" stroke="#000000" points="855.0118,-412.893 860.2547,-403.6863 850.4148,-407.614 855.0118,-412.893"/>
<text text-anchor="middle" x="802.7319" y="-445.0711" font-family="Times,serif" font-size="14.00" fill="#000000">head</text>
</g>
<!-- headleaf confirmed -->
<g id="node15" class="node">
<title>headleaf confirmed</title>
<ellipse fill="none" stroke="#000000" cx="1071.1902" cy="-344.4731" rx="78.2426" ry="18"/>
<text text-anchor="middle" x="1071.1902" y="-340.2731" font-family="Times,serif" font-size="14.00" fill="#000000">headleaf confirmed</text>
</g>
<!-- head g2 nominal subject (passive)&#45;&gt;headleaf confirmed -->
<g id="edge20" class="edge">
<title>head g2 nominal subject (passive)&#45;&gt;headleaf confirmed</title>
<path fill="none" stroke="#000000" d="M950.864,-370.6011C968.3274,-366.809 987.005,-362.7533 1004.3091,-358.9959"/>
<polygon fill="#000000" stroke="#000000" points="1005.2896,-362.3646 1014.3192,-356.8222 1003.8042,-355.524 1005.2896,-362.3646"/>
</g>
<!-- headleaf break&#45;&gt;head g2 attribute -->
<g id="edge21" class="edge">
<title>headleaf break&#45;&gt;head g2 attribute</title>
<path fill="none" stroke="#000000" d="M589.9433,-218.5308C624.6946,-187.2717 697.8614,-121.4572 737.5499,-85.757"/>
<polygon fill="#000000" stroke="#000000" points="739.9258,-88.3275 745.0199,-79.0376 735.2444,-83.1231 739.9258,-88.3275"/>
<text text-anchor="middle" x="654.1846" y="-151.659" font-family="Times,serif" font-size="14.00" fill="#000000">head</text>
</g>
<!-- head g2 direct object -->
<g id="node18" class="node">
<title>head g2 direct object</title>
<ellipse fill="none" stroke="#000000" cx="376.2948" cy="-172.7633" rx="84.0308" ry="18"/>
<text text-anchor="middle" x="376.2948" y="-168.5633" font-family="Times,serif" font-size="14.00" fill="#000000">head g2 direct object</text>
</g>
<!-- headleaf break&#45;&gt;head g2 direct object -->
<g id="edge22" class="edge">
<title>headleaf break&#45;&gt;head g2 direct object</title>
<path fill="none" stroke="#000000" d="M528.9513,-222.3483C500.7711,-213.195 463.2294,-201.0009 432.4275,-190.996"/>
<polygon fill="#000000" stroke="#000000" points="433.2763,-187.5918 422.6842,-187.8312 431.1138,-194.2494 433.2763,-187.5918"/>
<text text-anchor="middle" x="462.5568" y="-207.8745" font-family="Times,serif" font-size="14.00" fill="#000000">head</text>
</g>
<!-- headleaf have -->
<g id="node19" class="node">
<title>headleaf have</title>
<ellipse fill="none" stroke="#000000" cx="173.1679" cy="-37.8575" rx="58.915" ry="18"/>
<text text-anchor="middle" x="173.1679" y="-33.6575" font-family="Times,serif" font-size="14.00" fill="#000000">headleaf have</text>
</g>
<!-- head g2 direct object&#45;&gt;headleaf have -->
<g id="edge23" class="edge">
<title>head g2 direct object&#45;&gt;headleaf have</title>
<path fill="none" stroke="#000000" d="M350.1553,-155.4029C313.4193,-131.0048 246.5226,-86.5757 206.3293,-59.8816"/>
<polygon fill="#000000" stroke="#000000" points="208.2021,-56.9238 197.9355,-54.3069 204.3294,-62.7549 208.2021,-56.9238"/>
</g>
<!-- headleaf at -->
<g id="node21" class="node">
<title>headleaf at</title>
<ellipse fill="none" stroke="#000000" cx="421.4852" cy="-818.2993" rx="48.7921" ry="18"/>
<text text-anchor="middle" x="421.4852" y="-814.0993" font-family="Times,serif" font-size="14.00" fill="#000000">headleaf at</text>
</g>
<!-- head g1 complement of preposition&#45;&gt;headleaf at -->
<g id="edge24" class="edge">
<title>head g1 complement of preposition&#45;&gt;headleaf at</title>
<path fill="none" stroke="#000000" d="M394.1729,-616.2712C399.337,-654.4694 411.4244,-743.8797 417.6417,-789.8693"/>
<polygon fill="#000000" stroke="#000000" points="414.209,-790.6032 419.0173,-800.0441 421.1459,-789.6653 414.209,-790.6032"/>
</g>
<!-- head g2 prepositional modifier -->
<g id="node22" class="node">
<title>head g2 prepositional modifier</title>
<ellipse fill="none" stroke="#000000" cx="118.4177" cy="-586.5962" rx="118.3354" ry="18"/>
<text text-anchor="middle" x="118.4177" y="-582.3962" font-family="Times,serif" font-size="14.00" fill="#000000">head g2 prepositional modifier</text>
</g>
<!-- headleaf at&#45;&gt;head g2 prepositional modifier -->
<g id="edge25" class="edge">
<title>headleaf at&#45;&gt;head g2 prepositional modifier</title>
<path fill="none" stroke="#000000" d="M400.1741,-802.0064C347.6714,-761.8667 211.8815,-658.0518 149.9922,-610.7357"/>
<polygon fill="#000000" stroke="#000000" points="151.8362,-607.7398 141.7662,-604.4467 147.5847,-613.3008 151.8362,-607.7398"/>
<text text-anchor="middle" x="258.0327" y="-706.2379" font-family="Times,serif" font-size="14.00" fill="#000000">head</text>
</g>
<!-- headleaf come -->
<g id="node23" class="node">
<title>headleaf come</title>
<ellipse fill="none" stroke="#000000" cx="153.0451" cy="-832.4067" rx="61.3291" ry="18"/>
<text text-anchor="middle" x="153.0451" y="-828.2067" font-family="Times,serif" font-size="14.00" fill="#000000">headleaf come</text>
</g>
<!-- head g2 prepositional modifier&#45;&gt;headleaf come -->
<g id="edge26" class="edge">
<title>head g2 prepositional modifier&#45;&gt;headleaf come</title>
<path fill="none" stroke="#000000" d="M120.9639,-604.6712C126.9423,-647.1104 141.9123,-753.3783 149.0882,-804.3179"/>
<polygon fill="#000000" stroke="#000000" points="145.6343,-804.8912 150.4951,-814.3052 152.5659,-803.9147 145.6343,-804.8912"/>
</g>
</g>
</svg>
