<?xml version="1.0" encoding="UTF-8" standalone="no"?>
<!DOCTYPE svg PUBLIC "-//W3C//DTD SVG 1.1//EN"
 "http://www.w3.org/Graphics/SVG/1.1/DTD/svg11.dtd">
<!-- Generated by graphviz version 2.40.1 (20161225.0304)
 -->
<!-- Title: %3 Pages: 1 -->
<svg width="1105pt" height="713pt"
 viewBox="0.00 0.00 1105.39 712.97" xmlns="http://www.w3.org/2000/svg" xmlns:xlink="http://www.w3.org/1999/xlink">
<g id="graph0" class="graph" transform="scale(1 1) rotate(0) translate(4 708.9667)">
<title>%3</title>
<polygon fill="#ffffff" stroke="transparent" points="-4,4 -4,-708.9667 1101.3874,-708.9667 1101.3874,4 -4,4"/>
<!-- ORDINAL -->
<g id="node1" class="node">
<title>ORDINAL</title>
<ellipse fill="none" stroke="#000000" cx="511.5053" cy="-391.7104" rx="49.7964" ry="18"/>
<text text-anchor="middle" x="511.5053" y="-387.5104" font-family="Times,serif" font-size="14.00" fill="#000000">ORDINAL</text>
<text text-anchor="middle" x="458.1072" y="-412.5104" font-family="Times,serif" font-size="14.00" fill="#000000">8</text>
</g>
<!-- head g1 adverbial modifier -->
<g id="node2" class="node">
<title>head g1 adverbial modifier</title>
<ellipse fill="none" stroke="#000000" cx="401.8119" cy="-534.9029" rx="105.2879" ry="18"/>
<text text-anchor="middle" x="401.8119" y="-530.7029" font-family="Times,serif" font-size="14.00" fill="#000000">head g1 adverbial modifier</text>
</g>
<!-- ORDINAL&#45;&gt;head g1 adverbial modifier -->
<g id="edge1" class="edge">
<title>ORDINAL&#45;&gt;head g1 adverbial modifier</title>
<path fill="none" stroke="#000000" d="M498.0547,-409.2686C478.9973,-434.1461 443.998,-479.8337 421.8681,-508.7218"/>
<polygon fill="#000000" stroke="#000000" points="419.0214,-506.6824 415.7186,-516.7493 424.5783,-510.9393 419.0214,-506.6824"/>
<text text-anchor="middle" x="443.657" y="-465.8296" font-family="Times,serif" font-size="14.00" fill="#000000">head</text>
</g>
<!-- head g1 adjectival modifier -->
<g id="node5" class="node">
<title>head g1 adjectival modifier</title>
<ellipse fill="none" stroke="#000000" cx="662.6186" cy="-324.2815" rx="106.7328" ry="18"/>
<text text-anchor="middle" x="662.6186" y="-320.0815" font-family="Times,serif" font-size="14.00" fill="#000000">head g1 adjectival modifier</text>
</g>
<!-- ORDINAL&#45;&gt;head g1 adjectival modifier -->
<g id="edge2" class="edge">
<title>ORDINAL&#45;&gt;head g1 adjectival modifier</title>
<path fill="none" stroke="#000000" d="M543.1836,-377.5751C564.1016,-368.2412 591.8861,-355.8434 615.3926,-345.3544"/>
<polygon fill="#000000" stroke="#000000" points="617.13,-348.4119 624.8359,-341.1407 614.2775,-342.0194 617.13,-348.4119"/>
<text text-anchor="middle" x="570.6864" y="-362.2067" font-family="Times,serif" font-size="14.00" fill="#000000">head</text>
</g>
<!-- head g1 complement of preposition -->
<g id="node19" class="node">
<title>head g1 complement of preposition</title>
<ellipse fill="none" stroke="#000000" cx="313.7401" cy="-403.5129" rx="135.2153" ry="18"/>
<text text-anchor="middle" x="313.7401" y="-399.3129" font-family="Times,serif" font-size="14.00" fill="#000000">head g1 complement of preposition</text>
</g>
<!-- ORDINAL&#45;&gt;head g1 complement of preposition -->
<g id="edge3" class="edge">
<title>ORDINAL&#45;&gt;head g1 complement of preposition</title>
<path fill="none" stroke="#000000" d="M462.1109,-394.6582C457.4917,-394.9339 452.6784,-395.2212 447.7303,-395.5165"/>
<polygon fill="#000000" stroke="#000000" points="447.177,-392.0432 437.4033,-396.1328 447.5941,-399.0307 447.177,-392.0432"/>
<text text-anchor="middle" x="450.0396" y="-384.1787" font-family="Times,serif" font-size="14.00" fill="#000000">head</text>
</g>
<!-- brought -->
<g id="node3" class="node">
<title>brought</title>
<ellipse fill="none" stroke="#000000" cx="130.9453" cy="-634.4118" rx="37.7352" ry="18"/>
<text text-anchor="middle" x="130.9453" y="-630.2118" font-family="Times,serif" font-size="14.00" fill="#000000">brought</text>
</g>
<!-- head g1 adverbial modifier&#45;&gt;brought -->
<g id="edge4" class="edge">
<title>head g1 adverbial modifier&#45;&gt;brought</title>
<path fill="none" stroke="#000000" d="M357.3871,-551.2233C305.4667,-570.2975 220.3331,-601.5732 170.5704,-619.8547"/>
<polygon fill="#000000" stroke="#000000" points="169.2895,-616.5964 161.1098,-623.3302 171.7034,-623.1671 169.2895,-616.5964"/>
</g>
<!-- go -->
<g id="node4" class="node">
<title>go</title>
<ellipse fill="none" stroke="#000000" cx="417.4953" cy="-686.9667" rx="27" ry="18"/>
<text text-anchor="middle" x="417.4953" y="-682.7667" font-family="Times,serif" font-size="14.00" fill="#000000">go</text>
</g>
<!-- head g1 adverbial modifier&#45;&gt;go -->
<g id="edge5" class="edge">
<title>head g1 adverbial modifier&#45;&gt;go</title>
<path fill="none" stroke="#000000" d="M403.6726,-552.9437C406.3727,-579.1231 411.4019,-627.8858 414.5922,-658.8181"/>
<polygon fill="#000000" stroke="#000000" points="411.1295,-659.3612 415.6371,-668.9493 418.0926,-658.643 411.1295,-659.3612"/>
</g>
<!-- President -->
<g id="node6" class="node">
<title>President</title>
<ellipse fill="none" stroke="#000000" cx="718.7648" cy="-162.0241" rx="43.0387" ry="18"/>
<text text-anchor="middle" x="718.7648" y="-157.8241" font-family="Times,serif" font-size="14.00" fill="#000000">President</text>
</g>
<!-- head g1 adjectival modifier&#45;&gt;President -->
<g id="edge6" class="edge">
<title>head g1 adjectival modifier&#45;&gt;President</title>
<path fill="none" stroke="#000000" d="M668.8418,-306.2971C678.6224,-278.0319 697.6634,-223.0054 709.1947,-189.6808"/>
<polygon fill="#000000" stroke="#000000" points="712.5512,-190.6838 712.5138,-180.089 705.9361,-188.3947 712.5512,-190.6838"/>
</g>
<!-- time -->
<g id="node9" class="node">
<title>time</title>
<ellipse fill="none" stroke="#000000" cx="521.2361" cy="-214.8932" rx="27" ry="18"/>
<text text-anchor="middle" x="521.2361" y="-210.6932" font-family="Times,serif" font-size="14.00" fill="#000000">time</text>
</g>
<!-- head g1 adjectival modifier&#45;&gt;time -->
<g id="edge7" class="edge">
<title>head g1 adjectival modifier&#45;&gt;time</title>
<path fill="none" stroke="#000000" d="M639.5884,-306.4629C614.1704,-286.7968 573.3643,-255.225 546.9281,-234.7712"/>
<polygon fill="#000000" stroke="#000000" points="548.9385,-231.9014 538.8876,-228.5502 544.6549,-237.4378 548.9385,-231.9014"/>
</g>
<!-- bodies -->
<g id="node12" class="node">
<title>bodies</title>
<ellipse fill="none" stroke="#000000" cx="633.1159" cy="-503.8486" rx="33.3925" ry="18"/>
<text text-anchor="middle" x="633.1159" y="-499.6486" font-family="Times,serif" font-size="14.00" fill="#000000">bodies</text>
</g>
<!-- head g1 adjectival modifier&#45;&gt;bodies -->
<g id="edge8" class="edge">
<title>head g1 adjectival modifier&#45;&gt;bodies</title>
<path fill="none" stroke="#000000" d="M659.6274,-342.4875C654.4674,-373.8932 643.8598,-438.456 637.7421,-475.6915"/>
<polygon fill="#000000" stroke="#000000" points="634.2388,-475.4261 636.0712,-485.8613 641.1462,-476.5611 634.2388,-475.4261"/>
</g>
<!-- break -->
<g id="node15" class="node">
<title>break</title>
<ellipse fill="none" stroke="#000000" cx="804.2305" cy="-442.1455" rx="29.9931" ry="18"/>
<text text-anchor="middle" x="804.2305" y="-437.9455" font-family="Times,serif" font-size="14.00" fill="#000000">break</text>
</g>
<!-- head g1 adjectival modifier&#45;&gt;break -->
<g id="edge9" class="edge">
<title>head g1 adjectival modifier&#45;&gt;break</title>
<path fill="none" stroke="#000000" d="M683.8193,-341.9269C709.132,-362.9947 751.4423,-398.2097 778.5755,-420.7928"/>
<polygon fill="#000000" stroke="#000000" points="776.5482,-423.6591 786.4733,-427.3661 781.0262,-418.2788 776.5482,-423.6591"/>
</g>
<!-- head g2 attribute -->
<g id="node7" class="node">
<title>head g2 attribute</title>
<ellipse fill="none" stroke="#000000" cx="850.3805" cy="-257.5371" rx="69.565" ry="18"/>
<text text-anchor="middle" x="850.3805" y="-253.3371" font-family="Times,serif" font-size="14.00" fill="#000000">head g2 attribute</text>
</g>
<!-- President&#45;&gt;head g2 attribute -->
<g id="edge10" class="edge">
<title>President&#45;&gt;head g2 attribute</title>
<path fill="none" stroke="#000000" d="M740.4985,-177.7962C761.7902,-193.2475 794.4741,-216.9661 818.6658,-234.5219"/>
<polygon fill="#000000" stroke="#000000" points="816.6868,-237.4103 826.836,-240.451 820.7982,-231.7448 816.6868,-237.4103"/>
<text text-anchor="middle" x="770.1631" y="-211.7129" font-family="Times,serif" font-size="14.00" fill="#000000">head</text>
</g>
<!-- be -->
<g id="node8" class="node">
<title>be</title>
<ellipse fill="none" stroke="#000000" cx="1040.9855" cy="-164.7609" rx="27" ry="18"/>
<text text-anchor="middle" x="1040.9855" y="-160.5609" font-family="Times,serif" font-size="14.00" fill="#000000">be</text>
</g>
<!-- head g2 attribute&#45;&gt;be -->
<g id="edge11" class="edge">
<title>head g2 attribute&#45;&gt;be</title>
<path fill="none" stroke="#000000" d="M883.1466,-241.5883C918.6582,-224.3032 974.9103,-196.9227 1009.794,-179.9432"/>
<polygon fill="#000000" stroke="#000000" points="1011.5717,-182.9706 1019.0313,-175.447 1008.508,-176.6766 1011.5717,-182.9706"/>
</g>
<!-- been -->
<g id="node16" class="node">
<title>been</title>
<ellipse fill="none" stroke="#000000" cx="921.899" cy="-18" rx="27" ry="18"/>
<text text-anchor="middle" x="921.899" y="-13.8" font-family="Times,serif" font-size="14.00" fill="#000000">been</text>
</g>
<!-- head g2 attribute&#45;&gt;been -->
<g id="edge12" class="edge">
<title>head g2 attribute&#45;&gt;been</title>
<path fill="none" stroke="#000000" d="M855.756,-239.5329C868.1601,-197.9876 898.8508,-95.1955 913.6534,-45.617"/>
<polygon fill="#000000" stroke="#000000" points="917.0514,-46.4698 916.5587,-35.8864 910.344,-44.4671 917.0514,-46.4698"/>
</g>
<!-- head g2 head of prep phrase -->
<g id="node10" class="node">
<title>head g2 head of prep phrase</title>
<ellipse fill="none" stroke="#000000" cx="639.2884" cy="-21.416" rx="109.6053" ry="18"/>
<text text-anchor="middle" x="639.2884" y="-17.216" font-family="Times,serif" font-size="14.00" fill="#000000">head g2 head of prep phrase</text>
</g>
<!-- time&#45;&gt;head g2 head of prep phrase -->
<g id="edge13" class="edge">
<title>time&#45;&gt;head g2 head of prep phrase</title>
<path fill="none" stroke="#000000" d="M531.5059,-198.0618C552.0539,-164.3855 598.3672,-88.4821 623.0626,-48.0087"/>
<polygon fill="#000000" stroke="#000000" points="626.0534,-49.8266 628.2743,-39.4672 620.0779,-46.1806 626.0534,-49.8266"/>
<text text-anchor="middle" x="566.7634" y="-121.4216" font-family="Times,serif" font-size="14.00" fill="#000000">head</text>
</g>
<!-- said -->
<g id="node11" class="node">
<title>said</title>
<ellipse fill="none" stroke="#000000" cx="398.8589" cy="-29.9252" rx="27" ry="18"/>
<text text-anchor="middle" x="398.8589" y="-25.7252" font-family="Times,serif" font-size="14.00" fill="#000000">said</text>
</g>
<!-- head g2 head of prep phrase&#45;&gt;said -->
<g id="edge14" class="edge">
<title>head g2 head of prep phrase&#45;&gt;said</title>
<path fill="none" stroke="#000000" d="M532.0821,-25.2102C497.7434,-26.4255 461.9722,-27.6915 436.1529,-28.6053"/>
<polygon fill="#000000" stroke="#000000" points="435.9474,-25.1103 426.0775,-28.9619 436.1951,-32.1059 435.9474,-25.1103"/>
</g>
<!-- head g2 nominal subject (passive) -->
<g id="node13" class="node">
<title>head g2 nominal subject (passive)</title>
<ellipse fill="none" stroke="#000000" cx="634.0286" cy="-675.2924" rx="130.3872" ry="18"/>
<text text-anchor="middle" x="634.0286" y="-671.0924" font-family="Times,serif" font-size="14.00" fill="#000000">head g2 nominal subject (passive)</text>
</g>
<!-- bodies&#45;&gt;head g2 nominal subject (passive) -->
<g id="edge15" class="edge">
<title>bodies&#45;&gt;head g2 nominal subject (passive)</title>
<path fill="none" stroke="#000000" d="M633.2118,-521.872C633.3707,-551.7123 633.6895,-611.6018 633.8784,-647.085"/>
<polygon fill="#000000" stroke="#000000" points="630.3792,-647.272 633.9325,-657.2532 637.3791,-647.2346 630.3792,-647.272"/>
<text text-anchor="middle" x="620.3576" y="-592.2269" font-family="Times,serif" font-size="14.00" fill="#000000">head</text>
</g>
<!-- confirmed -->
<g id="node14" class="node">
<title>confirmed</title>
<ellipse fill="none" stroke="#000000" cx="818.5288" cy="-650.0342" rx="45.9286" ry="18"/>
<text text-anchor="middle" x="818.5288" y="-645.8342" font-family="Times,serif" font-size="14.00" fill="#000000">confirmed</text>
</g>
<!-- head g2 nominal subject (passive)&#45;&gt;confirmed -->
<g id="edge16" class="edge">
<title>head g2 nominal subject (passive)&#45;&gt;confirmed</title>
<path fill="none" stroke="#000000" d="M726.8192,-662.5893C739.8672,-660.803 752.9008,-659.0187 764.8758,-657.3793"/>
<polygon fill="#000000" stroke="#000000" points="765.6676,-660.8036 775.1005,-655.9795 764.7181,-653.8683 765.6676,-660.8036"/>
</g>
<!-- break&#45;&gt;head g2 attribute -->
<g id="edge17" class="edge">
<title>break&#45;&gt;head g2 attribute</title>
<path fill="none" stroke="#000000" d="M808.7396,-424.1084C816.8042,-391.8485 833.7506,-324.0597 843.353,-285.6484"/>
<polygon fill="#000000" stroke="#000000" points="846.8233,-286.1978 845.8531,-275.6475 840.0323,-284.5 846.8233,-286.1978"/>
<text text-anchor="middle" x="814.0718" y="-352.7206" font-family="Times,serif" font-size="14.00" fill="#000000">head</text>
</g>
<!-- head g2 direct object -->
<g id="node17" class="node">
<title>head g2 direct object</title>
<ellipse fill="none" stroke="#000000" cx="1013.372" cy="-408.6022" rx="84.0308" ry="18"/>
<text text-anchor="middle" x="1013.372" y="-404.4022" font-family="Times,serif" font-size="14.00" fill="#000000">head g2 direct object</text>
</g>
<!-- break&#45;&gt;head g2 direct object -->
<g id="edge18" class="edge">
<title>break&#45;&gt;head g2 direct object</title>
<path fill="none" stroke="#000000" d="M833.3108,-437.4815C859.7799,-433.2362 900.0662,-426.7748 935.8259,-421.0395"/>
<polygon fill="#000000" stroke="#000000" points="936.4571,-424.4831 945.7766,-419.4436 935.3485,-417.5714 936.4571,-424.4831"/>
<text text-anchor="middle" x="876.3141" y="-431.265" font-family="Times,serif" font-size="14.00" fill="#000000">head</text>
</g>
<!-- have -->
<g id="node18" class="node">
<title>have</title>
<ellipse fill="none" stroke="#000000" cx="1018.5506" cy="-643.2783" rx="27" ry="18"/>
<text text-anchor="middle" x="1018.5506" y="-639.0783" font-family="Times,serif" font-size="14.00" fill="#000000">have</text>
</g>
<!-- head g2 direct object&#45;&gt;have -->
<g id="edge19" class="edge">
<title>head g2 direct object&#45;&gt;have</title>
<path fill="none" stroke="#000000" d="M1013.7697,-426.6272C1014.6659,-467.2386 1016.8486,-566.1509 1017.9268,-615.0116"/>
<polygon fill="#000000" stroke="#000000" points="1014.4316,-615.2716 1018.1515,-625.1919 1021.4299,-615.1171 1014.4316,-615.2716"/>
</g>
<!-- at -->
<g id="node20" class="node">
<title>at</title>
<ellipse fill="none" stroke="#000000" cx="319.096" cy="-218.0449" rx="27" ry="18"/>
<text text-anchor="middle" x="319.096" y="-213.8449" font-family="Times,serif" font-size="14.00" fill="#000000">at</text>
</g>
<!-- head g1 complement of preposition&#45;&gt;at -->
<g id="edge20" class="edge">
<title>head g1 complement of preposition&#45;&gt;at</title>
<path fill="none" stroke="#000000" d="M314.2634,-385.3917C315.1993,-352.9817 317.166,-284.8772 318.2804,-246.2872"/>
<polygon fill="#000000" stroke="#000000" points="321.7803,-246.3365 318.5705,-236.2396 314.7832,-246.1344 321.7803,-246.3365"/>
</g>
<!-- head g2 prepositional modifier -->
<g id="node21" class="node">
<title>head g2 prepositional modifier</title>
<ellipse fill="none" stroke="#000000" cx="118.4177" cy="-67.9767" rx="118.3354" ry="18"/>
<text text-anchor="middle" x="118.4177" y="-63.7767" font-family="Times,serif" font-size="14.00" fill="#000000">head g2 prepositional modifier</text>
</g>
<!-- at&#45;&gt;head g2 prepositional modifier -->
<g id="edge21" class="edge">
<title>at&#45;&gt;head g2 prepositional modifier</title>
<path fill="none" stroke="#000000" d="M300.9332,-204.4627C266.8328,-178.9623 192.8388,-123.6292 150.2786,-91.8024"/>
<polygon fill="#000000" stroke="#000000" points="152.3113,-88.9521 142.2068,-85.7663 148.1192,-94.558 152.3113,-88.9521"/>
<text text-anchor="middle" x="208.307" y="-147.8778" font-family="Times,serif" font-size="14.00" fill="#000000">head</text>
</g>
<!-- come -->
<g id="node22" class="node">
<title>come</title>
<ellipse fill="none" stroke="#000000" cx="94.4832" cy="-354.4539" rx="29.0172" ry="18"/>
<text text-anchor="middle" x="94.4832" y="-350.2539" font-family="Times,serif" font-size="14.00" fill="#000000">come</text>
</g>
<!-- head g2 prepositional modifier&#45;&gt;come -->
<g id="edge22" class="edge">
<title>head g2 prepositional modifier&#45;&gt;come</title>
<path fill="none" stroke="#000000" d="M116.8841,-86.3329C112.8143,-135.0447 101.7197,-267.8382 96.8398,-326.247"/>
<polygon fill="#000000" stroke="#000000" points="93.3489,-325.9938 96.0041,-336.2505 100.3246,-326.5767 93.3489,-325.9938"/>
</g>
</g>
</svg>
