<?xml version="1.0" encoding="UTF-8" standalone="no"?>
<!DOCTYPE svg PUBLIC "-//W3C//DTD SVG 1.1//EN"
 "http://www.w3.org/Graphics/SVG/1.1/DTD/svg11.dtd">
<!-- Generated by graphviz version 2.40.1 (20161225.0304)
 -->
<!-- Title: %3 Pages: 1 -->
<svg width="1015pt" height="188pt"
 viewBox="0.00 0.00 1014.80 188.00" xmlns="http://www.w3.org/2000/svg" xmlns:xlink="http://www.w3.org/1999/xlink">
<g id="graph0" class="graph" transform="scale(1 1) rotate(0) translate(4 184)">
<title>%3</title>
<polygon fill="#ffffff" stroke="transparent" points="-4,4 -4,-184 1010.7976,-184 1010.7976,4 -4,4"/>
<!-- ORDINAL -->
<g id="node1" class="node">
<title>ORDINAL</title>
<ellipse fill="none" stroke="#000000" cx="702.6174" cy="-162" rx="49.7964" ry="18"/>
<text text-anchor="middle" x="702.6174" y="-157.8" font-family="Times,serif" font-size="14.00" fill="#000000">ORDINAL</text>
</g>
<!-- adverbial modifier -->
<g id="node2" class="node">
<title>adverbial modifier</title>
<ellipse fill="none" stroke="#000000" cx="156.6174" cy="-90" rx="75.3702" ry="18"/>
<text text-anchor="middle" x="156.6174" y="-85.8" font-family="Times,serif" font-size="14.00" fill="#000000">adverbial modifier</text>
</g>
<!-- ORDINAL&#45;&#45;adverbial modifier -->
<g id="edge1" class="edge">
<title>ORDINAL&#45;&#45;adverbial modifier</title>
<path fill="none" stroke="#000000" d="M655.5932,-155.799C558.2034,-142.9564 334.228,-113.4212 222.4995,-98.6878"/>
</g>
<!-- adjectival modifier -->
<g id="node5" class="node">
<title>adjectival modifier</title>
<ellipse fill="none" stroke="#000000" cx="602.6174" cy="-90" rx="76.815" ry="18"/>
<text text-anchor="middle" x="602.6174" y="-85.8" font-family="Times,serif" font-size="14.00" fill="#000000">adjectival modifier</text>
</g>
<!-- ORDINAL&#45;&#45;adjectival modifier -->
<g id="edge2" class="edge">
<title>ORDINAL&#45;&#45;adjectival modifier</title>
<path fill="none" stroke="#000000" d="M679.9259,-145.6621C664.0213,-134.2108 642.7989,-118.9306 626.6136,-107.2773"/>
</g>
<!-- complement of preposition -->
<g id="node10" class="node">
<title>complement of preposition</title>
<ellipse fill="none" stroke="#000000" cx="810.6174" cy="-90" rx="105.2973" ry="18"/>
<text text-anchor="middle" x="810.6174" y="-85.8" font-family="Times,serif" font-size="14.00" fill="#000000">complement of preposition</text>
</g>
<!-- ORDINAL&#45;&#45;complement of preposition -->
<g id="edge3" class="edge">
<title>ORDINAL&#45;&#45;complement of preposition</title>
<path fill="none" stroke="#000000" d="M726.5861,-146.0209C743.7378,-134.5864 766.8164,-119.2007 784.4478,-107.4464"/>
</g>
<!-- ROOT -->
<g id="node14" class="node">
<title>ROOT</title>
<ellipse fill="none" stroke="#000000" cx="972.6174" cy="-90" rx="34.3614" ry="18"/>
<text text-anchor="middle" x="972.6174" y="-85.8" font-family="Times,serif" font-size="14.00" fill="#000000">ROOT</text>
</g>
<!-- ORDINAL&#45;&#45;ROOT -->
<g id="edge4" class="edge">
<title>ORDINAL&#45;&#45;ROOT</title>
<path fill="none" stroke="#000000" d="M746.0084,-153.0637C791.065,-143.4083 863.3941,-126.8508 924.6174,-108 931.3371,-105.931 938.4805,-103.4248 945.1463,-100.9483"/>
</g>
<!-- brought -->
<g id="node3" class="node">
<title>brought</title>
<ellipse fill="none" stroke="#000000" cx="37.6174" cy="-18" rx="37.7352" ry="18"/>
<text text-anchor="middle" x="37.6174" y="-13.8" font-family="Times,serif" font-size="14.00" fill="#000000">brought</text>
</g>
<!-- adverbial modifier&#45;&#45;brought -->
<g id="edge5" class="edge">
<title>adverbial modifier&#45;&#45;brought</title>
<path fill="none" stroke="#000000" d="M128.7172,-73.1192C108.2455,-60.733 80.7432,-44.0929 61.3293,-32.3467"/>
</g>
<!-- go -->
<g id="node4" class="node">
<title>go</title>
<ellipse fill="none" stroke="#000000" cx="120.6174" cy="-18" rx="27" ry="18"/>
<text text-anchor="middle" x="120.6174" y="-13.8" font-family="Times,serif" font-size="14.00" fill="#000000">go</text>
</g>
<!-- adverbial modifier&#45;&#45;go -->
<g id="edge6" class="edge">
<title>adverbial modifier&#45;&#45;go</title>
<path fill="none" stroke="#000000" d="M147.5331,-71.8314C141.9508,-60.6667 134.8379,-46.441 129.3263,-35.4177"/>
</g>
<!-- been -->
<g id="node18" class="node">
<title>been</title>
<ellipse fill="none" stroke="#000000" cx="192.6174" cy="-18" rx="27" ry="18"/>
<text text-anchor="middle" x="192.6174" y="-13.8" font-family="Times,serif" font-size="14.00" fill="#000000">been</text>
</g>
<!-- adverbial modifier&#45;&#45;been -->
<g id="edge7" class="edge">
<title>adverbial modifier&#45;&#45;been</title>
<path fill="none" stroke="#000000" d="M165.7017,-71.8314C171.2841,-60.6667 178.3969,-46.441 183.9086,-35.4177"/>
</g>
<!-- President -->
<g id="node6" class="node">
<title>President</title>
<ellipse fill="none" stroke="#000000" cx="280.6174" cy="-18" rx="43.0387" ry="18"/>
<text text-anchor="middle" x="280.6174" y="-13.8" font-family="Times,serif" font-size="14.00" fill="#000000">President</text>
</g>
<!-- adjectival modifier&#45;&#45;President -->
<g id="edge8" class="edge">
<title>adjectival modifier&#45;&#45;President</title>
<path fill="none" stroke="#000000" d="M539.3137,-79.8451C484.2347,-70.4159 402.5053,-54.9904 332.6174,-36 326.1641,-34.2465 319.352,-32.1061 312.8598,-29.9215"/>
</g>
<!-- time -->
<g id="node7" class="node">
<title>time</title>
<ellipse fill="none" stroke="#000000" cx="368.6174" cy="-18" rx="27" ry="18"/>
<text text-anchor="middle" x="368.6174" y="-13.8" font-family="Times,serif" font-size="14.00" fill="#000000">time</text>
</g>
<!-- adjectival modifier&#45;&#45;time -->
<g id="edge9" class="edge">
<title>adjectival modifier&#45;&#45;time</title>
<path fill="none" stroke="#000000" d="M546.201,-77.752C506.0627,-68.2841 451.2149,-53.8032 404.6174,-36 399.6565,-34.1046 394.4683,-31.7482 389.625,-29.3715"/>
</g>
<!-- bodies -->
<g id="node8" class="node">
<title>bodies</title>
<ellipse fill="none" stroke="#000000" cx="446.6174" cy="-18" rx="33.3925" ry="18"/>
<text text-anchor="middle" x="446.6174" y="-13.8" font-family="Times,serif" font-size="14.00" fill="#000000">bodies</text>
</g>
<!-- adjectival modifier&#45;&#45;bodies -->
<g id="edge10" class="edge">
<title>adjectival modifier&#45;&#45;bodies</title>
<path fill="none" stroke="#000000" d="M567.608,-73.8418C538.6821,-60.4914 498.285,-41.8466 472.2862,-29.8471"/>
</g>
<!-- break -->
<g id="node9" class="node">
<title>break</title>
<ellipse fill="none" stroke="#000000" cx="527.6174" cy="-18" rx="29.9931" ry="18"/>
<text text-anchor="middle" x="527.6174" y="-13.8" font-family="Times,serif" font-size="14.00" fill="#000000">break</text>
</g>
<!-- adjectival modifier&#45;&#45;break -->
<g id="edge11" class="edge">
<title>adjectival modifier&#45;&#45;break</title>
<path fill="none" stroke="#000000" d="M584.0781,-72.2022C571.6719,-60.2923 555.5085,-44.7755 543.6565,-33.3975"/>
</g>
<!-- visit -->
<g id="node12" class="node">
<title>visit</title>
<ellipse fill="none" stroke="#000000" cx="602.6174" cy="-18" rx="27" ry="18"/>
<text text-anchor="middle" x="602.6174" y="-13.8" font-family="Times,serif" font-size="14.00" fill="#000000">visit</text>
</g>
<!-- adjectival modifier&#45;&#45;visit -->
<g id="edge12" class="edge">
<title>adjectival modifier&#45;&#45;visit</title>
<path fill="none" stroke="#000000" d="M602.6174,-71.8314C602.6174,-61 602.6174,-47.2876 602.6174,-36.4133"/>
</g>
<!-- party -->
<g id="node13" class="node">
<title>party</title>
<ellipse fill="none" stroke="#000000" cx="675.6174" cy="-18" rx="28.0565" ry="18"/>
<text text-anchor="middle" x="675.6174" y="-13.8" font-family="Times,serif" font-size="14.00" fill="#000000">party</text>
</g>
<!-- adjectival modifier&#45;&#45;party -->
<g id="edge13" class="edge">
<title>adjectival modifier&#45;&#45;party</title>
<path fill="none" stroke="#000000" d="M620.6624,-72.2022C632.8222,-60.209 648.6903,-44.5583 660.2475,-33.1594"/>
</g>
<!-- lady -->
<g id="node16" class="node">
<title>lady</title>
<ellipse fill="none" stroke="#000000" cx="748.6174" cy="-18" rx="27" ry="18"/>
<text text-anchor="middle" x="748.6174" y="-13.8" font-family="Times,serif" font-size="14.00" fill="#000000">lady</text>
</g>
<!-- adjectival modifier&#45;&#45;lady -->
<g id="edge14" class="edge">
<title>adjectival modifier&#45;&#45;lady</title>
<path fill="none" stroke="#000000" d="M635.8624,-73.758C657.6999,-63.0699 686.8825,-48.7503 712.6174,-36 717.2508,-33.7044 722.2136,-31.2319 726.9282,-28.8766"/>
</g>
<!-- beings -->
<g id="node17" class="node">
<title>beings</title>
<ellipse fill="none" stroke="#000000" cx="826.6174" cy="-18" rx="33.3925" ry="18"/>
<text text-anchor="middle" x="826.6174" y="-13.8" font-family="Times,serif" font-size="14.00" fill="#000000">beings</text>
</g>
<!-- adjectival modifier&#45;&#45;beings -->
<g id="edge15" class="edge">
<title>adjectival modifier&#45;&#45;beings</title>
<path fill="none" stroke="#000000" d="M653.7337,-76.5503C690.4977,-66.4622 741.0652,-51.7332 784.6174,-36 789.9895,-34.0594 795.662,-31.7865 801.0411,-29.5218"/>
</g>
<!-- at -->
<g id="node11" class="node">
<title>at</title>
<ellipse fill="none" stroke="#000000" cx="904.6174" cy="-18" rx="27" ry="18"/>
<text text-anchor="middle" x="904.6174" y="-13.8" font-family="Times,serif" font-size="14.00" fill="#000000">at</text>
</g>
<!-- complement of preposition&#45;&#45;at -->
<g id="edge16" class="edge">
<title>complement of preposition&#45;&#45;at</title>
<path fill="none" stroke="#000000" d="M833.8534,-72.2022C850.1636,-59.7093 871.6552,-43.2477 886.6566,-31.7573"/>
</g>
<!-- first -->
<g id="node15" class="node">
<title>first</title>
<ellipse fill="none" stroke="#000000" cx="976.6174" cy="-18" rx="27" ry="18"/>
<text text-anchor="middle" x="976.6174" y="-13.8" font-family="Times,serif" font-size="14.00" fill="#000000">first</text>
</g>
<!-- ROOT&#45;&#45;first -->
<g id="edge17" class="edge">
<title>ROOT&#45;&#45;first</title>
<path fill="none" stroke="#000000" d="M973.6268,-71.8314C974.2285,-61 974.9903,-47.2876 975.5945,-36.4133"/>
</g>
</g>
</svg>
