<?xml version="1.0" encoding="UTF-8" standalone="no"?>
<!DOCTYPE svg PUBLIC "-//W3C//DTD SVG 1.1//EN"
 "http://www.w3.org/Graphics/SVG/1.1/DTD/svg11.dtd">
<!-- Generated by graphviz version 2.40.1 (20161225.0304)
 -->
<!-- Title: %3 Pages: 1 -->
<svg width="266pt" height="188pt"
 viewBox="0.00 0.00 266.41 188.00" xmlns="http://www.w3.org/2000/svg" xmlns:xlink="http://www.w3.org/1999/xlink">
<g id="graph0" class="graph" transform="scale(1 1) rotate(0) translate(4 184)">
<title>%3</title>
<polygon fill="#ffffff" stroke="transparent" points="-4,4 -4,-184 262.4065,-184 262.4065,4 -4,4"/>
<!-- PERCENT -->
<g id="node1" class="node">
<title>PERCENT</title>
<ellipse fill="none" stroke="#000000" cx="123.0564" cy="-162" rx="49.3291" ry="18"/>
<text text-anchor="middle" x="123.0564" y="-157.8" font-family="Times,serif" font-size="14.00" fill="#000000">PERCENT</text>
</g>
<!-- direct object -->
<g id="node2" class="node">
<title>direct object</title>
<ellipse fill="none" stroke="#000000" cx="54.0564" cy="-90" rx="54.1129" ry="18"/>
<text text-anchor="middle" x="54.0564" y="-85.8" font-family="Times,serif" font-size="14.00" fill="#000000">direct object</text>
</g>
<!-- PERCENT&#45;&#45;direct object -->
<g id="edge1" class="edge">
<title>PERCENT&#45;&#45;direct object</title>
<path fill="none" stroke="#000000" d="M106.7044,-144.937C95.8646,-133.626 81.6835,-118.8282 70.7704,-107.4407"/>
</g>
<!-- nominal subject -->
<g id="node4" class="node">
<title>nominal subject</title>
<ellipse fill="none" stroke="#000000" cx="192.0564" cy="-90" rx="66.2004" ry="18"/>
<text text-anchor="middle" x="192.0564" y="-85.8" font-family="Times,serif" font-size="14.00" fill="#000000">nominal subject</text>
</g>
<!-- PERCENT&#45;&#45;nominal subject -->
<g id="edge2" class="edge">
<title>PERCENT&#45;&#45;nominal subject</title>
<path fill="none" stroke="#000000" d="M139.4085,-144.937C150.2482,-133.626 164.4294,-118.8282 175.3424,-107.4407"/>
</g>
<!-- take -->
<g id="node3" class="node">
<title>take</title>
<ellipse fill="none" stroke="#000000" cx="54.0564" cy="-18" rx="27" ry="18"/>
<text text-anchor="middle" x="54.0564" y="-13.8" font-family="Times,serif" font-size="14.00" fill="#000000">take</text>
</g>
<!-- direct object&#45;&#45;take -->
<g id="edge3" class="edge">
<title>direct object&#45;&#45;take</title>
<path fill="none" stroke="#000000" d="M54.0564,-71.8314C54.0564,-61 54.0564,-47.2876 54.0564,-36.4133"/>
</g>
<!-- is -->
<g id="node5" class="node">
<title>is</title>
<ellipse fill="none" stroke="#000000" cx="192.0564" cy="-18" rx="27" ry="18"/>
<text text-anchor="middle" x="192.0564" y="-13.8" font-family="Times,serif" font-size="14.00" fill="#000000">is</text>
</g>
<!-- nominal subject&#45;&#45;is -->
<g id="edge4" class="edge">
<title>nominal subject&#45;&#45;is</title>
<path fill="none" stroke="#000000" d="M192.0564,-71.8314C192.0564,-61 192.0564,-47.2876 192.0564,-36.4133"/>
</g>
</g>
</svg>
