<?xml version="1.0" encoding="UTF-8" standalone="no"?>
<!DOCTYPE svg PUBLIC "-//W3C//DTD SVG 1.1//EN"
 "http://www.w3.org/Graphics/SVG/1.1/DTD/svg11.dtd">
<!-- Generated by graphviz version 2.40.1 (20161225.0304)
 -->
<!-- Title: %3 Pages: 1 -->
<svg width="2692pt" height="2925pt"
 viewBox="0.00 0.00 2692.12 2924.73" xmlns="http://www.w3.org/2000/svg" xmlns:xlink="http://www.w3.org/1999/xlink">
<g id="graph0" class="graph" transform="scale(1 1) rotate(0) translate(4 2920.7273)">
<title>%3</title>
<polygon fill="#ffffff" stroke="transparent" points="-4,4 -4,-2920.7273 2688.1222,-2920.7273 2688.1222,4 -4,4"/>
<!-- PRODUCT -->
<g id="node1" class="node">
<title>PRODUCT</title>
<ellipse fill="none" stroke="#000000" cx="1470.8307" cy="-1553.7954" rx="51.2673" ry="18"/>
<text text-anchor="middle" x="1470.8307" y="-1549.5954" font-family="Times,serif" font-size="14.00" fill="#000000">PRODUCT</text>
<text text-anchor="middle" x="1412.4472" y="-1574.5954" font-family="Times,serif" font-size="14.00" fill="#000000">12</text>
</g>
<!-- head g1 possession modifier -->
<g id="node2" class="node">
<title>head g1 possession modifier</title>
<ellipse fill="none" stroke="#000000" cx="1492.6652" cy="-1296.4262" rx="110.1589" ry="18"/>
<text text-anchor="middle" x="1492.6652" y="-1292.2262" font-family="Times,serif" font-size="14.00" fill="#000000">head g1 possession modifier</text>
</g>
<!-- PRODUCT&#45;&gt;head g1 possession modifier -->
<g id="edge1" class="edge">
<title>PRODUCT&#45;&gt;head g1 possession modifier</title>
<path fill="none" stroke="#000000" d="M1472.3661,-1535.6977C1476.1167,-1491.4883 1485.7668,-1377.7398 1490.2763,-1324.5847"/>
<polygon fill="#000000" stroke="#000000" points="1493.7736,-1324.764 1491.1315,-1314.5039 1486.7986,-1324.1722 1493.7736,-1324.764"/>
<text text-anchor="middle" x="1468.5503" y="-1427.7192" font-family="Times,serif" font-size="14.00" fill="#000000">head</text>
</g>
<!-- child g1 determiner -->
<g id="node4" class="node">
<title>child g1 determiner</title>
<ellipse fill="none" stroke="#000000" cx="2059.14" cy="-1673.948" rx="79.2126" ry="18"/>
<text text-anchor="middle" x="2059.14" y="-1669.748" font-family="Times,serif" font-size="14.00" fill="#000000">child g1 determiner</text>
</g>
<!-- PRODUCT&#45;&gt;child g1 determiner -->
<g id="edge2" class="edge">
<title>PRODUCT&#45;&gt;child g1 determiner</title>
<path fill="none" stroke="#000000" d="M1515.5324,-1562.925C1617.5106,-1583.7524 1867.9206,-1634.8945 1989.9898,-1659.8252"/>
<polygon fill="#000000" stroke="#000000" points="1989.4762,-1663.2924 1999.9744,-1661.8643 1990.877,-1656.434 1989.4762,-1663.2924"/>
<text text-anchor="middle" x="1743.4533" y="-1615.1327" font-family="Times,serif" font-size="14.00" fill="#000000">child</text>
</g>
<!-- child g1 case -->
<g id="node6" class="node">
<title>child g1 case</title>
<ellipse fill="none" stroke="#000000" cx="1120.0131" cy="-1868.6356" rx="56.0441" ry="18"/>
<text text-anchor="middle" x="1120.0131" y="-1864.4356" font-family="Times,serif" font-size="14.00" fill="#000000">child g1 case</text>
</g>
<!-- PRODUCT&#45;&gt;child g1 case -->
<g id="edge3" class="edge">
<title>PRODUCT&#45;&gt;child g1 case</title>
<path fill="none" stroke="#000000" d="M1451.9692,-1570.7226C1393.4352,-1623.2538 1214.7404,-1783.6228 1146.7012,-1844.6844"/>
<polygon fill="#000000" stroke="#000000" points="1144.0725,-1842.3407 1138.9678,-1851.6247 1148.7479,-1847.5504 1144.0725,-1842.3407"/>
<text text-anchor="middle" x="1281.4553" y="-1713.9886" font-family="Times,serif" font-size="14.00" fill="#000000">child</text>
</g>
<!-- head g1 head of prep phrase -->
<g id="node13" class="node">
<title>head g1 head of prep phrase</title>
<ellipse fill="none" stroke="#000000" cx="1249.758" cy="-1293.4485" rx="109.6053" ry="18"/>
<text text-anchor="middle" x="1249.758" y="-1289.2485" font-family="Times,serif" font-size="14.00" fill="#000000">head g1 head of prep phrase</text>
</g>
<!-- PRODUCT&#45;&gt;head g1 head of prep phrase -->
<g id="edge4" class="edge">
<title>PRODUCT&#45;&gt;head g1 head of prep phrase</title>
<path fill="none" stroke="#000000" d="M1455.9822,-1536.3091C1417.9377,-1491.5059 1316.8061,-1372.4079 1271.8424,-1319.4563"/>
<polygon fill="#000000" stroke="#000000" points="1274.2671,-1316.9045 1265.1265,-1311.5473 1268.9313,-1321.4354 1274.2671,-1316.9045"/>
<text text-anchor="middle" x="1347.4375" y="-1426.8425" font-family="Times,serif" font-size="14.00" fill="#000000">head</text>
</g>
<!-- head g1 direct object -->
<g id="node24" class="node">
<title>head g1 direct object</title>
<ellipse fill="none" stroke="#000000" cx="1399.403" cy="-1850.5204" rx="84.0308" ry="18"/>
<text text-anchor="middle" x="1399.403" y="-1846.3204" font-family="Times,serif" font-size="14.00" fill="#000000">head g1 direct object</text>
</g>
<!-- PRODUCT&#45;&gt;head g1 direct object -->
<g id="edge5" class="edge">
<title>PRODUCT&#45;&gt;head g1 direct object</title>
<path fill="none" stroke="#000000" d="M1466.4701,-1571.9102C1454.4407,-1621.8829 1420.7194,-1761.968 1406.1967,-1822.298"/>
<polygon fill="#000000" stroke="#000000" points="1402.7349,-1821.7242 1403.7973,-1832.2656 1409.5405,-1823.3625 1402.7349,-1821.7242"/>
<text text-anchor="middle" x="1421.987" y="-1704.6089" font-family="Times,serif" font-size="14.00" fill="#000000">head</text>
</g>
<!-- head g1 punctuation -->
<g id="node32" class="node">
<title>head g1 punctuation</title>
<ellipse fill="none" stroke="#000000" cx="1230.9803" cy="-1557.0218" rx="81.6354" ry="18"/>
<text text-anchor="middle" x="1230.9803" y="-1552.8218" font-family="Times,serif" font-size="14.00" fill="#000000">head g1 punctuation</text>
</g>
<!-- PRODUCT&#45;&gt;head g1 punctuation -->
<g id="edge6" class="edge">
<title>PRODUCT&#45;&gt;head g1 punctuation</title>
<path fill="none" stroke="#000000" d="M1419.3768,-1554.4876C1391.3094,-1554.8651 1355.7171,-1555.3439 1323.0451,-1555.7834"/>
<polygon fill="#000000" stroke="#000000" points="1322.9628,-1552.2841 1313.0108,-1555.9184 1323.057,-1559.2834 1322.9628,-1552.2841"/>
<text text-anchor="middle" x="1352.7363" y="-1558.0062" font-family="Times,serif" font-size="14.00" fill="#000000">head</text>
</g>
<!-- head g1 appositional modifier -->
<g id="node35" class="node">
<title>head g1 appositional modifier</title>
<ellipse fill="none" stroke="#000000" cx="1687.3194" cy="-1789.0976" rx="115.4455" ry="18"/>
<text text-anchor="middle" x="1687.3194" y="-1784.8976" font-family="Times,serif" font-size="14.00" fill="#000000">head g1 appositional modifier</text>
</g>
<!-- PRODUCT&#45;&gt;head g1 appositional modifier -->
<g id="edge7" class="edge">
<title>PRODUCT&#45;&gt;head g1 appositional modifier</title>
<path fill="none" stroke="#000000" d="M1486.7496,-1571.0978C1524.4888,-1612.1165 1619.538,-1715.4258 1663.8722,-1763.6127"/>
<polygon fill="#000000" stroke="#000000" points="1661.4398,-1766.1383 1670.7863,-1771.1277 1666.5912,-1761.3988 1661.4398,-1766.1383"/>
<text text-anchor="middle" x="1565.61" y="-1673.9735" font-family="Times,serif" font-size="14.00" fill="#000000">head</text>
</g>
<!-- headleaf port -->
<g id="node3" class="node">
<title>headleaf port</title>
<ellipse fill="none" stroke="#000000" cx="2068.1416" cy="-1235.762" rx="56.5182" ry="18"/>
<text text-anchor="middle" x="2068.1416" y="-1231.562" font-family="Times,serif" font-size="14.00" fill="#000000">headleaf port</text>
</g>
<!-- head g1 possession modifier&#45;&gt;headleaf port -->
<g id="edge8" class="edge">
<title>head g1 possession modifier&#45;&gt;headleaf port</title>
<path fill="none" stroke="#000000" d="M1585.445,-1286.6457C1703.0106,-1274.2525 1902.5561,-1253.2173 2004.3289,-1242.4889"/>
<polygon fill="#000000" stroke="#000000" points="2004.8834,-1245.9499 2014.4613,-1241.4208 2004.1495,-1238.9885 2004.8834,-1245.9499"/>
</g>
<!-- headleaf hull -->
<g id="node10" class="node">
<title>headleaf hull</title>
<ellipse fill="none" stroke="#000000" cx="1168.9911" cy="-646.3756" rx="56.0423" ry="18"/>
<text text-anchor="middle" x="1168.9911" y="-642.1756" font-family="Times,serif" font-size="14.00" fill="#000000">headleaf hull</text>
</g>
<!-- head g1 possession modifier&#45;&gt;headleaf hull -->
<g id="edge9" class="edge">
<title>head g1 possession modifier&#45;&gt;headleaf hull</title>
<path fill="none" stroke="#000000" d="M1477.3273,-1278.5041C1441.2636,-1235.6138 1350.0148,-1122.6274 1295.3592,-1015.291 1233.9396,-894.6709 1191.3785,-737.4386 1175.6819,-674.3534"/>
<polygon fill="#000000" stroke="#000000" points="1179.0151,-673.2506 1173.229,-664.3753 1172.2175,-674.9217 1179.0151,-673.2506"/>
</g>
<!-- head g2 head of prep phrase -->
<g id="node8" class="node">
<title>head g2 head of prep phrase</title>
<ellipse fill="none" stroke="#000000" cx="2024.2379" cy="-732.9869" rx="109.6053" ry="18"/>
<text text-anchor="middle" x="2024.2379" y="-728.7869" font-family="Times,serif" font-size="14.00" fill="#000000">head g2 head of prep phrase</text>
</g>
<!-- headleaf port&#45;&gt;head g2 head of prep phrase -->
<g id="edge10" class="edge">
<title>headleaf port&#45;&gt;head g2 head of prep phrase</title>
<path fill="none" stroke="#000000" d="M2066.5531,-1217.571C2059.9646,-1142.1201 2034.7567,-853.4454 2026.7172,-761.379"/>
<polygon fill="#000000" stroke="#000000" points="2030.181,-760.8111 2025.8243,-751.1536 2023.2076,-761.4201 2030.181,-760.8111"/>
<text text-anchor="middle" x="2032.9644" y="-987.0422" font-family="Times,serif" font-size="14.00" fill="#000000">head</text>
</g>
<!-- childleaf the -->
<g id="node5" class="node">
<title>childleaf the</title>
<ellipse fill="none" stroke="#000000" cx="2627.4134" cy="-1478.1302" rx="54.1129" ry="18"/>
<text text-anchor="middle" x="2627.4134" y="-1473.9302" font-family="Times,serif" font-size="14.00" fill="#000000">childleaf the</text>
</g>
<!-- child g1 determiner&#45;&gt;childleaf the -->
<g id="edge11" class="edge">
<title>child g1 determiner&#45;&gt;childleaf the</title>
<path fill="none" stroke="#000000" d="M2102.7879,-1658.9076C2207.3807,-1622.8666 2471.6706,-1531.7967 2579.9925,-1494.4707"/>
<polygon fill="#000000" stroke="#000000" points="2581.3576,-1497.7024 2589.6718,-1491.1354 2579.0771,-1491.0842 2581.3576,-1497.7024"/>
</g>
<!-- childleaf The -->
<g id="node37" class="node">
<title>childleaf The</title>
<ellipse fill="none" stroke="#000000" cx="2601.473" cy="-2047.8012" rx="56.6923" ry="18"/>
<text text-anchor="middle" x="2601.473" y="-2043.6012" font-family="Times,serif" font-size="14.00" fill="#000000">childleaf The</text>
</g>
<!-- child g1 determiner&#45;&gt;childleaf The -->
<g id="edge12" class="edge">
<title>child g1 determiner&#45;&gt;childleaf The</title>
<path fill="none" stroke="#000000" d="M2084.2102,-1691.2299C2172.6805,-1752.2163 2470.2633,-1957.3527 2569.1907,-2025.5476"/>
<polygon fill="#000000" stroke="#000000" points="2567.3741,-2028.5463 2577.5939,-2031.3403 2571.347,-2022.783 2567.3741,-2028.5463"/>
</g>
<!-- childleaf &#39;s -->
<g id="node7" class="node">
<title>childleaf &#39;s</title>
<ellipse fill="none" stroke="#000000" cx="1133.8926" cy="-2255.5955" rx="48.0758" ry="18"/>
<text text-anchor="middle" x="1133.8926" y="-2251.3955" font-family="Times,serif" font-size="14.00" fill="#000000">childleaf &#39;s</text>
</g>
<!-- child g1 case&#45;&gt;childleaf &#39;s -->
<g id="edge13" class="edge">
<title>child g1 case&#45;&gt;childleaf &#39;s</title>
<path fill="none" stroke="#000000" d="M1120.6639,-1886.7805C1122.886,-1948.7317 1130.1839,-2152.1992 1132.8799,-2227.3632"/>
<polygon fill="#000000" stroke="#000000" points="1129.3869,-2227.6218 1133.2432,-2237.4899 1136.3824,-2227.3709 1129.3869,-2227.6218"/>
</g>
<!-- headleaf go -->
<g id="node9" class="node">
<title>headleaf go</title>
<ellipse fill="none" stroke="#000000" cx="1907.771" cy="-23.9937" rx="51.2146" ry="18"/>
<text text-anchor="middle" x="1907.771" y="-19.7937" font-family="Times,serif" font-size="14.00" fill="#000000">headleaf go</text>
</g>
<!-- head g2 head of prep phrase&#45;&gt;headleaf go -->
<g id="edge14" class="edge">
<title>head g2 head of prep phrase&#45;&gt;headleaf go</title>
<path fill="none" stroke="#000000" d="M2021.2419,-714.7487C2005.4285,-618.4844 1931.6662,-169.4563 1912.3898,-52.1109"/>
<polygon fill="#000000" stroke="#000000" points="1915.8219,-51.4118 1910.7472,-42.1114 1908.9145,-52.5465 1915.8219,-51.4118"/>
</g>
<!-- headleaf responsible -->
<g id="node23" class="node">
<title>headleaf responsible</title>
<ellipse fill="none" stroke="#000000" cx="2582.3552" cy="-103.04" rx="82.5859" ry="18"/>
<text text-anchor="middle" x="2582.3552" y="-98.84" font-family="Times,serif" font-size="14.00" fill="#000000">headleaf responsible</text>
</g>
<!-- head g2 head of prep phrase&#45;&gt;headleaf responsible -->
<g id="edge15" class="edge">
<title>head g2 head of prep phrase&#45;&gt;headleaf responsible</title>
<path fill="none" stroke="#000000" d="M2040.0423,-715.1486C2118.7077,-626.3589 2467.9199,-232.2032 2560.0231,-128.2463"/>
<polygon fill="#000000" stroke="#000000" points="2562.6769,-130.5288 2566.6887,-120.7228 2557.4375,-125.8867 2562.6769,-130.5288"/>
</g>
<!-- head g2 direct object -->
<g id="node11" class="node">
<title>head g2 direct object</title>
<ellipse fill="none" stroke="#000000" cx="712.4681" cy="-706.3045" rx="84.0308" ry="18"/>
<text text-anchor="middle" x="712.4681" y="-702.1045" font-family="Times,serif" font-size="14.00" fill="#000000">head g2 direct object</text>
</g>
<!-- headleaf hull&#45;&gt;head g2 direct object -->
<g id="edge16" class="edge">
<title>headleaf hull&#45;&gt;head g2 direct object</title>
<path fill="none" stroke="#000000" d="M1117.0666,-653.1919C1038.26,-663.537 887.7542,-683.2943 794.1787,-695.5782"/>
<polygon fill="#000000" stroke="#000000" points="793.6421,-692.1185 784.1828,-696.8904 794.5533,-699.0589 793.6421,-692.1185"/>
<text text-anchor="middle" x="937.5296" y="-677.8255" font-family="Times,serif" font-size="14.00" fill="#000000">head</text>
</g>
<!-- headleaf ripped -->
<g id="node12" class="node">
<title>headleaf ripped</title>
<ellipse fill="none" stroke="#000000" cx="850.2585" cy="-19.9406" rx="64.7123" ry="18"/>
<text text-anchor="middle" x="850.2585" y="-15.7406" font-family="Times,serif" font-size="14.00" fill="#000000">headleaf ripped</text>
</g>
<!-- head g2 direct object&#45;&gt;headleaf ripped -->
<g id="edge17" class="edge">
<title>head g2 direct object&#45;&gt;headleaf ripped</title>
<path fill="none" stroke="#000000" d="M716.0829,-688.2988C734.8815,-594.6588 821.4908,-163.2388 844.5857,-48.1982"/>
<polygon fill="#000000" stroke="#000000" points="848.0812,-48.5682 846.618,-38.0749 841.2181,-47.1903 848.0812,-48.5682"/>
</g>
<!-- headleaf have -->
<g id="node31" class="node">
<title>headleaf have</title>
<ellipse fill="none" stroke="#000000" cx="95.3918" cy="-857.9023" rx="58.915" ry="18"/>
<text text-anchor="middle" x="95.3918" y="-853.7023" font-family="Times,serif" font-size="14.00" fill="#000000">headleaf have</text>
</g>
<!-- head g2 direct object&#45;&gt;headleaf have -->
<g id="edge18" class="edge">
<title>head g2 direct object&#45;&gt;headleaf have</title>
<path fill="none" stroke="#000000" d="M657.1637,-719.8912C540.173,-748.6325 268.7495,-815.3134 151.2624,-844.1765"/>
<polygon fill="#000000" stroke="#000000" points="150.2658,-840.8172 141.3896,-846.602 151.9359,-847.6151 150.2658,-840.8172"/>
</g>
<!-- headleaf attacked -->
<g id="node34" class="node">
<title>headleaf attacked</title>
<ellipse fill="none" stroke="#000000" cx="147.5733" cy="-83.6404" rx="71.9442" ry="18"/>
<text text-anchor="middle" x="147.5733" y="-79.4404" font-family="Times,serif" font-size="14.00" fill="#000000">headleaf attacked</text>
</g>
<!-- head g2 direct object&#45;&gt;headleaf attacked -->
<g id="edge19" class="edge">
<title>head g2 direct object&#45;&gt;headleaf attacked</title>
<path fill="none" stroke="#000000" d="M696.1711,-688.3409C616.04,-600.0151 263.9379,-211.9051 170.4374,-108.8427"/>
<polygon fill="#000000" stroke="#000000" points="172.977,-106.433 163.6656,-101.3784 167.7926,-111.1365 172.977,-106.433"/>
</g>
<!-- headleaf begin -->
<g id="node14" class="node">
<title>headleaf begin</title>
<ellipse fill="none" stroke="#000000" cx="1737.817" cy="-1439.1085" rx="61.8222" ry="18"/>
<text text-anchor="middle" x="1737.817" y="-1434.9085" font-family="Times,serif" font-size="14.00" fill="#000000">headleaf begin</text>
</g>
<!-- head g1 head of prep phrase&#45;&gt;headleaf begin -->
<g id="edge20" class="edge">
<title>head g1 head of prep phrase&#45;&gt;headleaf begin</title>
<path fill="none" stroke="#000000" d="M1302.9179,-1309.314C1396.7178,-1337.3083 1590.5457,-1395.1558 1684.4749,-1423.1887"/>
<polygon fill="#000000" stroke="#000000" points="1683.7516,-1426.6253 1694.3349,-1426.1314 1685.7535,-1419.9176 1683.7516,-1426.6253"/>
</g>
<!-- headleaf heroics -->
<g id="node16" class="node">
<title>headleaf heroics</title>
<ellipse fill="none" stroke="#000000" cx="1368.583" cy="-1015.4064" rx="67.6025" ry="18"/>
<text text-anchor="middle" x="1368.583" y="-1011.2064" font-family="Times,serif" font-size="14.00" fill="#000000">headleaf heroics</text>
</g>
<!-- head g1 head of prep phrase&#45;&gt;headleaf heroics -->
<g id="edge21" class="edge">
<title>head g1 head of prep phrase&#45;&gt;headleaf heroics</title>
<path fill="none" stroke="#000000" d="M1257.5544,-1275.2054C1277.914,-1227.5654 1332.7701,-1099.206 1356.9103,-1042.7195"/>
<polygon fill="#000000" stroke="#000000" points="1360.2008,-1043.9261 1360.9123,-1033.3552 1353.764,-1041.1752 1360.2008,-1043.9261"/>
</g>
<!-- headleaf died -->
<g id="node19" class="node">
<title>headleaf died</title>
<ellipse fill="none" stroke="#000000" cx="955.8006" cy="-1677.8054" rx="57.4786" ry="18"/>
<text text-anchor="middle" x="955.8006" y="-1673.6054" font-family="Times,serif" font-size="14.00" fill="#000000">headleaf died</text>
</g>
<!-- head g1 head of prep phrase&#45;&gt;headleaf died -->
<g id="edge22" class="edge">
<title>head g1 head of prep phrase&#45;&gt;headleaf died</title>
<path fill="none" stroke="#000000" d="M1235.9741,-1311.4713C1188.4174,-1373.6528 1031.0843,-1579.37 975.479,-1652.0754"/>
<polygon fill="#000000" stroke="#000000" points="972.5113,-1650.1944 969.2164,-1660.2639 978.0715,-1654.447 972.5113,-1650.1944"/>
</g>
<!-- headleaf bombing -->
<g id="node22" class="node">
<title>headleaf bombing</title>
<ellipse fill="none" stroke="#000000" cx="1699.271" cy="-1075.8147" rx="73.9168" ry="18"/>
<text text-anchor="middle" x="1699.271" y="-1071.6147" font-family="Times,serif" font-size="14.00" fill="#000000">headleaf bombing</text>
</g>
<!-- head g1 head of prep phrase&#45;&gt;headleaf bombing -->
<g id="edge23" class="edge">
<title>head g1 head of prep phrase&#45;&gt;headleaf bombing</title>
<path fill="none" stroke="#000000" d="M1285.0305,-1276.3712C1366.7051,-1236.828 1568.5575,-1139.1003 1656.8164,-1096.3693"/>
<polygon fill="#000000" stroke="#000000" points="1658.525,-1099.4308 1666.0004,-1091.9228 1655.4746,-1093.1303 1658.525,-1099.4308"/>
</g>
<!-- headleaf report -->
<g id="node30" class="node">
<title>headleaf report</title>
<ellipse fill="none" stroke="#000000" cx="1034.5888" cy="-1052.8477" rx="63.2586" ry="18"/>
<text text-anchor="middle" x="1034.5888" y="-1048.6477" font-family="Times,serif" font-size="14.00" fill="#000000">headleaf report</text>
</g>
<!-- head g1 head of prep phrase&#45;&gt;headleaf report -->
<g id="edge24" class="edge">
<title>head g1 head of prep phrase&#45;&gt;headleaf report</title>
<path fill="none" stroke="#000000" d="M1233.5853,-1275.3644C1195.6273,-1232.9199 1100.7526,-1126.8316 1057.1509,-1078.0765"/>
<polygon fill="#000000" stroke="#000000" points="1059.6394,-1075.6087 1050.3643,-1070.4878 1054.4216,-1080.275 1059.6394,-1075.6087"/>
</g>
<!-- headleaf used -->
<g id="node40" class="node">
<title>headleaf used</title>
<ellipse fill="none" stroke="#000000" cx="977.1717" cy="-1377.8664" rx="58.4477" ry="18"/>
<text text-anchor="middle" x="977.1717" y="-1373.6664" font-family="Times,serif" font-size="14.00" fill="#000000">headleaf used</text>
</g>
<!-- head g1 head of prep phrase&#45;&gt;headleaf used -->
<g id="edge25" class="edge">
<title>head g1 head of prep phrase&#45;&gt;headleaf used</title>
<path fill="none" stroke="#000000" d="M1198.1661,-1309.4261C1149.5037,-1324.4965 1076.9742,-1346.9583 1028.4234,-1361.9941"/>
<polygon fill="#000000" stroke="#000000" points="1027.263,-1358.6894 1018.746,-1364.9911 1029.3338,-1365.3761 1027.263,-1358.6894"/>
</g>
<!-- head g2 ROOT -->
<g id="node15" class="node">
<title>head g2 ROOT</title>
<ellipse fill="none" stroke="#000000" cx="2619.983" cy="-897.916" rx="64.2787" ry="18"/>
<text text-anchor="middle" x="2619.983" y="-893.716" font-family="Times,serif" font-size="14.00" fill="#000000">head g2 ROOT</text>
</g>
<!-- headleaf begin&#45;&gt;head g2 ROOT -->
<g id="edge26" class="edge">
<title>headleaf begin&#45;&gt;head g2 ROOT</title>
<path fill="none" stroke="#000000" d="M1771.3285,-1423.9564C1837.6777,-1393.5545 1989.8418,-1321.8195 2111.1501,-1249.5546 2299.4678,-1137.3714 2510.9935,-980.5117 2588.976,-921.5553"/>
<polygon fill="#000000" stroke="#000000" points="2591.5303,-924.0113 2597.3882,-915.1833 2587.3036,-918.4314 2591.5303,-924.0113"/>
<text text-anchor="middle" x="2186.7502" y="-1197.3997" font-family="Times,serif" font-size="14.00" fill="#000000">head</text>
</g>
<!-- head g2 ROOT&#45;&gt;headleaf begin -->
<g id="edge27" class="edge">
<title>head g2 ROOT&#45;&gt;headleaf begin</title>
<path fill="none" stroke="#000000" d="M2597.3882,-915.1833C2527.3322,-968.3548 2306.7254,-1133.0479 2111.1501,-1249.5546 1995.2912,-1318.5732 1851.2865,-1387.1084 1780.779,-1419.6127"/>
<polygon fill="#000000" stroke="#000000" points="1778.953,-1416.6 1771.3285,-1423.9564 1781.8764,-1422.9603 1778.953,-1416.6"/>
</g>
<!-- head g2 conjunct -->
<g id="node17" class="node">
<title>head g2 conjunct</title>
<ellipse fill="none" stroke="#000000" cx="1580.7045" cy="-652.8552" rx="70.534" ry="18"/>
<text text-anchor="middle" x="1580.7045" y="-648.6552" font-family="Times,serif" font-size="14.00" fill="#000000">head g2 conjunct</text>
</g>
<!-- headleaf heroics&#45;&gt;head g2 conjunct -->
<g id="edge28" class="edge">
<title>headleaf heroics&#45;&gt;head g2 conjunct</title>
<path fill="none" stroke="#000000" d="M1379.1021,-997.4274C1413.6643,-938.3548 1523.8634,-750.0061 1565.0103,-679.6792"/>
<polygon fill="#000000" stroke="#000000" points="1568.0928,-681.3414 1570.1218,-670.9427 1562.0509,-677.8064 1568.0928,-681.3414"/>
<text text-anchor="middle" x="1461.3645" y="-837.0424" font-family="Times,serif" font-size="14.00" fill="#000000">head</text>
</g>
<!-- headleaf horror -->
<g id="node18" class="node">
<title>headleaf horror</title>
<ellipse fill="none" stroke="#000000" cx="1381.9589" cy="-18" rx="64.2277" ry="18"/>
<text text-anchor="middle" x="1381.9589" y="-13.8" font-family="Times,serif" font-size="14.00" fill="#000000">headleaf horror</text>
</g>
<!-- head g2 conjunct&#45;&gt;headleaf horror -->
<g id="edge29" class="edge">
<title>head g2 conjunct&#45;&gt;headleaf horror</title>
<path fill="none" stroke="#000000" d="M1575.0765,-634.8778C1547.2628,-546.032 1424.4714,-153.7981 1390.6242,-45.6796"/>
<polygon fill="#000000" stroke="#000000" points="1393.9603,-44.6208 1387.6325,-36.1232 1387.28,-46.7122 1393.9603,-44.6208"/>
</g>
<!-- head g2 relcl -->
<g id="node20" class="node">
<title>head g2 relcl</title>
<ellipse fill="none" stroke="#000000" cx="623.6283" cy="-1637.6008" rx="55.551" ry="18"/>
<text text-anchor="middle" x="623.6283" y="-1633.4008" font-family="Times,serif" font-size="14.00" fill="#000000">head g2 relcl</text>
</g>
<!-- headleaf died&#45;&gt;head g2 relcl -->
<g id="edge30" class="edge">
<title>headleaf died&#45;&gt;head g2 relcl</title>
<path fill="none" stroke="#000000" d="M902.0622,-1671.3011C843.0115,-1664.1539 748.2912,-1652.6894 686.0081,-1645.1509"/>
<polygon fill="#000000" stroke="#000000" points="686.2677,-1641.6569 675.9195,-1643.9299 685.4265,-1648.6062 686.2677,-1641.6569"/>
<text text-anchor="middle" x="775.6579" y="-1660.4011" font-family="Times,serif" font-size="14.00" fill="#000000">head</text>
</g>
<!-- headleaf sailors -->
<g id="node21" class="node">
<title>headleaf sailors</title>
<ellipse fill="none" stroke="#000000" cx="93.7755" cy="-2025.5149" rx="65.2055" ry="18"/>
<text text-anchor="middle" x="93.7755" y="-2021.3149" font-family="Times,serif" font-size="14.00" fill="#000000">headleaf sailors</text>
</g>
<!-- head g2 relcl&#45;&gt;headleaf sailors -->
<g id="edge31" class="edge">
<title>head g2 relcl&#45;&gt;headleaf sailors</title>
<path fill="none" stroke="#000000" d="M600.8611,-1654.2689C516.6437,-1715.9259 222.6223,-1931.1839 125.3162,-2002.4234"/>
<polygon fill="#000000" stroke="#000000" points="123.0557,-1999.7405 117.0545,-2008.4719 127.1908,-2005.3887 123.0557,-1999.7405"/>
</g>
<!-- headleaf Fitzgerald -->
<g id="node26" class="node">
<title>headleaf Fitzgerald</title>
<ellipse fill="none" stroke="#000000" cx="78.1169" cy="-1438.0898" rx="78.2339" ry="18"/>
<text text-anchor="middle" x="78.1169" y="-1433.8898" font-family="Times,serif" font-size="14.00" fill="#000000">headleaf Fitzgerald</text>
</g>
<!-- head g2 relcl&#45;&gt;headleaf Fitzgerald -->
<g id="edge32" class="edge">
<title>head g2 relcl&#45;&gt;headleaf Fitzgerald</title>
<path fill="none" stroke="#000000" d="M586.5619,-1624.0444C491.4716,-1589.2668 238.699,-1496.8198 129.5233,-1456.8908"/>
<polygon fill="#000000" stroke="#000000" points="130.6327,-1453.5698 120.0389,-1453.422 128.2283,-1460.1439 130.6327,-1453.5698"/>
</g>
<!-- headleaf explosives -->
<g id="node41" class="node">
<title>headleaf explosives</title>
<ellipse fill="none" stroke="#000000" cx="145.0712" cy="-2810.5939" rx="79.6961" ry="18"/>
<text text-anchor="middle" x="145.0712" y="-2806.3939" font-family="Times,serif" font-size="14.00" fill="#000000">headleaf explosives</text>
</g>
<!-- head g2 relcl&#45;&gt;headleaf explosives -->
<g id="edge33" class="edge">
<title>head g2 relcl&#45;&gt;headleaf explosives</title>
<path fill="none" stroke="#000000" d="M616.3028,-1655.5563C561.994,-1788.6728 222.2528,-2621.4137 156.1937,-2783.3314"/>
<polygon fill="#000000" stroke="#000000" points="152.9464,-2782.0257 152.4095,-2792.6069 159.4278,-2784.67 152.9464,-2782.0257"/>
</g>
<!-- headleaf bombing&#45;&gt;head g2 head of prep phrase -->
<g id="edge34" class="edge">
<title>headleaf bombing&#45;&gt;head g2 head of prep phrase</title>
<path fill="none" stroke="#000000" d="M1716.2851,-1057.8655C1770.1217,-1001.07 1936.9048,-825.1201 1999.8529,-758.7122"/>
<polygon fill="#000000" stroke="#000000" points="2002.6609,-760.8375 2007.0002,-751.1721 1997.5805,-756.0219 2002.6609,-760.8375"/>
<text text-anchor="middle" x="1848.369" y="-907.3819" font-family="Times,serif" font-size="14.00" fill="#000000">head</text>
</g>
<!-- headleaf visited -->
<g id="node25" class="node">
<title>headleaf visited</title>
<ellipse fill="none" stroke="#000000" cx="700.8633" cy="-2139.4659" rx="65.69" ry="18"/>
<text text-anchor="middle" x="700.8633" y="-2135.2659" font-family="Times,serif" font-size="14.00" fill="#000000">headleaf visited</text>
</g>
<!-- head g1 direct object&#45;&gt;headleaf visited -->
<g id="edge35" class="edge">
<title>head g1 direct object&#45;&gt;headleaf visited</title>
<path fill="none" stroke="#000000" d="M1360.6009,-1866.5705C1240.6217,-1916.199 875.9569,-2067.0398 746.8052,-2120.4624"/>
<polygon fill="#000000" stroke="#000000" points="745.462,-2117.2304 737.5591,-2124.287 748.1376,-2123.6988 745.462,-2117.2304"/>
</g>
<!-- headleaf rocked -->
<g id="node27" class="node">
<title>headleaf rocked</title>
<ellipse fill="none" stroke="#000000" cx="1979.7212" cy="-2157.1514" rx="66.1488" ry="18"/>
<text text-anchor="middle" x="1979.7212" y="-2152.9514" font-family="Times,serif" font-size="14.00" fill="#000000">headleaf rocked</text>
</g>
<!-- head g1 direct object&#45;&gt;headleaf rocked -->
<g id="edge36" class="edge">
<title>head g1 direct object&#45;&gt;headleaf rocked</title>
<path fill="none" stroke="#000000" d="M1431.0156,-1867.2239C1529.61,-1919.3197 1831.3752,-2078.7677 1940.1294,-2136.2317"/>
<polygon fill="#000000" stroke="#000000" points="1938.6601,-2139.4139 1949.1369,-2140.9912 1941.9304,-2133.2247 1938.6601,-2139.4139"/>
</g>
<!-- headleaf visited&#45;&gt;head g2 relcl -->
<g id="edge37" class="edge">
<title>headleaf visited&#45;&gt;head g2 relcl</title>
<path fill="none" stroke="#000000" d="M698.0689,-2121.3078C686.4665,-2045.9169 642.0426,-1757.2553 627.9468,-1665.6618"/>
<polygon fill="#000000" stroke="#000000" points="631.3994,-1665.0857 626.419,-1655.7345 624.4808,-1666.1505 631.3994,-1665.0857"/>
<text text-anchor="middle" x="648.9662" y="-1890.906" font-family="Times,serif" font-size="14.00" fill="#000000">head</text>
</g>
<!-- head g2 clausal complement -->
<g id="node28" class="node">
<title>head g2 clausal complement</title>
<ellipse fill="none" stroke="#000000" cx="1891.6375" cy="-2852.9474" rx="110.583" ry="18"/>
<text text-anchor="middle" x="1891.6375" y="-2848.7474" font-family="Times,serif" font-size="14.00" fill="#000000">head g2 clausal complement</text>
</g>
<!-- headleaf rocked&#45;&gt;head g2 clausal complement -->
<g id="edge38" class="edge">
<title>headleaf rocked&#45;&gt;head g2 clausal complement</title>
<path fill="none" stroke="#000000" d="M1977.4105,-2175.4047C1965.3801,-2270.4353 1909.9063,-2708.6374 1895.2155,-2824.6831"/>
<polygon fill="#000000" stroke="#000000" points="1891.7077,-2824.5249 1893.924,-2834.8853 1898.6523,-2825.4041 1891.7077,-2824.5249"/>
<text text-anchor="middle" x="1922.4324" y="-2508.1108" font-family="Times,serif" font-size="14.00" fill="#000000">head</text>
</g>
<!-- headleaf said -->
<g id="node29" class="node">
<title>headleaf said</title>
<ellipse fill="none" stroke="#000000" cx="2568.1246" cy="-2816.4272" rx="56.5182" ry="18"/>
<text text-anchor="middle" x="2568.1246" y="-2812.2272" font-family="Times,serif" font-size="14.00" fill="#000000">headleaf said</text>
</g>
<!-- head g2 clausal complement&#45;&gt;headleaf said -->
<g id="edge39" class="edge">
<title>head g2 clausal complement&#45;&gt;headleaf said</title>
<path fill="none" stroke="#000000" d="M1996.5963,-2847.2812C2137.6326,-2839.6673 2384.1736,-2826.3578 2501.8971,-2820.0025"/>
<polygon fill="#000000" stroke="#000000" points="2502.401,-2823.4804 2512.1977,-2819.4464 2502.0236,-2816.4906 2502.401,-2823.4804"/>
</g>
<!-- headleaf report&#45;&gt;head g2 direct object -->
<g id="edge40" class="edge">
<title>headleaf report&#45;&gt;head g2 direct object</title>
<path fill="none" stroke="#000000" d="M1018.1719,-1035.1861C965.1964,-978.1941 798.6196,-798.9878 736.3059,-731.9497"/>
<polygon fill="#000000" stroke="#000000" points="738.6101,-729.2876 729.2382,-724.3461 733.4829,-734.0535 738.6101,-729.2876"/>
<text text-anchor="middle" x="860.6254" y="-882.7105" font-family="Times,serif" font-size="14.00" fill="#000000">head</text>
</g>
<!-- headleaf Cole -->
<g id="node33" class="node">
<title>headleaf Cole</title>
<ellipse fill="none" stroke="#000000" cx="644.7163" cy="-1195.5852" rx="58.9322" ry="18"/>
<text text-anchor="middle" x="644.7163" y="-1191.3852" font-family="Times,serif" font-size="14.00" fill="#000000">headleaf Cole</text>
</g>
<!-- head g1 punctuation&#45;&gt;headleaf Cole -->
<g id="edge41" class="edge">
<title>head g1 punctuation&#45;&gt;headleaf Cole</title>
<path fill="none" stroke="#000000" d="M1198.5867,-1540.3377C1143.1416,-1511.5037 1026.8706,-1449.8231 932.2029,-1391.5152 836.4763,-1332.5552 727.9684,-1255.7516 675.8741,-1218.2232"/>
<polygon fill="#000000" stroke="#000000" points="677.8671,-1215.3453 667.7102,-1212.3306 673.7703,-1221.0213 677.8671,-1215.3453"/>
</g>
<!-- headleaf Cole&#45;&gt;head g2 direct object -->
<g id="edge42" class="edge">
<title>headleaf Cole&#45;&gt;head g2 direct object</title>
<path fill="none" stroke="#000000" d="M647.208,-1177.5912C657.4168,-1103.8667 696.0947,-824.5478 708.5664,-734.4812"/>
<polygon fill="#000000" stroke="#000000" points="712.049,-734.8477 709.9538,-724.4622 705.1152,-733.8875 712.049,-734.8477"/>
<text text-anchor="middle" x="665.3643" y="-953.846" font-family="Times,serif" font-size="14.00" fill="#000000">head</text>
</g>
<!-- headleaf USS -->
<g id="node36" class="node">
<title>headleaf USS</title>
<ellipse fill="none" stroke="#000000" cx="1538.3981" cy="-2235.0878" rx="58.4736" ry="18"/>
<text text-anchor="middle" x="1538.3981" y="-2230.8878" font-family="Times,serif" font-size="14.00" fill="#000000">headleaf USS</text>
</g>
<!-- head g1 appositional modifier&#45;&gt;headleaf USS -->
<g id="edge43" class="edge">
<title>head g1 appositional modifier&#45;&gt;headleaf USS</title>
<path fill="none" stroke="#000000" d="M1681.297,-1807.1333C1658.2606,-1876.123 1575.6238,-2123.6038 1547.696,-2207.2422"/>
<polygon fill="#000000" stroke="#000000" points="1544.3428,-2206.2339 1544.4953,-2216.8277 1550.9824,-2208.451 1544.3428,-2206.2339"/>
</g>
<!-- head g2 noun phrase as adverbial modifier -->
<g id="node38" class="node">
<title>head g2 noun phrase as adverbial modifier</title>
<ellipse fill="none" stroke="#000000" cx="833.4306" cy="-2864.8031" rx="159.8207" ry="18"/>
<text text-anchor="middle" x="833.4306" y="-2860.6031" font-family="Times,serif" font-size="14.00" fill="#000000">head g2 noun phrase as adverbial modifier</text>
</g>
<!-- headleaf USS&#45;&gt;head g2 noun phrase as adverbial modifier -->
<g id="edge44" class="edge">
<title>headleaf USS&#45;&gt;head g2 noun phrase as adverbial modifier</title>
<path fill="none" stroke="#000000" d="M1519.1763,-2252.2578C1421.23,-2339.7487 977.7644,-2735.8763 861.4403,-2839.7832"/>
<polygon fill="#000000" stroke="#000000" points="858.7659,-2837.4792 853.6396,-2846.7513 863.4292,-2842.6997 858.7659,-2837.4792"/>
<text text-anchor="middle" x="1173.0945" y="-2552.3935" font-family="Times,serif" font-size="14.00" fill="#000000">head</text>
</g>
<!-- headleaf be -->
<g id="node39" class="node">
<title>headleaf be</title>
<ellipse fill="none" stroke="#000000" cx="1370.4284" cy="-2898.7273" rx="50.7214" ry="18"/>
<text text-anchor="middle" x="1370.4284" y="-2894.5273" font-family="Times,serif" font-size="14.00" fill="#000000">headleaf be</text>
</g>
<!-- head g2 noun phrase as adverbial modifier&#45;&gt;headleaf be -->
<g id="edge45" class="edge">
<title>head g2 noun phrase as adverbial modifier&#45;&gt;headleaf be</title>
<path fill="none" stroke="#000000" d="M973.1186,-2873.6277C1082.4903,-2880.5372 1229.2332,-2889.8075 1310.2898,-2894.9281"/>
<polygon fill="#000000" stroke="#000000" points="1310.1208,-2898.4244 1320.3216,-2895.5619 1310.5622,-2891.4383 1310.1208,-2898.4244"/>
</g>
<!-- headleaf used&#45;&gt;head g2 relcl -->
<g id="edge46" class="edge">
<title>headleaf used&#45;&gt;head g2 relcl</title>
<path fill="none" stroke="#000000" d="M954.5181,-1394.509C893.2801,-1439.4982 724.365,-1563.5935 654.498,-1614.922"/>
<polygon fill="#000000" stroke="#000000" points="652.0799,-1612.3554 646.0931,-1621.0967 656.2243,-1617.9967 652.0799,-1612.3554"/>
<text text-anchor="middle" x="786.97" y="-1510.6923" font-family="Times,serif" font-size="14.00" fill="#000000">head</text>
</g>
</g>
</svg>
