<?xml version="1.0" encoding="UTF-8" standalone="no"?>
<!DOCTYPE svg PUBLIC "-//W3C//DTD SVG 1.1//EN"
 "http://www.w3.org/Graphics/SVG/1.1/DTD/svg11.dtd">
<!-- Generated by graphviz version 2.40.1 (20161225.0304)
 -->
<!-- Title: %3 Pages: 1 -->
<svg width="2039pt" height="188pt"
 viewBox="0.00 0.00 2039.33 188.00" xmlns="http://www.w3.org/2000/svg" xmlns:xlink="http://www.w3.org/1999/xlink">
<g id="graph0" class="graph" transform="scale(1 1) rotate(0) translate(4 184)">
<title>%3</title>
<polygon fill="#ffffff" stroke="transparent" points="-4,4 -4,-184 2035.3285,-184 2035.3285,4 -4,4"/>
<!-- PRODUCT -->
<g id="node1" class="node">
<title>PRODUCT</title>
<ellipse fill="none" stroke="#000000" cx="1450" cy="-162" rx="51.2673" ry="18"/>
<text text-anchor="middle" x="1450" y="-157.8" font-family="Times,serif" font-size="14.00" fill="#000000">PRODUCT</text>
</g>
<!-- possession modifier -->
<g id="node2" class="node">
<title>possession modifier</title>
<ellipse fill="none" stroke="#000000" cx="138" cy="-90" rx="80.2411" ry="18"/>
<text text-anchor="middle" x="138" y="-85.8" font-family="Times,serif" font-size="14.00" fill="#000000">possession modifier</text>
</g>
<!-- PRODUCT&#45;&#45;possession modifier -->
<g id="edge1" class="edge">
<title>PRODUCT&#45;&#45;possession modifier</title>
<path fill="none" stroke="#000000" d="M1398.9707,-159.1996C1197.8673,-148.1635 459.3007,-107.6324 216.174,-94.29"/>
</g>
<!-- head of prep phrase -->
<g id="node5" class="node">
<title>head of prep phrase</title>
<ellipse fill="none" stroke="#000000" cx="714" cy="-90" rx="79.6874" ry="18"/>
<text text-anchor="middle" x="714" y="-85.8" font-family="Times,serif" font-size="14.00" fill="#000000">head of prep phrase</text>
</g>
<!-- PRODUCT&#45;&#45;head of prep phrase -->
<g id="edge2" class="edge">
<title>PRODUCT&#45;&#45;head of prep phrase</title>
<path fill="none" stroke="#000000" d="M1400.2786,-157.136C1273.2883,-144.713 936.5184,-111.7681 787.1331,-97.1543"/>
</g>
<!-- direct object -->
<g id="node10" class="node">
<title>direct object</title>
<ellipse fill="none" stroke="#000000" cx="1249" cy="-90" rx="54.1129" ry="18"/>
<text text-anchor="middle" x="1249" y="-85.8" font-family="Times,serif" font-size="14.00" fill="#000000">direct object</text>
</g>
<!-- PRODUCT&#45;&#45;direct object -->
<g id="edge3" class="edge">
<title>PRODUCT&#45;&#45;direct object</title>
<path fill="none" stroke="#000000" d="M1414.0652,-149.1278C1377.931,-136.1842 1322.486,-116.3233 1285.9836,-103.2478"/>
</g>
<!-- punctuation -->
<g id="node14" class="node">
<title>punctuation</title>
<ellipse fill="none" stroke="#000000" cx="1373" cy="-90" rx="51.7174" ry="18"/>
<text text-anchor="middle" x="1373" y="-85.8" font-family="Times,serif" font-size="14.00" fill="#000000">punctuation</text>
</g>
<!-- PRODUCT&#45;&#45;punctuation -->
<g id="edge4" class="edge">
<title>PRODUCT&#45;&#45;punctuation</title>
<path fill="none" stroke="#000000" d="M1431.7521,-144.937C1419.4777,-133.4596 1403.3639,-118.3922 1391.1169,-106.9405"/>
</g>
<!-- appositional modifier -->
<g id="node16" class="node">
<title>appositional modifier</title>
<ellipse fill="none" stroke="#000000" cx="1528" cy="-90" rx="85.5276" ry="18"/>
<text text-anchor="middle" x="1528" y="-85.8" font-family="Times,serif" font-size="14.00" fill="#000000">appositional modifier</text>
</g>
<!-- PRODUCT&#45;&#45;appositional modifier -->
<g id="edge5" class="edge">
<title>PRODUCT&#45;&#45;appositional modifier</title>
<path fill="none" stroke="#000000" d="M1468.4849,-144.937C1480.6484,-133.7091 1496.5339,-119.0456 1508.8332,-107.6924"/>
</g>
<!-- nominal subject -->
<g id="node21" class="node">
<title>nominal subject</title>
<ellipse fill="none" stroke="#000000" cx="1698" cy="-90" rx="66.2004" ry="18"/>
<text text-anchor="middle" x="1698" y="-85.8" font-family="Times,serif" font-size="14.00" fill="#000000">nominal subject</text>
</g>
<!-- PRODUCT&#45;&#45;nominal subject -->
<g id="edge6" class="edge">
<title>PRODUCT&#45;&#45;nominal subject</title>
<path fill="none" stroke="#000000" d="M1489.5706,-150.5118C1534.015,-137.6085 1606.0178,-116.7045 1652.6848,-103.156"/>
</g>
<!-- nummod -->
<g id="node29" class="node">
<title>nummod</title>
<ellipse fill="none" stroke="#000000" cx="1834" cy="-90" rx="41.6025" ry="18"/>
<text text-anchor="middle" x="1834" y="-85.8" font-family="Times,serif" font-size="14.00" fill="#000000">nummod</text>
</g>
<!-- PRODUCT&#45;&#45;nummod -->
<g id="edge7" class="edge">
<title>PRODUCT&#45;&#45;nummod</title>
<path fill="none" stroke="#000000" d="M1498.2424,-155.7971C1561.6934,-147.2148 1676.4566,-130.228 1773,-108 1781.931,-105.9437 1791.483,-103.3287 1800.3145,-100.7334"/>
</g>
<!-- object predicate -->
<g id="node32" class="node">
<title>object predicate</title>
<ellipse fill="none" stroke="#000000" cx="1965" cy="-90" rx="66.1574" ry="18"/>
<text text-anchor="middle" x="1965" y="-85.8" font-family="Times,serif" font-size="14.00" fill="#000000">object predicate</text>
</g>
<!-- PRODUCT&#45;&#45;object predicate -->
<g id="edge8" class="edge">
<title>PRODUCT&#45;&#45;object predicate</title>
<path fill="none" stroke="#000000" d="M1499.8143,-157.4165C1580.8946,-149.5978 1746.3013,-132.1529 1885,-108 1894.8175,-106.2904 1905.2475,-104.1699 1915.2211,-101.991"/>
</g>
<!-- port -->
<g id="node3" class="node">
<title>port</title>
<ellipse fill="none" stroke="#000000" cx="27" cy="-18" rx="27" ry="18"/>
<text text-anchor="middle" x="27" y="-13.8" font-family="Times,serif" font-size="14.00" fill="#000000">port</text>
</g>
<!-- possession modifier&#45;&#45;port -->
<g id="edge9" class="edge">
<title>possession modifier&#45;&#45;port</title>
<path fill="none" stroke="#000000" d="M111.6945,-72.937C91.6923,-59.9626 64.6175,-42.4005 46.5174,-30.6599"/>
</g>
<!-- hull -->
<g id="node4" class="node">
<title>hull</title>
<ellipse fill="none" stroke="#000000" cx="99" cy="-18" rx="27" ry="18"/>
<text text-anchor="middle" x="99" y="-13.8" font-family="Times,serif" font-size="14.00" fill="#000000">hull</text>
</g>
<!-- possession modifier&#45;&#45;hull -->
<g id="edge10" class="edge">
<title>possession modifier&#45;&#45;hull</title>
<path fill="none" stroke="#000000" d="M128.1587,-71.8314C122.1112,-60.6667 114.4055,-46.441 108.4346,-35.4177"/>
</g>
<!-- arrival -->
<g id="node20" class="node">
<title>arrival</title>
<ellipse fill="none" stroke="#000000" cx="177" cy="-18" rx="33.3665" ry="18"/>
<text text-anchor="middle" x="177" y="-13.8" font-family="Times,serif" font-size="14.00" fill="#000000">arrival</text>
</g>
<!-- possession modifier&#45;&#45;arrival -->
<g id="edge11" class="edge">
<title>possession modifier&#45;&#45;arrival</title>
<path fill="none" stroke="#000000" d="M147.8413,-71.8314C153.8888,-60.6667 161.5945,-46.441 167.5654,-35.4177"/>
</g>
<!-- begin -->
<g id="node6" class="node">
<title>begin</title>
<ellipse fill="none" stroke="#000000" cx="258" cy="-18" rx="29.5104" ry="18"/>
<text text-anchor="middle" x="258" y="-13.8" font-family="Times,serif" font-size="14.00" fill="#000000">begin</text>
</g>
<!-- head of prep phrase&#45;&#45;begin -->
<g id="edge12" class="edge">
<title>head of prep phrase&#45;&#45;begin</title>
<path fill="none" stroke="#000000" d="M635.0714,-87.16C549.8857,-82.4085 410.9723,-69.7371 296,-36 290.8166,-34.479 285.4547,-32.3333 280.4506,-30.0511"/>
</g>
<!-- heroics -->
<g id="node7" class="node">
<title>heroics</title>
<ellipse fill="none" stroke="#000000" cx="341" cy="-18" rx="35.7887" ry="18"/>
<text text-anchor="middle" x="341" y="-13.8" font-family="Times,serif" font-size="14.00" fill="#000000">heroics</text>
</g>
<!-- head of prep phrase&#45;&#45;heroics -->
<g id="edge13" class="edge">
<title>head of prep phrase&#45;&#45;heroics</title>
<path fill="none" stroke="#000000" d="M641.3581,-82.6319C574.2337,-74.7478 472.1673,-60.0181 386,-36 380.1642,-34.3733 374.0514,-32.2378 368.2791,-30.0084"/>
</g>
<!-- died -->
<g id="node8" class="node">
<title>died</title>
<ellipse fill="none" stroke="#000000" cx="422" cy="-18" rx="27" ry="18"/>
<text text-anchor="middle" x="422" y="-13.8" font-family="Times,serif" font-size="14.00" fill="#000000">died</text>
</g>
<!-- head of prep phrase&#45;&#45;died -->
<g id="edge14" class="edge">
<title>head of prep phrase&#45;&#45;died</title>
<path fill="none" stroke="#000000" d="M646.1518,-80.5434C593.7999,-72.0934 520.0774,-57.664 458,-36 452.9859,-34.2502 447.7761,-31.9529 442.9286,-29.5874"/>
</g>
<!-- bombing -->
<g id="node9" class="node">
<title>bombing</title>
<ellipse fill="none" stroke="#000000" cx="509" cy="-18" rx="41.6025" ry="18"/>
<text text-anchor="middle" x="509" y="-13.8" font-family="Times,serif" font-size="14.00" fill="#000000">bombing</text>
</g>
<!-- head of prep phrase&#45;&#45;bombing -->
<g id="edge15" class="edge">
<title>head of prep phrase&#45;&#45;bombing</title>
<path fill="none" stroke="#000000" d="M670.5128,-74.7778C639.6626,-63.9725 597.2835,-49.1162 560,-36 553.977,-33.8811 547.5553,-31.6179 541.3718,-29.4365"/>
</g>
<!-- report -->
<g id="node13" class="node">
<title>report</title>
<ellipse fill="none" stroke="#000000" cx="600" cy="-18" rx="31.4462" ry="18"/>
<text text-anchor="middle" x="600" y="-13.8" font-family="Times,serif" font-size="14.00" fill="#000000">report</text>
</g>
<!-- head of prep phrase&#45;&#45;report -->
<g id="edge16" class="edge">
<title>head of prep phrase&#45;&#45;report</title>
<path fill="none" stroke="#000000" d="M686.9836,-72.937C666.8358,-60.2121 639.701,-43.0743 621.1275,-31.3437"/>
</g>
<!-- used -->
<g id="node18" class="node">
<title>used</title>
<ellipse fill="none" stroke="#000000" cx="676" cy="-18" rx="27" ry="18"/>
<text text-anchor="middle" x="676" y="-13.8" font-family="Times,serif" font-size="14.00" fill="#000000">used</text>
</g>
<!-- head of prep phrase&#45;&#45;used -->
<g id="edge17" class="edge">
<title>head of prep phrase&#45;&#45;used</title>
<path fill="none" stroke="#000000" d="M704.411,-71.8314C698.5186,-60.6667 691.0105,-46.441 685.1927,-35.4177"/>
</g>
<!-- attack -->
<g id="node19" class="node">
<title>attack</title>
<ellipse fill="none" stroke="#000000" cx="752" cy="-18" rx="31.4375" ry="18"/>
<text text-anchor="middle" x="752" y="-13.8" font-family="Times,serif" font-size="14.00" fill="#000000">attack</text>
</g>
<!-- head of prep phrase&#45;&#45;attack -->
<g id="edge18" class="edge">
<title>head of prep phrase&#45;&#45;attack</title>
<path fill="none" stroke="#000000" d="M723.589,-71.8314C729.4814,-60.6667 736.9895,-46.441 742.8073,-35.4177"/>
</g>
<!-- recovered -->
<g id="node24" class="node">
<title>recovered</title>
<ellipse fill="none" stroke="#000000" cx="846" cy="-18" rx="44.9251" ry="18"/>
<text text-anchor="middle" x="846" y="-13.8" font-family="Times,serif" font-size="14.00" fill="#000000">recovered</text>
</g>
<!-- head of prep phrase&#45;&#45;recovered -->
<g id="edge19" class="edge">
<title>head of prep phrase&#45;&#45;recovered</title>
<path fill="none" stroke="#000000" d="M744.6152,-73.3008C767.1587,-61.0043 797.522,-44.4426 819.1287,-32.6571"/>
</g>
<!-- damage -->
<g id="node25" class="node">
<title>damage</title>
<ellipse fill="none" stroke="#000000" cx="947" cy="-18" rx="37.7092" ry="18"/>
<text text-anchor="middle" x="947" y="-13.8" font-family="Times,serif" font-size="14.00" fill="#000000">damage</text>
</g>
<!-- head of prep phrase&#45;&#45;damage -->
<g id="edge20" class="edge">
<title>head of prep phrase&#45;&#45;damage</title>
<path fill="none" stroke="#000000" d="M765.6731,-76.241C803.1973,-65.9485 855.0578,-51.1007 900,-36 905.8807,-34.0241 912.1146,-31.7596 918.0535,-29.5187"/>
</g>
<!-- stay -->
<g id="node26" class="node">
<title>stay</title>
<ellipse fill="none" stroke="#000000" cx="1030" cy="-18" rx="27" ry="18"/>
<text text-anchor="middle" x="1030" y="-13.8" font-family="Times,serif" font-size="14.00" fill="#000000">stay</text>
</g>
<!-- head of prep phrase&#45;&#45;stay -->
<g id="edge21" class="edge">
<title>head of prep phrase&#45;&#45;stay</title>
<path fill="none" stroke="#000000" d="M784.9903,-81.765C842.4308,-73.8133 924.8488,-59.4609 994,-36 999.0291,-34.2938 1004.245,-32.0142 1009.0936,-29.6521"/>
</g>
<!-- began -->
<g id="node28" class="node">
<title>began</title>
<ellipse fill="none" stroke="#000000" cx="1106" cy="-18" rx="31.4462" ry="18"/>
<text text-anchor="middle" x="1106" y="-13.8" font-family="Times,serif" font-size="14.00" fill="#000000">began</text>
</g>
<!-- head of prep phrase&#45;&#45;began -->
<g id="edge22" class="edge">
<title>head of prep phrase&#45;&#45;began</title>
<path fill="none" stroke="#000000" d="M789.7944,-84.3367C861.9694,-77.556 973.0664,-63.4836 1066,-36 1071.4039,-34.4019 1077.0259,-32.2237 1082.2885,-29.9342"/>
</g>
<!-- visited -->
<g id="node11" class="node">
<title>visited</title>
<ellipse fill="none" stroke="#000000" cx="1189" cy="-18" rx="33.877" ry="18"/>
<text text-anchor="middle" x="1189" y="-13.8" font-family="Times,serif" font-size="14.00" fill="#000000">visited</text>
</g>
<!-- direct object&#45;&#45;visited -->
<g id="edge23" class="edge">
<title>direct object&#45;&#45;visited</title>
<path fill="none" stroke="#000000" d="M1234.4757,-72.5708C1224.9035,-61.0841 1212.4366,-46.1239 1202.9774,-34.7729"/>
</g>
<!-- rocked -->
<g id="node12" class="node">
<title>rocked</title>
<ellipse fill="none" stroke="#000000" cx="1275" cy="-18" rx="34.3354" ry="18"/>
<text text-anchor="middle" x="1275" y="-13.8" font-family="Times,serif" font-size="14.00" fill="#000000">rocked</text>
</g>
<!-- direct object&#45;&#45;rocked -->
<g id="edge24" class="edge">
<title>direct object&#45;&#45;rocked</title>
<path fill="none" stroke="#000000" d="M1255.5609,-71.8314C1259.5324,-60.8334 1264.5765,-46.865 1268.5313,-35.9134"/>
</g>
<!-- sold -->
<g id="node31" class="node">
<title>sold</title>
<ellipse fill="none" stroke="#000000" cx="1354" cy="-18" rx="27" ry="18"/>
<text text-anchor="middle" x="1354" y="-13.8" font-family="Times,serif" font-size="14.00" fill="#000000">sold</text>
</g>
<!-- direct object&#45;&#45;sold -->
<g id="edge25" class="edge">
<title>direct object&#45;&#45;sold</title>
<path fill="none" stroke="#000000" d="M1272.8261,-73.6621C1291.7042,-60.7171 1317.7176,-42.8794 1335.1599,-30.9189"/>
</g>
<!-- Cole -->
<g id="node15" class="node">
<title>Cole</title>
<ellipse fill="none" stroke="#000000" cx="1426" cy="-18" rx="27" ry="18"/>
<text text-anchor="middle" x="1426" y="-13.8" font-family="Times,serif" font-size="14.00" fill="#000000">Cole</text>
</g>
<!-- punctuation&#45;&#45;Cole -->
<g id="edge26" class="edge">
<title>punctuation&#45;&#45;Cole</title>
<path fill="none" stroke="#000000" d="M1386.1011,-72.2022C1394.5616,-60.7088 1405.4948,-45.8561 1413.7763,-34.6058"/>
</g>
<!-- USS -->
<g id="node17" class="node">
<title>USS</title>
<ellipse fill="none" stroke="#000000" cx="1526" cy="-18" rx="27" ry="18"/>
<text text-anchor="middle" x="1526" y="-13.8" font-family="Times,serif" font-size="14.00" fill="#000000">USS</text>
</g>
<!-- appositional modifier&#45;&#45;USS -->
<g id="edge27" class="edge">
<title>appositional modifier&#45;&#45;USS</title>
<path fill="none" stroke="#000000" d="M1527.4953,-71.8314C1527.1944,-61 1526.8135,-47.2876 1526.5115,-36.4133"/>
</g>
<!-- arrived -->
<g id="node22" class="node">
<title>arrived</title>
<ellipse fill="none" stroke="#000000" cx="1606" cy="-18" rx="35.2956" ry="18"/>
<text text-anchor="middle" x="1606" y="-13.8" font-family="Times,serif" font-size="14.00" fill="#000000">arrived</text>
</g>
<!-- nominal subject&#45;&#45;arrived -->
<g id="edge28" class="edge">
<title>nominal subject&#45;&#45;arrived</title>
<path fill="none" stroke="#000000" d="M1676.1973,-72.937C1660.7878,-60.8774 1640.314,-44.8544 1625.4564,-33.2267"/>
</g>
<!-- taking -->
<g id="node23" class="node">
<title>taking</title>
<ellipse fill="none" stroke="#000000" cx="1691" cy="-18" rx="32.4237" ry="18"/>
<text text-anchor="middle" x="1691" y="-13.8" font-family="Times,serif" font-size="14.00" fill="#000000">taking</text>
</g>
<!-- nominal subject&#45;&#45;taking -->
<g id="edge29" class="edge">
<title>nominal subject&#45;&#45;taking</title>
<path fill="none" stroke="#000000" d="M1696.2336,-71.8314C1695.1806,-61 1693.8474,-47.2876 1692.7902,-36.4133"/>
</g>
<!-- plays -->
<g id="node27" class="node">
<title>plays</title>
<ellipse fill="none" stroke="#000000" cx="1770" cy="-18" rx="28.5497" ry="18"/>
<text text-anchor="middle" x="1770" y="-13.8" font-family="Times,serif" font-size="14.00" fill="#000000">plays</text>
</g>
<!-- nominal subject&#45;&#45;plays -->
<g id="edge30" class="edge">
<title>nominal subject&#45;&#45;plays</title>
<path fill="none" stroke="#000000" d="M1715.4292,-72.5708C1727.4153,-60.5847 1743.1836,-44.8164 1754.6866,-33.3134"/>
</g>
<!-- PlayStation -->
<g id="node30" class="node">
<title>PlayStation</title>
<ellipse fill="none" stroke="#000000" cx="1868" cy="-18" rx="50.7741" ry="18"/>
<text text-anchor="middle" x="1868" y="-13.8" font-family="Times,serif" font-size="14.00" fill="#000000">PlayStation</text>
</g>
<!-- nummod&#45;&#45;PlayStation -->
<g id="edge31" class="edge">
<title>nummod&#45;&#45;PlayStation</title>
<path fill="none" stroke="#000000" d="M1842.4045,-72.2022C1847.6353,-61.1252 1854.3396,-46.928 1859.5744,-35.8425"/>
</g>
<!-- called -->
<g id="node33" class="node">
<title>called</title>
<ellipse fill="none" stroke="#000000" cx="1968" cy="-18" rx="31.4375" ry="18"/>
<text text-anchor="middle" x="1968" y="-13.8" font-family="Times,serif" font-size="14.00" fill="#000000">called</text>
</g>
<!-- object predicate&#45;&#45;called -->
<g id="edge32" class="edge">
<title>object predicate&#45;&#45;called</title>
<path fill="none" stroke="#000000" d="M1965.757,-71.8314C1966.2083,-61 1966.7797,-47.2876 1967.2328,-36.4133"/>
</g>
</g>
</svg>
