<?xml version="1.0" encoding="UTF-8" standalone="no"?>
<!DOCTYPE svg PUBLIC "-//W3C//DTD SVG 1.1//EN"
 "http://www.w3.org/Graphics/SVG/1.1/DTD/svg11.dtd">
<!-- Generated by graphviz version 2.40.1 (20161225.0304)
 -->
<!-- Title: %3 Pages: 1 -->
<svg width="1153pt" height="961pt"
 viewBox="0.00 0.00 1153.07 961.23" xmlns="http://www.w3.org/2000/svg" xmlns:xlink="http://www.w3.org/1999/xlink">
<g id="graph0" class="graph" transform="scale(1 1) rotate(0) translate(4 957.2258)">
<title>%3</title>
<polygon fill="#ffffff" stroke="transparent" points="-4,4 -4,-957.2258 1149.0651,-957.2258 1149.0651,4 -4,4"/>
<!-- PRODUCT -->
<g id="node1" class="node">
<title>PRODUCT</title>
<ellipse fill="none" stroke="#000000" cx="707.5403" cy="-513.7809" rx="51.2673" ry="18"/>
<text text-anchor="middle" x="707.5403" y="-509.5809" font-family="Times,serif" font-size="14.00" fill="#000000">PRODUCT</text>
<text text-anchor="middle" x="649.1568" y="-534.5809" font-family="Times,serif" font-size="14.00" fill="#000000">12</text>
</g>
<!-- head g1 possession modifier -->
<g id="node2" class="node">
<title>head g1 possession modifier</title>
<ellipse fill="none" stroke="#000000" cx="842.8173" cy="-327.8916" rx="110.1589" ry="18"/>
<text text-anchor="middle" x="842.8173" y="-323.6916" font-family="Times,serif" font-size="14.00" fill="#000000">head g1 possession modifier</text>
</g>
<!-- PRODUCT&#45;&gt;head g1 possession modifier -->
<g id="edge1" class="edge">
<title>PRODUCT&#45;&gt;head g1 possession modifier</title>
<path fill="none" stroke="#000000" d="M720.2668,-496.2929C744.1144,-463.5231 795.6441,-392.7141 823.6899,-354.1753"/>
<polygon fill="#000000" stroke="#000000" points="826.5739,-356.1605 829.6281,-346.0154 820.9139,-352.0416 826.5739,-356.1605"/>
<text text-anchor="middle" x="761.7364" y="-423.9504" font-family="Times,serif" font-size="14.00" fill="#000000">head</text>
</g>
<!-- child g1 determiner -->
<g id="node4" class="node">
<title>child g1 determiner</title>
<ellipse fill="none" stroke="#000000" cx="875.7722" cy="-591.882" rx="79.2126" ry="18"/>
<text text-anchor="middle" x="875.7722" y="-587.682" font-family="Times,serif" font-size="14.00" fill="#000000">child g1 determiner</text>
</g>
<!-- PRODUCT&#45;&gt;child g1 determiner -->
<g id="edge2" class="edge">
<title>PRODUCT&#45;&gt;child g1 determiner</title>
<path fill="none" stroke="#000000" d="M738.7892,-528.2881C764.9407,-540.4288 802.5574,-557.8922 831.7573,-571.4482"/>
<polygon fill="#000000" stroke="#000000" points="830.3728,-574.6642 840.9168,-575.7005 833.3204,-568.315 830.3728,-574.6642"/>
<text text-anchor="middle" x="775.8838" y="-554.807" font-family="Times,serif" font-size="14.00" fill="#000000">child</text>
</g>
<!-- child g1 case -->
<g id="node6" class="node">
<title>child g1 case</title>
<ellipse fill="none" stroke="#000000" cx="573.3075" cy="-337.1528" rx="56.0441" ry="18"/>
<text text-anchor="middle" x="573.3075" y="-332.9528" font-family="Times,serif" font-size="14.00" fill="#000000">child g1 case</text>
</g>
<!-- PRODUCT&#45;&gt;child g1 case -->
<g id="edge3" class="edge">
<title>PRODUCT&#45;&gt;child g1 case</title>
<path fill="none" stroke="#000000" d="M711.7098,-495.5835C713.1518,-485.4918 713.4722,-472.9325 709.1422,-462.6025 698.384,-436.9366 639.888,-388.4905 603.2541,-359.8954"/>
<polygon fill="#000000" stroke="#000000" points="605.3953,-357.1268 595.3475,-353.7666 601.1068,-362.6593 605.3953,-357.1268"/>
<text text-anchor="middle" x="652.0253" y="-415.2581" font-family="Times,serif" font-size="14.00" fill="#000000">child</text>
</g>
<!-- head g1 head of prep phrase -->
<g id="node13" class="node">
<title>head g1 head of prep phrase</title>
<ellipse fill="none" stroke="#000000" cx="590.8294" cy="-462.4417" rx="109.6053" ry="18"/>
<text text-anchor="middle" x="590.8294" y="-458.2417" font-family="Times,serif" font-size="14.00" fill="#000000">head g1 head of prep phrase</text>
</g>
<!-- PRODUCT&#45;&gt;head g1 head of prep phrase -->
<g id="edge4" class="edge">
<title>PRODUCT&#45;&gt;head g1 head of prep phrase</title>
<path fill="none" stroke="#000000" d="M675.3396,-499.6164C664.0486,-494.6496 651.1104,-488.9583 638.808,-483.5467"/>
<polygon fill="#000000" stroke="#000000" points="640.1248,-480.3023 629.562,-479.4795 637.3062,-486.7098 640.1248,-480.3023"/>
<text text-anchor="middle" x="638.998" y="-492.2428" font-family="Times,serif" font-size="14.00" fill="#000000">head</text>
</g>
<!-- child g1 compound -->
<g id="node15" class="node">
<title>child g1 compound</title>
<ellipse fill="none" stroke="#000000" cx="535.8256" cy="-776.1129" rx="78.278" ry="18"/>
<text text-anchor="middle" x="535.8256" y="-771.9129" font-family="Times,serif" font-size="14.00" fill="#000000">child g1 compound</text>
</g>
<!-- PRODUCT&#45;&gt;child g1 compound -->
<g id="edge5" class="edge">
<title>PRODUCT&#45;&gt;child g1 compound</title>
<path fill="none" stroke="#000000" d="M689.6959,-530.8017C664.8662,-555.2202 619.6401,-602.4475 590.2341,-649.4195 570.2739,-681.3031 554.3176,-721.781 544.9705,-748.289"/>
<polygon fill="#000000" stroke="#000000" points="541.5545,-747.4592 541.6037,-758.054 548.1722,-749.741 541.5545,-747.4592"/>
<text text-anchor="middle" x="576.2302" y="-652.2312" font-family="Times,serif" font-size="14.00" fill="#000000">child</text>
</g>
<!-- head g1 direct object -->
<g id="node25" class="node">
<title>head g1 direct object</title>
<ellipse fill="none" stroke="#000000" cx="467.0527" cy="-409.3663" rx="84.0308" ry="18"/>
<text text-anchor="middle" x="467.0527" y="-405.1663" font-family="Times,serif" font-size="14.00" fill="#000000">head g1 direct object</text>
</g>
<!-- PRODUCT&#45;&gt;head g1 direct object -->
<g id="edge6" class="edge">
<title>PRODUCT&#45;&gt;head g1 direct object</title>
<path fill="none" stroke="#000000" d="M658.7491,-519.5718C603.222,-523.0705 514.7724,-518.5689 472.5166,-462.2809 467.2739,-455.2972 465.1587,-446.2537 464.5758,-437.6247"/>
<polygon fill="#000000" stroke="#000000" points="468.0749,-437.4508 464.5176,-427.4711 461.0751,-437.491 468.0749,-437.4508"/>
<text text-anchor="middle" x="538.6332" y="-513.9859" font-family="Times,serif" font-size="14.00" fill="#000000">head</text>
</g>
<!-- head g1 punctuation -->
<g id="node33" class="node">
<title>head g1 punctuation</title>
<ellipse fill="none" stroke="#000000" cx="701.6051" cy="-361.7292" rx="81.6354" ry="18"/>
<text text-anchor="middle" x="701.6051" y="-357.5292" font-family="Times,serif" font-size="14.00" fill="#000000">head g1 punctuation</text>
</g>
<!-- PRODUCT&#45;&gt;head g1 punctuation -->
<g id="edge7" class="edge">
<title>PRODUCT&#45;&gt;head g1 punctuation</title>
<path fill="none" stroke="#000000" d="M708.5691,-495.7826C709.0124,-485.9747 709.3808,-473.6229 709.1422,-462.6025 708.6106,-438.0461 706.4101,-410.2125 704.523,-390.0125"/>
<polygon fill="#000000" stroke="#000000" points="707.9938,-389.5409 703.5474,-379.9243 701.0263,-390.2148 707.9938,-389.5409"/>
<text text-anchor="middle" x="694.936" y="-426.5567" font-family="Times,serif" font-size="14.00" fill="#000000">head</text>
</g>
<!-- head g1 appositional modifier -->
<g id="node36" class="node">
<title>head g1 appositional modifier</title>
<ellipse fill="none" stroke="#000000" cx="714.9422" cy="-649.5421" rx="115.4455" ry="18"/>
<text text-anchor="middle" x="714.9422" y="-645.3421" font-family="Times,serif" font-size="14.00" fill="#000000">head g1 appositional modifier</text>
</g>
<!-- PRODUCT&#45;&gt;head g1 appositional modifier -->
<g id="edge8" class="edge">
<title>PRODUCT&#45;&gt;head g1 appositional modifier</title>
<path fill="none" stroke="#000000" d="M708.5232,-531.809C709.7675,-554.6308 711.9253,-594.2081 713.3924,-621.116"/>
<polygon fill="#000000" stroke="#000000" points="709.9159,-621.6449 713.9552,-631.4395 716.9055,-621.2638 709.9159,-621.6449"/>
<text text-anchor="middle" x="698.032" y="-584.5469" font-family="Times,serif" font-size="14.00" fill="#000000">head</text>
</g>
<!-- port -->
<g id="node3" class="node">
<title>port</title>
<ellipse fill="none" stroke="#000000" cx="984.281" cy="-255.407" rx="27" ry="18"/>
<text text-anchor="middle" x="984.281" y="-251.207" font-family="Times,serif" font-size="14.00" fill="#000000">port</text>
</g>
<!-- head g1 possession modifier&#45;&gt;port -->
<g id="edge9" class="edge">
<title>head g1 possession modifier&#45;&gt;port</title>
<path fill="none" stroke="#000000" d="M876.3422,-310.7137C899.8961,-298.645 931.1452,-282.6332 953.9568,-270.9448"/>
<polygon fill="#000000" stroke="#000000" points="955.5593,-274.0565 962.8629,-266.3814 952.3671,-267.8267 955.5593,-274.0565"/>
</g>
<!-- hull -->
<g id="node10" class="node">
<title>hull</title>
<ellipse fill="none" stroke="#000000" cx="877.2171" cy="-154.8022" rx="27" ry="18"/>
<text text-anchor="middle" x="877.2171" y="-150.6022" font-family="Times,serif" font-size="14.00" fill="#000000">hull</text>
</g>
<!-- head g1 possession modifier&#45;&gt;hull -->
<g id="edge10" class="edge">
<title>head g1 possession modifier&#45;&gt;hull</title>
<path fill="none" stroke="#000000" d="M846.4337,-309.6951C852.4367,-279.4898 864.5006,-218.7882 871.6131,-183.0003"/>
<polygon fill="#000000" stroke="#000000" points="875.1327,-183.2453 873.6492,-172.7548 868.267,-181.8807 875.1327,-183.2453"/>
</g>
<!-- head g2 head of prep phrase -->
<g id="node8" class="node">
<title>head g2 head of prep phrase</title>
<ellipse fill="none" stroke="#000000" cx="988.4063" cy="-457.755" rx="109.6053" ry="18"/>
<text text-anchor="middle" x="988.4063" y="-453.555" font-family="Times,serif" font-size="14.00" fill="#000000">head g2 head of prep phrase</text>
</g>
<!-- port&#45;&gt;head g2 head of prep phrase -->
<g id="edge11" class="edge">
<title>port&#45;&gt;head g2 head of prep phrase</title>
<path fill="none" stroke="#000000" d="M984.6544,-273.7209C985.3769,-309.1607 986.9706,-387.3341 987.8301,-429.4901"/>
<polygon fill="#000000" stroke="#000000" points="984.3336,-429.7017 988.0368,-439.6283 991.3321,-429.559 984.3336,-429.7017"/>
<text text-anchor="middle" x="973.131" y="-359.4384" font-family="Times,serif" font-size="14.00" fill="#000000">head</text>
</g>
<!-- the -->
<g id="node5" class="node">
<title>the</title>
<ellipse fill="none" stroke="#000000" cx="1082.1219" cy="-885.201" rx="27" ry="18"/>
<text text-anchor="middle" x="1082.1219" y="-881.001" font-family="Times,serif" font-size="14.00" fill="#000000">the</text>
</g>
<!-- child g1 determiner&#45;&gt;the -->
<g id="edge12" class="edge">
<title>child g1 determiner&#45;&gt;the</title>
<path fill="none" stroke="#000000" d="M888.3697,-609.7888C923.7426,-660.0703 1024.0405,-802.6402 1064.6898,-860.4218"/>
<polygon fill="#000000" stroke="#000000" points="1061.8451,-862.4611 1070.4615,-868.6262 1067.5703,-858.4334 1061.8451,-862.4611"/>
</g>
<!-- The -->
<g id="node37" class="node">
<title>The</title>
<ellipse fill="none" stroke="#000000" cx="930.4176" cy="-740.2474" rx="27" ry="18"/>
<text text-anchor="middle" x="930.4176" y="-736.0474" font-family="Times,serif" font-size="14.00" fill="#000000">The</text>
</g>
<!-- child g1 determiner&#45;&gt;The -->
<g id="edge13" class="edge">
<title>child g1 determiner&#45;&gt;The</title>
<path fill="none" stroke="#000000" d="M882.4728,-610.0745C891.9468,-635.7968 909.3292,-682.9913 920.3572,-712.9328"/>
<polygon fill="#000000" stroke="#000000" points="917.0923,-714.1955 923.8329,-722.3695 923.6609,-711.7761 917.0923,-714.1955"/>
</g>
<!-- &#39;s -->
<g id="node7" class="node">
<title>&#39;s</title>
<ellipse fill="none" stroke="#000000" cx="495.6768" cy="-148.3067" rx="27" ry="18"/>
<text text-anchor="middle" x="495.6768" y="-144.1067" font-family="Times,serif" font-size="14.00" fill="#000000">&#39;s</text>
</g>
<!-- child g1 case&#45;&gt;&#39;s -->
<g id="edge14" class="edge">
<title>child g1 case&#45;&gt;&#39;s</title>
<path fill="none" stroke="#000000" d="M565.864,-319.0454C552.144,-285.6699 522.8048,-214.2987 506.7449,-175.2311"/>
<polygon fill="#000000" stroke="#000000" points="509.9111,-173.7278 502.8718,-165.8095 503.4368,-176.3893 509.9111,-173.7278"/>
</g>
<!-- go -->
<g id="node9" class="node">
<title>go</title>
<ellipse fill="none" stroke="#000000" cx="1114.1504" cy="-332.2211" rx="27" ry="18"/>
<text text-anchor="middle" x="1114.1504" y="-328.0211" font-family="Times,serif" font-size="14.00" fill="#000000">go</text>
</g>
<!-- head g2 head of prep phrase&#45;&gt;go -->
<g id="edge15" class="edge">
<title>head g2 head of prep phrase&#45;&gt;go</title>
<path fill="none" stroke="#000000" d="M1006.4224,-439.7691C1028.8498,-417.3791 1067.1667,-379.1263 1091.5431,-354.7906"/>
<polygon fill="#000000" stroke="#000000" points="1094.3257,-356.9583 1098.9299,-347.4161 1089.3801,-352.0044 1094.3257,-356.9583"/>
</g>
<!-- responsible -->
<g id="node24" class="node">
<title>responsible</title>
<ellipse fill="none" stroke="#000000" cx="1094.679" cy="-616.3933" rx="50.2723" ry="18"/>
<text text-anchor="middle" x="1094.679" y="-612.1933" font-family="Times,serif" font-size="14.00" fill="#000000">responsible</text>
</g>
<!-- head g2 head of prep phrase&#45;&gt;responsible -->
<g id="edge16" class="edge">
<title>head g2 head of prep phrase&#45;&gt;responsible</title>
<path fill="none" stroke="#000000" d="M1000.5972,-475.9528C1019.3351,-503.9239 1055.3097,-557.6249 1076.9371,-589.909"/>
<polygon fill="#000000" stroke="#000000" points="1074.1569,-592.0476 1082.6304,-598.4077 1079.9725,-588.1516 1074.1569,-592.0476"/>
</g>
<!-- head g2 direct object -->
<g id="node11" class="node">
<title>head g2 direct object</title>
<ellipse fill="none" stroke="#000000" cx="640.687" cy="-34.7224" rx="84.0308" ry="18"/>
<text text-anchor="middle" x="640.687" y="-30.5224" font-family="Times,serif" font-size="14.00" fill="#000000">head g2 direct object</text>
</g>
<!-- hull&#45;&gt;head g2 direct object -->
<g id="edge17" class="edge">
<title>hull&#45;&gt;head g2 direct object</title>
<path fill="none" stroke="#000000" d="M855.3889,-143.7206C816.1991,-123.8251 733.2943,-81.7366 682.7444,-56.0738"/>
<polygon fill="#000000" stroke="#000000" points="684.2011,-52.8882 673.6999,-51.4822 681.0323,-59.1299 684.2011,-52.8882"/>
<text text-anchor="middle" x="751.4755" y="-100.475" font-family="Times,serif" font-size="14.00" fill="#000000">head</text>
</g>
<!-- ripped -->
<g id="node12" class="node">
<title>ripped</title>
<ellipse fill="none" stroke="#000000" cx="406.962" cy="-18.9178" rx="32.8994" ry="18"/>
<text text-anchor="middle" x="406.962" y="-14.7178" font-family="Times,serif" font-size="14.00" fill="#000000">ripped</text>
</g>
<!-- head g2 direct object&#45;&gt;ripped -->
<g id="edge18" class="edge">
<title>head g2 direct object&#45;&gt;ripped</title>
<path fill="none" stroke="#000000" d="M560.2521,-29.2834C523.1189,-26.7724 480.5336,-23.8927 449.687,-21.8068"/>
<polygon fill="#000000" stroke="#000000" points="449.9142,-18.3143 439.7008,-21.1316 449.4419,-25.2984 449.9142,-18.3143"/>
</g>
<!-- have -->
<g id="node32" class="node">
<title>have</title>
<ellipse fill="none" stroke="#000000" cx="848.5341" cy="-18" rx="27" ry="18"/>
<text text-anchor="middle" x="848.5341" y="-13.8" font-family="Times,serif" font-size="14.00" fill="#000000">have</text>
</g>
<!-- head g2 direct object&#45;&gt;have -->
<g id="edge19" class="edge">
<title>head g2 direct object&#45;&gt;have</title>
<path fill="none" stroke="#000000" d="M719.5614,-28.3766C751.0529,-25.8429 785.8075,-23.0467 811.2966,-20.996"/>
<polygon fill="#000000" stroke="#000000" points="811.5846,-24.4842 821.2716,-20.1934 811.0231,-17.5067 811.5846,-24.4842"/>
</g>
<!-- attacked -->
<g id="node35" class="node">
<title>attacked</title>
<ellipse fill="none" stroke="#000000" cx="1075.2429" cy="-64.5783" rx="39.6299" ry="18"/>
<text text-anchor="middle" x="1075.2429" y="-60.3783" font-family="Times,serif" font-size="14.00" fill="#000000">attacked</text>
</g>
<!-- head g2 direct object&#45;&gt;attacked -->
<g id="edge20" class="edge">
<title>head g2 direct object&#45;&gt;attacked</title>
<path fill="none" stroke="#000000" d="M720.8977,-40.2332C810.1365,-46.3643 951.5131,-56.0775 1025.842,-61.1842"/>
<polygon fill="#000000" stroke="#000000" points="1025.6563,-64.6796 1035.8727,-61.8734 1026.1362,-57.6961 1025.6563,-64.6796"/>
</g>
<!-- begin -->
<g id="node14" class="node">
<title>begin</title>
<ellipse fill="none" stroke="#000000" cx="579.1774" cy="-595.666" rx="29.5104" ry="18"/>
<text text-anchor="middle" x="579.1774" y="-591.466" font-family="Times,serif" font-size="14.00" fill="#000000">begin</text>
</g>
<!-- head g1 head of prep phrase&#45;&gt;begin -->
<g id="edge21" class="edge">
<title>head g1 head of prep phrase&#45;&gt;begin</title>
<path fill="none" stroke="#000000" d="M589.2337,-480.6866C587.2725,-503.1095 583.9239,-541.3967 581.6337,-567.581"/>
<polygon fill="#000000" stroke="#000000" points="578.1385,-567.3745 580.7538,-577.6414 585.1119,-567.9845 578.1385,-567.3745"/>
</g>
<!-- heroics -->
<g id="node17" class="node">
<title>heroics</title>
<ellipse fill="none" stroke="#000000" cx="433.1863" cy="-285.8701" rx="35.7887" ry="18"/>
<text text-anchor="middle" x="433.1863" y="-281.6701" font-family="Times,serif" font-size="14.00" fill="#000000">heroics</text>
</g>
<!-- head g1 head of prep phrase&#45;&gt;heroics -->
<g id="edge22" class="edge">
<title>head g1 head of prep phrase&#45;&gt;heroics</title>
<path fill="none" stroke="#000000" d="M580.8021,-444.0753C574.7063,-433.5359 566.4461,-420.2841 557.7887,-409.4345 527.1363,-371.0204 485.6391,-331.9553 459.1352,-308.3124"/>
<polygon fill="#000000" stroke="#000000" points="461.2289,-305.4917 451.4197,-301.4879 456.5911,-310.7349 461.2289,-305.4917"/>
</g>
<!-- died -->
<g id="node20" class="node">
<title>died</title>
<ellipse fill="none" stroke="#000000" cx="442.1965" cy="-646.7879" rx="27" ry="18"/>
<text text-anchor="middle" x="442.1965" y="-642.5879" font-family="Times,serif" font-size="14.00" fill="#000000">died</text>
</g>
<!-- head g1 head of prep phrase&#45;&gt;died -->
<g id="edge23" class="edge">
<title>head g1 head of prep phrase&#45;&gt;died</title>
<path fill="none" stroke="#000000" d="M576.3072,-480.4532C549.3467,-513.8918 491.565,-585.5572 461.4084,-622.9597"/>
<polygon fill="#000000" stroke="#000000" points="458.6175,-620.845 455.0655,-630.8267 464.0669,-625.2387 458.6175,-620.845"/>
</g>
<!-- bombing -->
<g id="node23" class="node">
<title>bombing</title>
<ellipse fill="none" stroke="#000000" cx="819.5519" cy="-458.9482" rx="41.6025" ry="18"/>
<text text-anchor="middle" x="819.5519" y="-454.7482" font-family="Times,serif" font-size="14.00" fill="#000000">bombing</text>
</g>
<!-- head g1 head of prep phrase&#45;&gt;bombing -->
<g id="edge24" class="edge">
<title>head g1 head of prep phrase&#45;&gt;bombing</title>
<path fill="none" stroke="#000000" d="M700.1665,-460.7717C723.7376,-460.4117 747.5939,-460.0473 767.7196,-459.7399"/>
<polygon fill="#000000" stroke="#000000" points="767.9374,-463.2371 777.8827,-459.5847 767.8304,-456.2379 767.9374,-463.2371"/>
</g>
<!-- report -->
<g id="node31" class="node">
<title>report</title>
<ellipse fill="none" stroke="#000000" cx="610.6363" cy="-218.8025" rx="31.4462" ry="18"/>
<text text-anchor="middle" x="610.6363" y="-214.6025" font-family="Times,serif" font-size="14.00" fill="#000000">report</text>
</g>
<!-- head g1 head of prep phrase&#45;&gt;report -->
<g id="edge25" class="edge">
<title>head g1 head of prep phrase&#45;&gt;report</title>
<path fill="none" stroke="#000000" d="M592.2313,-444.0903C594.4207,-423.1927 599.8904,-388.4832 613.2422,-361.7074 619.6105,-348.9364 630.4739,-351.0857 634.0796,-337.2779 642.1916,-306.2132 632.2118,-269.9231 622.881,-245.7729"/>
<polygon fill="#000000" stroke="#000000" points="625.9988,-244.15 618.9764,-236.2168 619.5189,-246.7977 625.9988,-244.15"/>
</g>
<!-- used -->
<g id="node40" class="node">
<title>used</title>
<ellipse fill="none" stroke="#000000" cx="422.5525" cy="-508.5729" rx="27" ry="18"/>
<text text-anchor="middle" x="422.5525" y="-504.3729" font-family="Times,serif" font-size="14.00" fill="#000000">used</text>
</g>
<!-- head g1 head of prep phrase&#45;&gt;used -->
<g id="edge26" class="edge">
<title>head g1 head of prep phrase&#45;&gt;used</title>
<path fill="none" stroke="#000000" d="M534.3275,-477.9311C508.8251,-484.9222 479.5122,-492.9581 457.3045,-499.046"/>
<polygon fill="#000000" stroke="#000000" points="456.3589,-495.676 447.6401,-501.6954 458.2097,-502.427 456.3589,-495.676"/>
</g>
<!-- USS -->
<g id="node16" class="node">
<title>USS</title>
<ellipse fill="none" stroke="#000000" cx="733.1504" cy="-788.5202" rx="27" ry="18"/>
<text text-anchor="middle" x="733.1504" y="-784.3202" font-family="Times,serif" font-size="14.00" fill="#000000">USS</text>
</g>
<!-- child g1 compound&#45;&gt;USS -->
<g id="edge27" class="edge">
<title>child g1 compound&#45;&gt;USS</title>
<path fill="none" stroke="#000000" d="M611.5522,-780.8744C640.5226,-782.696 672.2861,-784.6932 696.0823,-786.1894"/>
<polygon fill="#000000" stroke="#000000" points="695.8883,-789.6841 706.0883,-786.8186 696.3277,-782.6978 695.8883,-789.6841"/>
</g>
<!-- head g2 noun phrase as adverbial modifier -->
<g id="node38" class="node">
<title>head g2 noun phrase as adverbial modifier</title>
<ellipse fill="none" stroke="#000000" cx="633.0725" cy="-935.2258" rx="159.8207" ry="18"/>
<text text-anchor="middle" x="633.0725" y="-931.0258" font-family="Times,serif" font-size="14.00" fill="#000000">head g2 noun phrase as adverbial modifier</text>
</g>
<!-- USS&#45;&gt;head g2 noun phrase as adverbial modifier -->
<g id="edge28" class="edge">
<title>USS&#45;&gt;head g2 noun phrase as adverbial modifier</title>
<path fill="none" stroke="#000000" d="M721.8647,-805.064C704.65,-830.2993 671.6683,-878.6477 651.1076,-908.7878"/>
<polygon fill="#000000" stroke="#000000" points="648.1531,-906.9081 645.4091,-917.1414 653.9358,-910.8529 648.1531,-906.9081"/>
<text text-anchor="middle" x="670.5668" y="-863.692" font-family="Times,serif" font-size="14.00" fill="#000000">head</text>
</g>
<!-- head g2 conjunct -->
<g id="node18" class="node">
<title>head g2 conjunct</title>
<ellipse fill="none" stroke="#000000" cx="302.2974" cy="-172.5636" rx="70.534" ry="18"/>
<text text-anchor="middle" x="302.2974" y="-168.3636" font-family="Times,serif" font-size="14.00" fill="#000000">head g2 conjunct</text>
</g>
<!-- heroics&#45;&gt;head g2 conjunct -->
<g id="edge29" class="edge">
<title>heroics&#45;&gt;head g2 conjunct</title>
<path fill="none" stroke="#000000" d="M414.9868,-270.1153C393.056,-251.1305 355.969,-219.0254 330.3647,-196.8605"/>
<polygon fill="#000000" stroke="#000000" points="332.3402,-193.9414 322.4888,-190.0426 327.7587,-199.2339 332.3402,-193.9414"/>
<text text-anchor="middle" x="355.4773" y="-232.8386" font-family="Times,serif" font-size="14.00" fill="#000000">head</text>
</g>
<!-- horror -->
<g id="node19" class="node">
<title>horror</title>
<ellipse fill="none" stroke="#000000" cx="146.8431" cy="-37.778" rx="32.415" ry="18"/>
<text text-anchor="middle" x="146.8431" y="-33.578" font-family="Times,serif" font-size="14.00" fill="#000000">horror</text>
</g>
<!-- head g2 conjunct&#45;&gt;horror -->
<g id="edge30" class="edge">
<title>head g2 conjunct&#45;&gt;horror</title>
<path fill="none" stroke="#000000" d="M282.2928,-155.2186C254.1393,-130.8084 202.8396,-86.3293 172.0936,-59.6713"/>
<polygon fill="#000000" stroke="#000000" points="174.223,-56.8852 164.3747,-52.9786 169.6374,-62.174 174.223,-56.8852"/>
</g>
<!-- head g2 relcl -->
<g id="node21" class="node">
<title>head g2 relcl</title>
<ellipse fill="none" stroke="#000000" cx="306.7707" cy="-757.1904" rx="55.551" ry="18"/>
<text text-anchor="middle" x="306.7707" y="-752.9904" font-family="Times,serif" font-size="14.00" fill="#000000">head g2 relcl</text>
</g>
<!-- died&#45;&gt;head g2 relcl -->
<g id="edge31" class="edge">
<title>died&#45;&gt;head g2 relcl</title>
<path fill="none" stroke="#000000" d="M425.0447,-660.7705C402.4691,-679.1747 362.4728,-711.7807 335.3045,-733.929"/>
<polygon fill="#000000" stroke="#000000" points="332.8576,-731.4081 327.3183,-740.4395 337.2806,-736.8336 332.8576,-731.4081"/>
<text text-anchor="middle" x="362.9641" y="-703.4079" font-family="Times,serif" font-size="14.00" fill="#000000">head</text>
</g>
<!-- sailors -->
<g id="node22" class="node">
<title>sailors</title>
<ellipse fill="none" stroke="#000000" cx="111.5148" cy="-672.9717" rx="33.3925" ry="18"/>
<text text-anchor="middle" x="111.5148" y="-668.7717" font-family="Times,serif" font-size="14.00" fill="#000000">sailors</text>
</g>
<!-- head g2 relcl&#45;&gt;sailors -->
<g id="edge32" class="edge">
<title>head g2 relcl&#45;&gt;sailors</title>
<path fill="none" stroke="#000000" d="M273.205,-742.7127C238.1226,-727.5808 183.2801,-703.9259 147.367,-688.4357"/>
<polygon fill="#000000" stroke="#000000" points="148.3403,-685.0438 137.7718,-684.297 145.5679,-691.4714 148.3403,-685.0438"/>
</g>
<!-- Fitzgerald -->
<g id="node27" class="node">
<title>Fitzgerald</title>
<ellipse fill="none" stroke="#000000" cx="394.1974" cy="-927.72" rx="45.92" ry="18"/>
<text text-anchor="middle" x="394.1974" y="-923.52" font-family="Times,serif" font-size="14.00" fill="#000000">Fitzgerald</text>
</g>
<!-- head g2 relcl&#45;&gt;Fitzgerald -->
<g id="edge33" class="edge">
<title>head g2 relcl&#45;&gt;Fitzgerald</title>
<path fill="none" stroke="#000000" d="M315.9617,-775.1178C331.3498,-805.1329 362.4082,-865.7136 380.4194,-900.8453"/>
<polygon fill="#000000" stroke="#000000" points="377.4529,-902.7309 385.1296,-910.0328 383.682,-899.5374 377.4529,-902.7309"/>
</g>
<!-- explosives -->
<g id="node41" class="node">
<title>explosives</title>
<ellipse fill="none" stroke="#000000" cx="140.0931" cy="-904.3528" rx="47.3823" ry="18"/>
<text text-anchor="middle" x="140.0931" y="-900.1528" font-family="Times,serif" font-size="14.00" fill="#000000">explosives</text>
</g>
<!-- head g2 relcl&#45;&gt;explosives -->
<g id="edge34" class="edge">
<title>head g2 relcl&#45;&gt;explosives</title>
<path fill="none" stroke="#000000" d="M287.3245,-774.3598C257.4321,-800.7523 200.1317,-851.3437 166.5081,-881.0305"/>
<polygon fill="#000000" stroke="#000000" points="164.084,-878.5018 158.9043,-887.7441 168.7171,-883.7492 164.084,-878.5018"/>
</g>
<!-- bombing&#45;&gt;head g2 head of prep phrase -->
<g id="edge35" class="edge">
<title>bombing&#45;&gt;head g2 head of prep phrase</title>
<path fill="none" stroke="#000000" d="M861.2912,-458.6533C863.7267,-458.6361 866.2264,-458.6184 868.7784,-458.6004"/>
<polygon fill="#000000" stroke="#000000" points="868.8805,-462.0998 878.8555,-458.5291 868.831,-455.1 868.8805,-462.0998"/>
<text text-anchor="middle" x="875.2658" y="-447.4012" font-family="Times,serif" font-size="14.00" fill="#000000">head</text>
</g>
<!-- visited -->
<g id="node26" class="node">
<title>visited</title>
<ellipse fill="none" stroke="#000000" cx="271.791" cy="-560.7289" rx="33.877" ry="18"/>
<text text-anchor="middle" x="271.791" y="-556.5289" font-family="Times,serif" font-size="14.00" fill="#000000">visited</text>
</g>
<!-- head g1 direct object&#45;&gt;visited -->
<g id="edge36" class="edge">
<title>head g1 direct object&#45;&gt;visited</title>
<path fill="none" stroke="#000000" d="M444.6537,-426.7295C408.7054,-454.5958 338.2293,-509.2274 299.286,-539.4153"/>
<polygon fill="#000000" stroke="#000000" points="296.779,-536.9303 291.0199,-545.8231 301.0677,-542.4627 296.779,-536.9303"/>
</g>
<!-- rocked -->
<g id="node28" class="node">
<title>rocked</title>
<ellipse fill="none" stroke="#000000" cx="285.6308" cy="-368.5037" rx="34.3354" ry="18"/>
<text text-anchor="middle" x="285.6308" y="-364.3037" font-family="Times,serif" font-size="14.00" fill="#000000">rocked</text>
</g>
<!-- head g1 direct object&#45;&gt;rocked -->
<g id="edge37" class="edge">
<title>head g1 direct object&#45;&gt;rocked</title>
<path fill="none" stroke="#000000" d="M408.651,-396.2122C382.0945,-390.2307 351.2882,-383.292 327.1467,-377.8545"/>
<polygon fill="#000000" stroke="#000000" points="327.7649,-374.4061 317.2402,-375.6232 326.2267,-381.2351 327.7649,-374.4061"/>
</g>
<!-- visited&#45;&gt;head g2 relcl -->
<g id="edge38" class="edge">
<title>visited&#45;&gt;head g2 relcl</title>
<path fill="none" stroke="#000000" d="M275.0191,-578.8594C281.1493,-613.289 294.5121,-688.3405 301.7954,-729.2467"/>
<polygon fill="#000000" stroke="#000000" points="298.3516,-729.8721 303.5504,-739.1038 305.2432,-728.645 298.3516,-729.8721"/>
<text text-anchor="middle" x="276.0566" y="-661.7014" font-family="Times,serif" font-size="14.00" fill="#000000">head</text>
</g>
<!-- head g2 clausal complement -->
<g id="node29" class="node">
<title>head g2 clausal complement</title>
<ellipse fill="none" stroke="#000000" cx="110.5415" cy="-446.3248" rx="110.583" ry="18"/>
<text text-anchor="middle" x="110.5415" y="-442.1248" font-family="Times,serif" font-size="14.00" fill="#000000">head g2 clausal complement</text>
</g>
<!-- rocked&#45;&gt;head g2 clausal complement -->
<g id="edge39" class="edge">
<title>rocked&#45;&gt;head g2 clausal complement</title>
<path fill="none" stroke="#000000" d="M259.4182,-380.1543C232.6753,-392.0406 190.5874,-410.7472 157.9746,-425.2424"/>
<polygon fill="#000000" stroke="#000000" points="156.3341,-422.1414 148.6176,-429.4013 159.1772,-428.538 156.3341,-422.1414"/>
<text text-anchor="middle" x="190.5036" y="-407.7113" font-family="Times,serif" font-size="14.00" fill="#000000">head</text>
</g>
<!-- said -->
<g id="node30" class="node">
<title>said</title>
<ellipse fill="none" stroke="#000000" cx="113.7045" cy="-236.5448" rx="27" ry="18"/>
<text text-anchor="middle" x="113.7045" y="-232.3448" font-family="Times,serif" font-size="14.00" fill="#000000">said</text>
</g>
<!-- head g2 clausal complement&#45;&gt;said -->
<g id="edge40" class="edge">
<title>head g2 clausal complement&#45;&gt;said</title>
<path fill="none" stroke="#000000" d="M110.8166,-428.0752C111.3695,-391.4086 112.6185,-308.5731 113.278,-264.8299"/>
<polygon fill="#000000" stroke="#000000" points="116.781,-264.6545 113.4322,-254.6029 109.7818,-264.5489 116.781,-264.6545"/>
</g>
<!-- report&#45;&gt;head g2 direct object -->
<g id="edge41" class="edge">
<title>report&#45;&gt;head g2 direct object</title>
<path fill="none" stroke="#000000" d="M613.5724,-200.817C618.8237,-168.6495 629.8584,-101.0546 636.111,-62.7533"/>
<polygon fill="#000000" stroke="#000000" points="639.582,-63.2143 637.739,-52.781 632.6734,-62.0864 639.582,-63.2143"/>
<text text-anchor="middle" x="612.4348" y="-129.6416" font-family="Times,serif" font-size="14.00" fill="#000000">head</text>
</g>
<!-- Cole -->
<g id="node34" class="node">
<title>Cole</title>
<ellipse fill="none" stroke="#000000" cx="735.4883" cy="-198.8578" rx="27" ry="18"/>
<text text-anchor="middle" x="735.4883" y="-194.6578" font-family="Times,serif" font-size="14.00" fill="#000000">Cole</text>
</g>
<!-- head g1 punctuation&#45;&gt;Cole -->
<g id="edge42" class="edge">
<title>head g1 punctuation&#45;&gt;Cole</title>
<path fill="none" stroke="#000000" d="M705.3606,-343.6768C711.2376,-315.427 722.655,-260.5455 729.6227,-227.0529"/>
<polygon fill="#000000" stroke="#000000" points="733.1057,-227.4944 731.7159,-216.9911 726.2525,-226.0686 733.1057,-227.4944"/>
</g>
<!-- Cole&#45;&gt;head g2 direct object -->
<g id="edge43" class="edge">
<title>Cole&#45;&gt;head g2 direct object</title>
<path fill="none" stroke="#000000" d="M725.7,-181.9107C709.2679,-153.4608 676.0052,-95.871 656.3104,-61.7722"/>
<polygon fill="#000000" stroke="#000000" points="659.1728,-59.7301 651.1405,-52.8213 653.1113,-63.2312 659.1728,-59.7301"/>
<text text-anchor="middle" x="675.0966" y="-119.9759" font-family="Times,serif" font-size="14.00" fill="#000000">head</text>
</g>
<!-- head g1 appositional modifier&#45;&gt;USS -->
<g id="edge44" class="edge">
<title>head g1 appositional modifier&#45;&gt;USS</title>
<path fill="none" stroke="#000000" d="M717.3226,-667.7111C720.4032,-691.2248 725.8046,-732.4518 729.4294,-760.1189"/>
<polygon fill="#000000" stroke="#000000" points="725.9999,-760.8862 730.7694,-770.3468 732.9406,-759.9768 725.9999,-760.8862"/>
</g>
<!-- be -->
<g id="node39" class="node">
<title>be</title>
<ellipse fill="none" stroke="#000000" cx="868.7867" cy="-927.4942" rx="27" ry="18"/>
<text text-anchor="middle" x="868.7867" y="-923.2942" font-family="Times,serif" font-size="14.00" fill="#000000">be</text>
</g>
<!-- head g2 noun phrase as adverbial modifier&#45;&gt;be -->
<g id="edge45" class="edge">
<title>head g2 noun phrase as adverbial modifier&#45;&gt;be</title>
<path fill="none" stroke="#000000" d="M786.6762,-930.1875C803.1094,-929.6484 818.5184,-929.143 831.4496,-928.7189"/>
<polygon fill="#000000" stroke="#000000" points="831.8172,-932.2088 841.697,-928.3827 831.5876,-925.2125 831.8172,-932.2088"/>
</g>
<!-- used&#45;&gt;head g2 relcl -->
<g id="edge46" class="edge">
<title>used&#45;&gt;head g2 relcl</title>
<path fill="none" stroke="#000000" d="M414.4109,-526.0552C394.5363,-568.732 343.4213,-678.4908 319.4876,-729.8835"/>
<polygon fill="#000000" stroke="#000000" points="316.2634,-728.5164 315.2145,-739.0592 322.609,-731.4716 316.2634,-728.5164"/>
<text text-anchor="middle" x="351.6163" y="-635.3198" font-family="Times,serif" font-size="14.00" fill="#000000">head</text>
</g>
</g>
</svg>
