<?xml version="1.0" encoding="UTF-8" standalone="no"?>
<!DOCTYPE svg PUBLIC "-//W3C//DTD SVG 1.1//EN"
 "http://www.w3.org/Graphics/SVG/1.1/DTD/svg11.dtd">
<!-- Generated by graphviz version 2.40.1 (20161225.0304)
 -->
<!-- Title: %3 Pages: 1 -->
<svg width="567pt" height="188pt"
 viewBox="0.00 0.00 566.54 188.00" xmlns="http://www.w3.org/2000/svg" xmlns:xlink="http://www.w3.org/1999/xlink">
<g id="graph0" class="graph" transform="scale(1 1) rotate(0) translate(4 184)">
<title>%3</title>
<polygon fill="#ffffff" stroke="transparent" points="-4,4 -4,-184 562.545,-184 562.545,4 -4,4"/>
<!-- QUANTITY -->
<g id="node1" class="node">
<title>QUANTITY</title>
<ellipse fill="none" stroke="#000000" cx="329.9513" cy="-162" rx="55.5768" ry="18"/>
<text text-anchor="middle" x="329.9513" y="-157.8" font-family="Times,serif" font-size="14.00" fill="#000000">QUANTITY</text>
</g>
<!-- noun phrase as adverbial modifier -->
<g id="node2" class="node">
<title>noun phrase as adverbial modifier</title>
<ellipse fill="none" stroke="#000000" cx="129.9513" cy="-90" rx="129.9027" ry="18"/>
<text text-anchor="middle" x="129.9513" y="-85.8" font-family="Times,serif" font-size="14.00" fill="#000000">noun phrase as adverbial modifier</text>
</g>
<!-- QUANTITY&#45;&#45;noun phrase as adverbial modifier -->
<g id="edge1" class="edge">
<title>QUANTITY&#45;&#45;noun phrase as adverbial modifier</title>
<path fill="none" stroke="#000000" d="M292.3329,-148.4574C259.6312,-136.6848 212.1107,-119.5774 176.9194,-106.9085"/>
</g>
<!-- punctuation -->
<g id="node6" class="node">
<title>punctuation</title>
<ellipse fill="none" stroke="#000000" cx="329.9513" cy="-90" rx="51.7174" ry="18"/>
<text text-anchor="middle" x="329.9513" y="-85.8" font-family="Times,serif" font-size="14.00" fill="#000000">punctuation</text>
</g>
<!-- QUANTITY&#45;&#45;punctuation -->
<g id="edge2" class="edge">
<title>QUANTITY&#45;&#45;punctuation</title>
<path fill="none" stroke="#000000" d="M329.9513,-143.8314C329.9513,-133 329.9513,-119.2876 329.9513,-108.4133"/>
</g>
<!-- head of prep phrase -->
<g id="node8" class="node">
<title>head of prep phrase</title>
<ellipse fill="none" stroke="#000000" cx="478.9513" cy="-90" rx="79.6874" ry="18"/>
<text text-anchor="middle" x="478.9513" y="-85.8" font-family="Times,serif" font-size="14.00" fill="#000000">head of prep phrase</text>
</g>
<!-- QUANTITY&#45;&#45;head of prep phrase -->
<g id="edge3" class="edge">
<title>QUANTITY&#45;&#45;head of prep phrase</title>
<path fill="none" stroke="#000000" d="M361.1866,-146.9064C385.7631,-135.0305 419.9526,-118.5095 445.1642,-106.3267"/>
</g>
<!-- from -->
<g id="node3" class="node">
<title>from</title>
<ellipse fill="none" stroke="#000000" cx="55.9513" cy="-18" rx="27.0958" ry="18"/>
<text text-anchor="middle" x="55.9513" y="-13.8" font-family="Times,serif" font-size="14.00" fill="#000000">from</text>
</g>
<!-- noun phrase as adverbial modifier&#45;&#45;from -->
<g id="edge4" class="edge">
<title>noun phrase as adverbial modifier&#45;&#45;from</title>
<path fill="none" stroke="#000000" d="M111.278,-71.8314C98.9469,-59.8336 82.9826,-44.3007 71.3741,-33.0059"/>
</g>
<!-- away -->
<g id="node4" class="node">
<title>away</title>
<ellipse fill="none" stroke="#000000" cx="129.9513" cy="-18" rx="28.5325" ry="18"/>
<text text-anchor="middle" x="129.9513" y="-13.8" font-family="Times,serif" font-size="14.00" fill="#000000">away</text>
</g>
<!-- noun phrase as adverbial modifier&#45;&#45;away -->
<g id="edge5" class="edge">
<title>noun phrase as adverbial modifier&#45;&#45;away</title>
<path fill="none" stroke="#000000" d="M129.9513,-71.8314C129.9513,-61 129.9513,-47.2876 129.9513,-36.4133"/>
</g>
<!-- down -->
<g id="node5" class="node">
<title>down</title>
<ellipse fill="none" stroke="#000000" cx="206.9513" cy="-18" rx="29.5189" ry="18"/>
<text text-anchor="middle" x="206.9513" y="-13.8" font-family="Times,serif" font-size="14.00" fill="#000000">down</text>
</g>
<!-- noun phrase as adverbial modifier&#45;&#45;down -->
<g id="edge6" class="edge">
<title>noun phrase as adverbial modifier&#45;&#45;down</title>
<path fill="none" stroke="#000000" d="M149.3817,-71.8314C162.1236,-59.9169 178.5936,-44.5163 190.651,-33.2418"/>
</g>
<!-- body -->
<g id="node7" class="node">
<title>body</title>
<ellipse fill="none" stroke="#000000" cx="329.9513" cy="-18" rx="27.589" ry="18"/>
<text text-anchor="middle" x="329.9513" y="-13.8" font-family="Times,serif" font-size="14.00" fill="#000000">body</text>
</g>
<!-- punctuation&#45;&#45;body -->
<g id="edge7" class="edge">
<title>punctuation&#45;&#45;body</title>
<path fill="none" stroke="#000000" d="M329.9513,-71.8314C329.9513,-61 329.9513,-47.2876 329.9513,-36.4133"/>
</g>
<!-- flies -->
<g id="node9" class="node">
<title>flies</title>
<ellipse fill="none" stroke="#000000" cx="478.9513" cy="-18" rx="27" ry="18"/>
<text text-anchor="middle" x="478.9513" y="-13.8" font-family="Times,serif" font-size="14.00" fill="#000000">flies</text>
</g>
<!-- head of prep phrase&#45;&#45;flies -->
<g id="edge8" class="edge">
<title>head of prep phrase&#45;&#45;flies</title>
<path fill="none" stroke="#000000" d="M478.9513,-71.8314C478.9513,-61 478.9513,-47.2876 478.9513,-36.4133"/>
</g>
</g>
</svg>
