<?xml version="1.0" encoding="UTF-8" standalone="no"?>
<!DOCTYPE svg PUBLIC "-//W3C//DTD SVG 1.1//EN"
 "http://www.w3.org/Graphics/SVG/1.1/DTD/svg11.dtd">
<!-- Generated by graphviz version 2.40.1 (20161225.0304)
 -->
<!-- Title: %3 Pages: 1 -->
<svg width="328pt" height="457pt"
 viewBox="0.00 0.00 327.82 457.32" xmlns="http://www.w3.org/2000/svg" xmlns:xlink="http://www.w3.org/1999/xlink">
<g id="graph0" class="graph" transform="scale(1 1) rotate(0) translate(4 453.3214)">
<title>%3</title>
<polygon fill="#ffffff" stroke="transparent" points="-4,4 -4,-453.3214 323.8206,-453.3214 323.8206,4 -4,4"/>
<!-- QUANTITY -->
<g id="node1" class="node">
<title>QUANTITY</title>
<ellipse fill="none" stroke="#000000" cx="144.4129" cy="-298.6979" rx="55.5768" ry="18"/>
<text text-anchor="middle" x="144.4129" y="-294.4979" font-family="Times,serif" font-size="14.00" fill="#000000">QUANTITY</text>
<text text-anchor="middle" x="85.1249" y="-319.4979" font-family="Times,serif" font-size="14.00" fill="#000000">1</text>
</g>
<!-- head g1 noun phrase as adverbial modifier -->
<g id="node2" class="node">
<title>head g1 noun phrase as adverbial modifier</title>
<ellipse fill="none" stroke="#000000" cx="159.9103" cy="-226.9097" rx="159.8207" ry="18"/>
<text text-anchor="middle" x="159.9103" y="-222.7097" font-family="Times,serif" font-size="14.00" fill="#000000">head g1 noun phrase as adverbial modifier</text>
</g>
<!-- QUANTITY&#45;&gt;head g1 noun phrase as adverbial modifier -->
<g id="edge1" class="edge">
<title>QUANTITY&#45;&gt;head g1 noun phrase as adverbial modifier</title>
<path fill="none" stroke="#000000" d="M148.3236,-280.5827C149.981,-272.905 151.9519,-263.7753 153.7939,-255.2428"/>
<polygon fill="#000000" stroke="#000000" points="157.258,-255.7822 155.947,-245.2688 150.4156,-254.3051 157.258,-255.7822"/>
<text text-anchor="middle" x="138.917" y="-265.7463" font-family="Times,serif" font-size="14.00" fill="#000000">head</text>
</g>
<!-- child g1 nummod -->
<g id="node4" class="node">
<title>child g1 nummod</title>
<ellipse fill="none" stroke="#000000" cx="130.3048" cy="-374.1803" rx="72.4981" ry="18"/>
<text text-anchor="middle" x="130.3048" y="-369.9803" font-family="Times,serif" font-size="14.00" fill="#000000">child g1 nummod</text>
</g>
<!-- QUANTITY&#45;&gt;child g1 nummod -->
<g id="edge2" class="edge">
<title>QUANTITY&#45;&gt;child g1 nummod</title>
<path fill="none" stroke="#000000" d="M140.9977,-316.9701C139.3688,-325.6854 137.3833,-336.3082 135.5675,-346.0235"/>
<polygon fill="#000000" stroke="#000000" points="132.0855,-345.6035 133.6886,-356.0764 138.9663,-346.8897 132.0855,-345.6035"/>
<text text-anchor="middle" x="123.3946" y="-339.0663" font-family="Times,serif" font-size="14.00" fill="#000000">child</text>
</g>
<!-- from -->
<g id="node3" class="node">
<title>from</title>
<ellipse fill="none" stroke="#000000" cx="169.6723" cy="-154.8933" rx="27.0958" ry="18"/>
<text text-anchor="middle" x="169.6723" y="-150.6933" font-family="Times,serif" font-size="14.00" fill="#000000">from</text>
</g>
<!-- head g1 noun phrase as adverbial modifier&#45;&gt;from -->
<g id="edge3" class="edge">
<title>head g1 noun phrase as adverbial modifier&#45;&gt;from</title>
<path fill="none" stroke="#000000" d="M162.3737,-208.737C163.4177,-201.0348 164.6592,-191.8761 165.8195,-183.3164"/>
<polygon fill="#000000" stroke="#000000" points="169.3007,-183.6903 167.1758,-173.3108 162.3642,-182.75 169.3007,-183.6903"/>
</g>
<!-- head g2 prepositional modifier -->
<g id="node7" class="node">
<title>head g2 prepositional modifier</title>
<ellipse fill="none" stroke="#000000" cx="181.4595" cy="-83.2799" rx="118.3354" ry="18"/>
<text text-anchor="middle" x="181.4595" y="-79.0799" font-family="Times,serif" font-size="14.00" fill="#000000">head g2 prepositional modifier</text>
</g>
<!-- from&#45;&gt;head g2 prepositional modifier -->
<g id="edge4" class="edge">
<title>from&#45;&gt;head g2 prepositional modifier</title>
<path fill="none" stroke="#000000" d="M172.6467,-136.8222C173.9073,-129.1632 175.4064,-120.0557 176.8074,-111.544"/>
<polygon fill="#000000" stroke="#000000" points="180.2744,-112.03 178.445,-101.5943 173.3673,-110.8931 180.2744,-112.03"/>
<text text-anchor="middle" x="162.3286" y="-122.0288" font-family="Times,serif" font-size="14.00" fill="#000000">head</text>
</g>
<!-- 5 -->
<g id="node5" class="node">
<title>5</title>
<ellipse fill="none" stroke="#000000" cx="184.3733" cy="-431.3214" rx="27" ry="18"/>
<text text-anchor="middle" x="184.3733" y="-427.1214" font-family="Times,serif" font-size="14.00" fill="#000000">5</text>
</g>
<!-- child g1 nummod&#45;&gt;5 -->
<g id="edge5" class="edge">
<title>child g1 nummod&#45;&gt;5</title>
<path fill="none" stroke="#000000" d="M147.1161,-391.9468C152.1458,-397.2624 157.7292,-403.1631 163.0102,-408.7443"/>
<polygon fill="#000000" stroke="#000000" points="160.5285,-411.2138 169.9439,-416.0719 165.6131,-406.4027 160.5285,-411.2138"/>
</g>
<!-- 000 -->
<g id="node6" class="node">
<title>000</title>
<ellipse fill="none" stroke="#000000" cx="59.0248" cy="-407.4376" rx="27" ry="18"/>
<text text-anchor="middle" x="59.0248" y="-403.2376" font-family="Times,serif" font-size="14.00" fill="#000000">000</text>
</g>
<!-- child g1 nummod&#45;&gt;000 -->
<g id="edge6" class="edge">
<title>child g1 nummod&#45;&gt;000</title>
<path fill="none" stroke="#000000" d="M95.9176,-390.2245C94.2043,-391.0238 92.4871,-391.825 90.7819,-392.6206"/>
<polygon fill="#000000" stroke="#000000" points="88.8399,-389.6644 81.2576,-397.0644 91.7996,-396.0079 88.8399,-389.6644"/>
</g>
<!-- be -->
<g id="node8" class="node">
<title>be</title>
<ellipse fill="none" stroke="#000000" cx="213.3413" cy="-18" rx="27" ry="18"/>
<text text-anchor="middle" x="213.3413" y="-13.8" font-family="Times,serif" font-size="14.00" fill="#000000">be</text>
</g>
<!-- head g2 prepositional modifier&#45;&gt;be -->
<g id="edge7" class="edge">
<title>head g2 prepositional modifier&#45;&gt;be</title>
<path fill="none" stroke="#000000" d="M190.3403,-65.0958C193.4818,-58.6635 197.0817,-51.2926 200.4863,-44.3214"/>
<polygon fill="#000000" stroke="#000000" points="203.7029,-45.7105 204.9465,-35.1889 197.413,-42.6385 203.7029,-45.7105"/>
</g>
</g>
</svg>
