<?xml version="1.0" encoding="UTF-8" standalone="no"?>
<!DOCTYPE svg PUBLIC "-//W3C//DTD SVG 1.1//EN"
 "http://www.w3.org/Graphics/SVG/1.1/DTD/svg11.dtd">
<!-- Generated by graphviz version 2.40.1 (20161225.0304)
 -->
<!-- Title: %3 Pages: 1 -->
<svg width="362pt" height="417pt"
 viewBox="0.00 0.00 361.95 416.93" xmlns="http://www.w3.org/2000/svg" xmlns:xlink="http://www.w3.org/1999/xlink">
<g id="graph0" class="graph" transform="scale(1 1) rotate(0) translate(4 412.9297)">
<title>%3</title>
<polygon fill="#ffffff" stroke="transparent" points="-4,4 -4,-412.9297 357.9525,-412.9297 357.9525,4 -4,4"/>
<!-- QUANTITY -->
<g id="node1" class="node">
<title>QUANTITY</title>
<ellipse fill="none" stroke="#000000" cx="215.6216" cy="-264.9099" rx="55.5768" ry="18"/>
<text text-anchor="middle" x="215.6216" y="-260.7099" font-family="Times,serif" font-size="14.00" fill="#000000">QUANTITY</text>
<text text-anchor="middle" x="156.3336" y="-285.7099" font-family="Times,serif" font-size="14.00" fill="#000000">1</text>
</g>
<!-- head g1 noun phrase as adverbial modifier -->
<g id="node2" class="node">
<title>head g1 noun phrase as adverbial modifier</title>
<ellipse fill="none" stroke="#000000" cx="194.0422" cy="-195.8316" rx="159.8207" ry="18"/>
<text text-anchor="middle" x="194.0422" y="-191.6316" font-family="Times,serif" font-size="14.00" fill="#000000">head g1 noun phrase as adverbial modifier</text>
</g>
<!-- QUANTITY&#45;&gt;head g1 noun phrase as adverbial modifier -->
<g id="edge1" class="edge">
<title>QUANTITY&#45;&gt;head g1 noun phrase as adverbial modifier</title>
<path fill="none" stroke="#000000" d="M209.9519,-246.7604C207.7638,-239.7562 205.2101,-231.5814 202.7972,-223.8575"/>
<polygon fill="#000000" stroke="#000000" points="206.0717,-222.6012 199.749,-214.0997 199.3901,-224.6885 206.0717,-222.6012"/>
<text text-anchor="middle" x="191.6414" y="-233.2454" font-family="Times,serif" font-size="14.00" fill="#000000">head</text>
</g>
<!-- child g1 nummod -->
<g id="node4" class="node">
<title>child g1 nummod</title>
<ellipse fill="none" stroke="#000000" cx="243.6446" cy="-331.5101" rx="72.4981" ry="18"/>
<text text-anchor="middle" x="243.6446" y="-327.3101" font-family="Times,serif" font-size="14.00" fill="#000000">child g1 nummod</text>
</g>
<!-- QUANTITY&#45;&gt;child g1 nummod -->
<g id="edge2" class="edge">
<title>QUANTITY&#45;&gt;child g1 nummod</title>
<path fill="none" stroke="#000000" d="M223.1313,-282.7575C225.8509,-289.2211 228.9904,-296.6826 231.9828,-303.7944"/>
<polygon fill="#000000" stroke="#000000" points="228.8144,-305.2889 235.9188,-313.1488 235.2665,-302.5741 228.8144,-305.2889"/>
<text text-anchor="middle" x="215.4391" y="-300.5408" font-family="Times,serif" font-size="14.00" fill="#000000">child</text>
</g>
<!-- headleaf from -->
<g id="node3" class="node">
<title>headleaf from</title>
<ellipse fill="none" stroke="#000000" cx="161.6138" cy="-131.1337" rx="59.4081" ry="18"/>
<text text-anchor="middle" x="161.6138" y="-126.9337" font-family="Times,serif" font-size="14.00" fill="#000000">headleaf from</text>
</g>
<!-- head g1 noun phrase as adverbial modifier&#45;&gt;headleaf from -->
<g id="edge3" class="edge">
<title>head g1 noun phrase as adverbial modifier&#45;&gt;headleaf from</title>
<path fill="none" stroke="#000000" d="M185.0091,-177.8096C181.9871,-171.7805 178.5481,-164.9193 175.2545,-158.3482"/>
<polygon fill="#000000" stroke="#000000" points="178.2084,-156.4305 170.5985,-149.059 171.9505,-159.5672 178.2084,-156.4305"/>
</g>
<!-- head g2 prepositional modifier -->
<g id="node6" class="node">
<title>head g2 prepositional modifier</title>
<ellipse fill="none" stroke="#000000" cx="118.4177" cy="-73.1104" rx="118.3354" ry="18"/>
<text text-anchor="middle" x="118.4177" y="-68.9104" font-family="Times,serif" font-size="14.00" fill="#000000">head g2 prepositional modifier</text>
</g>
<!-- headleaf from&#45;&gt;head g2 prepositional modifier -->
<g id="edge4" class="edge">
<title>headleaf from&#45;&gt;head g2 prepositional modifier</title>
<path fill="none" stroke="#000000" d="M148.4189,-113.4095C145.1314,-108.9936 141.5362,-104.1644 138.0128,-99.4315"/>
<polygon fill="#000000" stroke="#000000" points="140.609,-97.0577 131.83,-91.1265 134.9941,-101.2378 140.609,-97.0577"/>
<text text-anchor="middle" x="126.7859" y="-104.9006" font-family="Times,serif" font-size="14.00" fill="#000000">head</text>
</g>
<!-- childleaf 5,000 -->
<g id="node5" class="node">
<title>childleaf 5,000</title>
<ellipse fill="none" stroke="#000000" cx="284.7894" cy="-390.9297" rx="63.301" ry="18"/>
<text text-anchor="middle" x="284.7894" y="-386.7297" font-family="Times,serif" font-size="14.00" fill="#000000">childleaf 5,000</text>
</g>
<!-- child g1 nummod&#45;&gt;childleaf 5,000 -->
<g id="edge5" class="edge">
<title>child g1 nummod&#45;&gt;childleaf 5,000</title>
<path fill="none" stroke="#000000" d="M255.9894,-349.3379C259.3255,-354.1558 263.0072,-359.4728 266.5915,-364.649"/>
<polygon fill="#000000" stroke="#000000" points="263.8829,-366.8856 272.4533,-373.1144 269.6379,-362.9005 263.8829,-366.8856"/>
</g>
<!-- headleaf be -->
<g id="node7" class="node">
<title>headleaf be</title>
<ellipse fill="none" stroke="#000000" cx="71.7945" cy="-18" rx="50.7214" ry="18"/>
<text text-anchor="middle" x="71.7945" y="-13.8" font-family="Times,serif" font-size="14.00" fill="#000000">headleaf be</text>
</g>
<!-- head g2 prepositional modifier&#45;&gt;headleaf be -->
<g id="edge6" class="edge">
<title>head g2 prepositional modifier&#45;&gt;headleaf be</title>
<path fill="none" stroke="#000000" d="M103.1515,-55.0652C99.9978,-51.3375 96.6203,-47.345 93.2923,-43.4112"/>
<polygon fill="#000000" stroke="#000000" points="95.7493,-40.8964 86.6184,-35.5225 90.4051,-45.4175 95.7493,-40.8964"/>
</g>
</g>
</svg>
