<?xml version="1.0" encoding="UTF-8" standalone="no"?>
<!DOCTYPE svg PUBLIC "-//W3C//DTD SVG 1.1//EN"
 "http://www.w3.org/Graphics/SVG/1.1/DTD/svg11.dtd">
<!-- Generated by graphviz version 2.40.1 (20161225.0304)
 -->
<!-- Title: %3 Pages: 1 -->
<svg width="2140pt" height="332pt"
 viewBox="0.00 0.00 2139.78 332.00" xmlns="http://www.w3.org/2000/svg" xmlns:xlink="http://www.w3.org/1999/xlink">
<g id="graph0" class="graph" transform="scale(1 1) rotate(0) translate(4 328)">
<title>%3</title>
<polygon fill="#ffffff" stroke="transparent" points="-4,4 -4,-328 2135.78,-328 2135.78,4 -4,4"/>
<!-- TIME -->
<g id="node1" class="node">
<title>TIME</title>
<ellipse fill="none" stroke="#000000" cx="1831.6595" cy="-306" rx="31.9393" ry="18"/>
<text text-anchor="middle" x="1831.6595" y="-301.8" font-family="Times,serif" font-size="14.00" fill="#000000">TIME</text>
</g>
<!-- noun phrase as adverbial modifier -->
<g id="node2" class="node">
<title>noun phrase as adverbial modifier</title>
<ellipse fill="none" stroke="#000000" cx="865.6595" cy="-234" rx="129.9027" ry="18"/>
<text text-anchor="middle" x="865.6595" y="-229.8" font-family="Times,serif" font-size="14.00" fill="#000000">noun phrase as adverbial modifier</text>
</g>
<!-- TIME&#45;&#45;noun phrase as adverbial modifier -->
<g id="edge1" class="edge">
<title>TIME&#45;&#45;noun phrase as adverbial modifier</title>
<path fill="none" stroke="#000000" d="M1800.0682,-303.6454C1673.7422,-294.2298 1201.1298,-259.004 980.4813,-242.5581"/>
</g>
<!-- head of prep phrase -->
<g id="node4" class="node">
<title>head of prep phrase</title>
<ellipse fill="none" stroke="#000000" cx="1447.6595" cy="-90" rx="79.6874" ry="18"/>
<text text-anchor="middle" x="1447.6595" y="-85.8" font-family="Times,serif" font-size="14.00" fill="#000000">head of prep phrase</text>
</g>
<!-- TIME&#45;&#45;head of prep phrase -->
<g id="edge2" class="edge">
<title>TIME&#45;&#45;head of prep phrase</title>
<path fill="none" stroke="#000000" d="M1816.5578,-290.0076C1807.5115,-279.7658 1796.3185,-265.8414 1788.6595,-252 1764.0234,-207.477 1789.4329,-176.9524 1750.6595,-144 1717.3239,-115.669 1602.6619,-101.4876 1524.3535,-94.946"/>
</g>
<!-- ROOT -->
<g id="node12" class="node">
<title>ROOT</title>
<ellipse fill="none" stroke="#000000" cx="1831.6595" cy="-234" rx="34.3614" ry="18"/>
<text text-anchor="middle" x="1831.6595" y="-229.8" font-family="Times,serif" font-size="14.00" fill="#000000">ROOT</text>
</g>
<!-- TIME&#45;&#45;ROOT -->
<g id="edge3" class="edge">
<title>TIME&#45;&#45;ROOT</title>
<path fill="none" stroke="#000000" d="M1831.6595,-287.8314C1831.6595,-277 1831.6595,-263.2876 1831.6595,-252.4133"/>
</g>
<!-- marker -->
<g id="node26" class="node">
<title>marker</title>
<ellipse fill="none" stroke="#000000" cx="1918.6595" cy="-234" rx="35.2956" ry="18"/>
<text text-anchor="middle" x="1918.6595" y="-229.8" font-family="Times,serif" font-size="14.00" fill="#000000">marker</text>
</g>
<!-- TIME&#45;&#45;marker -->
<g id="edge4" class="edge">
<title>TIME&#45;&#45;marker</title>
<path fill="none" stroke="#000000" d="M1849.686,-291.0816C1864.4182,-278.8893 1885.1693,-261.7161 1900.0559,-249.3961"/>
</g>
<!-- possession modifier -->
<g id="node35" class="node">
<title>possession modifier</title>
<ellipse fill="none" stroke="#000000" cx="2051.6595" cy="-234" rx="80.2411" ry="18"/>
<text text-anchor="middle" x="2051.6595" y="-229.8" font-family="Times,serif" font-size="14.00" fill="#000000">possession modifier</text>
</g>
<!-- TIME&#45;&#45;possession modifier -->
<g id="edge5" class="edge">
<title>TIME&#45;&#45;possession modifier</title>
<path fill="none" stroke="#000000" d="M1859.5227,-296.8812C1896.4064,-284.8101 1961.9146,-263.3711 2006.0608,-248.9232"/>
</g>
<!-- is -->
<g id="node3" class="node">
<title>is</title>
<ellipse fill="none" stroke="#000000" cx="1447.6595" cy="-162" rx="27" ry="18"/>
<text text-anchor="middle" x="1447.6595" y="-157.8" font-family="Times,serif" font-size="14.00" fill="#000000">is</text>
</g>
<!-- noun phrase as adverbial modifier&#45;&#45;is -->
<g id="edge6" class="edge">
<title>noun phrase as adverbial modifier&#45;&#45;is</title>
<path fill="none" stroke="#000000" d="M986.0902,-227.2088C1122.0943,-218.6382 1334.5008,-202.2804 1411.6595,-180 1416.896,-178.4879 1422.2835,-176.2262 1427.244,-173.8121"/>
</g>
<!-- made -->
<g id="node6" class="node">
<title>made</title>
<ellipse fill="none" stroke="#000000" cx="1521.6595" cy="-162" rx="29.0172" ry="18"/>
<text text-anchor="middle" x="1521.6595" y="-157.8" font-family="Times,serif" font-size="14.00" fill="#000000">made</text>
</g>
<!-- noun phrase as adverbial modifier&#45;&#45;made -->
<g id="edge7" class="edge">
<title>noun phrase as adverbial modifier&#45;&#45;made</title>
<path fill="none" stroke="#000000" d="M989.4058,-228.3736C1142.4024,-220.5152 1393.615,-204.4139 1483.6595,-180 1489.0141,-178.5482 1494.5386,-176.372 1499.6601,-174.0294"/>
</g>
<!-- attacked -->
<g id="node9" class="node">
<title>attacked</title>
<ellipse fill="none" stroke="#000000" cx="1608.6595" cy="-162" rx="39.6299" ry="18"/>
<text text-anchor="middle" x="1608.6595" y="-157.8" font-family="Times,serif" font-size="14.00" fill="#000000">attacked</text>
</g>
<!-- noun phrase as adverbial modifier&#45;&#45;attacked -->
<g id="edge8" class="edge">
<title>noun phrase as adverbial modifier&#45;&#45;attacked</title>
<path fill="none" stroke="#000000" d="M989.3436,-228.4545C1158.8616,-220.1527 1454.3543,-202.9794 1559.6595,-180 1566.2118,-178.5702 1573.0703,-176.463 1579.5106,-174.1894"/>
</g>
<!-- confirm -->
<g id="node10" class="node">
<title>confirm</title>
<ellipse fill="none" stroke="#000000" cx="1703.6595" cy="-162" rx="37.7352" ry="18"/>
<text text-anchor="middle" x="1703.6595" y="-157.8" font-family="Times,serif" font-size="14.00" fill="#000000">confirm</text>
</g>
<!-- noun phrase as adverbial modifier&#45;&#45;confirm -->
<g id="edge9" class="edge">
<title>noun phrase as adverbial modifier&#45;&#45;confirm</title>
<path fill="none" stroke="#000000" d="M992.5069,-230.0467C1183.2496,-223.3048 1534.6931,-207.5664 1657.6595,-180 1663.6845,-178.6493 1669.9591,-176.6346 1675.8664,-174.4361"/>
</g>
<!-- relived -->
<g id="node11" class="node">
<title>relived</title>
<ellipse fill="none" stroke="#000000" cx="34.6595" cy="-162" rx="34.8198" ry="18"/>
<text text-anchor="middle" x="34.6595" y="-157.8" font-family="Times,serif" font-size="14.00" fill="#000000">relived</text>
</g>
<!-- noun phrase as adverbial modifier&#45;&#45;relived -->
<g id="edge10" class="edge">
<title>noun phrase as adverbial modifier&#45;&#45;relived</title>
<path fill="none" stroke="#000000" d="M738.3916,-230.1998C548.5194,-223.6923 200.3835,-208.2972 78.6595,-180 72.7107,-178.6171 66.5245,-176.5296 60.7352,-174.2605"/>
</g>
<!-- wait -->
<g id="node14" class="node">
<title>wait</title>
<ellipse fill="none" stroke="#000000" cx="114.6595" cy="-162" rx="27" ry="18"/>
<text text-anchor="middle" x="114.6595" y="-157.8" font-family="Times,serif" font-size="14.00" fill="#000000">wait</text>
</g>
<!-- noun phrase as adverbial modifier&#45;&#45;wait -->
<g id="edge11" class="edge">
<title>noun phrase as adverbial modifier&#45;&#45;wait</title>
<path fill="none" stroke="#000000" d="M738.1942,-230.2831C563.1189,-224.1651 257.752,-209.5827 150.6595,-180 145.4059,-178.5488 140.0116,-176.3108 135.0502,-173.9004"/>
</g>
<!-- offering -->
<g id="node15" class="node">
<title>offering</title>
<ellipse fill="none" stroke="#000000" cx="197.6595" cy="-162" rx="38.3672" ry="18"/>
<text text-anchor="middle" x="197.6595" y="-157.8" font-family="Times,serif" font-size="14.00" fill="#000000">offering</text>
</g>
<!-- noun phrase as adverbial modifier&#45;&#45;offering -->
<g id="edge12" class="edge">
<title>noun phrase as adverbial modifier&#45;&#45;offering</title>
<path fill="none" stroke="#000000" d="M744.7805,-227.3804C591.9076,-218.3295 337.5335,-200.8174 245.6595,-180 239.2363,-178.5446 232.5158,-176.4266 226.2066,-174.1506"/>
</g>
<!-- conceded -->
<g id="node16" class="node">
<title>conceded</title>
<ellipse fill="none" stroke="#000000" cx="297.6595" cy="-162" rx="43.4887" ry="18"/>
<text text-anchor="middle" x="297.6595" y="-157.8" font-family="Times,serif" font-size="14.00" fill="#000000">conceded</text>
</g>
<!-- noun phrase as adverbial modifier&#45;&#45;conceded -->
<g id="edge13" class="edge">
<title>noun phrase as adverbial modifier&#45;&#45;conceded</title>
<path fill="none" stroke="#000000" d="M743.0193,-227.9593C638.8335,-221.1838 485.7648,-207.3391 354.6595,-180 346.8371,-178.3688 338.5636,-176.0904 330.8181,-173.7018"/>
</g>
<!-- went -->
<g id="node17" class="node">
<title>went</title>
<ellipse fill="none" stroke="#000000" cx="724.6595" cy="-18" rx="27.0958" ry="18"/>
<text text-anchor="middle" x="724.6595" y="-13.8" font-family="Times,serif" font-size="14.00" fill="#000000">went</text>
</g>
<!-- noun phrase as adverbial modifier&#45;&#45;went -->
<g id="edge14" class="edge">
<title>noun phrase as adverbial modifier&#45;&#45;went</title>
<path fill="none" stroke="#000000" d="M741.8326,-228.4353C608.1081,-221.1268 410.9414,-206.0602 387.6595,-180 293.7002,-74.8284 601.9147,-31.4922 697.3746,-20.7825"/>
</g>
<!-- seem -->
<g id="node18" class="node">
<title>seem</title>
<ellipse fill="none" stroke="#000000" cx="424.6595" cy="-162" rx="28.0565" ry="18"/>
<text text-anchor="middle" x="424.6595" y="-157.8" font-family="Times,serif" font-size="14.00" fill="#000000">seem</text>
</g>
<!-- noun phrase as adverbial modifier&#45;&#45;seem -->
<g id="edge15" class="edge">
<title>noun phrase as adverbial modifier&#45;&#45;seem</title>
<path fill="none" stroke="#000000" d="M743.3096,-227.8399C662.0608,-221.2838 553.8001,-207.7799 461.6595,-180 456.4616,-178.4329 451.089,-176.2098 446.1035,-173.8584"/>
</g>
<!-- remain -->
<g id="node19" class="node">
<title>remain</title>
<ellipse fill="none" stroke="#000000" cx="505.6595" cy="-162" rx="34.8198" ry="18"/>
<text text-anchor="middle" x="505.6595" y="-157.8" font-family="Times,serif" font-size="14.00" fill="#000000">remain</text>
</g>
<!-- noun phrase as adverbial modifier&#45;&#45;remain -->
<g id="edge16" class="edge">
<title>noun phrase as adverbial modifier&#45;&#45;remain</title>
<path fill="none" stroke="#000000" d="M765.1327,-222.5437C702.4068,-213.9942 620.4232,-200.2553 549.6595,-180 543.7878,-178.3193 537.6342,-176.1062 531.8522,-173.809"/>
</g>
<!-- have -->
<g id="node20" class="node">
<title>have</title>
<ellipse fill="none" stroke="#000000" cx="585.6595" cy="-162" rx="27" ry="18"/>
<text text-anchor="middle" x="585.6595" y="-157.8" font-family="Times,serif" font-size="14.00" fill="#000000">have</text>
</g>
<!-- noun phrase as adverbial modifier&#45;&#45;have -->
<g id="edge17" class="edge">
<title>noun phrase as adverbial modifier&#45;&#45;have</title>
<path fill="none" stroke="#000000" d="M780.0935,-220.3939C732.6217,-211.5286 672.9789,-198.1954 621.6595,-180 616.6542,-178.2253 611.4479,-175.918 606.6011,-173.5506"/>
</g>
<!-- reports -->
<g id="node22" class="node">
<title>reports</title>
<ellipse fill="none" stroke="#000000" cx="665.6595" cy="-162" rx="34.8285" ry="18"/>
<text text-anchor="middle" x="665.6595" y="-157.8" font-family="Times,serif" font-size="14.00" fill="#000000">reports</text>
</g>
<!-- noun phrase as adverbial modifier&#45;&#45;reports -->
<g id="edge18" class="edge">
<title>noun phrase as adverbial modifier&#45;&#45;reports</title>
<path fill="none" stroke="#000000" d="M815.1743,-217.3101C784.5079,-206.9775 744.653,-193.2029 709.6595,-180 704.2541,-177.9606 698.515,-175.6906 693.0288,-173.4687"/>
</g>
<!-- Back -->
<g id="node23" class="node">
<title>Back</title>
<ellipse fill="none" stroke="#000000" cx="746.6595" cy="-162" rx="28.0565" ry="18"/>
<text text-anchor="middle" x="746.6595" y="-157.8" font-family="Times,serif" font-size="14.00" fill="#000000">Back</text>
</g>
<!-- noun phrase as adverbial modifier&#45;&#45;Back -->
<g id="edge19" class="edge">
<title>noun phrase as adverbial modifier&#45;&#45;Back</title>
<path fill="none" stroke="#000000" d="M836.5489,-216.3868C815.0807,-203.3977 786.3975,-186.0432 767.2646,-174.4669"/>
</g>
<!-- said -->
<g id="node24" class="node">
<title>said</title>
<ellipse fill="none" stroke="#000000" cx="819.6595" cy="-162" rx="27" ry="18"/>
<text text-anchor="middle" x="819.6595" y="-157.8" font-family="Times,serif" font-size="14.00" fill="#000000">said</text>
</g>
<!-- noun phrase as adverbial modifier&#45;&#45;said -->
<g id="edge20" class="edge">
<title>noun phrase as adverbial modifier&#45;&#45;said</title>
<path fill="none" stroke="#000000" d="M854.0518,-215.8314C846.8124,-204.5001 837.5584,-190.0157 830.4735,-178.9263"/>
</g>
<!-- reassessed -->
<g id="node25" class="node">
<title>reassessed</title>
<ellipse fill="none" stroke="#000000" cx="911.6595" cy="-162" rx="46.8805" ry="18"/>
<text text-anchor="middle" x="911.6595" y="-157.8" font-family="Times,serif" font-size="14.00" fill="#000000">reassessed</text>
</g>
<!-- noun phrase as adverbial modifier&#45;&#45;reassessed -->
<g id="edge21" class="edge">
<title>noun phrase as adverbial modifier&#45;&#45;reassessed</title>
<path fill="none" stroke="#000000" d="M877.2673,-215.8314C884.2938,-204.8334 893.218,-190.865 900.2148,-179.9134"/>
</g>
<!-- bringing -->
<g id="node28" class="node">
<title>bringing</title>
<ellipse fill="none" stroke="#000000" cx="1016.6595" cy="-162" rx="40.149" ry="18"/>
<text text-anchor="middle" x="1016.6595" y="-157.8" font-family="Times,serif" font-size="14.00" fill="#000000">bringing</text>
</g>
<!-- noun phrase as adverbial modifier&#45;&#45;bringing -->
<g id="edge22" class="edge">
<title>noun phrase as adverbial modifier&#45;&#45;bringing</title>
<path fill="none" stroke="#000000" d="M902.2124,-216.5708C928.921,-203.8356 964.5842,-186.8306 988.9583,-175.2085"/>
</g>
<!-- witchcraft -->
<g id="node29" class="node">
<title>witchcraft</title>
<ellipse fill="none" stroke="#000000" cx="1120.6595" cy="-162" rx="45.9028" ry="18"/>
<text text-anchor="middle" x="1120.6595" y="-157.8" font-family="Times,serif" font-size="14.00" fill="#000000">witchcraft</text>
</g>
<!-- noun phrase as adverbial modifier&#45;&#45;witchcraft -->
<g id="edge23" class="edge">
<title>noun phrase as adverbial modifier&#45;&#45;witchcraft</title>
<path fill="none" stroke="#000000" d="M927.613,-218.1705C967.2381,-207.8248 1019.6503,-193.7297 1065.6595,-180 1072.1099,-178.0751 1078.9513,-175.9249 1085.5371,-173.799"/>
</g>
<!-- hours -->
<g id="node33" class="node">
<title>hours</title>
<ellipse fill="none" stroke="#000000" cx="1214.6595" cy="-162" rx="29.5189" ry="18"/>
<text text-anchor="middle" x="1214.6595" y="-157.8" font-family="Times,serif" font-size="14.00" fill="#000000">hours</text>
</g>
<!-- noun phrase as adverbial modifier&#45;&#45;hours -->
<g id="edge24" class="edge">
<title>noun phrase as adverbial modifier&#45;&#45;hours</title>
<path fill="none" stroke="#000000" d="M968.4641,-222.9099C1029.5891,-214.6426 1108.1247,-201.0713 1175.6595,-180 1181.0698,-178.312 1186.7049,-176.0398 1191.9547,-173.679"/>
</g>
<!-- was -->
<g id="node34" class="node">
<title>was</title>
<ellipse fill="none" stroke="#000000" cx="1289.6595" cy="-162" rx="27" ry="18"/>
<text text-anchor="middle" x="1289.6595" y="-157.8" font-family="Times,serif" font-size="14.00" fill="#000000">was</text>
</g>
<!-- noun phrase as adverbial modifier&#45;&#45;was -->
<g id="edge25" class="edge">
<title>noun phrase as adverbial modifier&#45;&#45;was</title>
<path fill="none" stroke="#000000" d="M986.7272,-227.3041C1064.3951,-220.545 1166.6221,-207.0161 1253.6595,-180 1258.7315,-178.4257 1263.9648,-176.1997 1268.8167,-173.8477"/>
</g>
<!-- inform -->
<g id="node37" class="node">
<title>inform</title>
<ellipse fill="none" stroke="#000000" cx="1368.6595" cy="-162" rx="34.3527" ry="18"/>
<text text-anchor="middle" x="1368.6595" y="-157.8" font-family="Times,serif" font-size="14.00" fill="#000000">inform</text>
</g>
<!-- noun phrase as adverbial modifier&#45;&#45;inform -->
<g id="edge26" class="edge">
<title>noun phrase as adverbial modifier&#45;&#45;inform</title>
<path fill="none" stroke="#000000" d="M990.4052,-228.7853C1083.9413,-222.617 1214.4402,-209.188 1325.6595,-180 1331.4522,-178.4798 1337.4889,-176.3344 1343.1446,-174.0524"/>
</g>
<!-- is&#45;&#45;head of prep phrase -->
<g id="edge27" class="edge">
<title>is&#45;&#45;head of prep phrase</title>
<path fill="none" stroke="#000000" d="M1447.6595,-143.8314C1447.6595,-133 1447.6595,-119.2876 1447.6595,-108.4133"/>
</g>
<!-- feels -->
<g id="node5" class="node">
<title>feels</title>
<ellipse fill="none" stroke="#000000" cx="1670.6595" cy="-18" rx="27" ry="18"/>
<text text-anchor="middle" x="1670.6595" y="-13.8" font-family="Times,serif" font-size="14.00" fill="#000000">feels</text>
</g>
<!-- head of prep phrase&#45;&#45;feels -->
<g id="edge28" class="edge">
<title>head of prep phrase&#45;&#45;feels</title>
<path fill="none" stroke="#000000" d="M1502.9495,-76.8671C1540.6455,-67.2288 1591.3803,-52.9053 1634.6595,-36 1639.6062,-34.0678 1644.7886,-31.6964 1649.6309,-29.3169"/>
</g>
<!-- get -->
<g id="node7" class="node">
<title>get</title>
<ellipse fill="none" stroke="#000000" cx="1151.6595" cy="-18" rx="27" ry="18"/>
<text text-anchor="middle" x="1151.6595" y="-13.8" font-family="Times,serif" font-size="14.00" fill="#000000">get</text>
</g>
<!-- head of prep phrase&#45;&#45;get -->
<g id="edge29" class="edge">
<title>head of prep phrase&#45;&#45;get</title>
<path fill="none" stroke="#000000" d="M1379.2975,-80.7582C1326.0927,-72.3894 1250.9177,-57.9658 1187.6595,-36 1182.6427,-34.258 1177.4318,-31.9638 1172.5841,-29.5989"/>
</g>
<!-- growing -->
<g id="node8" class="node">
<title>growing</title>
<ellipse fill="none" stroke="#000000" cx="1236.6595" cy="-18" rx="39.6645" ry="18"/>
<text text-anchor="middle" x="1236.6595" y="-13.8" font-family="Times,serif" font-size="14.00" fill="#000000">growing</text>
</g>
<!-- head of prep phrase&#45;&#45;growing -->
<g id="edge30" class="edge">
<title>head of prep phrase&#45;&#45;growing</title>
<path fill="none" stroke="#000000" d="M1401.7962,-75.1224C1369.2888,-64.4774 1324.6913,-49.6709 1285.6595,-36 1279.7578,-33.9329 1273.4777,-31.6725 1267.452,-29.473"/>
</g>
<!-- head of prep phrase&#45;&#45;went -->
<g id="edge32" class="edge">
<title>head of prep phrase&#45;&#45;went</title>
<path fill="none" stroke="#000000" d="M1374.6907,-82.7334C1217.8267,-67.1121 854.4161,-30.9218 751.9791,-20.7206"/>
</g>
<!-- momentum -->
<g id="node21" class="node">
<title>momentum</title>
<ellipse fill="none" stroke="#000000" cx="1344.6595" cy="-18" rx="50.281" ry="18"/>
<text text-anchor="middle" x="1344.6595" y="-13.8" font-family="Times,serif" font-size="14.00" fill="#000000">momentum</text>
</g>
<!-- head of prep phrase&#45;&#45;momentum -->
<g id="edge31" class="edge">
<title>head of prep phrase&#45;&#45;momentum</title>
<path fill="none" stroke="#000000" d="M1422.9885,-72.7542C1406.2053,-61.0223 1384.1479,-45.6035 1367.7176,-34.1183"/>
</g>
<!-- Attend -->
<g id="node30" class="node">
<title>Attend</title>
<ellipse fill="none" stroke="#000000" cx="1447.6595" cy="-18" rx="34.3527" ry="18"/>
<text text-anchor="middle" x="1447.6595" y="-13.8" font-family="Times,serif" font-size="14.00" fill="#000000">Attend</text>
</g>
<!-- head of prep phrase&#45;&#45;Attend -->
<g id="edge33" class="edge">
<title>head of prep phrase&#45;&#45;Attend</title>
<path fill="none" stroke="#000000" d="M1447.6595,-71.8314C1447.6595,-61 1447.6595,-47.2876 1447.6595,-36.4133"/>
</g>
<!-- visit -->
<g id="node31" class="node">
<title>visit</title>
<ellipse fill="none" stroke="#000000" cx="1526.6595" cy="-18" rx="27" ry="18"/>
<text text-anchor="middle" x="1526.6595" y="-13.8" font-family="Times,serif" font-size="14.00" fill="#000000">visit</text>
</g>
<!-- head of prep phrase&#45;&#45;visit -->
<g id="edge34" class="edge">
<title>head of prep phrase&#45;&#45;visit</title>
<path fill="none" stroke="#000000" d="M1467.1876,-72.2022C1480.5296,-60.0425 1497.997,-44.1228 1510.5447,-32.6869"/>
</g>
<!-- fired -->
<g id="node32" class="node">
<title>fired</title>
<ellipse fill="none" stroke="#000000" cx="1598.6595" cy="-18" rx="27" ry="18"/>
<text text-anchor="middle" x="1598.6595" y="-13.8" font-family="Times,serif" font-size="14.00" fill="#000000">fired</text>
</g>
<!-- head of prep phrase&#45;&#45;fired -->
<g id="edge35" class="edge">
<title>head of prep phrase&#45;&#45;fired</title>
<path fill="none" stroke="#000000" d="M1482.7433,-73.7987C1505.5752,-63.1881 1535.9636,-48.9393 1562.6595,-36 1567.3127,-33.7447 1572.2838,-31.2892 1577.0002,-28.9377"/>
</g>
<!-- evening -->
<g id="node13" class="node">
<title>evening</title>
<ellipse fill="none" stroke="#000000" cx="1835.6595" cy="-162" rx="38.2024" ry="18"/>
<text text-anchor="middle" x="1835.6595" y="-157.8" font-family="Times,serif" font-size="14.00" fill="#000000">evening</text>
</g>
<!-- ROOT&#45;&#45;evening -->
<g id="edge36" class="edge">
<title>ROOT&#45;&#45;evening</title>
<path fill="none" stroke="#000000" d="M1832.6689,-215.8314C1833.2706,-205 1834.0324,-191.2876 1834.6366,-180.4133"/>
</g>
<!-- took -->
<g id="node27" class="node">
<title>took</title>
<ellipse fill="none" stroke="#000000" cx="1918.6595" cy="-162" rx="27" ry="18"/>
<text text-anchor="middle" x="1918.6595" y="-157.8" font-family="Times,serif" font-size="14.00" fill="#000000">took</text>
</g>
<!-- marker&#45;&#45;took -->
<g id="edge37" class="edge">
<title>marker&#45;&#45;took</title>
<path fill="none" stroke="#000000" d="M1918.6595,-215.8314C1918.6595,-205 1918.6595,-191.2876 1918.6595,-180.4133"/>
</g>
<!-- attack -->
<g id="node36" class="node">
<title>attack</title>
<ellipse fill="none" stroke="#000000" cx="2051.6595" cy="-162" rx="31.4375" ry="18"/>
<text text-anchor="middle" x="2051.6595" y="-157.8" font-family="Times,serif" font-size="14.00" fill="#000000">attack</text>
</g>
<!-- possession modifier&#45;&#45;attack -->
<g id="edge38" class="edge">
<title>possession modifier&#45;&#45;attack</title>
<path fill="none" stroke="#000000" d="M2051.6595,-215.8314C2051.6595,-205 2051.6595,-191.2876 2051.6595,-180.4133"/>
</g>
</g>
</svg>
