<?xml version="1.0" encoding="UTF-8" standalone="no"?>
<!DOCTYPE svg PUBLIC "-//W3C//DTD SVG 1.1//EN"
 "http://www.w3.org/Graphics/SVG/1.1/DTD/svg11.dtd">
<!-- Generated by graphviz version 2.40.1 (20161225.0304)
 -->
<!-- Title: %3 Pages: 1 -->
<svg width="1502pt" height="1206pt"
 viewBox="0.00 0.00 1501.54 1206.23" xmlns="http://www.w3.org/2000/svg" xmlns:xlink="http://www.w3.org/1999/xlink">
<g id="graph0" class="graph" transform="scale(1 1) rotate(0) translate(4 1202.2316)">
<title>%3</title>
<polygon fill="#ffffff" stroke="transparent" points="-4,4 -4,-1202.2316 1497.5359,-1202.2316 1497.5359,4 -4,4"/>
<!-- TIME -->
<g id="node1" class="node">
<title>TIME</title>
<ellipse fill="none" stroke="#000000" cx="939.8023" cy="-746.9497" rx="31.9393" ry="18"/>
<text text-anchor="middle" x="939.8023" y="-742.7497" font-family="Times,serif" font-size="14.00" fill="#000000">TIME</text>
<text text-anchor="middle" x="901.0834" y="-767.7497" font-family="Times,serif" font-size="14.00" fill="#000000">21</text>
</g>
<!-- head g1 noun phrase as adverbial modifier -->
<g id="node2" class="node">
<title>head g1 noun phrase as adverbial modifier</title>
<ellipse fill="none" stroke="#000000" cx="823.4325" cy="-518.2386" rx="159.8207" ry="18"/>
<text text-anchor="middle" x="823.4325" y="-514.0386" font-family="Times,serif" font-size="14.00" fill="#000000">head g1 noun phrase as adverbial modifier</text>
</g>
<!-- TIME&#45;&gt;head g1 noun phrase as adverbial modifier -->
<g id="edge1" class="edge">
<title>TIME&#45;&gt;head g1 noun phrase as adverbial modifier</title>
<path fill="none" stroke="#000000" d="M930.8642,-729.3829C910.6987,-689.7501 861.5448,-593.1437 837.3507,-545.5932"/>
<polygon fill="#000000" stroke="#000000" points="840.3776,-543.824 832.7233,-536.4985 834.1388,-546.9984 840.3776,-543.824"/>
<text text-anchor="middle" x="868.6374" y="-635.8539" font-family="Times,serif" font-size="14.00" fill="#000000">head</text>
</g>
<!-- head g1 head of prep phrase -->
<g id="node6" class="node">
<title>head g1 head of prep phrase</title>
<ellipse fill="none" stroke="#000000" cx="568.4812" cy="-903.1598" rx="109.6053" ry="18"/>
<text text-anchor="middle" x="568.4812" y="-898.9598" font-family="Times,serif" font-size="14.00" fill="#000000">head g1 head of prep phrase</text>
</g>
<!-- TIME&#45;&gt;head g1 head of prep phrase -->
<g id="edge2" class="edge">
<title>TIME&#45;&gt;head g1 head of prep phrase</title>
<path fill="none" stroke="#000000" d="M918.415,-760.5602C893.22,-776.2154 849.7748,-802.0396 810.2227,-819.803 751.565,-846.147 681.8963,-869.3649 632.4545,-884.5609"/>
<polygon fill="#000000" stroke="#000000" points="631.389,-881.2266 622.8451,-887.4917 633.4311,-887.9221 631.389,-881.2266"/>
<text text-anchor="middle" x="761.9736" y="-837.4985" font-family="Times,serif" font-size="14.00" fill="#000000">head</text>
</g>
<!-- child g1 compound -->
<g id="node8" class="node">
<title>child g1 compound</title>
<ellipse fill="none" stroke="#000000" cx="1398.937" cy="-374.514" rx="78.278" ry="18"/>
<text text-anchor="middle" x="1398.937" y="-370.314" font-family="Times,serif" font-size="14.00" fill="#000000">child g1 compound</text>
</g>
<!-- TIME&#45;&gt;child g1 compound -->
<g id="edge3" class="edge">
<title>TIME&#45;&gt;child g1 compound</title>
<path fill="none" stroke="#000000" d="M956.5272,-731.2997C976.5526,-712.7074 1011.2676,-680.937 1042.1778,-654.9475 1159.3755,-556.407 1304.2546,-445.85 1367.2298,-398.3217"/>
<polygon fill="#000000" stroke="#000000" points="1369.6825,-400.8559 1375.5609,-392.0414 1365.4687,-395.2662 1369.6825,-400.8559"/>
<text text-anchor="middle" x="1148.2553" y="-559.8047" font-family="Times,serif" font-size="14.00" fill="#000000">child</text>
</g>
<!-- child g1 determiner -->
<g id="node14" class="node">
<title>child g1 determiner</title>
<ellipse fill="none" stroke="#000000" cx="749.2114" cy="-966.365" rx="79.2126" ry="18"/>
<text text-anchor="middle" x="749.2114" y="-962.165" font-family="Times,serif" font-size="14.00" fill="#000000">child g1 determiner</text>
</g>
<!-- TIME&#45;&gt;child g1 determiner -->
<g id="edge4" class="edge">
<title>TIME&#45;&gt;child g1 determiner</title>
<path fill="none" stroke="#000000" d="M925.477,-763.4415C892.4835,-801.4249 810.9424,-895.298 771.4097,-940.8095"/>
<polygon fill="#000000" stroke="#000000" points="768.6782,-938.6168 764.7628,-948.4617 773.9629,-943.2073 768.6782,-938.6168"/>
<text text-anchor="middle" x="831.0243" y="-858.8656" font-family="Times,serif" font-size="14.00" fill="#000000">child</text>
</g>
<!-- child g1 adjectival modifier -->
<g id="node23" class="node">
<title>child g1 adjectival modifier</title>
<ellipse fill="none" stroke="#000000" cx="1124.3046" cy="-859.7406" rx="107.7104" ry="18"/>
<text text-anchor="middle" x="1124.3046" y="-855.5406" font-family="Times,serif" font-size="14.00" fill="#000000">child g1 adjectival modifier</text>
</g>
<!-- TIME&#45;&gt;child g1 adjectival modifier -->
<g id="edge5" class="edge">
<title>TIME&#45;&gt;child g1 adjectival modifier</title>
<path fill="none" stroke="#000000" d="M961.6917,-760.3312C992.6212,-779.2392 1049.5307,-814.0295 1087.1494,-837.0267"/>
<polygon fill="#000000" stroke="#000000" points="1085.4441,-840.0864 1095.8016,-842.316 1089.0952,-834.1139 1085.4441,-840.0864"/>
<text text-anchor="middle" x="1014.8811" y="-804.2037" font-family="Times,serif" font-size="14.00" fill="#000000">child</text>
</g>
<!-- head g1 ROOT -->
<g id="node27" class="node">
<title>head g1 ROOT</title>
<ellipse fill="none" stroke="#000000" cx="939.1007" cy="-936.476" rx="64.2787" ry="18"/>
<text text-anchor="middle" x="939.1007" y="-932.276" font-family="Times,serif" font-size="14.00" fill="#000000">head g1 ROOT</text>
</g>
<!-- TIME&#45;&gt;head g1 ROOT -->
<g id="edge6" class="edge">
<title>TIME&#45;&gt;head g1 ROOT</title>
<path fill="none" stroke="#000000" d="M939.735,-765.1223C939.6122,-798.3061 939.3508,-868.9153 939.2048,-908.3507"/>
<polygon fill="#000000" stroke="#000000" points="935.7049,-908.3456 939.1677,-918.3585 942.7048,-908.3715 935.7049,-908.3456"/>
<text text-anchor="middle" x="926.238" y="-844.4093" font-family="Times,serif" font-size="14.00" fill="#000000">head</text>
</g>
<!-- child g1 adverbial modifier -->
<g id="node29" class="node">
<title>child g1 adverbial modifier</title>
<ellipse fill="none" stroke="#000000" cx="1156.8009" cy="-654.9827" rx="106.2656" ry="18"/>
<text text-anchor="middle" x="1156.8009" y="-650.7827" font-family="Times,serif" font-size="14.00" fill="#000000">child g1 adverbial modifier</text>
</g>
<!-- TIME&#45;&gt;child g1 adverbial modifier -->
<g id="edge7" class="edge">
<title>TIME&#45;&gt;child g1 adverbial modifier</title>
<path fill="none" stroke="#000000" d="M965.547,-736.0387C1000.4809,-721.2333 1063.5942,-694.485 1107.7317,-675.779"/>
<polygon fill="#000000" stroke="#000000" points="1109.2809,-678.9238 1117.1223,-671.7991 1106.5493,-672.4787 1109.2809,-678.9238"/>
<text text-anchor="middle" x="1027.0398" y="-706.8453" font-family="Times,serif" font-size="14.00" fill="#000000">child</text>
</g>
<!-- headleaf is -->
<g id="node3" class="node">
<title>headleaf is</title>
<ellipse fill="none" stroke="#000000" cx="409.9864" cy="-501.5324" rx="48.325" ry="18"/>
<text text-anchor="middle" x="409.9864" y="-497.3324" font-family="Times,serif" font-size="14.00" fill="#000000">headleaf is</text>
</g>
<!-- head g1 noun phrase as adverbial modifier&#45;&gt;headleaf is -->
<g id="edge8" class="edge">
<title>head g1 noun phrase as adverbial modifier&#45;&gt;headleaf is</title>
<path fill="none" stroke="#000000" d="M672.7068,-512.1482C601.7412,-509.2807 521.2533,-506.0284 468.2786,-503.8878"/>
<polygon fill="#000000" stroke="#000000" points="468.1947,-500.3817 458.0615,-503.475 467.912,-507.3759 468.1947,-500.3817"/>
</g>
<!-- headleaf made -->
<g id="node13" class="node">
<title>headleaf made</title>
<ellipse fill="none" stroke="#000000" cx="741.0401" cy="-417.4471" rx="61.3291" ry="18"/>
<text text-anchor="middle" x="741.0401" y="-413.2471" font-family="Times,serif" font-size="14.00" fill="#000000">headleaf made</text>
</g>
<!-- head g1 noun phrase as adverbial modifier&#45;&gt;headleaf made -->
<g id="edge9" class="edge">
<title>head g1 noun phrase as adverbial modifier&#45;&gt;headleaf made</title>
<path fill="none" stroke="#000000" d="M808.7024,-500.2191C795.6169,-484.2115 776.3533,-460.6461 761.7236,-442.7494"/>
<polygon fill="#000000" stroke="#000000" points="764.4056,-440.5002 755.3668,-434.973 758.986,-444.9305 764.4056,-440.5002"/>
</g>
<!-- headleaf attacked -->
<g id="node22" class="node">
<title>headleaf attacked</title>
<ellipse fill="none" stroke="#000000" cx="592.2773" cy="-375.695" rx="71.9442" ry="18"/>
<text text-anchor="middle" x="592.2773" y="-371.495" font-family="Times,serif" font-size="14.00" fill="#000000">headleaf attacked</text>
</g>
<!-- head g1 noun phrase as adverbial modifier&#45;&gt;headleaf attacked -->
<g id="edge10" class="edge">
<title>head g1 noun phrase as adverbial modifier&#45;&gt;headleaf attacked</title>
<path fill="none" stroke="#000000" d="M794.6239,-500.4736C752.5296,-474.5158 674.248,-426.2429 628.3703,-397.9521"/>
<polygon fill="#000000" stroke="#000000" points="629.996,-394.8426 619.6471,-392.5728 626.3218,-400.8008 629.996,-394.8426"/>
</g>
<!-- headleaf confirm -->
<g id="node25" class="node">
<title>headleaf confirm</title>
<ellipse fill="none" stroke="#000000" cx="924.7925" cy="-354.1618" rx="69.5493" ry="18"/>
<text text-anchor="middle" x="924.7925" y="-349.9618" font-family="Times,serif" font-size="14.00" fill="#000000">headleaf confirm</text>
</g>
<!-- head g1 noun phrase as adverbial modifier&#45;&gt;headleaf confirm -->
<g id="edge11" class="edge">
<title>head g1 noun phrase as adverbial modifier&#45;&gt;headleaf confirm</title>
<path fill="none" stroke="#000000" d="M834.6671,-500.0526C852.4762,-471.2241 887.2922,-414.8655 908.0511,-381.2619"/>
<polygon fill="#000000" stroke="#000000" points="911.2296,-382.7763 913.5076,-372.4292 905.2743,-379.0973 911.2296,-382.7763"/>
</g>
<!-- headleaf relived -->
<g id="node26" class="node">
<title>headleaf relived</title>
<ellipse fill="none" stroke="#000000" cx="643.6679" cy="-21.8206" rx="66.6333" ry="18"/>
<text text-anchor="middle" x="643.6679" y="-17.6206" font-family="Times,serif" font-size="14.00" fill="#000000">headleaf relived</text>
</g>
<!-- head g1 noun phrase as adverbial modifier&#45;&gt;headleaf relived -->
<g id="edge12" class="edge">
<title>head g1 noun phrase as adverbial modifier&#45;&gt;headleaf relived</title>
<path fill="none" stroke="#000000" d="M823.1476,-500.0701C822.2389,-479.3452 818.9228,-444.8132 807.3648,-417.6286 769.5963,-328.796 713.958,-333.1976 676.6775,-244.159 649.1675,-178.4556 644.1058,-93.413 643.4663,-50.0121"/>
<polygon fill="#000000" stroke="#000000" points="646.9655,-49.8848 643.388,-39.9122 639.9657,-49.9391 646.9655,-49.8848"/>
</g>
<!-- headleaf wait -->
<g id="node31" class="node">
<title>headleaf wait</title>
<ellipse fill="none" stroke="#000000" cx="1109.5995" cy="-266.9266" rx="57.4786" ry="18"/>
<text text-anchor="middle" x="1109.5995" y="-262.7266" font-family="Times,serif" font-size="14.00" fill="#000000">headleaf wait</text>
</g>
<!-- head g1 noun phrase as adverbial modifier&#45;&gt;headleaf wait -->
<g id="edge13" class="edge">
<title>head g1 noun phrase as adverbial modifier&#45;&gt;headleaf wait</title>
<path fill="none" stroke="#000000" d="M844.013,-500.1649C894.6859,-455.6639 1025.4886,-340.7929 1082.436,-290.7816"/>
<polygon fill="#000000" stroke="#000000" points="1084.761,-293.3979 1089.9653,-284.1693 1080.1419,-288.1382 1084.761,-293.3979"/>
</g>
<!-- headleaf offering -->
<g id="node34" class="node">
<title>headleaf offering</title>
<ellipse fill="none" stroke="#000000" cx="783.8067" cy="-647.4624" rx="70.681" ry="18"/>
<text text-anchor="middle" x="783.8067" y="-643.2624" font-family="Times,serif" font-size="14.00" fill="#000000">headleaf offering</text>
</g>
<!-- head g1 noun phrase as adverbial modifier&#45;&gt;headleaf offering -->
<g id="edge14" class="edge">
<title>head g1 noun phrase as adverbial modifier&#45;&gt;headleaf offering</title>
<path fill="none" stroke="#000000" d="M817.8392,-536.4792C811.2015,-558.1251 800.0636,-594.4469 792.346,-619.6147"/>
<polygon fill="#000000" stroke="#000000" points="788.9571,-618.7279 789.3716,-629.3147 795.6496,-620.7802 788.9571,-618.7279"/>
</g>
<!-- headleaf conceded -->
<g id="node36" class="node">
<title>headleaf conceded</title>
<ellipse fill="none" stroke="#000000" cx="758.3779" cy="-244.3239" rx="75.8028" ry="18"/>
<text text-anchor="middle" x="758.3779" y="-240.1239" font-family="Times,serif" font-size="14.00" fill="#000000">headleaf conceded</text>
</g>
<!-- head g1 noun phrase as adverbial modifier&#45;&gt;headleaf conceded -->
<g id="edge15" class="edge">
<title>head g1 noun phrase as adverbial modifier&#45;&gt;headleaf conceded</title>
<path fill="none" stroke="#000000" d="M821.1662,-499.9424C818.5054,-479.6871 813.6463,-446.1304 807.3648,-417.6286 795.8998,-365.6067 777.9977,-306.0675 767.3049,-272.0588"/>
<polygon fill="#000000" stroke="#000000" points="770.5893,-270.8369 764.2329,-262.3607 763.9161,-272.9508 770.5893,-270.8369"/>
</g>
<!-- headleaf went -->
<g id="node37" class="node">
<title>headleaf went</title>
<ellipse fill="none" stroke="#000000" cx="363.0236" cy="-891.6919" rx="59.4081" ry="18"/>
<text text-anchor="middle" x="363.0236" y="-887.4919" font-family="Times,serif" font-size="14.00" fill="#000000">headleaf went</text>
</g>
<!-- head g1 noun phrase as adverbial modifier&#45;&gt;headleaf went -->
<g id="edge16" class="edge">
<title>head g1 noun phrase as adverbial modifier&#45;&gt;headleaf went</title>
<path fill="none" stroke="#000000" d="M801.1321,-536.2141C759.014,-570.174 664.8915,-646.1138 585.8013,-710.274 516.077,-766.8364 434.2646,-833.5482 391.8336,-868.1731"/>
<polygon fill="#000000" stroke="#000000" points="389.4223,-865.6234 383.8878,-874.6578 393.8482,-871.0466 389.4223,-865.6234"/>
</g>
<!-- headleaf seem -->
<g id="node39" class="node">
<title>headleaf seem</title>
<ellipse fill="none" stroke="#000000" cx="496.1098" cy="-699.3727" rx="60.3686" ry="18"/>
<text text-anchor="middle" x="496.1098" y="-695.1727" font-family="Times,serif" font-size="14.00" fill="#000000">headleaf seem</text>
</g>
<!-- head g1 noun phrase as adverbial modifier&#45;&gt;headleaf seem -->
<g id="edge17" class="edge">
<title>head g1 noun phrase as adverbial modifier&#45;&gt;headleaf seem</title>
<path fill="none" stroke="#000000" d="M791.4515,-535.9363C730.735,-569.5357 599.0369,-642.4149 534.0056,-678.4019"/>
<polygon fill="#000000" stroke="#000000" points="531.9659,-675.5304 524.9109,-683.4347 535.3553,-681.6552 531.9659,-675.5304"/>
</g>
<!-- headleaf remain -->
<g id="node41" class="node">
<title>headleaf remain</title>
<ellipse fill="none" stroke="#000000" cx="1122.8877" cy="-465.5483" rx="66.6333" ry="18"/>
<text text-anchor="middle" x="1122.8877" y="-461.3483" font-family="Times,serif" font-size="14.00" fill="#000000">headleaf remain</text>
</g>
<!-- head g1 noun phrase as adverbial modifier&#45;&gt;headleaf remain -->
<g id="edge18" class="edge">
<title>head g1 noun phrase as adverbial modifier&#45;&gt;headleaf remain</title>
<path fill="none" stroke="#000000" d="M909.6456,-503.0691C956.4523,-494.8332 1013.4244,-484.8088 1056.7016,-477.194"/>
<polygon fill="#000000" stroke="#000000" points="1057.3121,-480.6404 1066.5542,-475.4604 1056.099,-473.7463 1057.3121,-480.6404"/>
</g>
<!-- headleaf have -->
<g id="node42" class="node">
<title>headleaf have</title>
<ellipse fill="none" stroke="#000000" cx="966.705" cy="-578.459" rx="58.915" ry="18"/>
<text text-anchor="middle" x="966.705" y="-574.259" font-family="Times,serif" font-size="14.00" fill="#000000">headleaf have</text>
</g>
<!-- head g1 noun phrase as adverbial modifier&#45;&gt;headleaf have -->
<g id="edge19" class="edge">
<title>head g1 noun phrase as adverbial modifier&#45;&gt;headleaf have</title>
<path fill="none" stroke="#000000" d="M864.8729,-535.6569C882.8893,-543.2295 904.0247,-552.1132 922.3569,-559.8186"/>
<polygon fill="#000000" stroke="#000000" points="921.0816,-563.0791 931.6566,-563.7275 923.794,-556.626 921.0816,-563.0791"/>
</g>
<!-- head g2 conjunct -->
<g id="node4" class="node">
<title>head g2 conjunct</title>
<ellipse fill="none" stroke="#000000" cx="316.0696" cy="-677.4593" rx="70.534" ry="18"/>
<text text-anchor="middle" x="316.0696" y="-673.2593" font-family="Times,serif" font-size="14.00" fill="#000000">head g2 conjunct</text>
</g>
<!-- headleaf is&#45;&gt;head g2 conjunct -->
<g id="edge20" class="edge">
<title>headleaf is&#45;&gt;head g2 conjunct</title>
<path fill="none" stroke="#000000" d="M400.4644,-519.3693C383.9404,-550.3223 349.8668,-614.1498 330.4486,-650.5243"/>
<polygon fill="#000000" stroke="#000000" points="327.2387,-649.1051 325.6169,-659.5751 333.4139,-652.4017 327.2387,-649.1051"/>
<text text-anchor="middle" x="349.968" y="-592.0076" font-family="Times,serif" font-size="14.00" fill="#000000">head</text>
</g>
<!-- head g2 ROOT -->
<g id="node10" class="node">
<title>head g2 ROOT</title>
<ellipse fill="none" stroke="#000000" cx="611.4437" cy="-543.4389" rx="64.2787" ry="18"/>
<text text-anchor="middle" x="611.4437" y="-539.2389" font-family="Times,serif" font-size="14.00" fill="#000000">head g2 ROOT</text>
</g>
<!-- headleaf is&#45;&gt;head g2 ROOT -->
<g id="edge23" class="edge">
<title>headleaf is&#45;&gt;head g2 ROOT</title>
<path fill="none" stroke="#000000" d="M452.2185,-510.3174C480.4326,-516.1864 518.0168,-524.0045 549.5849,-530.5712"/>
<polygon fill="#000000" stroke="#000000" points="549.1001,-534.0452 559.6033,-532.6552 550.5257,-527.1919 549.1001,-534.0452"/>
<text text-anchor="middle" x="492.3747" y="-524.2192" font-family="Times,serif" font-size="14.00" fill="#000000">head</text>
</g>
<!-- head g2 adverbial clause modifier -->
<g id="node11" class="node">
<title>head g2 adverbial clause modifier</title>
<ellipse fill="none" stroke="#000000" cx="311.5534" cy="-327.2929" rx="129.4009" ry="18"/>
<text text-anchor="middle" x="311.5534" y="-323.0929" font-family="Times,serif" font-size="14.00" fill="#000000">head g2 adverbial clause modifier</text>
</g>
<!-- headleaf is&#45;&gt;head g2 adverbial clause modifier -->
<g id="edge21" class="edge">
<title>headleaf is&#45;&gt;head g2 adverbial clause modifier</title>
<path fill="none" stroke="#000000" d="M400.0065,-483.8665C382.7328,-453.2898 347.1607,-390.3225 326.7823,-354.2501"/>
<polygon fill="#000000" stroke="#000000" points="329.6731,-352.2513 321.707,-345.2662 323.5784,-355.6945 329.6731,-352.2513"/>
<text text-anchor="middle" x="347.6729" y="-417.4195" font-family="Times,serif" font-size="14.00" fill="#000000">head</text>
</g>
<!-- head g2 head of prep phrase -->
<g id="node16" class="node">
<title>head g2 head of prep phrase</title>
<ellipse fill="none" stroke="#000000" cx="505.3374" cy="-248.7722" rx="109.6053" ry="18"/>
<text text-anchor="middle" x="505.3374" y="-244.5722" font-family="Times,serif" font-size="14.00" fill="#000000">head g2 head of prep phrase</text>
</g>
<!-- headleaf is&#45;&gt;head g2 head of prep phrase -->
<g id="edge22" class="edge">
<title>headleaf is&#45;&gt;head g2 head of prep phrase</title>
<path fill="none" stroke="#000000" d="M416.8438,-483.3545C433.3373,-439.6331 475.3082,-328.3747 494.9299,-276.3607"/>
<polygon fill="#000000" stroke="#000000" points="498.2872,-277.3771 498.5421,-266.7854 491.7377,-274.9064 498.2872,-277.3771"/>
<text text-anchor="middle" x="444.493" y="-377.833" font-family="Times,serif" font-size="14.00" fill="#000000">head</text>
</g>
<!-- headleaf help -->
<g id="node5" class="node">
<title>headleaf help</title>
<ellipse fill="none" stroke="#000000" cx="93.9797" cy="-1142.3263" rx="57.4786" ry="18"/>
<text text-anchor="middle" x="93.9797" y="-1138.1263" font-family="Times,serif" font-size="14.00" fill="#000000">headleaf help</text>
</g>
<!-- head g2 conjunct&#45;&gt;headleaf help -->
<g id="edge24" class="edge">
<title>head g2 conjunct&#45;&gt;headleaf help</title>
<path fill="none" stroke="#000000" d="M307.4995,-695.3978C273.4571,-766.6536 147.6633,-1029.9586 106.8538,-1115.3789"/>
<polygon fill="#000000" stroke="#000000" points="103.677,-1113.9093 102.5242,-1124.4413 109.9932,-1116.9269 103.677,-1113.9093"/>
</g>
<!-- headleaf come -->
<g id="node21" class="node">
<title>headleaf come</title>
<ellipse fill="none" stroke="#000000" cx="61.4145" cy="-367.4673" rx="61.3291" ry="18"/>
<text text-anchor="middle" x="61.4145" y="-363.2673" font-family="Times,serif" font-size="14.00" fill="#000000">headleaf come</text>
</g>
<!-- head g2 conjunct&#45;&gt;headleaf come -->
<g id="edge25" class="edge">
<title>head g2 conjunct&#45;&gt;headleaf come</title>
<path fill="none" stroke="#000000" d="M301.2776,-659.4529C258.1897,-607.0021 132.6635,-454.1988 82.4928,-393.126"/>
<polygon fill="#000000" stroke="#000000" points="84.9822,-390.6425 75.93,-385.1371 79.5733,-395.0859 84.9822,-390.6425"/>
</g>
<!-- headleaf met -->
<g id="node38" class="node">
<title>headleaf met</title>
<ellipse fill="none" stroke="#000000" cx="76.5631" cy="-849.7157" rx="55.5492" ry="18"/>
<text text-anchor="middle" x="76.5631" y="-845.5157" font-family="Times,serif" font-size="14.00" fill="#000000">headleaf met</text>
</g>
<!-- head g2 conjunct&#45;&gt;headleaf met -->
<g id="edge26" class="edge">
<title>head g2 conjunct&#45;&gt;headleaf met</title>
<path fill="none" stroke="#000000" d="M292.2292,-694.6056C248.6977,-725.9141 156.3684,-792.3186 107.8484,-827.2148"/>
<polygon fill="#000000" stroke="#000000" points="105.6774,-824.4649 99.6027,-833.1453 109.7647,-830.1478 105.6774,-824.4649"/>
</g>
<!-- headleaf burned -->
<g id="node40" class="node">
<title>headleaf burned</title>
<ellipse fill="none" stroke="#000000" cx="78.5195" cy="-605.2557" rx="66.6419" ry="18"/>
<text text-anchor="middle" x="78.5195" y="-601.0557" font-family="Times,serif" font-size="14.00" fill="#000000">headleaf burned</text>
</g>
<!-- head g2 conjunct&#45;&gt;headleaf burned -->
<g id="edge27" class="edge">
<title>head g2 conjunct&#45;&gt;headleaf burned</title>
<path fill="none" stroke="#000000" d="M270.5486,-663.6231C231.2614,-651.6818 174.4314,-634.4082 132.7876,-621.7505"/>
<polygon fill="#000000" stroke="#000000" points="133.6673,-618.3599 123.0816,-618.8004 131.6316,-625.0573 133.6673,-618.3599"/>
</g>
<!-- head g1 head of prep phrase&#45;&gt;headleaf is -->
<g id="edge29" class="edge">
<title>head g1 head of prep phrase&#45;&gt;headleaf is</title>
<path fill="none" stroke="#000000" d="M551.7682,-885.2282C521.6411,-851.6971 458.7684,-775.9379 430.8412,-699.3047 409.8782,-641.7814 407.9504,-569.055 408.7453,-529.7882"/>
<polygon fill="#000000" stroke="#000000" points="412.248,-529.7343 409.0281,-519.6407 405.2507,-529.5392 412.248,-529.7343"/>
</g>
<!-- headleaf feels -->
<g id="node7" class="node">
<title>headleaf feels</title>
<ellipse fill="none" stroke="#000000" cx="765.3074" cy="-806.0236" rx="58.915" ry="18"/>
<text text-anchor="middle" x="765.3074" y="-801.8236" font-family="Times,serif" font-size="14.00" fill="#000000">headleaf feels</text>
</g>
<!-- head g1 head of prep phrase&#45;&gt;headleaf feels -->
<g id="edge28" class="edge">
<title>head g1 head of prep phrase&#45;&gt;headleaf feels</title>
<path fill="none" stroke="#000000" d="M603.2167,-886.0174C637.2562,-869.2185 689.1075,-843.6292 724.9572,-825.9369"/>
<polygon fill="#000000" stroke="#000000" points="726.742,-828.9592 734.1605,-821.395 723.6441,-822.682 726.742,-828.9592"/>
</g>
<!-- headleaf get -->
<g id="node18" class="node">
<title>headleaf get</title>
<ellipse fill="none" stroke="#000000" cx="643.1134" cy="-710.3799" rx="53.1353" ry="18"/>
<text text-anchor="middle" x="643.1134" y="-706.1799" font-family="Times,serif" font-size="14.00" fill="#000000">headleaf get</text>
</g>
<!-- head g1 head of prep phrase&#45;&gt;headleaf get -->
<g id="edge30" class="edge">
<title>head g1 head of prep phrase&#45;&gt;headleaf get</title>
<path fill="none" stroke="#000000" d="M575.5024,-885.0236C588.6489,-851.0654 617.0439,-777.7191 632.5248,-737.731"/>
<polygon fill="#000000" stroke="#000000" points="635.8188,-738.9167 636.1652,-728.3275 629.2909,-736.3895 635.8188,-738.9167"/>
</g>
<!-- headleaf growing -->
<g id="node20" class="node">
<title>headleaf growing</title>
<ellipse fill="none" stroke="#000000" cx="396.7075" cy="-1154.8552" rx="71.9789" ry="18"/>
<text text-anchor="middle" x="396.7075" y="-1150.6552" font-family="Times,serif" font-size="14.00" fill="#000000">headleaf growing</text>
</g>
<!-- head g1 head of prep phrase&#45;&gt;headleaf growing -->
<g id="edge31" class="edge">
<title>head g1 head of prep phrase&#45;&gt;headleaf growing</title>
<path fill="none" stroke="#000000" d="M556.1277,-921.2611C526.2293,-965.0705 449.8578,-1076.9756 414.7984,-1128.3472"/>
<polygon fill="#000000" stroke="#000000" points="411.6952,-1126.6852 408.9491,-1136.9179 417.4771,-1130.6311 411.6952,-1126.6852"/>
</g>
<!-- headleaf feels&#45;&gt;head g2 ROOT -->
<g id="edge32" class="edge">
<title>headleaf feels&#45;&gt;head g2 ROOT</title>
<path fill="none" stroke="#000000" d="M754.7318,-787.9751C728.1513,-742.6127 658.4434,-623.6489 627.1026,-570.1625"/>
<polygon fill="#000000" stroke="#000000" points="629.9653,-568.125 621.8899,-561.2665 623.9258,-571.6639 629.9653,-568.125"/>
<text text-anchor="middle" x="675.1484" y="-677.5085" font-family="Times,serif" font-size="14.00" fill="#000000">head</text>
</g>
<!-- childleaf homecoming -->
<g id="node9" class="node">
<title>childleaf homecoming</title>
<ellipse fill="none" stroke="#000000" cx="1404.1099" cy="-66.1517" rx="89.352" ry="18"/>
<text text-anchor="middle" x="1404.1099" y="-61.9517" font-family="Times,serif" font-size="14.00" fill="#000000">childleaf homecoming</text>
</g>
<!-- child g1 compound&#45;&gt;childleaf homecoming -->
<g id="edge33" class="edge">
<title>child g1 compound&#45;&gt;childleaf homecoming</title>
<path fill="none" stroke="#000000" d="M1399.2451,-356.148C1400.113,-304.4093 1402.5831,-157.1665 1403.6308,-94.7145"/>
<polygon fill="#000000" stroke="#000000" points="1407.1351,-94.4788 1403.8034,-84.4214 1400.1361,-94.3613 1407.1351,-94.4788"/>
</g>
<!-- head g2 ROOT&#45;&gt;headleaf is -->
<g id="edge37" class="edge">
<title>head g2 ROOT&#45;&gt;headleaf is</title>
<path fill="none" stroke="#000000" d="M559.825,-532.7014C529.8695,-526.4701 492.2419,-518.6429 462.1876,-512.3911"/>
<polygon fill="#000000" stroke="#000000" points="462.8109,-508.9459 452.3077,-510.3359 461.3853,-515.7992 462.8109,-508.9459"/>
</g>
<!-- head g2 ROOT&#45;&gt;headleaf feels -->
<g id="edge34" class="edge">
<title>head g2 ROOT&#45;&gt;headleaf feels</title>
<path fill="none" stroke="#000000" d="M622.0194,-561.4874C648.5998,-606.8498 718.3077,-725.8136 749.6485,-779.3"/>
<polygon fill="#000000" stroke="#000000" points="746.7858,-781.3375 754.8612,-788.196 752.8253,-777.7986 746.7858,-781.3375"/>
</g>
<!-- head g2 ROOT&#45;&gt;headleaf made -->
<g id="edge35" class="edge">
<title>head g2 ROOT&#45;&gt;headleaf made</title>
<path fill="none" stroke="#000000" d="M629.4635,-525.9203C651.902,-504.1058 690.3649,-466.7128 715.748,-442.0357"/>
<polygon fill="#000000" stroke="#000000" points="718.443,-444.2971 723.1733,-434.8169 713.5635,-439.278 718.443,-444.2971"/>
</g>
<!-- head g2 ROOT&#45;&gt;headleaf get -->
<g id="edge36" class="edge">
<title>head g2 ROOT&#45;&gt;headleaf get</title>
<path fill="none" stroke="#000000" d="M614.8932,-561.6223C620.414,-590.7243 631.275,-647.9759 637.7948,-682.3441"/>
<polygon fill="#000000" stroke="#000000" points="634.3656,-683.0465 639.6681,-692.2189 641.2429,-681.7418 634.3656,-683.0465"/>
</g>
<!-- head g2 ROOT&#45;&gt;headleaf attacked -->
<g id="edge38" class="edge">
<title>head g2 ROOT&#45;&gt;headleaf attacked</title>
<path fill="none" stroke="#000000" d="M609.3561,-525.1681C606.0205,-495.9755 599.4641,-438.5935 595.5161,-404.041"/>
<polygon fill="#000000" stroke="#000000" points="598.946,-403.2275 594.3333,-393.6895 591.9912,-404.0222 598.946,-403.2275"/>
</g>
<!-- head g2 ROOT&#45;&gt;headleaf confirm -->
<g id="edge39" class="edge">
<title>head g2 ROOT&#45;&gt;headleaf confirm</title>
<path fill="none" stroke="#000000" d="M637.1491,-526.7036C641.6595,-523.8167 646.3208,-520.8647 650.7324,-518.1249 734.6616,-466.0004 834.5333,-406.9993 887.4899,-375.9491"/>
<polygon fill="#000000" stroke="#000000" points="889.3385,-378.9225 896.1975,-370.8476 885.8,-372.8827 889.3385,-378.9225"/>
</g>
<!-- head g2 ROOT&#45;&gt;headleaf relived -->
<g id="edge40" class="edge">
<title>head g2 ROOT&#45;&gt;headleaf relived</title>
<path fill="none" stroke="#000000" d="M620.4608,-525.4471C634.881,-495.3973 662.2697,-432.6837 669.7331,-375.8856 685.6031,-255.1103 661.4349,-109.7929 649.5896,-49.8081"/>
<polygon fill="#000000" stroke="#000000" points="653.0093,-49.0603 647.6006,-39.9501 646.1476,-50.4448 653.0093,-49.0603"/>
</g>
<!-- head g2 ROOT&#45;&gt;headleaf offering -->
<g id="edge41" class="edge">
<title>head g2 ROOT&#45;&gt;headleaf offering</title>
<path fill="none" stroke="#000000" d="M638.7551,-559.9217C668.0825,-577.6213 714.8325,-605.8355 747.2999,-625.43"/>
<polygon fill="#000000" stroke="#000000" points="745.6821,-628.5417 756.0523,-630.7122 749.2991,-622.5485 745.6821,-628.5417"/>
</g>
<!-- head g2 ROOT&#45;&gt;headleaf conceded -->
<g id="edge42" class="edge">
<title>head g2 ROOT&#45;&gt;headleaf conceded</title>
<path fill="none" stroke="#000000" d="M620.4139,-525.1782C645.3212,-474.4742 715.4352,-331.7426 744.9824,-271.5932"/>
<polygon fill="#000000" stroke="#000000" points="748.2575,-272.8643 749.5251,-262.3456 741.9746,-269.7779 748.2575,-272.8643"/>
</g>
<!-- head g2 ROOT&#45;&gt;headleaf remain -->
<g id="edge43" class="edge">
<title>head g2 ROOT&#45;&gt;headleaf remain</title>
<path fill="none" stroke="#000000" d="M634.8779,-526.6711C639.9453,-523.5271 645.3903,-520.49 650.7324,-518.1249 672.3114,-508.5714 678.7974,-508.5594 702.0294,-504.4123 821.2463,-483.1312 961.667,-473.1366 1046.402,-468.7209"/>
<polygon fill="#000000" stroke="#000000" points="1046.645,-472.2132 1056.4543,-468.2097 1046.2894,-465.2222 1046.645,-472.2132"/>
</g>
<!-- head g2 ROOT&#45;&gt;headleaf have -->
<g id="edge44" class="edge">
<title>head g2 ROOT&#45;&gt;headleaf have</title>
<path fill="none" stroke="#000000" d="M672.1116,-549.4193C735.5059,-555.6684 834.6795,-565.4445 900.1782,-571.9011"/>
<polygon fill="#000000" stroke="#000000" points="900.0954,-575.4098 910.3905,-572.9078 900.7822,-568.4436 900.0954,-575.4098"/>
</g>
<!-- headleaf seems -->
<g id="node12" class="node">
<title>headleaf seems</title>
<ellipse fill="none" stroke="#000000" cx="89.1935" cy="-56.7943" rx="63.7518" ry="18"/>
<text text-anchor="middle" x="89.1935" y="-52.5943" font-family="Times,serif" font-size="14.00" fill="#000000">headleaf seems</text>
</g>
<!-- head g2 adverbial clause modifier&#45;&gt;headleaf seems -->
<g id="edge45" class="edge">
<title>head g2 adverbial clause modifier&#45;&gt;headleaf seems</title>
<path fill="none" stroke="#000000" d="M296.6184,-309.1247C257.9959,-262.1408 154.7306,-136.5196 110.1569,-82.2961"/>
<polygon fill="#000000" stroke="#000000" points="112.8271,-80.0326 103.7731,-74.5302 107.4196,-84.4778 112.8271,-80.0326"/>
</g>
<!-- headleaf made&#45;&gt;head g2 ROOT -->
<g id="edge46" class="edge">
<title>headleaf made&#45;&gt;head g2 ROOT</title>
<path fill="none" stroke="#000000" d="M723.292,-434.7015C700.9268,-456.4447 662.3369,-493.9612 636.8499,-518.7393"/>
<polygon fill="#000000" stroke="#000000" points="634.1237,-516.5083 629.3933,-525.9885 639.0031,-521.5274 634.1237,-516.5083"/>
<text text-anchor="middle" x="663.2576" y="-483.0198" font-family="Times,serif" font-size="14.00" fill="#000000">head</text>
</g>
<!-- childleaf this -->
<g id="node15" class="node">
<title>childleaf this</title>
<ellipse fill="none" stroke="#000000" cx="863.5317" cy="-1180.2316" rx="56.0596" ry="18"/>
<text text-anchor="middle" x="863.5317" y="-1176.0316" font-family="Times,serif" font-size="14.00" fill="#000000">childleaf this</text>
</g>
<!-- child g1 determiner&#45;&gt;childleaf this -->
<g id="edge47" class="edge">
<title>child g1 determiner&#45;&gt;childleaf this</title>
<path fill="none" stroke="#000000" d="M758.9583,-984.5991C779.1305,-1022.3366 825.5407,-1109.1593 849.1592,-1153.344"/>
<polygon fill="#000000" stroke="#000000" points="846.1698,-1155.1761 853.9707,-1162.3453 852.3432,-1151.8762 846.1698,-1155.1761"/>
</g>
<!-- childleaf gonna -->
<g id="node19" class="node">
<title>childleaf gonna</title>
<ellipse fill="none" stroke="#000000" cx="626.2048" cy="-1168.7027" rx="64.7295" ry="18"/>
<text text-anchor="middle" x="626.2048" y="-1164.5027" font-family="Times,serif" font-size="14.00" fill="#000000">childleaf gonna</text>
</g>
<!-- child g1 determiner&#45;&gt;childleaf gonna -->
<g id="edge48" class="edge">
<title>child g1 determiner&#45;&gt;childleaf gonna</title>
<path fill="none" stroke="#000000" d="M738.2954,-984.3211C716.5485,-1020.0933 667.7274,-1100.4007 642.2966,-1142.2327"/>
<polygon fill="#000000" stroke="#000000" points="639.3004,-1140.4237 637.0963,-1150.7868 645.2818,-1144.06 639.3004,-1140.4237"/>
</g>
<!-- headleaf making -->
<g id="node17" class="node">
<title>headleaf making</title>
<ellipse fill="none" stroke="#000000" cx="391.1033" cy="-26.9126" rx="68.5802" ry="18"/>
<text text-anchor="middle" x="391.1033" y="-22.7126" font-family="Times,serif" font-size="14.00" fill="#000000">headleaf making</text>
</g>
<!-- head g2 head of prep phrase&#45;&gt;headleaf making -->
<g id="edge49" class="edge">
<title>head g2 head of prep phrase&#45;&gt;headleaf making</title>
<path fill="none" stroke="#000000" d="M495.9891,-230.6165C475.9409,-191.6798 428.7198,-99.9695 405.0872,-54.0714"/>
<polygon fill="#000000" stroke="#000000" points="408.1101,-52.2965 400.4206,-45.008 401.8866,-55.501 408.1101,-52.2965"/>
</g>
<!-- headleaf get&#45;&gt;head g2 ROOT -->
<g id="edge50" class="edge">
<title>headleaf get&#45;&gt;head g2 ROOT</title>
<path fill="none" stroke="#000000" d="M639.6639,-692.1965C634.1431,-663.0945 623.2821,-605.8429 616.7622,-571.4747"/>
<polygon fill="#000000" stroke="#000000" points="620.1915,-570.7723 614.8889,-561.5999 613.3142,-572.077 620.1915,-570.7723"/>
<text text-anchor="middle" x="614.0854" y="-629.8185" font-family="Times,serif" font-size="14.00" fill="#000000">head</text>
</g>
<!-- headleaf growing&#45;&gt;head g2 conjunct -->
<g id="edge51" class="edge">
<title>headleaf growing&#45;&gt;head g2 conjunct</title>
<path fill="none" stroke="#000000" d="M386.793,-1136.7579C364.6861,-1095.0807 312.2447,-988.4642 298.8135,-891.6357 289.5957,-825.1829 301.8457,-746.3958 309.9497,-705.4011"/>
<polygon fill="#000000" stroke="#000000" points="313.382,-706.086 311.9549,-695.5877 306.5238,-704.6845 313.382,-706.086"/>
<text text-anchor="middle" x="285.5988" y="-894.4297" font-family="Times,serif" font-size="14.00" fill="#000000">head</text>
</g>
<!-- headleaf attacked&#45;&gt;head g2 ROOT -->
<g id="edge52" class="edge">
<title>headleaf attacked&#45;&gt;head g2 ROOT</title>
<path fill="none" stroke="#000000" d="M594.3649,-393.9659C597.7004,-423.1584 604.2569,-480.5404 608.2049,-515.093"/>
<polygon fill="#000000" stroke="#000000" points="604.775,-515.9065 609.3876,-525.4445 611.7297,-515.1118 604.775,-515.9065"/>
<text text-anchor="middle" x="588.6797" y="-462.6568" font-family="Times,serif" font-size="14.00" fill="#000000">head</text>
</g>
<!-- childleaf Last -->
<g id="node24" class="node">
<title>childleaf Last</title>
<ellipse fill="none" stroke="#000000" cx="1397.9658" cy="-860.3555" rx="58.4563" ry="18"/>
<text text-anchor="middle" x="1397.9658" y="-856.1555" font-family="Times,serif" font-size="14.00" fill="#000000">childleaf Last</text>
</g>
<!-- child g1 adjectival modifier&#45;&gt;childleaf Last -->
<g id="edge53" class="edge">
<title>child g1 adjectival modifier&#45;&gt;childleaf Last</title>
<path fill="none" stroke="#000000" d="M1232.0699,-859.9827C1264.7163,-860.0561 1299.6769,-860.1346 1329.0458,-860.2006"/>
<polygon fill="#000000" stroke="#000000" points="1329.1799,-863.7008 1339.1878,-860.2234 1329.1957,-856.7008 1329.1799,-863.7008"/>
</g>
<!-- childleaf Good -->
<g id="node35" class="node">
<title>childleaf Good</title>
<ellipse fill="none" stroke="#000000" cx="1396.0205" cy="-1144.0318" rx="62.8086" ry="18"/>
<text text-anchor="middle" x="1396.0205" y="-1139.8318" font-family="Times,serif" font-size="14.00" fill="#000000">childleaf Good</text>
</g>
<!-- child g1 adjectival modifier&#45;&gt;childleaf Good -->
<g id="edge54" class="edge">
<title>child g1 adjectival modifier&#45;&gt;childleaf Good</title>
<path fill="none" stroke="#000000" d="M1141.3016,-877.5243C1188.0171,-926.4017 1318.4539,-1062.8754 1372.3034,-1119.217"/>
<polygon fill="#000000" stroke="#000000" points="1369.9372,-1121.8069 1379.3768,-1126.6178 1374.9976,-1116.9704 1369.9372,-1121.8069"/>
</g>
<!-- headleaf confirm&#45;&gt;head g2 ROOT -->
<g id="edge55" class="edge">
<title>headleaf confirm&#45;&gt;head g2 ROOT</title>
<path fill="none" stroke="#000000" d="M896.1975,-370.8476C846.1421,-400.1498 739.517,-462.9849 650.7324,-518.1249 649.078,-519.1523 647.3886,-520.2096 645.6852,-521.2821"/>
<polygon fill="#000000" stroke="#000000" points="643.7139,-518.3878 637.1491,-526.7036 647.4669,-524.2967 643.7139,-518.3878"/>
<text text-anchor="middle" x="752.7629" y="-450.7619" font-family="Times,serif" font-size="14.00" fill="#000000">head</text>
</g>
<!-- headleaf relived&#45;&gt;head g2 ROOT -->
<g id="edge56" class="edge">
<title>headleaf relived&#45;&gt;head g2 ROOT</title>
<path fill="none" stroke="#000000" d="M647.6006,-39.9501C658.3884,-92.2543 686.556,-247.8588 669.7331,-375.8856 662.9694,-427.3589 639.8413,-483.6905 624.8313,-516.1661"/>
<polygon fill="#000000" stroke="#000000" points="621.5547,-514.9089 620.4608,-525.4471 627.8877,-517.8912 621.5547,-514.9089"/>
<text text-anchor="middle" x="661.7313" y="-285.0234" font-family="Times,serif" font-size="14.00" fill="#000000">head</text>
</g>
<!-- headleaf evening -->
<g id="node28" class="node">
<title>headleaf evening</title>
<ellipse fill="none" stroke="#000000" cx="1102.1481" cy="-1145.8424" rx="70.0167" ry="18"/>
<text text-anchor="middle" x="1102.1481" y="-1141.6424" font-family="Times,serif" font-size="14.00" fill="#000000">headleaf evening</text>
</g>
<!-- head g1 ROOT&#45;&gt;headleaf evening -->
<g id="edge57" class="edge">
<title>head g1 ROOT&#45;&gt;headleaf evening</title>
<path fill="none" stroke="#000000" d="M953.002,-954.3265C981.881,-991.4095 1048.465,-1076.9088 1082.0301,-1120.0092"/>
<polygon fill="#000000" stroke="#000000" points="1079.3762,-1122.2978 1088.2819,-1128.0371 1084.8991,-1117.9968 1079.3762,-1122.2978"/>
</g>
<!-- childleaf Finally -->
<g id="node30" class="node">
<title>childleaf Finally</title>
<ellipse fill="none" stroke="#000000" cx="1421.3403" cy="-620.0427" rx="68.1215" ry="18"/>
<text text-anchor="middle" x="1421.3403" y="-615.8427" font-family="Times,serif" font-size="14.00" fill="#000000">childleaf Finally</text>
</g>
<!-- child g1 adverbial modifier&#45;&gt;childleaf Finally -->
<g id="edge58" class="edge">
<title>child g1 adverbial modifier&#45;&gt;childleaf Finally</title>
<path fill="none" stroke="#000000" d="M1240.8663,-643.8795C1275.9658,-639.2436 1316.3117,-633.9147 1349.9428,-629.4728"/>
<polygon fill="#000000" stroke="#000000" points="1350.6956,-632.9038 1360.1512,-628.1245 1349.7789,-625.9641 1350.6956,-632.9038"/>
</g>
<!-- head g2 open clausal complement -->
<g id="node32" class="node">
<title>head g2 open clausal complement</title>
<ellipse fill="none" stroke="#000000" cx="876.951" cy="-39.7803" rx="129.8854" ry="18"/>
<text text-anchor="middle" x="876.951" y="-35.5803" font-family="Times,serif" font-size="14.00" fill="#000000">head g2 open clausal complement</text>
</g>
<!-- headleaf wait&#45;&gt;head g2 open clausal complement -->
<g id="edge59" class="edge">
<title>headleaf wait&#45;&gt;head g2 open clausal complement</title>
<path fill="none" stroke="#000000" d="M1091.7303,-249.48C1050.826,-209.5431 950.2611,-111.3566 902.6882,-64.9088"/>
<polygon fill="#000000" stroke="#000000" points="905.1255,-62.397 895.5252,-57.9153 900.2354,-67.4056 905.1255,-62.397"/>
<text text-anchor="middle" x="980.5517" y="-156.6322" font-family="Times,serif" font-size="14.00" fill="#000000">head</text>
</g>
<!-- headleaf willing -->
<g id="node33" class="node">
<title>headleaf willing</title>
<ellipse fill="none" stroke="#000000" cx="1107.2174" cy="-18" rx="67.1437" ry="18"/>
<text text-anchor="middle" x="1107.2174" y="-13.8" font-family="Times,serif" font-size="14.00" fill="#000000">headleaf willing</text>
</g>
<!-- head g2 open clausal complement&#45;&gt;headleaf willing -->
<g id="edge60" class="edge">
<title>head g2 open clausal complement&#45;&gt;headleaf willing</title>
<path fill="none" stroke="#000000" d="M984.3314,-29.6235C1000.9706,-28.0496 1017.8267,-26.4552 1033.5012,-24.9726"/>
<polygon fill="#000000" stroke="#000000" points="1033.9908,-28.442 1043.6168,-24.0158 1033.3316,-21.4731 1033.9908,-28.442"/>
</g>
<!-- headleaf offering&#45;&gt;head g2 ROOT -->
<g id="edge61" class="edge">
<title>headleaf offering&#45;&gt;head g2 ROOT</title>
<path fill="none" stroke="#000000" d="M756.1136,-630.7492C726.539,-612.9005 679.5651,-584.5511 647.211,-565.025"/>
<polygon fill="#000000" stroke="#000000" points="648.8699,-561.9382 638.4998,-559.7676 645.2529,-567.9313 648.8699,-561.9382"/>
<text text-anchor="middle" x="684.0048" y="-598.0053" font-family="Times,serif" font-size="14.00" fill="#000000">head</text>
</g>
<!-- headleaf conceded&#45;&gt;head g2 ROOT -->
<g id="edge62" class="edge">
<title>headleaf conceded&#45;&gt;head g2 ROOT</title>
<path fill="none" stroke="#000000" d="M749.4077,-262.5846C724.5004,-313.2885 654.3864,-456.0202 624.8392,-516.1696"/>
<polygon fill="#000000" stroke="#000000" points="621.5642,-514.8985 620.2965,-525.4172 627.847,-517.9848 621.5642,-514.8985"/>
<text text-anchor="middle" x="698.0813" y="-382.7697" font-family="Times,serif" font-size="14.00" fill="#000000">head</text>
</g>
<!-- headleaf went&#45;&gt;head g2 conjunct -->
<g id="edge63" class="edge">
<title>headleaf went&#45;&gt;head g2 conjunct</title>
<path fill="none" stroke="#000000" d="M359.0203,-873.4265C350.8078,-835.9559 332.0068,-750.1745 322.23,-705.5668"/>
<polygon fill="#000000" stroke="#000000" points="325.6226,-704.6972 320.0628,-695.6784 318.7849,-706.1959 325.6226,-704.6972"/>
<text text-anchor="middle" x="326.2852" y="-787.1588" font-family="Times,serif" font-size="14.00" fill="#000000">head</text>
</g>
<!-- headleaf seem&#45;&gt;head g2 conjunct -->
<g id="edge64" class="edge">
<title>headleaf seem&#45;&gt;head g2 conjunct</title>
<path fill="none" stroke="#000000" d="M440.1309,-692.5593C424.3165,-690.6345 406.8583,-688.5095 390.1561,-686.4766"/>
<polygon fill="#000000" stroke="#000000" points="390.2253,-682.9593 379.8757,-685.2254 389.3795,-689.908 390.2253,-682.9593"/>
<text text-anchor="middle" x="416.539" y="-677.6837" font-family="Times,serif" font-size="14.00" fill="#000000">head</text>
</g>
<!-- headleaf remain&#45;&gt;head g2 ROOT -->
<g id="edge65" class="edge">
<title>headleaf remain&#45;&gt;head g2 ROOT</title>
<path fill="none" stroke="#000000" d="M1056.4543,-468.2097C973.1184,-472.3427 826.0925,-482.2661 702.0294,-504.4123 678.7974,-508.5594 672.3114,-508.5714 650.7324,-518.1249 648.3952,-519.1596 646.0384,-520.323 643.7021,-521.5676"/>
<polygon fill="#000000" stroke="#000000" points="641.7821,-518.6348 634.8779,-526.6711 645.2867,-524.6943 641.7821,-518.6348"/>
<text text-anchor="middle" x="831.2341" y="-487.3602" font-family="Times,serif" font-size="14.00" fill="#000000">head</text>
</g>
<!-- headleaf have&#45;&gt;head g2 ROOT -->
<g id="edge66" class="edge">
<title>headleaf have&#45;&gt;head g2 ROOT</title>
<path fill="none" stroke="#000000" d="M910.4128,-572.91C848.6279,-566.8195 749.3264,-557.0308 682.2906,-550.4227"/>
<polygon fill="#000000" stroke="#000000" points="682.5265,-546.9291 672.2314,-549.4311 681.8397,-553.8953 682.5265,-546.9291"/>
<text text-anchor="middle" x="777.9075" y="-563.9508" font-family="Times,serif" font-size="14.00" fill="#000000">head</text>
</g>
</g>
</svg>
