<?xml version="1.0" encoding="UTF-8" standalone="no"?>
<!DOCTYPE svg PUBLIC "-//W3C//DTD SVG 1.1//EN"
 "http://www.w3.org/Graphics/SVG/1.1/DTD/svg11.dtd">
<!-- Generated by graphviz version 2.40.1 (20161225.0304)
 -->
<!-- Title: %3 Pages: 1 -->
<svg width="1621pt" height="1620pt"
 viewBox="0.00 0.00 1620.77 1620.21" xmlns="http://www.w3.org/2000/svg" xmlns:xlink="http://www.w3.org/1999/xlink">
<g id="graph0" class="graph" transform="scale(1 1) rotate(0) translate(4 1616.2103)">
<title>%3</title>
<polygon fill="#ffffff" stroke="transparent" points="-4,4 -4,-1616.2103 1616.7678,-1616.2103 1616.7678,4 -4,4"/>
<!-- TIME -->
<g id="node1" class="node">
<title>TIME</title>
<ellipse fill="none" stroke="#000000" cx="1042.571" cy="-605.9379" rx="31.9393" ry="18"/>
<text text-anchor="middle" x="1042.571" y="-601.7379" font-family="Times,serif" font-size="14.00" fill="#000000">TIME</text>
<text text-anchor="middle" x="1003.8521" y="-626.7379" font-family="Times,serif" font-size="14.00" fill="#000000">21</text>
</g>
<!-- head g1 noun phrase as adverbial modifier -->
<g id="node2" class="node">
<title>head g1 noun phrase as adverbial modifier</title>
<ellipse fill="none" stroke="#000000" cx="779.576" cy="-870.1739" rx="159.8207" ry="18"/>
<text text-anchor="middle" x="779.576" y="-865.9739" font-family="Times,serif" font-size="14.00" fill="#000000">head g1 noun phrase as adverbial modifier</text>
</g>
<!-- TIME&#45;&gt;head g1 noun phrase as adverbial modifier -->
<g id="edge1" class="edge">
<title>TIME&#45;&gt;head g1 noun phrase as adverbial modifier</title>
<path fill="none" stroke="#000000" d="M1026.9071,-621.6757C982.9715,-665.8186 858.2868,-791.0917 804.6328,-844.9989"/>
<polygon fill="#000000" stroke="#000000" points="802.123,-842.5592 797.5492,-852.1159 807.0844,-847.4973 802.123,-842.5592"/>
<text text-anchor="middle" x="899.0773" y="-739.6325" font-family="Times,serif" font-size="14.00" fill="#000000">head</text>
</g>
<!-- head g1 head of prep phrase -->
<g id="node6" class="node">
<title>head g1 head of prep phrase</title>
<ellipse fill="none" stroke="#000000" cx="943.6489" cy="-348.0777" rx="109.6053" ry="18"/>
<text text-anchor="middle" x="943.6489" y="-343.8777" font-family="Times,serif" font-size="14.00" fill="#000000">head g1 head of prep phrase</text>
</g>
<!-- TIME&#45;&gt;head g1 head of prep phrase -->
<g id="edge2" class="edge">
<title>TIME&#45;&gt;head g1 head of prep phrase</title>
<path fill="none" stroke="#000000" d="M1035.7717,-588.2141C1018.8354,-544.0662 974.6651,-428.9276 954.2627,-375.7445"/>
<polygon fill="#000000" stroke="#000000" points="957.4773,-374.3522 950.6277,-366.2693 950.9417,-376.8594 957.4773,-374.3522"/>
<text text-anchor="middle" x="979.9695" y="-479.9992" font-family="Times,serif" font-size="14.00" fill="#000000">head</text>
</g>
<!-- child g1 compound -->
<g id="node8" class="node">
<title>child g1 compound</title>
<ellipse fill="none" stroke="#000000" cx="1244.5408" cy="-401.4441" rx="78.278" ry="18"/>
<text text-anchor="middle" x="1244.5408" y="-397.2441" font-family="Times,serif" font-size="14.00" fill="#000000">child g1 compound</text>
</g>
<!-- TIME&#45;&gt;child g1 compound -->
<g id="edge3" class="edge">
<title>TIME&#45;&gt;child g1 compound</title>
<path fill="none" stroke="#000000" d="M1058.0839,-590.2311C1092.9393,-554.9401 1177.6954,-469.1249 1219.8662,-426.4271"/>
<polygon fill="#000000" stroke="#000000" points="1222.4447,-428.7971 1226.9816,-419.2228 1217.4643,-423.8782 1222.4447,-428.7971"/>
<text text-anchor="middle" x="1128.3833" y="-507.6817" font-family="Times,serif" font-size="14.00" fill="#000000">child</text>
</g>
<!-- child g1 determiner -->
<g id="node13" class="node">
<title>child g1 determiner</title>
<ellipse fill="none" stroke="#000000" cx="1270.3964" cy="-747.4449" rx="79.2126" ry="18"/>
<text text-anchor="middle" x="1270.3964" y="-743.2449" font-family="Times,serif" font-size="14.00" fill="#000000">child g1 determiner</text>
</g>
<!-- TIME&#45;&gt;child g1 determiner -->
<g id="edge4" class="edge">
<title>TIME&#45;&gt;child g1 determiner</title>
<path fill="none" stroke="#000000" d="M1064.0043,-619.2505C1103.1089,-643.5392 1186.4105,-695.2796 1234.3698,-725.0681"/>
<polygon fill="#000000" stroke="#000000" points="1232.5534,-728.0601 1242.8949,-730.3632 1236.2469,-722.1137 1232.5534,-728.0601"/>
<text text-anchor="middle" x="1139.6901" y="-677.7541" font-family="Times,serif" font-size="14.00" fill="#000000">child</text>
</g>
<!-- child g1 adjectival modifier -->
<g id="node22" class="node">
<title>child g1 adjectival modifier</title>
<ellipse fill="none" stroke="#000000" cx="1290.5382" cy="-1050.2787" rx="107.7104" ry="18"/>
<text text-anchor="middle" x="1290.5382" y="-1046.0787" font-family="Times,serif" font-size="14.00" fill="#000000">child g1 adjectival modifier</text>
</g>
<!-- TIME&#45;&gt;child g1 adjectival modifier -->
<g id="edge5" class="edge">
<title>TIME&#45;&gt;child g1 adjectival modifier</title>
<path fill="none" stroke="#000000" d="M1052.2916,-623.3566C1090.3143,-691.4907 1229.1445,-940.2654 1275.4161,-1023.181"/>
<polygon fill="#000000" stroke="#000000" points="1272.413,-1024.982 1280.3425,-1032.0087 1278.5256,-1021.5708 1272.413,-1024.982"/>
<text text-anchor="middle" x="1152.3347" y="-830.5081" font-family="Times,serif" font-size="14.00" fill="#000000">child</text>
</g>
<!-- is -->
<g id="node3" class="node">
<title>is</title>
<ellipse fill="none" stroke="#000000" cx="685.007" cy="-723.3788" rx="27" ry="18"/>
<text text-anchor="middle" x="685.007" y="-719.1788" font-family="Times,serif" font-size="14.00" fill="#000000">is</text>
</g>
<!-- head g1 noun phrase as adverbial modifier&#45;&gt;is -->
<g id="edge6" class="edge">
<title>head g1 noun phrase as adverbial modifier&#45;&gt;is</title>
<path fill="none" stroke="#000000" d="M767.98,-852.174C751.2631,-826.2251 720.3179,-778.1903 701.3082,-748.6823"/>
<polygon fill="#000000" stroke="#000000" points="704.1788,-746.6755 695.8207,-740.1644 698.2942,-750.4665 704.1788,-746.6755"/>
</g>
<!-- made -->
<g id="node12" class="node">
<title>made</title>
<ellipse fill="none" stroke="#000000" cx="650.8729" cy="-1071.5936" rx="29.0172" ry="18"/>
<text text-anchor="middle" x="650.8729" y="-1067.3936" font-family="Times,serif" font-size="14.00" fill="#000000">made</text>
</g>
<!-- head g1 noun phrase as adverbial modifier&#45;&gt;made -->
<g id="edge7" class="edge">
<title>head g1 noun phrase as adverbial modifier&#45;&gt;made</title>
<path fill="none" stroke="#000000" d="M767.9275,-888.4038C744.9167,-924.4156 693.5815,-1004.755 667.206,-1046.0325"/>
<polygon fill="#000000" stroke="#000000" points="664.1081,-1044.3804 661.673,-1054.6916 670.0068,-1048.1495 664.1081,-1044.3804"/>
</g>
<!-- attacked -->
<g id="node21" class="node">
<title>attacked</title>
<ellipse fill="none" stroke="#000000" cx="110.6668" cy="-1575.5153" rx="39.6299" ry="18"/>
<text text-anchor="middle" x="110.6668" y="-1571.3153" font-family="Times,serif" font-size="14.00" fill="#000000">attacked</text>
</g>
<!-- head g1 noun phrase as adverbial modifier&#45;&gt;attacked -->
<g id="edge8" class="edge">
<title>head g1 noun phrase as adverbial modifier&#45;&gt;attacked</title>
<path fill="none" stroke="#000000" d="M762.3689,-888.3183C670.5075,-985.1829 238.163,-1441.0751 133.5163,-1551.4213"/>
<polygon fill="#000000" stroke="#000000" points="130.8989,-1549.0949 126.5573,-1558.7594 135.9781,-1553.9118 130.8989,-1549.0949"/>
</g>
<!-- confirm -->
<g id="node24" class="node">
<title>confirm</title>
<ellipse fill="none" stroke="#000000" cx="886.9614" cy="-1048.3397" rx="37.7352" ry="18"/>
<text text-anchor="middle" x="886.9614" y="-1044.1397" font-family="Times,serif" font-size="14.00" fill="#000000">confirm</text>
</g>
<!-- head g1 noun phrase as adverbial modifier&#45;&gt;confirm -->
<g id="edge9" class="edge">
<title>head g1 noun phrase as adverbial modifier&#45;&gt;confirm</title>
<path fill="none" stroke="#000000" d="M790.4637,-888.2379C809.5852,-919.9629 849.2601,-985.7885 871.3163,-1022.3826"/>
<polygon fill="#000000" stroke="#000000" points="868.3612,-1024.2599 876.521,-1031.0178 874.3564,-1020.6464 868.3612,-1024.2599"/>
</g>
<!-- relived -->
<g id="node25" class="node">
<title>relived</title>
<ellipse fill="none" stroke="#000000" cx="446.6146" cy="-1287.0468" rx="34.8198" ry="18"/>
<text text-anchor="middle" x="446.6146" y="-1282.8468" font-family="Times,serif" font-size="14.00" fill="#000000">relived</text>
</g>
<!-- head g1 noun phrase as adverbial modifier&#45;&gt;relived -->
<g id="edge10" class="edge">
<title>head g1 noun phrase as adverbial modifier&#45;&gt;relived</title>
<path fill="none" stroke="#000000" d="M764.9745,-888.2502C737.9957,-921.6663 678.5417,-995.386 628.7095,-1057.7377 569.3247,-1132.0418 499.4714,-1220.2278 466.1762,-1262.3093"/>
<polygon fill="#000000" stroke="#000000" points="463.29,-1260.3164 459.8307,-1270.3306 468.7799,-1264.6594 463.29,-1260.3164"/>
</g>
<!-- wait -->
<g id="node26" class="node">
<title>wait</title>
<ellipse fill="none" stroke="#000000" cx="816.0485" cy="-1296.6198" rx="27" ry="18"/>
<text text-anchor="middle" x="816.0485" y="-1292.4198" font-family="Times,serif" font-size="14.00" fill="#000000">wait</text>
</g>
<!-- head g1 noun phrase as adverbial modifier&#45;&gt;wait -->
<g id="edge11" class="edge">
<title>head g1 noun phrase as adverbial modifier&#45;&gt;wait</title>
<path fill="none" stroke="#000000" d="M781.1199,-888.2254C786.8164,-954.8299 806.6832,-1187.1185 813.6289,-1268.329"/>
<polygon fill="#000000" stroke="#000000" points="810.1443,-1268.66 814.4838,-1278.3253 817.1189,-1268.0634 810.1443,-1268.66"/>
</g>
<!-- offering -->
<g id="node29" class="node">
<title>offering</title>
<ellipse fill="none" stroke="#000000" cx="818.7055" cy="-587.9046" rx="38.3672" ry="18"/>
<text text-anchor="middle" x="818.7055" y="-583.7046" font-family="Times,serif" font-size="14.00" fill="#000000">offering</text>
</g>
<!-- head g1 noun phrase as adverbial modifier&#45;&gt;offering -->
<g id="edge12" class="edge">
<title>head g1 noun phrase as adverbial modifier&#45;&gt;offering</title>
<path fill="none" stroke="#000000" d="M782.0833,-852.0873C788.7071,-804.3049 806.7134,-674.4125 814.7455,-616.4709"/>
<polygon fill="#000000" stroke="#000000" points="818.2622,-616.5918 816.1685,-606.2059 811.3285,-615.6305 818.2622,-616.5918"/>
</g>
<!-- conceded -->
<g id="node30" class="node">
<title>conceded</title>
<ellipse fill="none" stroke="#000000" cx="1057.035" cy="-940.7553" rx="43.4887" ry="18"/>
<text text-anchor="middle" x="1057.035" y="-936.5553" font-family="Times,serif" font-size="14.00" fill="#000000">conceded</text>
</g>
<!-- head g1 noun phrase as adverbial modifier&#45;&gt;conceded -->
<g id="edge13" class="edge">
<title>head g1 noun phrase as adverbial modifier&#45;&gt;conceded</title>
<path fill="none" stroke="#000000" d="M844.6278,-886.7221C895.2575,-899.6016 964.3308,-917.1728 1009.7774,-928.7337"/>
<polygon fill="#000000" stroke="#000000" points="1009.1109,-932.1756 1019.6652,-931.249 1010.8367,-925.3916 1009.1109,-932.1756"/>
</g>
<!-- went -->
<g id="node31" class="node">
<title>went</title>
<ellipse fill="none" stroke="#000000" cx="360.7832" cy="-1001.8341" rx="27.0958" ry="18"/>
<text text-anchor="middle" x="360.7832" y="-997.6341" font-family="Times,serif" font-size="14.00" fill="#000000">went</text>
</g>
<!-- head g1 noun phrase as adverbial modifier&#45;&gt;went -->
<g id="edge14" class="edge">
<title>head g1 noun phrase as adverbial modifier&#45;&gt;went</title>
<path fill="none" stroke="#000000" d="M725.2555,-887.2512C637.7457,-914.7626 468.0266,-968.1189 395.2647,-990.9938"/>
<polygon fill="#000000" stroke="#000000" points="394.1498,-987.6753 385.6598,-994.0134 396.2492,-994.3531 394.1498,-987.6753"/>
</g>
<!-- seem -->
<g id="node33" class="node">
<title>seem</title>
<ellipse fill="none" stroke="#000000" cx="565.8098" cy="-862.419" rx="28.0565" ry="18"/>
<text text-anchor="middle" x="565.8098" y="-858.219" font-family="Times,serif" font-size="14.00" fill="#000000">seem</text>
</g>
<!-- head g1 noun phrase as adverbial modifier&#45;&gt;seem -->
<g id="edge15" class="edge">
<title>head g1 noun phrase as adverbial modifier&#45;&gt;seem</title>
<path fill="none" stroke="#000000" d="M627.3531,-864.6517C619.263,-864.3582 611.5983,-864.0801 604.6008,-863.8263"/>
<polygon fill="#000000" stroke="#000000" points="604.3089,-860.3135 594.1886,-863.4485 604.0551,-867.3089 604.3089,-860.3135"/>
</g>
<!-- remain -->
<g id="node35" class="node">
<title>remain</title>
<ellipse fill="none" stroke="#000000" cx="1142.6898" cy="-1260.0561" rx="34.8198" ry="18"/>
<text text-anchor="middle" x="1142.6898" y="-1255.8561" font-family="Times,serif" font-size="14.00" fill="#000000">remain</text>
</g>
<!-- head g1 noun phrase as adverbial modifier&#45;&gt;remain -->
<g id="edge16" class="edge">
<title>head g1 noun phrase as adverbial modifier&#45;&gt;remain</title>
<path fill="none" stroke="#000000" d="M796.3615,-888.1968C855.3207,-951.5024 1052.9907,-1163.7445 1120.1435,-1235.8477"/>
<polygon fill="#000000" stroke="#000000" points="1117.9339,-1238.6107 1127.3106,-1243.5432 1123.0564,-1233.8399 1117.9339,-1238.6107"/>
</g>
<!-- have -->
<g id="node36" class="node">
<title>have</title>
<ellipse fill="none" stroke="#000000" cx="945.62" cy="-778.687" rx="27" ry="18"/>
<text text-anchor="middle" x="945.62" y="-774.487" font-family="Times,serif" font-size="14.00" fill="#000000">have</text>
</g>
<!-- head g1 noun phrase as adverbial modifier&#45;&gt;have -->
<g id="edge17" class="edge">
<title>head g1 noun phrase as adverbial modifier&#45;&gt;have</title>
<path fill="none" stroke="#000000" d="M811.591,-852.5343C841.6938,-835.9483 886.4037,-811.314 915.7775,-795.1297"/>
<polygon fill="#000000" stroke="#000000" points="917.668,-798.0841 924.7375,-790.1928 914.2899,-791.9532 917.668,-798.0841"/>
</g>
<!-- head g2 conjunct -->
<g id="node4" class="node">
<title>head g2 conjunct</title>
<ellipse fill="none" stroke="#000000" cx="359.0805" cy="-712.5824" rx="70.534" ry="18"/>
<text text-anchor="middle" x="359.0805" y="-708.3824" font-family="Times,serif" font-size="14.00" fill="#000000">head g2 conjunct</text>
</g>
<!-- is&#45;&gt;head g2 conjunct -->
<g id="edge18" class="edge">
<title>is&#45;&gt;head g2 conjunct</title>
<path fill="none" stroke="#000000" d="M657.7793,-722.4769C610.314,-720.9046 510.6992,-717.6048 439.5617,-715.2483"/>
<polygon fill="#000000" stroke="#000000" points="439.3927,-711.7409 429.2822,-714.9078 439.1609,-718.7371 439.3927,-711.7409"/>
<text text-anchor="middle" x="530.2608" y="-721.4905" font-family="Times,serif" font-size="14.00" fill="#000000">head</text>
</g>
<!-- head g2 adverbial clause modifier -->
<g id="node10" class="node">
<title>head g2 adverbial clause modifier</title>
<ellipse fill="none" stroke="#000000" cx="375.8089" cy="-391.2716" rx="129.4009" ry="18"/>
<text text-anchor="middle" x="375.8089" y="-387.0716" font-family="Times,serif" font-size="14.00" fill="#000000">head g2 adverbial clause modifier</text>
</g>
<!-- is&#45;&gt;head g2 adverbial clause modifier -->
<g id="edge19" class="edge">
<title>is&#45;&gt;head g2 adverbial clause modifier</title>
<path fill="none" stroke="#000000" d="M669.2131,-708.571C643.559,-684.384 591.4449,-634.6877 549.1545,-590.7595 491.7616,-531.1438 429.1967,-456.5121 397.235,-417.6137"/>
<polygon fill="#000000" stroke="#000000" points="399.569,-414.9399 390.5238,-409.4232 394.1545,-419.3765 399.569,-414.9399"/>
<text text-anchor="middle" x="510.8393" y="-566.9227" font-family="Times,serif" font-size="14.00" fill="#000000">head</text>
</g>
<!-- head g2 head of prep phrase -->
<g id="node15" class="node">
<title>head g2 head of prep phrase</title>
<ellipse fill="none" stroke="#000000" cx="677.5167" cy="-342.1819" rx="109.6053" ry="18"/>
<text text-anchor="middle" x="677.5167" y="-337.9819" font-family="Times,serif" font-size="14.00" fill="#000000">head g2 head of prep phrase</text>
</g>
<!-- is&#45;&gt;head g2 head of prep phrase -->
<g id="edge20" class="edge">
<title>is&#45;&gt;head g2 head of prep phrase</title>
<path fill="none" stroke="#000000" d="M684.6508,-705.2494C683.4481,-644.0444 679.5321,-444.7491 678.0721,-370.4468"/>
<polygon fill="#000000" stroke="#000000" points="681.571,-370.3517 677.8751,-360.4224 674.5723,-370.4893 681.571,-370.3517"/>
<text text-anchor="middle" x="668.0441" y="-535.3804" font-family="Times,serif" font-size="14.00" fill="#000000">head</text>
</g>
<!-- help -->
<g id="node5" class="node">
<title>help</title>
<ellipse fill="none" stroke="#000000" cx="39.7638" cy="-1220.0664" rx="27" ry="18"/>
<text text-anchor="middle" x="39.7638" y="-1215.8664" font-family="Times,serif" font-size="14.00" fill="#000000">help</text>
</g>
<!-- head g2 conjunct&#45;&gt;help -->
<g id="edge21" class="edge">
<title>head g2 conjunct&#45;&gt;help</title>
<path fill="none" stroke="#000000" d="M347.7159,-730.644C299.5373,-807.2133 112.0545,-1105.1762 55.8051,-1194.5723"/>
<polygon fill="#000000" stroke="#000000" points="52.7016,-1192.9327 50.3383,-1203.2607 58.6263,-1196.6607 52.7016,-1192.9327"/>
</g>
<!-- come -->
<g id="node20" class="node">
<title>come</title>
<ellipse fill="none" stroke="#000000" cx="29.2576" cy="-394.5977" rx="29.0172" ry="18"/>
<text text-anchor="middle" x="29.2576" y="-390.3977" font-family="Times,serif" font-size="14.00" fill="#000000">come</text>
</g>
<!-- head g2 conjunct&#45;&gt;come -->
<g id="edge22" class="edge">
<title>head g2 conjunct&#45;&gt;come</title>
<path fill="none" stroke="#000000" d="M340.878,-695.0332C284.8013,-640.9692 114.7154,-476.9882 52.4312,-416.9395"/>
<polygon fill="#000000" stroke="#000000" points="54.6768,-414.2428 45.0484,-409.8218 49.8183,-419.2822 54.6768,-414.2428"/>
</g>
<!-- met -->
<g id="node32" class="node">
<title>met</title>
<ellipse fill="none" stroke="#000000" cx="33.5443" cy="-923.1842" rx="27" ry="18"/>
<text text-anchor="middle" x="33.5443" y="-918.9842" font-family="Times,serif" font-size="14.00" fill="#000000">met</text>
</g>
<!-- head g2 conjunct&#45;&gt;met -->
<g id="edge23" class="edge">
<title>head g2 conjunct&#45;&gt;met</title>
<path fill="none" stroke="#000000" d="M332.9908,-729.4608C272.5933,-768.5343 123.5873,-864.9319 61.4531,-905.129"/>
<polygon fill="#000000" stroke="#000000" points="59.432,-902.2678 52.937,-910.6384 63.2343,-908.1452 59.432,-902.2678"/>
</g>
<!-- burned -->
<g id="node34" class="node">
<title>burned</title>
<ellipse fill="none" stroke="#000000" cx="39.6989" cy="-674.3487" rx="34.8285" ry="18"/>
<text text-anchor="middle" x="39.6989" y="-670.1487" font-family="Times,serif" font-size="14.00" fill="#000000">burned</text>
</g>
<!-- head g2 conjunct&#45;&gt;burned -->
<g id="edge24" class="edge">
<title>head g2 conjunct&#45;&gt;burned</title>
<path fill="none" stroke="#000000" d="M295.2165,-704.9371C232.4534,-697.4236 138.3514,-686.1585 83.5783,-679.6016"/>
<polygon fill="#000000" stroke="#000000" points="83.8422,-676.1083 73.497,-678.3947 83.0101,-683.0586 83.8422,-676.1083"/>
</g>
<!-- head g1 head of prep phrase&#45;&gt;is -->
<g id="edge26" class="edge">
<title>head g1 head of prep phrase&#45;&gt;is</title>
<path fill="none" stroke="#000000" d="M931.0625,-366.0859C903.2126,-405.9595 834.3138,-504.7532 777.1974,-587.8665 750.8456,-626.2124 720.5455,-670.859 702.092,-698.113"/>
<polygon fill="#000000" stroke="#000000" points="699.0174,-696.4114 696.3108,-706.6547 704.8144,-700.335 699.0174,-696.4114"/>
</g>
<!-- feels -->
<g id="node7" class="node">
<title>feels</title>
<ellipse fill="none" stroke="#000000" cx="805.8427" cy="-18" rx="27" ry="18"/>
<text text-anchor="middle" x="805.8427" y="-13.8" font-family="Times,serif" font-size="14.00" fill="#000000">feels</text>
</g>
<!-- head g1 head of prep phrase&#45;&gt;feels -->
<g id="edge25" class="edge">
<title>head g1 head of prep phrase&#45;&gt;feels</title>
<path fill="none" stroke="#000000" d="M936.0436,-329.8611C913.0665,-274.8257 844.2778,-110.0608 817.0838,-44.9249"/>
<polygon fill="#000000" stroke="#000000" points="820.1724,-43.238 813.0898,-35.3584 813.7127,-45.935 820.1724,-43.238"/>
</g>
<!-- get -->
<g id="node17" class="node">
<title>get</title>
<ellipse fill="none" stroke="#000000" cx="1142.8739" cy="-26.7428" rx="27" ry="18"/>
<text text-anchor="middle" x="1142.8739" y="-22.5428" font-family="Times,serif" font-size="14.00" fill="#000000">get</text>
</g>
<!-- head g1 head of prep phrase&#45;&gt;get -->
<g id="edge27" class="edge">
<title>head g1 head of prep phrase&#45;&gt;get</title>
<path fill="none" stroke="#000000" d="M954.931,-329.8806C988.5884,-275.5937 1088.3544,-114.6786 1127.1723,-52.0684"/>
<polygon fill="#000000" stroke="#000000" points="1130.1474,-53.9118 1132.4421,-43.5685 1124.198,-50.2233 1130.1474,-53.9118"/>
</g>
<!-- growing -->
<g id="node19" class="node">
<title>growing</title>
<ellipse fill="none" stroke="#000000" cx="579.4555" cy="-577.0466" rx="39.6645" ry="18"/>
<text text-anchor="middle" x="579.4555" y="-572.8466" font-family="Times,serif" font-size="14.00" fill="#000000">growing</text>
</g>
<!-- head g1 head of prep phrase&#45;&gt;growing -->
<g id="edge28" class="edge">
<title>head g1 head of prep phrase&#45;&gt;growing</title>
<path fill="none" stroke="#000000" d="M915.676,-365.6643C849.2036,-407.4556 682.0841,-512.5239 611.6032,-556.8353"/>
<polygon fill="#000000" stroke="#000000" points="609.3151,-554.1395 602.7121,-562.4252 613.0409,-560.0657 609.3151,-554.1395"/>
</g>
<!-- homecoming -->
<g id="node9" class="node">
<title>homecoming</title>
<ellipse fill="none" stroke="#000000" cx="1537.1905" cy="-82.0041" rx="56.0614" ry="18"/>
<text text-anchor="middle" x="1537.1905" y="-77.8041" font-family="Times,serif" font-size="14.00" fill="#000000">homecoming</text>
</g>
<!-- child g1 compound&#45;&gt;homecoming -->
<g id="edge29" class="edge">
<title>child g1 compound&#45;&gt;homecoming</title>
<path fill="none" stroke="#000000" d="M1260.6918,-383.8146C1309.7588,-330.2558 1457.2014,-169.3158 1514.2768,-107.0154"/>
<polygon fill="#000000" stroke="#000000" points="1516.9151,-109.3169 1521.0895,-99.5791 1511.7536,-104.5883 1516.9151,-109.3169"/>
</g>
<!-- seems -->
<g id="node11" class="node">
<title>seems</title>
<ellipse fill="none" stroke="#000000" cx="72.0514" cy="-34.7878" rx="31.9393" ry="18"/>
<text text-anchor="middle" x="72.0514" y="-30.5878" font-family="Times,serif" font-size="14.00" fill="#000000">seems</text>
</g>
<!-- head g2 adverbial clause modifier&#45;&gt;seems -->
<g id="edge30" class="edge">
<title>head g2 adverbial clause modifier&#45;&gt;seems</title>
<path fill="none" stroke="#000000" d="M360.3279,-373.1035C309.8943,-313.9155 150.2748,-126.5892 92.8702,-59.2203"/>
<polygon fill="#000000" stroke="#000000" points="95.2319,-56.5955 86.0821,-51.2539 89.9038,-61.1355 95.2319,-56.5955"/>
</g>
<!-- this -->
<g id="node14" class="node">
<title>this</title>
<ellipse fill="none" stroke="#000000" cx="1570.5917" cy="-561.5607" rx="27" ry="18"/>
<text text-anchor="middle" x="1570.5917" y="-557.3607" font-family="Times,serif" font-size="14.00" fill="#000000">this</text>
</g>
<!-- child g1 determiner&#45;&gt;this -->
<g id="edge31" class="edge">
<title>child g1 determiner&#45;&gt;this</title>
<path fill="none" stroke="#000000" d="M1297.8325,-730.4562C1354.5744,-695.321 1484.3329,-614.9731 1542.0279,-579.2477"/>
<polygon fill="#000000" stroke="#000000" points="1543.9872,-582.1512 1550.6466,-573.9109 1540.302,-576.1998 1543.9872,-582.1512"/>
</g>
<!-- gonna -->
<g id="node18" class="node">
<title>gonna</title>
<ellipse fill="none" stroke="#000000" cx="1581.0489" cy="-1019.3209" rx="31.9393" ry="18"/>
<text text-anchor="middle" x="1581.0489" y="-1015.1209" font-family="Times,serif" font-size="14.00" fill="#000000">gonna</text>
</g>
<!-- child g1 determiner&#45;&gt;gonna -->
<g id="edge32" class="edge">
<title>child g1 determiner&#45;&gt;gonna</title>
<path fill="none" stroke="#000000" d="M1290.7791,-765.2835C1345.5703,-813.2354 1495.9247,-944.8221 1555.8822,-997.2956"/>
<polygon fill="#000000" stroke="#000000" points="1553.893,-1000.2058 1563.7231,-1004.1578 1558.503,-994.9382 1553.893,-1000.2058"/>
</g>
<!-- making -->
<g id="node16" class="node">
<title>making</title>
<ellipse fill="none" stroke="#000000" cx="473.4258" cy="-30.7674" rx="36.7663" ry="18"/>
<text text-anchor="middle" x="473.4258" y="-26.5674" font-family="Times,serif" font-size="14.00" fill="#000000">making</text>
</g>
<!-- head g2 head of prep phrase&#45;&gt;making -->
<g id="edge33" class="edge">
<title>head g2 head of prep phrase&#45;&gt;making</title>
<path fill="none" stroke="#000000" d="M665.6618,-324.0929C631.1898,-271.4934 530.8789,-118.4329 490.5301,-56.8661"/>
<polygon fill="#000000" stroke="#000000" points="493.216,-54.5793 484.8072,-48.1339 487.3613,-58.4163 493.216,-54.5793"/>
</g>
<!-- growing&#45;&gt;head g2 conjunct -->
<g id="edge34" class="edge">
<title>growing&#45;&gt;head g2 conjunct</title>
<path fill="none" stroke="#000000" d="M555.8715,-591.5513C517.2516,-615.3035 440.2877,-662.638 394.8979,-690.5538"/>
<polygon fill="#000000" stroke="#000000" points="392.946,-687.6453 386.2616,-695.8654 396.6132,-693.6079 392.946,-687.6453"/>
<text text-anchor="middle" x="457.7274" y="-646.5854" font-family="Times,serif" font-size="14.00" fill="#000000">head</text>
</g>
<!-- Last -->
<g id="node23" class="node">
<title>Last</title>
<ellipse fill="none" stroke="#000000" cx="1516.4361" cy="-1511.5169" rx="27" ry="18"/>
<text text-anchor="middle" x="1516.4361" y="-1507.3169" font-family="Times,serif" font-size="14.00" fill="#000000">Last</text>
</g>
<!-- child g1 adjectival modifier&#45;&gt;Last -->
<g id="edge35" class="edge">
<title>child g1 adjectival modifier&#45;&gt;Last</title>
<path fill="none" stroke="#000000" d="M1299.3936,-1068.3598C1334.2325,-1139.4938 1461.972,-1400.3123 1503.3825,-1484.8643"/>
<polygon fill="#000000" stroke="#000000" points="1500.3425,-1486.6145 1507.8842,-1494.0558 1506.629,-1483.5356 1500.3425,-1486.6145"/>
</g>
<!-- head g2 open clausal complement -->
<g id="node27" class="node">
<title>head g2 open clausal complement</title>
<ellipse fill="none" stroke="#000000" cx="610.019" cy="-1594.2103" rx="129.8854" ry="18"/>
<text text-anchor="middle" x="610.019" y="-1590.0103" font-family="Times,serif" font-size="14.00" fill="#000000">head g2 open clausal complement</text>
</g>
<!-- wait&#45;&gt;head g2 open clausal complement -->
<g id="edge36" class="edge">
<title>wait&#45;&gt;head g2 open clausal complement</title>
<path fill="none" stroke="#000000" d="M804.678,-1313.0434C770.7472,-1362.0533 669.9953,-1507.5802 628.3494,-1567.7337"/>
<polygon fill="#000000" stroke="#000000" points="625.4634,-1565.7536 622.6488,-1575.9677 631.2187,-1569.7382 625.4634,-1565.7536"/>
<text text-anchor="middle" x="700.5046" y="-1447.2261" font-family="Times,serif" font-size="14.00" fill="#000000">head</text>
</g>
<!-- willing -->
<g id="node28" class="node">
<title>willing</title>
<ellipse fill="none" stroke="#000000" cx="1060.5191" cy="-1591.01" rx="35.3303" ry="18"/>
<text text-anchor="middle" x="1060.5191" y="-1586.81" font-family="Times,serif" font-size="14.00" fill="#000000">willing</text>
</g>
<!-- head g2 open clausal complement&#45;&gt;willing -->
<g id="edge37" class="edge">
<title>head g2 open clausal complement&#45;&gt;willing</title>
<path fill="none" stroke="#000000" d="M740.02,-1593.2868C832.3426,-1592.6309 950.8328,-1591.7892 1014.7405,-1591.3352"/>
<polygon fill="#000000" stroke="#000000" points="1014.9175,-1594.8341 1024.8924,-1591.2631 1014.8677,-1587.8343 1014.9175,-1594.8341"/>
</g>
<!-- went&#45;&gt;head g2 conjunct -->
<g id="edge38" class="edge">
<title>went&#45;&gt;head g2 conjunct</title>
<path fill="none" stroke="#000000" d="M360.6767,-983.7401C360.3888,-934.8381 359.5937,-799.7557 359.2464,-740.7616"/>
<polygon fill="#000000" stroke="#000000" points="362.7459,-740.6487 359.187,-730.6695 355.746,-740.69 362.7459,-740.6487"/>
<text text-anchor="middle" x="346.7194" y="-860.2421" font-family="Times,serif" font-size="14.00" fill="#000000">head</text>
</g>
<!-- seem&#45;&gt;head g2 conjunct -->
<g id="edge39" class="edge">
<title>seem&#45;&gt;head g2 conjunct</title>
<path fill="none" stroke="#000000" d="M547.0994,-848.8578C511.6913,-823.1941 434.5299,-767.2678 390.8617,-735.6172"/>
<polygon fill="#000000" stroke="#000000" points="392.7478,-732.6616 382.5969,-729.6269 388.6398,-738.3295 392.7478,-732.6616"/>
<text text-anchor="middle" x="451.6688" y="-792.0674" font-family="Times,serif" font-size="14.00" fill="#000000">head</text>
</g>
</g>
</svg>
