<?xml version="1.0" encoding="UTF-8" standalone="no"?>
<!DOCTYPE svg PUBLIC "-//W3C//DTD SVG 1.1//EN"
 "http://www.w3.org/Graphics/SVG/1.1/DTD/svg11.dtd">
<!-- Generated by graphviz version 2.40.1 (20161225.0304)
 -->
<!-- Title: %3 Pages: 1 -->
<svg width="545pt" height="353pt"
 viewBox="0.00 0.00 544.51 353.41" xmlns="http://www.w3.org/2000/svg" xmlns:xlink="http://www.w3.org/1999/xlink">
<g id="graph0" class="graph" transform="scale(1 1) rotate(0) translate(4 349.4095)">
<title>%3</title>
<polygon fill="#ffffff" stroke="transparent" points="-4,4 -4,-349.4095 540.5129,-349.4095 540.5129,4 -4,4"/>
<!-- WORK_OF_ART -->
<g id="node1" class="node">
<title>WORK_OF_ART</title>
<ellipse fill="none" stroke="#000000" cx="273.865" cy="-197.0681" rx="74.3671" ry="18"/>
<text text-anchor="middle" x="273.865" y="-192.8681" font-family="Times,serif" font-size="14.00" fill="#000000">WORK_OF_ART</text>
<text text-anchor="middle" x="195.9315" y="-217.8681" font-family="Times,serif" font-size="14.00" fill="#000000">1</text>
</g>
<!-- head g1 direct object -->
<g id="node2" class="node">
<title>head g1 direct object</title>
<ellipse fill="none" stroke="#000000" cx="290.715" cy="-43.0497" rx="84.0308" ry="18"/>
<text text-anchor="middle" x="290.715" y="-38.8497" font-family="Times,serif" font-size="14.00" fill="#000000">head g1 direct object</text>
</g>
<!-- WORK_OF_ART&#45;&gt;head g1 direct object -->
<g id="edge1" class="edge">
<title>WORK_OF_ART&#45;&gt;head g1 direct object</title>
<path fill="none" stroke="#000000" d="M275.8641,-178.7953C278.765,-152.2795 284.1683,-102.89 287.5959,-71.5601"/>
<polygon fill="#000000" stroke="#000000" points="291.1101,-71.62 288.7185,-61.2986 284.1517,-70.8587 291.1101,-71.62"/>
<text text-anchor="middle" x="269.0734" y="-122.8835" font-family="Times,serif" font-size="14.00" fill="#000000">head</text>
</g>
<!-- child g1 determiner -->
<g id="node4" class="node">
<title>child g1 determiner</title>
<ellipse fill="none" stroke="#000000" cx="274.2789" cy="-327.4095" rx="79.2126" ry="18"/>
<text text-anchor="middle" x="274.2789" y="-323.2095" font-family="Times,serif" font-size="14.00" fill="#000000">child g1 determiner</text>
</g>
<!-- WORK_OF_ART&#45;&gt;child g1 determiner -->
<g id="edge2" class="edge">
<title>WORK_OF_ART&#45;&gt;child g1 determiner</title>
<path fill="none" stroke="#000000" d="M273.9225,-215.1915C273.9913,-236.8584 274.1073,-273.3812 274.1882,-298.8547"/>
<polygon fill="#000000" stroke="#000000" points="270.6886,-299.031 274.2205,-309.0199 277.6886,-299.0088 270.6886,-299.031"/>
<text text-anchor="middle" x="260.0744" y="-264.7528" font-family="Times,serif" font-size="14.00" fill="#000000">child</text>
</g>
<!-- child g1 compound -->
<g id="node6" class="node">
<title>child g1 compound</title>
<ellipse fill="none" stroke="#000000" cx="153.0515" cy="-169.246" rx="78.278" ry="18"/>
<text text-anchor="middle" x="153.0515" y="-165.046" font-family="Times,serif" font-size="14.00" fill="#000000">child g1 compound</text>
</g>
<!-- WORK_OF_ART&#45;&gt;child g1 compound -->
<g id="edge3" class="edge">
<title>WORK_OF_ART&#45;&gt;child g1 compound</title>
<path fill="none" stroke="#000000" d="M219.8188,-184.6218C219.3476,-184.5133 218.8759,-184.4047 218.4037,-184.2959"/>
<polygon fill="#000000" stroke="#000000" points="218.9998,-180.8416 208.4694,-182.0081 217.4288,-187.6631 218.9998,-180.8416"/>
<text text-anchor="middle" x="232.4446" y="-173.1061" font-family="Times,serif" font-size="14.00" fill="#000000">child</text>
</g>
<!-- headleaf awarded -->
<g id="node3" class="node">
<title>headleaf awarded</title>
<ellipse fill="none" stroke="#000000" cx="454.2189" cy="-162.5029" rx="72.4287" ry="18"/>
<text text-anchor="middle" x="454.2189" y="-158.3029" font-family="Times,serif" font-size="14.00" fill="#000000">headleaf awarded</text>
</g>
<!-- head g1 direct object&#45;&gt;headleaf awarded -->
<g id="edge4" class="edge">
<title>head g1 direct object&#45;&gt;headleaf awarded</title>
<path fill="none" stroke="#000000" d="M314.4899,-60.4192C342.906,-81.1796 390.5764,-116.0067 422.2122,-139.1193"/>
<polygon fill="#000000" stroke="#000000" points="420.5412,-142.2331 430.6806,-145.3062 424.6707,-136.5808 420.5412,-142.2331"/>
</g>
<!-- head g2 ROOT -->
<g id="node9" class="node">
<title>head g2 ROOT</title>
<ellipse fill="none" stroke="#000000" cx="472.3737" cy="-18" rx="64.2787" ry="18"/>
<text text-anchor="middle" x="472.3737" y="-13.8" font-family="Times,serif" font-size="14.00" fill="#000000">head g2 ROOT</text>
</g>
<!-- headleaf awarded&#45;&gt;head g2 ROOT -->
<g id="edge5" class="edge">
<title>headleaf awarded&#45;&gt;head g2 ROOT</title>
<path fill="none" stroke="#000000" d="M456.4815,-144.4937C459.5799,-119.8317 465.1747,-75.3002 468.8313,-46.1956"/>
<polygon fill="#000000" stroke="#000000" points="472.3086,-46.5945 470.0826,-36.2362 465.3632,-45.7218 472.3086,-46.5945"/>
<text text-anchor="middle" x="450.0238" y="-93.5181" font-family="Times,serif" font-size="14.00" fill="#000000">head</text>
</g>
<!-- childleaf the -->
<g id="node5" class="node">
<title>childleaf the</title>
<ellipse fill="none" stroke="#000000" cx="461.7891" cy="-327.271" rx="54.1129" ry="18"/>
<text text-anchor="middle" x="461.7891" y="-323.071" font-family="Times,serif" font-size="14.00" fill="#000000">childleaf the</text>
</g>
<!-- child g1 determiner&#45;&gt;childleaf the -->
<g id="edge6" class="edge">
<title>child g1 determiner&#45;&gt;childleaf the</title>
<path fill="none" stroke="#000000" d="M353.8001,-327.3508C368.4185,-327.34 383.5096,-327.3288 397.6068,-327.3184"/>
<polygon fill="#000000" stroke="#000000" points="397.6779,-330.8185 407.6753,-327.311 397.6726,-323.8185 397.6779,-330.8185"/>
</g>
<!-- childleaf Nobel -->
<g id="node7" class="node">
<title>childleaf Nobel</title>
<ellipse fill="none" stroke="#000000" cx="64.8646" cy="-307.5092" rx="64.7295" ry="18"/>
<text text-anchor="middle" x="64.8646" y="-303.3092" font-family="Times,serif" font-size="14.00" fill="#000000">childleaf Nobel</text>
</g>
<!-- child g1 compound&#45;&gt;childleaf Nobel -->
<g id="edge7" class="edge">
<title>child g1 compound&#45;&gt;childleaf Nobel</title>
<path fill="none" stroke="#000000" d="M141.5226,-187.3215C126.3382,-211.1283 99.5126,-253.1866 81.9624,-280.7026"/>
<polygon fill="#000000" stroke="#000000" points="78.823,-279.1161 76.3964,-289.4293 84.7248,-282.8803 78.823,-279.1161"/>
</g>
<!-- childleaf Peace -->
<g id="node8" class="node">
<title>childleaf Peace</title>
<ellipse fill="none" stroke="#000000" cx="74.4668" cy="-42.111" rx="63.7432" ry="18"/>
<text text-anchor="middle" x="74.4668" y="-37.911" font-family="Times,serif" font-size="14.00" fill="#000000">childleaf Peace</text>
</g>
<!-- child g1 compound&#45;&gt;childleaf Peace -->
<g id="edge8" class="edge">
<title>child g1 compound&#45;&gt;childleaf Peace</title>
<path fill="none" stroke="#000000" d="M141.9589,-151.3003C128.6199,-129.7202 106.1165,-93.314 90.7933,-68.524"/>
<polygon fill="#000000" stroke="#000000" points="93.7381,-66.6313 85.503,-59.9654 87.7837,-70.3118 93.7381,-66.6313"/>
</g>
<!-- head g2 ROOT&#45;&gt;headleaf awarded -->
<g id="edge9" class="edge">
<title>head g2 ROOT&#45;&gt;headleaf awarded</title>
<path fill="none" stroke="#000000" d="M470.1111,-36.0092C467.0126,-60.6711 461.4179,-105.2027 457.7613,-134.3073"/>
<polygon fill="#000000" stroke="#000000" points="454.2839,-133.9084 456.51,-144.2667 461.2293,-134.781 454.2839,-133.9084"/>
</g>
</g>
</svg>
