<?xml version="1.0" encoding="UTF-8" standalone="no"?>
<!DOCTYPE svg PUBLIC "-//W3C//DTD SVG 1.1//EN"
 "http://www.w3.org/Graphics/SVG/1.1/DTD/svg11.dtd">
<!-- Generated by graphviz version 2.40.1 (20161225.0304)
 -->
<!-- Title: %3 Pages: 1 -->
<svg width="283pt" height="188pt"
 viewBox="0.00 0.00 282.92 188.00" xmlns="http://www.w3.org/2000/svg" xmlns:xlink="http://www.w3.org/1999/xlink">
<g id="graph0" class="graph" transform="scale(1 1) rotate(0) translate(4 184)">
<title>%3</title>
<polygon fill="#ffffff" stroke="transparent" points="-4,4 -4,-184 278.9157,-184 278.9157,4 -4,4"/>
<!-- WORK_OF_ART -->
<g id="node1" class="node">
<title>WORK_OF_ART</title>
<ellipse fill="none" stroke="#000000" cx="161.0572" cy="-162" rx="74.3671" ry="18"/>
<text text-anchor="middle" x="161.0572" y="-157.8" font-family="Times,serif" font-size="14.00" fill="#000000">WORK_OF_ART</text>
</g>
<!-- direct object -->
<g id="node2" class="node">
<title>direct object</title>
<ellipse fill="none" stroke="#000000" cx="99.0572" cy="-90" rx="54.1129" ry="18"/>
<text text-anchor="middle" x="99.0572" y="-85.8" font-family="Times,serif" font-size="14.00" fill="#000000">direct object</text>
</g>
<!-- WORK_OF_ART&#45;&#45;direct object -->
<g id="edge1" class="edge">
<title>WORK_OF_ART&#45;&#45;direct object</title>
<path fill="none" stroke="#000000" d="M145.7313,-144.2022C136.0493,-132.9586 123.5991,-118.5003 113.9928,-107.3446"/>
</g>
<!-- punctuation -->
<g id="node4" class="node">
<title>punctuation</title>
<ellipse fill="none" stroke="#000000" cx="223.0572" cy="-90" rx="51.7174" ry="18"/>
<text text-anchor="middle" x="223.0572" y="-85.8" font-family="Times,serif" font-size="14.00" fill="#000000">punctuation</text>
</g>
<!-- WORK_OF_ART&#45;&#45;punctuation -->
<g id="edge2" class="edge">
<title>WORK_OF_ART&#45;&#45;punctuation</title>
<path fill="none" stroke="#000000" d="M176.383,-144.2022C186.065,-132.9586 198.5152,-118.5003 208.1215,-107.3446"/>
</g>
<!-- awarded -->
<g id="node3" class="node">
<title>awarded</title>
<ellipse fill="none" stroke="#000000" cx="40.0572" cy="-18" rx="40.1144" ry="18"/>
<text text-anchor="middle" x="40.0572" y="-13.8" font-family="Times,serif" font-size="14.00" fill="#000000">awarded</text>
</g>
<!-- direct object&#45;&#45;awarded -->
<g id="edge3" class="edge">
<title>direct object&#45;&#45;awarded</title>
<path fill="none" stroke="#000000" d="M84.7749,-72.5708C75.4986,-61.2506 63.4579,-46.5568 54.2079,-35.2687"/>
</g>
<!-- won -->
<g id="node6" class="node">
<title>won</title>
<ellipse fill="none" stroke="#000000" cx="125.0572" cy="-18" rx="27" ry="18"/>
<text text-anchor="middle" x="125.0572" y="-13.8" font-family="Times,serif" font-size="14.00" fill="#000000">won</text>
</g>
<!-- direct object&#45;&#45;won -->
<g id="edge4" class="edge">
<title>direct object&#45;&#45;won</title>
<path fill="none" stroke="#000000" d="M105.618,-71.8314C109.5895,-60.8334 114.6337,-46.865 118.5884,-35.9134"/>
</g>
<!-- Cole -->
<g id="node5" class="node">
<title>Cole</title>
<ellipse fill="none" stroke="#000000" cx="223.0572" cy="-18" rx="27" ry="18"/>
<text text-anchor="middle" x="223.0572" y="-13.8" font-family="Times,serif" font-size="14.00" fill="#000000">Cole</text>
</g>
<!-- punctuation&#45;&#45;Cole -->
<g id="edge5" class="edge">
<title>punctuation&#45;&#45;Cole</title>
<path fill="none" stroke="#000000" d="M223.0572,-71.8314C223.0572,-61 223.0572,-47.2876 223.0572,-36.4133"/>
</g>
</g>
</svg>
