<?xml version="1.0" encoding="UTF-8" standalone="no"?>
<!DOCTYPE svg PUBLIC "-//W3C//DTD SVG 1.1//EN"
 "http://www.w3.org/Graphics/SVG/1.1/DTD/svg11.dtd">
<!-- Generated by graphviz version 2.40.1 (20161225.0304)
 -->
<!-- Title: %3 Pages: 1 -->
<svg width="458pt" height="391pt"
 viewBox="0.00 0.00 457.53 391.40" xmlns="http://www.w3.org/2000/svg" xmlns:xlink="http://www.w3.org/1999/xlink">
<g id="graph0" class="graph" transform="scale(1 1) rotate(0) translate(4 387.4041)">
<title>%3</title>
<polygon fill="#ffffff" stroke="transparent" points="-4,4 -4,-387.4041 453.5324,-387.4041 453.5324,4 -4,4"/>
<!-- WORK_OF_ART -->
<g id="node1" class="node">
<title>WORK_OF_ART</title>
<ellipse fill="none" stroke="#000000" cx="221.4625" cy="-182.1331" rx="74.3671" ry="18"/>
<text text-anchor="middle" x="221.4625" y="-177.9331" font-family="Times,serif" font-size="14.00" fill="#000000">WORK_OF_ART</text>
<text text-anchor="middle" x="143.529" y="-202.9331" font-family="Times,serif" font-size="14.00" fill="#000000">1</text>
</g>
<!-- head g1 direct object -->
<g id="node2" class="node">
<title>head g1 direct object</title>
<ellipse fill="none" stroke="#000000" cx="336.5726" cy="-61.7953" rx="84.0308" ry="18"/>
<text text-anchor="middle" x="336.5726" y="-57.5953" font-family="Times,serif" font-size="14.00" fill="#000000">head g1 direct object</text>
</g>
<!-- WORK_OF_ART&#45;&gt;head g1 direct object -->
<g id="edge1" class="edge">
<title>WORK_OF_ART&#45;&gt;head g1 direct object</title>
<path fill="none" stroke="#000000" d="M238.4474,-164.3768C258.0005,-143.9357 290.2642,-110.2068 312.4235,-87.0411"/>
<polygon fill="#000000" stroke="#000000" points="315.1349,-89.27 319.518,-79.6244 310.0764,-84.4314 315.1349,-89.27"/>
<text text-anchor="middle" x="265.6097" y="-124.967" font-family="Times,serif" font-size="14.00" fill="#000000">head</text>
</g>
<!-- child g1 determiner -->
<g id="node4" class="node">
<title>child g1 determiner</title>
<ellipse fill="none" stroke="#000000" cx="241.7799" cy="-281.3907" rx="79.2126" ry="18"/>
<text text-anchor="middle" x="241.7799" y="-277.1907" font-family="Times,serif" font-size="14.00" fill="#000000">child g1 determiner</text>
</g>
<!-- WORK_OF_ART&#45;&gt;child g1 determiner -->
<g id="edge2" class="edge">
<title>WORK_OF_ART&#45;&gt;child g1 determiner</title>
<path fill="none" stroke="#000000" d="M225.189,-200.3385C228.2249,-215.1696 232.5626,-236.361 236.0413,-253.3558"/>
<polygon fill="#000000" stroke="#000000" points="232.6427,-254.2057 238.077,-263.3007 239.5005,-252.8019 232.6427,-254.2057"/>
<text text-anchor="middle" x="217.6142" y="-234.5108" font-family="Times,serif" font-size="14.00" fill="#000000">child</text>
</g>
<!-- child g1 compound -->
<g id="node6" class="node">
<title>child g1 compound</title>
<ellipse fill="none" stroke="#000000" cx="139.1987" cy="-122.5802" rx="78.278" ry="18"/>
<text text-anchor="middle" x="139.1987" y="-118.3802" font-family="Times,serif" font-size="14.00" fill="#000000">child g1 compound</text>
</g>
<!-- WORK_OF_ART&#45;&gt;child g1 compound -->
<g id="edge3" class="edge">
<title>WORK_OF_ART&#45;&gt;child g1 compound</title>
<path fill="none" stroke="#000000" d="M197.6684,-164.9079C189.3976,-158.9205 179.982,-152.1043 171.1595,-145.7175"/>
<polygon fill="#000000" stroke="#000000" points="173.092,-142.7956 162.9393,-139.7667 168.9872,-148.4658 173.092,-142.7956"/>
<text text-anchor="middle" x="166.4008" y="-155.205" font-family="Times,serif" font-size="14.00" fill="#000000">child</text>
</g>
<!-- awarded -->
<g id="node3" class="node">
<title>awarded</title>
<ellipse fill="none" stroke="#000000" cx="409.4753" cy="-237.6415" rx="40.1144" ry="18"/>
<text text-anchor="middle" x="409.4753" y="-233.4415" font-family="Times,serif" font-size="14.00" fill="#000000">awarded</text>
</g>
<!-- head g1 direct object&#45;&gt;awarded -->
<g id="edge4" class="edge">
<title>head g1 direct object&#45;&gt;awarded</title>
<path fill="none" stroke="#000000" d="M344.0999,-79.9516C356.9357,-110.9125 383.1264,-174.0862 398.1703,-210.3731"/>
<polygon fill="#000000" stroke="#000000" points="395.0345,-211.9486 402.0975,-219.8458 401.5009,-209.2678 395.0345,-211.9486"/>
</g>
<!-- the -->
<g id="node5" class="node">
<title>the</title>
<ellipse fill="none" stroke="#000000" cx="168.2209" cy="-365.4041" rx="27" ry="18"/>
<text text-anchor="middle" x="168.2209" y="-361.2041" font-family="Times,serif" font-size="14.00" fill="#000000">the</text>
</g>
<!-- child g1 determiner&#45;&gt;the -->
<g id="edge5" class="edge">
<title>child g1 determiner&#45;&gt;the</title>
<path fill="none" stroke="#000000" d="M226.1799,-299.2078C215.2512,-311.6897 200.5378,-328.4942 188.6705,-342.0482"/>
<polygon fill="#000000" stroke="#000000" points="186.0164,-339.7664 182.0622,-349.5957 191.283,-344.3776 186.0164,-339.7664"/>
</g>
<!-- Nobel -->
<g id="node7" class="node">
<title>Nobel</title>
<ellipse fill="none" stroke="#000000" cx="31.7189" cy="-209.1945" rx="31.9393" ry="18"/>
<text text-anchor="middle" x="31.7189" y="-204.9945" font-family="Times,serif" font-size="14.00" fill="#000000">Nobel</text>
</g>
<!-- child g1 compound&#45;&gt;Nobel -->
<g id="edge6" class="edge">
<title>child g1 compound&#45;&gt;Nobel</title>
<path fill="none" stroke="#000000" d="M117.7069,-139.8998C100.6009,-153.6849 76.5772,-173.0447 58.2694,-187.7984"/>
<polygon fill="#000000" stroke="#000000" points="55.8955,-185.2163 50.3053,-194.2164 60.2879,-190.6668 55.8955,-185.2163"/>
</g>
<!-- Peace -->
<g id="node8" class="node">
<title>Peace</title>
<ellipse fill="none" stroke="#000000" cx="119.4633" cy="-18" rx="30.9532" ry="18"/>
<text text-anchor="middle" x="119.4633" y="-13.8" font-family="Times,serif" font-size="14.00" fill="#000000">Peace</text>
</g>
<!-- child g1 compound&#45;&gt;Peace -->
<g id="edge7" class="edge">
<title>child g1 compound&#45;&gt;Peace</title>
<path fill="none" stroke="#000000" d="M135.7611,-104.3637C132.7189,-88.2429 128.2325,-64.4691 124.7366,-45.9439"/>
<polygon fill="#000000" stroke="#000000" points="128.1553,-45.1852 122.8616,-36.0077 121.2767,-46.4834 128.1553,-45.1852"/>
</g>
</g>
</svg>
